<svg width="100" height="16" viewBox="0 0 100 16" fill="none" xmlns="http://www.w3.org/2000/svg">
<path d="M7.8999 1L15.9999 5.82141V10.6429L7.8999 5.82141V1Z" fill="url(#paint0_linear)"/>
<path d="M7.8999 16L15.9999 11.2273V6.45459L7.8999 11.2273V16Z" fill="url(#paint1_linear)"/>
<path d="M7.9 1L0 5.82141V10.6429L7.9 5.82141V1Z" fill="url(#paint2_linear)"/>
<path d="M7.9 16L0 11.2273V6.45459L7.9 11.2273V16Z" fill="url(#paint3_linear)"/>
<path fill-rule="evenodd" clip-rule="evenodd" d="M20 12H21.3397V7.86969H21.3403V6.78612H21.3397V3H20V12ZM22.7605 7.86969H22.7599V6.78612H22.7605L25.1692 3H26.6442L23.8701 7.27054V7.29603L26.8201 12H25.3045L22.7605 7.86969ZM35.7653 3L33.8979 9.6034C33.7626 10.1006 33.6949 10.5595 33.6949 10.5595H33.6678C33.6678 10.5595 33.6137 10.0878 33.4919 9.6034L31.8004 3H30.4202L32.8559 12H34.4121L36.063 6.16147C36.2254 5.58782 36.3471 4.88669 36.3471 4.88669H36.3742C36.3742 4.88669 36.496 5.58782 36.6584 6.16147L38.3093 12H39.8654L42.3688 3H40.9886L39.2294 9.6034C39.0941 10.0878 39.0535 10.5595 39.0535 10.5595H39.0265C39.0265 10.5595 38.9588 10.1006 38.8235 9.6034L36.9561 3H35.7653ZM52.724 12H46.9459V3H52.4939V4.09632H48.2855V6.9136H51.7091V8.00991H48.2855V10.9037H52.724V12ZM57.5446 12H58.8843V6.16147C58.8843 5.65156 58.7895 4.84844 58.7895 4.84844H58.8166C58.8166 4.84844 59.2632 5.66431 59.615 6.16147L63.8775 12H65.1901V3H63.8505V8.85128C63.8505 9.34844 63.9452 10.1516 63.9452 10.1516H63.9181C63.9181 10.1516 63.4716 9.33569 63.1197 8.85128L58.8707 3H57.5446V12ZM74.0107 12H72.671V4.09632H69.3963V3H77.2854V4.09632H74.0107V12ZM86.6062 12H88L84.5629 3H83.1556L79.7185 12H81.0987L82.0319 9.45065L82.0316 9.45065L82.3978 8.36686L82.3978 8.36681L83.4668 5.51133C83.6292 5.05241 83.8457 4.23654 83.8457 4.23654H83.8728C83.8728 4.23654 84.0758 5.05241 84.2381 5.51133L85.2936 8.36686L85.2939 8.36681L85.6573 9.44405L86.6062 12Z" fill="white"/>
<path d="M92.0258 1V0.9H91.9258H91H90.9V1V6V6.1H91H94.287H94.387V6V5.13963V5.03963H94.287H92.0258V1ZM95.5577 5.11675L95.5269 5.14629V5.189V6V6.1H95.6269H99H99.1V6V5.2031V5.1031H99H97.0204L98.3218 3.87987C98.3219 3.87983 98.3219 3.87979 98.322 3.87976C98.5205 3.69436 98.6849 3.48654 98.8144 3.25639L98.8149 3.25561C98.9473 3.01539 99.0139 2.75904 99.0139 2.48801C99.0139 2.24574 98.9711 2.02476 98.8833 1.82687C98.7964 1.63101 98.6756 1.46396 98.5208 1.32707C98.3665 1.19057 98.1846 1.08777 97.9768 1.01803C97.7693 0.948413 97.5455 0.914105 97.3063 0.914105C97.0379 0.914105 96.7915 0.955574 96.5683 1.04015C96.3463 1.11962 96.1549 1.23462 95.9957 1.38593C95.836 1.53778 95.7134 1.7242 95.6272 1.9433C95.5405 2.15902 95.4981 2.39988 95.4981 2.66432V2.76432H95.5981H96.5096H96.6096V2.66432C96.6096 2.4366 96.6651 2.25382 96.7699 2.10957L96.7707 2.10849C96.8652 1.97472 97.0293 1.8969 97.2919 1.8969C97.4884 1.8969 97.6346 1.95006 97.7413 2.04717L97.7413 2.04718L97.7429 2.04852C97.8449 2.13761 97.9024 2.27135 97.9024 2.46685C97.9024 2.57229 97.8755 2.69524 97.8169 2.83715C97.7619 2.96567 97.6551 3.10977 97.4884 3.26902L97.4883 3.26908L95.5577 5.11675Z" fill="url(#paint4_linear)" stroke="url(#paint5_linear)" stroke-width="0.2"/>
<defs>
<linearGradient id="paint0_linear" x1="22.907" y1="5.79452" x2="2.93284" y2="5.79452" gradientUnits="userSpaceOnUse">
<stop stop-color="#996939"/>
<stop offset="1" stop-color="#D0A875"/>
</linearGradient>
<linearGradient id="paint1_linear" x1="11.9499" y1="16" x2="13.8415" y2="-2.26607" gradientUnits="userSpaceOnUse">
<stop stop-color="#272728"/>
<stop offset="1" stop-color="#4B4B4B"/>
</linearGradient>
<linearGradient id="paint2_linear" x1="7.94878" y1="2.97679" x2="0.117969" y2="9.23479" gradientUnits="userSpaceOnUse">
<stop stop-color="#996939"/>
<stop offset="1" stop-color="#D0A875"/>
</linearGradient>
<linearGradient id="paint3_linear" x1="3.95" y1="16" x2="3.95" y2="6.45459" gradientUnits="userSpaceOnUse">
<stop stop-color="#363636"/>
<stop offset="1" stop-color="#333232"/>
</linearGradient>
<linearGradient id="paint4_linear" x1="95" y1="1" x2="95" y2="6" gradientUnits="userSpaceOnUse">
<stop stop-color="#D1A866"/>
<stop offset="1" stop-color="#B99356"/>
</linearGradient>
<linearGradient id="paint5_linear" x1="95" y1="1" x2="95" y2="6" gradientUnits="userSpaceOnUse">
<stop stop-color="#F2DE82"/>
<stop offset="1" stop-color="#D1A866"/>
</linearGradient>
</defs>
</svg>
