<svg width="16" height="16" viewBox="0 0 16 16" fill="none" xmlns="http://www.w3.org/2000/svg">
<g clip-path="url(#clip0)">
<path fill-rule="evenodd" clip-rule="evenodd" d="M3.75735 3.75736C3.36683 4.14788 3.36683 4.78105 3.75735 5.17157L6.58578 8L3.75735 10.8284C3.36683 11.219 3.36683 11.8521 3.75735 12.2426C4.14787 12.6332 4.78104 12.6332 5.17156 12.2426L7.99999 9.41421L10.8284 12.2426C11.2189 12.6332 11.8521 12.6332 12.2426 12.2426C12.6332 11.8521 12.6332 11.219 12.2426 10.8284L9.4142 8L12.2426 5.17157C12.6332 4.78105 12.6332 4.14788 12.2426 3.75736C11.8521 3.36683 11.2189 3.36683 10.8284 3.75736L7.99999 6.58579L5.17156 3.75736C4.78104 3.36684 4.14787 3.36684 3.75735 3.75736Z" fill="currentColor"/>
</g>
<defs>
<clipPath id="clip0">
<rect width="16" height="16" fill="white"/>
</clipPath>
</defs>
</svg>
