<svg width="18" height="19" viewBox="0 0 25 19" fill="none" xmlns="http://www.w3.org/2000/svg">
<path d="M11.0095 15.8433C11.1036 15.8434 11.1968 15.8624 11.2836 15.899C11.3705 15.9357 11.4494 15.9893 11.5159 16.0569C11.5823 16.1245 11.635 16.2047 11.6709 16.2929C11.7068 16.3811 11.7252 16.4756 11.725 16.5711C11.7249 16.6665 11.7062 16.761 11.6701 16.8491C11.634 16.9372 11.5811 17.0173 11.5144 17.0846C11.4478 17.152 11.3687 17.2055 11.2818 17.2418C11.1948 17.2782 11.1016 17.2969 11.0075 17.2968C10.8174 17.2965 10.6353 17.2197 10.5011 17.0832C10.3669 16.9467 10.2917 16.7617 10.292 16.569C10.2922 16.3763 10.368 16.1915 10.5026 16.0554C10.6371 15.9193 10.8195 15.843 11.0095 15.8433ZM22.2457 11.3495C22.1516 11.3494 22.0584 11.3306 21.9715 11.294C21.8846 11.2574 21.8057 11.2038 21.7392 11.1363C21.6727 11.0687 21.62 10.9886 21.584 10.9004C21.5481 10.8122 21.5296 10.7177 21.5297 10.6222C21.5297 10.5268 21.5483 10.4323 21.5844 10.3442C21.6205 10.256 21.6733 10.176 21.7399 10.1085C21.8065 10.0411 21.8855 9.9876 21.9725 9.95115C22.0594 9.91469 22.1526 9.89596 22.2467 9.89602C22.4368 9.89616 22.6189 9.97286 22.7532 10.1092C22.8875 10.2456 22.9629 10.4305 22.9627 10.6233C22.9626 10.816 22.887 11.0008 22.7525 11.137C22.618 11.2732 22.4357 11.3496 22.2457 11.3495ZM22.2457 8.37638C21.6582 8.37693 21.0949 8.61389 20.6795 9.03524C20.264 9.45659 20.0304 10.0279 20.0299 10.6238C20.0299 10.8647 20.0696 11.1045 20.1471 11.3381L12.8279 15.2902C12.6249 14.9914 12.3533 14.747 12.0366 14.5783C11.7198 14.4095 11.3673 14.3214 11.0095 14.3216C10.1646 14.3216 9.39503 14.8126 9.02198 15.5787L2.44682 12.0618C1.75169 11.6917 1.23188 10.5318 1.28692 9.47528C1.31546 8.92428 1.503 8.4963 1.78941 8.3309C1.97083 8.22752 2.18895 8.23579 2.42134 8.35881L2.46415 8.38259C4.20706 9.31298 9.90873 12.3595 10.1493 12.4722C10.5193 12.6469 10.7251 12.7172 11.3571 12.4132L23.1437 6.19616C23.3169 6.13 23.5187 5.9615 23.5187 5.70616C23.5187 5.35261 23.1579 5.21305 23.1569 5.21305C22.4862 4.88741 21.4558 4.39844 20.4508 3.92084C18.3022 2.90051 15.8672 1.74476 14.7981 1.17618C13.8746 0.686177 13.1316 1.09968 12.9991 1.18239L12.7422 1.31161C7.92935 3.72546 1.48771 6.96115 1.12078 7.18755C0.465404 7.59279 0.0587243 8.40016 0.00572349 9.40188C-0.0758163 10.9908 0.722254 12.6479 1.86483 13.2547L8.81814 16.8915C8.89473 17.4258 9.15828 17.9142 9.56063 18.2676C9.96297 18.621 10.4773 18.8158 11.0095 18.8164C11.5908 18.8154 12.1485 18.5831 12.5627 18.1694C12.9769 17.7557 13.2145 17.1937 13.2243 16.6041L20.883 12.3936C21.2703 12.7017 21.7524 12.8702 22.2457 12.8702C22.8332 12.8696 23.3965 12.6327 23.8119 12.2113C24.2274 11.79 24.461 11.2186 24.4615 10.6228C24.461 10.0269 24.2274 9.45556 23.8119 9.03421C23.3965 8.61285 22.8332 8.3759 22.2457 8.37535" fill="#787878"/>
</svg>
