<svg width="16" height="16" viewBox="0 0 16 16" fill="none" xmlns="http://www.w3.org/2000/svg">
<path fill-rule="evenodd" clip-rule="evenodd" d="M14 4.66667C14 6.13943 12.8061 7.33333 11.3333 7.33333C9.86057 7.33333 8.66667 6.13943 8.66667 4.66667C8.66667 3.19391 9.86057 2 11.3333 2C12.8061 2 14 3.19391 14 4.66667ZM4.66667 14C6.13943 14 7.33333 12.8061 7.33333 11.3333C7.33333 9.86057 6.13943 8.66667 4.66667 8.66667C3.19391 8.66667 2 9.86057 2 11.3333C2 12.8061 3.19391 14 4.66667 14ZM11.3333 14C12.8061 14 14 12.8061 14 11.3333C14 9.86057 12.8061 8.66667 11.3333 8.66667C9.86057 8.66667 8.66667 9.86057 8.66667 11.3333C8.66667 12.8061 9.86057 14 11.3333 14ZM4.66667 7.33333C6.13943 7.33333 7.33333 6.13943 7.33333 4.66667C7.33333 3.19391 6.13943 2 4.66667 2C3.19391 2 2 3.19391 2 4.66667C2 6.13943 3.19391 7.33333 4.66667 7.33333Z" fill="currentColor"/>
</svg>
