<svg width="60" height="60" viewBox="0 0 60 60" fill="none" xmlns="http://www.w3.org/2000/svg">
<path d="M14.5 30H19.7068C20.4939 30 21.2077 29.5384 21.5307 28.8207L23.7227 23.9495C24.4227 22.3939 26.6238 22.3725 27.354 23.9141L33.1089 36.0632C33.7467 37.4098 35.5803 37.6111 36.4951 36.4349L40.8995 30.7721C41.2784 30.2849 41.861 30 42.4782 30H46" stroke="#C9975A" stroke-width="2" stroke-linecap="round" stroke-linejoin="round"/>
<mask id="mask0_264_12782" style="mask-type:alpha" maskUnits="userSpaceOnUse" x="2" y="2" width="56" height="56">
<path d="M30 2C14.5403 2 2 14.5403 2 30C2 45.4597 14.5403 58 30 58C45.4597 58 58 45.4597 58 30C58 14.5403 45.4597 2 30 2ZM8.63507 30C8.63507 18.1896 18.1896 8.63507 30 8.63507C34.7109 8.63507 39.0237 10.1611 42.5403 12.7488L12.6825 42.6066C10.1611 39.0237 8.63507 34.7109 8.63507 30ZM30 51.3649C25.2891 51.3649 20.9763 49.8389 17.4597 47.2512L47.3175 17.3934C49.9052 20.91 51.4313 25.2891 51.4313 29.9336C51.3649 41.7441 41.7441 51.3649 30 51.3649Z" fill="url(#paint0_linear_264_12782)"/>
</mask>
<g mask="url(#mask0_264_12782)">
<g filter="url(#filter0_b_264_12782)">
<path d="M30 2C14.5403 2 2 14.5403 2 30C2 45.4597 14.5403 58 30 58C45.4597 58 58 45.4597 58 30C58 14.5403 45.4597 2 30 2ZM8.63507 30C8.63507 18.1896 18.1896 8.63507 30 8.63507C34.7109 8.63507 39.0237 10.1611 42.5403 12.7488L12.6825 42.6066C10.1611 39.0237 8.63507 34.7109 8.63507 30ZM30 51.3649C25.2891 51.3649 20.9763 49.8389 17.4597 47.2512L47.3175 17.3934C49.9052 20.91 51.4313 25.2891 51.4313 29.9336C51.3649 41.7441 41.7441 51.3649 30 51.3649Z" fill="url(#paint1_linear_264_12782)" fill-opacity="0.07"/>
</g>
<path d="M42.7171 12.9256L42.9228 12.7199L42.6885 12.5475C39.1306 9.92938 34.7662 8.38507 30 8.38507C18.0515 8.38507 8.38507 18.0515 8.38507 30C8.38507 34.7664 9.92942 39.1288 12.478 42.7505L12.6491 42.9936L12.8592 42.7834L42.7171 12.9256ZM17.2829 47.0744L17.0772 47.2801L17.3115 47.4525C20.8694 50.0706 25.2338 51.6149 30 51.6149C41.8829 51.6149 51.6142 41.8817 51.6813 29.9351V29.9336C51.6813 25.2342 50.1372 20.8034 47.5189 17.2452L47.3465 17.0109L47.1408 17.2166L17.2829 47.0744ZM2.25 30C2.25 14.6784 14.6784 2.25 30 2.25C45.3216 2.25 57.75 14.6784 57.75 30C57.75 45.3216 45.3216 57.75 30 57.75C14.6784 57.75 2.25 45.3216 2.25 30Z" stroke="url(#paint2_linear_264_12782)" stroke-width="0.5"/>
<g filter="url(#filter1_f_264_12782)">
<ellipse cx="24.4378" cy="46.3695" rx="9.62918" ry="8.96864" fill="#EDA54D"/>
</g>
<g filter="url(#filter2_f_264_12782)">
<ellipse cx="35.6292" cy="-0.0313597" rx="9.62918" ry="8.96864" fill="#95F0FB"/>
</g>
</g>
<defs>
<filter id="filter0_b_264_12782" x="-4" y="-4" width="68" height="68" filterUnits="userSpaceOnUse" color-interpolation-filters="sRGB">
<feFlood flood-opacity="0" result="BackgroundImageFix"/>
<feGaussianBlur in="BackgroundImage" stdDeviation="3"/>
<feComposite in2="SourceAlpha" operator="in" result="effect1_backgroundBlur_264_12782"/>
<feBlend mode="normal" in="SourceGraphic" in2="effect1_backgroundBlur_264_12782" result="shape"/>
</filter>
<filter id="filter1_f_264_12782" x="-11.1914" y="11.4009" width="71.2583" height="69.9375" filterUnits="userSpaceOnUse" color-interpolation-filters="sRGB">
<feFlood flood-opacity="0" result="BackgroundImageFix"/>
<feBlend mode="normal" in="SourceGraphic" in2="BackgroundImageFix" result="shape"/>
<feGaussianBlur stdDeviation="13" result="effect1_foregroundBlur_264_12782"/>
</filter>
<filter id="filter2_f_264_12782" x="0" y="-35" width="71.2583" height="69.9375" filterUnits="userSpaceOnUse" color-interpolation-filters="sRGB">
<feFlood flood-opacity="0" result="BackgroundImageFix"/>
<feBlend mode="normal" in="SourceGraphic" in2="BackgroundImageFix" result="shape"/>
<feGaussianBlur stdDeviation="13" result="effect1_foregroundBlur_264_12782"/>
</filter>
<linearGradient id="paint0_linear_264_12782" x1="30" y1="2" x2="30" y2="58" gradientUnits="userSpaceOnUse">
<stop stop-color="#1C1B1A" stop-opacity="0.79"/>
<stop offset="1" stop-color="#1C1B1A"/>
</linearGradient>
<linearGradient id="paint1_linear_264_12782" x1="30" y1="2" x2="30" y2="58" gradientUnits="userSpaceOnUse">
<stop stop-color="#1C1B1A" stop-opacity="0.79"/>
<stop offset="1" stop-color="#1C1B1A"/>
</linearGradient>
<linearGradient id="paint2_linear_264_12782" x1="30" y1="2" x2="30" y2="27.7895" gradientUnits="userSpaceOnUse">
<stop stop-color="#606060"/>
<stop offset="1" stop-color="#292725" stop-opacity="0"/>
</linearGradient>
</defs>
</svg>
