<svg width="32" height="32" viewBox="0 0 32 32" fill="none" xmlns="http://www.w3.org/2000/svg">
<circle cx="16" cy="16" r="16" fill="#CB366D"/>
<path d="M15.976 5.3334C16.1169 5.3334 16.252 5.38936 16.3516 5.48895C16.4512 5.58855 16.5071 5.72363 16.5071 5.86448V9.50289L17.863 8.15261C17.9124 8.10324 17.9709 8.06408 18.0354 8.03736C18.0999 8.01063 18.169 7.99688 18.2387 7.99688C18.3085 7.99688 18.3776 8.01063 18.4421 8.03736C18.5066 8.06408 18.5651 8.10324 18.6144 8.15261C18.6645 8.20154 18.7043 8.25999 18.7314 8.3245C18.7586 8.38902 18.7726 8.45832 18.7726 8.52831C18.7726 8.59831 18.7586 8.66761 18.7314 8.73213C18.7043 8.79664 18.6645 8.85509 18.6144 8.90402L16.5071 11.0057V15.0622L20.0212 13.034L20.7952 10.1583C20.8134 10.0907 20.8447 10.0275 20.8873 9.97205C20.93 9.91663 20.9831 9.87014 21.0437 9.83526C21.1043 9.80037 21.1712 9.77776 21.2405 9.76872C21.3098 9.75967 21.3803 9.76437 21.4478 9.78255C21.5153 9.80073 21.5786 9.83203 21.634 9.87466C21.6894 9.91729 21.7359 9.97042 21.7708 10.031C21.8057 10.0916 21.8283 10.1585 21.8373 10.2278C21.8464 10.2971 21.8417 10.3676 21.8235 10.4351L21.332 12.2825L24.4845 10.4633C24.6074 10.3929 24.7532 10.3742 24.8899 10.4113C25.0265 10.4484 25.1429 10.5382 25.2133 10.6611C25.2837 10.7839 25.3025 10.9298 25.2654 11.0664C25.2283 11.2031 25.1384 11.3195 25.0156 11.3899L21.863 13.2091L23.7105 13.7063C23.778 13.7245 23.8413 13.7557 23.8967 13.7984C23.9521 13.841 23.9986 13.8941 24.0335 13.9547C24.0684 14.0153 24.091 14.0822 24.1 14.1515C24.1091 14.2209 24.1044 14.2913 24.0862 14.3588C24.068 14.4263 24.0367 14.4896 23.9941 14.545C23.9515 14.6004 23.8983 14.6469 23.8377 14.6818C23.7771 14.7167 23.7103 14.7393 23.6409 14.7484C23.5716 14.7574 23.5012 14.7527 23.4337 14.7345L20.5579 13.9662L17.0438 15.9944L20.5579 18.0227L23.4337 17.2543C23.5589 17.2197 23.6924 17.2323 23.809 17.2895C23.9256 17.3468 24.0172 17.4448 24.0664 17.565V17.6272C24.0935 17.7501 24.0788 17.8786 24.0245 17.9922C23.9703 18.1058 23.8796 18.1981 23.767 18.2543H23.7105L21.863 18.7515L25.0156 20.5989C25.1384 20.6686 25.2286 20.7842 25.2662 20.9204C25.3038 21.0565 25.2858 21.202 25.2161 21.3249C25.1816 21.3857 25.1355 21.4392 25.0803 21.4822C25.0252 21.5252 24.9621 21.5569 24.8947 21.5755C24.7585 21.6132 24.613 21.5951 24.4901 21.5255L21.3376 19.7063L21.8291 21.5537C21.8698 21.6827 21.8596 21.8223 21.8008 21.9441C21.742 22.0659 21.639 22.1607 21.5127 22.2091H21.445C21.319 22.2446 21.1844 22.2319 21.0673 22.1733C20.9503 22.1148 20.8593 22.0148 20.8122 21.8927V21.8362L20.0382 18.9605L16.5241 16.9266V20.9887L18.6314 23.0904C18.7182 23.1854 18.77 23.3072 18.7783 23.4356C18.7865 23.564 18.7506 23.6914 18.6766 23.7967L18.6314 23.8475C18.5407 23.9401 18.4191 23.9959 18.2898 24.0043C18.1605 24.0126 18.0326 23.9729 17.9308 23.8927L17.88 23.8475L16.5241 22.4972V26.1356C16.5241 26.2765 16.4681 26.4116 16.3685 26.5112C16.2689 26.6108 16.1338 26.6667 15.993 26.6667C15.8521 26.6667 15.7171 26.6108 15.6175 26.5112C15.5179 26.4116 15.4619 26.2765 15.4619 26.1356V22.4859L14.106 23.8362C14.0153 23.9288 13.8937 23.9846 13.7644 23.993C13.635 24.0013 13.5072 23.9616 13.4054 23.8814L13.3546 23.8362C13.2677 23.7412 13.2159 23.6195 13.2077 23.491C13.1995 23.3626 13.2354 23.2353 13.3094 23.13L13.3546 23.0791L15.4619 20.9774V16.9153L11.9478 18.9492L11.1738 21.8249C11.1355 21.9429 11.0594 22.045 10.9573 22.1155C10.8552 22.1859 10.7327 22.2208 10.6088 22.2147H10.5467C10.4247 22.183 10.3183 22.1084 10.2467 22.0047C10.1752 21.901 10.1433 21.775 10.1568 21.6498V21.5876L10.6484 19.7402L7.46757 21.5198C7.4075 21.5555 7.34098 21.5791 7.2718 21.589C7.20263 21.599 7.13217 21.5952 7.06446 21.5779C6.99675 21.5606 6.93313 21.5301 6.87724 21.4881C6.82135 21.4461 6.77429 21.3936 6.73876 21.3334C6.67437 21.2083 6.65895 21.0637 6.69552 20.9279C6.73209 20.7921 6.81802 20.6748 6.9365 20.5989L10.089 18.7797L8.24158 18.2825C8.12359 18.2442 8.02148 18.1681 7.95103 18.066C7.88057 17.9639 7.84569 17.8415 7.85175 17.7176V17.6498C7.89106 17.5328 7.96757 17.432 8.06958 17.3626C8.1716 17.2932 8.29352 17.2592 8.41672 17.2656H8.47887L11.3546 18.034L14.9082 15.9944L11.3941 13.9662L8.51842 14.7345C8.44821 14.7716 8.37059 14.7924 8.29127 14.7955C8.21195 14.7986 8.13295 14.7838 8.06008 14.7524C7.98721 14.7209 7.92231 14.6735 7.87018 14.6136C7.81804 14.5538 7.77998 14.483 7.7588 14.4065C7.73762 14.33 7.73386 14.2497 7.7478 14.1716C7.76173 14.0934 7.79301 14.0194 7.83932 13.9549C7.88564 13.8905 7.94582 13.8372 8.01543 13.7991C8.08504 13.7609 8.16232 13.7389 8.24158 13.7345L10.089 13.2373L6.9365 11.3899C6.81363 11.3202 6.72347 11.2046 6.68586 11.0684C6.64824 10.9323 6.66626 10.7868 6.73593 10.6639C6.80561 10.541 6.92124 10.4509 7.05739 10.4133C7.19354 10.3757 7.33905 10.3937 7.46192 10.4633L10.6145 12.2825L10.1229 10.4351C10.0862 10.2987 10.1052 10.1534 10.1756 10.031C10.2461 9.90863 10.3623 9.81926 10.4986 9.78255C10.635 9.74584 10.7803 9.7648 10.9027 9.83526C11.0251 9.90572 11.1145 10.0219 11.1512 10.1583L11.9195 13.034L15.4393 15.0679V11.0114L13.332 8.90967C13.2383 8.80586 13.1864 8.67098 13.1864 8.53114C13.1864 8.3913 13.2383 8.25642 13.332 8.15261C13.3813 8.10324 13.4399 8.06408 13.5043 8.03736C13.5688 8.01063 13.6379 7.99688 13.7077 7.99688C13.7775 7.99688 13.8466 8.01063 13.911 8.03736C13.9755 8.06408 14.0341 8.10324 14.0834 8.15261L15.4393 9.50289V5.86448C15.4393 5.79426 15.4532 5.72473 15.4803 5.65993C15.5073 5.59513 15.5469 5.53633 15.5969 5.48694C15.6468 5.43755 15.706 5.39855 15.7711 5.3722C15.8362 5.34584 15.9058 5.33266 15.976 5.3334Z" fill="white"/>
</svg>
