<svg width="332" height="210" viewBox="0 -10 332 200" fill="none" xmlns="http://www.w3.org/2000/svg">
<g clip-path="url(#clip0_264_12191)">
<g opacity="0.3" filter="url(#filter0_f_264_12191)">
<mask id="mask0_264_12191" style="mask-type:alpha" maskUnits="userSpaceOnUse" x="33" y="44" width="265" height="153">
<path d="M295.985 131.032L147.361 45.1891C144.638 43.6036 140.327 43.6036 137.831 45.1891L35.0422 104.758C32.3193 106.344 32.3193 108.835 35.0422 110.194L183.666 195.811C186.389 197.396 190.7 197.396 193.196 195.811L295.758 136.242C298.708 134.883 298.708 132.391 295.985 131.032Z" fill="#AD8150"/>
</mask>
<g mask="url(#mask0_264_12191)">
<g opacity="0.25" filter="url(#filter1_f_264_12191)">
<path d="M194.855 167.393C187.81 165.039 179.649 163.388 171.819 162.247C163.989 161.107 166.277 162.483 163.336 163.133C158.842 164.125 156.879 165.096 154.87 167.307C152.641 169.76 149.609 172.008 148.608 174.762C147.443 177.966 147.504 181.443 147.056 184.757C146.325 190.17 147.333 195.4 149.478 201.06C151.17 205.522 152.111 209.95 153.908 214.414C156.972 222.023 162.652 229.595 166.416 237.194C168.477 241.356 170.068 245.528 172.746 249.691C175.554 254.054 180.867 258.213 184.715 262.507L184.83 262.635C187.575 265.699 190.059 268.472 196.501 270.542C202.377 272.431 207.412 273.709 214.012 274.53C220.964 275.396 227.645 276.037 234.359 275.951C238.325 275.9 242.744 276.216 245.865 275.268C249.315 274.22 248.716 271.738 248.784 269.848C248.907 266.469 249.248 263.093 249.052 259.68C248.859 256.289 247.073 252.673 245.339 249.212C243.822 246.184 243.238 243.293 242.42 240.299C241.105 235.479 238.397 230.589 236.393 225.746C234.815 221.932 233.677 218.139 232.704 214.352C231 207.715 230.929 201.092 228.309 194.419C226.78 190.529 225.793 186.397 222.072 182.529C219.138 179.48 213.508 176.63 208.802 173.948C204.655 171.584 200.277 169.204 194.855 167.393Z" fill="#02E1FF"/>
</g>
<g opacity="0.4" filter="url(#filter2_f_264_12191)">
<path d="M78.3372 21.3533C73.2892 33.2283 71.313 46.7489 71.0161 59.6238C70.7193 72.4987 74.5651 68.5087 78.3372 73.1109C84.1003 80.1423 88.5549 83.0955 97.4964 85.8536C107.418 88.914 116.992 93.3122 127.404 94.3266C139.513 95.5066 152.01 94.651 164.164 94.651C184.023 94.651 202.372 91.8854 221.72 87.1915C236.97 83.4917 252.464 81.0089 267.671 77.1374C293.593 70.5381 318.104 59.7279 343.646 52.0021C357.636 47.7705 371.892 44.297 385.586 39.0696C399.939 33.5909 412.333 24.1175 425.93 16.9749L426.336 16.7618C436.035 11.6683 444.816 7.05699 449.139 -3.78191C453.082 -13.6698 455.233 -22.0678 454.98 -32.8902C454.714 -44.29 453.77 -55.2044 450.19 -66.0119C448.075 -72.3967 447.064 -79.5919 442.129 -84.4174C436.673 -89.7533 428.022 -88.246 421.179 -87.9445C408.947 -87.4055 396.619 -87.2192 384.418 -86.1607C372.297 -85.1091 360.137 -81.4418 348.514 -77.8904C338.346 -74.7838 328.215 -73.2119 317.828 -71.2417C301.103 -68.0696 284.804 -62.6364 268.333 -58.3497C255.361 -54.9736 242.25 -52.3111 229.08 -49.9173C206.002 -45.7223 182.176 -44.1656 159.414 -38.4848C146.141 -35.1724 131.738 -32.6804 119.615 -25.8361C110.057 -20.4396 102.533 -10.7403 95.1599 -2.56569C88.6638 4.63701 82.2214 12.2161 78.3372 21.3533Z" fill="#C9975A"/>
</g>
</g>
</g>
<mask id="mask1_264_12191" style="mask-type:alpha" maskUnits="userSpaceOnUse" x="33" y="24" width="265" height="153">
<path d="M295.985 111.032L147.361 25.1891C144.638 23.6036 140.327 23.6036 137.831 25.1891L35.0422 84.7583C32.3193 86.3438 32.3193 88.8353 35.0422 90.1943L183.666 175.811C186.389 177.396 190.7 177.396 193.196 175.811L295.758 116.242C298.708 114.883 298.708 112.391 295.985 111.032Z" fill="#AD8150"/>
</mask>
<g mask="url(#mask1_264_12191)">
<g opacity="0.25" filter="url(#filter3_f_264_12191)">
<path d="M194.855 147.393C187.81 145.039 179.649 143.388 171.819 142.247C163.989 141.107 166.277 142.483 163.336 143.133C158.842 144.125 156.879 145.096 154.87 147.307C152.641 149.76 149.609 152.008 148.608 154.762C147.443 157.966 147.504 161.443 147.056 164.757C146.325 170.17 147.333 175.4 149.478 181.06C151.17 185.522 152.111 189.95 153.908 194.414C156.972 202.023 162.652 209.595 166.416 217.194C168.477 221.356 170.068 225.528 172.746 229.691C175.554 234.054 180.867 238.213 184.715 242.507L184.83 242.635C187.575 245.699 190.059 248.472 196.501 250.542C202.377 252.431 207.412 253.709 214.012 254.53C220.964 255.396 227.645 256.037 234.359 255.951C238.325 255.9 242.744 256.216 245.865 255.268C249.315 254.22 248.716 251.738 248.784 249.848C248.907 246.469 249.248 243.093 249.052 239.68C248.859 236.289 247.073 232.673 245.339 229.212C243.822 226.184 243.238 223.293 242.42 220.299C241.105 215.479 238.397 210.589 236.393 205.746C234.815 201.932 233.677 198.139 232.704 194.352C231 187.715 230.929 181.092 228.309 174.419C226.78 170.529 225.793 166.397 222.072 162.529C219.138 159.48 213.508 156.63 208.802 153.948C204.655 151.584 200.277 149.204 194.855 147.393Z" fill="#02E1FF"/>
</g>
<g opacity="0.4" filter="url(#filter4_f_264_12191)">
<path d="M78.3372 1.35333C73.2892 13.2283 71.313 26.7489 71.0161 39.6238C70.7193 52.4987 74.5651 48.5087 78.3372 53.1109C84.1003 60.1423 88.5549 63.0955 97.4964 65.8536C107.418 68.914 116.992 73.3122 127.404 74.3266C139.513 75.5066 152.01 74.651 164.164 74.651C184.023 74.651 202.372 71.8854 221.72 67.1915C236.97 63.4917 252.464 61.0089 267.671 57.1374C293.593 50.5381 318.104 39.7279 343.646 32.0021C357.636 27.7705 371.892 24.297 385.586 19.0696C399.939 13.5909 412.333 4.11747 425.93 -3.02506L426.336 -3.23824C436.035 -8.3317 444.816 -12.943 449.139 -23.7819C453.082 -33.6698 455.233 -42.0678 454.98 -52.8902C454.714 -64.29 453.77 -75.2044 450.19 -86.0119C448.075 -92.3967 447.064 -99.5919 442.129 -104.417C436.673 -109.753 428.022 -108.246 421.179 -107.944C408.947 -107.405 396.619 -107.219 384.418 -106.161C372.297 -105.109 360.137 -101.442 348.514 -97.8904C338.346 -94.7838 328.215 -93.2119 317.828 -91.2417C301.103 -88.0696 284.804 -82.6364 268.333 -78.3497C255.361 -74.9736 242.25 -72.3111 229.08 -69.9173C206.002 -65.7223 182.176 -64.1656 159.414 -58.4848C146.141 -55.1724 131.738 -52.6804 119.615 -45.8361C110.057 -40.4396 102.533 -30.7403 95.1599 -22.5657C88.6638 -15.363 82.2214 -7.78394 78.3372 1.35333Z" fill="#C9975A"/>
</g>
</g>
<path d="M79.6 155.2C79.6 155 79.5 154.7 79.2 154.6C78.6 154.2 77.6 154.2 77 154.6C76.7 154.8 76.5 155 76.5 155.3V168.2C76.5 168.3 76.5 168.4 76.6 168.5C76.7 168.6 76.8 168.7 76.9 168.8C77.5 169.2 78.5 169.2 79.1 168.8C79.2 168.8 79.2 168.7 79.3 168.7C79.3 168.7 79.3 168.7 79.4 168.6L79.5 168.5C79.5 168.5 79.5 168.5 79.5 168.4C79.5 168.4 79.5 168.3 79.6 168.3V168.2V168.1C79.6 165.3 79.6 161.7 79.6 158.5V155.2Z" fill="url(#paint0_radial_264_12191)"/>
<path d="M79.1002 155.8C79.7002 155.4 79.7002 154.9 79.1002 154.5C78.5002 154.1 77.5002 154.1 76.9002 154.5C76.3002 154.9 76.3002 155.4 76.9002 155.8C77.5002 156.2 78.5002 156.2 79.1002 155.8Z" fill="#AD8150"/>
<path d="M79.5501 155.218C79.5514 154.776 78.8808 154.416 78.0524 154.414C77.224 154.412 76.5514 154.768 76.5501 155.21C76.5489 155.652 77.2194 156.012 78.0479 156.014C78.8763 156.016 79.5489 155.66 79.5501 155.218Z" fill="#AD8150"/>
<path d="M82.1 144.5C82.1 143.9 82.1 143.2 82.1 142.6V136.6C82.1 134.6 82.1 132.6 82.1 130.6V128.7C82.1 127.8 82.1 126.9 82.1 126.1V123.7C82.1 121.7 82.1 119.8 82.1 118C82.1 117.4 81.7 116.8 81 116.4C79.4 115.5 76.9 115.4 75.3 116.3C74.5 116.8 74.1 117.4 74.1 118L74 155.2C74 155.8 74.4 156.4 75.1 156.8C76.7 157.7 79.2 157.8 80.8 156.9C81.6 156.4 82 155.8 82 155.2V149.5C82 148.7 82 147.9 82 147.1L82.1 144.5Z" fill="url(#paint1_linear_264_12191)"/>
<path d="M80.9 119.5C79.3 120.4 76.8 120.4 75.2 119.4C73.6 118.5 73.7 117 75.3 116.1C76.9 115.2 79.4 115.2 81 116.2C82.6 117.2 82.5 118.7 80.9 119.5ZM79.2 118.5C79.8 118.1 79.8 117.6 79.2 117.2C78.6 116.8 77.6 116.8 77 117.2C76.4 117.6 76.4 118.1 77 118.5C77.6 118.9 78.6 118.9 79.2 118.5Z" fill="#FF9FB8"/>
<path d="M79.1999 118.5C78.5999 118.8 77.6999 118.8 77.0999 118.5C76.4999 118.2 76.4999 117.6 77.0999 117.3C77.6999 117 78.5999 117 79.1999 117.3C79.7999 117.6 79.6999 118.2 79.1999 118.5Z" fill="#AD8150"/>
<path d="M79.7 114C79.7 112.8 79.7 111.5 79.7 110.2V107.3C79.7 106.3 79.7 105.4 79.7 104.4V100.6C79.7 99.3002 79.7 98.0002 79.7 96.8002C79.7 96.7002 79.7 96.7002 79.6 96.6002V96.5002C79.5 96.4002 79.4 96.3002 79.2 96.3002C78.6 96.0002 77.7 96.0002 77.1 96.3002C77 96.3002 76.9 96.4002 76.8 96.5002V96.6002C76.8 96.7002 76.7 96.7002 76.7 96.8002C76.6 103.8 76.6 110.8 76.5 117.8C76.5 118 76.6 118.3 76.9 118.4C77.5 118.8 78.5 118.8 79.1 118.4C79.4 118.2 79.6 118 79.6 117.7L79.7 114Z" fill="url(#paint2_linear_264_12191)"/>
<g opacity="0.25" filter="url(#filter5_f_264_12191)">
<path d="M87.0431 80.1191C82.5752 78.6267 77.4001 77.5794 72.4351 76.8561C67.4701 76.1328 68.921 77.0059 67.0557 77.4177C64.2057 78.047 62.9611 78.6629 61.6871 80.0646C60.2735 81.6199 58.3513 83.0455 57.7163 84.7922C56.9777 86.824 57.0162 89.0289 56.7322 91.1299C56.2682 94.5628 56.9075 97.879 58.2682 101.469C59.3406 104.298 59.9375 107.106 61.0772 109.937C63.0201 114.762 66.6221 119.563 69.0088 124.382C70.3161 127.021 71.3244 129.667 73.0231 132.307C74.8035 135.074 78.1724 137.711 80.613 140.434L80.6858 140.515C82.4262 142.458 84.0018 144.216 88.0865 145.529C91.8128 146.727 95.0056 147.537 99.1909 148.058C103.599 148.607 107.836 149.014 112.094 148.959C114.609 148.927 117.411 149.127 119.39 148.526C121.578 147.862 121.198 146.287 121.241 145.089C121.319 142.946 121.535 140.805 121.411 138.641C121.288 136.491 120.156 134.198 119.056 132.003C118.094 130.083 117.724 128.25 117.206 126.351C116.371 123.295 114.654 120.193 113.383 117.123C112.383 114.704 111.661 112.298 111.044 109.897C109.963 105.689 109.919 101.489 108.257 97.2575C107.288 94.7903 106.662 92.1704 104.302 89.7176C102.441 87.7836 98.8716 85.9767 95.887 84.2756C93.2573 82.7767 90.4809 81.2675 87.0431 80.1191Z" fill="#F55B6E"/>
</g>
<g opacity="0.25" filter="url(#filter6_f_264_12191)">
<path d="M203.654 42.8656C200.554 41.8298 196.962 41.103 193.516 40.601C190.07 40.099 191.077 40.7049 189.782 40.9908C187.805 41.4275 186.941 41.8549 186.057 42.8278C185.075 43.9072 183.741 44.8966 183.301 46.1089C182.788 47.519 182.815 49.0493 182.618 50.5075C182.296 52.89 182.739 55.1916 183.684 57.6828C184.428 59.6464 184.842 61.5952 185.633 63.5599C186.982 66.9089 189.482 70.2411 191.138 73.5854C192.045 75.4171 192.745 77.2532 193.924 79.0855C195.16 81.0059 197.498 82.836 199.192 84.726L199.242 84.7824C200.45 86.1306 201.544 87.3511 204.379 88.2624C206.965 89.0936 209.181 89.6558 212.085 90.0176C215.145 90.3986 218.086 90.6807 221.04 90.6427C222.786 90.6203 224.731 90.7595 226.104 90.3423C227.622 89.881 227.359 88.7885 227.389 87.9566C227.443 86.4696 227.593 84.9838 227.507 83.4817C227.422 81.9894 226.636 80.3977 225.873 78.8745C225.205 77.5421 224.948 76.2698 224.588 74.9522C224.009 72.8308 222.817 70.6785 221.935 68.5472C221.241 66.8686 220.74 65.1991 220.312 63.5324C219.562 60.6117 219.531 57.6968 218.377 54.7602C217.705 53.0478 217.27 51.2296 215.633 49.5273C214.341 48.185 211.864 46.931 209.792 45.7503C207.967 44.7101 206.04 43.6626 203.654 42.8656Z" fill="#F55B6E"/>
</g>
<path d="M186.885 63.9C186.885 63.7 186.785 63.4 186.485 63.3C185.885 62.9 184.885 62.9 184.285 63.3C183.985 63.5 183.785 63.7 183.785 64V76.9C183.785 77 183.785 77.1 183.885 77.2C183.985 77.3 184.085 77.4 184.185 77.5C184.785 77.9 185.785 77.9 186.385 77.5C186.485 77.5 186.485 77.4 186.585 77.4C186.585 77.4 186.585 77.4 186.685 77.3L186.785 77.2C186.785 77.2 186.785 77.2 186.785 77.1C186.785 77.1 186.785 77 186.885 77V76.9V76.8C186.885 74 186.885 70.4 186.885 67.2V63.9Z" fill="url(#paint3_radial_264_12191)"/>
<path d="M189.385 53.2001C189.385 52.6001 189.385 51.9001 189.385 51.3001V45.3001C189.385 43.3001 189.385 41.3001 189.385 39.3001V37.4001C189.385 36.5001 189.385 35.6001 189.385 34.8001V32.4001C189.385 30.4001 189.385 28.5001 189.385 26.7001C189.385 26.1001 188.985 25.5001 188.285 25.1001C186.685 24.2001 184.185 24.1001 182.585 25.0001C181.785 25.5001 181.385 26.1001 181.385 26.7001L181.285 63.9001C181.285 64.5001 181.685 65.1001 182.385 65.5001C183.985 66.4001 186.485 66.5001 188.085 65.6001C188.885 65.1001 189.285 64.5001 189.285 63.9001V58.2001C189.285 57.4001 189.285 56.6001 189.285 55.8001L189.385 53.2001Z" fill="url(#paint4_linear_264_12191)"/>
<path d="M188.185 28.1997C186.585 29.0997 184.085 29.0997 182.485 28.0997C180.885 27.1997 180.985 25.6997 182.585 24.7997C184.185 23.8997 186.685 23.8997 188.285 24.8997C189.885 25.8997 189.785 27.3997 188.185 28.1997ZM186.485 27.1997C187.085 26.7997 187.085 26.2997 186.485 25.8997C185.885 25.4997 184.885 25.4997 184.285 25.8997C183.685 26.2997 183.685 26.7997 184.285 27.1997C184.885 27.5997 185.885 27.5997 186.485 27.1997Z" fill="#FF9FB8"/>
<path d="M186.485 27.1999C185.885 27.4999 184.985 27.4999 184.385 27.1999C183.785 26.8999 183.785 26.2999 184.385 25.9999C184.985 25.6999 185.885 25.6999 186.485 25.9999C187.085 26.2999 186.985 26.8999 186.485 27.1999Z" fill="#AD8150"/>
<path d="M186.985 22.6999C186.985 21.4999 186.985 20.1999 186.985 18.8999V15.9999C186.985 14.9999 186.985 14.0999 186.985 13.0999V9.2999C186.985 7.9999 186.985 6.6999 186.985 5.4999C186.985 5.3999 186.985 5.3999 186.885 5.2999V5.1999C186.785 5.0999 186.685 4.9999 186.485 4.9999C185.885 4.6999 184.985 4.6999 184.385 4.9999C184.285 4.9999 184.185 5.0999 184.085 5.1999V5.2999C184.085 5.3999 183.985 5.3999 183.985 5.4999C183.885 12.4999 183.885 19.4999 183.785 26.4999C183.785 26.6999 183.885 26.9999 184.185 27.0999C184.785 27.4999 185.785 27.4999 186.385 27.0999C186.685 26.8999 186.885 26.6999 186.885 26.3999L186.985 22.6999Z" fill="url(#paint5_linear_264_12191)"/>
<path fill-rule="evenodd" clip-rule="evenodd" d="M151.274 -21.5269L176.483 -6.92609L151.397 7.61281L176.049 -6.67862L151.274 -20.97L126.622 -6.67862L126.126 -6.92609L151.274 -21.5269ZM151.397 7.61312V7.61281L126.622 -6.67831L126.127 -6.92578L101.042 7.61312L101.475 7.86059L126.189 -6.43084L150.964 7.86059L126.312 22.2139L126.312 22.2139L126.312 22.214L101.475 7.86075L101.041 7.61328L75.9563 22.2139L75.9561 22.2141L50.8711 36.7528L51.3047 37.0002L75.9563 22.7088L100.794 37.0002L76.1423 51.3535L76.1421 51.3537H76.1418L51.3044 37.0004L50.8708 36.7529L25.7858 51.3535L25.7856 51.3537L0.26709 66.2018L0.700659 66.4492L25.5398 80.7397L25.5381 80.7407L25.5603 80.7533L25.4761 80.8023L25.9096 81.0498L50.7488 95.3403L50.7471 95.3413L50.7472 95.3413L50.7471 95.3414L51.1806 95.5889L76.0198 109.879L76.0181 109.88L76.0716 109.911L76.0181 109.942L76.4516 110.189L101.29 124.48L101.289 124.481L101.289 124.481L101.289 124.481L101.723 124.728L101.649 124.686L101.723 124.728L126.994 139.267L152.512 124.419L152.512 124.419L177.597 109.88L177.598 109.88L202.683 95.2795L202.683 95.2797L227.83 80.7408L227.83 80.7407L252.915 66.1401L252.915 66.1399L278 51.6012L252.296 36.7528L227.025 22.2141L201.754 7.61312L176.483 -6.92578L160.755 2.18992L160.874 2.63094L176.545 -6.43084L201.32 7.86059L176.669 22.2141L164.25 15.0374V15.5653L176.235 22.4615L176.647 22.2267L167.04 27.7947L167.242 28.1736L176.669 22.7088L201.506 37.0002L177.442 51.0115L176.854 51.3535L176.854 51.3535L176.854 51.3537L151.769 65.8924L151.769 65.8926L126.622 80.4933L126.622 80.4932L101.847 66.1401L101.847 66.1399L126.498 51.8485L136.31 57.494L136.522 57.1193L126.932 51.601L126.932 51.6009L149.724 38.3348V37.835L126.498 51.3534L126.498 51.3535L126.498 51.3536L101.661 37.0004L101.661 37.0002L126.312 22.7088L149.938 36.3032L149.995 35.8389L126.746 22.4615L151.398 8.17009L152.584 8.85286L152.654 8.33612L151.831 7.86075L151.831 7.86059L152.896 7.24482L152.96 6.70779L151.397 7.61312ZM152.079 124.171L176.73 109.88L151.893 95.5267L127.241 109.88L152.079 124.171ZM126.808 109.632L151.893 95.0317L151.893 95.0321L176.978 80.4932L176.979 80.4933L202.126 65.8926L202.125 65.8924L226.777 51.6012L201.939 37.2479L189.028 44.7651L188.782 44.4113L179.935 49.5603L179.935 49.5605L179.75 50.1674L177.288 51.601L178.704 52.4159L178.521 52.8073L176.854 51.8485L152.203 66.1399L152.203 66.1401L160.016 70.6665L159.73 70.9995L151.769 66.3875L127.118 80.7408L142.763 89.7659L142.082 89.8837L126.622 80.9881L101.97 95.2795L101.537 95.0323L101.537 95.0321L104.59 93.2625L126.189 80.7408L101.413 66.3875L76.7616 80.7408L76.2664 80.4935L76.6994 80.7406L101.537 95.0321L76.0198 109.879L76.0731 109.91L101.537 95.0938L101.97 95.3412L126.808 109.633L126.808 109.632ZM50.7488 95.3403L76.2658 80.493L51.4284 66.2016L50.9948 65.9541L25.5619 80.7524L25.5398 80.7397L51.0568 65.8924L26.2194 51.601L50.8708 37.2479L75.7083 51.6012L51.0571 65.8924L51.4907 66.1399L76.1423 51.8485L100.98 66.1399L76.2662 80.4932L76.2661 80.4933L76.2658 80.4932L50.7489 95.3403L50.7488 95.3403ZM151.397 7.61312L151.398 7.61328L126.312 22.2139L151.397 7.61312ZM201.816 95.2795L177.164 109.633L177.164 109.633L152.327 95.2795L177.04 80.9881L201.816 95.2795ZM101.413 65.8924L102.553 65.2316L126.065 51.6012L101.227 37.2479L76.5759 51.601L101.413 65.8924ZM76.3898 22.4613L101.227 36.7528L102.457 36.0397L125.879 22.4615L101.041 8.17009L76.3898 22.4613ZM202.25 95.0322L226.901 80.7408L202.126 66.3875L177.474 80.7408L202.249 95.0321L202.25 95.0322ZM202.559 66.1401L202.559 66.1399L227.211 51.8485L252.048 66.1399L227.335 80.4932L202.559 66.1401ZM252.482 65.8924L277.133 51.6012L252.296 37.2479L227.644 51.601L252.482 65.8924ZM227.21 51.3535L251.862 37.0002L227.025 22.7088L202.373 37.0002L201.939 36.753L202.373 37.0004L227.21 51.3537L227.21 51.3535ZM201.94 36.7528L203.167 36.0414L226.591 22.4615L201.754 8.17009L177.102 22.4613L201.94 36.7528ZM25.7858 51.8485L1.13423 66.1399L25.9717 80.4313L50.6233 66.1399L25.7858 51.8485ZM26.3432 80.7405L50.9948 66.449L75.8323 80.7405L51.1806 95.0319L26.3432 80.7405ZM76.2658 80.9881L51.6142 95.2795L76.4516 109.571L101.103 95.2795L76.2658 80.9881ZM76.8852 109.88L101.537 95.5887L126.374 109.88L101.723 124.172L76.8852 109.88ZM126.808 110.127L102.156 124.419L126.994 138.772L151.645 124.419L126.808 110.127Z" fill="url(#paint6_radial_264_12191)"/>
<path d="M102.6 123.2C102.6 123 102.5 122.7 102.2 122.6C101.6 122.2 100.6 122.2 100 122.6C99.7 122.8 99.5 123 99.5 123.3V136.2C99.5 136.3 99.5 136.4 99.6 136.5C99.7 136.6 99.8 136.7 99.9 136.8C100.5 137.2 101.5 137.2 102.1 136.8C102.2 136.8 102.2 136.7 102.3 136.7C102.3 136.7 102.3 136.7 102.4 136.6L102.5 136.5C102.5 136.5 102.5 136.5 102.5 136.4C102.5 136.4 102.5 136.3 102.6 136.3V136.2V136.1C102.6 133.3 102.6 129.7 102.6 126.5V123.2Z" fill="url(#paint7_linear_264_12191)"/>
<path d="M102.1 123.8C102.7 123.4 102.7 122.9 102.1 122.5C101.5 122.1 100.5 122.1 99.9002 122.5C99.3002 122.9 99.3002 123.4 99.9002 123.8C100.5 124.2 101.5 124.2 102.1 123.8Z" fill="#AD8150"/>
<path d="M102.55 123.218C102.551 122.776 101.881 122.416 101.052 122.414C100.224 122.412 99.5514 122.768 99.5501 123.21C99.5489 123.652 100.219 124.012 101.048 124.014C101.876 124.016 102.549 123.66 102.55 123.218Z" fill="#AD8150"/>
<path d="M105.1 112.5C105.1 111.9 105.1 111.2 105.1 110.6V128.6C105.1 126.6 105.1 124.6 105.1 122.6V120.7C105.1 119.8 105.1 118.9 105.1 118.1V115.7C105.1 113.7 105.1 111.8 105.1 110C105.1 109.4 104.7 108.8 104 108.4C102.4 107.5 99.9 107.4 98.3 108.3C97.5 108.8 97.1 109.4 97.1 110L97 123.2C97 123.8 97.4 124.4 98.1 124.8C99.7 125.7 102.2 125.8 103.8 124.9C104.6 124.4 105 123.8 105 123.2V117.5C105 116.7 105 115.9 105 115.1L105.1 112.5Z" fill="url(#paint8_radial_264_12191)"/>
<path d="M103.9 111.5C102.3 112.4 99.8 112.4 98.2 111.4C96.6 110.5 96.7 109 98.3 108.1C99.9 107.2 102.4 107.2 104 108.2C105.6 109.2 105.5 110.7 103.9 111.5ZM102.2 110.5C102.8 110.1 102.8 109.6 102.2 109.2C101.6 108.8 100.6 108.8 100 109.2C99.4 109.6 99.4 110.1 100 110.5C100.6 110.9 101.6 110.9 102.2 110.5Z" fill="#FF9FB8"/>
<path d="M102.7 106C102.7 104.8 102.7 103.5 102.7 102.2V107.3C102.7 106.3 102.7 105.4 102.7 104.4V100.6C102.7 99.3002 102.7 98.0002 102.7 96.8002C102.7 96.7002 102.7 96.7002 102.6 96.6002V96.5002C102.5 96.4002 102.4 96.3002 102.2 96.3002C101.6 96.0002 100.7 96.0002 100.1 96.3002C100 96.3002 99.9 96.4002 99.8 96.5002V96.6002C99.8 96.7002 99.7 96.7002 99.7 96.8002C99.6 103.8 99.6 102.8 99.5 109.8C99.5 110 99.6 110.3 99.9 110.4C100.5 110.8 101.5 110.8 102.1 110.4C102.4 110.2 102.6 110 102.6 109.7L102.7 106Z" fill="url(#paint9_linear_264_12191)"/>
<path d="M198.6 67.2003C198.6 67.0003 198.5 66.7003 198.2 66.6003C197.6 66.2003 196.6 66.2003 196 66.6003C195.7 66.8003 195.5 67.0003 195.5 67.3003V80.2003C195.5 80.3003 195.5 80.4003 195.6 80.5003C195.7 80.6003 195.8 80.7003 195.9 80.8003C196.5 81.2003 197.5 81.2003 198.1 80.8003C198.2 80.8003 198.2 80.7003 198.3 80.7003C198.3 80.7003 198.3 80.7003 198.4 80.6003L198.5 80.5003C198.5 80.5003 198.5 80.5003 198.5 80.4003C198.5 80.4003 198.5 80.3003 198.6 80.3003V80.2003V80.1003C198.6 77.3003 198.6 73.7003 198.6 70.5003V67.2003Z" fill="url(#paint10_linear_264_12191)"/>
<path d="M198.1 67.8002C198.7 67.4002 198.7 66.9002 198.1 66.5002C197.5 66.1002 196.5 66.1002 195.9 66.5002C195.3 66.9002 195.3 67.4002 195.9 67.8002C196.5 68.2002 197.5 68.2002 198.1 67.8002Z" fill="#AD8150"/>
<path d="M198.55 67.2183C198.551 66.7764 197.881 66.4164 197.052 66.414C196.224 66.4117 195.551 66.7679 195.55 67.2098C195.549 67.6516 196.219 68.0117 197.048 68.014C197.876 68.0164 198.549 67.6601 198.55 67.2183Z" fill="#AD8150"/>
<path d="M201.1 56.4999C201.1 55.8999 201.1 55.1999 201.1 54.5999V72.5999C201.1 70.5999 201.1 68.5999 201.1 66.5999V64.6999C201.1 63.7999 201.1 62.8999 201.1 62.0999V59.6999C201.1 57.6999 201.1 55.7999 201.1 53.9999C201.1 53.3999 200.7 52.7999 200 52.3999C198.4 51.4999 195.9 51.3999 194.3 52.2999C193.5 52.7999 193.1 53.3999 193.1 53.9999L193 67.1999C193 67.7999 193.4 68.3999 194.1 68.7999C195.7 69.6999 198.2 69.7999 199.8 68.8999C200.6 68.3999 201 67.7999 201 67.1999V61.4999C201 60.6999 201 59.8999 201 59.0999L201.1 56.4999Z" fill="url(#paint11_radial_264_12191)"/>
<path d="M199.9 55.5005C198.3 56.4005 195.8 56.4005 194.2 55.4005C192.6 54.5005 192.7 53.0005 194.3 52.1005C195.9 51.2005 198.4 51.2005 200 52.2005C201.6 53.2005 201.5 54.7005 199.9 55.5005ZM198.2 54.5005C198.8 54.1005 198.8 53.6005 198.2 53.2005C197.6 52.8005 196.6 52.8005 196 53.2005C195.4 53.6005 195.4 54.1005 196 54.5005C196.6 54.9005 197.6 54.9005 198.2 54.5005Z" fill="#FF9FB8"/>
<path d="M198.7 50.0002C198.7 48.8002 198.7 47.5002 198.7 46.2002V51.3002C198.7 50.3002 198.7 49.4002 198.7 48.4002V44.6002C198.7 43.3002 198.7 42.0002 198.7 40.8002C198.7 40.7002 198.7 40.7002 198.6 40.6002V40.5002C198.5 40.4002 198.4 40.3002 198.2 40.3002C197.6 40.0002 196.7 40.0002 196.1 40.3002C196 40.3002 195.9 40.4002 195.8 40.5002V40.6002C195.8 40.7002 195.7 40.7002 195.7 40.8002C195.6 47.8002 195.6 46.8002 195.5 53.8002C195.5 54.0002 195.6 54.3002 195.9 54.4002C196.5 54.8002 197.5 54.8002 198.1 54.4002C198.4 54.2002 198.6 54.0002 198.6 53.7002L198.7 50.0002Z" fill="url(#paint12_linear_264_12191)"/>
<g filter="url(#filter7_d_264_12191)">
<path d="M122.6 99.2003C122.6 99.0003 122.5 98.7003 122.2 98.6003C121.6 98.2003 120.6 98.2003 120 98.6003C119.7 98.8003 119.5 99.0003 119.5 99.3003V112.2C119.5 112.3 119.5 112.4 119.6 112.5C119.7 112.6 119.8 112.7 119.9 112.8C120.5 113.2 121.5 113.2 122.1 112.8C122.2 112.8 122.2 112.7 122.3 112.7C122.3 112.7 122.3 112.7 122.4 112.6L122.5 112.5C122.5 112.5 122.5 112.5 122.5 112.4C122.5 112.4 122.5 112.3 122.6 112.3V112.2V112.1C122.6 109.3 122.6 105.7 122.6 102.5V99.2003Z" fill="url(#paint13_linear_264_12191)"/>
<path d="M122.1 99.8002C122.7 99.4002 122.7 98.9002 122.1 98.5002C121.5 98.1002 120.5 98.1002 119.9 98.5002C119.3 98.9002 119.3 99.4002 119.9 99.8002C120.5 100.2 121.5 100.2 122.1 99.8002Z" fill="#AD8150"/>
<path d="M122.55 99.2183C122.551 98.7764 121.881 98.4164 121.052 98.414C120.224 98.4117 119.551 98.7679 119.55 99.2098C119.549 99.6516 120.219 100.012 121.048 100.014C121.876 100.016 122.549 99.6601 122.55 99.2183Z" fill="#AD8150"/>
<path d="M125.1 80.4999C125.1 79.8999 125.1 79.1999 125.1 78.5999V104.6C125.1 102.6 125.1 100.6 125.1 98.5999V96.6999C125.1 95.7999 125.1 94.8999 125.1 94.0999V91.6999C125.1 89.6999 125.1 79.7999 125.1 77.9999C125.1 77.3999 124.7 76.7999 124 76.3999C122.4 75.4999 119.9 75.3999 118.3 76.2999C117.5 76.7999 117.1 77.3999 117.1 77.9999L117 99.1999C117 99.7999 117.4 100.4 118.1 100.8C119.7 101.7 122.2 101.8 123.8 100.9C124.6 100.4 125 99.7999 125 99.1999V93.4999C125 92.6999 125 91.8999 125 91.0999L125.1 80.4999Z" fill="url(#paint14_linear_264_12191)"/>
<path d="M123.9 79.5005C122.3 80.4005 119.8 80.4005 118.2 79.4005C116.6 78.5005 116.7 77.0005 118.3 76.1005C119.9 75.2005 122.4 75.2005 124 76.2005C125.6 77.2005 125.5 78.7005 123.9 79.5005ZM122.2 78.5005C122.8 78.1005 122.8 77.6005 122.2 77.2005C121.6 76.8005 120.6 76.8005 120 77.2005C119.4 77.6005 119.4 78.1005 120 78.5005C120.6 78.9005 121.6 78.9005 122.2 78.5005Z" fill="#BDFFE6"/>
<path d="M122.7 74.0002C122.7 72.8002 122.7 71.5002 122.7 70.2002V75.3002C122.7 74.3002 122.7 73.4002 122.7 72.4002V60.6002C122.7 59.3002 122.7 58.0002 122.7 56.8002C122.7 56.7002 122.7 56.7002 122.6 56.6002V56.5002C122.5 56.4002 122.4 56.3002 122.2 56.3002C121.6 56.0002 120.7 56.0002 120.1 56.3002C120 56.3002 119.9 56.4002 119.8 56.5002V56.6002C119.8 56.7002 119.7 56.7002 119.7 56.8002C119.6 63.8002 119.7 70.9168 119.6 77.9168C119.6 78.1168 119.7 78.4168 120 78.5168C120.6 78.9168 121.6 78.9168 122.2 78.5168C122.5 78.3168 122.7 78.1168 122.7 77.8168L122.7 74.0002Z" fill="url(#paint15_linear_264_12191)"/>
</g>
<path d="M141.6 92.2003C141.6 92.0003 141.5 91.7003 141.2 91.6003C140.6 91.2003 139.6 91.2003 139 91.6003C138.7 91.8003 138.5 92.0003 138.5 92.3003V105.2C138.5 105.3 138.5 105.4 138.6 105.5C138.7 105.6 138.8 105.7 138.9 105.8C139.5 106.2 140.5 106.2 141.1 105.8C141.2 105.8 141.2 105.7 141.3 105.7C141.3 105.7 141.3 105.7 141.4 105.6L141.5 105.5C141.5 105.5 141.5 105.5 141.5 105.4C141.5 105.4 141.5 105.3 141.6 105.3V105.2V105.1C141.6 102.3 141.6 98.7003 141.6 95.5003V92.2003Z" fill="url(#paint16_linear_264_12191)"/>
<path d="M141.1 92.8002C141.7 92.4002 141.7 91.9002 141.1 91.5002C140.5 91.1002 139.5 91.1002 138.9 91.5002C138.3 91.9002 138.3 92.4002 138.9 92.8002C139.5 93.2002 140.5 93.2002 141.1 92.8002Z" fill="#AD8150"/>
<path d="M141.55 92.2183C141.551 91.7764 140.881 91.4164 140.052 91.414C139.224 91.4117 138.551 91.7679 138.55 92.2098C138.549 92.6516 139.219 93.0117 140.048 93.014C140.876 93.0164 141.549 92.6601 141.55 92.2183Z" fill="#AD8150"/>
<path d="M144.1 89.5001C144.1 88.9001 144.1 88.2001 144.1 87.6001V97.6001C144.1 95.6001 144.1 93.6001 144.1 91.6001V89.7001C144.1 88.8001 144.1 87.9001 144.1 87.1001V84.7001C144.1 82.7001 144.1 88.8001 144.1 87.0001C144.1 86.4001 143.7 85.8001 143 85.4001C141.4 84.5001 138.9 84.4001 137.3 85.3001C136.5 85.8001 136.1 86.4001 136.1 87.0001L136 92.2001C136 92.8001 136.4 93.4001 137.1 93.8001C138.7 94.7001 141.2 94.8001 142.8 93.9001C143.6 93.4001 144 92.8001 144 92.2001V86.5001C144 85.7001 144 84.9001 144 84.1001L144.1 89.5001Z" fill="url(#paint17_linear_264_12191)"/>
<path d="M142.9 88.5005C141.3 89.4005 138.8 89.4005 137.2 88.4005C135.6 87.5005 135.7 86.0005 137.3 85.1005C138.9 84.2005 141.4 84.2005 143 85.2005C144.6 86.2005 144.5 87.7005 142.9 88.5005ZM141.2 87.5005C141.8 87.1005 141.8 86.6005 141.2 86.2005C140.6 85.8005 139.6 85.8005 139 86.2005C138.4 86.6005 138.4 87.1005 139 87.5005C139.6 87.9005 140.6 87.9005 141.2 87.5005Z" fill="#BDFFE6"/>
<path d="M141.7 83.0002C141.7 81.8002 141.7 80.5002 141.7 79.2002V84.3002C141.7 83.3002 141.7 82.4002 141.7 81.4002V53.6002C141.7 52.3002 141.7 51.0002 141.7 49.8002C141.7 49.7002 141.7 49.7002 141.6 49.6002V49.5002C141.5 49.4002 141.4 49.3002 141.2 49.3002C140.6 49.0002 139.7 49.0002 139.1 49.3002C139 49.3002 138.9 49.4002 138.8 49.5002V49.6002C138.8 49.7002 138.7 49.7002 138.7 49.8002C138.6 56.8002 138.7 79.9168 138.6 86.9168C138.6 87.1168 138.7 87.4168 139 87.5168C139.6 87.9168 140.6 87.9168 141.2 87.5168C141.5 87.3168 141.7 87.1168 141.7 86.8168L141.7 83.0002Z" fill="url(#paint18_linear_264_12191)"/>
<path d="M157.6 60.2003C157.6 60.0003 157.5 59.7003 157.2 59.6003C156.6 59.2003 155.6 59.2003 155 59.6003C154.7 59.8003 154.5 60.0003 154.5 60.3003V73.2003C154.5 73.3003 154.5 73.4003 154.6 73.5003C154.7 73.6003 154.8 73.7003 154.9 73.8003C155.5 74.2003 156.5 74.2003 157.1 73.8003C157.2 73.8003 157.2 73.7003 157.3 73.7003C157.3 73.7003 157.3 73.7003 157.4 73.6003L157.5 73.5003C157.5 73.5003 157.5 73.5003 157.5 73.4003C157.5 73.4003 157.5 73.3003 157.6 73.3003V73.2003V73.1003C157.6 70.3003 157.6 66.7003 157.6 63.5003V60.2003Z" fill="url(#paint19_linear_264_12191)"/>
<path d="M157.1 60.8002C157.7 60.4002 157.7 59.9002 157.1 59.5002C156.5 59.1002 155.5 59.1002 154.9 59.5002C154.3 59.9002 154.3 60.4002 154.9 60.8002C155.5 61.2002 156.5 61.2002 157.1 60.8002Z" fill="#AD8150"/>
<path d="M157.55 60.2183C157.551 59.7764 156.881 59.4164 156.052 59.414C155.224 59.4117 154.551 59.7679 154.55 60.2098C154.549 60.6516 155.219 61.0117 156.048 61.014C156.876 61.0164 157.549 60.6601 157.55 60.2183Z" fill="#AD8150"/>
<path d="M160.1 57.5001C160.1 56.9001 160.1 56.2001 160.1 55.6001V65.6001C160.1 63.6001 160.1 61.6001 160.1 59.6001V57.7001C160.1 56.8001 160.1 55.9001 160.1 55.1001V52.7001C160.1 50.7001 160.1 56.8001 160.1 55.0001C160.1 54.4001 159.7 53.8001 159 53.4001C157.4 52.5001 154.9 52.4001 153.3 53.3001C152.5 53.8001 152.1 54.4001 152.1 55.0001L152 60.2001C152 60.8001 152.4 61.4001 153.1 61.8001C154.7 62.7001 157.2 62.8001 158.8 61.9001C159.6 61.4001 160 60.8001 160 60.2001V54.5001C160 53.7001 160 52.9001 160 52.1001L160.1 57.5001Z" fill="url(#paint20_linear_264_12191)"/>
<path d="M158.9 56.5005C157.3 57.4005 154.8 57.4005 153.2 56.4005C151.6 55.5005 151.7 54.0005 153.3 53.1005C154.9 52.2005 157.4 52.2005 159 53.2005C160.6 54.2005 160.5 55.7005 158.9 56.5005ZM157.2 55.5005C157.8 55.1005 157.8 54.6005 157.2 54.2005C156.6 53.8005 155.6 53.8005 155 54.2005C154.4 54.6005 154.4 55.1005 155 55.5005C155.6 55.9005 156.6 55.9005 157.2 55.5005Z" fill="#BDFFE6"/>
<path d="M157.7 51.0002C157.7 49.8002 157.7 48.5002 157.7 47.2002V52.3002C157.7 51.3002 157.7 50.4002 157.7 49.4002V21.6002C157.7 20.3002 157.7 19.0002 157.7 17.8002C157.7 17.7002 157.7 17.7002 157.6 17.6002V17.5002C157.5 17.4002 157.4 17.3002 157.2 17.3002C156.6 17.0002 155.7 17.0002 155.1 17.3002C155 17.3002 154.9 17.4002 154.8 17.5002V17.6002C154.8 17.7002 154.7 17.7002 154.7 17.8002C154.6 24.8002 154.7 47.9168 154.6 54.9168C154.6 55.1168 154.7 55.4168 155 55.5168C155.6 55.9168 156.6 55.9168 157.2 55.5168C157.5 55.3168 157.7 55.1168 157.7 54.8168L157.7 51.0002Z" fill="url(#paint21_linear_264_12191)"/>
<path d="M213.6 44.2003C213.6 44.0003 213.5 43.7003 213.2 43.6003C212.6 43.2003 211.6 43.2003 211 43.6003C210.7 43.8003 210.5 44.0003 210.5 44.3003V57.2003C210.5 57.3003 210.5 57.4003 210.6 57.5003C210.7 57.6003 210.8 57.7003 210.9 57.8003C211.5 58.2003 212.5 58.2003 213.1 57.8003C213.2 57.8003 213.2 57.7003 213.3 57.7003C213.3 57.7003 213.3 57.7003 213.4 57.6003L213.5 57.5003C213.5 57.5003 213.5 57.5003 213.5 57.4003C213.5 57.4003 213.5 57.3003 213.6 57.3003V57.2003V57.1003C213.6 54.3003 213.6 50.7003 213.6 47.5003V44.2003Z" fill="url(#paint22_linear_264_12191)"/>
<path d="M213.1 44.8002C213.7 44.4002 213.7 43.9002 213.1 43.5002C212.5 43.1002 211.5 43.1002 210.9 43.5002C210.3 43.9002 210.3 44.4002 210.9 44.8002C211.5 45.2002 212.5 45.2002 213.1 44.8002Z" fill="#AD8150"/>
<path d="M213.55 44.2183C213.551 43.7764 212.881 43.4164 212.052 43.414C211.224 43.4117 210.551 43.7679 210.55 44.2098C210.549 44.6516 211.219 45.0117 212.048 45.014C212.876 45.0164 213.549 44.6601 213.55 44.2183Z" fill="#AD8150"/>
<path d="M216.1 41.5001C216.1 40.9001 216.1 40.2001 216.1 39.6001V49.6001C216.1 47.6001 216.1 45.6001 216.1 43.6001V41.7001C216.1 40.8001 216.1 39.9001 216.1 39.1001V36.7001C216.1 34.7001 216.1 40.8001 216.1 39.0001C216.1 38.4001 215.7 37.8001 215 37.4001C213.4 36.5001 210.9 36.4001 209.3 37.3001C208.5 37.8001 208.1 38.4001 208.1 39.0001L208 44.2001C208 44.8001 208.4 45.4001 209.1 45.8001C210.7 46.7001 213.2 46.8001 214.8 45.9001C215.6 45.4001 216 44.8001 216 44.2001V38.5001C216 37.7001 216 36.9001 216 36.1001L216.1 41.5001Z" fill="url(#paint23_linear_264_12191)"/>
<path d="M214.9 40.5005C213.3 41.4005 210.8 41.4005 209.2 40.4005C207.6 39.5005 207.7 38.0005 209.3 37.1005C210.9 36.2005 213.4 36.2005 215 37.2005C216.6 38.2005 216.5 39.7005 214.9 40.5005ZM213.2 39.5005C213.8 39.1005 213.8 38.6005 213.2 38.2005C212.6 37.8005 211.6 37.8005 211 38.2005C210.4 38.6005 210.4 39.1005 211 39.5005C211.6 39.9005 212.6 39.9005 213.2 39.5005Z" fill="#BDFFE6"/>
<path d="M213.7 35.0002C213.7 33.8002 213.7 32.5002 213.7 31.2002V36.3002C213.7 35.3002 213.7 34.4002 213.7 33.4002V5.60019C213.7 4.30019 213.7 3.0002 213.7 1.8002C213.7 1.7002 213.7 1.70019 213.6 1.60019V1.5002C213.5 1.4002 213.4 1.3002 213.2 1.3002C212.6 1.0002 211.7 1.0002 211.1 1.3002C211 1.3002 210.9 1.4002 210.8 1.5002V1.60019C210.8 1.70019 210.7 1.7002 210.7 1.8002C210.6 8.8002 210.7 31.9168 210.6 38.9168C210.6 39.1168 210.7 39.4168 211 39.5168C211.6 39.9168 212.6 39.9168 213.2 39.5168C213.5 39.3168 213.7 39.1168 213.7 38.8168L213.7 35.0002Z" fill="url(#paint24_linear_264_12191)"/>
<path d="M152 194L170.687 157.113C171.95 154.619 175.328 154.155 177.409 156.022C180.813 159.074 184.72 161.79 187.043 161.236C193.914 159.598 195.288 73.3199 205.595 71.6817C215.902 70.0435 225.521 135.025 233.08 134.479C239.126 134.042 256.213 56.0278 264 17.0752" stroke="url(#paint25_linear_264_12191)" stroke-width="0.5"/>
</g>
<defs>
<filter id="filter0_f_264_12191" x="62" y="35" width="245" height="171" filterUnits="userSpaceOnUse" color-interpolation-filters="sRGB">
<feFlood flood-opacity="0" result="BackgroundImageFix"/>
<feBlend mode="normal" in="SourceGraphic" in2="BackgroundImageFix" result="shape"/>
<feGaussianBlur stdDeviation="4.5" result="effect1_foregroundBlur_264_12191"/>
</filter>
<filter id="filter1_f_264_12191" x="81.9825" y="96.9731" width="231.966" height="243.826" filterUnits="userSpaceOnUse" color-interpolation-filters="sRGB">
<feFlood flood-opacity="0" result="BackgroundImageFix"/>
<feBlend mode="normal" in="SourceGraphic" in2="BackgroundImageFix" result="shape"/>
<feGaussianBlur stdDeviation="32.4185" result="effect1_foregroundBlur_264_12191"/>
</filter>
<filter id="filter2_f_264_12191" x="-30.6097" y="-189.98" width="587.219" height="386.54" filterUnits="userSpaceOnUse" color-interpolation-filters="sRGB">
<feFlood flood-opacity="0" result="BackgroundImageFix"/>
<feBlend mode="normal" in="SourceGraphic" in2="BackgroundImageFix" result="shape"/>
<feGaussianBlur stdDeviation="50.8049" result="effect1_foregroundBlur_264_12191"/>
</filter>
<filter id="filter3_f_264_12191" x="81.9825" y="76.9731" width="231.966" height="243.826" filterUnits="userSpaceOnUse" color-interpolation-filters="sRGB">
<feFlood flood-opacity="0" result="BackgroundImageFix"/>
<feBlend mode="normal" in="SourceGraphic" in2="BackgroundImageFix" result="shape"/>
<feGaussianBlur stdDeviation="32.4185" result="effect1_foregroundBlur_264_12191"/>
</filter>
<filter id="filter4_f_264_12191" x="-30.6097" y="-209.98" width="587.219" height="386.54" filterUnits="userSpaceOnUse" color-interpolation-filters="sRGB">
<feFlood flood-opacity="0" result="BackgroundImageFix"/>
<feBlend mode="normal" in="SourceGraphic" in2="BackgroundImageFix" result="shape"/>
<feGaussianBlur stdDeviation="50.8049" result="effect1_foregroundBlur_264_12191"/>
</filter>
<filter id="filter5_f_264_12191" x="15.467" y="35.4635" width="147.097" height="154.618" filterUnits="userSpaceOnUse" color-interpolation-filters="sRGB">
<feFlood flood-opacity="0" result="BackgroundImageFix"/>
<feBlend mode="normal" in="SourceGraphic" in2="BackgroundImageFix" result="shape"/>
<feGaussianBlur stdDeviation="20.5576" result="effect1_foregroundBlur_264_12191"/>
</filter>
<filter id="filter6_f_264_12191" x="153.978" y="11.8735" width="102.09" height="107.31" filterUnits="userSpaceOnUse" color-interpolation-filters="sRGB">
<feFlood flood-opacity="0" result="BackgroundImageFix"/>
<feBlend mode="normal" in="SourceGraphic" in2="BackgroundImageFix" result="shape"/>
<feGaussianBlur stdDeviation="14.2676" result="effect1_foregroundBlur_264_12191"/>
</filter>
<filter id="filter7_d_264_12191" x="91" y="34.0752" width="60.1511" height="109.025" filterUnits="userSpaceOnUse" color-interpolation-filters="sRGB">
<feFlood flood-opacity="0" result="BackgroundImageFix"/>
<feColorMatrix in="SourceAlpha" type="matrix" values="0 0 0 0 0 0 0 0 0 0 0 0 0 0 0 0 0 0 127 0" result="hardAlpha"/>
<feOffset dy="4"/>
<feGaussianBlur stdDeviation="13"/>
<feComposite in2="hardAlpha" operator="out"/>
<feColorMatrix type="matrix" values="0 0 0 0 0.462745 0 0 0 0 0.992157 0 0 0 0 0.745098 0 0 0 1 0"/>
<feBlend mode="normal" in2="BackgroundImageFix" result="effect1_dropShadow_264_12191"/>
<feBlend mode="normal" in="SourceGraphic" in2="effect1_dropShadow_264_12191" result="shape"/>
</filter>
<radialGradient id="paint0_radial_264_12191" cx="0" cy="0" r="1" gradientUnits="userSpaceOnUse" gradientTransform="translate(78.05 161.7) rotate(90) scale(7.4 1.55)">
<stop stop-color="#FB5184"/>
<stop offset="1" stop-color="#ED6552"/>
</radialGradient>
<linearGradient id="paint1_linear_264_12191" x1="78.05" y1="115.673" x2="78.05" y2="157.527" gradientUnits="userSpaceOnUse">
<stop stop-color="#FB5184"/>
<stop offset="1" stop-color="#161616"/>
</linearGradient>
<linearGradient id="paint2_linear_264_12191" x1="78.1" y1="96.0752" x2="78.1" y2="118.7" gradientUnits="userSpaceOnUse">
<stop stop-color="#FB5184"/>
<stop offset="1" stop-color="#ED6552"/>
</linearGradient>
<radialGradient id="paint3_radial_264_12191" cx="0" cy="0" r="1" gradientUnits="userSpaceOnUse" gradientTransform="translate(185.335 70.4) rotate(90) scale(7.4 1.55)">
<stop stop-color="#FB5184"/>
<stop offset="1" stop-color="#ED6552"/>
</radialGradient>
<linearGradient id="paint4_linear_264_12191" x1="185.335" y1="24.373" x2="185.335" y2="66.2272" gradientUnits="userSpaceOnUse">
<stop stop-color="#FB5184"/>
<stop offset="1" stop-color="#161616" stop-opacity="0"/>
</linearGradient>
<linearGradient id="paint5_linear_264_12191" x1="185.385" y1="4.7749" x2="185.385" y2="27.3999" gradientUnits="userSpaceOnUse">
<stop stop-color="#FB5184"/>
<stop offset="1" stop-color="#ED6552"/>
</linearGradient>
<radialGradient id="paint6_radial_264_12191" cx="0" cy="0" r="1" gradientUnits="userSpaceOnUse" gradientTransform="translate(106.718 51.3966) rotate(-161.147) scale(45.3557 56.1699)">
<stop stop-color="#94F2FF" stop-opacity="0.6"/>
<stop offset="1" stop-color="#151413" stop-opacity="0"/>
</radialGradient>
<linearGradient id="paint7_linear_264_12191" x1="101.05" y1="122.3" x2="101.05" y2="137.1" gradientUnits="userSpaceOnUse">
<stop stop-color="#171616" stop-opacity="0"/>
<stop offset="1" stop-color="#ED6552"/>
</linearGradient>
<radialGradient id="paint8_radial_264_12191" cx="0" cy="0" r="1" gradientUnits="userSpaceOnUse" gradientTransform="translate(101.05 118.136) rotate(90) scale(10.4635 4.05)">
<stop stop-color="#FB5184"/>
<stop offset="1" stop-color="#ED6552"/>
</radialGradient>
<linearGradient id="paint9_linear_264_12191" x1="101.1" y1="88.0752" x2="101.1" y2="110.7" gradientUnits="userSpaceOnUse">
<stop stop-color="#FB5184"/>
<stop offset="1" stop-color="#ED6552"/>
</linearGradient>
<linearGradient id="paint10_linear_264_12191" x1="197.05" y1="66.3003" x2="197.05" y2="81.1003" gradientUnits="userSpaceOnUse">
<stop stop-color="#171616" stop-opacity="0"/>
<stop offset="1" stop-color="#ED6552"/>
</linearGradient>
<radialGradient id="paint11_radial_264_12191" cx="0" cy="0" r="1" gradientUnits="userSpaceOnUse" gradientTransform="translate(197.05 62.1364) rotate(90) scale(10.4635 4.05)">
<stop stop-color="#FB5184"/>
<stop offset="1" stop-color="#ED6552"/>
</radialGradient>
<linearGradient id="paint12_linear_264_12191" x1="197.1" y1="32.0752" x2="197.1" y2="54.7002" gradientUnits="userSpaceOnUse">
<stop stop-color="#FB5184"/>
<stop offset="1" stop-color="#ED6552"/>
</linearGradient>
<linearGradient id="paint13_linear_264_12191" x1="121" y1="98.3003" x2="121" y2="113.024" gradientUnits="userSpaceOnUse">
<stop stop-color="#51FBAA" stop-opacity="0"/>
<stop offset="1" stop-color="#C6FFEA"/>
</linearGradient>
<linearGradient id="paint14_linear_264_12191" x1="120.919" y1="75.6729" x2="120.919" y2="104.452" gradientUnits="userSpaceOnUse">
<stop stop-color="#51FBAA"/>
<stop offset="1" stop-color="#C6FFEA"/>
</linearGradient>
<linearGradient id="paint15_linear_264_12191" x1="121.1" y1="56.0752" x2="121.1" y2="78.7002" gradientUnits="userSpaceOnUse">
<stop stop-color="#51FBAA"/>
<stop offset="1" stop-color="#C6FFEA"/>
</linearGradient>
<linearGradient id="paint16_linear_264_12191" x1="140" y1="91.3003" x2="140" y2="106.024" gradientUnits="userSpaceOnUse">
<stop stop-color="#51FBAA" stop-opacity="0"/>
<stop offset="1" stop-color="#C6FFEA"/>
</linearGradient>
<linearGradient id="paint17_linear_264_12191" x1="139.919" y1="68.6731" x2="139.919" y2="97.4519" gradientUnits="userSpaceOnUse">
<stop stop-color="#51FBAA"/>
<stop offset="1" stop-color="#C6FFEA"/>
</linearGradient>
<linearGradient id="paint18_linear_264_12191" x1="140.1" y1="49.0752" x2="140.1" y2="71.7002" gradientUnits="userSpaceOnUse">
<stop stop-color="#51FBAA"/>
<stop offset="1" stop-color="#C6FFEA"/>
</linearGradient>
<linearGradient id="paint19_linear_264_12191" x1="156" y1="59.3003" x2="156" y2="74.0244" gradientUnits="userSpaceOnUse">
<stop stop-color="#51FBAA" stop-opacity="0"/>
<stop offset="1" stop-color="#C6FFEA"/>
</linearGradient>
<linearGradient id="paint20_linear_264_12191" x1="155.919" y1="36.6731" x2="155.919" y2="65.4519" gradientUnits="userSpaceOnUse">
<stop stop-color="#51FBAA"/>
<stop offset="1" stop-color="#C6FFEA"/>
</linearGradient>
<linearGradient id="paint21_linear_264_12191" x1="156.1" y1="17.0752" x2="156.1" y2="39.7002" gradientUnits="userSpaceOnUse">
<stop stop-color="#51FBAA"/>
<stop offset="1" stop-color="#C6FFEA"/>
</linearGradient>
<linearGradient id="paint22_linear_264_12191" x1="212" y1="43.3003" x2="212" y2="58.0244" gradientUnits="userSpaceOnUse">
<stop stop-color="#51FBAA" stop-opacity="0"/>
<stop offset="1" stop-color="#C6FFEA"/>
</linearGradient>
<linearGradient id="paint23_linear_264_12191" x1="211.919" y1="20.6731" x2="211.919" y2="49.4519" gradientUnits="userSpaceOnUse">
<stop stop-color="#51FBAA"/>
<stop offset="1" stop-color="#C6FFEA"/>
</linearGradient>
<linearGradient id="paint24_linear_264_12191" x1="212.1" y1="1.07519" x2="212.1" y2="23.7002" gradientUnits="userSpaceOnUse">
<stop stop-color="#51FBAA"/>
<stop offset="1" stop-color="#C6FFEA"/>
</linearGradient>
<linearGradient id="paint25_linear_264_12191" x1="258.932" y1="21.3104" x2="226.135" y2="197.378" gradientUnits="userSpaceOnUse">
<stop stop-color="#C9975A"/>
<stop offset="1" stop-color="#94F2FF"/>
</linearGradient>
<clipPath id="clip0_264_12191">
<rect width="332" height="200" fill="white"/>
</clipPath>
</defs>
</svg>
