<svg width="154" height="100" viewBox="0 0 154 100" fill="none" xmlns="http://www.w3.org/2000/svg">
<g clip-path="url(#clip0_264_12392)">
<path d="M-3.56592 68.573V84.846L16.8549 92.823L18.4503 84.846V70.8068V50.3857L16.8549 39.2183L6.96358 44.6426L4.0919 50.3857L-3.56592 58.3626V68.573Z" fill="url(#paint0_linear_264_12392)"/>
<path d="M33.5187 53.8305V64.75L37.0089 74.1358L19 75.75L17.6647 62.75L7.22421 48.4129L8.38426 41.7312L5.42334 38.8418L17.6647 37.7583L21.7097 41.7312L29.0718 47.1488L33.5187 53.8305Z" fill="url(#paint1_linear_264_12392)"/>
<path d="M13.1562 46.0781L6.98438 44.6406L11.625 41.9375L16.8125 39.1875L17.2188 41.9375L13.1562 46.0781Z" fill="#F9B45E"/>
<path d="M17.615 37.7945L21.961 41.8975L14.1726 40.5486L5.79103 38.916L8.67728 37.4276L17.615 37.7945Z" fill="#F9B45E"/>
<path d="M18.3716 60.6392L8.89258 54.0425V65.0585L18.3716 74.4095V60.6392Z" fill="url(#paint2_linear_264_12392)"/>
<path d="M18.4375 50.5625L17.25 42L13 46.25L9 54L18.4375 60.5625V50.5625Z" fill="url(#paint3_linear_264_12392)"/>
<path d="M28.2139 38.5996L27.0264 30.0371L22.7764 34.2871L18.7764 42.0371L28.2139 48.5996V38.5996Z" fill="url(#paint4_linear_264_12392)"/>
<path d="M84.4341 28.573V44.846L104.855 52.823L106.45 44.846V30.8068V10.3857L104.855 -0.781738L94.9636 4.64256L92.0919 10.3857L84.4341 18.3626V28.573Z" fill="url(#paint5_linear_264_12392)"/>
<path d="M101.156 6.07812L94.9844 4.64062L99.625 1.9375H105.25L101.156 6.07812Z" fill="#F9B45E"/>
<path d="M106.372 20.6392L96.8926 14.0425V25.0585L106.372 34.4095V20.6392Z" fill="url(#paint6_linear_264_12392)"/>
<g filter="url(#filter0_f_264_12392)">
<ellipse cx="100.348" cy="34.7309" rx="16.5275" ry="7.35885" fill="url(#paint7_linear_264_12392)"/>
</g>
<g filter="url(#filter1_f_264_12392)">
<path d="M99.8751 24.7309C99.8751 28.7951 92.4755 32.0898 83.3476 32.0898C74.2197 32.0898 74.8201 28.7951 74.8201 24.7309C74.8201 20.6667 74.2197 17.3721 83.3476 17.3721C92.4755 17.3721 99.8751 20.6667 99.8751 24.7309Z" fill="url(#paint8_linear_264_12392)"/>
</g>
<path d="M115.438 10.5625L114.25 2L110 6.25L106 14L115.438 20.5625V10.5625Z" fill="url(#paint9_linear_264_12392)"/>
<path d="M106.25 45.125L105.125 71.125L135.875 57L122 36L106.25 45.125Z" fill="url(#paint10_linear_264_12392)"/>
<path d="M117.5 -1L106.344 10.4375L106.625 44.875L121.875 36.125L121.25 -1H117.5Z" fill="url(#paint11_linear_264_12392)"/>
<path d="M122.5 29.375L121.875 35.875L134.875 27.125L122.5 29.375Z" fill="#F9B45E"/>
<path fill-rule="evenodd" clip-rule="evenodd" d="M94.2808 26.6502C96.3978 26.207 96.7649 25.8464 97.2167 23.7686C97.6685 25.8464 98.0639 26.207 100.153 26.6502H100.154C100.154 26.6503 100.154 26.6504 100.153 26.6504C100.154 26.6505 100.154 26.6505 100.154 26.6505H100.153C98.0358 27.0938 97.6687 27.4544 97.2169 29.5322C96.7651 27.4543 96.3697 27.0938 94.2809 26.6505H94.2793C94.2796 26.6505 94.2798 26.6504 94.2801 26.6504C94.2799 26.6503 94.2797 26.6503 94.2795 26.6502H94.2808Z" fill="#F6F4F1"/>
<path fill-rule="evenodd" clip-rule="evenodd" d="M90.2808 8.65024C92.3978 8.20699 92.7649 7.84643 93.2167 5.76855C93.6685 7.84643 94.0639 8.20699 96.1527 8.65024H96.1543C96.154 8.65029 96.1538 8.65035 96.1535 8.65041C96.1537 8.65045 96.1539 8.6505 96.1541 8.65054H96.1528C94.0358 9.09379 93.6687 9.45435 93.2169 11.5322C92.7651 9.45435 92.3697 9.09379 90.2809 8.65054H90.2793C90.2796 8.65049 90.2798 8.65043 90.2801 8.65037C90.2799 8.65033 90.2797 8.65028 90.2795 8.65024H90.2808Z" fill="#F6F4F1"/>
<path d="M142.75 37.375L134.75 27.25L122 36L136 57.125L154.125 37.375L149.125 31.375L142.75 37.375Z" fill="url(#paint12_linear_264_12392)"/>
<path d="M88.8697 38.0815C88.8697 38.221 88.8697 38.3605 88.8233 38.4535C88.8233 38.5465 88.777 38.686 88.777 38.779C88.777 38.9185 88.7307 39.0115 88.7307 39.151C88.7307 39.2439 88.6843 39.3834 88.638 39.4764C88.5916 39.6159 88.5917 39.7089 88.5453 39.8484C88.499 39.9414 88.499 40.0809 88.4526 40.1739C88.4063 40.3134 88.36 40.4064 88.3136 40.5459C88.2673 40.6389 88.221 40.7784 88.1746 40.8714C88.1283 41.0108 88.082 41.1503 87.9893 41.2433C87.943 41.3363 87.8966 41.4758 87.8503 41.5688C87.804 41.7083 87.7113 41.8478 87.665 41.9408C87.6186 42.0338 87.5723 42.1268 87.4796 42.2663C87.387 42.4058 87.2943 42.5918 87.2016 42.7312C87.1553 42.8242 87.0626 42.9172 87.0163 43.0102C86.9236 43.1962 86.7846 43.3357 86.6456 43.5217C86.5993 43.6147 86.5529 43.6612 86.5066 43.7542C86.3213 44.0332 86.0896 44.2657 85.8579 44.5446C85.8116 44.5911 85.7189 44.6841 85.6726 44.7306C85.4872 44.9166 85.3019 45.1026 85.1166 45.2886C85.0239 45.3816 84.9312 45.4746 84.8386 45.5676C84.6996 45.6606 84.6069 45.8001 84.4679 45.8931C84.3752 45.9861 84.2362 46.0791 84.0972 46.172C83.9582 46.265 83.8192 46.4045 83.6802 46.4975C83.5412 46.5905 83.4485 46.6835 83.3095 46.7765C83.1705 46.8695 83.0315 46.9625 82.8925 47.102C82.7535 47.195 82.6145 47.288 82.4755 47.381C82.3365 47.474 82.1512 47.567 82.0122 47.66C81.8268 47.7995 81.6415 47.8924 81.4098 48.0319C81.0391 48.2644 80.6221 48.4504 80.2515 48.6829C80.1588 48.7294 80.0198 48.8224 79.8808 48.8689C79.5564 49.0084 79.2784 49.1944 78.9541 49.3339C78.8614 49.3804 78.7224 49.4269 78.6298 49.4734C78.2127 49.6593 77.7957 49.8453 77.3787 49.9848C77.2861 50.0313 77.2397 50.0313 77.1471 50.0778C76.7764 50.2173 76.4057 50.3568 76.035 50.4498C75.896 50.4963 75.7107 50.5428 75.5717 50.5893C75.3863 50.6358 75.1547 50.7288 74.9693 50.7753C74.784 50.8218 74.5987 50.8683 74.4597 50.9148C74.228 50.9613 74.0426 51.0078 73.811 51.1008C73.6256 51.1473 73.4403 51.1938 73.255 51.2403C73.0233 51.2868 72.838 51.3332 72.6063 51.3797C72.4209 51.4262 72.2356 51.4727 72.0503 51.5192C71.8186 51.5657 71.5869 51.6122 71.4016 51.6587C71.2162 51.7052 71.0772 51.7052 70.8919 51.7517C70.4286 51.8447 69.9189 51.9377 69.4555 51.9842C69.3629 51.9842 69.3165 51.9842 69.2239 52.0307C68.8069 52.0772 68.3898 52.1237 67.9728 52.1702C67.8338 52.1702 67.6485 52.2167 67.4632 52.2167C67.1852 52.2632 66.9071 52.2632 66.6291 52.2632C66.4438 52.2632 66.3048 52.3097 66.1195 52.3097C65.8415 52.3097 65.5634 52.3562 65.2391 52.3562C65.1001 52.3562 64.9148 52.3562 64.7758 52.3562C64.5441 52.3562 64.2661 52.3562 64.0344 52.3562C63.8491 52.3562 63.7101 52.3562 63.5247 52.3562C63.2467 52.3562 62.9687 52.3562 62.737 52.3562C62.598 52.3562 62.4127 52.3562 62.2737 52.3562C62.042 52.3562 61.764 52.3562 61.5324 52.3097C61.347 52.3097 61.208 52.3097 61.0227 52.3097C60.7447 52.3097 60.513 52.2632 60.235 52.2632C60.096 52.2632 59.9106 52.2632 59.7716 52.2167C59.4473 52.1702 59.123 52.1702 58.7986 52.1237C58.706 52.1237 58.6596 52.1237 58.567 52.0772C58.1499 52.0307 57.7329 51.9842 57.3623 51.9377C57.3159 51.9377 57.2233 51.9377 57.1769 51.8912C56.8526 51.8447 56.4819 51.7982 56.1576 51.7052C56.0186 51.6587 55.8796 51.6587 55.7406 51.6122C55.4625 51.5657 55.2309 51.5192 54.9529 51.4727C54.8139 51.4262 54.6749 51.4262 54.5359 51.3797C54.2579 51.3332 53.9798 51.2403 53.7018 51.1938C53.5628 51.1473 53.3775 51.1008 53.2385 51.0543C52.9605 51.0078 52.7288 50.9148 52.4508 50.8683C52.3118 50.8218 52.1728 50.7753 52.0338 50.7288C51.6168 50.5893 51.2461 50.4963 50.8291 50.3568C50.7364 50.3103 50.6901 50.3103 50.5974 50.3103C50.1341 50.1708 49.6707 49.9848 49.2537 49.7988C49.0684 49.7058 48.8831 49.6593 48.6977 49.5664C48.5587 49.5199 48.4197 49.4734 48.2807 49.3804C48.0954 49.2874 47.8637 49.1944 47.6784 49.1014C47.5394 49.0549 47.4004 49.0084 47.3077 48.9154C47.076 48.8224 46.8907 48.6829 46.659 48.5899C46.5663 48.5434 46.4273 48.4969 46.3347 48.4504C46.0103 48.2644 45.7323 48.1249 45.408 47.9389C40.3575 45.1491 37.8555 41.2898 37.8555 37.4771V43.5217C37.8555 47.381 40.3575 51.1938 45.3616 54.1231C45.6397 54.3091 45.964 54.4486 46.2883 54.6346C46.381 54.6811 46.52 54.7276 46.6127 54.774C46.8443 54.867 47.0297 55.0065 47.2614 55.0995C47.4004 55.146 47.5394 55.239 47.632 55.2855C47.8174 55.3785 48.0027 55.4715 48.2344 55.5645C48.3734 55.611 48.5124 55.704 48.6514 55.7505C48.7904 55.797 48.9294 55.8435 49.0684 55.9365C49.1147 55.9365 49.1611 55.983 49.2074 55.983C49.6707 56.169 50.0878 56.3085 50.5511 56.4944C50.6438 56.5409 50.6901 56.5409 50.7828 56.5409C51.1998 56.6804 51.5705 56.8199 51.9875 56.9129C52.0338 56.9129 52.1265 56.9594 52.1728 56.9594C52.2655 56.9594 52.3118 57.0059 52.4045 57.0059C52.6825 57.0989 52.9142 57.1454 53.1922 57.1919C53.3312 57.2384 53.5165 57.2849 53.6555 57.3314C53.9335 57.3779 54.2115 57.4709 54.4895 57.5174C54.5822 57.5639 54.7212 57.5639 54.8139 57.6104C54.8602 57.6104 54.8602 57.6104 54.9065 57.6104C55.1845 57.6569 55.4162 57.7034 55.6942 57.7499C55.8332 57.7964 55.9722 57.7964 56.1112 57.8429C56.4356 57.8894 56.8062 57.9359 57.1306 58.0289C57.1769 58.0289 57.2696 58.0289 57.3159 58.0754C57.7329 58.1219 58.1499 58.1684 58.5206 58.2149C58.6133 58.2149 58.706 58.2149 58.7523 58.2613C59.0766 58.3078 59.401 58.3078 59.7253 58.3543C59.8643 58.3543 60.0033 58.3543 60.1423 58.4008C60.4203 58.4008 60.652 58.4473 60.93 58.4473C61.1153 58.4473 61.2543 58.4473 61.4397 58.4473C61.6714 58.4473 61.9494 58.4473 62.181 58.4938H62.2274C62.3664 58.4938 62.5054 58.4938 62.6444 58.4938C62.9224 58.4938 63.2004 58.4938 63.4321 58.4938C63.6174 58.4938 63.7564 58.4938 63.9417 58.4938C64.1734 58.4938 64.4514 58.4938 64.6831 58.4938C64.7294 58.4938 64.7758 58.4938 64.8221 58.4938C64.9148 58.4938 65.0538 58.4938 65.1464 58.4938C65.4244 58.4938 65.7024 58.4473 66.0268 58.4473C66.2121 58.4473 66.3511 58.4008 66.5365 58.4008C66.8145 58.4008 67.0925 58.3543 67.3705 58.3543C67.4632 58.3543 67.5558 58.3543 67.6485 58.3078C67.6948 58.3078 67.7875 58.3078 67.8338 58.2613C68.2508 58.2149 68.6679 58.1684 69.0849 58.1219C69.1775 58.1219 69.2239 58.1219 69.3165 58.0754C69.7799 58.0289 70.2896 57.9359 70.7529 57.8429C70.7992 57.8429 70.8456 57.8429 70.8919 57.8429C71.0309 57.8429 71.1236 57.7964 71.2626 57.7499C71.4943 57.7034 71.7259 57.6569 71.9113 57.6104C72.0966 57.5639 72.2819 57.5174 72.4673 57.4709C72.6989 57.4244 72.8843 57.3779 73.116 57.3314C73.3013 57.2849 73.4866 57.2384 73.672 57.1919C73.9036 57.1454 74.089 57.0989 74.3207 57.0059C74.506 56.9594 74.6913 56.9129 74.8303 56.8664C75.0157 56.8199 75.2473 56.7269 75.4327 56.6804C75.5253 56.6339 75.618 56.6339 75.7107 56.5874C75.757 56.5874 75.8497 56.5409 75.896 56.5409C76.2667 56.4015 76.6374 56.3085 77.008 56.169C77.1007 56.1225 77.147 56.1225 77.2397 56.076C77.6567 55.89 78.0737 55.7505 78.4907 55.5645C78.5834 55.518 78.7224 55.4715 78.8151 55.425C79.1394 55.2855 79.4638 55.146 79.7418 54.96C79.8808 54.9135 79.9734 54.867 80.1125 54.774C80.5295 54.5881 80.9001 54.3556 81.2708 54.1231C81.3635 54.0766 81.5025 53.9836 81.5952 53.9371C81.6878 53.8906 81.7805 53.7976 81.8732 53.7511C82.0122 53.6581 82.1975 53.5651 82.3365 53.4721C82.4755 53.3791 82.6145 53.2861 82.7535 53.1931C82.8925 53.1001 83.0315 53.0072 83.1705 52.8677C83.3095 52.7747 83.4485 52.6817 83.5412 52.5887C83.6802 52.4957 83.8192 52.4027 83.9582 52.2632C84.0972 52.1702 84.1899 52.0772 84.3289 51.9842C84.4679 51.8912 84.5606 51.7517 84.6996 51.6587C84.7459 51.6122 84.7922 51.5657 84.8386 51.5192C84.8849 51.4727 84.9312 51.4262 84.9776 51.3797C85.1629 51.1938 85.3482 51.0078 85.5336 50.8218C85.5799 50.7753 85.6726 50.6823 85.7189 50.6358C85.9506 50.4033 86.1823 50.1243 86.3676 49.8453C86.3676 49.8453 86.3676 49.8453 86.4139 49.7988C86.4603 49.7523 86.5066 49.6593 86.5529 49.6128C86.6919 49.4269 86.7846 49.2874 86.9236 49.1014C86.9699 49.0084 87.0626 48.9154 87.109 48.8224C87.2016 48.6829 87.2943 48.5434 87.387 48.3574C87.4333 48.3109 87.4333 48.2644 87.4796 48.2179C87.526 48.1714 87.526 48.0784 87.5723 48.0319C87.6186 47.8924 87.7113 47.7995 87.7576 47.66C87.804 47.567 87.8503 47.4275 87.8966 47.3345C87.943 47.195 87.9893 47.0555 88.082 46.9625C88.082 46.916 88.1283 46.8695 88.1746 46.7765C88.1746 46.73 88.221 46.6835 88.221 46.637C88.2673 46.4975 88.3136 46.4045 88.36 46.265C88.4063 46.172 88.4063 46.0326 88.4526 45.9396C88.499 45.8001 88.499 45.7071 88.5453 45.5676C88.5453 45.5211 88.5917 45.4281 88.5917 45.3816C88.5917 45.3351 88.5917 45.2886 88.5917 45.2421C88.638 45.1026 88.638 45.0096 88.638 44.8701C88.638 44.7771 88.6843 44.6376 88.6843 44.5446C88.6843 44.4052 88.6843 44.2657 88.7307 44.1727C88.7307 44.0797 88.7307 44.0332 88.7307 43.9402C88.7307 43.8472 88.7307 43.8007 88.7307 43.7077V37.663C88.8697 37.8025 88.8697 37.942 88.8697 38.0815Z" fill="url(#paint13_linear_264_12392)"/>
<mask id="mask0_264_12392" style="mask-type:alpha" maskUnits="userSpaceOnUse" x="37" y="22" width="52" height="31">
<path d="M81.3636 27.0616C91.3718 32.8272 91.4181 42.2197 81.4563 48.0318C71.5407 53.7975 55.37 53.844 45.4081 48.0318C35.4462 42.2197 35.3535 32.8737 45.2691 27.0616C55.1846 21.2959 71.3554 21.2959 81.3636 27.0616Z" fill="url(#paint14_linear_264_12392)"/>
</mask>
<g mask="url(#mask0_264_12392)">
<g filter="url(#filter2_b_264_12392)">
<path d="M81.3636 27.0616C91.3718 32.8272 91.4181 42.2197 81.4563 48.0318C71.5407 53.7975 55.37 53.844 45.4081 48.0318C35.4462 42.2197 35.3535 32.8737 45.2691 27.0616C55.1846 21.2959 71.3554 21.2959 81.3636 27.0616Z" fill="url(#paint15_linear_264_12392)"/>
</g>
<g filter="url(#filter3_f_264_12392)">
<ellipse cx="52.8766" cy="58.3045" rx="13.3204" ry="5.93092" fill="url(#paint16_linear_264_12392)"/>
</g>
</g>
<path d="M88.8697 30.7129C88.8697 30.8524 88.8697 30.9918 88.8233 31.0848C88.8233 31.1778 88.777 31.3173 88.777 31.4103C88.777 31.5498 88.7307 31.6428 88.7307 31.7823C88.7307 31.8753 88.6843 32.0148 88.638 32.1078C88.5916 32.2473 88.5917 32.3403 88.5453 32.4798C88.499 32.5728 88.499 32.7122 88.4526 32.8052C88.4063 32.9447 88.36 33.0377 88.3136 33.1772C88.2673 33.2702 88.221 33.4097 88.1746 33.5027C88.1283 33.6422 88.082 33.7817 87.9893 33.8747C87.943 33.9677 87.8966 34.1072 87.8503 34.2002C87.804 34.3397 87.7113 34.4791 87.665 34.5721C87.6186 34.6651 87.5723 34.7581 87.4796 34.8976C87.387 35.0371 87.2943 35.2231 87.2016 35.3626C87.1553 35.4556 87.0626 35.5486 87.0163 35.6416C86.9236 35.8276 86.7846 35.9671 86.6456 36.153C86.5993 36.246 86.5529 36.2925 86.5066 36.3855C86.3213 36.6645 86.0896 36.897 85.8579 37.176C85.8116 37.2225 85.7189 37.3155 85.6726 37.362C85.4872 37.548 85.3019 37.734 85.1166 37.9199C85.0239 38.0129 84.9312 38.1059 84.8386 38.1989C84.6996 38.2919 84.6069 38.4314 84.4679 38.5244C84.3752 38.6174 84.2362 38.7104 84.0972 38.8034C83.9582 38.8964 83.8192 39.0359 83.6802 39.1289C83.5412 39.2219 83.4485 39.3149 83.3095 39.4079C83.1705 39.5009 83.0315 39.5939 82.8925 39.7333C82.7535 39.8263 82.6145 39.9193 82.4755 40.0123C82.3365 40.1053 82.1512 40.1983 82.0122 40.2913C81.8268 40.4308 81.6415 40.5238 81.4098 40.6633C81.0391 40.8958 80.6221 41.0818 80.2515 41.3142C80.1588 41.3607 80.0198 41.4537 79.8808 41.5002C79.5564 41.6397 79.2784 41.8257 78.9541 41.9652C78.8614 42.0117 78.7224 42.0582 78.6298 42.1047C78.2127 42.2907 77.7957 42.4767 77.3787 42.6162C77.2861 42.6627 77.2397 42.6627 77.1471 42.7092C76.7764 42.8487 76.4057 42.9882 76.035 43.0811C75.896 43.1276 75.7107 43.1741 75.5717 43.2206C75.3863 43.2671 75.1547 43.3601 74.9693 43.4066C74.784 43.4531 74.5987 43.4996 74.4597 43.5461C74.228 43.5926 74.0426 43.6391 73.811 43.7321C73.6256 43.7786 73.4403 43.8251 73.255 43.8716C73.0233 43.9181 72.838 43.9646 72.6063 44.0111C72.4209 44.0576 72.2356 44.1041 72.0503 44.1506C71.8186 44.1971 71.5869 44.2436 71.4016 44.2901C71.2162 44.3366 71.0772 44.3366 70.8919 44.3831C70.4286 44.4761 69.9189 44.5691 69.4555 44.6156C69.3629 44.6156 69.3165 44.6156 69.2239 44.6621C68.8069 44.7086 68.3898 44.755 67.9728 44.8015C67.8338 44.8015 67.6485 44.848 67.4632 44.848C67.1852 44.8945 66.9071 44.8945 66.6291 44.8945C66.4438 44.8945 66.3048 44.941 66.1195 44.941C65.8415 44.941 65.5634 44.9875 65.2391 44.9875C65.1001 44.9875 64.9148 44.9875 64.7758 44.9875C64.5441 44.9875 64.2661 44.9875 64.0344 44.9875C63.8491 44.9875 63.7101 44.9875 63.5247 44.9875C63.2467 44.9875 62.9687 44.9875 62.737 44.9875C62.598 44.9875 62.4127 44.9875 62.2737 44.9875C62.042 44.9875 61.764 44.9875 61.5324 44.941C61.347 44.941 61.208 44.941 61.0227 44.941C60.7447 44.941 60.513 44.8945 60.235 44.8945C60.096 44.8945 59.9106 44.8945 59.7716 44.848C59.4473 44.8015 59.123 44.8015 58.7986 44.7551C58.706 44.7551 58.6596 44.755 58.567 44.7086C58.1499 44.6621 57.7329 44.6156 57.3623 44.5691C57.3159 44.5691 57.2233 44.5691 57.1769 44.5226C56.8526 44.4761 56.4819 44.4296 56.1576 44.3366C56.0186 44.2901 55.8796 44.2901 55.7406 44.2436C55.4625 44.1971 55.2309 44.1506 54.9529 44.1041C54.8139 44.0576 54.6749 44.0576 54.5359 44.0111C54.2579 43.9646 53.9798 43.8716 53.7018 43.8251C53.5628 43.7786 53.3775 43.7321 53.2385 43.6856C52.9605 43.6391 52.7288 43.5461 52.4508 43.4996C52.3118 43.4531 52.1728 43.4066 52.0338 43.3601C51.6168 43.2206 51.2461 43.1276 50.8291 42.9882C50.7364 42.9417 50.6901 42.9417 50.5974 42.9417C50.1341 42.8022 49.6707 42.6162 49.2537 42.4302C49.0684 42.3372 48.8831 42.2907 48.6977 42.1977C48.5587 42.1512 48.4197 42.1047 48.2807 42.0117C48.0954 41.9187 47.8637 41.8257 47.6784 41.7327C47.5394 41.6862 47.4004 41.6397 47.3077 41.5467C47.076 41.4537 46.8907 41.3142 46.659 41.2213C46.5663 41.1748 46.4273 41.1283 46.3347 41.0818C46.0103 40.8958 45.7323 40.7563 45.408 40.5703C40.3575 37.7805 37.8555 33.9212 37.8555 30.1084V36.153C37.8555 40.0123 40.3575 43.8251 45.3616 46.7544C45.6397 46.9404 45.964 47.0799 46.2883 47.2659C46.381 47.3124 46.52 47.3589 46.6127 47.4054C46.8443 47.4984 47.0297 47.6379 47.2614 47.7309C47.4004 47.7774 47.5394 47.8704 47.632 47.9169C47.8174 48.0099 48.0027 48.1029 48.2344 48.1959C48.3734 48.2423 48.5124 48.3353 48.6514 48.3818C48.7904 48.4283 48.9294 48.4748 49.0684 48.5678C49.1147 48.5678 49.1611 48.6143 49.2074 48.6143C49.6707 48.8003 50.0878 48.9398 50.5511 49.1258C50.6438 49.1723 50.6901 49.1723 50.7828 49.1723C51.1998 49.3118 51.5705 49.4513 51.9875 49.5443C52.0338 49.5443 52.1265 49.5908 52.1728 49.5908C52.2655 49.5908 52.3118 49.6373 52.4045 49.6373C52.6825 49.7303 52.9142 49.7768 53.1922 49.8233C53.3312 49.8698 53.5165 49.9163 53.6555 49.9627C53.9335 50.0092 54.2115 50.1022 54.4895 50.1487C54.5822 50.1952 54.7212 50.1952 54.8139 50.2417C54.8602 50.2417 54.8602 50.2417 54.9065 50.2417C55.1845 50.2882 55.4162 50.3347 55.6942 50.3812C55.8332 50.4277 55.9722 50.4277 56.1112 50.4742C56.4356 50.5207 56.8062 50.5672 57.1306 50.6602C57.1769 50.6602 57.2696 50.6602 57.3159 50.7067C57.7329 50.7532 58.1499 50.7997 58.5206 50.8462C58.6133 50.8462 58.706 50.8462 58.7523 50.8927C59.0766 50.9392 59.401 50.9392 59.7253 50.9857C59.8643 50.9857 60.0033 50.9857 60.1423 51.0322C60.4203 51.0322 60.652 51.0787 60.93 51.0787C61.1153 51.0787 61.2543 51.0787 61.4397 51.0787C61.6714 51.0787 61.9494 51.0787 62.181 51.1252H62.2274C62.3664 51.1252 62.5054 51.1252 62.6444 51.1252C62.9224 51.1252 63.2004 51.1252 63.4321 51.1252C63.6174 51.1252 63.7564 51.1252 63.9417 51.1252C64.1734 51.1252 64.4514 51.1252 64.6831 51.1252C64.7294 51.1252 64.7758 51.1252 64.8221 51.1252C64.9148 51.1252 65.0538 51.1252 65.1464 51.1252C65.4244 51.1252 65.7024 51.0787 66.0268 51.0787C66.2121 51.0787 66.3511 51.0322 66.5365 51.0322C66.8145 51.0322 67.0925 50.9857 67.3705 50.9857C67.4632 50.9857 67.5558 50.9857 67.6485 50.9392C67.6948 50.9392 67.7875 50.9392 67.8338 50.8927C68.2508 50.8462 68.6679 50.7997 69.0849 50.7532C69.1775 50.7532 69.2239 50.7532 69.3165 50.7067C69.7799 50.6602 70.2896 50.5672 70.7529 50.4742C70.7992 50.4742 70.8456 50.4742 70.8919 50.4742C71.0309 50.4742 71.1236 50.4277 71.2626 50.3812C71.4943 50.3347 71.7259 50.2882 71.9113 50.2417C72.0966 50.1952 72.2819 50.1487 72.4673 50.1022C72.6989 50.0557 72.8843 50.0092 73.116 49.9627C73.3013 49.9163 73.4866 49.8698 73.672 49.8233C73.9036 49.7768 74.089 49.7303 74.3207 49.6373C74.506 49.5908 74.6913 49.5443 74.8303 49.4978C75.0157 49.4513 75.2473 49.3583 75.4327 49.3118C75.5253 49.2653 75.618 49.2653 75.7107 49.2188C75.757 49.2188 75.8497 49.1723 75.896 49.1723C76.2667 49.0328 76.6374 48.9398 77.008 48.8003C77.1007 48.7538 77.147 48.7538 77.2397 48.7073C77.6567 48.5213 78.0737 48.3818 78.4907 48.1959C78.5834 48.1494 78.7224 48.1029 78.8151 48.0564C79.1394 47.9169 79.4638 47.7774 79.7418 47.5914C79.8808 47.5449 79.9734 47.4984 80.1125 47.4054C80.5295 47.2194 80.9001 46.9869 81.2708 46.7544C81.3635 46.7079 81.5025 46.6149 81.5952 46.5684C81.6878 46.5219 81.7805 46.429 81.8732 46.3825C82.0122 46.2895 82.1975 46.1965 82.3365 46.1035C82.4755 46.0105 82.6145 45.9175 82.7535 45.8245C82.8925 45.7315 83.0315 45.6385 83.1705 45.499C83.3095 45.406 83.4485 45.313 83.5412 45.22C83.6802 45.127 83.8192 45.034 83.9582 44.8945C84.0972 44.8015 84.1899 44.7086 84.3289 44.6156C84.4679 44.5226 84.5606 44.3831 84.6996 44.2901C84.7459 44.2436 84.7922 44.1971 84.8386 44.1506C84.8849 44.1041 84.9312 44.0576 84.9776 44.0111C85.1629 43.8251 85.3482 43.6391 85.5336 43.4531C85.5799 43.4066 85.6726 43.3136 85.7189 43.2671C85.9506 43.0346 86.1823 42.7557 86.3676 42.4767C86.3676 42.4767 86.3676 42.4767 86.4139 42.4302C86.4603 42.3837 86.5066 42.2907 86.5529 42.2442C86.6919 42.0582 86.7846 41.9187 86.9236 41.7327C86.9699 41.6397 87.0626 41.5467 87.109 41.4537C87.2016 41.3142 87.2943 41.1748 87.387 40.9888C87.4333 40.9423 87.4333 40.8958 87.4796 40.8493C87.526 40.8028 87.526 40.7098 87.5723 40.6633C87.6186 40.5238 87.7113 40.4308 87.7576 40.2913C87.804 40.1983 87.8503 40.0588 87.8966 39.9658C87.943 39.8263 87.9893 39.6868 88.082 39.5938C88.082 39.5474 88.1283 39.5009 88.1746 39.4079C88.1746 39.3614 88.221 39.3149 88.221 39.2684C88.2673 39.1289 88.3136 39.0359 88.36 38.8964C88.4063 38.8034 88.4063 38.6639 88.4526 38.5709C88.499 38.4314 88.499 38.3384 88.5453 38.1989C88.5453 38.1524 88.5917 38.0594 88.5917 38.0129C88.5917 37.9664 88.5917 37.9199 88.5917 37.8734C88.638 37.734 88.638 37.641 88.638 37.5015C88.638 37.4085 88.6843 37.269 88.6843 37.176C88.6843 37.0365 88.6843 36.897 88.7307 36.804C88.7307 36.711 88.7307 36.6645 88.7307 36.5715C88.7307 36.4785 88.7307 36.432 88.7307 36.339V30.2944C88.8697 30.4339 88.8697 30.5734 88.8697 30.7129Z" fill="url(#paint17_linear_264_12392)"/>
<mask id="mask1_264_12392" style="mask-type:alpha" maskUnits="userSpaceOnUse" x="37" y="15" width="52" height="31">
<path d="M81.3636 19.6929C91.3718 25.4586 91.4181 34.851 81.4563 40.6632C71.5407 46.4289 55.37 46.4754 45.4081 40.6632C35.4462 34.851 35.3535 25.5051 45.2691 19.6929C55.1846 13.9272 71.3554 13.9272 81.3636 19.6929Z" fill="url(#paint18_linear_264_12392)"/>
</mask>
<g mask="url(#mask1_264_12392)">
<g filter="url(#filter4_b_264_12392)">
<path d="M81.3636 19.6929C91.3718 25.4586 91.4181 34.851 81.4563 40.6632C71.5407 46.4289 55.37 46.4754 45.4081 40.6632C35.4462 34.851 35.3535 25.5051 45.2691 19.6929C55.1846 13.9272 71.3554 13.9272 81.3636 19.6929Z" fill="url(#paint19_linear_264_12392)"/>
</g>
<g filter="url(#filter5_f_264_12392)">
<ellipse cx="52.8766" cy="50.9358" rx="13.3204" ry="5.93092" fill="url(#paint20_linear_264_12392)"/>
</g>
</g>
<path d="M122.039 57.9946C122.039 58.1341 122.039 58.2736 121.992 58.3666C121.992 58.4596 121.946 58.5991 121.946 58.6921C121.946 58.8316 121.9 58.9245 121.9 59.064C121.9 59.157 121.853 59.2965 121.807 59.3895C121.761 59.529 121.761 59.622 121.714 59.7615C121.668 59.8545 121.668 59.994 121.622 60.087C121.575 60.2265 121.529 60.3195 121.483 60.459C121.436 60.552 121.39 60.6914 121.344 60.7844C121.297 60.9239 121.251 61.0634 121.158 61.1564C121.112 61.2494 121.066 61.3889 121.019 61.4819C120.973 61.6214 120.88 61.7609 120.834 61.8539C120.788 61.9469 120.741 62.0399 120.649 62.1794C120.556 62.3189 120.463 62.5048 120.371 62.6443C120.324 62.7373 120.232 62.8303 120.185 62.9233C120.093 63.1093 119.954 63.2488 119.815 63.4348C119.768 63.5278 119.722 63.5743 119.676 63.6673C119.49 63.9463 119.259 64.1787 119.027 64.4577C118.981 64.5042 118.888 64.5972 118.842 64.6437C118.656 64.8297 118.471 65.0157 118.286 65.2017C118.193 65.2947 118.1 65.3877 118.008 65.4807C117.869 65.5737 117.776 65.7132 117.637 65.8061C117.544 65.8991 117.405 65.9921 117.266 66.0851C117.127 66.1781 116.988 66.3176 116.849 66.4106C116.71 66.5036 116.617 66.5966 116.478 66.6896C116.339 66.7826 116.2 66.8756 116.061 67.0151C115.922 67.1081 115.783 67.2011 115.644 67.2941C115.505 67.3871 115.32 67.4801 115.181 67.573C114.996 67.7125 114.81 67.8055 114.579 67.945C114.208 68.1775 113.791 68.3635 113.42 68.596C113.328 68.6425 113.189 68.7355 113.05 68.782C112.725 68.9215 112.447 69.1075 112.123 69.247C112.03 69.2934 111.891 69.3399 111.799 69.3864C111.382 69.5724 110.965 69.7584 110.548 69.8979C110.455 69.9444 110.409 69.9444 110.316 69.9909C109.945 70.1304 109.575 70.2699 109.204 70.3629C109.065 70.4094 108.88 70.4559 108.741 70.5024C108.555 70.5489 108.324 70.6419 108.138 70.6884C107.953 70.7349 107.768 70.7814 107.629 70.8279C107.397 70.8744 107.212 70.9209 106.98 71.0138C106.795 71.0603 106.609 71.1068 106.424 71.1533C106.192 71.1998 106.007 71.2463 105.775 71.2928C105.59 71.3393 105.405 71.3858 105.219 71.4323C104.988 71.4788 104.756 71.5253 104.571 71.5718C104.385 71.6183 104.246 71.6183 104.061 71.6648C103.598 71.7578 103.088 71.8508 102.624 71.8973C102.532 71.8973 102.485 71.8973 102.393 71.9438C101.976 71.9903 101.559 72.0368 101.142 72.0833C101.003 72.0833 100.817 72.1298 100.632 72.1298C100.354 72.1763 100.076 72.1763 99.7981 72.1763C99.6127 72.1763 99.4737 72.2228 99.2884 72.2228C99.0104 72.2228 98.7324 72.2693 98.4081 72.2693C98.269 72.2693 98.0837 72.2693 97.9447 72.2693C97.713 72.2693 97.435 72.2693 97.2034 72.2693C97.018 72.2693 96.879 72.2693 96.6937 72.2693C96.4157 72.2693 96.1377 72.2693 95.906 72.2693C95.767 72.2693 95.5817 72.2693 95.4426 72.2693C95.211 72.2693 94.933 72.2693 94.7013 72.2228C94.516 72.2228 94.377 72.2228 94.1916 72.2228C93.9136 72.2228 93.6819 72.1763 93.4039 72.1763C93.2649 72.1763 93.0796 72.1763 92.9406 72.1298C92.6162 72.0833 92.2919 72.0833 91.9676 72.0368C91.8749 72.0368 91.8286 72.0368 91.7359 71.9903C91.3189 71.9438 90.9019 71.8973 90.5312 71.8508C90.4849 71.8508 90.3922 71.8508 90.3459 71.8043C90.0215 71.7578 89.6508 71.7113 89.3265 71.6183C89.1875 71.5718 89.0485 71.5718 88.9095 71.5253C88.6315 71.4788 88.3998 71.4323 88.1218 71.3858C87.9828 71.3393 87.8438 71.3393 87.7048 71.2928C87.4268 71.2463 87.1488 71.1533 86.8708 71.1068C86.7318 71.0603 86.5464 71.0138 86.4074 70.9674C86.1294 70.9209 85.8978 70.8279 85.6198 70.7814C85.4808 70.7349 85.3417 70.6884 85.2027 70.6419C84.7857 70.5024 84.4151 70.4094 83.998 70.2699C83.9054 70.2234 83.859 70.2234 83.7664 70.2234C83.303 70.0839 82.8397 69.8979 82.4227 69.7119C82.2373 69.6189 82.052 69.5724 81.8667 69.4794C81.7277 69.4329 81.5887 69.3864 81.4497 69.2934C81.2643 69.2005 81.0326 69.1075 80.8473 69.0145C80.7083 68.968 80.5693 68.9215 80.4766 68.8285C80.245 68.7355 80.0596 68.596 79.828 68.503C79.7353 68.4565 79.5963 68.41 79.5036 68.3635C79.1793 68.1775 78.9013 68.038 78.5769 67.852C73.5265 65.0622 71.0244 61.2029 71.0244 57.3901V63.4348C71.0244 67.2941 73.5265 71.1068 78.5306 74.0362C78.8086 74.2222 79.1329 74.3617 79.4573 74.5476C79.5499 74.5941 79.6889 74.6406 79.7816 74.6871C80.0133 74.7801 80.1986 74.9196 80.4303 75.0126C80.5693 75.0591 80.7083 75.1521 80.801 75.1986C80.9863 75.2916 81.1716 75.3846 81.4033 75.4776C81.5423 75.5241 81.6813 75.6171 81.8203 75.6636C81.9593 75.7101 82.0983 75.7566 82.2373 75.8496C82.2837 75.8496 82.33 75.8961 82.3763 75.8961C82.8397 76.0821 83.2567 76.2215 83.72 76.4075C83.8127 76.454 83.859 76.454 83.9517 76.454C84.3687 76.5935 84.7394 76.733 85.1564 76.826C85.2027 76.826 85.2954 76.8725 85.3417 76.8725C85.4344 76.8725 85.4808 76.919 85.5734 76.919C85.8514 77.012 86.0831 77.0585 86.3611 77.105C86.5001 77.1515 86.6854 77.198 86.8244 77.2445C87.1025 77.291 87.3805 77.384 87.6585 77.4305C87.7511 77.477 87.8901 77.477 87.9828 77.5235C88.0291 77.5235 88.0291 77.5235 88.0755 77.5235C88.3535 77.57 88.5852 77.6165 88.8632 77.663C89.0022 77.7095 89.1412 77.7095 89.2802 77.756C89.6045 77.8025 89.9752 77.849 90.2995 77.9419C90.3459 77.9419 90.4385 77.9419 90.4849 77.9884C90.9019 78.0349 91.3189 78.0814 91.6896 78.1279C91.7822 78.1279 91.8749 78.1279 91.9212 78.1744C92.2456 78.2209 92.5699 78.2209 92.8943 78.2674C93.0333 78.2674 93.1723 78.2674 93.3113 78.3139C93.5893 78.3139 93.8209 78.3604 94.099 78.3604C94.2843 78.3604 94.4233 78.3604 94.6086 78.3604C94.8403 78.3604 95.1183 78.3604 95.35 78.4069H95.3963C95.5353 78.4069 95.6743 78.4069 95.8133 78.4069C96.0913 78.4069 96.3693 78.4069 96.601 78.4069C96.7863 78.4069 96.9254 78.4069 97.1107 78.4069C97.3424 78.4069 97.6204 78.4069 97.852 78.4069C97.8984 78.4069 97.9447 78.4069 97.991 78.4069C98.0837 78.4069 98.2227 78.4069 98.3154 78.4069C98.5934 78.4069 98.8714 78.3604 99.1957 78.3604C99.3811 78.3604 99.5201 78.3139 99.7054 78.3139C99.9834 78.3139 100.261 78.2674 100.539 78.2674C100.632 78.2674 100.725 78.2674 100.817 78.2209C100.864 78.2209 100.956 78.2209 101.003 78.1744C101.42 78.1279 101.837 78.0814 102.254 78.0349C102.346 78.0349 102.393 78.0349 102.485 77.9884C102.949 77.9419 103.459 77.849 103.922 77.756C103.968 77.756 104.015 77.756 104.061 77.756C104.2 77.756 104.293 77.7095 104.432 77.663C104.663 77.6165 104.895 77.57 105.08 77.5235C105.266 77.477 105.451 77.4305 105.636 77.384C105.868 77.3375 106.053 77.291 106.285 77.2445C106.47 77.198 106.656 77.1515 106.841 77.105C107.073 77.0585 107.258 77.012 107.49 76.919C107.675 76.8725 107.86 76.826 107.999 76.7795C108.185 76.733 108.416 76.64 108.602 76.5935C108.694 76.547 108.787 76.547 108.88 76.5005C108.926 76.5005 109.019 76.454 109.065 76.454C109.436 76.3145 109.806 76.2215 110.177 76.0821C110.27 76.0356 110.316 76.0356 110.409 75.9891C110.826 75.8031 111.243 75.6636 111.66 75.4776C111.752 75.4311 111.891 75.3846 111.984 75.3381C112.308 75.1986 112.633 75.0591 112.911 74.8731C113.05 74.8266 113.142 74.7801 113.281 74.6871C113.698 74.5011 114.069 74.2687 114.44 74.0362C114.532 73.9897 114.671 73.8967 114.764 73.8502C114.857 73.8037 114.949 73.7107 115.042 73.6642C115.181 73.5712 115.366 73.4782 115.505 73.3852C115.644 73.2922 115.783 73.1992 115.922 73.1062C116.061 73.0132 116.2 72.9202 116.339 72.7807C116.478 72.6878 116.617 72.5948 116.71 72.5018C116.849 72.4088 116.988 72.3158 117.127 72.1763C117.266 72.0833 117.359 71.9903 117.498 71.8973C117.637 71.8043 117.729 71.6648 117.869 71.5718C117.915 71.5253 117.961 71.4788 118.008 71.4323C118.054 71.3858 118.1 71.3393 118.147 71.2928C118.332 71.1068 118.517 70.9209 118.703 70.7349C118.749 70.6884 118.842 70.5954 118.888 70.5489C119.12 70.3164 119.351 70.0374 119.537 69.7584C119.537 69.7584 119.537 69.7584 119.583 69.7119C119.629 69.6654 119.676 69.5724 119.722 69.5259C119.861 69.3399 119.954 69.2005 120.093 69.0145C120.139 68.9215 120.232 68.8285 120.278 68.7355C120.371 68.596 120.463 68.4565 120.556 68.2705C120.602 68.224 120.602 68.1775 120.649 68.131C120.695 68.0845 120.695 67.9915 120.741 67.945C120.788 67.8055 120.88 67.7125 120.927 67.573C120.973 67.4801 121.019 67.3406 121.066 67.2476C121.112 67.1081 121.158 66.9686 121.251 66.8756C121.251 66.8291 121.297 66.7826 121.344 66.6896C121.344 66.6431 121.39 66.5966 121.39 66.5501C121.436 66.4106 121.483 66.3176 121.529 66.1781C121.575 66.0851 121.575 65.9456 121.622 65.8526C121.668 65.7132 121.668 65.6202 121.714 65.4807C121.714 65.4342 121.761 65.3412 121.761 65.2947C121.761 65.2482 121.761 65.2017 121.761 65.1552C121.807 65.0157 121.807 64.9227 121.807 64.7832C121.807 64.6902 121.853 64.5507 121.853 64.4577C121.853 64.3182 121.853 64.1787 121.9 64.0857C121.9 63.9928 121.9 63.9463 121.9 63.8533C121.9 63.7603 121.9 63.7138 121.9 63.6208V57.5761C122.039 57.7156 122.039 57.8551 122.039 57.9946Z" fill="url(#paint21_linear_264_12392)"/>
<mask id="mask2_264_12392" style="mask-type:alpha" maskUnits="userSpaceOnUse" x="71" y="42" width="52" height="31">
<path d="M114.533 46.9746C124.541 52.7403 124.587 62.1328 114.625 67.9449C104.71 73.7106 88.5389 73.7571 78.577 67.9449C68.6151 62.1328 68.5225 52.7868 78.438 46.9746C88.3536 41.209 104.524 41.209 114.533 46.9746Z" fill="url(#paint22_linear_264_12392)"/>
</mask>
<g mask="url(#mask2_264_12392)">
<g filter="url(#filter6_b_264_12392)">
<path d="M114.533 46.9746C124.541 52.7403 124.587 62.1328 114.625 67.9449C104.71 73.7106 88.5389 73.7571 78.577 67.9449C68.6151 62.1328 68.5225 52.7868 78.438 46.9746C88.3536 41.209 104.524 41.209 114.533 46.9746Z" fill="url(#paint23_linear_264_12392)" fill-opacity="0.51"/>
</g>
<g filter="url(#filter7_f_264_12392)">
<ellipse cx="86.0455" cy="78.2175" rx="13.3204" ry="5.93092" fill="url(#paint24_linear_264_12392)"/>
</g>
<path d="M102.89 53.4346L98.5957 56.0113L100.409 59.8288L105.563 60.6877L106.135 60.306L102.89 53.4346Z" fill="#323129"/>
<path d="M105.563 60.688L100.409 59.8291L93.8239 58.7793L89.5293 61.2606L101.363 63.1694L105.563 60.688Z" fill="#222323"/>
<path d="M102.891 53.4351L91.2478 51.7173L86.9531 54.1986L90.6751 52.099L92.0112 54.9621L98.5963 56.0119L102.891 53.4351Z" fill="#443829"/>
<path d="M90.6748 52.0991L86.9528 54.1987L86.4756 54.5805L89.5295 61.261L93.8242 58.7797L92.0109 54.9622L90.6748 52.0991Z" fill="#222323"/>
</g>
<path d="M87.3101 77.4194C87.3101 77.5589 87.3101 77.6984 87.2638 77.7914C87.2638 77.8844 87.2174 78.0239 87.2174 78.1169C87.2174 78.2564 87.1711 78.3494 87.1711 78.4888C87.1711 78.5818 87.1247 78.7213 87.0784 78.8143C87.0321 78.9538 87.0321 79.0468 86.9857 79.1863C86.9394 79.2793 86.9394 79.4188 86.8931 79.5118C86.8467 79.6513 86.8004 79.7443 86.7541 79.8838C86.7077 79.9768 86.6614 80.1163 86.6151 80.2092C86.5687 80.3487 86.5224 80.4882 86.4297 80.5812C86.3834 80.6742 86.3371 80.8137 86.2907 80.9067C86.2444 81.0462 86.1517 81.1857 86.1054 81.2787C86.0591 81.3717 86.0127 81.4647 85.9201 81.6042C85.8274 81.7437 85.7347 81.9296 85.642 82.0691C85.5957 82.1621 85.503 82.2551 85.4567 82.3481C85.364 82.5341 85.225 82.6736 85.086 82.8596C85.0397 82.9526 84.9934 82.9991 84.947 83.0921C84.7617 83.3711 84.53 83.6035 84.2983 83.8825C84.252 83.929 84.1593 84.022 84.113 84.0685C83.9277 84.2545 83.7423 84.4405 83.557 84.6265C83.4643 84.7195 83.3717 84.8125 83.279 84.9055C83.14 84.9985 83.0473 85.138 82.9083 85.231C82.8156 85.3239 82.6766 85.4169 82.5376 85.5099C82.3986 85.6029 82.2596 85.7424 82.1206 85.8354C81.9816 85.9284 81.889 86.0214 81.75 86.1144C81.611 86.2074 81.472 86.3004 81.3329 86.4399C81.1939 86.5329 81.0549 86.6259 80.9159 86.7189C80.7769 86.8119 80.5916 86.9049 80.4526 86.9979C80.2673 87.1373 80.0819 87.2303 79.8502 87.3698C79.4796 87.6023 79.0626 87.7883 78.6919 88.0208C78.5992 88.0673 78.4602 88.1603 78.3212 88.2068C77.9969 88.3463 77.7189 88.5323 77.3945 88.6718C77.3019 88.7183 77.1628 88.7647 77.0702 88.8112C76.6532 88.9972 76.2362 89.1832 75.8192 89.3227C75.7265 89.3692 75.6801 89.3692 75.5875 89.4157C75.2168 89.5552 74.8461 89.6947 74.4755 89.7877C74.3365 89.8342 74.1511 89.8807 74.0121 89.9272C73.8268 89.9737 73.5951 90.0667 73.4098 90.1132C73.2244 90.1597 73.0391 90.2062 72.9001 90.2527C72.6684 90.2992 72.4831 90.3457 72.2514 90.4387C72.0661 90.4852 71.8807 90.5316 71.6954 90.5781C71.4637 90.6246 71.2784 90.6711 71.0467 90.7176C70.8614 90.7641 70.676 90.8106 70.4907 90.8571C70.259 90.9036 70.0274 90.9501 69.842 90.9966C69.6567 91.0431 69.5177 91.0431 69.3323 91.0896C68.869 91.1826 68.3593 91.2756 67.896 91.3221C67.8033 91.3221 67.757 91.3221 67.6643 91.3686C67.2473 91.4151 66.8303 91.4616 66.4133 91.5081C66.2743 91.5081 66.0889 91.5546 65.9036 91.5546C65.6256 91.6011 65.3476 91.6011 65.0696 91.6011C64.8842 91.6011 64.7452 91.6476 64.5599 91.6476C64.2819 91.6476 64.0039 91.6941 63.6795 91.6941C63.5405 91.6941 63.3552 91.6941 63.2162 91.6941C62.9845 91.6941 62.7065 91.6941 62.4748 91.6941C62.2895 91.6941 62.1505 91.6941 61.9652 91.6941C61.6872 91.6941 61.4092 91.6941 61.1775 91.6941C61.0385 91.6941 60.8531 91.6941 60.7141 91.6941C60.4825 91.6941 60.2045 91.6941 59.9728 91.6476C59.7874 91.6476 59.6484 91.6476 59.4631 91.6476C59.1851 91.6476 58.9534 91.6011 58.6754 91.6011C58.5364 91.6011 58.3511 91.6011 58.2121 91.5546C57.8877 91.5081 57.5634 91.5081 57.2391 91.4616C57.1464 91.4616 57.1 91.4616 57.0074 91.4151C56.5904 91.3686 56.1734 91.3221 55.8027 91.2756C55.7564 91.2756 55.6637 91.2756 55.6173 91.2291C55.293 91.1826 54.9223 91.1361 54.598 91.0431C54.459 90.9966 54.32 90.9966 54.181 90.9501C53.903 90.9036 53.6713 90.8571 53.3933 90.8106C53.2543 90.7641 53.1153 90.7641 52.9763 90.7176C52.6983 90.6711 52.4203 90.5781 52.1423 90.5316C52.0033 90.4852 51.8179 90.4387 51.6789 90.3922C51.4009 90.3457 51.1692 90.2527 50.8912 90.2062C50.7522 90.1597 50.6132 90.1132 50.4742 90.0667C50.0572 89.9272 49.6865 89.8342 49.2695 89.6947C49.1769 89.6482 49.1305 89.6482 49.0379 89.6482C48.5745 89.5087 48.1112 89.3227 47.6942 89.1367C47.5088 89.0437 47.3235 88.9972 47.1382 88.9042C46.9991 88.8577 46.8601 88.8112 46.7211 88.7183C46.5358 88.6253 46.3041 88.5323 46.1188 88.4393C45.9798 88.3928 45.8408 88.3463 45.7481 88.2533C45.5164 88.1603 45.3311 88.0208 45.0994 87.9278C45.0068 87.8813 44.8678 87.8348 44.7751 87.7883C44.4508 87.6023 44.1727 87.4628 43.8484 87.2768C38.798 84.487 36.2959 80.6277 36.2959 76.8149V82.8596C36.2959 86.7189 38.798 90.5316 43.8021 93.461C44.0801 93.647 44.4044 93.7865 44.7288 93.9724C44.8214 94.0189 44.9604 94.0654 45.0531 94.1119C45.2848 94.2049 45.4701 94.3444 45.7018 94.4374C45.8408 94.4839 45.9798 94.5769 46.0725 94.6234C46.2578 94.7164 46.4431 94.8094 46.6748 94.9024C46.8138 94.9489 46.9528 95.0419 47.0918 95.0884C47.2308 95.1349 47.3698 95.1814 47.5088 95.2744C47.5552 95.2744 47.6015 95.3209 47.6478 95.3209C48.1112 95.5069 48.5282 95.6464 48.9915 95.8323C49.0842 95.8788 49.1305 95.8788 49.2232 95.8788C49.6402 96.0183 50.0109 96.1578 50.4279 96.2508C50.4742 96.2508 50.5669 96.2973 50.6132 96.2973C50.7059 96.2973 50.7522 96.3438 50.8449 96.3438C51.1229 96.4368 51.3546 96.4833 51.6326 96.5298C51.7716 96.5763 51.9569 96.6228 52.0959 96.6693C52.3739 96.7158 52.6519 96.8088 52.93 96.8553C53.0226 96.9018 53.1616 96.9018 53.2543 96.9483C53.3006 96.9483 53.3006 96.9483 53.347 96.9483C53.625 96.9948 53.8566 97.0413 54.1346 97.0878C54.2737 97.1343 54.4127 97.1343 54.5517 97.1808C54.876 97.2273 55.2467 97.2738 55.571 97.3668C55.6173 97.3668 55.71 97.3668 55.7564 97.4132C56.1734 97.4597 56.5904 97.5062 56.961 97.5527C57.0537 97.5527 57.1464 97.5527 57.1927 97.5992C57.5171 97.6457 57.8414 97.6457 58.1657 97.6922C58.3047 97.6922 58.4437 97.6922 58.5828 97.7387C58.8608 97.7387 59.0924 97.7852 59.3704 97.7852C59.5558 97.7852 59.6948 97.7852 59.8801 97.7852C60.1118 97.7852 60.3898 97.7852 60.6215 97.8317H60.6678C60.8068 97.8317 60.9458 97.8317 61.0848 97.8317C61.3628 97.8317 61.6408 97.8317 61.8725 97.8317C62.0578 97.8317 62.1968 97.8317 62.3822 97.8317C62.6138 97.8317 62.8919 97.8317 63.1235 97.8317C63.1699 97.8317 63.2162 97.8317 63.2625 97.8317C63.3552 97.8317 63.4942 97.8317 63.5869 97.8317C63.8649 97.8317 64.1429 97.7852 64.4672 97.7852C64.6526 97.7852 64.7916 97.7387 64.9769 97.7387C65.2549 97.7387 65.5329 97.6922 65.8109 97.6922C65.9036 97.6922 65.9963 97.6922 66.0889 97.6457C66.1353 97.6457 66.2279 97.6457 66.2743 97.5992C66.6913 97.5527 67.1083 97.5062 67.5253 97.4597C67.618 97.4597 67.6643 97.4597 67.757 97.4132C68.2203 97.3668 68.73 97.2738 69.1933 97.1808C69.2397 97.1808 69.286 97.1808 69.3323 97.1808C69.4713 97.1808 69.564 97.1343 69.703 97.0878C69.9347 97.0413 70.1664 96.9948 70.3517 96.9483C70.537 96.9018 70.7224 96.8553 70.9077 96.8088C71.1394 96.7623 71.3247 96.7158 71.5564 96.6693C71.7417 96.6228 71.9271 96.5763 72.1124 96.5298C72.3441 96.4833 72.5294 96.4368 72.7611 96.3438C72.9464 96.2973 73.1318 96.2508 73.2708 96.2043C73.4561 96.1578 73.6878 96.0648 73.8731 96.0183C73.9658 95.9718 74.0584 95.9718 74.1511 95.9253C74.1974 95.9253 74.2901 95.8788 74.3364 95.8788C74.7071 95.7393 75.0778 95.6464 75.4485 95.5069C75.5411 95.4604 75.5875 95.4604 75.6801 95.4139C76.0972 95.2279 76.5142 95.0884 76.9312 94.9024C77.0238 94.8559 77.1628 94.8094 77.2555 94.7629C77.5799 94.6234 77.9042 94.4839 78.1822 94.2979C78.3212 94.2514 78.4139 94.2049 78.5529 94.1119C78.9699 93.926 79.3406 93.6935 79.7112 93.461C79.8039 93.4145 79.9429 93.3215 80.0356 93.275C80.1283 93.2285 80.2209 93.1355 80.3136 93.089C80.4526 92.996 80.6379 92.903 80.7769 92.81C80.9159 92.717 81.0549 92.624 81.1939 92.531C81.3329 92.438 81.472 92.345 81.611 92.2056C81.75 92.1126 81.889 92.0196 81.9816 91.9266C82.1206 91.8336 82.2596 91.7406 82.3986 91.6011C82.5376 91.5081 82.6303 91.4151 82.7693 91.3221C82.9083 91.2291 83.001 91.0896 83.14 90.9966C83.1863 90.9501 83.2327 90.9036 83.279 90.8571C83.3253 90.8106 83.3717 90.7641 83.418 90.7176C83.6033 90.5316 83.7887 90.3457 83.974 90.1597C84.0203 90.1132 84.113 90.0202 84.1593 89.9737C84.391 89.7412 84.6227 89.4622 84.808 89.1832C84.808 89.1832 84.808 89.1832 84.8544 89.1367C84.9007 89.0902 84.947 88.9972 84.9934 88.9507C85.1324 88.7647 85.225 88.6253 85.364 88.4393C85.4104 88.3463 85.503 88.2533 85.5494 88.1603C85.642 88.0208 85.7347 87.8813 85.8274 87.6953C85.8737 87.6488 85.8737 87.6023 85.9201 87.5558C85.9664 87.5093 85.9664 87.4163 86.0127 87.3698C86.0591 87.2303 86.1517 87.1373 86.1981 86.9979C86.2444 86.9049 86.2907 86.7654 86.3371 86.6724C86.3834 86.5329 86.4297 86.3934 86.5224 86.3004C86.5224 86.2539 86.5687 86.2074 86.6151 86.1144C86.6151 86.0679 86.6614 86.0214 86.6614 85.9749C86.7077 85.8354 86.7541 85.7424 86.8004 85.6029C86.8467 85.5099 86.8467 85.3704 86.8931 85.2775C86.9394 85.138 86.9394 85.045 86.9857 84.9055C86.9857 84.859 87.0321 84.766 87.0321 84.7195C87.0321 84.673 87.0321 84.6265 87.0321 84.58C87.0784 84.4405 87.0784 84.3475 87.0784 84.208C87.0784 84.115 87.1247 83.9755 87.1247 83.8825C87.1247 83.743 87.1248 83.6035 87.1711 83.5106C87.1711 83.4176 87.1711 83.3711 87.1711 83.2781C87.1711 83.1851 87.1711 83.1386 87.1711 83.0456V77.0009C87.3101 77.1404 87.3101 77.2799 87.3101 77.4194Z" fill="url(#paint25_linear_264_12392)"/>
<mask id="mask3_264_12392" style="mask-type:alpha" maskUnits="userSpaceOnUse" x="36" y="62" width="52" height="30">
<path d="M79.8035 66.3994C89.8118 72.1651 89.8581 81.5576 79.8962 87.3697C69.9806 93.1354 53.8099 93.1819 43.848 87.3697C33.8861 81.5576 33.7935 72.2116 43.709 66.3994C53.6246 60.6338 69.7953 60.6338 79.8035 66.3994Z" fill="url(#paint26_linear_264_12392)"/>
</mask>
<g mask="url(#mask3_264_12392)">
<g filter="url(#filter8_b_264_12392)">
<path d="M79.8035 66.3994C89.8118 72.1651 89.8581 81.5576 79.8962 87.3697C69.9806 93.1354 53.8099 93.1819 43.848 87.3697C33.8861 81.5576 33.7935 72.2116 43.709 66.3994C53.6246 60.6338 69.7953 60.6338 79.8035 66.3994Z" fill="url(#paint27_linear_264_12392)" fill-opacity="0.51"/>
</g>
<g filter="url(#filter9_f_264_12392)">
<ellipse cx="51.3165" cy="97.6423" rx="13.3204" ry="5.93092" fill="url(#paint28_linear_264_12392)"/>
</g>
<path d="M68.1618 72.8594L63.8672 75.4362L65.6805 79.2536L70.834 80.1125L71.4067 79.7308L68.1618 72.8594Z" fill="#323129"/>
<path d="M70.8341 80.1128L65.6805 79.2539L59.0954 78.2041L54.8008 80.6854L66.6349 82.5942L70.8341 80.1128Z" fill="#222323"/>
<path d="M68.1615 72.8599L56.5183 71.1421L52.2236 73.6234L55.9456 71.5238L57.2818 74.3869L63.8669 75.4367L68.1615 72.8599Z" fill="#443829"/>
<path d="M55.9458 71.5239L52.2238 73.6235L51.7466 74.0053L54.8005 80.6858L59.0952 78.2045L57.2819 74.387L55.9458 71.5239Z" fill="#222323"/>
</g>
<path d="M88.8697 23.3442C88.8697 23.4837 88.8697 23.6232 88.8233 23.7162C88.8233 23.8092 88.777 23.9487 88.777 24.0417C88.777 24.1812 88.7307 24.2742 88.7307 24.4136C88.7307 24.5066 88.6843 24.6461 88.638 24.7391C88.5916 24.8786 88.5917 24.9716 88.5453 25.1111C88.499 25.2041 88.499 25.3436 88.4526 25.4366C88.4063 25.5761 88.36 25.6691 88.3136 25.8086C88.2673 25.9016 88.221 26.0411 88.1746 26.134C88.1283 26.2735 88.082 26.413 87.9893 26.506C87.943 26.599 87.8966 26.7385 87.8503 26.8315C87.804 26.971 87.7113 27.1105 87.665 27.2035C87.6186 27.2965 87.5723 27.3895 87.4796 27.529C87.387 27.6685 87.2943 27.8544 87.2016 27.9939C87.1553 28.0869 87.0626 28.1799 87.0163 28.2729C86.9236 28.4589 86.7846 28.5984 86.6456 28.7844C86.5993 28.8774 86.5529 28.9239 86.5066 29.0169C86.3213 29.2959 86.0896 29.5284 85.8579 29.8073C85.8116 29.8538 85.7189 29.9468 85.6726 29.9933C85.4872 30.1793 85.3019 30.3653 85.1166 30.5513C85.0239 30.6443 84.9312 30.7373 84.8386 30.8303C84.6996 30.9233 84.6069 31.0628 84.4679 31.1558C84.3752 31.2488 84.2362 31.3417 84.0972 31.4347C83.9582 31.5277 83.8192 31.6672 83.6802 31.7602C83.5412 31.8532 83.4485 31.9462 83.3095 32.0392C83.1705 32.1322 83.0315 32.2252 82.8925 32.3647C82.7535 32.4577 82.6145 32.5507 82.4755 32.6437C82.3365 32.7367 82.1512 32.8297 82.0122 32.9227C81.8268 33.0621 81.6415 33.1551 81.4098 33.2946C81.0391 33.5271 80.6221 33.7131 80.2515 33.9456C80.1588 33.9921 80.0198 34.0851 79.8808 34.1316C79.5564 34.2711 79.2784 34.4571 78.9541 34.5966C78.8614 34.6431 78.7224 34.6896 78.6298 34.7361C78.2127 34.922 77.7957 35.108 77.3787 35.2475C77.2861 35.294 77.2397 35.294 77.1471 35.3405C76.7764 35.48 76.4057 35.6195 76.035 35.7125C75.896 35.759 75.7107 35.8055 75.5717 35.852C75.3863 35.8985 75.1547 35.9915 74.9693 36.038C74.784 36.0845 74.5987 36.131 74.4597 36.1775C74.228 36.224 74.0426 36.2705 73.811 36.3635C73.6256 36.41 73.4403 36.4565 73.255 36.5029C73.0233 36.5494 72.838 36.5959 72.6063 36.6424C72.4209 36.6889 72.2356 36.7354 72.0503 36.7819C71.8186 36.8284 71.5869 36.8749 71.4016 36.9214C71.2162 36.9679 71.0772 36.9679 70.8919 37.0144C70.4286 37.1074 69.9189 37.2004 69.4555 37.2469C69.3629 37.2469 69.3165 37.2469 69.2239 37.2934C68.8069 37.3399 68.3898 37.3864 67.9728 37.4329C67.8338 37.4329 67.6485 37.4794 67.4632 37.4794C67.1852 37.5259 66.9071 37.5259 66.6291 37.5259C66.4438 37.5259 66.3048 37.5724 66.1195 37.5724C65.8415 37.5724 65.5634 37.6189 65.2391 37.6189C65.1001 37.6189 64.9148 37.6189 64.7758 37.6189C64.5441 37.6189 64.2661 37.6189 64.0344 37.6189C63.8491 37.6189 63.7101 37.6189 63.5247 37.6189C63.2467 37.6189 62.9687 37.6189 62.737 37.6189C62.598 37.6189 62.4127 37.6189 62.2737 37.6189C62.042 37.6189 61.764 37.6189 61.5324 37.5724C61.347 37.5724 61.208 37.5724 61.0227 37.5724C60.7447 37.5724 60.513 37.5259 60.235 37.5259C60.096 37.5259 59.9106 37.5259 59.7716 37.4794C59.4473 37.4329 59.123 37.4329 58.7986 37.3864C58.706 37.3864 58.6596 37.3864 58.567 37.3399C58.1499 37.2934 57.7329 37.2469 57.3623 37.2004C57.3159 37.2004 57.2233 37.2004 57.1769 37.1539C56.8526 37.1074 56.4819 37.0609 56.1576 36.9679C56.0186 36.9214 55.8796 36.9214 55.7406 36.8749C55.4625 36.8284 55.2309 36.7819 54.9529 36.7354C54.8139 36.6889 54.6749 36.6889 54.5359 36.6424C54.2579 36.5959 53.9798 36.5029 53.7018 36.4565C53.5628 36.41 53.3775 36.3635 53.2385 36.317C52.9605 36.2705 52.7288 36.1775 52.4508 36.131C52.3118 36.0845 52.1728 36.038 52.0338 35.9915C51.6168 35.852 51.2461 35.759 50.8291 35.6195C50.7364 35.573 50.6901 35.573 50.5974 35.573C50.1341 35.4335 49.6707 35.2475 49.2537 35.0615C49.0684 34.9685 48.8831 34.922 48.6977 34.829C48.5587 34.7825 48.4197 34.7361 48.2807 34.6431C48.0954 34.5501 47.8637 34.4571 47.6784 34.3641C47.5394 34.3176 47.4004 34.2711 47.3077 34.1781C47.076 34.0851 46.8907 33.9456 46.659 33.8526C46.5663 33.8061 46.4273 33.7596 46.3347 33.7131C46.0103 33.5271 45.7323 33.3876 45.408 33.2016C40.3575 30.4118 37.8555 26.5525 37.8555 22.7397V28.7844C37.8555 32.6437 40.3575 36.4565 45.3616 39.3858C45.6397 39.5718 45.964 39.7113 46.2883 39.8973C46.381 39.9438 46.52 39.9902 46.6127 40.0367C46.8443 40.1297 47.0297 40.2692 47.2614 40.3622C47.4004 40.4087 47.5394 40.5017 47.632 40.5482C47.8174 40.6412 48.0027 40.7342 48.2344 40.8272C48.3734 40.8737 48.5124 40.9667 48.6514 41.0132C48.7904 41.0597 48.9294 41.1062 49.0684 41.1992C49.1147 41.1992 49.1611 41.2457 49.2074 41.2457C49.6707 41.4317 50.0878 41.5712 50.5511 41.7571C50.6438 41.8036 50.6901 41.8036 50.7828 41.8036C51.1998 41.9431 51.5705 42.0826 51.9875 42.1756C52.0338 42.1756 52.1265 42.2221 52.1728 42.2221C52.2655 42.2221 52.3118 42.2686 52.4045 42.2686C52.6825 42.3616 52.9142 42.4081 53.1922 42.4546C53.3312 42.5011 53.5165 42.5476 53.6555 42.5941C53.9335 42.6406 54.2115 42.7336 54.4895 42.7801C54.5822 42.8266 54.7212 42.8266 54.8139 42.8731C54.8602 42.8731 54.8602 42.8731 54.9065 42.8731C55.1845 42.9196 55.4162 42.9661 55.6942 43.0126C55.8332 43.0591 55.9722 43.0591 56.1112 43.1056C56.4356 43.1521 56.8062 43.1986 57.1306 43.2916C57.1769 43.2916 57.2696 43.2916 57.3159 43.3381C57.7329 43.3846 58.1499 43.431 58.5206 43.4775C58.6133 43.4775 58.706 43.4775 58.7523 43.524C59.0766 43.5705 59.401 43.5705 59.7253 43.617C59.8643 43.617 60.0033 43.617 60.1423 43.6635C60.4203 43.6635 60.652 43.71 60.93 43.71C61.1153 43.71 61.2543 43.71 61.4397 43.71C61.6714 43.71 61.9494 43.71 62.181 43.7565H62.2274C62.3664 43.7565 62.5054 43.7565 62.6444 43.7565C62.9224 43.7565 63.2004 43.7565 63.4321 43.7565C63.6174 43.7565 63.7564 43.7565 63.9417 43.7565C64.1734 43.7565 64.4514 43.7565 64.6831 43.7565C64.7294 43.7565 64.7758 43.7565 64.8221 43.7565C64.9148 43.7565 65.0538 43.7565 65.1464 43.7565C65.4244 43.7565 65.7024 43.71 66.0268 43.71C66.2121 43.71 66.3511 43.6635 66.5365 43.6635C66.8145 43.6635 67.0925 43.617 67.3705 43.617C67.4632 43.617 67.5558 43.617 67.6485 43.5705C67.6948 43.5705 67.7875 43.5705 67.8338 43.524C68.2508 43.4775 68.6679 43.431 69.0849 43.3846C69.1775 43.3846 69.2239 43.3846 69.3165 43.3381C69.7799 43.2916 70.2896 43.1986 70.7529 43.1056C70.7992 43.1056 70.8456 43.1056 70.8919 43.1056C71.0309 43.1056 71.1236 43.0591 71.2626 43.0126C71.4943 42.9661 71.7259 42.9196 71.9113 42.8731C72.0966 42.8266 72.2819 42.7801 72.4673 42.7336C72.6989 42.6871 72.8843 42.6406 73.116 42.5941C73.3013 42.5476 73.4866 42.5011 73.672 42.4546C73.9036 42.4081 74.089 42.3616 74.3207 42.2686C74.506 42.2221 74.6913 42.1756 74.8303 42.1291C75.0157 42.0826 75.2473 41.9896 75.4327 41.9431C75.5253 41.8966 75.618 41.8966 75.7107 41.8501C75.757 41.8501 75.8497 41.8036 75.896 41.8036C76.2667 41.6641 76.6374 41.5712 77.008 41.4317C77.1007 41.3852 77.147 41.3852 77.2397 41.3387C77.6567 41.1527 78.0737 41.0132 78.4907 40.8272C78.5834 40.7807 78.7224 40.7342 78.8151 40.6877C79.1394 40.5482 79.4638 40.4087 79.7418 40.2227C79.8808 40.1762 79.9734 40.1297 80.1125 40.0367C80.5295 39.8508 80.9001 39.6183 81.2708 39.3858C81.3635 39.3393 81.5025 39.2463 81.5952 39.1998C81.6878 39.1533 81.7805 39.0603 81.8732 39.0138C82.0122 38.9208 82.1975 38.8278 82.3365 38.7348C82.4755 38.6418 82.6145 38.5488 82.7535 38.4558C82.8925 38.3628 83.0315 38.2698 83.1705 38.1304C83.3095 38.0374 83.4485 37.9444 83.5412 37.8514C83.6802 37.7584 83.8192 37.6654 83.9582 37.5259C84.0972 37.4329 84.1899 37.3399 84.3289 37.2469C84.4679 37.1539 84.5606 37.0144 84.6996 36.9214C84.7459 36.8749 84.7922 36.8284 84.8386 36.7819C84.8849 36.7354 84.9312 36.6889 84.9776 36.6424C85.1629 36.4565 85.3482 36.2705 85.5336 36.0845C85.5799 36.038 85.6726 35.945 85.7189 35.8985C85.9506 35.666 86.1823 35.387 86.3676 35.108C86.3676 35.108 86.3676 35.108 86.4139 35.0615C86.4603 35.015 86.5066 34.922 86.5529 34.8755C86.6919 34.6896 86.7846 34.5501 86.9236 34.3641C86.9699 34.2711 87.0626 34.1781 87.109 34.0851C87.2016 33.9456 87.2943 33.8061 87.387 33.6201C87.4333 33.5736 87.4333 33.5271 87.4796 33.4806C87.526 33.4341 87.526 33.3411 87.5723 33.2946C87.6186 33.1551 87.7113 33.0621 87.7576 32.9227C87.804 32.8297 87.8503 32.6902 87.8966 32.5972C87.943 32.4577 87.9893 32.3182 88.082 32.2252C88.082 32.1787 88.1283 32.1322 88.1746 32.0392C88.1746 31.9927 88.221 31.9462 88.221 31.8997C88.2673 31.7602 88.3136 31.6672 88.36 31.5277C88.4063 31.4347 88.4063 31.2953 88.4526 31.2023C88.499 31.0628 88.499 30.9698 88.5453 30.8303C88.5453 30.7838 88.5917 30.6908 88.5917 30.6443C88.5917 30.5978 88.5917 30.5513 88.5917 30.5048C88.638 30.3653 88.638 30.2723 88.638 30.1328C88.638 30.0398 88.6843 29.9003 88.6843 29.8073C88.6843 29.6678 88.6843 29.5284 88.7307 29.4354C88.7307 29.3424 88.7307 29.2959 88.7307 29.2029C88.7307 29.1099 88.7307 29.0634 88.7307 28.9704V22.9257C88.8697 23.0652 88.8697 23.2047 88.8697 23.3442Z" fill="url(#paint29_linear_264_12392)"/>
<mask id="mask4_264_12392" style="mask-type:alpha" maskUnits="userSpaceOnUse" x="37" y="8" width="52" height="30">
<path d="M81.3631 12.3242C91.3713 18.0899 91.4177 27.4824 81.4558 33.2945C71.5402 39.0602 55.3695 39.1067 45.4076 33.2945C35.4457 27.4824 35.353 18.1364 45.2686 12.3242C55.1842 6.55858 71.3549 6.55858 81.3631 12.3242Z" fill="url(#paint30_linear_264_12392)"/>
</mask>
<g mask="url(#mask4_264_12392)">
<g filter="url(#filter10_b_264_12392)">
<path d="M81.3631 12.3242C91.3713 18.0899 91.4177 27.4824 81.4558 33.2945C71.5402 39.0602 55.3695 39.1067 45.4076 33.2945C35.4457 27.4824 35.353 18.1364 45.2686 12.3242C55.1842 6.55858 71.3549 6.55858 81.3631 12.3242Z" fill="url(#paint31_linear_264_12392)"/>
</g>
<g filter="url(#filter11_f_264_12392)">
<ellipse cx="52.8761" cy="43.5671" rx="13.3204" ry="5.93092" fill="url(#paint32_linear_264_12392)"/>
</g>
</g>
<path d="M69.9274 18.707L65.6328 21.2838L67.4461 25.1013L72.5997 25.9602L73.1723 25.5784L69.9274 18.707Z" fill="#323129"/>
<path d="M72.5997 25.9605L67.4461 25.1016L60.861 24.0518L56.5664 26.5331L68.4005 28.4418L72.5997 25.9605Z" fill="#222323"/>
<path d="M69.9281 18.7071L58.2849 16.9893L53.9902 19.4706L57.7122 17.371L59.0484 20.2341L65.6335 21.2839L69.9281 18.7071Z" fill="#443829"/>
<path d="M57.7119 17.3711L53.9899 19.4707L53.5127 19.8524L56.5667 26.533L60.8613 24.0516L59.048 20.2342L57.7119 17.3711Z" fill="#222323"/>
<path d="M29.5 39L18.3438 50.4375L18.625 84.875L33.875 76.125L33.25 39H29.5Z" fill="url(#paint33_linear_264_12392)"/>
<path fill-rule="evenodd" clip-rule="evenodd" d="M32.0032 12.226C34.9408 11.6109 35.4503 11.1103 36.0774 8.22656C36.7044 11.1103 37.2531 11.6109 40.1516 12.226H40.1537C40.1533 12.2261 40.153 12.2262 40.1526 12.2262C40.1532 12.2264 40.1538 12.2265 40.1543 12.2266H40.1509C37.2133 12.8417 36.7038 13.3423 36.0767 16.2261C35.4497 13.3423 34.901 12.8417 32.0025 12.2266H32.0004C32.0007 12.2265 32.0011 12.2265 32.0015 12.2264C32.0009 12.2263 32.0003 12.2261 31.9998 12.226H32.0032Z" fill="#F9B45E"/>
<path fill-rule="evenodd" clip-rule="evenodd" d="M23.5015 19.5277C25.6185 19.0844 25.9856 18.7239 26.4374 16.646C26.8892 18.7239 27.2846 19.0844 29.3734 19.5277H29.375C29.3747 19.5277 29.3745 19.5278 29.3742 19.5278C29.3744 19.5279 29.3746 19.5279 29.3748 19.528H29.3735C27.2565 19.9712 26.8894 20.3318 26.4376 22.4097C25.9858 20.3318 25.5904 19.9712 23.5016 19.528H23.5C23.5003 19.5279 23.5005 19.5279 23.5008 19.5278C23.5006 19.5278 23.5004 19.5277 23.5002 19.5277H23.5015Z" fill="#F9B45E"/>
</g>
<defs>
<filter id="filter0_f_264_12392" x="64.8317" y="8.38342" width="71.0322" height="52.6951" filterUnits="userSpaceOnUse" color-interpolation-filters="sRGB">
<feFlood flood-opacity="0" result="BackgroundImageFix"/>
<feBlend mode="normal" in="SourceGraphic" in2="BackgroundImageFix" result="shape"/>
<feGaussianBlur stdDeviation="9.49432" result="effect1_foregroundBlur_264_12392"/>
</filter>
<filter id="filter1_f_264_12392" x="55.8234" y="-1.61658" width="63.0403" height="52.6951" filterUnits="userSpaceOnUse" color-interpolation-filters="sRGB">
<feFlood flood-opacity="0" result="BackgroundImageFix"/>
<feBlend mode="normal" in="SourceGraphic" in2="BackgroundImageFix" result="shape"/>
<feGaussianBlur stdDeviation="9.49432" result="effect1_foregroundBlur_264_12392"/>
</filter>
<filter id="filter2_b_264_12392" x="34.3526" y="19.2056" width="58.078" height="36.6996" filterUnits="userSpaceOnUse" color-interpolation-filters="sRGB">
<feFlood flood-opacity="0" result="BackgroundImageFix"/>
<feGaussianBlur in="BackgroundImage" stdDeviation="1.76585"/>
<feComposite in2="SourceAlpha" operator="in" result="effect1_backgroundBlur_264_12392"/>
<feBlend mode="normal" in="SourceGraphic" in2="effect1_backgroundBlur_264_12392" result="shape"/>
</filter>
<filter id="filter3_f_264_12392" x="24.2521" y="37.0695" width="57.2489" height="42.4699" filterUnits="userSpaceOnUse" color-interpolation-filters="sRGB">
<feFlood flood-opacity="0" result="BackgroundImageFix"/>
<feBlend mode="normal" in="SourceGraphic" in2="BackgroundImageFix" result="shape"/>
<feGaussianBlur stdDeviation="7.65201" result="effect1_foregroundBlur_264_12392"/>
</filter>
<filter id="filter4_b_264_12392" x="34.3526" y="11.837" width="58.078" height="36.6996" filterUnits="userSpaceOnUse" color-interpolation-filters="sRGB">
<feFlood flood-opacity="0" result="BackgroundImageFix"/>
<feGaussianBlur in="BackgroundImage" stdDeviation="1.76585"/>
<feComposite in2="SourceAlpha" operator="in" result="effect1_backgroundBlur_264_12392"/>
<feBlend mode="normal" in="SourceGraphic" in2="effect1_backgroundBlur_264_12392" result="shape"/>
</filter>
<filter id="filter5_f_264_12392" x="24.2521" y="29.7009" width="57.2489" height="42.4699" filterUnits="userSpaceOnUse" color-interpolation-filters="sRGB">
<feFlood flood-opacity="0" result="BackgroundImageFix"/>
<feBlend mode="normal" in="SourceGraphic" in2="BackgroundImageFix" result="shape"/>
<feGaussianBlur stdDeviation="7.65201" result="effect1_foregroundBlur_264_12392"/>
</filter>
<filter id="filter6_b_264_12392" x="67.5215" y="39.1187" width="58.078" height="36.6996" filterUnits="userSpaceOnUse" color-interpolation-filters="sRGB">
<feFlood flood-opacity="0" result="BackgroundImageFix"/>
<feGaussianBlur in="BackgroundImage" stdDeviation="1.76585"/>
<feComposite in2="SourceAlpha" operator="in" result="effect1_backgroundBlur_264_12392"/>
<feBlend mode="normal" in="SourceGraphic" in2="effect1_backgroundBlur_264_12392" result="shape"/>
</filter>
<filter id="filter7_f_264_12392" x="57.4211" y="56.9826" width="57.2489" height="42.4699" filterUnits="userSpaceOnUse" color-interpolation-filters="sRGB">
<feFlood flood-opacity="0" result="BackgroundImageFix"/>
<feBlend mode="normal" in="SourceGraphic" in2="BackgroundImageFix" result="shape"/>
<feGaussianBlur stdDeviation="7.65201" result="effect1_foregroundBlur_264_12392"/>
</filter>
<filter id="filter8_b_264_12392" x="32.7925" y="58.5435" width="58.078" height="36.6996" filterUnits="userSpaceOnUse" color-interpolation-filters="sRGB">
<feFlood flood-opacity="0" result="BackgroundImageFix"/>
<feGaussianBlur in="BackgroundImage" stdDeviation="1.76585"/>
<feComposite in2="SourceAlpha" operator="in" result="effect1_backgroundBlur_264_12392"/>
<feBlend mode="normal" in="SourceGraphic" in2="effect1_backgroundBlur_264_12392" result="shape"/>
</filter>
<filter id="filter9_f_264_12392" x="22.6921" y="76.4074" width="57.2489" height="42.4699" filterUnits="userSpaceOnUse" color-interpolation-filters="sRGB">
<feFlood flood-opacity="0" result="BackgroundImageFix"/>
<feBlend mode="normal" in="SourceGraphic" in2="BackgroundImageFix" result="shape"/>
<feGaussianBlur stdDeviation="7.65201" result="effect1_foregroundBlur_264_12392"/>
</filter>
<filter id="filter10_b_264_12392" x="34.3521" y="4.4683" width="58.078" height="36.6996" filterUnits="userSpaceOnUse" color-interpolation-filters="sRGB">
<feFlood flood-opacity="0" result="BackgroundImageFix"/>
<feGaussianBlur in="BackgroundImage" stdDeviation="1.76585"/>
<feComposite in2="SourceAlpha" operator="in" result="effect1_backgroundBlur_264_12392"/>
<feBlend mode="normal" in="SourceGraphic" in2="effect1_backgroundBlur_264_12392" result="shape"/>
</filter>
<filter id="filter11_f_264_12392" x="24.2516" y="22.3322" width="57.2489" height="42.4699" filterUnits="userSpaceOnUse" color-interpolation-filters="sRGB">
<feFlood flood-opacity="0" result="BackgroundImageFix"/>
<feBlend mode="normal" in="SourceGraphic" in2="BackgroundImageFix" result="shape"/>
<feGaussianBlur stdDeviation="7.65201" result="effect1_foregroundBlur_264_12392"/>
</filter>
<linearGradient id="paint0_linear_264_12392" x1="7.44219" y1="39.2183" x2="7.44219" y2="81" gradientUnits="userSpaceOnUse">
<stop stop-color="#C9975A"/>
<stop offset="1" stop-color="#191818" stop-opacity="0"/>
</linearGradient>
<linearGradient id="paint1_linear_264_12392" x1="22.45" y1="35.4149" x2="22.45" y2="65.5959" gradientUnits="userSpaceOnUse">
<stop stop-color="#C9975A"/>
<stop offset="1" stop-color="#191818" stop-opacity="0"/>
</linearGradient>
<linearGradient id="paint2_linear_264_12392" x1="13.6321" y1="54.0425" x2="13.6321" y2="69.9173" gradientUnits="userSpaceOnUse">
<stop stop-color="#C9975A"/>
<stop offset="1" stop-color="#191818" stop-opacity="0"/>
</linearGradient>
<linearGradient id="paint3_linear_264_12392" x1="13.7188" y1="45.75" x2="13.7188" y2="57.625" gradientUnits="userSpaceOnUse">
<stop stop-color="#C9975A"/>
<stop offset="1" stop-color="#191818" stop-opacity="0"/>
</linearGradient>
<linearGradient id="paint4_linear_264_12392" x1="23.4951" y1="33.7871" x2="23.4951" y2="45.6621" gradientUnits="userSpaceOnUse">
<stop stop-color="#C9975A"/>
<stop offset="1" stop-color="#191818" stop-opacity="0"/>
</linearGradient>
<linearGradient id="paint5_linear_264_12392" x1="95.4422" y1="-0.781738" x2="95.4422" y2="41" gradientUnits="userSpaceOnUse">
<stop stop-color="#C9975A"/>
<stop offset="1" stop-color="#191818" stop-opacity="0"/>
</linearGradient>
<linearGradient id="paint6_linear_264_12392" x1="101.632" y1="14.0425" x2="101.632" y2="29.9173" gradientUnits="userSpaceOnUse">
<stop stop-color="#C9975A"/>
<stop offset="1" stop-color="#191818" stop-opacity="0"/>
</linearGradient>
<linearGradient id="paint7_linear_264_12392" x1="112.41" y1="24.9561" x2="90.3421" y2="33.1691" gradientUnits="userSpaceOnUse">
<stop stop-color="#EDA54D"/>
<stop offset="1" stop-color="#5BEEFF"/>
</linearGradient>
<linearGradient id="paint8_linear_264_12392" x1="95.4099" y1="14.9561" x2="73.3419" y2="23.1691" gradientUnits="userSpaceOnUse">
<stop stop-color="#EDA54D"/>
<stop offset="1" stop-color="#5BEEFF"/>
</linearGradient>
<linearGradient id="paint9_linear_264_12392" x1="110.719" y1="5.75" x2="110.719" y2="17.625" gradientUnits="userSpaceOnUse">
<stop stop-color="#C9975A"/>
<stop offset="1" stop-color="#191818" stop-opacity="0"/>
</linearGradient>
<linearGradient id="paint10_linear_264_12392" x1="120.5" y1="43.096" x2="120.5" y2="65.5665" gradientUnits="userSpaceOnUse">
<stop stop-color="#C9975A"/>
<stop offset="1" stop-color="#191818" stop-opacity="0"/>
</linearGradient>
<linearGradient id="paint11_linear_264_12392" x1="114.25" y1="-1" x2="114.25" y2="34.7569" gradientUnits="userSpaceOnUse">
<stop stop-color="#C9975A"/>
<stop offset="1" stop-color="#191818" stop-opacity="0"/>
</linearGradient>
<linearGradient id="paint12_linear_264_12392" x1="138.353" y1="27.25" x2="138.353" y2="50.5358" gradientUnits="userSpaceOnUse">
<stop stop-color="#C9975A"/>
<stop offset="1" stop-color="#191818" stop-opacity="0"/>
</linearGradient>
<linearGradient id="paint13_linear_264_12392" x1="86.5804" y1="41.439" x2="39.8394" y2="47.9854" gradientUnits="userSpaceOnUse">
<stop stop-color="#121212"/>
<stop offset="1" stop-color="#222323"/>
</linearGradient>
<linearGradient id="paint14_linear_264_12392" x1="63.3915" y1="22.7373" x2="63.3915" y2="52.3735" gradientUnits="userSpaceOnUse">
<stop stop-color="#1C1B1A" stop-opacity="0.79"/>
<stop offset="1" stop-color="#1C1B1A"/>
</linearGradient>
<linearGradient id="paint15_linear_264_12392" x1="63.3915" y1="22.7373" x2="63.3915" y2="52.3735" gradientUnits="userSpaceOnUse">
<stop stop-color="#1C1B1A" stop-opacity="0.79"/>
<stop offset="1" stop-color="#1C1B1A"/>
</linearGradient>
<linearGradient id="paint16_linear_264_12392" x1="62.5983" y1="50.4264" x2="47.2184" y2="52.3735" gradientUnits="userSpaceOnUse">
<stop stop-color="#EDA54D"/>
<stop offset="1" stop-color="#96EFF9"/>
</linearGradient>
<linearGradient id="paint17_linear_264_12392" x1="86.5804" y1="34.0704" x2="39.8394" y2="40.6168" gradientUnits="userSpaceOnUse">
<stop stop-color="#121212"/>
<stop offset="1" stop-color="#222323"/>
</linearGradient>
<linearGradient id="paint18_linear_264_12392" x1="63.3915" y1="15.3687" x2="63.3915" y2="45.0049" gradientUnits="userSpaceOnUse">
<stop stop-color="#1C1B1A" stop-opacity="0.79"/>
<stop offset="1" stop-color="#1C1B1A"/>
</linearGradient>
<linearGradient id="paint19_linear_264_12392" x1="63.3915" y1="15.3687" x2="63.3915" y2="45.0049" gradientUnits="userSpaceOnUse">
<stop stop-color="#1C1B1A" stop-opacity="0.79"/>
<stop offset="1" stop-color="#1C1B1A"/>
</linearGradient>
<linearGradient id="paint20_linear_264_12392" x1="62.5983" y1="43.0577" x2="47.2184" y2="45.0049" gradientUnits="userSpaceOnUse">
<stop stop-color="#EDA54D"/>
<stop offset="1" stop-color="#96EFF9"/>
</linearGradient>
<linearGradient id="paint21_linear_264_12392" x1="119.749" y1="61.3521" x2="73.0083" y2="67.8985" gradientUnits="userSpaceOnUse">
<stop stop-color="#121212"/>
<stop offset="1" stop-color="#222323"/>
</linearGradient>
<linearGradient id="paint22_linear_264_12392" x1="96.5605" y1="42.6504" x2="96.5605" y2="72.2866" gradientUnits="userSpaceOnUse">
<stop stop-color="#1C1B1A" stop-opacity="0.79"/>
<stop offset="1" stop-color="#1C1B1A"/>
</linearGradient>
<linearGradient id="paint23_linear_264_12392" x1="96.5605" y1="42.6504" x2="96.5605" y2="72.2866" gradientUnits="userSpaceOnUse">
<stop stop-color="#1C1B1A" stop-opacity="0.79"/>
<stop offset="1" stop-color="#1C1B1A"/>
</linearGradient>
<linearGradient id="paint24_linear_264_12392" x1="95.7672" y1="70.3394" x2="80.3873" y2="72.2866" gradientUnits="userSpaceOnUse">
<stop stop-color="#EDA54D"/>
<stop offset="1" stop-color="#96EFF9"/>
</linearGradient>
<linearGradient id="paint25_linear_264_12392" x1="85.0209" y1="80.7769" x2="38.2798" y2="87.3233" gradientUnits="userSpaceOnUse">
<stop stop-color="#121212"/>
<stop offset="1" stop-color="#222323"/>
</linearGradient>
<linearGradient id="paint26_linear_264_12392" x1="61.8315" y1="62.0752" x2="61.8315" y2="91.7114" gradientUnits="userSpaceOnUse">
<stop stop-color="#1C1B1A" stop-opacity="0.79"/>
<stop offset="1" stop-color="#1C1B1A"/>
</linearGradient>
<linearGradient id="paint27_linear_264_12392" x1="61.8315" y1="62.0752" x2="61.8315" y2="91.7114" gradientUnits="userSpaceOnUse">
<stop stop-color="#1C1B1A" stop-opacity="0.79"/>
<stop offset="1" stop-color="#1C1B1A"/>
</linearGradient>
<linearGradient id="paint28_linear_264_12392" x1="61.0382" y1="89.7643" x2="45.6583" y2="91.7114" gradientUnits="userSpaceOnUse">
<stop stop-color="#EDA54D"/>
<stop offset="1" stop-color="#96EFF9"/>
</linearGradient>
<linearGradient id="paint29_linear_264_12392" x1="86.5804" y1="26.7017" x2="39.8394" y2="33.2481" gradientUnits="userSpaceOnUse">
<stop stop-color="#121212"/>
<stop offset="1" stop-color="#222323"/>
</linearGradient>
<linearGradient id="paint30_linear_264_12392" x1="63.3911" y1="8" x2="63.3911" y2="37.6362" gradientUnits="userSpaceOnUse">
<stop stop-color="#1C1B1A" stop-opacity="0.79"/>
<stop offset="1" stop-color="#1C1B1A"/>
</linearGradient>
<linearGradient id="paint31_linear_264_12392" x1="63.3911" y1="8" x2="63.3911" y2="37.6362" gradientUnits="userSpaceOnUse">
<stop stop-color="#1C1B1A" stop-opacity="0.79"/>
<stop offset="1" stop-color="#1C1B1A"/>
</linearGradient>
<linearGradient id="paint32_linear_264_12392" x1="62.5978" y1="35.6891" x2="47.2179" y2="37.6362" gradientUnits="userSpaceOnUse">
<stop stop-color="#EDA54D"/>
<stop offset="1" stop-color="#96EFF9"/>
</linearGradient>
<linearGradient id="paint33_linear_264_12392" x1="26.25" y1="39" x2="26.25" y2="74.7569" gradientUnits="userSpaceOnUse">
<stop stop-color="#C9975A"/>
<stop offset="1" stop-color="#191818" stop-opacity="0"/>
</linearGradient>
<clipPath id="clip0_264_12392">
<rect width="154" height="100" fill="white"/>
</clipPath>
</defs>
</svg>
