<svg width="48" height="48" viewBox="0 0 48 48" fill="none" xmlns="http://www.w3.org/2000/svg">
<g clip-path="url(#clip0)">
<ellipse cx="23.7419" cy="23.7419" rx="23.7419" ry="23.7419" fill="black"/>
<path fill-rule="evenodd" clip-rule="evenodd" d="M31.0859 26.5273C37.3699 27.4566 41.7543 29.5584 41.7543 32.0024C41.7543 35.3074 33.736 37.9867 23.8449 37.9867C13.9538 37.9867 5.93555 35.3074 5.93555 32.0024C5.93555 29.5584 10.32 27.4566 16.6039 26.5273C18.7623 26.9663 21.2273 27.2149 23.8449 27.2149C26.3968 27.2149 28.8038 26.9786 30.923 26.5603L31.0859 26.5273Z" fill="white"/>
<path fill-rule="evenodd" clip-rule="evenodd" d="M28.3777 16.6885C34.0691 17.3222 38.1726 19.1167 38.1726 21.2314C38.1726 23.8755 31.7579 26.0189 23.8451 26.0189C15.9322 26.0189 9.51758 23.8755 9.51758 21.2314C9.51758 19.1167 13.621 17.3222 19.3124 16.6885C20.7065 16.9164 22.2379 17.0424 23.8451 17.0424C25.396 17.0424 26.8764 16.9251 28.2309 16.7121L28.3777 16.6885Z" fill="white"/>
<path d="M23.8447 16.0845C29.7794 16.0845 34.5904 14.477 34.5904 12.4939C34.5904 10.5109 29.7794 8.90332 23.8447 8.90332C17.9101 8.90332 13.0991 10.5109 13.0991 12.4939C13.0991 14.477 17.9101 16.0845 23.8447 16.0845Z" fill="white"/>
</g>
<defs>
<clipPath id="clip0">
<rect width="47.4839" height="48" fill="white"/>
</clipPath>
</defs>
</svg>
