<svg width="100%" height="100%" viewBox="0 0 748 900" fill="none" xmlns="http://www.w3.org/2000/svg">
<g opacity="0.35" clip-path="url(#clip0_7:0)" transform="scale(1, 1)">
<path d="M557.851 721.54L68.8164 338.101L192.418 -282.54L682.908 114.577L557.851 721.54Z" stroke="url(#paint0_linear_7:0)" stroke-miterlimit="10" stroke-linecap="round" stroke-linejoin="round"/>
<path d="M594.232 689.489L88.8086 360.019L155.839 -250.714L663.826 91.8621L594.232 689.489Z" stroke="url(#paint1_linear_7:0)" stroke-miterlimit="10" stroke-linecap="round" stroke-linejoin="round"/>
<path d="M626.709 655.407L109.994 379.52L123.151 -216.835L643.457 71.5089L626.709 655.407Z" stroke="url(#paint2_linear_7:0)" stroke-miterlimit="10" stroke-linecap="round" stroke-linejoin="round"/>
<path d="M655.237 619.701L132.141 396.596L94.4023 -181.304L622.028 53.5499L655.237 619.701Z" stroke="url(#paint3_linear_7:0)" stroke-miterlimit="10" stroke-linecap="round" stroke-linejoin="round"/>
<path d="M679.804 582.747L155.001 411.231L69.6074 -144.506L599.783 37.9895L679.804 582.747Z" stroke="url(#paint4_linear_7:0)" stroke-miterlimit="10" stroke-linecap="round" stroke-linejoin="round"/>
<path d="M700.442 544.932L178.35 423.454L48.7363 -106.82L576.955 24.8229L700.442 544.932Z" stroke="url(#paint5_linear_7:0)" stroke-miterlimit="10" stroke-linecap="round" stroke-linejoin="round"/>
<path d="M717.203 506.606L201.965 433.301L31.7402 -68.6003L553.759 14.0225L717.203 506.606Z" stroke="url(#paint6_linear_7:0)" stroke-miterlimit="10" stroke-linecap="round" stroke-linejoin="round"/>
<path d="M730.171 468.124L225.641 440.824L18.5332 -30.2007L530.41 5.53795L730.171 468.124Z" stroke="url(#paint7_linear_7:0)" stroke-miterlimit="10" stroke-linecap="round" stroke-linejoin="round"/>
<path d="M739.456 429.807L249.174 446.1L9.00879 8.06069L507.112 -0.695557L739.456 429.807Z" stroke="url(#paint8_linear_7:0)" stroke-miterlimit="10" stroke-linecap="round" stroke-linejoin="round"/>
<path d="M745.192 391.964L272.379 449.207L3.03809 45.8664L484.049 -4.74683L745.192 391.964Z" stroke="url(#paint9_linear_7:0)" stroke-miterlimit="10" stroke-linecap="round" stroke-linejoin="round"/>
<path d="M747.539 354.872L295.093 450.247L0.459961 82.9401L461.405 -6.71729L747.539 354.872Z" stroke="url(#paint10_linear_7:0)" stroke-miterlimit="10" stroke-linecap="round" stroke-linejoin="round"/>
<path d="M746.674 318.802L317.143 449.336L1.10449 119.015L439.331 -6.70801L746.674 318.802Z" stroke="url(#paint11_linear_7:0)" stroke-miterlimit="10" stroke-linecap="round" stroke-linejoin="round"/>
<path d="M742.784 283.989L338.393 446.588L4.77832 153.851L417.986 -4.82959L742.784 283.989Z" stroke="url(#paint12_linear_7:0)" stroke-miterlimit="10" stroke-linecap="round" stroke-linejoin="round"/>
<path d="M736.072 250.649L358.716 442.131L11.2822 187.233L397.5 -1.20654L736.072 250.649Z" stroke="url(#paint13_linear_7:0)" stroke-miterlimit="10" stroke-linecap="round" stroke-linejoin="round"/>
<path d="M726.764 218.971L377.991 436.1L20.3926 218.971L377.991 4.03247L726.764 218.971Z" stroke="url(#paint14_linear_7:0)" stroke-miterlimit="10" stroke-linecap="round" stroke-linejoin="round"/>
<path d="M715.08 189.12L396.128 428.638L31.8916 248.895L359.567 10.7493L715.08 189.12Z" stroke="url(#paint15_linear_7:0)" stroke-miterlimit="10" stroke-linecap="round" stroke-linejoin="round"/>
<path d="M701.252 161.235L413.032 419.881L45.5459 276.862L342.319 18.8057L701.252 161.235Z" stroke="url(#paint16_linear_7:0)" stroke-miterlimit="10" stroke-linecap="round" stroke-linejoin="round"/>
<path d="M685.522 135.441L428.647 409.988L61.1191 302.758L326.313 28.0547L685.522 135.441Z" stroke="url(#paint17_linear_7:0)" stroke-miterlimit="10" stroke-linecap="round" stroke-linejoin="round"/>
<path d="M668.121 111.819L442.908 399.091L78.3682 326.486L311.619 38.3577L668.121 111.819Z" stroke="url(#paint18_linear_7:0)" stroke-miterlimit="10" stroke-linecap="round" stroke-linejoin="round"/>
<path d="M649.298 90.4486L455.779 387.351L97.0625 347.971L298.278 49.563L649.298 90.4486Z" stroke="url(#paint19_linear_7:0)" stroke-miterlimit="10" stroke-linecap="round" stroke-linejoin="round"/>
<path d="M629.278 71.3708L467.238 374.903L116.959 367.173L286.323 61.5327L629.278 71.3708Z" stroke="url(#paint20_linear_7:0)" stroke-miterlimit="10" stroke-linecap="round" stroke-linejoin="round"/>
<path d="M608.304 54.6089L477.263 361.898L137.83 384.065L275.771 74.1194L608.304 54.6089Z" stroke="url(#paint21_linear_7:0)" stroke-miterlimit="10" stroke-linecap="round" stroke-linejoin="round"/>
<path d="M586.604 40.1763L485.862 348.469L159.443 398.631L266.634 87.1848L586.604 40.1763Z" stroke="url(#paint22_linear_7:0)" stroke-miterlimit="10" stroke-linecap="round" stroke-linejoin="round"/>
<path d="M564.387 28.0547L493.039 334.749L181.581 410.89L258.9 100.595L564.387 28.0547Z" stroke="url(#paint23_linear_7:0)" stroke-miterlimit="10" stroke-linecap="round" stroke-linejoin="round"/>
<path d="M541.881 18.2119L498.821 320.879L204.027 420.876L252.557 114.222L541.881 18.2119Z" stroke="url(#paint24_linear_7:0)" stroke-miterlimit="10" stroke-linecap="round" stroke-linejoin="round"/>
<path d="M519.279 10.5928L503.24 306.971L226.584 428.633L247.571 127.937L519.279 10.5928Z" stroke="url(#paint25_linear_7:0)" stroke-miterlimit="10" stroke-linecap="round" stroke-linejoin="round"/>
<path d="M496.773 5.13745L506.339 293.146L249.054 434.227L243.912 141.624L496.773 5.13745Z" stroke="url(#paint26_linear_7:0)" stroke-miterlimit="10" stroke-linecap="round" stroke-linejoin="round"/>
<path d="M474.542 1.76733L508.166 279.514L271.26 437.735L241.531 155.172L474.542 1.76733Z" stroke="url(#paint27_linear_7:0)" stroke-miterlimit="10" stroke-linecap="round" stroke-linejoin="round"/>
<path d="M452.759 0.390869L508.778 266.172L293.039 439.249L240.376 168.477L452.759 0.390869Z" stroke="url(#paint28_linear_7:0)" stroke-miterlimit="10" stroke-linecap="round" stroke-linejoin="round"/>
<path d="M431.575 0.897217L508.24 253.218L314.224 438.872L240.381 181.441L431.575 0.897217Z" stroke="url(#paint29_linear_7:0)" stroke-miterlimit="10" stroke-linecap="round" stroke-linejoin="round"/>
<path d="M411.126 3.1853L506.628 240.737L334.686 436.712L241.485 193.982L411.126 3.1853Z" stroke="url(#paint30_linear_7:0)" stroke-miterlimit="10" stroke-linecap="round" stroke-linejoin="round"/>
<path d="M391.543 7.12622L504.009 228.8L354.297 432.891L243.612 206.016L391.543 7.12622Z" stroke="url(#paint31_linear_7:0)" stroke-miterlimit="10" stroke-linecap="round" stroke-linejoin="round"/>
<path d="M372.936 12.5955L500.469 217.475L372.936 427.537L246.688 217.475L372.936 12.5955Z" stroke="url(#paint32_linear_7:0)" stroke-miterlimit="10" stroke-linecap="round" stroke-linejoin="round"/>
<path d="M355.402 19.4595L496.083 206.821L390.513 420.784L250.638 228.298L355.402 19.4595Z" stroke="url(#paint33_linear_7:0)" stroke-miterlimit="10" stroke-linecap="round" stroke-linejoin="round"/>
<path d="M339.023 27.5806L490.941 196.891L406.937 412.764L255.365 238.431L339.023 27.5806Z" stroke="url(#paint34_linear_7:0)" stroke-miterlimit="10" stroke-linecap="round" stroke-linejoin="round"/>
<path d="M323.873 36.8201L485.131 187.716L422.147 403.616L260.802 247.831L323.873 36.8201Z" stroke="url(#paint35_linear_7:0)" stroke-miterlimit="10" stroke-linecap="round" stroke-linejoin="round"/>
<path d="M309.998 47.0403L478.732 179.342L436.086 393.484L266.851 256.463L309.998 47.0403Z" stroke="url(#paint36_linear_7:0)" stroke-miterlimit="10" stroke-linecap="round" stroke-linejoin="round"/>
<path d="M297.445 58.103L471.832 171.778L448.704 382.499L273.434 264.299L297.445 58.103Z" stroke="url(#paint37_linear_7:0)" stroke-miterlimit="10" stroke-linecap="round" stroke-linejoin="round"/>
<path d="M286.24 69.8608L464.521 165.047L459.982 370.81L280.463 271.324L286.24 69.8608Z" stroke="url(#paint38_linear_7:0)" stroke-miterlimit="10" stroke-linecap="round" stroke-linejoin="round"/>
<path d="M276.398 82.1804L456.885 159.159L469.903 358.551L287.856 277.521L276.398 82.1804Z" stroke="url(#paint39_linear_7:0)" stroke-miterlimit="10" stroke-linecap="round" stroke-linejoin="round"/>
<path d="M267.919 94.9282L448.994 154.109L478.461 345.858L295.53 282.889L267.919 94.9282Z" stroke="url(#paint40_linear_7:0)" stroke-miterlimit="10" stroke-linecap="round" stroke-linejoin="round"/>
<path d="M260.802 107.98L440.938 149.892L485.66 332.853L303.406 287.432L260.802 107.98Z" stroke="url(#paint41_linear_7:0)" stroke-miterlimit="10" stroke-linecap="round" stroke-linejoin="round"/>
<path d="M255.015 121.202L432.789 146.494L491.524 319.668L311.411 291.157L255.015 121.202Z" stroke="url(#paint42_linear_7:0)" stroke-miterlimit="10" stroke-linecap="round" stroke-linejoin="round"/>
<path d="M250.545 134.479L424.623 143.898L496.082 306.418L319.467 294.085L250.545 134.479Z" stroke="url(#paint43_linear_7:0)" stroke-miterlimit="10" stroke-linecap="round" stroke-linejoin="round"/>
<path d="M247.341 147.7L416.503 142.079L499.364 293.215L327.505 296.235L247.341 147.7Z" stroke="url(#paint44_linear_7:0)" stroke-miterlimit="10" stroke-linecap="round" stroke-linejoin="round"/>
<path d="M245.361 160.757L408.493 141.007L501.426 280.173L335.464 297.634L245.361 160.757Z" stroke="url(#paint45_linear_7:0)" stroke-miterlimit="10" stroke-linecap="round" stroke-linejoin="round"/>
<path d="M244.552 173.555L400.658 140.648L502.315 267.379L343.277 298.316L244.552 173.555Z" stroke="url(#paint46_linear_7:0)" stroke-miterlimit="10" stroke-linecap="round" stroke-linejoin="round"/>
<path d="M244.851 185.999L393.048 140.961L502.094 254.93L350.89 298.311L244.851 185.999Z" stroke="url(#paint47_linear_7:0)" stroke-miterlimit="10" stroke-linecap="round" stroke-linejoin="round"/>
<path d="M246.19 198.01L385.72 141.909L500.828 242.91L358.256 297.662L246.19 198.01Z" stroke="url(#paint48_linear_7:0)" stroke-miterlimit="10" stroke-linecap="round" stroke-linejoin="round"/>
<path d="M248.506 209.515L378.709 143.447L498.582 231.396L365.327 296.414L248.506 209.515Z" stroke="url(#paint49_linear_7:0)" stroke-miterlimit="10" stroke-linecap="round" stroke-linejoin="round"/>
<path d="M251.719 220.444L372.057 145.528L495.437 220.444L372.057 294.605L251.719 220.444Z" stroke="url(#paint50_linear_7:0)" stroke-miterlimit="10" stroke-linecap="round" stroke-linejoin="round"/>
</g>
<path d="M372.317 180L416 206.448V232.897L372.317 206.448V180Z" fill="url(#paint51_linear_7:0)"/>
<path d="M372.317 259.175L416 232.897V206.619L372.317 232.897V259.175Z" fill="url(#paint52_linear_7:0)"/>
<path d="M372.318 180L330 206.448V232.897L372.318 206.448V180Z" fill="url(#paint53_linear_7:0)"/>
<path d="M372.318 259.175L330 232.897V206.619L372.318 232.897V259.175Z" fill="url(#paint54_linear_7:0)"/>
<defs>
<linearGradient id="paint0_linear_7:0" x1="556.969" y1="724" x2="190.111" y2="-283.85" gradientUnits="userSpaceOnUse">
<stop offset="0.000556277" stop-color="#B58A58"/>
<stop offset="0.4779" stop-color="#7B6449"/>
<stop offset="1" stop-color="#383838"/>
</linearGradient>
<linearGradient id="paint1_linear_7:0" x1="593.57" y1="691.931" x2="153.462" y2="-251.788" gradientUnits="userSpaceOnUse">
<stop offset="0.000556277" stop-color="#B58A58"/>
<stop offset="0.4779" stop-color="#7B6449"/>
<stop offset="1" stop-color="#383838"/>
</linearGradient>
<linearGradient id="paint2_linear_7:0" x1="626.298" y1="657.857" x2="120.796" y2="-217.645" gradientUnits="userSpaceOnUse">
<stop offset="0.000556277" stop-color="#B58A58"/>
<stop offset="0.4779" stop-color="#7B6449"/>
<stop offset="1" stop-color="#383838"/>
</linearGradient>
<linearGradient id="paint3_linear_7:0" x1="655.086" y1="622.083" x2="92.093" y2="-181.924" gradientUnits="userSpaceOnUse">
<stop offset="0.000556277" stop-color="#B58A58"/>
<stop offset="0.4779" stop-color="#7B6449"/>
<stop offset="1" stop-color="#383838"/>
</linearGradient>
<linearGradient id="paint4_linear_7:0" x1="679.839" y1="585.054" x2="67.2838" y2="-144.915" gradientUnits="userSpaceOnUse">
<stop offset="0.000556277" stop-color="#B58A58"/>
<stop offset="0.4779" stop-color="#7B6449"/>
<stop offset="1" stop-color="#383838"/>
</linearGradient>
<linearGradient id="paint5_linear_7:0" x1="700.666" y1="547.166" x2="46.4521" y2="-107.005" gradientUnits="userSpaceOnUse">
<stop offset="0.000556277" stop-color="#B58A58"/>
<stop offset="0.4779" stop-color="#7B6449"/>
<stop offset="1" stop-color="#383838"/>
</linearGradient>
<linearGradient id="paint6_linear_7:0" x1="717.622" y1="508.746" x2="29.5314" y2="-68.6015" gradientUnits="userSpaceOnUse">
<stop offset="0.000556277" stop-color="#B58A58"/>
<stop offset="0.4779" stop-color="#7B6449"/>
<stop offset="1" stop-color="#383838"/>
</linearGradient>
<linearGradient id="paint7_linear_7:0" x1="730.725" y1="470.166" x2="16.3657" y2="-29.9924" gradientUnits="userSpaceOnUse">
<stop offset="0.000556277" stop-color="#B58A58"/>
<stop offset="0.4779" stop-color="#7B6449"/>
<stop offset="1" stop-color="#383838"/>
</linearGradient>
<linearGradient id="paint8_linear_7:0" x1="740.144" y1="431.724" x2="6.90515" y2="8.43495" gradientUnits="userSpaceOnUse">
<stop offset="0.000556277" stop-color="#B58A58"/>
<stop offset="0.4779" stop-color="#7B6449"/>
<stop offset="1" stop-color="#383838"/>
</linearGradient>
<linearGradient id="paint9_linear_7:0" x1="746.082" y1="393.757" x2="1.10658" y2="46.3805" gradientUnits="userSpaceOnUse">
<stop offset="0.000556277" stop-color="#B58A58"/>
<stop offset="0.4779" stop-color="#7B6449"/>
<stop offset="1" stop-color="#383838"/>
</linearGradient>
<linearGradient id="paint10_linear_7:0" x1="748.542" y1="356.548" x2="-1.36885" y2="83.615" gradientUnits="userSpaceOnUse">
<stop offset="0.000556277" stop-color="#B58A58"/>
<stop offset="0.4779" stop-color="#7B6449"/>
<stop offset="1" stop-color="#383838"/>
</linearGradient>
<linearGradient id="paint11_linear_7:0" x1="747.781" y1="320.341" x2="-0.607676" y2="119.819" gradientUnits="userSpaceOnUse">
<stop offset="0.000556277" stop-color="#B58A58"/>
<stop offset="0.4779" stop-color="#7B6449"/>
<stop offset="1" stop-color="#383838"/>
</linearGradient>
<linearGradient id="paint12_linear_7:0" x1="743.952" y1="285.374" x2="3.15036" y2="154.768" gradientUnits="userSpaceOnUse">
<stop offset="0.000556277" stop-color="#B58A58"/>
<stop offset="0.4779" stop-color="#7B6449"/>
<stop offset="1" stop-color="#383838"/>
</linearGradient>
<linearGradient id="paint13_linear_7:0" x1="737.346" y1="251.872" x2="9.80574" y2="188.22" gradientUnits="userSpaceOnUse">
<stop offset="0.000556277" stop-color="#B58A58"/>
<stop offset="0.4779" stop-color="#7B6449"/>
<stop offset="1" stop-color="#383838"/>
</linearGradient>
<linearGradient id="paint14_linear_7:0" x1="728.092" y1="220.055" x2="19.0481" y2="220.055" gradientUnits="userSpaceOnUse">
<stop offset="0.000556277" stop-color="#B58A58"/>
<stop offset="0.4779" stop-color="#7B6449"/>
<stop offset="1" stop-color="#383838"/>
</linearGradient>
<linearGradient id="paint15_linear_7:0" x1="716.473" y1="190.032" x2="30.6933" y2="250.014" gradientUnits="userSpaceOnUse">
<stop offset="0.000556277" stop-color="#B58A58"/>
<stop offset="0.4779" stop-color="#7B6449"/>
<stop offset="1" stop-color="#383838"/>
</linearGradient>
<linearGradient id="paint16_linear_7:0" x1="702.666" y1="162.038" x2="44.4801" y2="278.089" gradientUnits="userSpaceOnUse">
<stop offset="0.000556277" stop-color="#B58A58"/>
<stop offset="0.4779" stop-color="#7B6449"/>
<stop offset="1" stop-color="#383838"/>
</linearGradient>
<linearGradient id="paint17_linear_7:0" x1="686.936" y1="136.077" x2="60.1595" y2="304.014" gradientUnits="userSpaceOnUse">
<stop offset="0.000556277" stop-color="#B58A58"/>
<stop offset="0.4779" stop-color="#7B6449"/>
<stop offset="1" stop-color="#383838"/>
</linearGradient>
<linearGradient id="paint18_linear_7:0" x1="669.58" y1="112.313" x2="77.5879" y2="327.758" gradientUnits="userSpaceOnUse">
<stop offset="0.000556277" stop-color="#B58A58"/>
<stop offset="0.4779" stop-color="#7B6449"/>
<stop offset="1" stop-color="#383838"/>
</linearGradient>
<linearGradient id="paint19_linear_7:0" x1="650.738" y1="90.8425" x2="96.4168" y2="349.32" gradientUnits="userSpaceOnUse">
<stop offset="0.000556277" stop-color="#B58A58"/>
<stop offset="0.4779" stop-color="#7B6449"/>
<stop offset="1" stop-color="#383838"/>
</linearGradient>
<linearGradient id="paint20_linear_7:0" x1="630.714" y1="71.5818" x2="116.437" y2="368.469" gradientUnits="userSpaceOnUse">
<stop offset="0.000556277" stop-color="#B58A58"/>
<stop offset="0.4779" stop-color="#7B6449"/>
<stop offset="1" stop-color="#383838"/>
</linearGradient>
<linearGradient id="paint21_linear_7:0" x1="609.686" y1="54.7183" x2="137.41" y2="385.393" gradientUnits="userSpaceOnUse">
<stop offset="0.000556277" stop-color="#B58A58"/>
<stop offset="0.4779" stop-color="#7B6449"/>
<stop offset="1" stop-color="#383838"/>
</linearGradient>
<linearGradient id="paint22_linear_7:0" x1="587.928" y1="40.1527" x2="159.122" y2="399.943" gradientUnits="userSpaceOnUse">
<stop offset="0.000556277" stop-color="#B58A58"/>
<stop offset="0.4779" stop-color="#7B6449"/>
<stop offset="1" stop-color="#383838"/>
</linearGradient>
<linearGradient id="paint23_linear_7:0" x1="565.697" y1="27.9232" x2="181.414" y2="412.182" gradientUnits="userSpaceOnUse">
<stop offset="0.000556277" stop-color="#B58A58"/>
<stop offset="0.4779" stop-color="#7B6449"/>
<stop offset="1" stop-color="#383838"/>
</linearGradient>
<linearGradient id="paint24_linear_7:0" x1="543.173" y1="17.9778" x2="204.025" y2="422.13" gradientUnits="userSpaceOnUse">
<stop offset="0.000556277" stop-color="#B58A58"/>
<stop offset="0.4779" stop-color="#7B6449"/>
<stop offset="1" stop-color="#383838"/>
</linearGradient>
<linearGradient id="paint25_linear_7:0" x1="520.5" y1="10.273" x2="226.685" y2="429.867" gradientUnits="userSpaceOnUse">
<stop offset="0.000556277" stop-color="#B58A58"/>
<stop offset="0.4779" stop-color="#7B6449"/>
<stop offset="1" stop-color="#383838"/>
</linearGradient>
<linearGradient id="paint26_linear_7:0" x1="497.88" y1="4.72349" x2="249.203" y2="435.429" gradientUnits="userSpaceOnUse">
<stop offset="0.000556277" stop-color="#B58A58"/>
<stop offset="0.4779" stop-color="#7B6449"/>
<stop offset="1" stop-color="#383838"/>
</linearGradient>
<linearGradient id="paint27_linear_7:0" x1="475.584" y1="1.2524" x2="271.507" y2="438.861" gradientUnits="userSpaceOnUse">
<stop offset="0.000556277" stop-color="#B58A58"/>
<stop offset="0.4779" stop-color="#7B6449"/>
<stop offset="1" stop-color="#383838"/>
</linearGradient>
<linearGradient id="paint28_linear_7:0" x1="453.776" y1="-0.181374" x2="293.445" y2="440.317" gradientUnits="userSpaceOnUse">
<stop offset="0.000556277" stop-color="#B58A58"/>
<stop offset="0.4779" stop-color="#7B6449"/>
<stop offset="1" stop-color="#383838"/>
</linearGradient>
<linearGradient id="paint29_linear_7:0" x1="432.472" y1="0.241181" x2="314.663" y2="439.862" gradientUnits="userSpaceOnUse">
<stop offset="0.000556277" stop-color="#B58A58"/>
<stop offset="0.4779" stop-color="#7B6449"/>
<stop offset="1" stop-color="#383838"/>
</linearGradient>
<linearGradient id="paint30_linear_7:0" x1="411.934" y1="2.50465" x2="335.205" y2="437.675" gradientUnits="userSpaceOnUse">
<stop offset="0.000556277" stop-color="#B58A58"/>
<stop offset="0.4779" stop-color="#7B6449"/>
<stop offset="1" stop-color="#383838"/>
</linearGradient>
<linearGradient id="paint31_linear_7:0" x1="392.296" y1="6.38438" x2="354.91" y2="433.751" gradientUnits="userSpaceOnUse">
<stop offset="0.000556277" stop-color="#B58A58"/>
<stop offset="0.4779" stop-color="#7B6449"/>
<stop offset="1" stop-color="#383838"/>
</linearGradient>
<linearGradient id="paint32_linear_7:0" x1="373.595" y1="11.8018" x2="373.595" y2="428.306" gradientUnits="userSpaceOnUse">
<stop offset="0.000556277" stop-color="#B58A58"/>
<stop offset="0.4779" stop-color="#7B6449"/>
<stop offset="1" stop-color="#383838"/>
</linearGradient>
<linearGradient id="paint33_linear_7:0" x1="355.948" y1="18.6782" x2="391.206" y2="421.53" gradientUnits="userSpaceOnUse">
<stop offset="0.000556277" stop-color="#B58A58"/>
<stop offset="0.4779" stop-color="#7B6449"/>
<stop offset="1" stop-color="#383838"/>
</linearGradient>
<linearGradient id="paint34_linear_7:0" x1="339.519" y1="26.7632" x2="407.709" y2="413.394" gradientUnits="userSpaceOnUse">
<stop offset="0.000556277" stop-color="#B58A58"/>
<stop offset="0.4779" stop-color="#7B6449"/>
<stop offset="1" stop-color="#383838"/>
</linearGradient>
<linearGradient id="paint35_linear_7:0" x1="324.238" y1="35.9651" x2="422.889" y2="404.147" gradientUnits="userSpaceOnUse">
<stop offset="0.000556277" stop-color="#B58A58"/>
<stop offset="0.4779" stop-color="#7B6449"/>
<stop offset="1" stop-color="#383838"/>
</linearGradient>
<linearGradient id="paint36_linear_7:0" x1="310.273" y1="46.1816" x2="436.841" y2="393.932" gradientUnits="userSpaceOnUse">
<stop offset="0.000556277" stop-color="#B58A58"/>
<stop offset="0.4779" stop-color="#7B6449"/>
<stop offset="1" stop-color="#383838"/>
</linearGradient>
<linearGradient id="paint37_linear_7:0" x1="297.678" y1="57.2281" x2="449.518" y2="382.835" gradientUnits="userSpaceOnUse">
<stop offset="0.000556277" stop-color="#B58A58"/>
<stop offset="0.4779" stop-color="#7B6449"/>
<stop offset="1" stop-color="#383838"/>
</linearGradient>
<linearGradient id="paint38_linear_7:0" x1="286.406" y1="69.02" x2="460.828" y2="371.089" gradientUnits="userSpaceOnUse">
<stop offset="0.000556277" stop-color="#B58A58"/>
<stop offset="0.4779" stop-color="#7B6449"/>
<stop offset="1" stop-color="#383838"/>
</linearGradient>
<linearGradient id="paint39_linear_7:0" x1="276.469" y1="81.3767" x2="470.731" y2="358.782" gradientUnits="userSpaceOnUse">
<stop offset="0.000556277" stop-color="#B58A58"/>
<stop offset="0.4779" stop-color="#7B6449"/>
<stop offset="1" stop-color="#383838"/>
</linearGradient>
<linearGradient id="paint40_linear_7:0" x1="267.924" y1="94.1529" x2="479.285" y2="346.014" gradientUnits="userSpaceOnUse">
<stop offset="0.000556277" stop-color="#B58A58"/>
<stop offset="0.4779" stop-color="#7B6449"/>
<stop offset="1" stop-color="#383838"/>
</linearGradient>
<linearGradient id="paint41_linear_7:0" x1="260.727" y1="107.194" x2="486.448" y2="332.9" gradientUnits="userSpaceOnUse">
<stop offset="0.000556277" stop-color="#B58A58"/>
<stop offset="0.4779" stop-color="#7B6449"/>
<stop offset="1" stop-color="#383838"/>
</linearGradient>
<linearGradient id="paint42_linear_7:0" x1="254.859" y1="120.467" x2="492.272" y2="319.676" gradientUnits="userSpaceOnUse">
<stop offset="0.000556277" stop-color="#B58A58"/>
<stop offset="0.4779" stop-color="#7B6449"/>
<stop offset="1" stop-color="#383838"/>
</linearGradient>
<linearGradient id="paint43_linear_7:0" x1="250.371" y1="133.789" x2="496.858" y2="306.355" gradientUnits="userSpaceOnUse">
<stop offset="0.000556277" stop-color="#B58A58"/>
<stop offset="0.4779" stop-color="#7B6449"/>
<stop offset="1" stop-color="#383838"/>
</linearGradient>
<linearGradient id="paint44_linear_7:0" x1="247.107" y1="147.036" x2="500.099" y2="293.083" gradientUnits="userSpaceOnUse">
<stop offset="0.000556277" stop-color="#B58A58"/>
<stop offset="0.4779" stop-color="#7B6449"/>
<stop offset="1" stop-color="#383838"/>
</linearGradient>
<linearGradient id="paint45_linear_7:0" x1="245.086" y1="160.147" x2="502.137" y2="279.992" gradientUnits="userSpaceOnUse">
<stop offset="0.000556277" stop-color="#B58A58"/>
<stop offset="0.4779" stop-color="#7B6449"/>
<stop offset="1" stop-color="#383838"/>
</linearGradient>
<linearGradient id="paint46_linear_7:0" x1="244.224" y1="172.948" x2="502.961" y2="267.106" gradientUnits="userSpaceOnUse">
<stop offset="0.000556277" stop-color="#B58A58"/>
<stop offset="0.4779" stop-color="#7B6449"/>
<stop offset="1" stop-color="#383838"/>
</linearGradient>
<linearGradient id="paint47_linear_7:0" x1="244.481" y1="185.468" x2="502.702" y2="254.649" gradientUnits="userSpaceOnUse">
<stop offset="0.000556277" stop-color="#B58A58"/>
<stop offset="0.4779" stop-color="#7B6449"/>
<stop offset="1" stop-color="#383838"/>
</linearGradient>
<linearGradient id="paint48_linear_7:0" x1="245.796" y1="197.534" x2="501.399" y2="242.594" gradientUnits="userSpaceOnUse">
<stop offset="0.000556277" stop-color="#B58A58"/>
<stop offset="0.4779" stop-color="#7B6449"/>
<stop offset="1" stop-color="#383838"/>
</linearGradient>
<linearGradient id="paint49_linear_7:0" x1="248.058" y1="209.102" x2="499.085" y2="231.07" gradientUnits="userSpaceOnUse">
<stop offset="0.000556277" stop-color="#B58A58"/>
<stop offset="0.4779" stop-color="#7B6449"/>
<stop offset="1" stop-color="#383838"/>
</linearGradient>
<linearGradient id="paint50_linear_7:0" x1="251.258" y1="220.066" x2="495.899" y2="220.066" gradientUnits="userSpaceOnUse">
<stop offset="0.000556277" stop-color="#B58A58"/>
<stop offset="0.4779" stop-color="#7B6449"/>
<stop offset="1" stop-color="#383838"/>
</linearGradient>
<linearGradient id="paint51_linear_7:0" x1="453.249" y1="206.301" x2="345.53" y2="206.301" gradientUnits="userSpaceOnUse">
<stop stop-color="#996939"/>
<stop offset="1" stop-color="#D0A875"/>
</linearGradient>
<linearGradient id="paint52_linear_7:0" x1="343.36" y1="269.445" x2="413.53" y2="209.657" gradientUnits="userSpaceOnUse">
<stop stop-color="#272728"/>
<stop offset="1" stop-color="#4B4B4B"/>
</linearGradient>
<linearGradient id="paint53_linear_7:0" x1="372.579" y1="190.844" x2="329.858" y2="224.181" gradientUnits="userSpaceOnUse">
<stop stop-color="#7E562E"/>
<stop offset="1" stop-color="#AF8F66"/>
</linearGradient>
<linearGradient id="paint54_linear_7:0" x1="342.808" y1="273.296" x2="338.573" y2="213.389" gradientUnits="userSpaceOnUse">
<stop/>
<stop offset="1" stop-color="#333232"/>
</linearGradient>
<clipPath id="clip0_7:0">
<rect width="748" height="1005" fill="white" transform="translate(0 -283)"/>
</clipPath>
</defs>
</svg>
