<svg fill="none" height="14" viewBox="0 0 14 14" width="14" xmlns="http://www.w3.org/2000/svg"><path d="m12.4444 0h-10.88884c-.85556 0-1.55556.7-1.55556 1.55556v10.88884c0 .8556.7 1.5556 1.55556 1.5556h10.88884c.8556 0 1.5556-.7 1.5556-1.5556v-10.88884c0-.85556-.7-1.55556-1.5556-1.55556zm-4.66662 3.18889.85555-.85556 1.08889 1.08889 1.08888-1.08889.8556.85556-1.0889 1.08889 1.0889 1.08889-.8556.85555-1.08888-1.08889-1.08889 1.08889-.85555-.85555 1.08889-1.08889zm-5.28889.46667h3.88889v1.16666h-3.88889zm4.12222 6.45554h-1.55555v1.5556h-1.16667v-1.5556h-1.55556v-1.16666h1.55556v-1.55555h1.16667v1.55555h1.55555zm5.05559.9333h-3.88892v-1.16662h3.88892zm0-1.86662h-3.88892v-1.16667h3.88892z" fill="#454545"/></svg>
