<svg viewBox="0 0 10 13" fill="none" xmlns="http://www.w3.org/2000/svg">
<path fill-rule="evenodd" clip-rule="evenodd" d="M6.80005 6.5C6.80005 6.58262 6.85086 6.65674 6.92793 6.68654C7.005 6.71634 7.09245 6.69567 7.14804 6.63453L9.64804 3.88453C9.71739 3.80825 9.71739 3.69175 9.64804 3.61546L7.14804 0.865461C7.09246 0.804322 7.005 0.783656 6.92793 0.813452C6.85086 0.843247 6.80005 0.917368 6.80005 0.999996V3L1.00005 3C0.889593 3 0.80005 3.08954 0.80005 3.2L0.800049 4.3C0.800049 4.41045 0.889581 4.49999 1.00003 4.5L6.80005 4.50053V6.5Z" fill="#FFB800"/>
<path fill-rule="evenodd" clip-rule="evenodd" d="M2.85206 12.1345C2.90764 12.1957 2.9951 12.2163 3.07217 12.1865C3.14924 12.1567 3.20005 12.0826 3.20005 12V10H9.00005C9.11051 10 9.20005 9.91045 9.20005 9.8V8.7C9.20005 8.58954 9.11051 8.5 9.00005 8.5H3.20005V6.5C3.20005 6.41737 3.14924 6.34325 3.07217 6.31345C2.9951 6.28366 2.90764 6.30432 2.85206 6.36546L0.352061 9.11546C0.282712 9.19175 0.282711 9.30825 0.352061 9.38453L2.85206 12.1345Z" fill="#FFB800"/>
</svg>
