<svg width="9" height="9" viewBox="0 0 9 9" fill="none" xmlns="http://www.w3.org/2000/svg">
<path d="M6.70061 0L7.02057 1.39862e-08C7.28565 2.55729e-08 7.50052 0.188877 7.50052 0.421875L7.50052 6.75L8.46042 6.75C8.88772 6.75 9.10119 7.20526 8.7998 7.47019L7.19997 8.87644C7.01253 9.04119 6.70865 9.04119 6.52123 8.87644L4.9214 7.47019C4.62119 7.20626 4.83169 6.75 5.26076 6.75L6.22066 6.75L6.22066 0.421875C6.22066 0.188877 6.43554 -1.15866e-08 6.70061 0ZM2.72019 8.57812L2.72019 2.25L3.68009 2.25C4.10633 2.25 4.32162 1.79539 4.01948 1.52981L2.41965 0.123556C2.23221 -0.0411858 1.92832 -0.0411858 1.7409 0.123556L0.14107 1.52981C-0.159438 1.79397 0.0517386 2.25 0.480433 2.25L1.44033 2.25L1.44033 8.57812C1.44033 8.81112 1.65521 9 1.92028 9L2.24025 9C2.50532 9 2.72019 8.81112 2.72019 8.57812Z" fill="#ECE8E3"/>
</svg>
