<svg width="9" height="11" viewBox="0 0 9 11" fill="none" xmlns="http://www.w3.org/2000/svg">
<path fill-rule="evenodd" clip-rule="evenodd" d="M7.5 0.75H1.5C0.671573 0.75 0 1.42157 0 2.25V9.25C0 10.0784 0.671574 10.75 1.5 10.75H7.5C8.32843 10.75 9 10.0784 9 9.25V2.25C9 1.42157 8.32843 0.75 7.5 0.75ZM1 2.25C1 1.97386 1.22386 1.75 1.5 1.75H3V1.35C3 1.29477 3.04477 1.25 3.1 1.25H5.9C5.95523 1.25 6 1.29477 6 1.35V1.75H7.5C7.77614 1.75 8 1.97386 8 2.25V9.25C8 9.52614 7.77614 9.75 7.5 9.75H1.5C1.22386 9.75 1 9.52614 1 9.25V2.25Z" fill="#787878"/>
<path fill-rule="evenodd" clip-rule="evenodd" d="M3.1 0.25H5.9C6.50751 0.25 7 0.742488 7 1.35V2.15C7 2.75751 6.50751 3.25 5.9 3.25H3.1C2.49249 3.25 2 2.75751 2 2.15V1.35C2 0.742487 2.49249 0.25 3.1 0.25ZM3.1 1.25C3.04477 1.25 3 1.29477 3 1.35V2.15C3 2.20523 3.04477 2.25 3.1 2.25H5.9C5.95523 2.25 6 2.20523 6 2.15V1.35C6 1.29477 5.95523 1.25 5.9 1.25H3.1Z" fill="#787878"/>
</svg>
