<svg width="11" height="11" viewBox="0 0 11 11" fill="none" xmlns="http://www.w3.org/2000/svg">
<path d="M5.5 1.37555C6.31584 1.37555 7.11337 1.61748 7.79172 2.07074C8.47007 2.524 8.99879 3.16824 9.311 3.92198C9.62321 4.67573 9.7049 5.50513 9.54573 6.3053C9.38657 7.10547 8.9937 7.84047 8.41681 8.41737C7.83992 8.99426 7.10492 9.38713 6.30474 9.54629C5.50457 9.70545 4.67517 9.62376 3.92143 9.31155C3.16768 8.99934 2.52345 8.47063 2.07019 7.79228C1.61693 7.11392 1.375 6.3164 1.375 5.50055C1.375 5.31822 1.30257 5.14335 1.17364 5.01442C1.0447 4.88548 0.869836 4.81305 0.6875 4.81305C0.505163 4.81305 0.330295 4.88548 0.201364 5.01442C0.0724327 5.14335 3.84245e-09 5.31822 0 5.50055C0.000123986 6.73464 0.415284 7.93282 1.17872 8.90243C1.94215 9.87203 3.0095 10.5567 4.20911 10.8464C5.40872 11.136 6.67089 11.0138 7.79265 10.4994C8.9144 9.98495 9.83055 9.10821 10.3938 8.01015C10.957 6.91208 11.1346 5.6565 10.8979 4.44532C10.6613 3.23414 10.0242 2.13774 9.08905 1.33243C8.15393 0.527118 6.97515 0.0597007 5.74226 0.00534102C4.50938 -0.0490186 3.29403 0.312838 2.29167 1.03272V0.688055C2.29167 0.505719 2.21923 0.33085 2.0903 0.201919C1.96137 0.0729879 1.7865 0.000555211 1.60417 0.000555211C1.42183 0.000555211 1.24696 0.0729879 1.11803 0.201919C0.989099 0.33085 0.916666 0.505719 0.916666 0.688055V2.97972C0.916666 3.35922 1.22467 3.66722 1.60417 3.66722H2.97916C3.1615 3.66722 3.33637 3.59479 3.4653 3.46586C3.59423 3.33692 3.66666 3.16206 3.66666 2.97972C3.66666 2.79738 3.59423 2.62252 3.4653 2.49358C3.33637 2.36465 3.1615 2.29222 2.97916 2.29222H2.90675C3.6401 1.69767 4.55591 1.37394 5.5 1.37555ZM5.95833 3.43805C5.95833 3.25572 5.8859 3.08085 5.75697 2.95192C5.62803 2.82299 5.45317 2.75055 5.27083 2.75055C5.08849 2.75055 4.91363 2.82299 4.78469 2.95192C4.65576 3.08085 4.58333 3.25572 4.58333 3.43805V5.72972C4.58333 6.10922 4.89133 6.41722 5.27083 6.41722H6.64583C6.82817 6.41722 7.00303 6.34478 7.13196 6.21585C7.2609 6.08692 7.33333 5.91205 7.33333 5.72972C7.33333 5.54738 7.2609 5.37251 7.13196 5.24358C7.00303 5.11465 6.82817 5.04222 6.64583 5.04222H5.95833V3.43805Z" fill="#787878"/>
</svg>
