<svg width="281" height="27" viewBox="0 0 281 27" fill="none" xmlns="http://www.w3.org/2000/svg">
<path d="M92.1532 19.112C92.5532 19.112 92.7452 19.08 93.0332 19V17.848C92.6972 17.88 92.5692 17.88 92.4732 17.88C91.9132 17.88 91.7372 17.592 91.7372 17.048V7.416H90.3772V17.208C90.3772 18.488 91.0332 19.112 92.1532 19.112ZM95.0939 10.92V19H96.4859V10.92H95.0939ZM94.9979 7.448V9.048H96.5819V7.448H94.9979ZM102.249 19.224C104.073 19.224 105.529 18.312 105.529 16.648C105.529 15.432 104.585 14.616 103.433 14.424L101.529 14.12C100.873 14.008 100.425 13.72 100.425 13.112C100.425 12.312 101.193 11.832 102.185 11.832C103.209 11.832 103.945 12.36 103.977 13.272H105.337C105.337 11.72 103.977 10.696 102.185 10.696C100.569 10.696 99.1291 11.704 99.1291 13.176C99.1291 14.408 99.9451 15.144 101.129 15.336L102.921 15.624C103.753 15.752 104.201 16.136 104.201 16.744C104.201 17.656 103.289 18.088 102.313 18.088C101.113 18.088 100.233 17.528 100.201 16.44H98.8411C98.8411 18.152 100.329 19.224 102.249 19.224ZM110.88 19.096C111.568 19.096 112 18.968 112.304 18.856V17.688C112.016 17.768 111.568 17.848 111.104 17.848C110.352 17.848 109.92 17.464 109.92 16.632V12.088H112.224V10.92H109.92V8.456L108.56 8.776V10.92H106.784V12.088H108.56V16.792C108.56 17.88 109.136 19.096 110.88 19.096ZM117.741 19.224C119.389 19.224 120.845 18.136 121.069 16.6H119.709C119.437 17.56 118.685 18.024 117.757 18.024C116.221 18.024 115.309 16.92 115.309 15.416H121.165C121.197 15.176 121.197 14.856 121.197 14.6C121.197 12.456 119.853 10.696 117.645 10.696C116.205 10.696 115.117 11.432 114.525 12.408C114.061 13.16 113.885 14.024 113.885 15C113.885 16.152 114.221 17.224 114.909 18.008C115.565 18.76 116.573 19.224 117.741 19.224ZM115.341 14.248C115.373 13.064 116.125 11.848 117.613 11.848C119.037 11.848 119.805 12.856 119.805 14.248H115.341ZM123.691 19H125.051V14.616C125.051 13.112 125.867 11.928 127.227 11.928C128.427 11.928 128.971 12.68 128.971 13.864V19H130.331V13.672C130.331 11.8 129.323 10.696 127.483 10.696C126.571 10.696 125.403 11.208 124.987 12.168L124.875 10.92H123.691V19ZM133.266 10.92V19H134.658V10.92H133.266ZM133.17 7.448V9.048H134.754V7.448H133.17ZM137.669 19H139.029V14.616C139.029 13.112 139.845 11.928 141.205 11.928C142.405 11.928 142.949 12.68 142.949 13.864V19H144.309V13.672C144.309 11.8 143.301 10.696 141.461 10.696C140.549 10.696 139.381 11.208 138.965 12.168L138.853 10.92H137.669V19ZM150.236 22.68C152.332 22.68 154.22 22.008 154.22 20.136C154.22 19.464 153.964 18.936 153.58 18.552C152.94 17.896 151.836 17.72 150.876 17.72H149.116C148.604 17.72 148.14 17.576 148.14 17.032C148.14 16.664 148.476 16.312 148.812 16.216C149.228 16.392 149.708 16.472 150.236 16.472C152.076 16.472 153.42 15.304 153.42 13.576C153.42 12.856 153.228 12.328 152.892 11.896C152.972 11.448 153.356 11.16 153.884 11.16C153.996 11.16 154.092 11.16 154.188 11.176V10.056C154.076 10.04 153.932 10.024 153.788 10.024C153.02 10.024 152.396 10.456 152.124 11.176C151.628 10.872 151.004 10.696 150.236 10.696C148.396 10.696 147.036 11.832 147.036 13.624C147.036 14.424 147.436 15.304 148.044 15.752C147.468 16.008 146.908 16.584 146.908 17.304C146.908 17.928 147.244 18.376 147.74 18.6C147.084 18.888 146.524 19.48 146.524 20.328C146.524 22.04 148.236 22.68 150.236 22.68ZM150.316 21.528C149.116 21.528 147.788 21.368 147.788 20.136C147.788 19.512 148.236 19.032 148.844 18.872H150.716C151.692 18.872 152.892 18.936 152.892 20.136C152.892 21.288 151.548 21.528 150.316 21.528ZM150.236 15.384C149.052 15.384 148.364 14.6 148.364 13.576C148.364 12.552 149.1 11.8 150.236 11.8C151.42 11.8 152.108 12.552 152.108 13.576C152.108 14.6 151.372 15.384 150.236 15.384ZM160.974 19H162.334V12.072H164.654V10.92H162.334V9.688C162.334 8.968 162.782 8.44 163.63 8.44C164.158 8.44 164.462 8.52 164.782 8.6V7.48C164.462 7.384 164.126 7.288 163.518 7.288C161.95 7.288 160.974 8.296 160.974 9.64V10.92H159.278V12.072H160.974V19ZM169.591 19.224C170.647 19.224 171.495 18.856 172.103 18.28C173.015 17.416 173.287 16.232 173.287 14.952C173.287 13.672 173.015 12.504 172.103 11.64C171.495 11.064 170.647 10.696 169.591 10.696C168.535 10.696 167.687 11.064 167.079 11.64C166.167 12.504 165.895 13.672 165.895 14.952C165.895 16.232 166.167 17.416 167.079 18.28C167.687 18.856 168.535 19.224 169.591 19.224ZM169.591 18.056C168.935 18.056 168.407 17.816 168.071 17.48C167.479 16.888 167.287 16.024 167.287 14.952C167.287 13.88 167.479 13.032 168.071 12.44C168.407 12.104 168.935 11.864 169.591 11.864C170.247 11.864 170.775 12.104 171.111 12.44C171.703 13.032 171.895 13.88 171.895 14.952C171.895 16.024 171.703 16.888 171.111 17.48C170.775 17.816 170.247 18.056 169.591 18.056ZM175.81 19H177.17V15.08C177.17 13.512 177.778 12.184 179.554 12.184C179.81 12.184 180.018 12.216 180.194 12.264V10.904C179.986 10.872 179.762 10.856 179.554 10.856C178.53 10.856 177.554 11.288 177.138 12.328L177.026 10.92H175.81V19ZM185.796 22.568C187.06 22.568 187.844 21.928 188.356 20.552L191.956 10.92H190.516L188.26 17.288L185.892 10.92H184.34L187.572 19L187.108 20.248C186.74 21.224 186.164 21.384 185.54 21.384C185.204 21.384 184.852 21.304 184.612 21.192V22.344C184.804 22.44 185.22 22.568 185.796 22.568ZM196.891 19.224C197.947 19.224 198.795 18.856 199.403 18.28C200.315 17.416 200.587 16.232 200.587 14.952C200.587 13.672 200.315 12.504 199.403 11.64C198.795 11.064 197.947 10.696 196.891 10.696C195.835 10.696 194.987 11.064 194.379 11.64C193.467 12.504 193.195 13.672 193.195 14.952C193.195 16.232 193.467 17.416 194.379 18.28C194.987 18.856 195.835 19.224 196.891 19.224ZM196.891 18.056C196.235 18.056 195.707 17.816 195.371 17.48C194.779 16.888 194.587 16.024 194.587 14.952C194.587 13.88 194.779 13.032 195.371 12.44C195.707 12.104 196.235 11.864 196.891 11.864C197.547 11.864 198.075 12.104 198.411 12.44C199.003 13.032 199.195 13.88 199.195 14.952C199.195 16.024 199.003 16.888 198.411 17.48C198.075 17.816 197.547 18.056 196.891 18.056ZM205.926 19.224C206.886 19.224 207.974 18.68 208.31 17.688L208.406 19H209.59V10.92H208.23V15.272C208.23 16.872 207.526 17.992 206.134 17.992C204.95 17.992 204.39 17.256 204.39 16.056V10.92H203.03V16.248C203.03 18.088 204.166 19.224 205.926 19.224ZM212.606 19H213.966V15.08C213.966 13.512 214.574 12.184 216.35 12.184C216.606 12.184 216.814 12.216 216.99 12.264V10.904C216.782 10.872 216.558 10.856 216.35 10.856C215.326 10.856 214.35 11.288 213.934 12.328L213.822 10.92H212.606V19ZM224.642 8.984V19H226.082V8.984H229.698V7.656H221.026V8.984H224.642ZM239.604 10.92L238.02 17.016L235.924 11H234.74L232.612 17.016L231.044 10.92H229.652L231.796 19H233.092L235.332 12.728L237.492 19H238.82L240.98 10.92H239.604ZM246.344 19.224C247.992 19.224 249.448 18.136 249.672 16.6H248.312C248.04 17.56 247.288 18.024 246.36 18.024C244.824 18.024 243.912 16.92 243.912 15.416H249.768C249.8 15.176 249.8 14.856 249.8 14.6C249.8 12.456 248.456 10.696 246.248 10.696C244.808 10.696 243.72 11.432 243.128 12.408C242.664 13.16 242.488 14.024 242.488 15C242.488 16.152 242.824 17.224 243.512 18.008C244.168 18.76 245.176 19.224 246.344 19.224ZM243.944 14.248C243.976 13.064 244.728 11.848 246.216 11.848C247.64 11.848 248.408 12.856 248.408 14.248H243.944ZM255.638 19.224C257.286 19.224 258.742 18.136 258.966 16.6H257.606C257.334 17.56 256.582 18.024 255.654 18.024C254.118 18.024 253.206 16.92 253.206 15.416H259.062C259.094 15.176 259.094 14.856 259.094 14.6C259.094 12.456 257.75 10.696 255.542 10.696C254.102 10.696 253.014 11.432 252.422 12.408C251.958 13.16 251.782 14.024 251.782 15C251.782 16.152 252.118 17.224 252.806 18.008C253.462 18.76 254.47 19.224 255.638 19.224ZM253.238 14.248C253.27 13.064 254.022 11.848 255.51 11.848C256.934 11.848 257.702 12.856 257.702 14.248H253.238ZM264.567 19.096C265.255 19.096 265.687 18.968 265.991 18.856V17.688C265.703 17.768 265.255 17.848 264.791 17.848C264.039 17.848 263.607 17.464 263.607 16.632V12.088H265.911V10.92H263.607V8.456L262.247 8.776V10.92H260.471V12.088H262.247V16.792C262.247 17.88 262.823 19.096 264.567 19.096ZM268.27 17.096V19H270.158V17.096H268.27ZM273.017 17.096V19H274.905V17.096H273.017ZM277.764 17.096V19H279.652V17.096H277.764Z" fill="#8A939F"/>
<path d="M0 16.2806H15.1405L15.7901 14.1263L16.9394 17.984L19.4379 9.41683L20.837 16.2806H23.985L26.2336 23.495L27.7327 14.1263L29.4816 16.2806H31.98L36.1774 1L41.674 26L44.872 15.0281H49.1693L51.168 7.51303L53.6665 23.996L55.6652 13.1242L56.3648 15.3788H80" stroke="#00E2DF" stroke-width="2" stroke-linejoin="round"/>
</svg>
