<svg width="100" height="16" viewBox="0 0 100 16" fill="none" xmlns="http://www.w3.org/2000/svg">
<path d="M8.25684 0L16.7227 5.13999V10.28L8.25684 5.13999V0Z" fill="url(#paint0_linear_1152:5745)"/>
<path d="M8.25684 15.9911L16.7227 10.9031V5.81494L8.25684 10.9031V15.9911Z" fill="url(#paint1_linear_1152:5745)"/>
<path d="M8.25687 0L0 5.13999V10.28L8.25687 5.13999V0Z" fill="url(#paint2_linear_1152:5745)"/>
<path d="M8.25687 15.9911L0 10.9031V5.81494L8.25687 10.9031V15.9911Z" fill="url(#paint3_linear_1152:5745)"/>
<path fill-rule="evenodd" clip-rule="evenodd" d="M26.8994 12.9968H28.3198V8.34821H28.3205V7.12867H28.3198V2.86743H26.8994V12.9968ZM29.8263 8.34821H29.8257V7.12867H29.8263L32.3802 2.86743H33.9441L31.0028 7.67388V7.70257L34.1306 12.9968H32.5237L29.8263 8.34821ZM43.615 2.86743L41.6351 10.2995C41.4916 10.859 41.4198 11.3756 41.4198 11.3756H41.3912C41.3912 11.3756 41.3338 10.8447 41.2046 10.2995L39.4112 2.86743H37.9477L40.5303 12.9968H42.1803L43.9307 6.42563C44.1028 5.77999 44.232 4.99088 44.232 4.99088H44.2607C44.2607 4.99088 44.3898 5.77999 44.562 6.42563L46.3124 12.9968H47.9624L50.6167 2.86743H49.1532L47.288 10.2995C47.1445 10.8447 47.1015 11.3756 47.1015 11.3756H47.0728C47.0728 11.3756 47.0011 10.859 46.8576 10.2995L44.8776 2.86743H43.615ZM61.596 12.9968H55.4696V2.86743H61.3521V4.10133H56.89V7.27214H60.52V8.50603H56.89V11.7629H61.596V12.9968ZM66.7073 12.9968H68.1277V6.42563C68.1277 5.85173 68.0272 4.94783 68.0272 4.94783H68.0559C68.0559 4.94783 68.5294 5.86608 68.9024 6.42563L73.4219 12.9968H74.8136V2.86743H73.3932V9.45298C73.3932 10.0125 73.4937 10.9164 73.4937 10.9164H73.465C73.465 10.9164 72.9915 9.99819 72.6185 9.45298L68.1133 2.86743H66.7073V12.9968ZM84.1659 12.9968H82.7455V4.10133H79.2734V2.86743H87.638V4.10133H84.1659V12.9968ZM97.5207 12.9968H98.9985L95.3542 2.86743H93.8621L90.2178 12.9968H91.6813L92.6707 10.1276L92.6703 10.1275L93.0586 8.90777L93.0586 8.90771L94.1921 5.69391C94.3643 5.17739 94.5938 4.25915 94.5938 4.25915H94.6225C94.6225 4.25915 94.8377 5.17739 95.0099 5.69391L96.129 8.90771H96.1293L96.5145 10.1198L97.5207 12.9968Z" fill="white"/>
<defs>
<linearGradient id="paint0_linear_1152:5745" x1="23.9418" y1="5.11133" x2="3.0654" y2="5.11133" gradientUnits="userSpaceOnUse">
<stop stop-color="#996939"/>
<stop offset="1" stop-color="#D0A875"/>
</linearGradient>
<linearGradient id="paint1_linear_1152:5745" x1="12.4898" y1="15.9911" x2="14.5458" y2="-3.4736" gradientUnits="userSpaceOnUse">
<stop stop-color="#272728"/>
<stop offset="1" stop-color="#4B4B4B"/>
</linearGradient>
<linearGradient id="paint2_linear_1152:5745" x1="8.30785" y1="2.1074" x2="-0.0024709" y2="8.61839" gradientUnits="userSpaceOnUse">
<stop stop-color="#996939"/>
<stop offset="1" stop-color="#D0A875"/>
</linearGradient>
<linearGradient id="paint3_linear_1152:5745" x1="4.12843" y1="15.9911" x2="4.12843" y2="5.81494" gradientUnits="userSpaceOnUse">
<stop stop-color="#363636"/>
<stop offset="1" stop-color="#333232"/>
</linearGradient>
</defs>
</svg>
