<svg width="50" height="50" viewBox="0 0 50 50" fill="none" xmlns="http://www.w3.org/2000/svg">
<path d="M25 0C20.0555 0 15.222 1.46622 11.1108 4.21326C6.99953 6.96029 3.79521 10.8648 1.90302 15.4329C0.0108321 20.0011 -0.484251 25.0277 0.480379 29.8772C1.44501 34.7268 3.82603 39.1813 7.32234 42.6777C10.8187 46.174 15.2732 48.555 20.1228 49.5196C24.9723 50.4842 29.9989 49.9892 34.5671 48.097C39.1352 46.2048 43.0397 43.0005 45.7867 38.8892C48.5338 34.778 50 29.9445 50 25C50 21.7169 49.3534 18.466 48.097 15.4329C46.8406 12.3998 44.9991 9.64379 42.6777 7.32233C40.3562 5.00086 37.6002 3.15938 34.5671 1.90301C31.534 0.646644 28.2831 0 25 0ZM35.75 19.025L24.325 34.025C24.0921 34.3275 23.793 34.5727 23.4507 34.7417C23.1083 34.9107 22.7318 34.9991 22.35 35C21.9703 35.002 21.5951 34.9175 21.2529 34.7529C20.9107 34.5883 20.6104 34.3479 20.375 34.05L14.275 26.275C14.0731 26.0156 13.9243 25.719 13.837 25.4022C13.7497 25.0853 13.7257 24.7543 13.7663 24.4281C13.8069 24.102 13.9114 23.787 14.0737 23.5012C14.2361 23.2154 14.4531 22.9644 14.7125 22.7625C15.2363 22.3547 15.9006 22.1717 16.5594 22.2538C16.8855 22.2944 17.2005 22.3989 17.4863 22.5612C17.7721 22.7236 18.0231 22.9406 18.225 23.2L22.3 28.4L31.75 15.9C31.9503 15.6374 32.2003 15.4167 32.4858 15.2507C32.7714 15.0847 33.0868 14.9766 33.4141 14.9324C33.7415 14.8883 34.0743 14.9091 34.3936 14.9936C34.7128 15.0782 35.0124 15.2247 35.275 15.425C35.5377 15.6253 35.7583 15.8753 35.9243 16.1608C36.0903 16.4464 36.1984 16.7618 36.2426 17.0891C36.2867 17.4164 36.2659 17.7493 36.1814 18.0685C36.0968 18.3878 35.9503 18.6874 35.75 18.95V19.025Z" fill="#7FD482"/>
</svg>
