<svg fill="none" height="14" viewBox="0 0 13 14" width="13" xmlns="http://www.w3.org/2000/svg"><path d="m12.2661 5.48228c.1842.00001.3616.06468.4971.18119s.2191.27634.2343.44775l.0025.05639v5.58059c-.0001.5822-.2417 1.1418-.6741 1.5613-.4323.4195-1.0219.6663-1.6449.6885l-.0923.002h-8.17741c-.62356 0-1.22288-.2255-1.67216-.6293-.449284-.4038-.7135949-.9545-.7374527-1.5364l-.0016773-.0861v-5.58059c.00008519-.17682.0733509-.34677.204484-.47432.131132-.12755.309982-.20284.499167-.21012s.374059.054.515989.17105c.14193.11704.22992.28078.24559.457l.00251.05639v5.58059c.00008.2232.09086.4381.25401.6012s.38651.2623.62496.2776l.06458.0023h8.17741c.2391.0001.4693-.0847.644-.237.1748-.1524.2811-.3611.2975-.5838l.0021-.0603v-5.58059c0-.37869.3283-.68533.7338-.68533zm-5.9762-5.47601398.06249-.00548284.07338-.00078318.06458.00509106.07465.01253184.02894.0070492c.08177.0211474.16061.0560015.2319.1045619l.05032.037204.039.03368 3.26174 3.046012c.1341.12433.2116.29215.2165.46854s-.0632.34775-.1902.4784-.30303.21053-.4915.223-.37483-.04342-.52028-.15603l-.05242-.04465-2.00997-1.87703v7.54964c-.00001.1721-.06933.3378-.19418.4643-.12485.1266-.29609.2046-.47972.2187l-.05997.0023c-.18424 0-.36174-.0647-.49723-.1813s-.21907-.2765-.23412-.448l-.00252-.056v-7.54807l-2.00787 1.87585c-.129.12043-.3014.19168-.48359.19986s-.36112-.04729-.50189-.1556l-.05242-.04465c-.12902-.12042-.20539-.28139-.21423-.45153s.05049-.33726.16642-.46877l.04781-.04896 3.25083-3.036614c.0235-.022667.04858-.043861.07507-.063442l.04739-.031329c.01593-.010574.03229-.0199732.04948-.0289804l.00797-.0035245c.07556-.0386902.15794-.0644215.24322-.07597408z" fill="#787878"/></svg>