<svg fill="none" height="24" viewBox="0 0 334 24" width="334" xmlns="http://www.w3.org/2000/svg" xmlns:xlink="http://www.w3.org/1999/xlink"><filter id="a" color-interpolation-filters="sRGB" filterUnits="userSpaceOnUse" height="24" width="334" x="0" y="0"><feFlood flood-opacity="0" result="BackgroundImageFix"/><feBlend in="SourceGraphic" in2="BackgroundImageFix" mode="normal" result="shape"/><feColorMatrix in="SourceAlpha" result="hardAlpha" type="matrix" values="0 0 0 0 0 0 0 0 0 0 0 0 0 0 0 0 0 0 127 0"/><feOffset/><feGaussianBlur stdDeviation="4"/><feComposite in2="hardAlpha" k2="-1" k3="1" operator="arithmetic"/><feColorMatrix type="matrix" values="0 0 0 0 0 0 0 0 0 0 0 0 0 0 0 0 0 0 0.53 0"/><feBlend in2="shape" mode="normal" result="effect1_innerShadow_708_3213"/></filter><linearGradient id="b" gradientUnits="userSpaceOnUse" x1="167" x2="167" y1="0" y2="24"><stop offset="0" stop-color="#1b1b1b"/><stop offset="1" stop-color="#191919" stop-opacity=".75"/></linearGradient><mask id="c" fill="#fff"><path clip-rule="evenodd" d="m312 5h-130.252c-2.178-3.02814-5.733-5-9.748-5s-7.57 1.97186-9.748 5h-70.7663c-2.0176-2.44301-5.0698-4-8.4857-4s-6.4681 1.55699-8.4857 4h-40.0286c-2.0176-2.44301-5.0698-4-8.4857-4s-6.4681 1.55699-8.4857 4h-10.5143c-3.86599 0-7 3.13401-7 7 0 3.866 3.13401 7 7 7h10.5143c2.0176 2.443 5.0698 4 8.4857 4s6.4681-1.557 8.4857-4h40.0286c2.0176 2.443 5.0698 4 8.4857 4s6.4681-1.557 8.4857-4h70.7663c2.178 3.0281 5.733 5 9.748 5s7.57-1.9719 9.748-5h130.252c.083 0 .166-.0015.249-.0043 2.178 3.0306 5.734 5.0043 9.751 5.0043 6.627 0 12-5.3726 12-12 0-6.62742-5.373-12-12-12-4.017 0-7.573 1.97375-9.751 5.00435-.083-.00289-.166-.00435-.249-.00435z" fill="#fff" fill-rule="evenodd"/></mask><g filter="url(#a)"><path clip-rule="evenodd" d="m312 5h-130.252c-2.178-3.02814-5.733-5-9.748-5s-7.57 1.97186-9.748 5h-70.7663c-2.0176-2.44301-5.0698-4-8.4857-4s-6.4681 1.55699-8.4857 4h-40.0286c-2.0176-2.44301-5.0698-4-8.4857-4s-6.4681 1.55699-8.4857 4h-10.5143c-3.86599 0-7 3.13401-7 7 0 3.866 3.13401 7 7 7h10.5143c2.0176 2.443 5.0698 4 8.4857 4s6.4681-1.557 8.4857-4h40.0286c2.0176 2.443 5.0698 4 8.4857 4s6.4681-1.557 8.4857-4h70.7663c2.178 3.0281 5.733 5 9.748 5s7.57-1.9719 9.748-5h130.252c.083 0 .166-.0015.249-.0043 2.178 3.0306 5.734 5.0043 9.751 5.0043 6.627 0 12-5.3726 12-12 0-6.62742-5.373-12-12-12-4.017 0-7.573 1.97375-9.751 5.00435-.083-.00289-.166-.00435-.249-.00435z" fill="url(#b)" fill-rule="evenodd"/></g><path d="m181.748 5-.812.58397.299.41603h.513zm-19.496 0v1h.513l.299-.41603zm-70.7663 0-.7711.63678.3.36322h.4711zm-16.9714 0v1h.4711l.3-.36322zm-40.0286 0-.7711.63678.3.36322h.4711zm-16.9714 0v1h.4711l.3-.36322zm0 14 .7711-.6368-.3-.3632h-.4711zm16.9714 0v-1h-.4711l-.3.3632zm40.0286 0 .7711-.6368-.3-.3632h-.4711zm16.9714 0v-1h-.4711l-.3.3632zm70.7663 0 .812-.584-.299-.416h-.513zm19.496 0v-1h-.513l-.299.416zm130.501-.0043.812-.5837-.312-.4344-.535.0187zm0-13.99135-.035.99939.535.01869.312-.43448zm-130.501.99565h130.252v-2h-130.252zm-9.748-5c3.68 0 6.938 1.8058 8.936 4.58397l1.624-1.16794c-2.358-3.27811-6.21-5.41603-10.56-5.41603zm-8.936 4.58397c1.998-2.77817 5.256-4.58397 8.936-4.58397v-2c-4.35 0-8.202 2.13792-10.56 5.41603zm-71.5783.41603h70.7663v-2h-70.7663zm-8.4857-4c3.105 0 5.8789 1.41393 7.7146 3.63678l1.5421-1.27356c-2.1994-2.66317-5.5299-4.36322-9.2567-4.36322zm-7.7146 3.63678c1.8357-2.22285 4.6096-3.63678 7.7146-3.63678v-2c-3.7268 0-7.0573 1.70005-9.2567 4.36322zm-40.7997.36322h40.0286v-2h-40.0286zm-8.4857-4c3.105 0 5.8789 1.41393 7.7146 3.63678l1.5421-1.27356c-2.1994-2.66317-5.5299-4.36322-9.2567-4.36322zm-7.7146 3.63678c1.8357-2.22285 4.6096-3.63678 7.7146-3.63678v-2c-3.7268 0-7.0573 1.70005-9.2567 4.36322zm-11.2854.36322h10.5143v-2h-10.5143zm-6 6c0-3.31371 2.68629-6 6-6v-2c-4.41828 0-8 3.58172-8 8zm6 6c-3.31371 0-6-2.6863-6-6h-2c0 4.4183 3.58172 8 8 8zm10.5143 0h-10.5143v2h10.5143zm8.4857 4c-3.105 0-5.8789-1.4139-7.7146-3.6368l-1.5421 1.2736c2.1994 2.6631 5.5299 4.3632 9.2567 4.3632zm7.7146-3.6368c-1.8357 2.2229-4.6096 3.6368-7.7146 3.6368v2c3.7268 0 7.0573-1.7001 9.2567-4.3632zm40.7997-.3632h-40.0286v2h40.0286zm8.4857 4c-3.105 0-5.8789-1.4139-7.7146-3.6368l-1.5421 1.2736c2.1994 2.6631 5.5299 4.3632 9.2567 4.3632zm7.7146-3.6368c-1.8357 2.2229-4.6096 3.6368-7.7146 3.6368v2c3.7268 0 7.0573-1.7001 9.2567-4.3632zm71.5374-.3632h-70.7663v2h70.7663zm9.748 5c-3.68 0-6.938-1.8058-8.936-4.584l-1.624 1.168c2.358 3.2781 6.21 5.416 10.56 5.416zm8.936-4.584c-1.998 2.7782-5.256 4.584-8.936 4.584v2c4.35 0 8.202-2.1379 10.56-5.416zm131.064-.416h-130.252v2h130.252zm.214-.0037c-.071.0024-.142.0037-.214.0037v2c.095 0 .19-.0017.284-.005zm9.786 5.0037c-3.681 0-6.941-1.8075-8.939-4.588l-1.624 1.1673c2.358 3.2807 6.211 5.4207 10.563 5.4207zm11-11c0 6.0751-4.925 11-11 11v2c7.18 0 13-5.8203 13-13zm-11-11c6.075 0 11 4.92487 11 11h2c0-7.1797-5.82-13-13-13zm-8.939 4.58795c1.998-2.78042 5.258-4.58795 8.939-4.58795v-2c-4.352 0-8.205 2.13997-10.563 5.42074zm-1.061.41205c.072 0 .143.00125.214.00374l.07-1.99878c-.094-.0033-.189-.00496-.284-.00496z" fill="#333" mask="url(#c)"/></svg>