<svg fill="none" height="24" viewBox="0 0 334 24" width="334" xmlns="http://www.w3.org/2000/svg" xmlns:xlink="http://www.w3.org/1999/xlink"><filter id="a" color-interpolation-filters="sRGB" filterUnits="userSpaceOnUse" height="24" width="334" x="0" y="0"><feFlood flood-opacity="0" result="BackgroundImageFix"/><feBlend in="SourceGraphic" in2="BackgroundImageFix" mode="normal" result="shape"/><feColorMatrix in="SourceAlpha" result="hardAlpha" type="matrix" values="0 0 0 0 0 0 0 0 0 0 0 0 0 0 0 0 0 0 127 0"/><feOffset/><feGaussianBlur stdDeviation="4"/><feComposite in2="hardAlpha" k2="-1" k3="1" operator="arithmetic"/><feColorMatrix type="matrix" values="0 0 0 0 0 0 0 0 0 0 0 0 0 0 0 0 0 0 0.53 0"/><feBlend in2="shape" mode="normal" result="effect1_innerShadow_754_4009"/></filter><linearGradient id="b" gradientUnits="userSpaceOnUse" x1="167" x2="167" y1="0" y2="24"><stop offset="0" stop-color="#1b1b1b"/><stop offset="1" stop-color="#191919" stop-opacity=".75"/></linearGradient><mask id="c" fill="#fff"><path clip-rule="evenodd" d="m322 24c6.627 0 12-5.3726 12-12 0-6.62742-5.373-12-12-12-4.017 0-7.573 1.97375-9.751 5.00435-.083-.00289-.166-.00435-.249-.00435h-292.5143c-2.0176-2.44301-5.0698-4-8.4857-4-6.07513 0-11 4.92487-11 11 0 6.0751 4.92487 11 11 11 3.4159 0 6.4681-1.557 8.4857-4h292.5143c.083 0 .166-.0015.249-.0043 2.178 3.0306 5.734 5.0043 9.751 5.0043z" fill="#fff" fill-rule="evenodd"/></mask><g filter="url(#a)"><path clip-rule="evenodd" d="m322 24c6.627 0 12-5.3726 12-12 0-6.62742-5.373-12-12-12-4.017 0-7.573 1.97375-9.751 5.00435-.083-.00289-.166-.00435-.249-.00435h-292.5143c-2.0176-2.44301-5.0698-4-8.4857-4-6.07513 0-11 4.92487-11 11 0 6.0751 4.92487 11 11 11 3.4159 0 6.4681-1.557 8.4857-4h292.5143c.083 0 .166-.0015.249-.0043 2.178 3.0306 5.734 5.0043 9.751 5.0043z" fill="url(#b)" fill-rule="evenodd"/></g><path d="m312.249 5.00435-.035.99939.535.01869.312-.43448zm-292.7633-.00435-.7711.63678.3.36322h.4711zm0 14v-1h-.4711l-.3.3632zm292.7633-.0043.812-.5837-.312-.4344-.535.0187zm20.751-6.9957c0 6.0751-4.925 11-11 11v2c7.18 0 13-5.8203 13-13zm-11-11c6.075 0 11 4.92487 11 11h2c0-7.1797-5.82-13-13-13zm-8.939 4.58795c1.998-2.78042 5.258-4.58795 8.939-4.58795v-2c-4.352 0-8.205 2.13997-10.563 5.42074zm-1.061.41205c.072 0 .143.00125.214.00374l.07-1.99878c-.094-.0033-.189-.00496-.284-.00496zm-292.5143 0h292.5143v-2h-292.5143zm-8.4857-4c3.105 0 5.8789 1.41393 7.7146 3.63678l1.5421-1.27356c-2.1994-2.66317-5.5299-4.36322-9.2567-4.36322zm-10 10c0-5.52285 4.47715-10 10-10v-2c-6.62742 0-12 5.37258-12 12zm10 10c-5.52285 0-10-4.4772-10-10h-2c0 6.6274 5.37258 12 12 12zm7.7146-3.6368c-1.8357 2.2229-4.6096 3.6368-7.7146 3.6368v2c3.7268 0 7.0573-1.7001 9.2567-4.3632zm293.2854-.3632h-292.5143v2h292.5143zm.214-.0037c-.071.0024-.142.0037-.214.0037v2c.095 0 .19-.0017.284-.005zm9.786 5.0037c-3.681 0-6.941-1.8075-8.939-4.588l-1.624 1.1673c2.358 3.2807 6.211 5.4207 10.563 5.4207z" fill="#333" mask="url(#c)"/></svg>