<svg width="150" height="80" viewBox="0 0 150 80" fill="none" xmlns="http://www.w3.org/2000/svg">
<g filter="url(#filter0_d_1152:5794)">
<rect x="20" y="20" width="110" height="40" rx="2" fill="#2DAAE1"/>
<path d="M42 56C50.8366 56 58 48.8366 58 40C58 31.1634 50.8366 24 42 24C33.1634 24 26 31.1634 26 40C26 48.8366 33.1634 56 42 56Z" fill="#2DAAE1"/>
<path d="M52.4847 33.4797C51.7025 33.8302 50.8718 34.0604 50.0207 34.1622C50.9187 33.6177 51.5888 32.7659 51.9065 31.7648C51.0659 32.2697 50.1444 32.6255 49.1826 32.8166C48.7835 32.385 48.2993 32.0407 47.7606 31.8052C47.2219 31.5698 46.6403 31.4484 46.0524 31.4486C45.4863 31.4516 44.9263 31.5661 44.4044 31.7855C43.8825 32.0049 43.409 32.3249 43.0108 32.7274C42.6126 33.1298 42.2976 33.6067 42.0837 34.1309C41.8699 34.6551 41.7614 35.2163 41.7644 35.7824C41.764 36.1148 41.801 36.4461 41.8748 36.7702C40.1654 36.6816 38.4942 36.2323 36.9708 35.4519C35.4474 34.6715 34.1064 33.5777 33.0357 32.2422C32.4875 33.1964 32.3196 34.3224 32.5656 35.3951C32.8117 36.4677 33.4535 37.4079 34.3628 38.0278C33.681 38.0063 33.0146 37.8205 32.4201 37.4861V37.5408C32.4164 38.5369 32.7567 39.5037 33.3835 40.2778C34.0102 41.052 34.885 41.586 35.8601 41.7898C35.492 41.8913 35.1119 41.9424 34.7301 41.9418C34.4592 41.9418 34.1889 41.9163 33.9228 41.8656C34.1924 42.7226 34.7238 43.4736 35.4422 44.0132C36.1606 44.5527 37.03 44.8536 37.9282 44.8736C37.0412 45.5777 36.0233 46.0988 34.9334 46.4068C33.8436 46.7147 32.7034 46.8033 31.5791 46.6675C33.5353 47.9399 35.819 48.6166 38.1525 48.6154C46.0399 48.6154 50.3538 42.0118 50.3538 36.2851C50.3538 36.0972 50.3494 35.9103 50.3407 35.7245C51.183 35.1089 51.909 34.3482 52.4847 33.4781V33.4797Z" fill="white"/>
<path d="M66.3052 33.48V46H68.1052V33.48H72.6252V31.82H61.7852V33.48H66.3052ZM84.9573 35.9L82.9773 43.52L80.3573 36H78.8773L76.2173 43.52L74.2573 35.9H72.5173L75.1973 46H76.8173L79.6173 38.16L82.3173 46H83.9773L86.6773 35.9H84.9573ZM93.3326 46.28C95.3926 46.28 97.2126 44.92 97.4926 43H95.7926C95.4526 44.2 94.5126 44.78 93.3526 44.78C91.4326 44.78 90.2926 43.4 90.2926 41.52H97.6126C97.6526 41.22 97.6526 40.82 97.6526 40.5C97.6526 37.82 95.9726 35.62 93.2126 35.62C91.4126 35.62 90.0526 36.54 89.3126 37.76C88.7326 38.7 88.5126 39.78 88.5126 41C88.5126 42.44 88.9326 43.78 89.7926 44.76C90.6126 45.7 91.8726 46.28 93.3326 46.28ZM90.3326 40.06C90.3726 38.58 91.3126 37.06 93.1726 37.06C94.9526 37.06 95.9126 38.32 95.9126 40.06H90.3326ZM104.9 46.28C106.96 46.28 108.78 44.92 109.06 43H107.36C107.02 44.2 106.08 44.78 104.92 44.78C103 44.78 101.86 43.4 101.86 41.52H109.18C109.22 41.22 109.22 40.82 109.22 40.5C109.22 37.82 107.54 35.62 104.78 35.62C102.98 35.62 101.62 36.54 100.88 37.76C100.3 38.7 100.08 39.78 100.08 41C100.08 42.44 100.5 43.78 101.36 44.76C102.18 45.7 103.44 46.28 104.9 46.28ZM101.9 40.06C101.94 38.58 102.88 37.06 104.74 37.06C106.52 37.06 107.48 38.32 107.48 40.06H101.9ZM116.011 46.12C116.871 46.12 117.411 45.96 117.791 45.82V44.36C117.431 44.46 116.871 44.56 116.291 44.56C115.351 44.56 114.811 44.08 114.811 43.04V37.36H117.691V35.9H114.811V32.82L113.111 33.22V35.9H110.891V37.36H113.111V43.24C113.111 44.6 113.831 46.12 116.011 46.12Z" fill="white"/>
</g>
<defs>
<filter id="filter0_d_1152:5794" x="0" y="0" width="150" height="80" filterUnits="userSpaceOnUse" color-interpolation-filters="sRGB">
<feFlood flood-opacity="0" result="BackgroundImageFix"/>
<feColorMatrix in="SourceAlpha" type="matrix" values="0 0 0 0 0 0 0 0 0 0 0 0 0 0 0 0 0 0 127 0" result="hardAlpha"/>
<feOffset/>
<feGaussianBlur stdDeviation="10"/>
<feColorMatrix type="matrix" values="0 0 0 0 1 0 0 0 0 0.641667 0 0 0 0 0.921167 0 0 0 0.3 0"/>
<feBlend mode="normal" in2="BackgroundImageFix" result="effect1_dropShadow_1152:5794"/>
<feBlend mode="normal" in="SourceGraphic" in2="effect1_dropShadow_1152:5794" result="shape"/>
</filter>
</defs>
</svg>
