<svg 
  width="10" 
  height="13" 
  viewBox="0 0 10 13" 
  fill="none" 
  xmlns="http://www.w3.org/2000/svg"
>
  <path d="M4.56583 1.12073C4.68303 0.998876 4.84198 0.93042 5.0077 0.93042C5.17343 0.93042 5.33237 0.998876 5.44958 1.12073L7.32458 3.07075C7.43843 3.19335 7.50142 3.35754 7.5 3.52797C7.49858 3.6984 7.43285 3.86143 7.31697 3.98195C7.20109 4.10246 7.04433 4.17082 6.88045 4.1723C6.71658 4.17378 6.55871 4.10827 6.44083 3.98986L5.6327 3.1494L5.625 8.91945C5.625 9.09185 5.55915 9.25718 5.44194 9.37908C5.32473 9.50098 5.16576 9.56946 5 9.56946C4.83424 9.56946 4.67527 9.50098 4.55806 9.37908C4.44085 9.25718 4.375 9.09185 4.375 8.91945L4.3827 3.1494L3.57458 3.98986C3.4567 4.10827 3.29883 4.17378 3.13495 4.1723C2.97108 4.17082 2.81432 4.10246 2.69844 3.98195C2.58256 3.86143 2.51683 3.6984 2.51541 3.52797C2.51398 3.35754 2.57698 3.19335 2.69083 3.07075L4.56583 1.12073ZM0 6.56946C0 6.22468 0.131696 5.89401 0.366116 5.65021C0.600537 5.40641 0.918479 5.26945 1.25 5.26945H2.5C2.66576 5.26945 2.82473 5.33793 2.94194 5.45983C3.05915 5.58173 3.125 5.74706 3.125 5.91945C3.125 6.09185 3.05915 6.25718 2.94194 6.37908C2.82473 6.50098 2.66576 6.56946 2.5 6.56946H1.25V10.7694H8.75V6.56946H7.5C7.33424 6.56946 7.17527 6.50098 7.05806 6.37908C6.94085 6.25718 6.875 6.09185 6.875 5.91945C6.875 5.74706 6.94085 5.58173 7.05806 5.45983C7.17527 5.33793 7.33424 5.26945 7.5 5.26945H8.75C9.08152 5.26945 9.39946 5.40641 9.63388 5.65021C9.8683 5.89401 10 6.22468 10 6.56946V10.7694C10 11.1142 9.8683 11.4449 9.63388 11.6887C9.39946 11.9325 9.08152 12.0695 8.75 12.0695H1.25C0.918479 12.0695 0.600537 11.9325 0.366116 11.6887C0.131696 11.4449 0 11.1142 0 10.7694V6.56946Z" fill="#787878"/>
</svg>