<svg width="7" height="8" viewBox="0 0 7 8" fill="#FFB800" xmlns="http://www.w3.org/2000/svg">
<path fill-rule="evenodd" clip-rule="evenodd" d="M3.5 7.49976C3.22386 7.49976 3 7.2759 3 6.99976L3 2.25L1.36207 3.96983C1.17163 4.16979 0.855137 4.17751 0.655172 3.98707C0.455207 3.79663 0.447487 3.48014 0.63793 3.28017L3.13793 0.655172C3.2323 0.556082 3.36316 0.5 3.5 0.5C3.63684 0.5 3.7677 0.556082 3.86207 0.655172L6.36207 3.28017C6.55251 3.48014 6.54479 3.79663 6.34483 3.98707C6.14486 4.17751 5.82837 4.16979 5.63793 3.96983L4 2.25L4 6.99976C4 7.2759 3.77614 7.49976 3.5 7.49976Z" />
</svg>