<svg width="17" height="18" viewBox="0 0 23 18" fill="none" xmlns="http://www.w3.org/2000/svg">
<path d="M19.1153 2.34528C17.6758 1.69611 16.1328 1.21629 14.5193 0.943449C14.5049 0.940691 14.4901 0.942469 14.4768 0.948537C14.4634 0.954605 14.4523 0.964664 14.445 0.977319C14.2474 1.32448 14.0273 1.77702 13.873 2.13454C12.1617 1.87886 10.4219 1.87886 8.71064 2.13454C8.53878 1.73832 8.34499 1.35198 8.13015 0.977319C8.12287 0.964508 8.11185 0.954222 8.09857 0.947834C8.08529 0.941446 8.07038 0.93926 8.05583 0.941568C6.44325 1.21441 4.90029 1.69423 3.45988 2.34434C3.44749 2.34954 3.43698 2.3584 3.42977 2.36975C0.501914 6.67404 -0.300613 10.872 0.0935942 15.0173C0.0946911 15.0275 0.0978425 15.0373 0.102857 15.0462C0.107871 15.0551 0.114642 15.0629 0.12276 15.069C1.83167 16.3132 3.73774 17.261 5.76114 17.8727C5.77525 17.8771 5.79034 17.877 5.80443 17.8727C5.81853 17.8683 5.83099 17.8598 5.84017 17.8483C6.27484 17.2649 6.66246 16.6487 6.99363 16.0014C7.01339 15.9638 6.99457 15.9186 6.95506 15.9036C6.34728 15.6747 5.7584 15.3985 5.19382 15.0775C5.18368 15.0717 5.17513 15.0635 5.16895 15.0536C5.16276 15.0437 5.15913 15.0324 5.15839 15.0207C5.15764 15.0091 5.1598 14.9974 5.16467 14.9868C5.16954 14.9762 5.17697 14.9669 5.1863 14.9599C5.30484 14.8724 5.42339 14.7812 5.53629 14.6899C5.54645 14.6817 5.55869 14.6765 5.57165 14.6748C5.5846 14.6731 5.59777 14.6751 5.60967 14.6805C9.3043 16.3401 13.3056 16.3401 16.957 14.6805C16.9689 14.6748 16.9822 14.6726 16.9954 14.6741C17.0085 14.6756 17.021 14.6807 17.0313 14.689C17.1442 14.7812 17.2618 14.8724 17.3813 14.9599C17.3907 14.9668 17.3983 14.9759 17.4033 14.9864C17.4083 14.997 17.4107 15.0086 17.4101 15.0202C17.4096 15.0319 17.4061 15.0432 17.4001 15.0532C17.3941 15.0632 17.3857 15.0716 17.3757 15.0775C16.8131 15.4012 16.2279 15.6749 15.6135 15.9026C15.6041 15.906 15.5955 15.9114 15.5883 15.9185C15.5811 15.9255 15.5755 15.9339 15.5718 15.9433C15.5682 15.9526 15.5666 15.9627 15.5671 15.9727C15.5676 15.9827 15.5703 15.9925 15.5749 16.0014C15.9136 16.6478 16.3012 17.2631 16.7274 17.8473C16.7363 17.8593 16.7486 17.8683 16.7628 17.873C16.7769 17.8777 16.7922 17.8779 16.8065 17.8737C18.8333 17.2637 20.7425 16.3154 22.4533 15.069C22.4617 15.0632 22.4687 15.0557 22.4739 15.0469C22.4791 15.0381 22.4823 15.0284 22.4834 15.0182C22.9538 10.2257 21.695 6.06156 19.1444 2.37163C19.1382 2.35964 19.1278 2.35029 19.1153 2.34528ZM7.5459 12.4931C6.43384 12.4931 5.51653 11.4873 5.51653 10.2539C5.51653 9.01952 6.41596 8.01471 7.5459 8.01471C8.6843 8.01471 9.59314 9.02799 9.57526 10.2539C9.57526 11.4883 8.67583 12.4931 7.5459 12.4931ZM15.049 12.4931C13.936 12.4931 13.0196 11.4873 13.0196 10.2539C13.0196 9.01952 13.9181 8.01471 15.049 8.01471C16.1874 8.01471 17.0962 9.02799 17.0784 10.2539C17.0784 11.4883 16.1883 12.4931 15.049 12.4931Z" fill="#787878"/>
</svg>
