<svg width="300" height="300" viewBox="0 0 300 300" fill="none" xmlns="http://www.w3.org/2000/svg">
<path d="M150 300C232.843 300 300 232.843 300 150C300 67.1573 232.843 0 150 0C67.1573 0 0 67.1573 0 150C0 232.843 67.1573 300 150 300Z" fill="#2A5ADA"/>
<g clip-path="url(#clip0)">
<path d="M150 48.1504L168.518 58.7985L218.981 87.9652L237.5 98.6134V199.539L218.981 210.188L168.056 239.354L149.537 250.002L131.018 239.354L81.0184 210.188L62.4999 199.539V98.6134L81.0184 87.9652L131.481 58.7985L150 48.1504V48.1504ZM200.463 178.243V119.91L150 90.743L99.5369 119.91V178.243L150 207.41L200.463 178.243Z" fill="white"/>
</g>
<defs>
<clipPath id="clip0">
<rect width="175" height="201.852" fill="white" transform="matrix(-1 0 0 1 237.5 48.1504)"/>
</clipPath>
</defs>
</svg>
