<svg width="13" height="9" viewBox="0 0 13 9" fill="none" xmlns="http://www.w3.org/2000/svg">
<path d="M12.2188 8.5C12.2969 8.5 12.3594 8.53125 12.4062 8.59375C12.4688 8.64062 12.5 8.70312 12.5 8.78125V8.71875C12.5 8.79688 12.4688 8.86719 12.4062 8.92969C12.3594 8.97656 12.2969 9 12.2188 9H0.78125C0.703125 9 0.632812 8.97656 0.570312 8.92969C0.523438 8.86719 0.5 8.79688 0.5 8.71875V0.28125C0.5 0.203125 0.523438 0.140625 0.570312 0.09375C0.632812 0.03125 0.703125 0 0.78125 0H0.71875C0.796875 0 0.859375 0.03125 0.90625 0.09375C0.96875 0.140625 1 0.203125 1 0.28125V8.5H12.2188ZM9.24219 2.22656L7.25 3.5625L5.25781 0.890625C5.19531 0.8125 5.10938 0.78125 5 0.796875C4.90625 0.796875 4.83594 0.835938 4.78906 0.914062L2.75 4.3125V6.75H11.75L9.64062 2.34375C9.60938 2.26562 9.54688 2.21875 9.45312 2.20312C9.375 2.17188 9.30469 2.1875 9.24219 2.25V2.22656Z" fill="white"/>
</svg>
