<svg width="13" height="13" viewBox="0 -3 13 14" fill="none" xmlns="http://www.w3.org/2000/svg">
<g filter="url(#filter0_dii_2076_26124)">
<path fill-rule="evenodd" clip-rule="evenodd" d="M6.5 0C7.05228 0 7.5 0.447715 7.5 1V6.58575L9.29289 4.79283C9.68341 4.4023 10.3166 4.4023 10.7071 4.79282C11.0976 5.18334 11.0976 5.8165 10.7071 6.20703L7.20711 9.7071C7.01958 9.89464 6.76522 10 6.5 10C6.23478 10 5.98042 9.89464 5.79289 9.7071L2.29289 6.20703C1.90237 5.8165 1.90237 5.18334 2.2929 4.79282C2.68343 4.4023 3.31659 4.4023 3.70711 4.79283L5.5 6.58575V1C5.5 0.447715 5.94772 0 6.5 0Z" fill="#ECE8E3"/>
</g>
<defs>
<filter id="filter0_dii_2076_26124" x="0" y="0" width="13" height="13" filterUnits="userSpaceOnUse" color-interpolation-filters="sRGB">
<feFlood flood-opacity="0" result="BackgroundImageFix"/>
<feColorMatrix in="SourceAlpha" type="matrix" values="0 0 0 0 0 0 0 0 0 0 0 0 0 0 0 0 0 0 127 0" result="hardAlpha"/>
<feOffset dy="2"/>
<feGaussianBlur stdDeviation="1"/>
<feComposite in2="hardAlpha" operator="out"/>
<feColorMatrix type="matrix" values="0 0 0 0 0 0 0 0 0 0 0 0 0 0 0 0 0 0 0.25 0"/>
<feBlend mode="normal" in2="BackgroundImageFix" result="effect1_dropShadow_2076_26124"/>
<feBlend mode="normal" in="SourceGraphic" in2="effect1_dropShadow_2076_26124" result="shape"/>
<feColorMatrix in="SourceAlpha" type="matrix" values="0 0 0 0 0 0 0 0 0 0 0 0 0 0 0 0 0 0 127 0" result="hardAlpha"/>
<feOffset/>
<feGaussianBlur stdDeviation="10"/>
<feComposite in2="hardAlpha" operator="arithmetic" k2="-1" k3="1"/>
<feColorMatrix type="matrix" values="0 0 0 0 1 0 0 0 0 1 0 0 0 0 1 0 0 0 0.03 0"/>
<feBlend mode="normal" in2="shape" result="effect2_innerShadow_2076_26124"/>
<feColorMatrix in="SourceAlpha" type="matrix" values="0 0 0 0 0 0 0 0 0 0 0 0 0 0 0 0 0 0 127 0" result="hardAlpha"/>
<feOffset dy="1"/>
<feComposite in2="hardAlpha" operator="arithmetic" k2="-1" k3="1"/>
<feColorMatrix type="matrix" values="0 0 0 0 1 0 0 0 0 1 0 0 0 0 1 0 0 0 0.1 0"/>
<feBlend mode="normal" in2="effect2_innerShadow_2076_26124" result="effect3_innerShadow_2076_26124"/>
</filter>
</defs>
</svg>
