<?xml version="1.0" encoding="utf-8"?>
<svg version="1.1" id="Layer_1" xmlns="http://www.w3.org/2000/svg" xmlns:xlink="http://www.w3.org/1999/xlink" x="0px" y="0px"
	 viewBox="0 0 13 13" style="enable-background:new 0 0 13 13;" xml:space="preserve">
<style type="text/css">
	.st0{fill-rule:evenodd;clip-rule:evenodd;fill:#ECE8E3;}
</style>
<g>
	<path class="st0" d="M6.5,1.9c0.5,0,0.9,0.4,0.9,0.9V8l1.7-1.7c0.4-0.4,1-0.4,1.3,0c0.4,0.4,0.4,1,0,1.3l-3.2,3.3
		C7,11,6.7,11.1,6.5,11.1S6,11,5.8,10.9L2.6,7.6c-0.4-0.4-0.4-1,0-1.3c0.4-0.4,1-0.4,1.3,0L5.6,8V2.8C5.6,2.3,6,1.9,6.5,1.9z"/>
</g>
</svg>
