<svg width="12" height="9" viewBox="0 0 12 9" fill="none" xmlns="http://www.w3.org/2000/svg">
<path d="M11.7188 8.5C11.7969 8.5 11.8594 8.53125 11.9062 8.59375C11.9688 8.64062 12 8.70312 12 8.78125V8.71875C12 8.79688 11.9688 8.86719 11.9062 8.92969C11.8594 8.97656 11.7969 9 11.7188 9H0.28125C0.203125 9 0.132812 8.97656 0.0703125 8.92969C0.0234375 8.86719 0 8.79688 0 8.71875V0.28125C0 0.203125 0.0234375 0.140625 0.0703125 0.09375C0.132812 0.03125 0.203125 0 0.28125 0H0.21875C0.296875 0 0.359375 0.03125 0.40625 0.09375C0.46875 0.140625 0.5 0.203125 0.5 0.28125V8.5H11.7188ZM3.5 6.46875V4.78125C3.5 4.70312 3.46875 4.64062 3.40625 4.59375C3.35938 4.53125 3.29688 4.5 3.21875 4.5H2.28125C2.20312 4.5 2.13281 4.53125 2.07031 4.59375C2.02344 4.64062 2 4.70312 2 4.78125V6.46875C2 6.54688 2.02344 6.61719 2.07031 6.67969C2.13281 6.72656 2.20312 6.75 2.28125 6.75H3.21875C3.29688 6.75 3.35938 6.72656 3.40625 6.67969C3.46875 6.61719 3.5 6.54688 3.5 6.46875ZM8 6.46875V3.28125C8 3.20312 7.96875 3.14062 7.90625 3.09375C7.85938 3.03125 7.79688 3 7.71875 3H6.78125C6.70312 3 6.63281 3.03125 6.57031 3.09375C6.52344 3.14062 6.5 3.20312 6.5 3.28125V6.46875C6.5 6.54688 6.52344 6.61719 6.57031 6.67969C6.63281 6.72656 6.70312 6.75 6.78125 6.75H7.71875C7.79688 6.75 7.85938 6.72656 7.90625 6.67969C7.96875 6.61719 8 6.54688 8 6.46875ZM5.75 6.46875V1.78125C5.75 1.70312 5.71875 1.64062 5.65625 1.59375C5.60938 1.53125 5.54688 1.5 5.46875 1.5H4.53125C4.45312 1.5 4.38281 1.53125 4.32031 1.59375C4.27344 1.64062 4.25 1.70312 4.25 1.78125V6.46875C4.25 6.54688 4.27344 6.61719 4.32031 6.67969C4.38281 6.72656 4.45312 6.75 4.53125 6.75H5.46875C5.54688 6.75 5.60938 6.72656 5.65625 6.67969C5.71875 6.61719 5.75 6.54688 5.75 6.46875ZM10.25 6.46875V1.03125C10.25 0.953125 10.2188 0.890625 10.1562 0.84375C10.1094 0.78125 10.0469 0.75 9.96875 0.75H9.03125C8.95312 0.75 8.88281 0.78125 8.82031 0.84375C8.77344 0.890625 8.75 0.953125 8.75 1.03125V6.46875C8.75 6.54688 8.77344 6.61719 8.82031 6.67969C8.88281 6.72656 8.95312 6.75 9.03125 6.75H9.96875C10.0469 6.75 10.1094 6.72656 10.1562 6.67969C10.2188 6.61719 10.25 6.54688 10.25 6.46875Z" fill="white"/>
</svg>
