<svg width="16" height="16" viewBox="0 0 16 16" fill="none" xmlns="http://www.w3.org/2000/svg">
<path fill-rule="evenodd" clip-rule="evenodd" d="M8 14C11.3137 14 14 11.3137 14 8C14 4.68629 11.3137 2 8 2C4.68629 2 2 4.68629 2 8C2 11.3137 4.68629 14 8 14ZM5.75 8.75C6.16421 8.75 6.5 8.41421 6.5 8C6.5 7.58579 6.16421 7.25 5.75 7.25C5.33579 7.25 5 7.58579 5 8C5 8.41421 5.33579 8.75 5.75 8.75ZM8 8.75C8.41421 8.75 8.75 8.41421 8.75 8C8.75 7.58579 8.41421 7.25 8 7.25C7.58579 7.25 7.25 7.58579 7.25 8C7.25 8.41421 7.58579 8.75 8 8.75ZM11 8C11 8.41421 10.6642 8.75 10.25 8.75C9.83579 8.75 9.5 8.41421 9.5 8C9.5 7.58579 9.83579 7.25 10.25 7.25C10.6642 7.25 11 7.58579 11 8Z" fill="currentColor"/>
</svg>
