<svg width="32" height="32" viewBox="0 0 32 32" fill="none" xmlns="http://www.w3.org/2000/svg">
<path fill-rule="evenodd" clip-rule="evenodd" d="M18.4142 14.5607L17.6642 13.8107C17.25 13.3964 17.25 12.7249 17.6642 12.3107C18.0784 11.8964 18.75 11.8964 19.1642 12.3107L21.7071 14.8536C22.0976 15.2441 22.0976 15.8772 21.7071 16.2678L19.1642 18.8107C18.75 19.2249 18.0784 19.2249 17.6642 18.8107C17.25 18.3964 17.25 17.7249 17.6642 17.3107L18.4142 16.5607H11.4142C10.8619 16.5607 10.4142 16.1129 10.4142 15.5607C10.4142 15.0084 10.8619 14.5607 11.4142 14.5607H18.4142Z" fill="url(#circle-arrow-right-paint0_linear)"/>
<circle cx="16" cy="16" r="15" stroke="url(#circle-arrow-right-paint1_linear)" stroke-width="2"/>
<defs>
<linearGradient id="circle-arrow-right-paint0_linear" x1="16.2071" y1="12" x2="16.2071" y2="19.1213" gradientUnits="userSpaceOnUse">
<stop stop-color="#BE9461"/>
<stop offset="1" stop-color="#9C6C3C"/>
</linearGradient>
<linearGradient id="circle-arrow-right-paint1_linear" x1="16" y1="0" x2="16" y2="32" gradientUnits="userSpaceOnUse">
<stop stop-color="#BE9461"/>
<stop offset="1" stop-color="#9C6C3C"/>
</linearGradient>
</defs>
</svg>
