<svg width="841" height="116" viewBox="0 0 841 116" fill="none" xmlns="http://www.w3.org/2000/svg"><g opacity=".05" clip-rule="evenodd" stroke="#fff"><path d="m.696 41.138 414.57-310.236 425.496 310.55v325.92L415.264 674.787.696 367.686V41.138Z" stroke-width=".1"/><path d="M17.621 47.679 415.486-250.01 823.837 47.98v312.736L415.484 655.698 17.621 361.018V47.678Z" stroke-width=".138"/><path d="m34.546 54.22 381.16-285.14L806.911 54.509v299.553L415.704 636.609 34.546 354.351V54.219Z" stroke-width=".175"/><path d="m51.471 60.76 364.455-272.59 374.06 272.867v286.371L415.925 617.52 51.471 347.683V60.76Z" stroke-width=".212"/><path d="m68.397 67.301 347.749-260.042L773.061 67.565v273.188L416.145 598.43 68.397 341.016V67.301Z" stroke-width=".25"/><path d="m85.322 73.842 331.044-247.494 339.77 247.745v260.005L416.365 579.341 85.322 334.348V73.842Z" stroke-width=".287"/><path d="m102.247 80.382 314.339-234.945L739.211 80.621v246.822L416.585 560.252 102.247 327.681V80.383Z" stroke-width=".325"/><path d="m119.172 86.923 297.635-222.396L722.286 87.149v233.639L416.805 541.163l-297.633-220.15V86.923Z" stroke-width=".362"/><path d="m136.097 93.464 280.93-209.848 288.334 210.06v220.457l-288.335 207.94-280.929-207.727V93.464Z" stroke-width=".4"/><path d="m153.022 100.005 264.225-197.3 271.189 197.5v207.273l-271.19 195.506-264.224-195.306V100.005Z" stroke-width=".438"/><path d="m169.947 106.545 247.52-184.75 254.044 184.938v194.091L417.466 483.895 169.947 301.01V106.545Z" stroke-width=".475"/><path d="M186.872 113.086 417.687-59.116 654.586 113.26v180.908l-236.9 170.636-230.814-170.462V113.086Z" stroke-width=".512"/><path d="m203.797 119.627 214.11-159.654 219.754 159.816v167.725L417.906 445.716 203.797 287.675V119.627Z" stroke-width=".55"/><path d="M220.722 126.168 418.127-20.938l202.609 147.255v154.542L418.127 426.627 220.722 281.008v-154.84Z" stroke-width=".588"/><path d="M237.647 132.708 418.348-1.849l185.463 134.694v141.359L418.347 407.538l-180.7-133.198V132.708Z" stroke-width=".625"/><path d="M254.572 139.249 418.568 17.241l168.318 122.132v128.176l-168.319 120.9-163.995-120.776V139.249Z" stroke-width=".662"/><path d="M271.497 145.79 418.788 36.33 569.961 145.9v114.993L418.787 369.359l-147.29-108.354V145.79Z" stroke-width=".7"/><path d="m288.422 152.331 130.586-96.912 134.028 97.01V254.24l-134.028 96.03-130.586-95.932V152.331Z" stroke-width=".738"/><path d="m305.347 158.871 113.881-84.363 116.883 84.449v88.628l-116.883 83.596-113.881-83.511v-88.799Z" stroke-width=".775"/><path d="m322.272 165.412 97.176-71.815 99.738 71.888v75.445l-99.738 71.162-97.176-71.089v-75.591Z" stroke-width=".813"/><path d="m339.197 171.953 80.471-59.266 82.593 59.326v62.262l-82.593 58.727-80.471-58.667v-62.382Z" stroke-width=".85"/></g></svg>