<svg xmlns="http://www.w3.org/2000/svg" fill="none" height="11" width="11">
  <path d="M10.092.909a3.096 3.096 0 00-4.382 0L4.687 1.932a.517.517 0 00.73.73L6.44 1.639a2.057 2.057 0 012.922 0c.852.853.77 2.152 0 2.922L8.34 5.583a.518.518 0 00.732.732l1.022-1.022A3.102 3.102 0 0010.092.91zm-5.53 8.454c-.77.77-2.07.852-2.921 0a2.058 2.058 0 010-2.922l1.022-1.022a.518.518 0 00-.732-.732L.909 5.709a3.097 3.097 0 000 4.383 3.097 3.097 0 004.382 0l1.023-1.023a.516.516 0 10-.73-.73zM1.896 1.167a.115.115 0 00-.162 0l-.567.567a.115.115 0 000 .162l7.94 7.94a.115.115 0 00.162 0l.567-.566a.115.115 0 000-.162z" fill="#6F6E95"/>
</svg>