<svg width="21" height="14" viewBox="0 0 21 14" fill="none" xmlns="http://www.w3.org/2000/svg">
<path d="M20.625 7.25C20.625 8.46875 20.3203 9.59375 19.7109 10.625C19.1016 11.6562 18.2812 12.4766 17.25 13.0859C16.2188 13.6953 15.0938 14 13.875 14H7.125C5.90625 14 4.78125 13.6953 3.75 13.0859C2.71875 12.4766 1.89844 11.6562 1.28906 10.625C0.679688 9.59375 0.375 8.46875 0.375 7.25C0.375 6.03125 0.679688 4.90625 1.28906 3.875C1.89844 2.84375 2.71875 2.02344 3.75 1.41406C4.78125 0.804688 5.90625 0.5 7.125 0.5H13.875C15.0938 0.5 16.2188 0.804688 17.25 1.41406C18.2812 2.02344 19.1016 2.84375 19.7109 3.875C20.3203 4.90625 20.625 6.03125 20.625 7.25ZM13.875 2.75C13.0547 2.75 12.293 2.94922 11.5898 3.34766C10.9102 3.74609 10.3711 4.29688 9.97266 5C9.57422 5.67969 9.375 6.42969 9.375 7.25C9.375 8.07031 9.57422 8.83203 9.97266 9.53516C10.3711 10.2148 10.9102 10.7539 11.5898 11.1523C12.293 11.5508 13.0547 11.75 13.875 11.75C14.6953 11.75 15.4453 11.5508 16.125 11.1523C16.8281 10.7539 17.3789 10.2148 17.7773 9.53516C18.1758 8.83203 18.375 8.07031 18.375 7.25C18.375 6.42969 18.1758 5.67969 17.7773 5C17.3789 4.29688 16.8281 3.74609 16.125 3.34766C15.4453 2.94922 14.6953 2.75 13.875 2.75Z" fill="white"/>
</svg>
