<svg width="9" height="7" viewBox="0 0 9 7" fill="none" xmlns="http://www.w3.org/2000/svg">
<path d="M7.79477 2.22037C7.85984 2.15399 7.91145 2.07518 7.94666 1.98845C7.98188 1.90172 8 1.80876 8 1.71488C8 1.621 7.98188 1.52804 7.94666 1.4413C7.91145 1.35457 7.85984 1.27576 7.79477 1.20938C7.7297 1.143 7.65246 1.09034 7.56744 1.05442C7.48243 1.01849 7.39131 1 7.29929 1C7.20727 1 7.11616 1.01849 7.03114 1.05442C6.94613 1.09034 6.86889 1.143 6.80382 1.20938L3.80018 4.27519L2.19618 2.63733C2.13112 2.57095 2.05387 2.51829 1.96886 2.48237C1.88384 2.44644 1.79273 2.42795 1.70071 2.42795C1.60869 2.42795 1.51757 2.44644 1.43256 2.48237C1.34754 2.51829 1.2703 2.57095 1.20523 2.63733C1.14017 2.70371 1.08855 2.78252 1.05334 2.86925C1.01812 2.95599 1 3.04895 1 3.14283C1 3.2367 1.01812 3.32966 1.05334 3.4164C1.08855 3.50313 1.14017 3.58194 1.20523 3.64832L3.3047 5.79024C3.36971 5.85673 3.44694 5.90949 3.53196 5.94548C3.61698 5.98147 3.70813 6 3.80018 6C3.89223 6 3.98338 5.98147 4.0684 5.94548C4.15342 5.90949 4.23064 5.85673 4.29565 5.79024L7.79477 2.22037Z" fill="#171002" stroke="#171002" stroke-width="0.5"/>
</svg>
