<svg width="37" height="37" viewBox="0 0 37 37" fill="#EF6868" xmlns="http://www.w3.org/2000/svg">
<path d="M16.6514 9.25H20.3514V22.2H16.6514V9.25ZM16.6514 24.05H20.3514V27.75H16.6514V24.05Z" />
<path d="M36.458 9.79205L27.208 0.542052C27.0364 0.369923 26.8326 0.233416 26.6081 0.140388C26.3836 0.0473602 26.143 -0.000350481 25.9 1.9382e-06H11.1C10.857 -0.000350481 10.6164 0.0473602 10.3919 0.140388C10.1674 0.233416 9.96356 0.369923 9.79205 0.542052L0.542052 9.79205C0.369923 9.96356 0.233416 10.1674 0.140388 10.3919C0.0473602 10.6164 -0.000350481 10.857 1.9382e-06 11.1V25.9C1.9382e-06 26.3921 0.194252 26.862 0.542052 27.208L9.79205 36.458C9.96356 36.6301 10.1674 36.7666 10.3919 36.8596C10.6164 36.9526 10.857 37.0004 11.1 37H25.9C26.3921 37 26.862 36.8058 27.208 36.458L36.458 27.208C36.6301 27.0364 36.7666 26.8326 36.8596 26.6081C36.9526 26.3836 37.0004 26.143 37 25.9V11.1C37.0004 10.857 36.9526 10.6164 36.8596 10.3919C36.7666 10.1674 36.6301 9.96356 36.458 9.79205ZM33.3 25.1341L25.1341 33.3H11.8659L3.7 25.1341V11.8659L11.8659 3.7H25.1341L33.3 11.8659V25.1341Z"/>
</svg>
