<svg width="78" height="78" viewBox="0 0 78 78" fill="none" xmlns="http://www.w3.org/2000/svg">
	<g filter="url(#filter0_d)">
		<path fill-rule="evenodd" clip-rule="evenodd"
			d="M39 61C51.1503 61 61 51.1503 61 39C61 26.8497 51.1503 17 39 17C26.8497 17 17 26.8497 17 39C17 51.1503 26.8497 61 39 61ZM39 63C52.2548 63 63 52.2548 63 39C63 25.7452 52.2548 15 39 15C25.7452 15 15 25.7452 15 39C15 52.2548 25.7452 63 39 63Z"
			fill="#FF1E39" />
	</g>
	<path
		d="M46 33.41L44.59 32L39 37.59L33.41 32L32 33.41L37.59 39L32 44.59L33.41 46L39 40.41L44.59 46L46 44.59L40.41 39L46 33.41Z"
		fill="#FF1E39" />
	<defs>
		<filter id="filter0_d" x="0" y="0" width="78" height="78" filterUnits="userSpaceOnUse"
			color-interpolation-filters="sRGB">
			<feFlood flood-opacity="0" result="BackgroundImageFix" />
			<feColorMatrix in="SourceAlpha" type="matrix" values="0 0 0 0 0 0 0 0 0 0 0 0 0 0 0 0 0 0 127 0" />
			<feOffset />
			<feGaussianBlur stdDeviation="7.5" />
			<feColorMatrix type="matrix" values="0 0 0 0 1 0 0 0 0 0.116667 0 0 0 0 0.222667 0 0 0 0.6 0" />
			<feBlend mode="normal" in2="BackgroundImageFix" result="effect1_dropShadow" />
			<feBlend mode="normal" in="SourceGraphic" in2="effect1_dropShadow" result="shape" />
		</filter>
	</defs>
</svg>
