<svg width="307" height="79" viewBox="0 0 307 79" fill="none" xmlns="http://www.w3.org/2000/svg">
<g clip-path="url(#clip0_327_5132)">
<path d="M399.845 61.1706L380.17 45.0067L363.382 31.2463L348.944 19.4088L336.32 9.07344L325.24 0H294.081H293.209H262.923H262.117H231.765H231.026H200.607H199.935H169.516H168.844H138.357H137.686H107.266H106.595H76.1751H75.4364H45.084H44.2782H13.9929H13.1199H-18.0383L-29.1183 9.07344L-41.7428 19.4088L-57.0533 31.8472L-73.1025 45.0067L-93.5165 61.7715L-116.952 81H-67.7976H-66.9246H-18.7099H-17.904H30.3778H31.1165H79.4655H80.137H128.553H129.225H177.641H178.312H226.729H227.4H275.749H276.488H324.904H325.71H373.925H374.798H423.952L399.845 61.1706ZM-39.3925 53.4191L-31.6029 45.6677H8.75507L2.71145 53.4191L-3.33218 61.1706H-47.1149L-39.3925 53.4191ZM4.25594 9.67433H36.6901L32.9296 14.5415L29.1691 19.4088H-5.48103L-0.646126 14.5415L4.25594 9.67433ZM307.646 14.5415L312.481 19.4088H277.898L274.138 14.5415L270.377 9.67433H302.811L307.646 14.5415ZM338.066 45.0067H297.842L292.738 38.3969L287.635 31.7871H324.971L331.552 38.3969L338.066 45.0067ZM15.1345 38.457L20.238 31.8472H57.6413L54.0152 38.457L50.389 45.0668H10.031L15.1345 38.457ZM29.4377 20.0096H64.2222L61.1332 25.658L58.0442 31.3064H20.708L25.0729 25.658L29.4377 20.0096ZM281.927 25.658L286.292 31.3064H249.023L245.934 25.658L242.845 20.0096H277.629L281.927 25.658ZM245.195 25.658L248.284 31.3064H210.948L209.068 25.658L207.188 20.0096H242.039L245.195 25.658ZM208.396 25.658L210.276 31.3064H172.873L172.269 25.658L171.664 20.0096H206.516L208.396 25.658ZM171.597 25.658L172.202 31.3064H134.798L135.403 25.658L136.007 20.0096H170.926L171.597 25.658ZM134.798 25.658L134.194 31.3064H96.7906L98.6708 25.658L100.551 20.0096H135.403L134.798 25.658ZM97.9322 25.658L96.0519 31.3064H58.7157L61.8047 25.658L64.8937 20.0096H99.7453L97.9322 25.658ZM54.7538 38.457L58.38 31.8472H95.8505L93.6345 38.457L91.4185 45.0668H51.0605L54.7538 38.457ZM94.3732 38.457L96.5891 31.8472H134.127L133.388 38.457L132.649 45.0668H92.2243L94.3732 38.457ZM134.06 38.457L134.798 31.8472H172.336L173.075 38.457L173.813 45.0668H133.388L134.06 38.457ZM173.679 38.457L172.94 31.8472H210.478L212.694 38.457L214.91 45.0668H174.485L173.679 38.457ZM213.365 38.457L211.149 31.8472H248.62L252.246 38.457L255.872 45.0668H215.514L213.365 38.457ZM253.052 38.457L249.426 31.8472H286.829L291.933 38.457L297.036 45.0668H256.678L253.052 38.457ZM324.367 31.2463H287.165L282.8 25.5979L278.435 19.9496H313.152L318.793 25.5979L324.367 31.2463ZM273.332 14.5415L277.092 19.4088H242.442L239.756 14.5415L237.07 9.67433H269.571L273.332 14.5415ZM239.017 14.5415L241.703 19.4088H206.986L205.374 14.5415L203.763 9.67433H236.331L239.017 14.5415ZM204.703 14.5415L206.315 19.4088H171.597L171.06 14.5415L170.523 9.67433H203.091L204.703 14.5415ZM170.389 14.5415L170.926 19.4088H136.141L136.679 14.5415L137.216 9.67433H169.784L170.389 14.5415ZM136.007 14.5415L135.47 19.4088H100.753L102.364 14.5415L103.976 9.67433H136.544L136.007 14.5415ZM101.626 14.5415L100.014 19.4088H65.2966L67.9826 14.5415L70.6687 9.67433H103.237L101.626 14.5415ZM67.244 14.5415L64.5579 19.4088H29.9078L33.6683 14.5415L37.4287 9.67433H69.93L67.244 14.5415ZM-6.08538 20.0096H28.6319L24.2671 25.658L19.9022 31.3064H-17.2997L-11.659 25.658L-6.08538 20.0096ZM-17.904 31.8472H19.4322L14.3286 38.457L9.22514 45.0668H-30.9986L-24.4177 38.457L-17.904 31.8472ZM3.51727 53.4191L9.56089 45.6677H50.0532L45.7555 53.4191L41.4578 61.1706H-2.45921L3.51727 53.4191ZM46.4942 53.4191L50.7919 45.6677H91.2842L88.6653 53.4191L86.0464 61.1706H42.1965L46.4942 53.4191ZM89.4039 53.4191L92.0229 45.6677H132.582L131.709 53.4191L130.836 61.1706H86.8522L89.4039 53.4191ZM132.381 53.4191L133.254 45.6677H173.813L174.686 53.4191L175.559 61.1706H131.508L132.381 53.4191ZM175.358 53.4191L174.485 45.6076H215.044L220.215 61.1706H176.231L175.358 53.4191ZM215.716 45.6076H256.208L260.506 53.3591L264.803 61.1105H220.819L215.716 45.6076ZM261.312 53.4191L257.014 45.6677H297.506L303.55 53.4191L309.593 61.1706H265.676L261.312 53.4191ZM304.289 53.4191L298.245 45.6677H338.603L346.392 53.4191L354.182 61.1706H310.332L304.289 53.4191ZM355.055 61.1706L347.265 53.4191L339.476 45.6677H379.767L398.703 61.2307H355.055V61.1706ZM338.939 45.0067L332.358 38.3969L325.777 31.7871H363.046L379.095 44.9466H338.939V45.0067ZM325.24 31.2463L319.599 25.5979L313.958 19.9496H348.608L362.374 31.2463H325.24ZM313.421 19.4088L308.586 14.5415L303.751 9.67433H336.051L347.937 19.4088H313.421ZM324.971 0.60089L335.312 9.07344H303.147L298.916 4.80712L294.619 0.60089H324.971ZM263.326 0.60089H293.746L297.976 4.86721L302.207 9.13353H269.907L266.617 4.86721L263.326 0.60089ZM262.52 0.60089L265.811 4.86721L269.101 9.13353H236.734L234.384 4.86721L232.034 0.60089H262.52ZM231.295 0.60089L233.645 4.86721L235.995 9.13353H203.561L202.151 4.86721L200.741 0.60089H231.295ZM169.516 0.60089H200.069L201.48 4.86721L202.89 9.13353H170.456L169.986 4.86721L169.516 0.60089ZM168.844 0.60089L169.314 4.86721L169.784 9.13353H137.35L137.82 4.86721L138.223 0.60089H168.844ZM106.998 0.60089H137.552L137.081 4.86721L136.611 9.13353H104.177L105.587 4.86721L106.998 0.60089ZM106.259 0.60089L104.849 4.86721L103.439 9.13353H71.0716L73.4219 4.86721L75.7722 0.60089H106.259ZM44.5468 0.60089H75.0335L72.6832 4.86721L70.3329 9.13353H37.9659L41.2564 4.86721L44.5468 0.60089ZM43.6738 0.60089L40.3834 4.86721L37.093 9.13353H4.79314L9.02369 4.86721L13.3214 0.60089H43.6738ZM-17.904 0.60089H12.3813L8.15072 4.86721L3.92017 9.13353H-28.2454L-17.904 0.60089ZM-28.984 9.67433H3.31582L-1.5191 14.5415L-6.354 19.4088H-40.8698L-28.984 9.67433ZM-41.6085 20.0096H-6.95835L-12.5991 25.658L-18.2398 31.3064H-55.3074L-41.6085 20.0096ZM-56.0461 31.8472H-18.777L-25.3578 38.457L-31.9387 45.0668H-72.0952L-56.0461 31.8472ZM-72.8339 45.6076H-32.5431L-40.3326 53.3591L-48.1222 61.1105H-91.7706L-72.8339 45.6076ZM-115.206 80.3991L-92.5093 61.7715H-48.6594L-57.9263 71.0853L-67.1932 80.3991H-115.206ZM-18.2398 80.3991H-66.3202L-57.0533 71.0853L-47.7864 61.7715H-3.80224L-11.0546 71.0853L-18.2398 80.3991ZM-17.434 80.3991L-10.1816 71.0853L-2.92927 61.7715H41.1221L35.9514 71.0853L30.7807 80.3991H-17.434ZM79.7341 80.3991H31.5194L36.6901 71.0853L41.8607 61.7715H85.9792L82.8903 71.0853L79.7341 80.3991ZM80.4728 80.3991L83.5618 71.0853L86.6507 61.7715H130.769L129.762 71.0853L128.755 80.3991H80.4728ZM177.641 80.3991H129.359L130.366 71.0853L131.374 61.7715H175.492L176.499 71.0853L177.641 80.3991ZM178.312 80.3991L177.305 71.0853L176.298 61.7715H220.416L226.594 80.3991H178.312ZM227.333 80.3991L221.155 61.7715H265.274L270.444 71.0853L275.615 80.3991H227.333ZM324.434 80.3991H276.286L271.116 71.0853L265.945 61.7715H309.996L317.249 71.0853L324.434 80.3991ZM325.24 80.3991L317.987 71.0853L310.802 61.7715H354.786L373.387 80.3991H325.24ZM374.26 80.3991L355.659 61.7715H399.509L422.206 80.3991H374.26Z" fill="url(#paint0_linear_327_5132)"/>
</g>
<defs>
<linearGradient id="paint0_linear_327_5132" x1="153.5" y1="2.5" x2="153.5" y2="81" gradientUnits="userSpaceOnUse">
<stop stop-color="#C79A60" stop-opacity="0"/>
<stop offset="0.497779" stop-color="#C89A5E" stop-opacity="0.16"/>
<stop offset="1" stop-color="#97EFF7" stop-opacity="0.22"/>
</linearGradient>
<clipPath id="clip0_327_5132">
<rect width="307" height="79" fill="white"/>
</clipPath>
</defs>
</svg>
