<svg width="152" height="109" viewBox="0 0 152 109" fill="none" xmlns="http://www.w3.org/2000/svg">
	<path opacity="0.15"
		d="M20.95 1.64999H21.95V0.649992H20.95V1.64999ZM20.95 89.7H19.95V90.7H20.95V89.7ZM70.3 89.7H71.3V88.7H70.3V89.7ZM70.3 108V109H71.3V108H70.3ZM1.6 108H0.600001V109H1.6V108ZM1.6 1.64999V0.649992H0.600001V1.64999H1.6ZM19.95 1.64999V89.7H21.95V1.64999H19.95ZM20.95 90.7H70.3V88.7H20.95V90.7ZM69.3 89.7V108H71.3V89.7H69.3ZM70.3 107H1.6V109H70.3V107ZM2.6 108V1.64999H0.600001V108H2.6ZM1.6 2.64999H20.95V0.649992H1.6V2.64999ZM79.5531 90.75L78.8554 90.0336L78.5531 90.328V90.75H79.5531ZM119.903 51.45L119.206 50.733L119.205 50.7336L119.903 51.45ZM127.253 41.55L128.175 41.9367L128.18 41.9264L127.253 41.55ZM125.153 22.35L124.474 23.0838L124.481 23.0907L124.489 23.0974L125.153 22.35ZM101.753 24L102.567 24.5813L102.574 24.5704L101.753 24ZM98.0031 37.05V38.05H99.0031V37.05H98.0031ZM78.9531 37.05H77.9531V38.05H78.9531V37.05ZM81.5031 22.5L82.4331 22.8677L82.4359 22.8604L81.5031 22.5ZM88.7031 11.4L88.0077 10.6814V10.6814L88.7031 11.4ZM99.9531 4.49999L100.295 5.43979L100.304 5.43638L100.314 5.43279L99.9531 4.49999ZM128.003 4.05L127.68 4.99635L128.003 4.05ZM145.703 20.1L144.786 20.4996L145.703 20.1ZM144.353 48.6L145.228 49.0841L145.232 49.0763L144.353 48.6ZM134.453 61.35L133.764 60.625L133.762 60.6274L134.453 61.35ZM103.403 91.05L102.712 90.3274L100.911 92.05H103.403V91.05ZM150.053 91.05H151.053V90.05H150.053V91.05ZM150.053 108V109H151.053V108H150.053ZM79.5531 108H78.5531V109H79.5531V108ZM80.2508 91.4664L120.601 52.1664L119.205 50.7336L78.8554 90.0336L80.2508 91.4664ZM120.6 52.167C124.253 48.6152 126.804 45.2065 128.175 41.9367L126.331 41.1633C125.102 44.0935 122.753 47.2848 119.206 50.733L120.6 52.167ZM128.18 41.9264C129.513 38.644 130.203 35.6138 130.203 32.85H128.203C128.203 35.2862 127.593 38.056 126.327 41.1736L128.18 41.9264ZM130.203 32.85C130.203 28.0479 128.786 24.2416 125.817 21.6026L124.489 23.0974C126.92 25.2584 128.203 28.4521 128.203 32.85H130.203ZM125.833 21.6162C122.908 18.9088 119.046 17.6 114.353 17.6V19.6C118.66 19.6 121.998 20.7912 124.474 23.0838L125.833 21.6162ZM114.353 17.6C108.25 17.6 103.68 19.4724 100.932 23.4296L102.574 24.5704C104.826 21.3276 108.656 19.6 114.353 19.6V17.6ZM100.939 23.4188C98.2948 27.1213 97.0031 31.686 97.0031 37.05H99.0031C99.0031 32.014 100.211 27.8787 102.567 24.5812L100.939 23.4188ZM98.0031 36.05H78.9531V38.05H98.0031V36.05ZM79.9531 37.05C79.9531 31.7551 80.7864 27.0327 82.4331 22.8676L80.5732 22.1323C78.8198 26.5673 77.9531 31.5449 77.9531 37.05H79.9531ZM82.4359 22.8604C84.0886 18.5828 86.4121 15.0087 89.3985 12.1186L88.0077 10.6814C84.7941 13.7913 82.3176 17.6172 80.5703 22.1396L82.4359 22.8604ZM89.3985 12.1186C92.3891 9.22447 96.0156 6.99589 100.295 5.43979L99.6114 3.5602C95.0907 5.2041 91.2171 7.57552 88.0077 10.6814L89.3985 12.1186ZM100.314 5.43279C104.583 3.78316 109.359 2.95 114.653 2.95V0.949997C109.148 0.949997 104.123 1.81683 99.5927 3.56719L100.314 5.43279ZM114.653 2.95C119.355 2.95 123.695 3.63549 127.68 4.99635L128.326 3.10365C124.112 1.66451 119.551 0.949997 114.653 0.949997V2.95ZM127.68 4.99635C131.662 6.35595 135.092 8.34011 137.984 10.9433L139.322 9.45671C136.215 6.65988 132.545 4.54404 128.326 3.10365L127.68 4.99635ZM137.984 10.9433C140.872 13.5426 143.14 16.7233 144.786 20.4996L146.62 19.7004C144.866 15.6767 142.434 12.2574 139.322 9.45671L137.984 10.9433ZM144.786 20.4996C146.424 24.2558 147.253 28.5168 147.253 33.3H149.253C149.253 28.2832 148.382 23.7442 146.62 19.7004L144.786 20.4996ZM147.253 33.3C147.253 38.5318 145.996 43.4683 143.474 48.1237L145.232 49.0763C147.911 44.1317 149.253 38.8682 149.253 33.3H147.253ZM143.478 48.1159C140.929 52.7242 137.692 56.8934 133.764 60.625L135.142 62.075C139.214 58.2066 142.577 53.8758 145.228 49.0841L143.478 48.1159ZM133.762 60.6274L102.712 90.3274L104.094 91.7726L135.144 62.0726L133.762 60.6274ZM103.403 92.05H150.053V90.05H103.403V92.05ZM149.053 91.05V108H151.053V91.05H149.053ZM150.053 107H79.5531V109H150.053V107ZM80.5531 108V90.75H78.5531V108H80.5531Z"
		fill="url(#paint0_linear)" />
	<defs>
		<linearGradient id="paint0_linear" x1="73" y1="-21" x2="73" y2="129" gradientUnits="userSpaceOnUse">
			<stop stop-color="#BE9461" />
			<stop offset="1" stop-color="#9C6C3C" />
		</linearGradient>
	</defs>
</svg>
