<svg width="180" height="129" viewBox="0 0 180 129" fill="none" xmlns="http://www.w3.org/2000/svg">
	<path opacity="0.15" d="M24.8092 1.95277H25.9934V0.769287H24.8092V1.95277ZM24.8092 106.159H23.625V107.342H24.8092V106.159ZM83.25 106.159H84.4342V104.975H83.25V106.159ZM83.25 127.817V129H84.4342V127.817H83.25ZM1.89472 127.817H0.71051V129H1.89472V127.817ZM1.89472 1.95277V0.769287H0.71051V1.95277H1.89472ZM23.625 1.95277V106.159H25.9934V1.95277H23.625ZM24.8092 107.342H83.25V104.975H24.8092V107.342ZM82.0658 106.159V127.817H84.4342V106.159H82.0658ZM83.25 126.633H1.89472V129H83.25V126.633ZM3.07893 127.817V1.95277H0.71051V127.817H3.07893ZM1.89472 3.13626H24.8092V0.769287H1.89472V3.13626ZM94.2076 107.401L93.3814 106.554L93.0234 106.902V107.401H94.2076ZM141.99 60.8904L141.165 60.0418L141.164 60.0426L141.99 60.8904ZM150.694 49.1739L151.786 49.6315L151.792 49.6193L150.694 49.1739ZM148.207 26.4509L147.403 27.3194L147.412 27.3276L147.421 27.3355L148.207 26.4509ZM120.497 28.4037L121.461 29.0917L121.469 29.0788L120.497 28.4037ZM116.056 43.8482V45.0317H117.24V43.8482H116.056ZM93.4971 43.8482H92.3129V45.0317H93.4971V43.8482ZM96.5168 26.6285L97.6181 27.0636L97.6214 27.055L96.5168 26.6285ZM105.043 13.4918L104.22 12.6413L105.043 13.4918ZM118.366 5.32571L118.77 6.43795L118.781 6.43391L118.793 6.42966L118.366 5.32571ZM151.582 4.79315L151.2 5.91314L151.582 4.79315ZM172.543 23.7881L171.457 24.261L172.543 23.7881ZM170.944 57.5175L171.981 58.0904L171.985 58.0812L170.944 57.5175ZM159.221 72.6069L158.405 71.7489L158.402 71.7517L159.221 72.6069ZM122.451 107.756L121.633 106.901L119.5 108.94H122.451V107.756ZM177.694 107.756H178.879V106.573H177.694V107.756ZM177.694 127.817V129H178.879V127.817H177.694ZM94.2076 127.817H93.0234V129H94.2076V127.817ZM95.0338 108.249L142.817 61.7382L141.164 60.0426L93.3814 106.554L95.0338 108.249ZM142.816 61.739C147.142 57.5354 150.163 53.5013 151.786 49.6315L149.602 48.7162C148.147 52.1841 145.365 55.9609 141.165 60.0418L142.816 61.739ZM151.792 49.6193C153.371 45.7347 154.188 42.1485 154.188 38.8775H151.819C151.819 41.7608 151.097 45.0388 149.598 48.7284L151.792 49.6193ZM154.188 38.8775C154.188 33.1943 152.51 28.6896 148.994 25.5664L147.421 27.3355C150.3 29.893 151.819 33.6727 151.819 38.8775H154.188ZM149.013 25.5825C145.549 22.3783 140.976 20.8294 135.418 20.8294V23.1964C140.518 23.1964 144.471 24.6061 147.403 27.3194L149.013 25.5825ZM135.418 20.8294C128.191 20.8294 122.779 23.0453 119.525 27.7286L121.469 29.0788C124.136 25.241 128.672 23.1964 135.418 23.1964V20.8294ZM119.533 27.7159C116.402 32.0977 114.872 37.5 114.872 43.8482H117.24C117.24 37.8882 118.671 32.9941 121.461 29.0915L119.533 27.7159ZM116.056 42.6647H93.4971V45.0317H116.056V42.6647ZM94.6813 43.8482C94.6813 37.5818 95.6681 31.9929 97.6181 27.0635L95.4156 26.1933C93.3392 31.4421 92.3129 37.333 92.3129 43.8482H94.6813ZM97.6214 27.055C99.5786 21.9925 102.33 17.7626 105.867 14.3422L104.22 12.6413C100.414 16.3218 97.4814 20.8497 95.4122 26.2019L97.6214 27.055ZM105.867 14.3422C109.408 10.9171 113.703 8.27957 118.77 6.43795L117.961 4.21348C112.607 6.15901 108.02 8.96555 104.22 12.6413L105.867 14.3422ZM118.793 6.42966C123.848 4.47735 129.504 3.49131 135.773 3.49131V1.12434C129.254 1.12434 123.304 2.15022 117.939 4.22175L118.793 6.42966ZM135.773 3.49131C141.341 3.49131 146.481 4.30258 151.2 5.91314L151.965 3.67316C146.975 1.96996 141.574 1.12434 135.773 1.12434V3.49131ZM151.2 5.91314C155.916 7.52221 159.977 9.87044 163.402 12.9513L164.987 11.1919C161.307 7.88191 156.961 5.37784 151.965 3.67316L151.2 5.91314ZM163.402 12.9513C166.822 16.0275 169.508 19.7918 171.457 24.261L173.629 23.3152C171.552 18.5532 168.672 14.5065 164.987 11.1919L163.402 12.9513ZM171.457 24.261C173.397 28.7064 174.379 33.7493 174.379 39.4101H176.747C176.747 33.4728 175.715 28.101 173.629 23.3152L171.457 24.261ZM174.379 39.4101C174.379 45.6019 172.89 51.4442 169.903 56.9538L171.985 58.0812C175.158 52.2293 176.747 46 176.747 39.4101H174.379ZM169.908 56.9445C166.89 62.3984 163.056 67.3326 158.405 71.7489L160.037 73.4649C164.859 68.8867 168.841 63.7613 171.981 58.0904L169.908 56.9445ZM158.402 71.7517L121.633 106.901L123.269 108.612L160.039 73.4621L158.402 71.7517ZM122.451 108.94H177.694V106.573H122.451V108.94ZM176.51 107.756V127.817H178.879V107.756H176.51ZM177.694 126.633H94.2076V129H177.694V126.633ZM95.3918 127.817V107.401H93.0234V127.817H95.3918Z" fill="url(#paint0_linear)"/>
	<defs>
		<linearGradient id="paint0_linear" x1="86.4473" y1="-24.8532" x2="86.4473" y2="152.67" gradientUnits="userSpaceOnUse">
			<stop stop-color="#BE9461"/>
			<stop offset="1" stop-color="#9C6C3C"/>
		</linearGradient>
	</defs>
</svg>
