<svg width="16" height="16" viewBox="0 0 16 16" fill="none" xmlns="http://www.w3.org/2000/svg">
<path fill-rule="evenodd" clip-rule="evenodd" d="M13.2006 8.96166H14.6147C14.7042 8.96163 14.7901 8.99654 14.8541 9.05895C14.9182 9.12137 14.9553 9.20634 14.9576 9.29575V14.6483C14.9573 14.7314 14.925 14.8111 14.8675 14.871L14.8569 14.8816C14.7962 14.9388 14.7158 14.9704 14.6324 14.97H1.33409C1.25067 14.9698 1.17069 14.9368 1.11136 14.8781H1.10076L1.09192 14.8675C1.0339 14.8078 1.001 14.728 1 14.6448V1.33409C1.00026 1.25067 1.03327 1.17069 1.09192 1.11136L1.10076 1.10076L1.11136 1.09192C1.17069 1.03327 1.25067 1.00026 1.33409 1H6.67781C6.723 1.00114 6.76752 1.01121 6.80881 1.02962C6.85009 1.04803 6.88733 1.07443 6.91838 1.10728C6.94943 1.14014 6.97368 1.17881 6.98973 1.22107C7.00578 1.26333 7.01331 1.30835 7.0119 1.35354V2.76769C7.01331 2.81287 7.00578 2.85789 6.98973 2.90015C6.97368 2.94241 6.94943 2.98108 6.91838 3.01394C6.88733 3.0468 6.85009 3.07319 6.80881 3.0916C6.76752 3.11001 6.723 3.12008 6.67781 3.12122H3.11062V12.8647H12.847V9.29575C12.8482 9.25056 12.8582 9.20604 12.8767 9.16475C12.8951 9.12346 12.9215 9.08622 12.9543 9.05517C12.9872 9.02412 13.0258 8.99988 13.0681 8.98383C13.1104 8.96778 13.1554 8.96024 13.2006 8.96166ZM9.14345 1.00684H14.6127C14.6592 1.00661 14.7054 1.01558 14.7485 1.03324C14.7916 1.05091 14.8308 1.07691 14.8638 1.10976C14.8968 1.14261 14.923 1.18167 14.9409 1.22468C14.9588 1.26768 14.968 1.3138 14.968 1.36038V6.75005C14.968 6.84382 14.9307 6.93374 14.8644 7.00004C14.7981 7.06634 14.7082 7.10359 14.6144 7.10359H13.2003C13.1065 7.10359 13.0166 7.06634 12.9503 7.00004C12.884 6.93374 12.8467 6.84382 12.8467 6.75005V4.62883L8.24546 9.06572C8.1793 9.13103 8.09007 9.16765 7.9971 9.16765C7.90414 9.16765 7.81491 9.13103 7.74874 9.06572L6.75 8.06521C6.7166 8.03231 6.69007 7.9931 6.67196 7.94986C6.65386 7.90661 6.64453 7.8602 6.64453 7.81331C6.64453 7.76643 6.65386 7.72002 6.67196 7.67677C6.69007 7.63353 6.7166 7.59432 6.75 7.56142L11.346 3.12806H9.14345C9.04968 3.12806 8.95976 3.09082 8.89346 3.02451C8.82716 2.95821 8.78991 2.86829 8.78991 2.77453V1.36038C8.78991 1.26661 8.82716 1.17669 8.89346 1.11039C8.95976 1.04409 9.04968 1.00684 9.14345 1.00684Z" fill="currentColor"/>
</svg>
