<svg width="14" height="8" viewBox="0 0 14 8" fill="none" xmlns="http://www.w3.org/2000/svg">
<path d="M-9.40661e-05 3.97657C6.05213e-05 2.92237 0.418749 1.91135 1.16397 1.1657C1.90918 0.420044 2.91995 0.000761017 3.97416 -1.18438e-05L10.0239 -1.13149e-05C11.0786 -1.12227e-05 12.09 0.418949 12.8358 1.1647C13.5815 1.91046 14.0005 2.92192 14.0005 3.97657C14.0005 5.03123 13.5815 6.04269 12.8358 6.78844C12.09 7.5342 11.0786 7.95316 10.0239 7.95316L3.97707 7.95315C2.92287 7.953 1.91185 7.53431 1.1662 6.78909C0.420546 6.04388 0.00126197 5.03311 0.000488629 3.9789L-9.40661e-05 3.97657ZM3.97649 6.62782C4.32443 6.62782 4.66896 6.55929 4.99041 6.42614C5.31186 6.29299 5.60394 6.09783 5.84997 5.8518C6.096 5.60577 6.29116 5.31369 6.42431 4.99224C6.55746 4.67079 6.62599 4.32626 6.62599 3.97832C6.62599 3.63038 6.55746 3.28585 6.42431 2.9644C6.29116 2.64295 6.096 2.35087 5.84997 2.10484C5.60394 1.85881 5.31186 1.66365 4.99041 1.5305C4.66896 1.39735 4.32443 1.32882 3.97649 1.32882C3.62855 1.32874 3.28401 1.3972 2.96252 1.53028C2.64104 1.66336 2.34892 1.85845 2.10284 2.10443C1.85676 2.3504 1.66153 2.64244 1.52831 2.96386C1.39509 3.28529 1.32648 3.6298 1.32641 3.97774C1.32633 4.32568 1.39478 4.67022 1.52786 4.9917C1.66094 5.31318 1.85604 5.60531 2.10201 5.85139C2.34799 6.09747 2.64002 6.2927 2.96145 6.42592C3.28287 6.55914 3.62739 6.62774 3.97532 6.62782L3.97649 6.62782Z" fill="#787878"/>
</svg>
