<svg width="14" height="11" viewBox="0 0 14 11" fill="none" xmlns="http://www.w3.org/2000/svg">
<path d="M2.5 1H11.5C11.8978 1 12.2794 1.15804 12.5607 1.43934C12.842 1.72064 13 2.10218 13 2.5V9.25C13 9.44891 12.921 9.63968 12.7803 9.78033C12.6397 9.92098 12.4489 10 12.25 10H10.75C10.5511 10 10.3603 9.92098 10.2197 9.78033C10.079 9.63968 10 9.44891 10 9.25V7.75C10 6.95435 9.68393 6.19129 9.12132 5.62868C8.55871 5.06607 7.79565 4.75 7 4.75C6.20435 4.75 5.44129 5.06607 4.87868 5.62868C4.31607 6.19129 4 6.95435 4 7.75V9.25C4 9.44891 3.92098 9.63968 3.78033 9.78033C3.63968 9.92098 3.44891 10 3.25 10H1.75C1.55109 10 1.36032 9.92098 1.21967 9.78033C1.07902 9.63968 1 9.44891 1 9.25V2.5C1 2.10218 1.15804 1.72064 1.43934 1.43934C1.72064 1.15804 2.10218 1 2.5 1" stroke="#787878" stroke-linecap="round" stroke-linejoin="round"/>
</svg>
