<svg width="11" height="11" viewBox="0 0 11 11" fill="none" xmlns="http://www.w3.org/2000/svg">
<path d="M10.0921 0.908833C8.88049 -0.302944 6.91978 -0.302944 5.70955 0.908833L4.68691 1.93157C4.48522 2.13328 4.48522 2.4603 4.68691 2.66201C4.88863 2.86375 5.2157 2.86375 5.41742 2.66201L6.43999 1.63934C7.21052 0.868727 8.51098 0.787083 9.36172 1.63934C10.2139 2.49159 10.1323 3.79075 9.36172 4.56136L8.33979 5.58338C8.13771 5.78549 8.13771 6.11314 8.33979 6.31525C8.5419 6.51738 8.86962 6.51738 9.07173 6.31525L10.0936 5.29329C11.3024 4.08151 11.3024 2.12061 10.0921 0.908833ZM4.56234 9.36263C3.79181 10.1332 2.49135 10.2149 1.64061 9.36263C0.788438 8.51038 0.870075 7.21122 1.64061 6.44061L2.66254 5.41859C2.86462 5.21648 2.86462 4.88883 2.66254 4.68672C2.46042 4.48459 2.13271 4.48459 1.9306 4.68672L0.908745 5.70868C-0.302915 6.92045 -0.302915 8.88136 0.908745 10.0917C2.1204 11.302 4.08112 11.3035 5.29134 10.0917L6.31417 9.06877C6.51576 8.86717 6.51576 8.54032 6.31417 8.33872C6.11241 8.13694 5.78522 8.1371 5.58367 8.33909L4.56234 9.36263ZM1.89555 1.16666C1.87401 1.14533 1.84493 1.13337 1.81462 1.13337C1.78432 1.13337 1.75524 1.14533 1.7337 1.16666L1.16654 1.73387C1.14522 1.75541 1.13326 1.78449 1.13326 1.8148C1.13326 1.84511 1.14522 1.87419 1.16654 1.89573L9.10678 9.83674C9.15118 9.88115 9.22422 9.88115 9.26862 9.83674L9.83578 9.26953C9.88018 9.22512 9.88018 9.15207 9.83578 9.10767L1.89555 1.16666Z" fill="#787878"/>
</svg>
