<svg fill="none" height="13" viewBox="0 0 11 13" width="11" xmlns="http://www.w3.org/2000/svg"><path d="m4.40008.708c.07158.088963.11543.197837.12589.31256.01046.11471-.01296.23-.06723.33097-.42397.79614-.64539 1.68854-.64387 2.59511 0 3.01587 2.4039 5.45797 5.36662 5.45797.38647 0 .76268-.04125 1.12421-.12.1108-.02455.2263-.01516.3319.02699.1057.04215.1968.1152.2621.21002.0689.09859.1041.21771.1.33884s-.0473.23744-.1227.33094c-.5752.7226-1.30079 1.3048-2.1239 1.7042-.82312.3994-1.72301.6059-2.63406.6044-3.38073 0-6.11904-2.78562-6.11904-6.21777 0-2.5831 1.55029-4.7987 3.75766-5.737737.10996-.047528.23203-.057283.34787-.027799.11584.029483.21919.096614.29455.191306z"/></svg>