<svg width="10" height="10" viewBox="0 0 10 10" fill="#fff" xmlns="http://www.w3.org/2000/svg">
<path d="M6.14361 3.34444L6.65465 3.85556L1.622 8.88889H1.11096V8.37778L6.14361 3.34444ZM8.14334 0C8.00447 0 7.86004 0.0555555 7.7545 0.161111L6.73797 1.17778L8.82102 3.26111L9.83755 2.24444C9.88905 2.19305 9.9299 2.132 9.95778 2.06479C9.98565 1.99758 10 1.92554 10 1.85278C10 1.78002 9.98565 1.70797 9.95778 1.64076C9.9299 1.57356 9.88905 1.51251 9.83755 1.46111L8.53773 0.161111C8.42663 0.05 8.28776 0 8.14334 0ZM6.14361 1.77222L0 7.91667V10H2.08305L8.22666 3.85556L6.14361 1.77222Z" />
</svg>
