<svg width="19" height="19" viewBox="0 0 19 19" fill="none" xmlns="http://www.w3.org/2000/svg">
<path d="M0.498779 14.4624V17.5024C0.498779 17.7824 0.718779 18.0024 0.998779 18.0024H4.03878C4.16878 18.0024 4.29878 17.9524 4.38878 17.8524L15.3088 6.94244L11.5588 3.19244L0.648779 14.1024C0.548779 14.2024 0.498779 14.3224 0.498779 14.4624ZM18.2088 4.04244C18.3015 3.94993 18.375 3.84004 18.4252 3.71907C18.4754 3.59809 18.5012 3.46841 18.5012 3.33744C18.5012 3.20648 18.4754 3.07679 18.4252 2.95582C18.375 2.83485 18.3015 2.72496 18.2088 2.63244L15.8688 0.292444C15.7763 0.19974 15.6664 0.126193 15.5454 0.0760114C15.4244 0.02583 15.2947 0 15.1638 0C15.0328 0 14.9031 0.02583 14.7822 0.0760114C14.6612 0.126193 14.5513 0.19974 14.4588 0.292444L12.6288 2.12244L16.3788 5.87244L18.2088 4.04244Z" fill="none"/>
</svg>
