<svg width="19" height="18" viewBox="0 0 19 18" fill="none" xmlns="http://www.w3.org/2000/svg">
<path d="M13.75 8V12M9.75 6V11M5.75 9V12M3.75 17H15.75C16.2804 17 16.7891 16.7893 17.1642 16.4142C17.5393 16.0391 17.75 15.5304 17.75 15V3C17.75 2.46957 17.5393 1.96086 17.1642 1.58579C16.7891 1.21071 16.2804 1 15.75 1H3.75C3.21957 1 2.71086 1.21071 2.33579 1.58579C1.96071 1.96086 1.75 2.46957 1.75 3V15C1.75 15.5304 1.96071 16.0391 2.33579 16.4142C2.71086 16.7893 3.21957 17 3.75 17Z" stroke="#787878" stroke-width="2" stroke-linecap="round" stroke-linejoin="round"/>
</svg>
