<svg width="12" height="12" viewBox="0 0 12 12" fill="#787878" xmlns="http://www.w3.org/2000/svg">
<path d="M5.4 9.6H6.6V8.4H5.4V9.6ZM6 0C2.688 0 0 2.688 0 6C0 9.312 2.688 12 6 12C9.312 12 12 9.312 12 6C12 2.688 9.312 0 6 0ZM6 10.8C3.354 10.8 1.2 8.646 1.2 6C1.2 3.354 3.354 1.2 6 1.2C8.646 1.2 10.8 3.354 10.8 6C10.8 8.646 8.646 10.8 6 10.8ZM6 2.4C4.674 2.4 3.6 3.474 3.6 4.8H4.8C4.8 4.14 5.34 3.6 6 3.6C6.66 3.6 7.2 4.14 7.2 4.8C7.2 6 5.4 5.85 5.4 7.8H6.6C6.6 6.45 8.4 6.3 8.4 4.8C8.4 3.474 7.326 2.4 6 2.4Z" />
</svg>
