<svg width="12" height="12" viewBox="0 0 12 12" fill="none" xmlns="http://www.w3.org/2000/svg">
<path fill-rule="evenodd" clip-rule="evenodd" d="M7.97665 7.50326H8.50332L11.83 10.8366L10.8367 11.8299L7.50332 8.50326V7.97659L7.32332 7.78992C6.56332 8.44326 5.57665 8.83659 4.50332 8.83659C2.10998 8.83659 0.169983 6.89659 0.169983 4.50326C0.169983 2.10992 2.10998 0.169922 4.50332 0.169922C6.89665 0.169922 8.83665 2.10992 8.83665 4.50326C8.83665 5.57659 8.44332 6.56326 7.78998 7.32326L7.97665 7.50326ZM1.50332 4.50326C1.50332 6.16326 2.84332 7.50326 4.50332 7.50326C6.16332 7.50326 7.50332 6.16326 7.50332 4.50326C7.50332 2.84326 6.16332 1.50326 4.50332 1.50326C2.84332 1.50326 1.50332 2.84326 1.50332 4.50326Z" fill="#787878"/>
</svg>
