<svg width="21" height="14" viewBox="0 0 21 14" fill="none" xmlns="http://www.w3.org/2000/svg">
<path d="M0.375 7.25C0.375 8.46875 0.679688 9.59375 1.28906 10.625C1.89844 11.6562 2.71875 12.4766 3.75 13.0859C4.78125 13.6953 5.90625 14 7.125 14H13.875C15.0938 14 16.2188 13.6953 17.25 13.0859C18.2812 12.4766 19.1016 11.6562 19.7109 10.625C20.3203 9.59375 20.625 8.46875 20.625 7.25C20.625 6.03125 20.3203 4.90625 19.7109 3.875C19.1016 2.84375 18.2812 2.02344 17.25 1.41406C16.2188 0.804688 15.0938 0.5 13.875 0.5H7.125C5.90625 0.5 4.78125 0.804688 3.75 1.41406C2.71875 2.02344 1.89844 2.84375 1.28906 3.875C0.679688 4.90625 0.375 6.03125 0.375 7.25ZM7.125 2.75C7.94531 2.75 8.70703 2.94922 9.41016 3.34766C10.0898 3.74609 10.6289 4.29688 11.0273 5C11.4258 5.67969 11.625 6.42969 11.625 7.25C11.625 8.07031 11.4258 8.83203 11.0273 9.53516C10.6289 10.2148 10.0898 10.7539 9.41016 11.1523C8.70703 11.5508 7.94531 11.75 7.125 11.75C6.30469 11.75 5.55469 11.5508 4.875 11.1523C4.17188 10.7539 3.62109 10.2148 3.22266 9.53516C2.82422 8.83203 2.625 8.07031 2.625 7.25C2.625 6.42969 2.82422 5.67969 3.22266 5C3.62109 4.29688 4.17188 3.74609 4.875 3.34766C5.55469 2.94922 6.30469 2.75 7.125 2.75Z" fill="white"/>
</svg>
