<svg width="17" height="18" viewBox="0 0 17 18" fill="none" xmlns="http://www.w3.org/2000/svg">
<path d="M8.75002 16.25C9.70228 16.2513 10.6454 16.0643 11.5252 15.6999C12.405 15.3354 13.204 14.8007 13.8765 14.1265C14.5507 13.454 15.0854 12.655 15.4499 11.7752C15.8143 10.8954 16.0013 9.95228 16 9.00002C16.0012 8.04776 15.8143 7.10464 15.4498 6.22487C15.0854 5.3451 14.5507 4.54601 13.8765 3.87353C13.204 3.19929 12.405 2.66459 11.5252 2.30017C10.6454 1.93574 9.70228 1.74877 8.75002 1.75001C7.79776 1.74879 6.85464 1.93577 5.97487 2.3002C5.0951 2.66462 4.29601 3.19931 3.62353 3.87353C2.94931 4.54601 2.41462 5.3451 2.0502 6.22487C1.68577 7.10464 1.49879 8.04776 1.50001 9.00002C1.49877 9.95228 1.68574 10.8954 2.05017 11.7752C2.41459 12.655 2.94929 13.454 3.62353 14.1265C4.29601 14.8007 5.0951 15.3354 5.97487 15.6998C6.85464 16.0643 7.79776 16.2512 8.75002 16.25V16.25Z" stroke="#787878" stroke-width="2" stroke-linejoin="round"/>
<path fill-rule="evenodd" clip-rule="evenodd" d="M8.75 4.28748C8.99035 4.28748 9.22086 4.38296 9.39082 4.55291C9.56077 4.72287 9.65625 4.95337 9.65625 5.19373C9.65625 5.43408 9.56077 5.66459 9.39082 5.83454C9.22086 6.0045 8.99035 6.09998 8.75 6.09998C8.50965 6.09998 8.27914 6.0045 8.10918 5.83454C7.93923 5.66459 7.84375 5.43408 7.84375 5.19373C7.84375 4.95337 7.93923 4.72287 8.10918 4.55291C8.27914 4.38296 8.50965 4.28748 8.75 4.28748Z" fill="#787878"/>
<path d="M9 12V8H8.42857M8 12H10" stroke="#787878" stroke-width="1.5" stroke-linecap="round" stroke-linejoin="round"/>
</svg>
