<svg fill="none" height="17" viewBox="0 0 17 17" width="17" xmlns="http://www.w3.org/2000/svg"><g><path d="m8.5 4.63636c-1.0247 0-2.00743.40706-2.732 1.13164-.72458.72457-1.13164 1.7073-1.13164 2.732s.40706 2.0074 1.13164 2.732c.72457.7246 1.7073 1.1316 2.732 1.1316s2.0074-.407 2.732-1.1316 1.1316-1.7073 1.1316-2.732-.407-2.00743-1.1316-2.732c-.7246-.72458-1.7073-1.13164-2.732-1.13164z"/><path clip-rule="evenodd" d="m8.5 0c.20494 0 .40149.0814121.5464.226327.14491.144914.22633.34146.22633.5464v.772723c0 .20494-.08142.40149-.22633.54641-.14491.14491-.34146.22632-.5464.22632s-.40149-.08141-.5464-.22632c-.14492-.14492-.22633-.34147-.22633-.54641v-.772723c0-.20494.08141-.401486.22633-.5464.14491-.1449149.34146-.226327.5464-.226327zm-6.72814 1.77186c.14491-.14486.34142-.22624.54632-.22624s.40141.08138.54632.22624l1.15909 1.15909c.14076.14574.21865.34094.21689.54354-.00177.20261-.08303.39642-.2263.53969s-.33708.22453-.53969.2263c-.2026.00176-.3978-.07613-.54354-.21689l-1.15909-1.15909c-.14486-.14491-.22624-.34142-.22624-.54632s.08138-.40141.22624-.54632zm13.45624 0c.1449.14491.2263.34142.2263.54632s-.0814.40141-.2263.54632l-1.1591 1.15909c-.0712.0738-.1565.13267-.2508.17317s-.1957.06181-.2983.06271c-.1026.00089-.2043-.01866-.2993-.05752-.0949-.03885-.1812-.09623-.2538-.16878-.0725-.07255-.1299-.15883-.1688-.2538-.0388-.09496-.0584-.19671-.0575-.29932.0009-.1026.0222-.204.0627-.29827.0405-.09428.0994-.17954.1732-.25083l1.1591-1.15909c.1449-.14486.3414-.22624.5463-.22624s.4014.08138.5463.22624zm-15.2281 6.72814c0-.20494.0814121-.40149.226327-.5464.144914-.14492.34146-.22633.5464-.22633h.772723c.20494 0 .40149.08141.54641.22633.14491.14491.22632.34146.22632.5464s-.08141.40149-.22632.5464c-.14492.14491-.34147.22633-.54641.22633h-.772723c-.20494 0-.401486-.08142-.5464-.22633-.1449149-.14491-.226327-.34146-.226327-.5464zm14.6818 0c0-.20494.0814-.40149.2263-.5464.145-.14492.3415-.22633.5464-.22633h.7728c.2049 0 .4015.08141.5464.22633.1449.14491.2263.34146.2263.5464s-.0814.40149-.2263.5464-.3415.22633-.5464.22633h-.7728c-.2049 0-.4014-.08142-.5464-.22633-.1449-.14491-.2263-.34146-.2263-.5464zm-10.65821 4.4764c.14486.1449.22624.3414.22624.5463s-.08138.4014-.22624.5463l-1.15909 1.1591c-.14574.1408-.34093.2187-.54354.2169-.2026-.0017-.39641-.083-.53968-.2263-.14327-.1432-.22454-.3371-.2263-.5397s.07613-.3978.21688-.5435l1.15909-1.1591c.14491-.1449.34142-.2262.54632-.2262s.40141.0813.54632.2262zm8.95281 0c.1449-.1449.3414-.2262.5463-.2262s.4014.0813.5463.2262l1.1591 1.1591c.1408.1457.2187.3409.2169.5435-.0017.2026-.083.3965-.2263.5397-.1432.1433-.3371.2246-.5397.2263-.2026.0018-.3978-.0761-.5435-.2169l-1.1591-1.1591c-.1449-.1449-.2262-.3414-.2262-.5463s.0813-.4014.2262-.5463zm-4.4764 1.7054c.20494 0 .40149.0814.5464.2263.14491.145.22633.3415.22633.5464v.7728c0 .2049-.08142.4015-.22633.5464s-.34146.2263-.5464.2263-.40149-.0814-.5464-.2263c-.14492-.1449-.22633-.3415-.22633-.5464v-.7728c0-.2049.08141-.4014.22633-.5464.14491-.1449.34146-.2263.5464-.2263z" fill-rule="evenodd"/></g></svg>