<svg fill="none" height="10" viewBox="0 0 8 10" width="8" xmlns="http://www.w3.org/2000/svg"><path clip-rule="evenodd" d="m6.84922 1.84313-.32563.32562c-.78445-.62671-1.7791-.92926-2.77966-.84553-1.00055.08374-1.93108.54741-2.60045 1.29578-.66938.74837-1.026801 1.72465-.99886 2.72831.02794 1.00367.439121 1.95855 1.1491 2.66852.70997.70998 1.66485 1.12116 2.66851 1.1491 1.00367.02794 1.97994-.32949 2.72832-.99886.74837-.66938 1.21204-1.5999 1.29577-2.60046.08374-1.00056-.21882-1.9952-.84553-2.77966l.32563-.32562c.17044-.17044.17044-.44677 0-.6172-.17044-.17044-.44677-.17044-.6172 0zm-1.60858 6.21793c-.37071.15355-.76803.23259-1.16928.23259-.81036 0-1.58753-.32192-2.16054-.89493s-.89492-1.35018-.89492-2.16054.32191-1.58753.89492-2.16054 1.35018-.89492 2.16054-.89492c.40125 0 .79857.07903 1.16928.23258.3707.15355.70754.37862.99126.66234.28373.28373.50879.62056.66234.99127.15356.3707.23259.76802.23259 1.16927s-.07903.79857-.23259 1.16928c-.15355.3707-.37861.70754-.66234.99126-.28372.28373-.62056.50879-.99126.66234zm-1.16928-5.00535c-.24107 0-.43649.19542-.43649.43649v.87299.65474.32738l.00103.00155c.00631.10213.04836.20249.1262.28074l.74972.75372c.17.17092.44638.17165.61729.00165.17091-.17001.17165-.44638.00164-.6173l-.62289-.62621v-1.64926c0-.24107-.19543-.43649-.4365-.43649zm-1.30948-3.05546586c-.24107 0-.4365.19542586-.4365.43649486s.19543.436495.4365.436495h2.61897c.24107 0 .43649-.195426.43649-.436495s-.19542-.43649486-.43649-.43649486z" fill="#ffdf6d" fill-rule="evenodd"/></svg>