<svg width="109" height="20" viewBox="0 0 109 20" fill="none" xmlns="http://www.w3.org/2000/svg">
<g clip-path="url(#clip0_264_12618)">
<path fill-rule="evenodd" clip-rule="evenodd" d="M43.088 0.0225066C43.0556 0.0416116 43.172 0.0730155 43.4095 0.109463C44.2419 0.237152 45.2867 0.550258 45.9679 0.876215C47.5273 1.62227 48.4817 2.7381 48.7655 4.14682C48.8931 4.78079 48.9372 6.67937 48.8628 8.35654C48.7368 11.2135 48.4065 13.8407 47.6056 18.3618C47.5077 18.9148 47.4276 19.3935 47.4276 19.4256C47.4276 19.48 47.7084 19.483 51.627 19.4717C55.3594 19.4608 55.8699 19.4529 56.218 19.4007C57.8787 19.1516 59.0816 18.7395 60.6852 17.8702C61.2917 17.5414 62.0978 17.0626 62.0449 17.0626C62.0231 17.0626 61.7281 17.1165 61.3897 17.1825C60.6486 17.3268 59.5872 17.4854 58.7987 17.5696C57.9664 17.6584 55.8931 17.659 55.2675 17.5705C53.6374 17.3399 52.5318 16.7797 52.1682 16C52.077 15.8039 52.0758 15.7868 52.0839 14.5578C52.0885 13.8738 52.122 11.5885 52.1583 9.47934C52.2365 4.93965 52.2299 4.49633 52.0806 4.05534C51.8415 3.34907 51.2688 2.55413 50.6112 2.01543C49.3488 0.981276 47.7906 0.365772 45.7119 0.0803396C45.2449 0.0162535 43.1753 -0.0293841 43.088 0.0225066ZM90.8778 3.39402C90.9104 3.42104 91.2516 3.63294 91.6357 3.86497C92.4934 4.38325 92.7884 4.5902 93.1704 4.9419C94.0511 5.75236 94.5679 6.70162 95.2277 8.71928C95.7976 10.4628 96.9023 14.5018 96.9023 14.8429C96.9023 14.9137 96.7784 14.8671 95.5356 14.3291C90.7146 12.2418 87.9462 10.7843 85.1519 8.86233C83.3047 7.59156 81.4243 6.01245 79.8491 4.40894C79.6106 4.16639 79.3779 3.96085 79.3314 3.95217C79.2283 3.93285 77.2494 3.71393 76.5337 3.64264C75.7896 3.56848 74.811 3.49248 74.2794 3.46753L73.8206 3.44599L74.1292 3.59519C75.9964 4.49774 78.4147 7.175 79.4761 9.51387C79.6617 9.92288 79.7569 10.2253 79.9228 10.9325C80.3429 12.7241 80.546 14.0026 80.6249 15.3539C80.7095 16.8001 80.5496 18.0125 80.0845 19.4523C80.0096 19.6847 79.9546 19.8805 79.9624 19.8875C79.9902 19.9114 80.8071 19.1811 81.077 18.8911C81.6796 18.244 82.2711 17.348 82.5806 16.6134C83.0269 15.5536 83.2352 14.1473 83.14 12.8391C83.0986 12.2715 83.0185 11.6193 82.9505 11.2935L82.9251 11.173L83.0611 11.2623C84.6922 12.3345 86.9486 13.538 89.7405 14.8253C91.8549 15.8001 95.0965 17.2271 95.8708 17.5237C99.061 18.7459 102.837 19.5069 106.598 19.6855C107.658 19.7358 108.569 19.7595 108.541 19.736C108.529 19.7248 108.306 19.6418 108.047 19.5514C105.79 18.765 103.779 17.7684 102.678 16.891C102.349 16.6287 101.942 16.1664 101.734 15.8188C101.649 15.6763 101.432 15.2099 101.252 14.7824C99.8263 11.3993 98.0383 7.44873 97.6766 6.88251C97.0201 5.855 95.7964 5.05122 93.722 4.28473C92.7993 3.94377 90.7756 3.31011 90.8778 3.39402ZM59.4412 3.6826C59.4107 3.6931 59.7247 3.79848 60.1394 3.91673C63.1144 4.7651 64.5013 5.71836 64.9438 7.21842C65.0535 7.59042 65.1423 8.2871 65.4219 10.9649C65.7335 13.9526 65.9275 15.6395 66.0025 16.0176C66.1076 16.5479 66.2857 16.9469 66.6006 17.3584C67.6574 18.74 69.9567 19.544 73.6611 19.827C74.2018 19.8683 76.5053 19.9154 76.4727 19.8846C76.4609 19.8735 76.084 19.7571 75.6349 19.6258C72.6181 18.7443 71.1034 17.929 70.4119 16.8146C70.0114 16.1694 69.9894 16.0539 69.3324 11.1204C69.0437 8.95331 68.8748 7.78744 68.7917 7.38919C68.6209 6.57248 68.2111 5.9206 67.5099 5.3502C66.3736 4.42617 64.6434 3.88504 62.2102 3.69279C61.7562 3.65694 59.5397 3.64879 59.4412 3.6826ZM11.3175 4.03771C12.4597 4.51562 13.6353 5.52359 14.112 6.43396C14.5676 7.30411 14.4819 8.44531 13.8875 9.42414C13.6458 9.82196 13.4411 10.0619 12.8638 10.624C9.51603 13.8836 5.26557 16.9499 0.868835 19.2772C0.49566 19.4748 0.21537 19.6412 0.245933 19.6471C0.331834 19.6637 5.52183 18.9751 9.04462 18.4798C12.2435 18.03 12.7696 17.9816 14.4908 17.9796C15.9339 17.978 16.2121 17.9977 16.9845 18.1567C18.0022 18.3661 18.8807 18.8005 19.3495 19.3261L19.5181 19.5152L20.9146 19.516C21.6826 19.5165 23.3054 19.5265 24.5207 19.5384C26.0007 19.5527 26.7253 19.5483 26.7152 19.525C26.7068 19.5058 26.5284 19.3897 26.3187 19.2669C24.248 18.055 22.7331 16.4269 21.8405 14.4542C21.144 12.9148 20.0332 10.2815 19.2539 8.32199C18.6444 6.78956 18.5815 6.65325 18.3363 6.3359C17.4276 5.15947 15.5837 4.31322 13.2141 3.98507C12.9741 3.95187 12.4492 3.92316 11.8974 3.91313L10.9797 3.89642L11.3175 4.03771ZM39.9663 4.87033C36.3545 5.171 32.6695 6.87482 30.5213 9.2375C28.9565 10.9585 28.2629 12.9513 28.5379 14.9365C28.72 16.2521 29.3141 17.5807 30.3251 18.9342L30.7298 19.4758L30.9891 19.5038C31.1318 19.5191 32.182 19.5319 33.3232 19.5322C35.0561 19.5327 35.5098 19.5224 36.0761 19.4699C37.6172 19.3273 39.0164 19.0656 40.3544 18.6701C41.0876 18.4533 42.1831 18.0636 42.5796 17.8785L42.7791 17.7853L42.6265 17.806C41.887 17.9063 41.492 17.9337 40.5421 17.9505C38.8535 17.9804 37.5981 17.8522 36.2209 17.5091C33.6003 16.8563 32.0106 15.6155 31.7075 13.986C31.6613 13.7375 31.6625 12.8404 31.709 12.8001C31.7211 12.7898 32.9508 12.7794 34.442 12.7771C36.7582 12.7734 37.2321 12.7812 37.6921 12.8306C38.7399 12.9432 39.7194 13.2127 40.7125 13.6616L41.1991 13.8816L41.4134 13.667C42.363 12.7158 43.1814 11.7327 43.5449 11.1069L43.7233 10.7999L43.4905 10.8216C41.5914 10.9986 37.8852 11.0747 34.2616 11.011C33.2198 10.9928 32.3612 10.9725 32.3537 10.9661C32.3256 10.9418 32.5945 10.4294 32.791 10.1328C33.1279 9.62371 33.4646 9.26485 33.9984 8.84636C35.4759 7.68707 37.5214 7.23411 39.6272 7.59987C40.41 7.7358 41.5083 8.1031 42.2348 8.47184C42.372 8.54144 42.5014 8.59836 42.5219 8.59836C42.5809 8.59836 42.5667 7.72347 42.5017 7.35463C42.3424 6.45134 41.8044 5.6747 40.8881 5.02556C40.5862 4.81159 40.6146 4.81636 39.9663 4.87033ZM15.8079 10.7064C16.1063 11.2195 16.3704 11.8928 16.7698 13.1587C17.1207 14.2707 17.3806 15.0228 17.5207 15.3307L17.6207 15.5507L17.5032 15.5304C17.1264 15.4651 16.4162 15.4324 15.7876 15.4514C14.3417 15.495 12.8485 15.6679 10.2067 16.0976C9.73768 16.1739 9.3473 16.2306 9.33923 16.2237C9.33122 16.2167 9.54057 16.0664 9.8045 15.8896C10.6766 15.3055 11.4464 14.7107 12.4194 13.869C13.7253 12.7393 14.512 11.9286 15.2961 10.9044C15.4815 10.6622 15.6409 10.4639 15.6501 10.4639C15.6593 10.4639 15.7303 10.573 15.8079 10.7064Z" fill="#ECE8E3"/>
</g>
<defs>
<clipPath id="clip0_264_12618">
<rect width="108.8" height="20" fill="white"/>
</clipPath>
</defs>
</svg>
