<svg width="108" height="38" viewBox="0 0 108 38" fill="none" xmlns="http://www.w3.org/2000/svg">
<g clip-path="url(#clip0_264_12523)">
<path d="M12.0526 0.20542C12.1039 0.388962 12.1892 0.7744 12.2404 1.08642C12.3087 1.38009 12.4794 1.89401 12.6331 2.22438C12.9233 2.81171 12.9233 2.81171 11.8649 5.1794C11.2844 6.4642 10.8064 7.65721 10.8064 7.80404C10.8064 8.02429 10.7723 8.02429 10.6528 7.80404C10.5333 7.60216 10.4479 7.74899 10.2772 8.31797C10.0723 9.05213 10.0894 9.1072 10.5503 9.62111C11.2332 10.392 12.0526 10.392 12.3429 9.63947C12.616 8.9053 12.9404 8.62998 14.05 8.22619C15.2792 7.76734 16.2694 6.75786 16.2694 5.96863C16.2694 5.63826 16.184 5.21611 16.0815 4.99586C15.9279 4.68383 15.9451 4.64713 16.201 4.7022C16.5766 4.77561 17.2424 5.96863 17.3962 6.81293C17.5669 7.82241 16.7473 9.47428 15.6036 10.3736C14.05 11.6217 13.7086 12.0255 13.0087 13.5122C12.5477 14.5033 12.3258 15.2558 12.2404 16.1185C12.1721 16.7793 12.0868 17.3298 12.0526 17.3298C12.0185 17.3298 11.3186 16.7609 10.4991 16.0451C9.45773 15.1457 8.74073 14.3381 8.07493 13.3103L7.13599 11.842H5.59952L0 18.0824L0.478008 19.826C1.00723 21.7349 0.904802 21.6615 2.21932 21.0558C2.86805 20.7805 2.86805 20.7437 2.25347 19.202C2.06568 18.7247 1.82668 18.4311 1.65596 18.4311C1.22916 18.4311 1.51938 18.1926 2.20225 17.9723C2.54368 17.8621 3.44849 17.128 4.40451 16.1552C5.30931 15.2742 6.07753 14.5584 6.0946 14.5951C6.17997 14.6869 8.41636 19.2204 8.41636 19.2938C8.41636 19.3304 8.26272 19.3488 8.07493 19.3488C7.88714 19.3488 7.39206 19.5323 6.96527 19.7526C6.35069 20.083 6.17997 20.2665 6.0946 20.7621C5.95803 21.5881 6.21412 22.3039 7.28963 24.0291C8.05785 25.2405 8.27979 25.7728 8.51879 27.0025L8.80901 28.5076L9.76504 28.7278C10.2942 28.8379 11.5405 29.3886 12.5648 29.9209C14.3573 30.8935 14.4085 30.9119 15.1597 30.7101C16.0133 30.4714 15.9962 30.5449 15.7401 28.9481L15.5524 27.7917L14.3403 27.388C13.3501 27.0759 13.0428 27.0393 12.6331 27.2044C12.138 27.4064 12.0526 27.3512 10.9771 26.4336C9.85039 25.4424 9.61139 25.0203 8.6383 22.3223C8.46758 21.8634 9.44067 22.1203 12.5989 23.3867C14.3573 24.1025 15.8254 24.6532 15.8426 24.6348C15.8426 24.5982 15.962 23.9557 16.0646 23.2033C16.184 22.3957 16.4912 21.3495 16.8157 20.6703C17.4472 19.3121 18.8642 17.6969 19.9056 17.1648C22.0396 16.0634 25.9149 16.192 28.6122 17.4767L29.3463 17.8255L30.3023 16.9445L29.517 16.2102L28.7317 15.4578L29.1073 14.9071C29.4488 14.3749 29.4488 14.2831 29.2439 13.1635C29.1244 12.5211 29.0732 11.9337 29.1414 11.8787C29.1927 11.8236 29.517 11.9888 29.8756 12.2458C30.5243 12.7413 30.9681 12.7413 30.5584 12.2274C30.4389 12.0439 29.295 10.6122 28.0318 9.01542C26.7684 7.43696 25.676 5.89521 25.5735 5.6199C25.4881 5.34459 25.2661 4.92244 25.1125 4.68383C24.7199 4.09651 24.8223 4.02309 25.5222 4.39017C26.3418 4.84903 25.9319 4.48195 24.3785 3.38069C23.6273 2.84842 22.7908 2.18767 22.5006 1.91236C22.1591 1.56362 21.664 1.32502 20.9641 1.17819C19.3935 0.847816 19.2569 0.792754 19.53 0.609211C19.6666 0.517441 20.0422 0.444024 20.3665 0.42567C20.8446 0.42567 20.7593 0.370608 19.9056 0.168712C19.1716 0.00352417 18.6594 -0.0331842 18.2838 0.095295C17.2767 0.388962 14.528 0.847816 14.1525 0.756045C13.9647 0.719337 13.3842 0.499087 12.8892 0.278836C12.0526 -0.0698925 11.9844 -0.0882467 12.0526 0.20542Z" fill="#ECE8E3"/>
<path d="M29.0732 0.700777C29.0732 0.755839 29.2268 0.884319 29.4147 0.994444C29.6024 1.10457 31.3624 2.31654 31.3624 2.27983C31.3624 2.22476 29.6024 0.921027 29.4147 0.810903C29.2268 0.700777 29.0732 0.664069 29.0732 0.700777Z" fill="#ECE8E3"/>
<path d="M6.70932 1.39822L6.11182 1.58176L7.56291 2.22416C8.36528 2.57289 9.49202 3.0501 10.0895 3.28871L11.1651 3.74755L11.4211 3.10517C11.5577 2.75643 11.6601 2.38935 11.6601 2.29758C11.6601 2.13238 8.14335 1.15962 7.59706 1.19632C7.44342 1.19632 7.03369 1.2881 6.70932 1.39822Z" fill="#ECE8E3"/>
<path d="M30.2682 1.49036C32.2486 3.06882 32.8801 3.6378 33.9045 4.73905C35.6117 6.55611 36.9774 8.63013 38.1553 11.163C39.2138 13.4573 39.3674 13.4573 38.3603 11.163C36.6531 7.29028 33.4095 3.34413 30.3536 1.47201C29.8414 1.15998 29.8414 1.15998 30.2682 1.49036Z" fill="#ECE8E3"/>
<path d="M46.9646 4.70218C46.3329 4.84901 46.145 4.9775 46.145 5.23446C46.145 5.52812 46.2816 5.58317 46.9133 5.58317H47.6815V9.51098C47.6815 13.3837 47.6815 13.4571 47.3059 13.7324C47.101 13.8976 46.7426 14.0261 46.5377 14.0261C46.2475 14.0261 46.145 14.1362 46.145 14.4115C46.145 14.7786 46.1963 14.7786 49.9521 14.7236L53.7762 14.6685L54.5956 14.1179C55.7394 13.3653 56.4906 12.2641 56.7296 10.9609C57.2075 8.51984 56.2345 6.17052 54.2712 5.06926C53.4347 4.59206 53.2811 4.5737 50.5838 4.53699C49.0302 4.51864 47.4084 4.59206 46.9646 4.70218ZM52.4104 5.418C53.0591 5.67495 53.7762 6.44582 54.22 7.32683C54.7834 8.44643 54.7492 11.0344 54.1687 12.2825C53.4859 13.7508 52.0177 14.3748 50.6692 13.7508C50.3105 13.604 50.0032 13.2919 49.9008 13.0166C49.713 12.4844 49.6619 5.52812 49.8496 5.34458C50.0203 5.14268 51.8811 5.19775 52.4104 5.418Z" fill="#ECE8E3"/>
<path d="M65.1288 4.83069C65.163 4.95917 65.4532 5.17942 65.7775 5.28954L66.3751 5.49145V13.916L65.7434 14.0812C65.3678 14.173 65.0947 14.3565 65.0947 14.5033C65.0947 14.7052 65.5727 14.7603 67.6726 14.7603C69.5675 14.7603 70.2333 14.7052 70.182 14.5401C70.0966 14.3014 69.8405 14.1363 69.1065 13.8977L68.5943 13.7508L68.492 9.80467H69.6016C71.0357 9.80467 71.4966 10.0066 71.7356 10.7224C72.0771 11.8236 72.3501 11.273 72.4014 9.38252C72.4526 7.69394 72.4355 7.60218 72.094 7.60218C71.8379 7.60218 71.7526 7.73065 71.7526 8.04268C71.7526 8.77684 71.1552 9.07051 69.7382 9.07051H68.492L68.5943 5.49145H72.0087L72.3501 6.17055C72.538 6.57434 72.8282 6.868 72.9988 6.868C73.2379 6.868 73.289 6.68446 73.289 5.71169V4.57373H69.1919C65.8116 4.57373 65.0947 4.61044 65.1288 4.83069Z" fill="#ECE8E3"/>
<path d="M75.167 4.95914C74.9109 5.6566 75.389 6.48254 76.0377 6.50089C76.7547 6.50089 77.2839 5.32622 76.7889 4.7756C76.6352 4.6104 76.2425 4.48193 75.9182 4.48193C75.4401 4.48193 75.3036 4.5737 75.167 4.95914Z" fill="#ECE8E3"/>
<path d="M75.713 8.15257C75.4911 8.35447 75.0472 8.55636 74.7228 8.62978C74.0058 8.77661 73.9717 9.16205 74.6546 9.30888L75.1667 9.419V11.7133C75.1667 14.1177 75.1325 14.2095 74.296 14.2095C74.1253 14.2095 73.9717 14.3379 73.9717 14.4848C73.9717 14.705 74.3131 14.7601 75.9519 14.7601C77.4543 14.7601 77.9152 14.705 77.8641 14.5215C77.8129 14.4113 77.5568 14.2645 77.2835 14.2095L76.7885 14.1177L76.8397 11.4013C76.8738 9.89622 76.8569 8.48294 76.8056 8.22599C76.669 7.69371 76.2593 7.65701 75.713 8.15257Z" fill="#ECE8E3"/>
<path d="M87.3217 8.15293C87.0998 8.35483 86.6047 8.61179 86.2463 8.72191C85.4951 8.97887 85.3926 9.25419 85.956 9.52949C86.4511 9.7681 86.6218 10.594 86.5706 12.4295C86.5193 13.8611 86.5024 13.9345 86.0584 14.1731C85.2049 14.5953 85.5463 14.7604 87.2876 14.7604C89.0289 14.7604 89.4045 14.5769 88.568 14.1731C88.1242 13.9712 88.1242 13.9529 88.1753 11.8421L88.2265 9.71304L89.0289 9.29089C89.6776 8.94216 89.8996 8.90545 90.1898 9.07065C90.7361 9.38266 90.8727 10.0067 90.8727 12.1174V14.0446L90.3605 14.2282C89.4217 14.5953 89.8314 14.7604 91.5555 14.7604C92.9212 14.7604 93.2627 14.7054 93.2627 14.5035C93.2627 14.3566 93.092 14.2098 92.8871 14.1731C92.5115 14.118 92.4945 14.0446 92.4092 11.6402C92.3579 10.282 92.2554 9.05229 92.1872 8.9238C91.658 8.06115 89.6776 7.91432 88.6875 8.6852L88.1412 9.08899V8.4466C88.1412 7.69407 87.9193 7.62066 87.3217 8.15293Z" fill="#ECE8E3"/>
<path d="M60.4511 8.17135C59 8.59348 58.0952 9.89664 58.0952 11.5669C58.0952 13.5675 59.3243 14.944 61.1169 14.944C62.1413 14.944 62.7387 14.7421 63.524 14.0814C63.9679 13.7327 64.0362 13.5675 63.8995 13.3839C63.7459 13.182 63.5923 13.2004 62.9948 13.494C62.09 13.9162 61.7314 13.9345 61.0145 13.5124C60.3146 13.1086 59.8024 12.1725 59.8024 11.3099V10.6859L61.9705 10.8327L64.1215 10.9612L64.002 10.3371C63.7118 8.74031 62.0046 7.69413 60.4511 8.17135ZM62.0729 9.10741C62.4315 9.56625 62.4485 10.0985 62.09 10.2454C61.9364 10.3004 61.3558 10.3555 60.7925 10.3555H59.7683L59.8706 9.84157C59.939 9.56625 60.178 9.16246 60.4341 8.92385C60.9461 8.4283 61.5949 8.50172 62.0729 9.10741Z" fill="#ECE8E3"/>
<path d="M96.9333 8.1342C95.687 8.48294 94.8334 9.23546 94.3724 10.3918C93.4164 12.8512 95.1578 15.1455 97.821 14.9069C98.794 14.8151 99.3916 14.448 99.989 13.6038C100.245 13.2367 100.279 13.0531 100.143 12.9063C99.989 12.7411 99.8013 12.8145 99.4257 13.1632C98.4015 14.0993 97.3601 14.0443 96.5236 13.0164C95.1236 11.3095 95.9772 8.50128 97.821 8.68482C97.9405 8.68482 98.2307 9.03356 98.4697 9.45571C98.8623 10.0981 98.9819 10.1899 99.4598 10.1348C99.8183 10.0981 100.023 9.96962 100.057 9.74937C100.16 9.14368 99.9379 8.59306 99.5111 8.37281C98.9135 8.0975 97.5478 7.95066 96.9333 8.1342Z" fill="#ECE8E3"/>
<path d="M103.472 8.15301C102.055 8.59351 101.253 9.69477 101.15 11.3466C101.031 13.4757 102.243 14.9257 104.138 14.9441C105.162 14.9441 105.76 14.7422 106.545 14.0814C106.972 13.7327 107.057 13.5675 106.92 13.384C106.767 13.1821 106.596 13.2004 105.947 13.5124C104.991 13.9713 104.24 13.8428 103.643 13.1453C103.045 12.4662 102.823 11.9523 102.823 11.2732V10.6859L107.091 10.9429V10.5023C107.091 9.89667 106.442 8.88717 105.811 8.50175C105.196 8.13465 104.104 7.96947 103.472 8.15301ZM104.957 8.97895C105.435 9.49286 105.521 10.0802 105.111 10.2454C104.684 10.4289 103.028 10.3739 102.909 10.172C102.772 9.93337 103.267 8.94224 103.626 8.722C104.121 8.40997 104.513 8.48339 104.957 8.97895Z" fill="#ECE8E3"/>
<path d="M80.3397 8.53812C79.4519 9.01534 78.752 9.85962 78.752 10.4653C78.752 10.9792 78.8373 10.9976 79.6739 10.6305C80.1007 10.4286 80.3225 10.2084 80.3909 9.84128C80.5616 9.08875 80.9542 8.70331 81.5859 8.70331C82.0981 8.70331 82.1663 8.77673 82.337 9.45584C82.6614 10.759 82.7126 10.7039 80.4079 11.8235C79.5203 12.264 79.1788 12.5393 78.9739 12.9982C78.752 13.5305 78.7348 13.6773 78.9398 14.1361C79.1617 14.6317 79.2642 14.6684 80.3055 14.7235C81.2444 14.7602 81.5005 14.7051 82.0127 14.338L82.6273 13.8975L82.9857 14.3197C83.4808 14.9437 84.4539 14.9254 84.8295 14.3013C84.9831 14.0444 85.0515 13.714 85.0002 13.5488C84.8977 13.2552 84.8636 13.2552 84.5734 13.5488C84.4198 13.714 84.215 13.7874 84.1637 13.714C84.0955 13.6589 84.0442 12.7229 84.0442 11.64C84.0442 9.40076 83.8735 8.66661 83.2589 8.35458C82.559 8.02421 81.1421 8.11598 80.3397 8.53812ZM82.4565 12.5026C82.354 13.4754 81.9443 14.026 81.2957 14.026C80.9201 14.026 80.7835 13.9159 80.6981 13.5672C80.6468 13.3102 80.6299 12.9798 80.6811 12.833C80.8347 12.4476 82.1835 11.4381 82.3712 11.5666C82.4737 11.64 82.5078 12.0438 82.4565 12.5026Z" fill="#ECE8E3"/>
<path d="M38.3603 11.2214C38.3603 11.3316 39.231 14.0445 39.3333 14.3382C39.726 15.4211 40.1698 18.5046 40.1698 20.1013C40.1698 22.8179 39.4528 25.7545 38.2749 27.9202C37.9505 28.5077 36.9944 29.7374 36.1581 30.655C34.8947 32.0133 34.3312 32.4722 33.1704 33.0961C31.0194 34.2341 29.6708 34.6012 27.2294 34.7113C23.5932 34.8949 20.3496 34.0323 17.2424 32.0867L16.1841 31.4259L16.6791 31.9949C17.3621 32.7658 19.3252 34.2158 20.7081 34.9499C26.871 38.2904 33.546 36.9689 37.353 31.6462C40.3406 27.4615 41.2625 21.1476 39.743 15.2192C39.3674 13.7325 38.3603 10.7442 38.3603 11.2214Z" fill="#ECE8E3"/>
<path d="M50.7881 23.8274C46.5715 25.3141 46.1277 31.7747 50.1053 33.6835C50.8735 34.0508 51.2833 34.1058 52.888 34.1058C55.2951 34.1058 55.9439 33.8488 56.1145 32.8209C56.1829 32.4172 56.2853 31.9216 56.3365 31.6831C56.4901 30.9672 55.8243 31.2058 54.9195 32.1786C53.9294 33.243 52.9905 33.6101 51.9661 33.2982C51.0272 33.0228 50.515 32.5273 50.0712 31.4444C49.7469 30.6369 49.7126 30.233 49.7639 28.728C49.8323 26.6356 50.2931 25.3875 51.2491 24.7818C52.3588 24.0844 54.1171 24.5432 55.0731 25.773C55.5341 26.3419 56.217 26.5256 56.217 26.0483C56.217 25.9015 56.1145 25.3875 56.0122 24.9287C55.7389 23.8642 55.5 23.754 53.2295 23.644C52.0344 23.5888 51.3003 23.644 50.7881 23.8274Z" fill="#ECE8E3"/>
<path d="M80.1516 23.8641C79.4347 24.3964 79.8785 25.7729 80.7492 25.7729C81.1078 25.7729 81.6539 25.0753 81.6539 24.5982C81.6539 23.8273 80.7663 23.3868 80.1516 23.8641Z" fill="#ECE8E3"/>
<path d="M102.738 23.7907C102.567 23.9007 102.106 24.1027 101.731 24.2128C100.928 24.4698 100.757 24.7635 101.338 24.9286C101.713 25.0204 101.765 25.1488 101.867 26.4337C101.918 27.2228 101.969 28.9666 101.969 30.3615C101.969 32.9677 101.867 33.3899 101.218 33.5184C101.03 33.5368 100.86 33.6836 100.809 33.7937C100.757 33.9773 101.201 34.0323 102.635 34.0323C104.172 34.0323 104.53 33.9773 104.53 33.7753C104.53 33.6102 104.325 33.4816 104.069 33.445L103.591 33.3899L103.506 28.5443C103.455 25.5527 103.352 23.6805 103.25 23.6439C103.164 23.6071 102.925 23.6805 102.738 23.7907Z" fill="#ECE8E3"/>
<path d="M86.7925 26.6902C86.5023 27.0941 86.0243 27.553 85.7511 27.6998C85.1194 28.0485 85.0683 28.5256 85.6657 28.5256H86.0926V30.8751C86.0926 33.0958 86.1097 33.261 86.4853 33.6281C87.0316 34.1788 88.2607 34.1788 88.8924 33.6465C89.268 33.3344 89.3021 33.206 89.1485 33.0042C89.0119 32.8205 88.8924 32.7839 88.7558 32.9307C88.4997 33.206 87.851 33.151 87.7315 32.8205C87.6803 32.6553 87.629 31.6275 87.629 30.5262V28.5256H88.3973C89.046 28.5256 89.1655 28.4706 89.1655 28.1769C89.1655 27.8833 89.029 27.8098 88.4486 27.7548C87.7828 27.6998 87.7144 27.663 87.7656 27.2409C87.8169 26.672 87.6631 25.9561 87.4754 25.9561C87.4072 25.9561 87.0998 26.2865 86.7925 26.6902Z" fill="#ECE8E3"/>
<path d="M69.6185 27.3512C69.1577 27.5898 68.6625 27.7917 68.5601 27.7917C68.1846 27.7917 68.3212 28.2689 68.7478 28.4892C69.1406 28.6726 69.1577 28.7645 69.2772 31.4992C69.3283 33.041 69.3625 34.9315 69.3283 35.6839C69.2772 37.0422 69.26 37.0606 68.7309 37.3359C67.7577 37.8314 68.082 37.9782 70.1307 37.9966C71.6843 38.015 72.094 37.96 72.094 37.7764C72.094 37.6295 71.9404 37.5193 71.7697 37.5193C71.0867 37.5193 70.899 37.0422 70.899 35.3169V33.6833L71.5305 33.977C73.5792 34.8948 75.8497 33.1328 75.8497 30.6366C75.8497 28.1587 73.9378 26.819 71.6671 27.7C71.2916 27.8468 70.9672 27.9753 70.9501 27.9753C70.916 27.9753 70.899 27.7182 70.899 27.4246C70.899 26.7638 70.7452 26.7638 69.6185 27.3512ZM72.9475 28.7645C74.006 29.3334 74.5011 31.2974 73.8865 32.5638C73.5622 33.2428 73.1523 33.4815 72.2817 33.4815C71.1038 33.4815 70.899 33.096 70.899 30.8201C70.899 28.9847 70.916 28.8747 71.2916 28.7094C71.8379 28.4708 72.4524 28.4892 72.9475 28.7645Z" fill="#ECE8E3"/>
<path d="M80.3738 27.4431C80.1007 27.6267 79.6055 27.847 79.3152 27.902C78.6325 28.0488 78.5812 28.4709 79.23 28.5627C79.6908 28.6177 79.6908 28.6361 79.7762 30.2697C79.8274 31.1691 79.8274 32.2335 79.7933 32.619C79.7421 33.2247 79.6738 33.3348 79.247 33.4266C78.9739 33.4816 78.752 33.6468 78.752 33.7753C78.752 33.9773 79.1447 34.0323 80.6299 34.0323C82.1492 34.0323 82.5078 33.9773 82.5078 33.7753C82.5078 33.6102 82.3029 33.4816 82.0468 33.445L81.5687 33.3899L81.5176 30.2147C81.4664 26.7089 81.4664 26.6907 80.3738 27.4431Z" fill="#ECE8E3"/>
<path d="M61.2191 27.8101C60.3314 28.2874 59.6314 29.1316 59.6314 29.7373C59.6314 30.2512 59.6144 30.2512 60.4679 29.8842C60.9801 29.6639 61.1678 29.4621 61.2532 29.0766C61.4411 28.1956 62.4653 27.5716 62.9434 28.0672C63.4726 28.6545 63.4043 30.3614 62.8409 30.3614C62.7555 30.3614 62.124 30.6367 61.4239 30.9854C60.0412 31.6645 59.529 32.3437 59.7339 33.2063C59.8705 33.8304 60.2802 34.0322 61.3728 34.0322C62.2263 34.0322 62.9263 33.7386 63.2506 33.2247C63.319 33.1145 63.5408 33.2431 63.7969 33.5367C64.0701 33.8486 64.3945 34.0322 64.7018 34.0322C65.2823 34.0322 65.4871 33.8854 65.7602 33.3531C66.0163 32.8208 65.9992 32.5639 65.692 32.5639C65.5553 32.5639 65.4359 32.6373 65.4359 32.7474C65.4359 32.8392 65.3164 32.931 65.1798 32.931C64.9749 32.931 64.9237 32.5823 64.9237 30.9304C64.9237 27.9019 64.6676 27.443 62.9604 27.4248C62.2605 27.4248 61.7141 27.5532 61.2191 27.8101ZM63.2677 32.1418C62.9946 33.3715 61.6972 33.7202 61.5434 32.5823C61.4752 32.105 61.8679 31.5727 62.6191 31.0772C63.1141 30.7285 63.1311 30.7285 63.2849 31.0772C63.3702 31.2791 63.3531 31.738 63.2677 32.1418Z" fill="#ECE8E3"/>
<path d="M93.946 27.7185C93.0411 28.1406 92.2388 29.0582 92.2388 29.6639C92.2388 30.2696 92.2217 30.2512 93.0582 29.9026C93.5874 29.6639 93.7411 29.4805 93.8776 28.9481C94.0824 28.0672 94.8849 27.6451 95.4653 28.0855C95.7896 28.324 95.8409 28.526 95.7896 29.2968L95.7385 30.2146L94.5434 30.7285C92.546 31.5727 91.8291 32.5823 92.5119 33.6284C92.7339 33.9772 92.9216 34.0322 93.8606 34.0322C94.7825 34.0322 95.0215 33.9588 95.4653 33.555L95.9945 33.0778L96.3531 33.555C96.592 33.8854 96.8653 34.0322 97.2407 34.0322C97.8895 34.0322 98.0944 33.9038 98.3674 33.3165C98.5382 32.986 98.5382 32.8392 98.3846 32.674C98.231 32.5271 98.1456 32.5271 98.0944 32.6924C98.0431 32.8208 97.9236 32.931 97.787 32.931C97.6334 32.931 97.548 32.3437 97.4968 30.6183C97.4286 28.3608 97.4114 28.2874 96.9505 27.8653C96.5751 27.5165 96.3018 27.4248 95.5165 27.4248C94.9874 27.443 94.2703 27.5716 93.946 27.7185ZM95.4653 32.986C95.2604 33.1696 94.8849 33.2981 94.6459 33.2613C94.2703 33.2063 94.2021 33.0962 94.1508 32.5271C94.0996 31.8848 94.1508 31.793 94.919 31.2791L95.7385 30.7101L95.7896 31.6829C95.8409 32.5089 95.7896 32.7108 95.4653 32.986Z" fill="#ECE8E3"/>
</g>
<defs>
<clipPath id="clip0_264_12523">
<rect width="107.091" height="38" fill="white"/>
</clipPath>
</defs>
</svg>
