<svg width="127" height="16" viewBox="0 0 127 16" fill="none" xmlns="http://www.w3.org/2000/svg">
<g clip-path="url(#clip0_264_12513)">
<path d="M12.3183 4.15879C12.3183 3.59893 12.2075 3.07239 11.9859 2.57919C11.7643 2.08597 11.4319 1.66608 10.9888 1.3195C10.4903 0.93293 9.9294 0.659666 9.30621 0.499706C8.69687 0.339746 8.07368 0.259766 7.43666 0.259766H0V1.19953H1.95264V13.0366H0V13.9763C1.13558 13.9363 2.27808 13.9163 3.42752 13.9163C4.56309 13.9163 5.7056 13.9363 6.85501 13.9763V13.0366H4.90237V7.95783H7.43666C8.07368 7.95783 8.69687 7.88453 9.30621 7.73789C9.9294 7.57793 10.4903 7.30467 10.9888 6.91809C11.4181 6.58485 11.7435 6.17829 11.9651 5.69841C12.2005 5.20519 12.3183 4.69199 12.3183 4.15879ZM9.14002 4.15879C9.14002 4.35873 9.13309 4.56535 9.11925 4.77863C9.11925 4.99191 9.1054 5.19853 9.07771 5.39847C9.06386 5.59843 9.02924 5.78505 8.97384 5.95833C8.9323 6.13163 8.86305 6.27159 8.76611 6.37823C8.51684 6.68483 8.19833 6.88477 7.81057 6.97809C7.4228 7.07139 7.02813 7.11805 6.62651 7.11805H4.7985V1.19953H6.62651C7.02813 1.19953 7.4228 1.24618 7.81057 1.33949C8.19833 1.43281 8.51684 1.62609 8.76611 1.91935C8.86305 2.02599 8.9323 2.16595 8.97384 2.33925C9.02924 2.51253 9.06386 2.70581 9.07771 2.91909C9.1054 3.11905 9.11925 3.32567 9.11925 3.53895C9.13309 3.75223 9.14002 3.95883 9.14002 4.15879Z" fill="#ECE8E3"/>
<path d="M27.8897 7.19825C27.8897 6.23849 27.7513 5.31205 27.4744 4.41895C27.2112 3.51251 26.7473 2.70603 26.0824 1.99955C25.4593 1.33305 24.7254 0.839838 23.8805 0.519918C23.0498 0.199999 22.1773 0.0400391 21.2632 0.0400391C20.3492 0.0400391 19.4699 0.199999 18.6251 0.519918C17.7942 0.839838 17.0671 1.33305 16.4439 1.99955C15.7792 2.70603 15.3084 3.51251 15.0314 4.41895C14.7683 5.31205 14.6367 6.23849 14.6367 7.19825C14.6367 8.13135 14.7752 9.04445 15.0522 9.93755C15.3291 10.8173 15.7931 11.6038 16.4439 12.297C17.0671 12.9368 17.7942 13.4167 18.6251 13.7366C19.4699 14.0432 20.3492 14.1965 21.2632 14.1965C22.1773 14.1965 23.0498 14.0432 23.8805 13.7366C24.7254 13.4167 25.4593 12.9368 26.0824 12.297C26.7333 11.6038 27.1972 10.8173 27.4744 9.93755C27.7513 9.04445 27.8897 8.13135 27.8897 7.19825ZM24.7114 6.83833C24.7114 7.66479 24.6769 8.48459 24.6076 9.29773C24.5384 10.1108 24.3099 10.884 23.9221 11.6171C23.6452 12.1237 23.2781 12.5436 22.8212 12.8768C22.3641 13.1967 21.8448 13.3567 21.2632 13.3567C20.6817 13.3567 20.1622 13.1967 19.7053 12.8768C19.2483 12.5436 18.8813 12.1237 18.6043 11.6171C18.2166 10.884 17.9881 10.1108 17.9188 9.29773C17.8496 8.48459 17.8149 7.66479 17.8149 6.83833C17.8149 6.07853 17.8496 5.32539 17.9188 4.57891C17.9881 3.83243 18.2166 3.11927 18.6043 2.43943C18.8813 1.97289 19.2483 1.59298 19.7053 1.29972C20.1762 0.993134 20.6954 0.839838 21.2632 0.839838C21.8311 0.839838 22.3433 0.993134 22.8004 1.29972C23.2713 1.59298 23.6452 1.97289 23.9221 2.43943C24.3099 3.11927 24.5384 3.83243 24.6076 4.57891C24.6769 5.32539 24.7114 6.07853 24.7114 6.83833Z" fill="#ECE8E3"/>
<path d="M40.6238 8.49771H39.6476C39.5783 9.11089 39.4744 9.72405 39.336 10.3372C39.2113 10.9371 38.9482 11.4703 38.5466 11.9368C38.2419 12.2834 37.8819 12.5567 37.4663 12.7566C37.0647 12.9432 36.6286 13.0366 36.1577 13.0366H34.662V1.19953H37.1133V0.259766C35.7977 0.299756 34.489 0.31975 33.1872 0.31975C32.0378 0.31975 30.8952 0.299756 29.7598 0.259766V1.19953H31.7123V13.0366H29.7598V13.9763H40.0007L40.6238 8.49771Z" fill="#ECE8E3"/>
<path d="M55.1356 1.19953V0.259766C54.4433 0.299756 53.7579 0.31975 53.0792 0.31975H53.0584C52.2275 0.31975 51.3965 0.299756 50.5656 0.259766V1.19953C50.7318 1.19953 50.898 1.20619 51.0643 1.21953C51.2443 1.23286 51.4243 1.25285 51.6043 1.27951C51.7012 1.30617 51.7913 1.33283 51.8744 1.35949C51.9575 1.37282 51.9851 1.40614 51.9575 1.45946L48.6338 7.05807L45.1441 1.19953H46.702V0.259766C45.5387 0.299756 44.3685 0.31975 43.1913 0.31975H43.1705C42.1596 0.31975 41.1486 0.299756 40.1377 0.259766V1.19953H41.8827L46.2241 8.49771V13.0366H44.2716V13.9763C45.3932 13.9363 46.515 13.9163 47.6367 13.9163C48.7585 13.9163 49.8801 13.9363 51.0019 13.9763V13.0366H49.0492V8.49771L53.2246 1.45946C53.2662 1.39281 53.3423 1.35282 53.4532 1.33949C53.5639 1.31284 53.6747 1.28618 53.7854 1.25951C54.007 1.23286 54.2286 1.21953 54.4501 1.21953C54.6717 1.20619 54.9003 1.19953 55.1356 1.19953Z" fill="#ECE8E3"/>
<path d="M69.3003 9.29773C69.3003 9.12443 69.2034 9.03779 69.0094 9.03779H68.594C68.414 9.03779 68.3239 9.12443 68.3239 9.29773C68.3239 9.84425 68.2202 10.3574 68.0124 10.8373C67.8046 11.3172 67.5207 11.7371 67.1607 12.097C66.8145 12.4569 66.3991 12.7435 65.9144 12.9568C65.4435 13.1567 64.938 13.2567 64.398 13.2567C63.6917 13.2567 63.02 13.1234 62.3829 12.8568C61.7597 12.5902 61.2473 12.1903 60.8457 11.6571C60.6103 11.3505 60.4233 11.0173 60.2849 10.6574C60.1464 10.2975 60.0425 9.92423 59.9732 9.53767C59.9041 9.15109 59.8555 8.75785 59.828 8.35795C59.814 7.94473 59.8072 7.53149 59.8072 7.11827C59.8072 6.27847 59.8555 5.47201 59.9524 4.69887C60.0633 3.91241 60.3542 3.20591 60.8249 2.57941C61.2265 2.04621 61.739 1.6463 62.3621 1.3797C62.9992 1.1131 63.6709 0.979804 64.3772 0.979804C64.9035 0.979804 65.3881 1.09311 65.8313 1.31972C66.2744 1.54633 66.6622 1.85292 66.9945 2.23949C67.3269 2.62605 67.5968 3.07927 67.8046 3.59915C68.0124 4.10569 68.1439 4.63889 68.1994 5.19875C68.227 5.37203 68.3239 5.45869 68.4901 5.45869H69.0094C69.0925 5.45869 69.1618 5.43203 69.2171 5.37871C69.2725 5.31205 69.3003 5.24541 69.3003 5.17875V0.319968C69.3003 0.133349 69.2034 0.0400391 69.0094 0.0400391H68.8433C68.774 0.0400391 68.7117 0.0600339 68.6563 0.100024L67.3061 1.27973C66.863 0.893158 66.3643 0.593234 65.8105 0.379954C65.2565 0.153344 64.6541 0.0400391 64.0032 0.0400391C63.02 0.0400391 62.0574 0.193334 61.1158 0.499924C60.188 0.806514 59.3708 1.29972 58.6646 1.97955C57.9445 2.65939 57.4251 3.45251 57.1066 4.35895C56.7881 5.25207 56.6289 6.17183 56.6289 7.11827C56.6289 8.06469 56.7881 8.99113 57.1066 9.89757C57.4251 10.7907 57.9445 11.5771 58.6646 12.257C59.3708 12.9368 60.188 13.43 61.1158 13.7366C62.0574 14.0432 63.02 14.1965 64.0032 14.1965C64.7232 14.1965 65.4019 14.0698 66.0389 13.8166C66.6898 13.5633 67.2506 13.2167 67.7215 12.7768C68.2062 12.3369 68.587 11.8237 68.8641 11.2372C69.1548 10.6374 69.3003 9.99087 69.3003 9.29773Z" fill="#ECE8E3"/>
<path d="M86.0157 13.9763V13.0366H84.063V1.19953H86.0157V0.259766C84.8663 0.299756 83.7237 0.31975 82.5881 0.31975C81.4387 0.31975 80.2963 0.299756 79.1607 0.259766V1.19953H81.1133V6.37823H76.0656V1.19953H78.0181V0.259766C76.8687 0.299756 75.7263 0.31975 74.5907 0.31975C73.4413 0.31975 72.2987 0.299756 71.1631 0.259766V1.19953H73.1158V13.0366H71.1631V13.9763C72.2987 13.9363 73.4413 13.9163 74.5907 13.9163C75.7263 13.9163 76.8687 13.9363 78.0181 13.9763V13.0366H76.0656V7.31799H81.1133V13.0366H79.1607V13.9763C80.2963 13.9363 81.4387 13.9163 82.5881 13.9163C83.7237 13.9163 84.8663 13.9363 86.0157 13.9763Z" fill="#ECE8E3"/>
<path d="M101.662 13.9765V13.0367H99.9166L95.2843 0.35991C95.2427 0.25327 95.1736 0.166626 95.0765 0.0999758C94.9796 0.0333252 94.8757 0 94.765 0H94.391C94.2663 0 94.1556 0.0333252 94.0587 0.0999758C93.9618 0.166626 93.8925 0.25327 93.851 0.35991L89.3225 12.7768C89.2947 12.8434 89.2256 12.8901 89.1147 12.9168C89.0178 12.9434 88.9209 12.9634 88.824 12.9767C88.5885 13.0167 88.3601 13.0367 88.1385 13.0367C87.9308 13.0367 87.7092 13.0367 87.4736 13.0367V13.9765C88.1801 13.9365 88.8864 13.9165 89.5926 13.9165H89.6134H89.9041C90.6381 13.9165 91.3722 13.9365 92.106 13.9765V13.0367C91.9122 13.0367 91.7184 13.0301 91.5244 13.0167C91.3306 13.0034 91.1366 12.9834 90.9428 12.9568C90.8319 12.9301 90.7212 12.9101 90.6104 12.8968C90.4997 12.8701 90.4581 12.8301 90.4857 12.7768L91.3789 10.3374H95.9282L96.9253 13.0367H95.2012V13.9765C96.3368 13.9365 97.4724 13.9165 98.608 13.9165H98.6288C99.6535 13.9165 100.664 13.9365 101.662 13.9765ZM95.5959 9.39764H91.7322L93.664 4.09898L95.5959 9.39764Z" fill="#ECE8E3"/>
<path d="M110.051 13.9763V13.0366H107.995V1.19953H110.051V0.259766C108.888 0.299756 107.718 0.31975 106.541 0.31975C105.364 0.31975 104.186 0.299756 103.009 0.259766V1.19953H105.066V13.0366H103.009V13.9763C104.186 13.9363 105.364 13.9163 106.541 13.9163C107.718 13.9163 108.888 13.9363 110.051 13.9763Z" fill="#ECE8E3"/>
<path d="M126.222 1.19953V0.259766C125.391 0.299756 124.553 0.31975 123.709 0.31975C122.878 0.31975 122.047 0.299756 121.216 0.259766V1.19953C121.451 1.19953 121.694 1.19953 121.943 1.19953C122.192 1.19953 122.441 1.21952 122.691 1.25951C122.801 1.27284 122.905 1.29284 123.002 1.3195C123.113 1.34616 123.168 1.39281 123.168 1.45946V9.49745L116.293 0.39973C116.237 0.30642 116.14 0.259766 116.002 0.259766H111.37V1.19953H113.322V12.7766C113.322 12.8433 113.267 12.8899 113.156 12.9166C113.059 12.9299 112.955 12.9499 112.844 12.9766C112.609 13.0032 112.367 13.0232 112.117 13.0366C111.868 13.0366 111.619 13.0366 111.37 13.0366V13.9763C112.2 13.9363 113.038 13.9163 113.883 13.9163C114.714 13.9163 115.545 13.9363 116.376 13.9763V13.0366C116.14 13.0366 115.898 13.0366 115.649 13.0366C115.399 13.0232 115.157 13.0032 114.922 12.9766C114.811 12.9499 114.7 12.9299 114.589 12.9166C114.479 12.8899 114.423 12.8433 114.423 12.7766V2.17929L123.252 13.8364C123.321 13.9297 123.418 13.9763 123.542 13.9763H123.896C124.006 13.9763 124.096 13.943 124.166 13.8763C124.235 13.8097 124.27 13.723 124.27 13.6164V1.45946C124.27 1.39281 124.318 1.34616 124.415 1.3195C124.526 1.29284 124.636 1.27284 124.747 1.25951C124.997 1.21952 125.239 1.19953 125.474 1.19953C125.724 1.19953 125.973 1.19953 126.222 1.19953Z" fill="#ECE8E3"/>
</g>
<defs>
<clipPath id="clip0_264_12513">
<rect width="126.222" height="16" fill="white"/>
</clipPath>
</defs>
</svg>
