<svg width="26" height="40" viewBox="0 0 26 40" fill="none" xmlns="http://www.w3.org/2000/svg">
<path d="M20.3314 5.22602C20.3104 5.21202 20.1952 5.12953 20.0043 4.9928C19.4145 4.57035 18.1015 3.63 16.6088 2.59155L16.403 2.44506C14.1187 0.818503 12.9711 0.00132636 11.8226 1.61329e-06C10.663 -0.00133588 9.50241 0.828958 7.1701 2.49753L6.95862 2.64882L3.17871 5.34057L3.95189 6.60054C4.38142 7.28779 4.81095 7.83186 4.89685 7.80322C5.01139 7.77459 6.41452 6.02781 8.01812 3.93744C9.65033 1.84703 11.0249 0.186176 11.0821 0.272082C11.168 0.329355 9.85078 2.13339 8.18993 4.25242C6.52906 6.40009 5.15457 8.20412 5.15457 8.29002C5.15457 8.37593 6.44316 10.4663 8.04676 12.929L10.9103 17.4534L10.0226 20.002C9.53579 21.4051 9.16354 22.5792 9.22081 22.6078C10.0799 23.2091 11.483 23.9249 11.8266 23.9249C12.1703 23.9249 13.4589 23.3237 14.547 22.6364C14.5757 22.6078 14.2034 21.4337 13.7166 20.002L12.8003 17.4534L15.0625 13.874C16.3224 11.9267 17.6397 9.83635 17.9833 9.26365L18.6419 8.20412L15.5779 4.30969C13.917 2.16203 12.5998 0.357993 12.6571 0.30072C12.7143 0.243449 14.0889 1.93295 15.7211 4.05198C17.8687 6.80099 18.7851 7.80322 19.0428 7.60278C19.4723 7.23052 20.4746 5.3692 20.3314 5.22602Z" fill="#ECE8E3"/>
<path d="M4.38121 8.54785C4.52439 8.3474 4.32394 7.68879 3.95168 7.03018C3.5794 6.4002 3.20714 5.88477 3.0926 5.88477C3.00669 5.88477 2.31944 7.63152 1.63219 9.75056C0.916305 11.8696 0.372225 13.6163 0.40086 13.6163C0.486766 13.6163 4.06622 9.06328 4.38121 8.54785Z" fill="#ECE8E3"/>
<path d="M21.9919 9.52147C22.6505 11.5259 23.1373 13.2154 23.08 13.2441C22.9941 13.33 19.7869 9.26373 19.3574 8.51921C19.157 8.17559 20.2451 5.88477 20.646 5.88477C20.7605 5.88477 21.3619 7.51698 21.9919 9.52147Z" fill="#ECE8E3"/>
<path d="M10.223 17.2242C10.2803 17.1669 9.13486 15.2483 7.67446 12.9288C6.21404 10.638 4.92545 8.74805 4.83955 8.74805C4.69637 8.74805 1.2601 13.0148 0.773297 13.8165C0.401036 14.4179 4.66773 16.3365 7.55992 16.8805C8.96305 17.1383 10.1658 17.2815 10.223 17.2242Z" fill="#ECE8E3"/>
<path d="M21.1901 11.5545L23.2518 14.2176L20.8465 15.3058C18.9565 16.1935 14.7185 17.3389 13.3726 17.3389C13.2867 17.3389 14.4607 15.3917 15.9498 13.0436C17.4675 10.6668 18.8133 8.77686 18.9279 8.8055C19.0424 8.86277 20.0733 10.0941 21.1901 11.5545Z" fill="#ECE8E3"/>
<path d="M3.52199 15.907C4.00881 16.1648 4.26653 16.4511 4.18062 16.7375C4.09469 16.9952 3.89425 17.7684 3.72243 18.4842L3.37881 19.7442L2.11885 17.482C1.4316 16.222 0.858887 15.1052 0.858887 14.962C0.858887 14.7616 1.66069 15.048 3.52199 15.907Z" fill="#ECE8E3"/>
<path d="M20.2737 19.4579C20.3597 19.6297 22.9082 15.2199 22.9082 14.8189C22.9082 14.6185 19.9874 15.9357 19.5006 16.3653C19.386 16.4512 20.016 18.9997 20.2737 19.4579Z" fill="#ECE8E3"/>
<path d="M1.88972 17.74C2.4338 18.7995 2.86333 19.7445 2.80606 19.7731C2.74879 19.8304 2.14745 20.0022 1.48883 20.1454L0.286133 20.4317V17.6541C0.286133 14.5901 0.286135 14.5901 1.88972 17.74Z" fill="#ECE8E3"/>
<path d="M23.4811 20.2023V17.6251C23.4811 16.1933 23.4238 15.0479 23.3666 15.0479C23.3093 15.0479 22.6507 16.1074 21.9634 17.3959C20.6748 19.7154 20.6748 19.7727 21.2762 19.9731C21.6198 20.0591 22.2498 20.145 22.7079 20.1736L23.4811 20.2023Z" fill="#ECE8E3"/>
<path d="M5.498 20.4889C6.18524 20.6893 6.87249 20.9184 7.01567 21.0043C7.30202 21.1761 3.72259 21.8634 2.31945 21.892C1.6322 21.9207 1.6322 21.892 2.57717 20.9184C3.12124 20.3457 3.72259 19.9734 3.92303 20.0307C4.09487 20.1166 4.81075 20.3171 5.498 20.4889Z" fill="#ECE8E3"/>
<path d="M21.1901 20.9184C20.646 20.3744 20.1592 19.9448 20.0733 19.9448C18.4411 20.3457 16.6084 20.9184 16.6084 21.0616C16.6084 21.2048 20.8178 21.9207 21.7628 21.9207C21.9919 21.9207 21.7628 21.4912 21.1901 20.9184Z" fill="#ECE8E3"/>
<path d="M1.8613 21.3479C1.00223 22.2356 0.687247 22.207 0.515432 21.2047C0.458162 20.7466 0.629969 20.6034 1.43176 20.4889C1.97584 20.403 2.49128 20.3457 2.54855 20.4029C2.63446 20.4602 2.31947 20.8898 1.8613 21.3479Z" fill="#ECE8E3"/>
<path d="M23.0801 21.5768C23.2805 21.2046 23.3664 20.8323 23.2519 20.7464C23.1374 20.6319 22.536 20.4887 21.9347 20.4027L20.8179 20.231L22.7365 22.2068L23.0801 21.5768Z" fill="#ECE8E3"/>
<path d="M4.29532 24.2398C2.80628 25.6428 1.23133 27.0746 0.8018 27.3897L0 27.9624V27.0746C0 26.588 0.20045 25.3565 0.458169 24.3544L0.916341 22.5217L2.97809 22.2067C4.09487 22.0349 5.1544 21.8344 5.29758 21.7771C5.46939 21.7199 5.89892 21.6626 6.29981 21.6626C6.90115 21.6626 6.6148 22.0349 4.29532 24.2398Z" fill="#ECE8E3"/>
<path d="M7.7316 37.3839C7.81751 37.3839 7.87478 33.833 7.87478 29.509C7.87478 25.185 7.81751 21.6343 7.7316 21.6343C7.6457 21.6343 5.87028 23.2092 3.80854 25.0991C1.17406 27.4759 0 28.7359 0 29.1655C0 29.5662 1.2886 31.0841 3.77988 33.5754C5.87028 35.6657 7.6457 37.3839 7.7316 37.3839Z" fill="#ECE8E3"/>
<path d="M20.0735 25.2709C22.2498 27.2469 24.0539 28.9935 24.0539 29.1081C24.0539 29.2514 22.1925 31.2558 19.9017 33.5754L15.7781 37.8133L15.7495 29.7095C15.7495 25.2709 15.8354 21.6343 15.9213 21.6343C16.0073 21.6343 17.8685 23.2665 20.0735 25.2709Z" fill="#ECE8E3"/>
<path d="M22.7939 22.5217L21.0758 22.2354C18.5272 21.7772 16.4368 21.5481 16.6086 21.6913C16.6559 21.7228 17.1877 22.213 17.9901 22.9524L17.9921 22.9542C18.6488 23.5596 19.4873 24.3323 20.3885 25.1563C22.3644 26.9888 24.0826 28.5067 24.1398 28.5067C24.197 28.5067 23.9393 27.1608 23.5384 25.5285L22.7939 22.5217Z" fill="#ECE8E3"/>
</svg>
