<svg width="108" height="27" viewBox="0 0 108 27" fill="none" xmlns="http://www.w3.org/2000/svg">
<path d="M15.6747 3.14052C13.9621 1.73151 11.8132 0.961934 9.59649 0.961934C7.37747 0.957407 5.22481 1.72812 3.51109 3.14052C2.2891 4.14324 1.33286 5.43342 0.728084 6.89563C0.124439 8.35783 -0.109616 9.94678 0.0475124 11.521C0.204641 13.0953 0.748264 14.6061 1.62999 15.9201C2.51285 17.2329 3.70575 18.3069 5.10295 19.0471C5.13573 19.158 5.1721 19.2678 5.21279 19.3923C5.36427 19.8121 5.57107 20.2105 5.82768 20.5749C6.02324 20.8499 6.31124 21.0446 6.63907 21.1215C6.8188 21.1657 7.00517 21.1736 7.18717 21.1442C7.36917 21.1159 7.54331 21.0514 7.7027 20.9552C7.85983 20.859 7.99659 20.7322 8.10398 20.5828C8.21363 20.4335 8.29064 20.2637 8.3336 20.0837C8.43081 19.6492 8.47143 19.2021 8.45448 18.7562C8.44317 18.3284 8.39675 17.9006 8.31649 17.4807C8.26901 17.1967 8.15166 16.9296 7.97758 16.7021C7.80236 16.4746 7.57307 16.2947 7.31081 16.177H7.25506C5.98107 15.6202 4.93646 14.6435 4.29212 13.4099C3.91569 12.6494 3.70557 11.8164 3.67392 10.9676C3.64226 10.1188 3.79069 9.2734 4.10721 8.48571C4.42486 7.69803 4.90481 6.98729 5.51637 6.39879C6.12793 5.81029 6.85713 5.35759 7.65634 5.07126C8.45442 4.7838 9.30455 4.6695 10.1501 4.73514C10.9957 4.80078 11.8178 5.04411 12.5627 5.4504C13.3077 5.85669 13.9587 6.41577 14.4731 7.09141C14.9852 7.76706 15.35 8.54457 15.5434 9.37186C15.844 10.7424 15.6608 12.1752 15.0289 13.428C14.3868 14.6888 13.3413 15.6971 12.0594 16.2947H12.0356L11.8811 16.3705C11.8279 16.3977 11.779 16.4294 11.7304 16.4599L11.6211 16.5471C11.5736 16.5855 11.5283 16.6274 11.4853 16.6716C11.3666 16.7904 11.2669 16.9285 11.1889 17.079L11.1403 17.1695L11.1166 17.2284L11.0548 17.3529C11.0265 17.4196 11.0039 17.4898 10.9836 17.56C10.9372 17.7558 10.8997 17.9549 10.8737 18.1541C10.8421 18.5004 10.8287 18.7913 10.8185 19.081L10.7937 20.7345C10.7937 21.2698 10.7767 21.8029 10.77 22.3314C10.7541 22.8848 10.6205 23.428 10.3797 23.926C10.2124 24.2531 10.132 24.6186 10.1501 24.9853C10.1682 25.3531 10.2813 25.7085 10.478 26.0186C10.6758 26.3287 10.9506 26.581 11.2761 26.7519C11.6017 26.9228 11.9646 27.0043 12.3331 26.9907C12.6994 26.976 13.0578 26.8662 13.3675 26.6704C13.6784 26.4758 13.9336 26.203 14.1066 25.8782C14.2784 25.5546 14.3646 25.1901 14.3533 24.8235C14.3431 24.4556 14.2358 24.0969 14.0437 23.7845C13.7667 23.3307 13.6013 22.8169 13.5629 22.2872C13.5369 21.7825 13.5156 21.2811 13.5336 20.7866C13.5404 20.3056 13.5832 19.8257 13.66 19.3515C13.6781 19.2474 13.6987 19.1501 13.7202 19.0573C15.547 18.2028 17.0515 16.7802 18.009 15.0011C19.0557 13.0602 19.3961 10.8148 18.9688 8.64982C18.5461 6.48594 17.3783 4.53822 15.6747 3.14052Z" fill="#ECE8E3"/>
<path d="M12.0561 13.0361L9.61808 10.595L7.17728 8.15053L6.97967 7.95361C6.3048 8.65867 5.9329 9.60025 5.94307 10.5769C5.95438 11.5536 6.34528 12.4872 7.03597 13.1776C7.72666 13.8679 8.65797 14.2606 9.63353 14.2708C10.6091 14.281 11.5489 13.9086 12.2532 13.233L12.0561 13.0361Z" fill="#ECE8E3"/>
<path d="M76.2742 16.459H69.3675V4.64697C69.3675 4.23501 69.2093 3.8389 68.9154 3.54691C68.6215 3.25492 68.2267 3.09082 67.8186 3.09082C67.4004 3.09082 67.0045 3.25492 66.7219 3.54691C66.428 3.8389 66.2588 4.23501 66.2588 4.64697V18.0151C66.2588 18.4282 66.428 18.8232 66.7219 19.1152C67.0045 19.406 67.4004 19.5713 67.8186 19.5713H76.2742C76.68 19.5713 77.077 19.4072 77.3709 19.1163C77.6648 18.8243 77.823 18.4282 77.823 18.0151C77.823 17.6032 77.6637 17.2071 77.3709 16.9151C77.077 16.6231 76.68 16.459 76.2742 16.459Z" fill="#ECE8E3"/>
<path d="M89.8264 3.09082H81.1562C80.7503 3.09082 80.3539 3.25495 80.06 3.54699C79.7661 3.83902 79.6079 4.2352 79.6079 4.64722C79.6079 5.06037 79.7672 5.45654 80.06 5.74745C80.3539 6.03948 80.7492 6.20361 81.1562 6.20361H89.8391C90.2573 6.20361 90.653 6.03948 90.9458 5.74745C91.2284 5.45654 91.3978 5.06037 91.3978 4.64722C91.3978 4.2352 91.2284 3.83902 90.9458 3.54699C90.6519 3.25495 90.2573 3.09082 89.8391 3.09082H89.8264Z" fill="#ECE8E3"/>
<path d="M87.7822 12.8892C88.1891 12.8892 88.5845 12.7251 88.8784 12.4331C89.1723 12.1411 89.3304 11.7461 89.3304 11.333C89.3304 10.9199 89.1712 10.5249 88.8784 10.2329C88.5845 9.94096 88.1903 9.77686 87.7822 9.77686H83.1927C82.7744 9.77686 82.3776 9.94096 82.0849 10.2329C81.8023 10.5249 81.6328 10.9199 81.6328 11.333C81.6328 11.7461 81.8023 12.1411 82.0849 12.4331C82.3788 12.7251 82.7744 12.8892 83.1927 12.8892H87.7822Z" fill="#ECE8E3"/>
<path d="M89.8264 16.4609H81.1562C80.7503 16.4609 80.3539 16.625 80.06 16.917C79.7661 17.209 79.6079 17.6051 79.6079 18.0171C79.6079 18.4302 79.7672 18.8263 80.06 19.1171C80.3539 19.4091 80.7492 19.5732 81.1562 19.5732H89.8391C90.2573 19.5732 90.653 19.4091 90.9458 19.1171C91.2284 18.8263 91.3978 18.4302 91.3978 18.0171C91.3978 17.6051 91.2284 17.209 90.9458 16.917C90.6519 16.625 90.2573 16.4609 89.8391 16.4609H89.8264Z" fill="#ECE8E3"/>
<path d="M46.8942 3.09082C46.4759 3.09082 46.0803 3.25492 45.7864 3.54691C45.5038 3.8389 45.3354 4.23501 45.3354 4.64697V9.73076H38.7003V4.64697C38.7003 4.44326 38.6663 4.24067 38.586 4.05167C38.508 3.86267 38.3935 3.69064 38.2466 3.54578C38.0996 3.40091 37.9312 3.28661 37.7504 3.20852C37.5582 3.13043 37.3538 3.09082 37.1515 3.09082H23.1079C22.6964 3.09082 22.3012 3.25492 22.0095 3.54691C21.7167 3.8389 21.5547 4.23501 21.5547 4.64697C21.5547 5.06006 21.7179 5.45617 22.0095 5.74703C22.3012 6.03902 22.6953 6.20312 23.1079 6.20312H27.4872V18.0151C27.4872 18.22 27.5279 18.4226 27.6048 18.6116C27.6827 18.7994 27.7973 18.9715 27.942 19.1163C28.0856 19.2601 28.2572 19.3755 28.4459 19.4536C28.6347 19.5317 28.8358 19.5713 29.0404 19.5713C29.2439 19.5713 29.4455 19.5317 29.6343 19.4536C29.8242 19.3755 29.9935 19.2601 30.1405 19.1163C30.2874 18.9715 30.4002 18.7994 30.4794 18.6116C30.5585 18.4226 30.5936 18.22 30.5936 18.0151V6.20312H35.59V18.0151C35.59 18.4282 35.7586 18.8243 36.0536 19.1163C36.3362 19.4072 36.7321 19.5713 37.1504 19.5713C37.5573 19.5713 37.9527 19.4072 38.2466 19.1163C38.5416 18.8243 38.6986 18.4282 38.6986 18.0151V12.8284H45.3343V18.0151C45.3343 18.4282 45.5027 18.8243 45.7853 19.1163C46.0803 19.4072 46.4748 19.5713 46.8931 19.5713C47.3 19.5713 47.6959 19.4072 47.9898 19.1163C48.2837 18.8243 48.4419 18.4282 48.4419 18.0151V4.64697C48.4419 4.44326 48.4079 4.24067 48.3276 4.05167C48.2496 3.86267 48.1357 3.69064 47.9887 3.54578C47.8418 3.40091 47.672 3.28661 47.4798 3.20852C47.3012 3.13156 47.0965 3.09082 46.8942 3.09082Z" fill="#ECE8E3"/>
<path d="M102.952 9.77783H97.4242C97.1416 9.77783 96.8817 9.66805 96.6895 9.47453C96.4973 9.27986 96.3843 9.01616 96.3843 8.74002V7.23932C96.3843 6.96431 96.4973 6.70061 96.6895 6.50595C96.8817 6.31129 97.1416 6.20264 97.4242 6.20264H103.167C103.584 6.20264 103.98 6.03854 104.263 5.74654C104.557 5.45455 104.727 5.05844 104.727 4.64649C104.727 4.2334 104.557 3.83729 104.263 3.54643C103.98 3.25444 103.584 3.09033 103.167 3.09033H97.4358C96.3392 3.09033 95.2763 3.52719 94.5076 4.30583C93.7276 5.08334 93.2866 6.13926 93.2866 7.23932V8.74002C93.2866 9.84121 93.7276 10.896 94.5076 11.6746C95.2763 12.4533 96.3392 12.8901 97.4358 12.8901H102.963C103.234 12.8901 103.494 12.9988 103.698 13.1934C103.89 13.3881 103.992 13.6518 103.992 13.928V15.4286C103.992 15.7037 103.89 15.9674 103.698 16.162C103.493 16.3567 103.234 16.4653 102.963 16.4653H94.847C94.4401 16.4653 94.0442 16.6294 93.7503 16.9214C93.4552 17.2134 93.2982 17.6084 93.2982 18.0215C93.2982 18.4346 93.4564 18.8296 93.7503 19.1215C94.0442 19.4135 94.4389 19.5776 94.847 19.5776H102.952C104.049 19.5776 105.1 19.1408 105.88 18.3621C106.66 17.5846 107.089 16.5287 107.089 15.4286V13.9234C107.089 12.8245 106.648 11.7697 105.88 10.9922C105.1 10.2136 104.048 9.77783 102.952 9.77783Z" fill="#ECE8E3"/>
<path d="M58.617 4.03794C58.5029 3.75727 58.3005 3.51847 58.0518 3.34984C57.7918 3.18234 57.4982 3.0918 57.193 3.0918C56.8866 3.0918 56.5936 3.18234 56.3324 3.34984C56.0838 3.51847 55.8817 3.75727 55.7562 4.03794L50.0814 17.4074C49.9786 17.6439 49.9457 17.9008 49.9672 18.1577C49.9909 18.4135 50.0686 18.6591 50.2156 18.8741C50.3512 19.088 50.5558 19.2646 50.7808 19.3857C51.0069 19.5079 51.2571 19.5713 51.516 19.5713H62.8539C63.1128 19.5713 63.3741 19.5079 63.6002 19.3857C63.8251 19.2646 64.017 19.088 64.1527 18.8741C64.2996 18.6591 64.379 18.4135 64.4027 18.1577C64.4253 17.9008 64.3902 17.6439 64.2885 17.4074L58.617 4.03794ZM53.8795 16.459L57.2029 8.62721L60.5152 16.459H53.8795Z" fill="#ECE8E3"/>
</svg>
