<svg width="17" height="14" viewBox="0 0 17 14" fill="none" xmlns="http://www.w3.org/2000/svg">
<path d="M14.65 0H2.65C1.3268 0 0.25 1.04689 0.25 2.33333V11.6667C0.25 12.9531 1.3268 14 2.65 14H14.65C15.5324 14 16.25 13.3023 16.25 12.4444V1.55556C16.25 0.697667 15.5324 0 14.65 0ZM2.65 12.4444C2.2084 12.4444 1.85 12.0952 1.85 11.6667V2.33333C1.85 1.90478 2.2084 1.55556 2.65 1.55556H14.65V3.88889H9.85C8.9676 3.88889 8.25 4.58656 8.25 5.44444V8.55556C8.25 9.41344 8.9676 10.1111 9.85 10.1111H14.6508V12.4444H2.65ZM14.65 5.44444V8.55556H9.85V5.44444H14.65Z" fill="#787878"/>
</svg>
