<svg width="16" height="15" viewBox="0 0 16 15" fill="none" xmlns="http://www.w3.org/2000/svg">
<path fill-rule="evenodd" clip-rule="evenodd" d="M8.57495 1.00001C8.57495 0.558184 8.93312 0.200012 9.37495 0.200012H14.25C14.6918 0.200012 15.05 0.558184 15.05 1.00001V5.87501C15.05 6.31684 14.6918 6.67501 14.25 6.67501C13.8081 6.67501 13.45 6.31684 13.45 5.87501V2.93138L6.69064 9.6907C6.37822 10.0031 5.87169 10.0031 5.55927 9.6907C5.24685 9.37828 5.24685 8.87175 5.55927 8.55933L12.3186 1.80001H9.37495C8.93312 1.80001 8.57495 1.44184 8.57495 1.00001ZM1.16022 2.53528C1.61499 2.0805 2.2318 1.82501 2.87495 1.82501H6.12495C6.56678 1.82501 6.92495 2.18318 6.92495 2.62501C6.92495 3.06684 6.56678 3.42501 6.12495 3.42501H2.87495C2.65615 3.42501 2.44631 3.51193 2.29159 3.66665C2.13687 3.82137 2.04995 4.03121 2.04995 4.25001V12.375C2.04995 12.5938 2.13687 12.8037 2.29159 12.9584C2.44631 13.1131 2.65615 13.2 2.87495 13.2H11C11.2188 13.2 11.4286 13.1131 11.5833 12.9584C11.738 12.8037 11.825 12.5938 11.825 12.375V9.12501C11.825 8.68318 12.1831 8.32501 12.625 8.32501C13.0668 8.32501 13.425 8.68318 13.425 9.12501V12.375C13.425 13.0182 13.1695 13.635 12.7147 14.0897C12.2599 14.5445 11.6431 14.8 11 14.8H2.87495C2.2318 14.8 1.61499 14.5445 1.16022 14.0897C0.705442 13.635 0.449951 13.0182 0.449951 12.375V4.25001C0.449951 3.60686 0.705441 2.99005 1.16022 2.53528Z" fill="#787878"/>
</svg>
