<svg width="100" height="16" viewBox="0 0 100 16" fill="none" xmlns="http://www.w3.org/2000/svg">
<path d="M8.25684 0L16.7227 5.13999V10.28L8.25684 5.13999V0Z" fill="url(#logo_gold_paint0_linear)"/>
<path d="M8.25684 15.9911L16.7227 10.9031V5.81494L8.25684 10.9031V15.9911Z" fill="url(#logo_gold_paint1_linear)"/>
<path d="M8.25687 0L0 5.13999V10.28L8.25687 5.13999V0Z" fill="url(#logo_gold_paint2_linear)"/>
<path d="M8.25687 15.9911L0 10.9031V5.81494L8.25687 10.9031V15.9911Z" fill="url(#logo_gold_paint3_linear)"/>
<path fill-rule="evenodd" clip-rule="evenodd" d="M26.8995 12.9968H28.3199V8.34821H28.3206V7.12867H28.3199V2.86743H26.8995V12.9968ZM29.8264 8.34821H29.8259V7.12867H29.8264L32.3803 2.86743H33.9442L31.0029 7.67388V7.70257L34.1307 12.9968H32.5238L29.8264 8.34821ZM43.6152 2.86743L41.6352 10.2995C41.4917 10.859 41.42 11.3756 41.42 11.3756H41.3913C41.3913 11.3756 41.3339 10.8447 41.2048 10.2995L39.4113 2.86743H37.9479L40.5304 12.9968H42.1804L43.9308 6.42563C44.103 5.77999 44.2321 4.99088 44.2321 4.99088H44.2608C44.2608 4.99088 44.3899 5.77999 44.5621 6.42563L46.3125 12.9968H47.9625L50.6168 2.86743H49.1533L47.2881 10.2995C47.1447 10.8447 47.1016 11.3756 47.1016 11.3756H47.0729C47.0729 11.3756 47.0012 10.859 46.8577 10.2995L44.8777 2.86743H43.6152ZM61.5962 12.9968H55.4697V2.86743H61.3523V4.10133H56.8902V7.27214H60.5201V8.50603H56.8902V11.7629H61.5962V12.9968ZM66.7074 12.9968H68.1278V6.42563C68.1278 5.85173 68.0274 4.94783 68.0274 4.94783H68.056C68.056 4.94783 68.5295 5.86608 68.9026 6.42563L73.4221 12.9968H74.8138V2.86743H73.3934V9.45298C73.3934 10.0125 73.4938 10.9164 73.4938 10.9164H73.4651C73.4651 10.9164 72.9916 9.99819 72.6186 9.45298L68.1134 2.86743H66.7074V12.9968ZM84.166 12.9968H82.7456V4.10133H79.2735V2.86743H87.6382V4.10133H84.166V12.9968ZM97.5209 12.9968H98.9987L95.3544 2.86743H93.8622L90.2179 12.9968H91.6814L92.6708 10.1276L92.6705 10.1276L93.0588 8.90777L94.1922 5.69391C94.3644 5.17739 94.5939 4.25915 94.5939 4.25915H94.6226C94.6226 4.25915 94.8379 5.17739 95.01 5.69391L96.1291 8.90777L96.1294 8.90772L96.5146 10.1197L97.5209 12.9968Z" fill="white"/>
<defs>
<linearGradient id="logo_gold_paint0_linear" x1="23.9419" y1="5.11133" x2="3.0654" y2="5.11133" gradientUnits="userSpaceOnUse">
<stop stop-color="#996939"/>
<stop offset="1" stop-color="#D0A875"/>
</linearGradient>
<linearGradient id="logo_gold_paint1_linear" x1="12.4898" y1="15.9911" x2="14.5458" y2="-3.47361" gradientUnits="userSpaceOnUse">
<stop stop-color="#272728"/>
<stop offset="1" stop-color="#4B4B4B"/>
</linearGradient>
<linearGradient id="logo_gold_paint2_linear" x1="8.30785" y1="2.1074" x2="-0.0024709" y2="8.61839" gradientUnits="userSpaceOnUse">
<stop stop-color="#996939"/>
<stop offset="1" stop-color="#D0A875"/>
</linearGradient>
<linearGradient id="logo_gold_paint3_linear" x1="4.12843" y1="15.9911" x2="4.12843" y2="5.81494" gradientUnits="userSpaceOnUse">
<stop stop-color="#363636"/>
<stop offset="1" stop-color="#333232"/>
</linearGradient>
</defs>
</svg>
