<svg width="113" height="21" fill="none" xmlns="http://www.w3.org/2000/svg"><path d="m8.887 3 9.112 5.464v5.465L8.887 8.464V3Z" fill="url(#a)"/><path d="m8.887 20 9.112-5.409v-5.41l-9.112 5.41v5.41Z" fill="url(#b)"/><path d="M8.887 3 0 8.464v5.465l8.887-5.465V3Z" fill="url(#c)"/><path d="M8.887 20 0 14.591v-5.41l8.887 5.41v5.41Z" fill="url(#d)"/><path fill-rule="evenodd" clip-rule="evenodd" d="M26.898 13.004h1.42V8.353h.002v-1.22h-.001V2.869h-1.42v10.135Zm2.927-4.651v-1.22l2.554-4.264h1.564l-2.941 4.81v.028l3.127 5.297h-1.606l-2.698-4.651Zm13.788-5.484-1.98 7.436c-.143.56-.215 1.077-.215 1.077h-.028s-.058-.531-.187-1.077L39.41 2.87h-1.464l2.583 10.135h1.65l1.75-6.575c.172-.646.301-1.435.301-1.435h.029s.13.79.301 1.435l1.75 6.575h1.65L50.616 2.87H49.15l-1.865 7.436c-.143.546-.186 1.077-.186 1.077h-.029s-.072-.517-.215-1.077l-1.98-7.436h-1.263Zm17.98 10.135h-6.126V2.87h5.883v1.235h-4.462v3.172h3.63v1.235h-3.63v3.259h4.706v1.234Zm5.112 0h1.42V6.43c0-.574-.1-1.478-.1-1.478h.028s.474.918.847 1.478l4.519 6.575h1.392V2.87h-1.42v6.59c0 .56.1 1.464.1 1.464h-.029s-.474-.92-.847-1.465L68.111 2.87h-1.406v10.135Zm17.457 0h-1.42v-8.9H79.27V2.869h8.365v1.235h-3.473v8.9Zm13.355 0h1.478L95.35 2.87h-1.492l-3.644 10.135h1.463l.99-2.87.388-1.221 1.133-3.216c.172-.517.402-1.435.402-1.435h.029s.215.918.387 1.435l1.12 3.216.385 1.213 1.006 2.878Z" fill="#fff"/><path d="M104.487 1.078v-.1H103.291V6.565h3.737V5.438h-2.541v-4.36Zm3.813 4.441-.03.03v1.016h3.83V5.507h-2.25l1.415-1.332c.213-.2.389-.423.528-.67h.001c.142-.258.213-.533.213-.824 0-.26-.046-.497-.14-.71a1.534 1.534 0 0 0-.388-.535 1.667 1.667 0 0 0-.583-.332 2.241 2.241 0 0 0-.719-.111c-.288 0-.552.044-.792.135a1.712 1.712 0 0 0-.613.371 1.65 1.65 0 0 0-.395.598 2.06 2.06 0 0 0-.138.774v.1h1.181v-.1c0-.247.06-.445.174-.602v-.001c.104-.147.283-.232.567-.232.213 0 .373.058.489.164l.002.002c.112.097.174.244.174.456 0 .115-.029.249-.093.402-.059.14-.175.296-.355.468L108.3 5.52Z" fill="url(#e)" stroke="url(#f)" stroke-width=".2"/><path d="M27.462 17.66v-1.305h2.588v-.533h-3.225V20h.637v-1.8h2.333v-.54h-2.333Zm13.996.795v-2.632h-.637v2.632c0 .165-.023.315-.06.45a.905.905 0 0 1-.188.345.808.808 0 0 1-.33.225c-.135.052-.3.082-.487.082-.383 0-.653-.104-.81-.307-.165-.203-.248-.473-.248-.795v-2.632h-.637v2.632c0 .518.15.915.45 1.208.3.292.712.442 1.245.442.532 0 .952-.15 1.252-.442.3-.293.45-.69.45-1.208ZM51.517 20v-3.63h1.597v-.548h-3.832v.548h1.59V20h.645Zm12.818-1.545v-2.632h-.637v2.632c0 .165-.023.315-.06.45a.905.905 0 0 1-.188.345.808.808 0 0 1-.33.225c-.135.052-.3.082-.487.082-.383 0-.653-.104-.81-.307-.165-.203-.248-.473-.248-.795v-2.632h-.637v2.632c0 .518.15.915.45 1.208.3.292.712.442 1.245.442.532 0 .952-.15 1.252-.442.3-.293.45-.69.45-1.208Zm9.969-.15L75.135 20h.705l-.9-1.808c.293-.082.51-.224.66-.427.15-.203.225-.435.225-.705 0-.21-.037-.39-.112-.547a1.11 1.11 0 0 0-.3-.39 1.408 1.408 0 0 0-.436-.226 1.694 1.694 0 0 0-.517-.075h-1.995V20h.638v-1.695h1.2Zm.87-1.245c0 .255-.076.435-.226.54-.15.112-.352.165-.614.165h-1.23v-1.41h1.222c.263 0 .473.06.623.172.15.113.225.293.225.533Zm8.843-1.237V20h3.18v-.532h-2.543v-1.373h2.1v-.54h-2.1v-1.2h2.543v-.533h-3.18Zm14.7 3c0-.338-.12-.608-.352-.803-.232-.195-.54-.322-.915-.375l-.802-.113a1.036 1.036 0 0 1-.465-.165c-.12-.082-.18-.217-.18-.39 0-.127.03-.232.097-.322a.81.81 0 0 1 .233-.218c.097-.052.202-.097.315-.127.112-.022.225-.037.33-.037a1.5 1.5 0 0 1 .457.067.95.95 0 0 1 .33.203.743.743 0 0 1 .21.502h.66c-.007-.353-.15-.645-.435-.893a1.57 1.57 0 0 0-.547-.307 2.26 2.26 0 0 0-1.26-.015 1.641 1.641 0 0 0-.518.24 1.35 1.35 0 0 0-.375.398 1.002 1.002 0 0 0-.142.54c0 .337.112.592.33.765.217.18.51.292.87.345l.795.112c.255.037.435.113.547.218a.549.549 0 0 1 .165.404c0 .218-.09.39-.277.518-.188.127-.443.188-.78.188a1.66 1.66 0 0 1-.465-.068 1.03 1.03 0 0 1-.398-.188.778.778 0 0 1-.21-.277.804.804 0 0 1-.082-.345h-.66c0 .203.045.39.135.563.082.172.202.322.345.45.172.142.367.247.592.314.218.068.465.098.735.098.21 0 .42-.023.623-.075a1.93 1.93 0 0 0 .555-.233c.157-.105.292-.24.39-.397.097-.157.15-.352.15-.577Z" fill="url(#g)"/><defs><linearGradient id="a" x1="25.77" y1="8.434" x2="3.299" y2="8.434" gradientUnits="userSpaceOnUse"><stop stop-color="#996939"/><stop offset="1" stop-color="#D0A875"/></linearGradient><linearGradient id="b" x1="13.443" y1="20" x2="15.602" y2="-.698" gradientUnits="userSpaceOnUse"><stop stop-color="#272728"/><stop offset="1" stop-color="#4B4B4B"/></linearGradient><linearGradient id="c" x1="8.942" y1="5.24" x2=".082" y2="12.269" gradientUnits="userSpaceOnUse"><stop stop-color="#996939"/><stop offset="1" stop-color="#D0A875"/></linearGradient><linearGradient id="d" x1="4.444" y1="20" x2="4.444" y2="9.182" gradientUnits="userSpaceOnUse"><stop stop-color="#363636"/><stop offset="1" stop-color="#333232"/></linearGradient><linearGradient id="e" x1="107.695" y1="1.078" x2="107.695" y2="6.465" gradientUnits="userSpaceOnUse"><stop stop-color="#D1A866"/><stop offset="1" stop-color="#B99356"/></linearGradient><linearGradient id="f" x1="107.695" y1="1.078" x2="107.695" y2="6.465" gradientUnits="userSpaceOnUse"><stop stop-color="#F2DE82"/><stop offset="1" stop-color="#D1A866"/></linearGradient><linearGradient id="g" x1="64" y1="13" x2="64" y2="26" gradientUnits="userSpaceOnUse"><stop stop-color="#E4B378"/><stop offset="1" stop-color="#B98C55"/></linearGradient></defs></svg>