<svg width="157" height="25" viewBox="0 0 157 25" fill="none" xmlns="http://www.w3.org/2000/svg">
<path d="M13.0925 0.5L26.5165 8.21425V15.9286L13.0925 8.21425V0.5Z" fill="url(#paint0_linear_264_13644)"/>
<path d="M13.0925 24.5L26.5165 16.8637V9.22726L13.0925 16.8637V24.5Z" fill="url(#paint1_linear_264_13644)"/>
<path d="M13.0925 0.5L0 8.21425V15.9286L13.0925 8.21425V0.5Z" fill="url(#paint2_linear_264_13644)"/>
<path d="M13.0925 24.5L0 16.8637V9.22726L13.0925 16.8637V24.5Z" fill="url(#paint3_linear_264_13644)"/>
<path fill-rule="evenodd" clip-rule="evenodd" d="M42.6533 20.0062H44.9056V13.0294H44.9067V11.1991H44.9056V4.80371H42.6533V20.0062ZM47.2944 13.0294H47.2934V11.1991H47.2944L51.3439 4.80371H53.8237L49.1599 12.0174V12.0604L54.1194 20.0062H51.5714L47.2944 13.0294ZM69.1584 4.80371L66.0188 15.958C65.7913 16.7978 65.6776 17.573 65.6776 17.573H65.6321C65.6321 17.573 65.5411 16.7762 65.3363 15.958L62.4926 4.80371H60.172L64.2671 20.0062H66.8834L69.6589 10.144C69.9319 9.17497 70.1366 7.99064 70.1366 7.99064H70.1821C70.1821 7.99064 70.3869 9.17497 70.6599 10.144L73.4354 20.0062H76.0517L80.2605 4.80371H77.94L74.9824 15.958C74.7549 16.7762 74.6867 17.573 74.6867 17.573H74.6412C74.6412 17.573 74.5274 16.7978 74.2999 15.958L71.1604 4.80371H69.1584ZM97.6699 20.0062H87.9556V4.80371H97.2831V6.65558H90.2078V11.4144H95.9636V13.2663H90.2078V18.1544H97.6699V20.0062ZM105.774 20.0062H108.027V10.144C108.027 9.28264 107.868 7.92604 107.868 7.92604H107.913C107.913 7.92604 108.664 9.30417 109.255 10.144L116.422 20.0062H118.628V4.80371H116.376V14.6875C116.376 15.5273 116.535 16.8839 116.535 16.8839H116.49C116.49 16.8839 115.739 15.5058 115.148 14.6875L108.004 4.80371H105.774V20.0062ZM133.458 20.0062H131.205V6.65558H125.7V4.80371H138.963V6.65558H133.458V20.0062ZM154.634 20.0062H156.977L151.198 4.80371H148.832L143.054 20.0062H145.374L146.943 15.6999L146.943 15.6999L147.558 13.8692L147.558 13.8692L149.356 9.04577C149.629 8.27057 149.993 6.89244 149.993 6.89244H150.038C150.038 6.89244 150.379 8.27057 150.652 9.04577L152.427 13.8692H152.428L153.039 15.6893L154.634 20.0062Z" fill="white"/>
<defs>
<linearGradient id="paint0_linear_264_13644" x1="37.9634" y1="8.17124" x2="4.86074" y2="8.17124" gradientUnits="userSpaceOnUse">
<stop stop-color="#996939"/>
<stop offset="1" stop-color="#D0A875"/>
</linearGradient>
<linearGradient id="paint1_linear_264_13644" x1="19.8045" y1="24.5" x2="22.7285" y2="-4.74686" gradientUnits="userSpaceOnUse">
<stop stop-color="#272728"/>
<stop offset="1" stop-color="#4B4B4B"/>
</linearGradient>
<linearGradient id="paint2_linear_264_13644" x1="13.1733" y1="3.66286" x2="0.553924" y2="14.1087" gradientUnits="userSpaceOnUse">
<stop stop-color="#996939"/>
<stop offset="1" stop-color="#D0A875"/>
</linearGradient>
<linearGradient id="paint3_linear_264_13644" x1="6.54623" y1="24.5" x2="6.54623" y2="9.22726" gradientUnits="userSpaceOnUse">
<stop stop-color="#363636"/>
<stop offset="1" stop-color="#333232"/>
</linearGradient>
</defs>
</svg>
