<svg width="59" height="57" fill="none" xmlns="http://www.w3.org/2000/svg"><path d="M29.281 0l29.281 18.075v18.074L29.281 18.075V0z" fill="url(#paint0_linear)"/><path d="M29.281 56.032l29.281-18.075V19.882L29.281 37.957v18.075z" fill="#0B0C0B"/><path d="M29.281 0L0 18.075v18.074l29.281-18.074V0z" fill="url(#paint1_linear)"/><path d="M29.281 56.032L0 37.957V19.882l29.281 18.075v18.075z" fill="url(#paint2_linear)"/><path d="M29.281 0l29.281 18.075v18.074L29.281 18.075V0z" fill="url(#paint3_linear)"/><path d="M29.281 56.032l29.281-18.075V19.882L29.281 37.957v18.075z" fill="#0B0C0B"/><path d="M29.281 0L0 18.075v18.074l29.281-18.074V0z" fill="url(#paint4_linear)"/><path d="M29.281 56.032L0 37.957V19.882l29.281 18.075v18.075z" fill="url(#paint5_linear)"/><defs><linearGradient id="paint0_linear" x1="29.1" y1="7.411" x2="58.381" y2="30.546" gradientUnits="userSpaceOnUse"><stop stop-color="#707070"/><stop offset="1" stop-color="#DBDBDB"/></linearGradient><linearGradient id="paint1_linear" x1="29.462" y1="7.411" x2=".181" y2="30.546" gradientUnits="userSpaceOnUse"><stop stop-color="#3F3E3E"/><stop offset="1" stop-color="#929292"/></linearGradient><linearGradient id="paint2_linear" x1="14.64" y1="56.032" x2="14.64" y2="19.882" gradientUnits="userSpaceOnUse"><stop stop-color="#666"/><stop offset="1"/></linearGradient><linearGradient id="paint3_linear" x1="29.1" y1="7.411" x2="58.381" y2="30.546" gradientUnits="userSpaceOnUse"><stop stop-color="#A512FF"/><stop offset="1" stop-color="#FF61EF"/></linearGradient><linearGradient id="paint4_linear" x1="29.462" y1="7.411" x2=".181" y2="30.546" gradientUnits="userSpaceOnUse"><stop stop-color="#4B0DCE"/><stop offset="1" stop-color="#772385"/></linearGradient><linearGradient id="paint5_linear" x1="14.64" y1="56.032" x2="14.64" y2="19.882" gradientUnits="userSpaceOnUse"><stop stop-color="#666"/><stop offset="1"/></linearGradient></defs></svg>