<svg fill="none" height="20" viewBox="0 0 127 20" width="127" xmlns="http://www.w3.org/2000/svg" xmlns:xlink="http://www.w3.org/1999/xlink"><linearGradient id="a"><stop offset="0" stop-color="#996939"/><stop offset="1" stop-color="#d0a875"/></linearGradient><linearGradient id="b" gradientUnits="userSpaceOnUse" x1="28.6339" x2="3.66621" xlink:href="#a" y1="6.96699" y2="6.96699"/><linearGradient id="c" gradientUnits="userSpaceOnUse" x1="14.9376" x2="17.3368" y1="19.8183" y2="-3.17984"><stop offset="0" stop-color="#272728"/><stop offset="1" stop-color="#4b4b4b"/></linearGradient><linearGradient id="d" gradientUnits="userSpaceOnUse" x1="9.93598" x2=".091243" xlink:href="#a" y1="3.41873" y2="11.2283"/><linearGradient id="e" gradientUnits="userSpaceOnUse" x1="4.93749" x2="4.93749" y1="19.8183" y2="7.7981"><stop offset="0" stop-color="#363636"/><stop offset="1" stop-color="#333232"/></linearGradient><linearGradient id="f"><stop offset="0" stop-color="#ffd39b"/><stop offset="1" stop-color="#7c4c0e"/></linearGradient><linearGradient id="g" gradientUnits="userSpaceOnUse" x1="110.379" x2="110.379" xlink:href="#f" y1=".99997" y2="8.99997"/><linearGradient id="h" gradientUnits="userSpaceOnUse" x1="121.879" x2="121.879" xlink:href="#f" y1=".99997" y2="8.99997"/><path d="m9.87503.929443 10.12497 6.071397v6.07146l-10.12497-6.07146z" fill="url(#b)"/><path d="m9.87503 19.8183 10.12497-6.0101v-6.0101l-10.12497 6.0101z" fill="url(#c)"/><path d="m9.875.929443-9.875 6.071397v6.07146l9.875-6.07146z" fill="url(#d)"/><path d="m9.875 19.8183-9.875-6.0101v-6.0101l9.875 6.0101z" fill="url(#e)"/><path clip-rule="evenodd" d="m29 15.4414h1.4204v-4.6512h.0007v-1.22021h-.0007v-4.26359h-1.4204zm2.9268-4.6512h-.0006v-1.22021h.0006l2.5538-4.26359h1.5638l-2.9411 4.8091v.0287l3.1276 5.2972h-1.6068zm13.7881-5.4838-1.9798 7.4362c-.1435.5598-.2152 1.0766-.2152 1.0766h-.0287s-.0574-.5311-.1866-1.0766l-1.7933-7.4362h-1.4634l2.5824 10.135h1.6499l1.7504-6.57483c.1721-.646.3013-1.43555.3013-1.43555h.0287s.1291.78955.3012 1.43555l1.7504 6.57483h1.6499l2.6542-10.135h-1.4634l-1.8651 7.4362c-.1435.5455-.1865 1.0766-.1865 1.0766h-.0287s-.0718-.5168-.2152-1.0766l-1.9799-7.4362zm17.9803 10.135h-6.1262v-10.135h5.8823v1.23458h-4.4619v3.17257h3.6298v1.23455h-3.6298v3.2587h4.7058zm5.111 0h1.4203v-6.57483c0-.57422-.1004-1.47862-.1004-1.47862h.0287s.4734.91876.8465 1.47862l4.5193 6.57483h1.3916v-10.135h-1.4203v6.5892c0 .5599.1004 1.4643.1004 1.4643h-.0287s-.4735-.9188-.8465-1.4643l-4.5049-6.5892h-1.406zm17.4579 0h-1.4204v-8.90042h-3.4719v-1.23458h8.3643v1.23458h-3.472zm13.3542 0h1.4777l-3.6441-10.135h-1.4921l-3.6441 10.135h1.4634l.9894-2.8708-.0003-.0001.3882-1.2204 1.1334-3.21566c.1722-.5168.4017-1.43555.4017-1.43555h.0287s.2152.91875.3874 1.43555l1.1191 3.21566.0003-.0001.3853 1.2134z" fill="#000" fill-rule="evenodd"/><path d="m105.196 1.02948v5.97053h2.45c1.112 0 1.912-.64842 1.912-1.66737 0-.63158-.379-1.23789-.994-1.44.564-.2021.859-.74947.859-1.3221 0-.94316-.758-1.54106-1.785-1.54106zm2.408 5.28h-1.676v-2.08h1.676c.666 0 1.188.38737 1.188 1.05264 0 .71578-.531 1.02736-1.188 1.02736zm-.017-2.73684h-1.659v-1.8779h1.651c.589 0 1.078.31159 1.078.93474 0 .64842-.438.94316-1.07.94316zm7.461-2.54316h-3.908v5.97053h3.908v-.69053h-3.158v-2.04631h2.762v-.70737h-2.762v-1.83579h3.158z" fill="#b98b55"/><path d="m105.196 1.02944v-.099997h-.1v.099997zm0 5.97053h-.1v.1h.1zm3.368-3.10737-.033-.09414-.275.0982.277.09094zm-2.636 2.41684h-.1v.1h.1zm0-2.08v-.1h-.1v.1zm0-.65684h-.1v.1h.1zm0-1.87789v-.1h-.1v.1zm-.832-.66527v5.97053h.2v-5.97053zm.1 6.07053h2.45v-.2h-2.45zm2.45 0c.575 0 1.077-.16767 1.438-.47554.362-.30913.574-.75413.574-1.29183h-.2c0 .48125-.188.86993-.504 1.13975-.317.27108-.771.42762-1.308.42762zm2.012-1.76737c0-.66875-.401-1.31761-1.063-1.535l-.062.19c.568.18682.925.75059.925 1.345zm-1.06-1.34586c.613-.21952.925-.81167.925-1.41624h-.2c0 .54068-.277 1.04328-.792 1.22796zm.925-1.41624c0-.50062-.202-.91407-.543-1.20074-.339-.28535-.81-.440317-1.342-.440317v.199997c.495 0 .917.14398 1.213.39338.295.24806.472.60513.472 1.04768zm-1.885-1.641057h-2.442v.199997h2.442zm-.034 5.279997h-1.676v.2h1.676zm-1.576.1v-2.08h-.2v2.08zm-.1-1.98h1.676v-.2h-1.676zm1.676 0c.314 0 .587.09142.779.25333.19.16036.309.39516.309.69931h.2c0-.36113-.143-.65264-.38-.85228-.235-.19809-.556-.30036-.908-.30036zm1.088.95264c0 .33034-.121.55673-.309.70323-.192.14936-.464.22413-.779.22413v.2c.343 0 .664-.08101.902-.26639.241-.18824.386-.47553.386-.86097zm-1.105-1.80948h-1.659v.2h1.659zm-1.559.1v-1.87789h-.2v1.87789zm-.1-1.77789h1.651v-.2h-1.651zm1.651 0c.278 0 .524.07371.698.21193.171.13596.28.34029.28.6228h.2c0-.34064-.135-.60368-.356-.7793-.218-.17335-.511-.25543-.822-.25543zm.978.83473c0 .29991-.1.50502-.261.63746-.165.13505-.407.2057-.709.2057v.2c.33 0 .623-.07672.835-.25114.216-.17703.335-.4435.335-.79202zm6.491-1.6h.1v-.099997h-.1zm-3.908 0v-.099997h-.1v.099997zm0 5.97053h-.1v.1h.1zm3.908 0v.1h.1v-.1zm0-.69053h.1v-.1h-.1zm-3.158 0h-.1v.1h.1zm0-2.04631v-.1h-.1v.1zm2.762 0v.1h.1v-.1zm0-.70737h.1v-.1h-.1zm-2.762 0h-.1v.1h.1zm0-1.83579v-.1h-.1v.1zm3.158 0v.1h.1v-.1zm0-.790527h-3.908v.199997h3.908zm-4.008.099997v5.97053h.2v-5.97053zm.1 6.07053h3.908v-.2h-3.908zm4.008-.1v-.69053h-.2v.69053zm-.1-.79053h-3.158v.2h3.158zm-3.058.1v-2.04631h-.2v2.04631zm-.1-1.94631h2.762v-.2h-2.762zm2.862-.1v-.70737h-.2v.70737zm-.1-.80737h-2.762v.2h2.762zm-2.662.1v-1.83579h-.2v1.83579zm-.1-1.73579h3.158v-.2h-3.158zm3.258-.1v-.69053h-.2v.69053z" fill="url(#g)"/><path d="m116.514 1.72843h1.903v5.27158h.758v-5.27158h1.903v-.69895h-4.564zm8.704 3.58737.606 1.68421h.783l-2.223-5.97053h-.893l-2.214 5.97053h.766l.598-1.68421zm-.261-.70737h-2.064l1.028-2.88z" fill="#b98b55"/><path d="m116.514 1.72839h-.1v.1h.1zm1.903 0h.1v-.1h-.1zm0 5.27158h-.1v.1h.1zm.758 0v.1h.1v-.1zm0-5.27158v-.1h-.1v.1zm1.903 0v.1h.1v-.1zm0-.69895h.1v-.099997h-.1zm-4.564 0v-.099997h-.1v.099997zm0 .79895h1.903v-.2h-1.903zm1.803-.1v5.27158h.2v-5.27158zm.1 5.37158h.758v-.2h-.758zm.858-.1v-5.27158h-.2v5.27158zm-.1-5.17158h1.903v-.2h-1.903zm2.003-.1v-.69895h-.2v.69895zm-.1-.798947h-4.564v.199997h4.564zm-4.664.099997v.69895h.2v-.69895zm8.804 4.28632.094-.03387-.024-.06613h-.07zm.606 1.68421-.094.03387.024.06613h.07zm.783 0v.1h.144l-.05-.13489zm-2.223-5.97053.094-.034892-.025-.065105h-.069zm-.893 0v-.099997h-.069l-.025.065222zm-2.214 5.97053-.094-.03478-.05.13478h.144zm.766 0v.1h.07l.024-.06655zm.598-1.68421v-.1h-.071l-.024.06654zm2.316-.70737v.1h.142l-.048-.13384zm-2.064 0-.094-.0336-.048.1336h.142zm1.028-2.88.094-.03384-.095-.26271-.093.26295zm1.202 3.62124.607 1.68421.188-.06774-.606-1.68421zm.701 1.75034h.783v-.2h-.783zm.877-.13489-2.223-5.970532-.188.069792 2.223 5.97052zm-2.317-6.035637h-.893v.199997h.893zm-.987.065222-2.214 5.970525.187.06956 2.215-5.97053zm-2.12 6.105305h.766v-.2h-.766zm.86-.06655.598-1.68421-.189-.06691-.597 1.68422zm.504-1.61766h2.577v-.2h-2.577zm2.316-.90737h-2.064v.2h2.064zm-1.969.1336 1.027-2.88-.188-.0672-1.028 2.88zm.839-2.87976 1.035 2.88.189-.06768-1.036-2.88z" fill="url(#h)"/></svg>