<svg width="100" height="16" fill="none" xmlns="http://www.w3.org/2000/svg" viewBox="0 0 100 16">
    <path d="M8.37 0l8.37 5.161v5.162L8.37 5.16V0z" fill="url(#logo_paint0_linear)"/>
    <path d="M8.37 16l8.37-5.161V5.678l-8.37 5.16V16z" fill="#0B0C0B"/>
    <path d="M8.37 0L0 5.161v5.162L8.37 5.16V0z" fill="url(#logo_paint1_linear)"/>
    <path d="M8.37 16L0 10.84V5.678l8.37 5.16V16z" fill="url(#logo_paint2_linear)"/>
    <path d="M8.37 0l8.37 5.161v5.162L8.37 5.16V0z" fill="url(#paint3_linear)"/>
    <path d="M8.37 16l8.37-5.161V5.678l-8.37 5.16V16z" fill="#0B0C0B"/>
    <path d="M8.37 0L0 5.161v5.162L8.37 5.16V0z" fill="url(#logo_paint4_linear)"/>
    <path d="M8.37 16L0 10.84V5.678l8.37 5.16V16z" fill="url(#logo_paint5_linear)"/>
    <path fill-rule="evenodd" clip-rule="evenodd" d="M26.927 12.997h1.421V8.348h.001v-5.48h-1.422v10.129zm2.93-4.649h-.001v-1.22l2.557-4.26h1.565l-2.944 4.806v.029l3.13 5.294h-1.608l-2.7-4.649zm13.802-5.48l-1.982 7.431c-.144.56-.215 1.077-.215 1.077h-.03s-.057-.531-.186-1.076l-1.795-7.433h-1.465l2.585 10.13h1.652l1.752-6.571c.172-.646.301-1.435.301-1.435h.03s.128.79.3 1.435l1.753 6.57h1.651l2.657-10.129h-1.464L47.336 10.3a7.023 7.023 0 00-.187 1.076h-.029s-.072-.517-.215-1.076l-1.982-7.433h-1.264zm17.999 10.129h-6.133V2.867h5.889v1.234h-4.467v3.171h3.634v1.234h-3.634v3.257h4.71v1.234zm5.116 0h1.422V6.426c0-.574-.1-1.478-.1-1.478h.028s.474.918.848 1.478l4.524 6.57h1.393V2.868h-1.422v6.586c0 .56.1 1.463.1 1.463h-.028s-.474-.918-.848-1.463l-4.51-6.586h-1.407v10.13zm17.476 0h-1.42V4.1h-3.476V2.867h8.373v1.234H84.25v8.896zm13.368 0h1.48L95.45 2.867h-1.494l-3.648 10.13h1.465l.99-2.87.389-1.22 1.135-3.213c.172-.517.402-1.435.402-1.435h.028s.216.918.388 1.435l1.12 3.214.386 1.212 1.007 2.877z" fill="#fff"/>
    <defs>
        <linearGradient id="logo_paint0_linear" x1="8.318" y1="2.116" x2="16.681" y2="8.731" gradientUnits="userSpaceOnUse">
            <stop stop-color="#707070"/>
            <stop offset="1" stop-color="#DBDBDB"/>
        </linearGradient>
        <linearGradient id="logo_paint1_linear" x1="8.421" y1="2.116" x2=".058" y2="8.731" gradientUnits="userSpaceOnUse">
            <stop stop-color="#3F3E3E"/>
            <stop offset="1" stop-color="#929292"/>
        </linearGradient>
        <linearGradient id="logo_paint2_linear" x1="4.185" y1="16" x2="4.185" y2="5.678" gradientUnits="userSpaceOnUse">
            <stop stop-color="#666"/>
            <stop offset="1"/>
        </linearGradient>
        <linearGradient id="paint3_linear" x1="8.318" y1="2.116" x2="16.681" y2="8.731" gradientUnits="userSpaceOnUse">
            <stop stop-color="#A512FF"/>
            <stop offset="1" stop-color="#FF61EF"/>
        </linearGradient>
        <linearGradient id="logo_paint4_linear" x1="8.421" y1="2.116" x2=".058" y2="8.731" gradientUnits="userSpaceOnUse">
            <stop stop-color="#4B0DCE"/>
            <stop offset="1" stop-color="#772385"/>
        </linearGradient>
        <linearGradient id="logo_paint5_linear" x1="4.185" y1="16" x2="4.185" y2="5.678" gradientUnits="userSpaceOnUse">
            <stop stop-color="#666"/>
            <stop offset="1"/>
        </linearGradient>
    </defs>
</svg>
