<svg width="134" height="19" viewBox="0 0 134 19" fill="none" xmlns="http://www.w3.org/2000/svg">
<path d="M9.87622 0L7.76683e-05 6.09638L7.71354e-05 12.1928L9.87622 6.09638L9.87622 0Z" fill="#0B0C0B"/>
<path d="M13.1067 0L22.9828 6.09638L22.9828 12.1928L13.1067 6.09638L13.1067 0Z" fill="url(#paint0_linear)"/>
<path d="M9.87622 0L7.76683e-05 6.09638L7.71354e-05 12.1928L9.87622 6.09638L9.87622 0Z" fill="white"/>
<path d="M13.1067 0L22.9828 6.09638L22.9828 12.1928L13.1067 6.09638L13.1067 0Z" fill="url(#paint1_linear)"/>
<path d="M13.1682 18.2892L23.0444 12.1928L23.0444 6.09639L13.1682 12.1928L13.1682 18.2892Z" fill="black"/>
<path d="M13.1682 18.2892L23.0444 12.1928L23.0444 6.09639L13.1682 12.1928L13.1682 18.2892Z" fill="url(#paint2_linear)"/>
<path d="M9.87622 18.2282L7.87343e-05 12.1318L7.92672e-05 6.03541L9.87622 12.1318L9.87622 18.2282Z" fill="url(#paint3_linear)"/>
<path d="M9.87622 18.2282L7.87343e-05 12.1318L7.92672e-05 6.03541L9.87622 12.1318L9.87622 18.2282Z" fill="url(#paint4_linear)"/>
<path d="M9.87622 18.1672L7.87343e-05 12.0708L7.92672e-05 5.97444L9.87622 12.0708L9.87622 18.1672Z" fill="url(#paint5_linear)"/>
<path d="M35.4583 15.8972H37.3996V9.54371H39.4586L43.1452 15.8972H45.3415L41.0666 8.66128V8.62206L45.0865 2.05286H42.9491L39.4586 7.8769H37.3996V2.05286H35.4583V15.8972Z" fill="white"/>
<path d="M58.3043 2.05286L55.5982 12.2106C55.4021 12.9754 55.3041 13.6813 55.3041 13.6813H55.2648C55.2648 13.6813 55.1864 12.9558 55.0099 12.2106L52.5587 2.05286H50.5585L54.0883 15.8972H56.3434L58.7357 6.91603C58.971 6.0336 59.1475 4.95507 59.1475 4.95507H59.1867C59.1867 4.95507 59.3632 6.0336 59.5985 6.91603L61.9909 15.8972H64.246L67.8738 2.05286H65.8736L63.3244 12.2106C63.1283 12.9558 63.0694 13.6813 63.0694 13.6813H63.0302C63.0302 13.6813 62.9322 12.9754 62.7361 12.2106L60.03 2.05286H58.3043Z" fill="white"/>
<path d="M74.5066 15.8972H82.8799V14.2108H76.4479V9.75942H81.4091V8.07299H76.4479V3.73928H82.5465V2.05286H74.5066V15.8972Z" fill="white"/>
<path d="M89.8656 15.8972H91.807V6.91603C91.807 6.13165 91.6697 4.89624 91.6697 4.89624H91.7089C91.7089 4.89624 92.356 6.15126 92.8659 6.91603L99.0429 15.8972H100.945V2.05286H99.0037V11.0536C99.0037 11.8184 99.1409 13.0538 99.1409 13.0538H99.1017C99.1017 13.0538 98.4546 11.7988 97.9447 11.0536L91.7873 2.05286H89.8656V15.8972Z" fill="white"/>
<path d="M111.786 15.8972H113.727V3.73928H118.473V2.05286H107.04V3.73928H111.786V15.8972Z" fill="white"/>
<path d="M131.98 15.8972H134L129.019 2.05286H126.979L121.999 15.8972H123.999L125.371 11.9165H130.588L131.98 15.8972ZM128.019 3.95498C128.019 3.95498 128.313 5.21 128.548 5.91594L130.078 10.3085H125.881L127.43 5.91594C127.666 5.21 127.98 3.95498 127.98 3.95498H128.019Z" fill="white"/>
<rect x="37.3242" y="3.58011" width="2.05286" height="11.0108" fill="black"/>
<path d="M129.983 9.92532L130.636 11.9782L125.411 11.9782L125.971 9.92532L129.983 9.92532Z" fill="black"/>
<defs>
<linearGradient id="paint0_linear" x1="18.0448" y1="4.317e-07" x2="18.0448" y2="12.1928" gradientUnits="userSpaceOnUse">
<stop stop-color="#666666"/>
<stop offset="1"/>
</linearGradient>
<linearGradient id="paint1_linear" x1="18.0448" y1="4.317e-07" x2="18.0448" y2="12.1928" gradientUnits="userSpaceOnUse">
<stop stop-color="#E7E7E7"/>
<stop offset="1"/>
<stop offset="1" stop-color="#BDBDBD"/>
</linearGradient>
<linearGradient id="paint2_linear" x1="13.1072" y1="15.7896" x2="22.9834" y2="7.98627" gradientUnits="userSpaceOnUse">
<stop stop-color="#888888"/>
<stop offset="1" stop-color="#FEFEFE"/>
</linearGradient>
<linearGradient id="paint3_linear" x1="9.93718" y1="15.7287" x2="0.0610437" y2="7.92529" gradientUnits="userSpaceOnUse">
<stop stop-color="#707070"/>
<stop offset="1" stop-color="#DBDBDB"/>
</linearGradient>
<linearGradient id="paint4_linear" x1="9.93718" y1="15.7287" x2="0.0610437" y2="7.92529" gradientUnits="userSpaceOnUse">
<stop stop-color="#12FF71"/>
<stop offset="1" stop-color="#61FFEC"/>
</linearGradient>
<linearGradient id="paint5_linear" x1="9.93718" y1="15.6677" x2="0.0610437" y2="7.86432" gradientUnits="userSpaceOnUse">
<stop stop-color="#BABABA"/>
<stop offset="1" stop-color="#515151"/>
</linearGradient>
</defs>
</svg>
