<svg width="191" height="15" viewBox="0 0 191 15" fill="none" xmlns="http://www.w3.org/2000/svg">
<path d="M18.3852 7.27904C17.5728 6.48514 16.5966 6.08837 15.456 6.08837H4.14987C3.93988 6.08837 3.75974 6.01543 3.60906 5.86918C3.45839 5.72329 3.38323 5.54536 3.38323 5.33537V4.41843C3.38323 4.21802 3.45839 4.0445 3.60906 3.89825C3.75974 3.75236 3.93988 3.67905 4.14987 3.67905H18.7274C18.7639 3.67905 18.7933 3.66763 18.8162 3.64479C18.839 3.62232 18.8504 3.5969 18.8504 3.56964V0.83207C18.8504 0.795599 18.839 0.768338 18.8162 0.749918C18.7933 0.731866 18.7635 0.722656 18.7274 0.722656H4.14987C3.0001 0.722656 2.02126 1.11979 1.21374 1.91369C0.406206 2.70759 0.00244141 3.66542 0.00244141 4.78793V4.96587C0.00244141 6.09758 0.406206 7.06021 1.21374 7.85411C2.02126 8.64801 3.0001 9.04477 4.14987 9.04477H15.456C15.6568 9.04477 15.8325 9.1155 15.9828 9.25697C16.1335 9.39843 16.2087 9.57416 16.2087 9.78415V10.7011C16.2087 10.9111 16.1335 11.0868 15.9828 11.2283C15.8322 11.3697 15.6564 11.4405 15.456 11.4405H0.864862C0.837601 11.4405 0.812181 11.4519 0.789709 11.4747C0.766868 11.4976 0.755448 11.5274 0.755448 11.5639V14.3014C0.755448 14.3287 0.766868 14.3541 0.789709 14.3766C0.812549 14.3994 0.837601 14.4109 0.864862 14.4109H15.456C16.5966 14.4109 17.5728 14.0119 18.3852 13.2132C19.1971 12.4149 19.6034 11.4545 19.6034 10.332V10.1536C19.6031 9.03114 19.1971 8.07294 18.3852 7.27904Z" fill="white"/>
<path d="M42.9306 0.722656H39.7687C39.7414 0.722656 39.716 0.731866 39.6935 0.749918C39.6707 0.768338 39.6592 0.795599 39.6592 0.832071V4.30864C39.6592 4.60963 39.5038 4.83803 39.194 4.99313L32.884 7.60728L26.5741 4.99313C26.2639 4.83803 26.1088 4.60999 26.1088 4.30864V0.832071C26.1088 0.795599 26.0996 0.768338 26.0816 0.749918C26.0628 0.731866 26.0355 0.722656 25.999 0.722656H22.8371C22.8098 0.722656 22.7844 0.731866 22.7619 0.749918C22.7391 0.768338 22.7277 0.795599 22.7277 0.832071V4.81519C22.7277 5.40868 22.892 5.95133 23.2206 6.44388C23.5492 6.9368 23.9961 7.30151 24.5619 7.53876L31.1868 10.3172V14.2871C31.1868 14.3235 31.1982 14.3534 31.2211 14.3762C31.2439 14.3991 31.2734 14.4105 31.3099 14.4105H34.4718C34.4991 14.4105 34.5241 14.3991 34.547 14.3762C34.5698 14.3534 34.5812 14.3239 34.5812 14.2871V10.3176L41.2061 7.55276C41.7716 7.3063 42.2192 6.93901 42.5475 6.45088C42.8761 5.96275 43.04 5.42231 43.04 4.82882V0.832071C43.04 0.795599 43.0286 0.768338 43.0058 0.749918C42.9829 0.731866 42.9579 0.722656 42.9306 0.722656Z" fill="white"/>
<path d="M66.4181 0.722656H63.2561C63.2197 0.722656 63.192 0.734077 63.174 0.756917C63.1556 0.779758 63.1467 0.804809 63.1467 0.832071V11.4537H61.819C61.5725 11.4537 61.3626 11.3443 61.1894 11.1251L55.0574 2.15978C54.4002 1.23841 53.4921 0.759128 52.3335 0.722656H47.0503C47.0138 0.722656 46.984 0.734077 46.9611 0.756917C46.9383 0.779758 46.9269 0.804809 46.9269 0.832071V14.3007C46.9269 14.328 46.9383 14.3534 46.9611 14.3759C46.984 14.3987 47.0135 14.4101 47.0503 14.4101H50.2123C50.2395 14.4101 50.2646 14.3987 50.2874 14.3759C50.3103 14.3534 50.3217 14.328 50.3217 14.3007V3.67905H51.6494C51.8958 3.67905 52.1055 3.79326 52.279 4.02129L58.411 12.9866C59.0682 13.9084 59.9759 14.3829 61.1349 14.4101H66.4185C66.4549 14.4101 66.4822 14.3987 66.5006 14.3759C66.5187 14.3534 66.5279 14.328 66.5279 14.3007V0.832071C66.5279 0.804809 66.5187 0.779758 66.5006 0.756917C66.4818 0.734077 66.4546 0.722656 66.4181 0.722656Z" fill="white"/>
<path d="M89.2697 0.722656H69.9015C69.8651 0.722656 69.8374 0.734077 69.8194 0.756917C69.801 0.779758 69.7921 0.804809 69.7921 0.832071V3.56964C69.7921 3.5969 69.801 3.62232 69.8194 3.64479C69.8374 3.66763 69.8651 3.67905 69.9015 3.67905H77.8951V14.3007C77.8951 14.328 77.9039 14.3534 77.9223 14.3759C77.9404 14.3987 77.968 14.4101 78.0045 14.4101H81.1664C81.2029 14.4101 81.2302 14.3987 81.2486 14.3759C81.2666 14.3534 81.2759 14.328 81.2759 14.3007V3.67905H89.2694C89.3059 3.67905 89.3353 3.66763 89.3582 3.64479C89.381 3.62195 89.3924 3.5969 89.3924 3.56964V0.832071C89.3924 0.804809 89.381 0.779758 89.3582 0.756917C89.3361 0.734077 89.3062 0.722656 89.2697 0.722656Z" fill="white"/>
<path d="M112.757 0.722656H109.595C109.568 0.722656 109.542 0.734077 109.52 0.756917C109.497 0.779758 109.486 0.804809 109.486 0.832071V6.08801H96.674V0.832071C96.674 0.804809 96.6625 0.779758 96.6397 0.756917C96.6169 0.734445 96.587 0.722656 96.5509 0.722656H93.389C93.3617 0.722656 93.3363 0.734077 93.3138 0.756917C93.291 0.779758 93.2795 0.804809 93.2795 0.832071V14.3007C93.2795 14.328 93.291 14.3534 93.3138 14.3759C93.3366 14.3987 93.3617 14.4101 93.389 14.4101H96.5509C96.5874 14.4101 96.6169 14.3987 96.6397 14.3759C96.6625 14.353 96.674 14.328 96.674 14.3007V9.04477H109.486V14.3007C109.486 14.328 109.497 14.3534 109.52 14.3759C109.543 14.3987 109.568 14.4101 109.595 14.4101H112.757C112.794 14.4101 112.823 14.3987 112.846 14.3759C112.869 14.353 112.88 14.328 112.88 14.3007V0.832071C112.88 0.804809 112.868 0.779758 112.846 0.756917C112.823 0.734077 112.793 0.722656 112.757 0.722656Z" fill="white"/>
<path d="M136.157 0.722656H120.814C119.673 0.722656 118.696 1.11942 117.884 1.91332C117.072 2.70722 116.666 3.66542 116.666 4.78793V10.3312C116.666 11.4629 117.072 12.4256 117.884 13.2195C118.696 14.0134 119.673 14.4105 120.814 14.4105H136.157C136.185 14.4105 136.21 14.3991 136.233 14.3762C136.255 14.3534 136.267 14.3283 136.267 14.3011V11.5635C136.267 11.527 136.255 11.4998 136.233 11.4814C136.21 11.4633 136.185 11.4541 136.157 11.4541H120.814C120.604 11.4541 120.426 11.3812 120.28 11.2353C120.134 11.0894 120.061 10.9159 120.061 10.7151V9.04477H136.147C136.184 9.04477 136.211 9.03335 136.23 9.01051C136.248 8.98767 136.257 8.96262 136.257 8.93536V6.19779C136.257 6.16132 136.248 6.13406 136.23 6.11564C136.211 6.09759 136.184 6.08838 136.147 6.08838H120.061V4.41843C120.061 4.21765 120.134 4.0445 120.28 3.89825C120.426 3.75236 120.604 3.67905 120.814 3.67905H136.157C136.185 3.67905 136.21 3.66763 136.233 3.64479C136.255 3.62232 136.267 3.5969 136.267 3.56964V0.832071C136.267 0.804809 136.255 0.779758 136.233 0.756917C136.21 0.734445 136.185 0.722656 136.157 0.722656Z" fill="white"/>
<path d="M159.533 0.722656H140.165C140.128 0.722656 140.101 0.734077 140.083 0.756917C140.064 0.779758 140.055 0.804809 140.055 0.832071V3.56964C140.055 3.5969 140.064 3.62232 140.083 3.64479C140.101 3.66763 140.128 3.67905 140.165 3.67905H148.158V14.3007C148.158 14.328 148.167 14.3534 148.186 14.3759C148.204 14.3987 148.231 14.4101 148.268 14.4101H151.43C151.466 14.4101 151.493 14.3987 151.512 14.3759C151.53 14.3534 151.539 14.328 151.539 14.3007V3.67905H159.533C159.569 3.67905 159.599 3.66763 159.621 3.64479C159.644 3.62195 159.656 3.5969 159.656 3.56964V0.832071C159.656 0.804809 159.644 0.779758 159.621 0.756917C159.599 0.734077 159.569 0.722656 159.533 0.722656Z" fill="white"/>
<path d="M166.896 0.749918C166.878 0.731866 166.851 0.722656 166.814 0.722656H163.652C163.616 0.722656 163.588 0.731866 163.57 0.749918C163.552 0.768338 163.543 0.795599 163.543 0.832071V14.3007C163.543 14.328 163.552 14.3534 163.57 14.3759C163.588 14.3987 163.616 14.4101 163.652 14.4101H166.814C166.851 14.4101 166.878 14.3987 166.896 14.3759C166.914 14.353 166.924 14.328 166.924 14.3007V0.832071C166.924 0.795968 166.914 0.768338 166.896 0.749918Z" fill="white"/>
<path d="M175.624 4.04909C175.487 3.89399 175.318 3.81626 175.117 3.81626H171.011C170.975 3.81626 170.945 3.80484 170.922 3.782C170.9 3.75953 170.888 3.73411 170.888 3.70685V0.969278C170.888 0.942016 170.9 0.916965 170.922 0.894124C170.945 0.871652 170.975 0.859863 171.011 0.859863H175.35C176.445 0.859863 177.39 1.30268 178.184 2.18757L179.238 3.46039L177.184 5.93787L175.624 4.04909ZM183.207 2.17394C184.001 1.29789 184.95 0.859863 186.054 0.859863H190.379C190.415 0.859863 190.443 0.869073 190.461 0.887125C190.479 0.905545 190.488 0.932806 190.488 0.969278V3.70685C190.488 3.73411 190.479 3.75953 190.461 3.782C190.443 3.80484 190.415 3.81626 190.379 3.81626H186.273C186.072 3.81626 185.903 3.89399 185.766 4.04909L182.741 7.68997L185.78 11.3581C185.917 11.5044 186.081 11.5773 186.273 11.5773H190.379C190.415 11.5773 190.443 11.5887 190.461 11.6116C190.479 11.6344 190.488 11.6643 190.488 11.7004V14.4379C190.488 14.4652 190.479 14.4906 190.461 14.5131C190.443 14.5359 190.415 14.5473 190.379 14.5473H186.054C184.95 14.5473 184.005 14.1049 183.221 13.2196L180.702 10.1811L178.184 13.2196C177.39 14.1049 176.441 14.5473 175.337 14.5473H171.011C170.975 14.5473 170.947 14.5359 170.929 14.5131C170.911 14.4902 170.902 14.4608 170.902 14.4239V11.6864C170.902 11.6591 170.911 11.634 170.929 11.6112C170.947 11.5884 170.975 11.5769 171.011 11.5769H175.117C175.309 11.5769 175.478 11.4996 175.624 11.3441L178.594 7.75812L183.207 2.17394Z" fill="white"/>
</svg>
