<svg width="32" height="32" viewBox="0 0 32 32" fill="none" xmlns="http://www.w3.org/2000/svg">
<circle cx="16" cy="16" r="16" fill="#CB366D"/>
<path d="M24.9181 12.5993C24.8433 12.4281 24.7218 12.2811 24.5674 12.1751C24.4131 12.0691 24.232 12.0082 24.0446 11.9994H19.4465L20.7215 7.26035C20.7621 7.11205 20.7678 6.95642 20.7382 6.80557C20.7086 6.65471 20.6445 6.51268 20.5508 6.39051C20.4573 6.26952 20.3372 6.17147 20.1997 6.10388C20.0622 6.03629 19.911 6.00095 19.7577 6.00059H12.73C12.5033 5.99285 12.2807 6.06177 12.0984 6.19612C11.9161 6.33047 11.7848 6.52232 11.726 6.74044L9.03537 16.7385C8.99476 16.8868 8.98903 17.0425 9.01863 17.1933C9.04824 17.3442 9.11237 17.4862 9.20604 17.6084C9.3006 17.7307 9.42232 17.8296 9.56167 17.8972C9.70101 17.9649 9.8542 17.9995 10.0092 17.9983H13.8946L12.0774 24.737C12.0178 24.9543 12.0337 25.1853 12.1225 25.3924C12.2112 25.5996 12.3676 25.7709 12.5663 25.8785C12.765 25.9861 12.9943 26.0238 13.2172 25.9853C13.44 25.9469 13.6434 25.8347 13.7942 25.6668L24.7374 13.6691C24.8677 13.527 24.954 13.3505 24.9861 13.1608C25.0181 12.971 24.9945 12.7761 24.9181 12.5993ZM15.0893 21.2777L16.1635 17.2784C16.2041 17.1301 16.2098 16.9745 16.1802 16.8237C16.1506 16.6728 16.0865 16.5308 15.9928 16.4086C15.8993 16.2876 15.7792 16.1896 15.6417 16.122C15.5042 16.0544 15.353 16.019 15.1997 16.0187H11.3445L13.493 8.0002H18.4425L17.1675 12.7393C17.1265 12.8903 17.1218 13.0488 17.1535 13.202C17.1853 13.3552 17.2527 13.4989 17.3504 13.6214C17.448 13.7439 17.5732 13.8419 17.7158 13.9075C17.8584 13.9731 18.0145 14.0045 18.1714 13.9991H21.7556L15.0893 21.2777Z" fill="white"/>
</svg>
