<svg width="32" height="32" viewBox="0 0 32 32" fill="none" xmlns="http://www.w3.org/2000/svg">
<circle cx="16" cy="16" r="16" fill="#CB366D"/>
<path fill-rule="evenodd" clip-rule="evenodd" d="M16.9829 7.53417L24.0782 21.0121C24.4288 21.678 23.9459 22.4779 23.1933 22.4779H9.00272C8.25017 22.4779 7.76729 21.678 8.11785 21.0121L15.2132 7.53417C15.5881 6.82194 16.608 6.82194 16.9829 7.53417ZM14.3283 7.06834C15.0782 5.64389 17.1179 5.64389 17.8678 7.06834L24.9631 20.5463C25.6642 21.8781 24.6984 23.4779 23.1933 23.4779H9.00272C7.49762 23.4779 6.53185 21.8781 7.23298 20.5463L14.3283 7.06834ZM16.0955 19.6329C15.8782 19.6329 15.6994 19.5529 15.5594 19.3983C15.4193 19.2436 15.3468 19.0464 15.3468 18.8171C15.3468 18.5825 15.4193 18.3852 15.5594 18.2305C15.6994 18.0759 15.8782 17.9959 16.0955 17.9959C16.3129 17.9959 16.4965 18.0759 16.6366 18.2305C16.7767 18.3852 16.8491 18.5825 16.8491 18.8171C16.8491 19.0464 16.7767 19.2436 16.6366 19.3983C16.4965 19.5529 16.3129 19.6329 16.0955 19.6329ZM15.4308 12.646C15.4114 12.2642 15.7157 11.944 16.098 11.944C16.4802 11.944 16.7846 12.2642 16.7652 12.646L16.5573 16.7382C16.5449 16.9828 16.3429 17.1748 16.098 17.1748C15.853 17.1748 15.651 16.9828 15.6386 16.7382L15.4308 12.646Z" fill="white"/>
</svg>
