<svg width="32" height="32" viewBox="0 0 32 32" fill="none" xmlns="http://www.w3.org/2000/svg">
<circle cx="16" cy="16" r="16" fill="#CB366D"/>
<path fill-rule="evenodd" clip-rule="evenodd" d="M9.3411 15.7942C9.176 15.8025 9.01548 15.8495 8.87341 15.9309C8.73135 16.0123 8.612 16.1258 8.52568 16.2616L6.5806 19.2228C6.56943 19.2401 6.55882 19.2578 6.54878 19.2757C5.8707 20.4716 5.78119 21.7508 6.50503 22.6127C7.22887 23.4743 8.37836 23.7042 9.56783 23.6508L11.5925 23.6017C11.7311 23.6061 11.8692 23.5831 11.9983 23.5342C12.1273 23.4853 12.2447 23.4114 12.3431 23.3173C12.4415 23.2232 12.5189 23.1108 12.5706 22.9869C12.6223 22.8629 12.6471 22.7301 12.6436 22.5966C12.6401 22.4631 12.6083 22.3314 12.5501 22.2102C12.492 22.0889 12.4087 21.9804 12.3054 21.8913C12.2022 21.8021 12.0811 21.7341 11.9496 21.6916C11.8181 21.6491 11.679 21.633 11.5408 21.6442L9.49623 21.6911C9.4896 21.691 9.48297 21.691 9.47634 21.6911C8.65429 21.7284 8.1917 21.4989 8.09211 21.3808C7.99352 21.2631 7.882 21.0278 8.33077 20.2277L10.248 17.3124C10.3513 17.1607 10.4089 16.9845 10.4143 16.8032C10.4198 16.6218 10.3729 16.4425 10.2789 16.2853C10.185 16.1281 10.0475 15.999 9.88198 15.9125C9.71641 15.826 9.52918 15.7856 9.3411 15.7954L9.3411 15.7942Z" fill="white"/>
<path fill-rule="evenodd" clip-rule="evenodd" d="M10.6616 13.894C10.5648 13.8933 10.4684 13.9059 10.3752 13.9314L6.90672 14.9082C6.77393 14.9406 6.64928 14.9982 6.54023 15.078C6.43117 15.1578 6.33995 15.2579 6.27202 15.3725C6.20409 15.487 6.16085 15.6136 6.14488 15.7446C6.12892 15.8756 6.14055 16.0085 6.1791 16.1351C6.21764 16.2616 6.2823 16.3793 6.36921 16.4813C6.45611 16.5832 6.56348 16.6673 6.68488 16.7284C6.80629 16.7894 6.93923 16.8264 7.07577 16.8368C7.2123 16.8473 7.34962 16.831 7.4795 16.7892L9.95759 16.092L10.6497 18.4901C10.6814 18.6184 10.7396 18.7392 10.8209 18.8454C10.9022 18.9516 11.0049 19.041 11.1228 19.1081C11.2408 19.1751 11.3716 19.2184 11.5074 19.2357C11.6432 19.2529 11.7812 19.2437 11.9132 19.2084C12.0452 19.1731 12.1684 19.1125 12.2755 19.0302C12.3826 18.948 12.4713 18.8456 12.5365 18.7295C12.6016 18.6135 12.6417 18.4859 12.6545 18.3546C12.6672 18.2232 12.6523 18.0909 12.6107 17.9653L11.6441 14.6104C11.5841 14.404 11.4556 14.2223 11.2781 14.093C11.1007 13.9636 10.8842 13.8936 10.6616 13.894ZM15.9798 6.02926C14.8429 6.20187 14.064 7.04794 13.5176 8.06728L12.547 9.77584C12.4173 10.0044 12.3872 10.2734 12.4633 10.5233C12.5394 10.7733 12.7155 10.984 12.9529 11.109C13.1902 11.2339 13.4694 11.2629 13.729 11.1897C13.9885 11.1164 14.2072 10.9468 14.337 10.7182L15.3155 8.98669C15.3196 8.98019 15.3235 8.97364 15.3274 8.96705C15.7049 8.26311 16.1415 7.99117 16.298 7.96744C16.4537 7.9439 16.7163 7.96727 17.2168 8.7487C17.2191 8.7487 17.2185 8.74889 17.2208 8.7487L18.8795 11.7981C18.9388 11.9168 19.0223 12.0228 19.125 12.1098C19.2278 12.1967 19.3477 12.2629 19.4775 12.3042C19.6074 12.3456 19.7446 12.3612 19.8809 12.3504C20.0172 12.3396 20.1498 12.3025 20.2709 12.2412C20.392 12.18 20.499 12.0959 20.5856 11.9939C20.6722 11.8919 20.7366 11.7742 20.7749 11.6477C20.8132 11.5212 20.8246 11.3887 20.8086 11.2579C20.7925 11.1271 20.7492 11.0007 20.6814 10.8863L18.9948 7.78332C18.9835 7.7653 18.9716 7.74768 18.959 7.7304C18.2228 6.5669 17.1167 5.85287 15.9798 6.02567L15.9798 6.02926Z" fill="white"/>
<path fill-rule="evenodd" clip-rule="evenodd" d="M21.7473 8.99054C21.5123 8.98488 21.2825 9.05776 21.0969 9.19669C20.9113 9.33561 20.7813 9.53217 20.729 9.75288L20.1165 12.1702L17.6145 11.5496C17.4821 11.5079 17.3423 11.493 17.2036 11.5055C17.0649 11.518 16.9304 11.5576 16.8083 11.6221C16.6862 11.6866 16.5792 11.7747 16.4938 11.8807C16.4084 11.9866 16.3465 12.1082 16.3119 12.2382C16.2772 12.3681 16.2707 12.5034 16.2925 12.6358C16.3144 12.7683 16.3643 12.8952 16.439 13.0084C16.5137 13.1216 16.6118 13.2188 16.7271 13.294C16.8424 13.3693 16.9725 13.4209 17.1094 13.4458L20.6097 14.3154C20.74 14.3475 20.8757 14.3543 21.0088 14.3355C21.1419 14.3168 21.2699 14.2731 21.3853 14.2065C21.5007 14.1399 21.6012 14.0519 21.6811 13.9477C21.761 13.8434 21.8186 13.7249 21.8507 13.5991L22.7059 10.2164C22.7443 10.0736 22.7486 9.92435 22.7188 9.7797C22.6889 9.63505 22.6256 9.49886 22.5334 9.38105C22.4413 9.26324 22.3228 9.16683 22.1867 9.09924C22.0506 9.03165 21.9004 8.9945 21.7473 8.99054ZM23.0997 16.794C22.9146 16.7965 22.7337 16.8476 22.5765 16.9417C22.4192 17.0359 22.2916 17.1696 22.2073 17.3284C22.1231 17.4872 22.0853 17.6651 22.0982 17.8429C22.1111 18.0208 22.174 18.1918 22.2803 18.3378L23.4338 19.966C23.4391 19.9726 23.4443 19.9791 23.4497 19.9856C23.9297 20.6293 23.984 21.124 23.935 21.2689C23.886 21.4141 23.7531 21.6349 22.7855 21.7059L19.2175 21.7449C19.0831 21.7454 18.9501 21.7715 18.8262 21.8218C18.7023 21.872 18.59 21.9455 18.4957 22.0377C18.4014 22.13 18.327 22.2392 18.2767 22.3593C18.2265 22.4794 18.2015 22.6079 18.2031 22.7373C18.2046 22.8668 18.2328 22.9946 18.2859 23.1135C18.3391 23.2324 18.4161 23.3399 18.5126 23.43C18.6092 23.5201 18.7232 23.5909 18.8483 23.6383C18.9734 23.6857 19.107 23.7088 19.2414 23.7063L22.8769 23.6673C22.8982 23.6679 22.9194 23.6679 22.9406 23.6673C24.3513 23.5633 25.5158 22.9362 25.8721 21.8821C26.228 20.8292 25.7978 19.7789 25.1044 18.8481L23.9629 17.2353C23.8684 17.0988 23.7398 16.9871 23.5891 16.9108C23.4383 16.8346 23.27 16.796 23.0997 16.7985L23.0997 16.794Z" fill="white"/>
<path fill-rule="evenodd" clip-rule="evenodd" d="M19.2774 19.1338C19.1292 19.1332 18.9827 19.1635 18.848 19.2231C18.7134 19.2827 18.5938 19.3699 18.4978 19.4786L16.1032 22.0874C16.0143 22.1847 15.9463 22.2981 15.9031 22.4209C15.86 22.5437 15.8425 22.6733 15.8518 22.8026C15.861 22.9319 15.8968 23.0582 15.957 23.1742C16.0172 23.2901 16.1007 23.3933 16.2026 23.478L18.9432 25.7497C19.0441 25.8367 19.162 25.9034 19.29 25.946C19.418 25.9886 19.5535 26.0064 19.6887 25.998C19.8238 25.9895 19.9558 25.9551 20.077 25.8969C20.1982 25.8388 20.3062 25.7578 20.3945 25.6589C20.4829 25.5601 20.5498 25.4454 20.5916 25.3214C20.6333 25.1973 20.6489 25.0663 20.6375 24.9364C20.626 24.8064 20.5878 24.6798 20.525 24.5643C20.4622 24.4487 20.3761 24.3464 20.2718 24.2633L18.3148 22.639L20.0212 20.7772C20.1543 20.6373 20.2425 20.4631 20.2749 20.2759C20.3074 20.0887 20.2827 19.8965 20.204 19.7226C20.1252 19.5486 19.9958 19.4004 19.8313 19.2959C19.6668 19.1914 19.4744 19.1351 19.2774 19.1338Z" fill="white"/>
</svg>
