<svg width="32" height="32" viewBox="0 0 32 32" fill="none" xmlns="http://www.w3.org/2000/svg">
<circle cx="16" cy="16" r="16" fill="#CB366D"/>
<path d="M16.6666 15.68C16.6666 15.5959 16.6494 15.5127 16.6159 15.4351C16.5824 15.3574 16.5333 15.2868 16.4714 15.2274C16.4095 15.168 16.336 15.1208 16.2551 15.0887C16.1742 15.0565 16.0875 15.04 16 15.04H11.9759L16.539 9.01625C16.6114 8.9208 16.6548 8.80799 16.6645 8.69031C16.6743 8.57262 16.6499 8.45465 16.5941 8.34945C16.5383 8.24425 16.4532 8.15592 16.3484 8.09425C16.2435 8.03257 16.1229 7.99995 16 8H10.6667C10.4899 8 10.3203 8.06743 10.1953 8.18745C10.0702 8.30747 10 8.47026 10 8.64C10 8.80974 10.0702 8.97253 10.1953 9.09255C10.3203 9.21257 10.4899 9.28 10.6667 9.28H14.6907L10.1276 15.3038C10.0552 15.3992 10.0118 15.512 10.0021 15.6297C9.99237 15.7474 10.0168 15.8653 10.0726 15.9705C10.1284 16.0757 10.2134 16.1641 10.3183 16.2258C10.4231 16.2874 10.5437 16.32 10.6667 16.32H16C16.0875 16.32 16.1742 16.3035 16.2551 16.2713C16.336 16.2392 16.4095 16.192 16.4714 16.1326C16.5333 16.0732 16.5824 16.0026 16.6159 15.9249C16.6494 15.8473 16.6666 15.7641 16.6666 15.68ZM16.6666 22.72H14L17.1998 18.6238C17.2741 18.5287 17.3194 18.4157 17.3305 18.2973C17.3417 18.1789 17.3183 18.0599 17.2629 17.9536C17.2075 17.8473 17.1224 17.7579 17.0171 17.6955C16.9118 17.633 16.7904 17.6 16.6666 17.6H12.6667C12.4898 17.6 12.3203 17.6674 12.1953 17.7875C12.0702 17.9075 12 18.0703 12 18.24C12 18.4097 12.0702 18.5725 12.1953 18.6925C12.3203 18.8126 12.4898 18.88 12.6667 18.88H15.3333L12.1335 22.9762C12.0591 23.0713 12.0139 23.1843 12.0027 23.3027C11.9916 23.4211 12.015 23.5401 12.0704 23.6464C12.1257 23.7527 12.2108 23.8421 12.3162 23.9045C12.4215 23.967 12.5429 24 12.6667 24H16.6666C16.8434 24 17.013 23.9326 17.138 23.8125C17.263 23.6925 17.3333 23.5297 17.3333 23.36C17.3333 23.1903 17.263 23.0275 17.138 22.9075C17.013 22.7874 16.8434 22.72 16.6666 22.72ZM23.3332 19.52H19.9469L23.8794 14.1269C23.9494 14.031 23.9906 13.9185 23.9986 13.8017C24.0065 13.6848 23.981 13.5681 23.9246 13.4643C23.8683 13.3605 23.7834 13.2734 23.6791 13.2127C23.5748 13.152 23.4552 13.1199 23.3332 13.12H18.6666C18.4898 13.12 18.3202 13.1874 18.1952 13.3075C18.0702 13.4275 17.9999 13.5903 17.9999 13.76C17.9999 13.9297 18.0702 14.0925 18.1952 14.2125C18.3202 14.3326 18.4898 14.4 18.6666 14.4H22.053L18.1204 19.7931C18.0504 19.889 18.0092 20.0015 18.0012 20.1183C17.9933 20.2352 18.0188 20.3519 18.0752 20.4557C18.1315 20.5595 18.2164 20.6466 18.3207 20.7073C18.425 20.768 18.5446 20.8001 18.6666 20.8H23.3332C23.51 20.8 23.6796 20.7326 23.8046 20.6125C23.9296 20.4925 23.9999 20.3297 23.9999 20.16C23.9999 19.9903 23.9296 19.8275 23.8046 19.7075C23.6796 19.5874 23.51 19.52 23.3332 19.52Z" fill="white"/>
</svg>
