<svg width="16" height="16" viewBox="0 0 16 16" fill="none" xmlns="http://www.w3.org/2000/svg">
<path fill-rule="evenodd" clip-rule="evenodd" d="M5.99997 3.00001L6.74997 2.25001C7.16418 1.83579 7.16418 1.16422 6.74997 0.750006C6.33576 0.335793 5.66419 0.335793 5.24997 0.750006L2.70708 3.2929C2.31655 3.68342 2.31655 4.31659 2.70708 4.70711L5.24997 7.25001C5.66419 7.66422 6.33576 7.66422 6.74997 7.25001C7.16419 6.83579 7.16419 6.16422 6.74997 5.75L5.99997 5H13C13.5523 5 14 4.55229 14 4.00001C14 3.44772 13.5523 3.00001 13 3.00001H5.99997Z" fill="currentColor"/>
<path fill-rule="evenodd" clip-rule="evenodd" d="M10.4142 10.5607L9.66421 9.81066C9.25 9.39645 9.25 8.72487 9.66421 8.31066C10.0784 7.89645 10.75 7.89645 11.1642 8.31066L13.7071 10.8536C14.0976 11.2441 14.0976 11.8772 13.7071 12.2678L11.1642 14.8107C10.75 15.2249 10.0784 15.2249 9.66421 14.8107C9.25 14.3964 9.25 13.7249 9.66421 13.3107L10.4142 12.5607H3.41421C2.86193 12.5607 2.41421 12.1129 2.41421 11.5607C2.41421 11.0084 2.86193 10.5607 3.41421 10.5607H10.4142Z" fill="currentColor"/>
</svg>
