<svg width="14" height="14" viewBox="0 0 14 14" fill="none" xmlns="http://www.w3.org/2000/svg">
<circle cx="7" cy="7" r="7" fill="#FF1E39"/>
<path d="M8.06592 7.0002L9.65683 5.40929C9.75229 5.31383 9.80001 5.19717 9.80001 5.05929C9.80001 4.92141 9.75229 4.79944 9.65683 4.69338L9.30683 4.34338C9.20077 4.24792 9.0788 4.2002 8.94092 4.2002C8.80304 4.2002 8.68638 4.24792 8.59092 4.34338L7.00001 5.93429L5.4091 4.34338C5.31365 4.24792 5.19698 4.2002 5.0591 4.2002C4.92122 4.2002 4.79925 4.24792 4.69319 4.34338L4.34319 4.69338C4.24774 4.79944 4.20001 4.92141 4.20001 5.05929C4.20001 5.19717 4.24774 5.31383 4.34319 5.40929L5.9341 7.0002L4.34319 8.5911C4.24774 8.68656 4.20001 8.80323 4.20001 8.9411C4.20001 9.07898 4.24774 9.20095 4.34319 9.30701L4.69319 9.65701C4.79925 9.75247 4.92122 9.8002 5.0591 9.8002C5.19698 9.8002 5.31365 9.75247 5.4091 9.65701L7.00001 8.0661L8.59092 9.65701C8.68638 9.75247 8.80304 9.8002 8.94092 9.8002C9.0788 9.8002 9.20077 9.75247 9.30683 9.65701L9.65683 9.30701C9.75229 9.20095 9.80001 9.07898 9.80001 8.9411C9.80001 8.80323 9.75229 8.68656 9.65683 8.5911L8.06592 7.0002Z" fill="white"/>
</svg>
