<svg width="10" height="10" viewBox="0 0 7 4" fill="none" xmlns="http://www.w3.org/2000/svg">
<path d="M5.77974 0.720256C5.84956 0.789898 5.90496 0.87263 5.94275 0.963713C5.98055 1.0548 6 1.15244 6 1.25105C6 1.34967 5.98055 1.44731 5.94275 1.53839C5.90496 1.62948 5.84956 1.71221 5.77974 1.78185L4.0599 3.5002L5.77974 5.21854C5.92052 5.35932 5.99961 5.55025 5.99961 5.74934C5.99961 5.94843 5.92052 6.13936 5.77974 6.28014C5.63897 6.42091 5.44803 6.5 5.24895 6.5C5.04986 6.5 4.85892 6.42091 4.71815 6.28014L2.9998 4.56029L1.28146 6.28014C1.21175 6.34984 1.129 6.40514 1.03793 6.44286C0.946852 6.48058 0.849239 6.5 0.750661 6.5C0.652083 6.5 0.554469 6.48058 0.463395 6.44286C0.37232 6.40514 0.289568 6.34984 0.219863 6.28014C0.150158 6.21043 0.0948644 6.12768 0.0571401 6.0366C0.0194159 5.94553 -7.34465e-10 5.84792 0 5.74934C7.34465e-10 5.65076 0.0194159 5.55315 0.0571401 5.46207C0.0948644 5.371 0.150158 5.28825 0.219863 5.21854L1.93971 3.5002L0.219863 1.78185C0.150158 1.71215 0.0948644 1.62939 0.0571401 1.53832C0.0194158 1.44725 1.94321e-09 1.34963 0 1.25105C-1.94321e-09 1.15248 0.0194159 1.05486 0.0571401 0.963788C0.0948644 0.872714 0.150158 0.789962 0.219863 0.720256C0.289568 0.650551 0.37232 0.595258 0.463395 0.557533C0.554469 0.519809 0.652083 0.500393 0.750661 0.500393C0.849239 0.500393 0.946852 0.519809 1.03793 0.557533C1.129 0.595258 1.21175 0.650551 1.28146 0.720256L2.9998 2.4401L4.71815 0.720256C4.78779 0.650438 4.87052 0.595045 4.96161 0.55725C5.05269 0.519454 5.15033 0.5 5.24895 0.5C5.34756 0.5 5.4452 0.519454 5.53629 0.55725C5.62737 0.595045 5.7101 0.650438 5.77974 0.720256Z" fill="#171002"/>
</svg>
