<svg width="11" height="10" viewBox="0 0 11 10" fill="none" xmlns="http://www.w3.org/2000/svg">
<path d="M9.9116 2.94286L9.91163 2.94288L9.91285 2.94157C9.99615 2.85207 10.0415 2.73377 10.0394 2.61153C10.0373 2.48929 9.98786 2.37263 9.90153 2.28607L9.90143 2.28597C9.81487 2.19964 9.69821 2.15022 9.57597 2.14811C9.45373 2.146 9.33543 2.19135 9.24593 2.27465L9.24591 2.27463L9.24465 2.27589L6.625 4.89554L5.27098 3.54152L5.27096 3.5415C5.18248 3.45313 5.06255 3.4035 4.9375 3.4035C4.81245 3.4035 4.69252 3.45313 4.60404 3.5415L4.60402 3.54152L2.77589 5.36964L2.77587 5.36962L2.77465 5.37093C2.69135 5.46043 2.646 5.57873 2.64811 5.70097C2.65022 5.82321 2.69964 5.93987 2.78597 6.02643L2.78607 6.02653C2.87263 6.11286 2.98929 6.16228 3.11153 6.16439C3.23377 6.1665 3.35207 6.12115 3.44157 6.03785L3.44159 6.03787L3.44286 6.03661L4.9375 4.54196L6.29152 5.89598L6.29154 5.896C6.38002 5.98437 6.49995 6.034 6.625 6.034C6.75005 6.034 6.86998 5.98437 6.95846 5.896L6.95848 5.89598L9.9116 2.94286ZM9.86613 2.32137C9.94332 2.39878 9.98751 2.50309 9.9894 2.6124C9.99129 2.7217 9.95073 2.82748 9.87625 2.9075L9.86613 2.32137ZM1.89375 8.04375V1.48438C1.89375 1.35923 1.84403 1.2392 1.75554 1.15071C1.66705 1.06222 1.54702 1.0125 1.42188 1.0125C1.29673 1.0125 1.1767 1.06222 1.08821 1.15071C0.999715 1.2392 0.95 1.35923 0.95 1.48438V8.51562C0.95 8.64077 0.999715 8.7608 1.08821 8.84929C1.1767 8.93778 1.29673 8.9875 1.42188 8.9875H9.57812C9.70327 8.9875 9.8233 8.93778 9.91179 8.84929C10.0003 8.7608 10.05 8.64077 10.05 8.51562C10.05 8.39048 10.0003 8.27045 9.91179 8.18196C9.8233 8.09347 9.70327 8.04375 9.57812 8.04375H1.89375Z" fill="#62605D" stroke="#62605D" stroke-width="0.1"/>
</svg>