<svg xmlns="http://www.w3.org/2000/svg" fill="none" height="12" width="13">
  <path clip-rule="evenodd" d="M9.99.146a.5.5 0 01.707 0l1.969 1.97a.5.5 0 010 .706l-1.969 1.97a.5.5 0 11-.707-.708l1.115-1.115h-2.47L7.69 4.322a.5.5 0 01-.82-.573l1.096-1.567a.5.5 0 01.41-.213h2.73L9.99.854a.5.5 0 010-.708zM0 2.47a.5.5 0 01.5-.5h3.281a.5.5 0 01.41.213l4.444 6.35h2.47L9.99 7.415a.5.5 0 01.707-.707l1.969 1.969a.5.5 0 010 .707l-1.969 1.969a.5.5 0 01-.707-.708l1.115-1.115h-2.73a.5.5 0 01-.41-.213l-4.444-6.35H.5a.5.5 0 01-.5-.5zm5.164 4.587a.5.5 0 01.123.696L4.19 9.318a.5.5 0 01-.41.213H.5a.5.5 0 010-1h3.02l.948-1.352a.5.5 0 01.696-.123z" fill="#6F6E95" fill-rule="evenodd"/>
</svg>