<svg width="122" height="16" viewBox="0 0 122 16" fill="none" xmlns="http://www.w3.org/2000/svg">
<g clip-path="url(#clip0_264_12504)">
<path d="M6.14005 16C4.33594 16 2.85778 15.5852 1.70557 14.7555C0.568523 13.9111 0 12.7111 0 11.1555C0 10.8296 0.0379015 10.4296 0.113705 9.95552C0.310793 8.88888 0.591264 7.60741 0.955119 6.11111C1.98604 2.03704 4.64673 0 8.93719 0C10.1046 0 11.1506 0.192593 12.0754 0.577778C13.0003 0.948152 13.7279 1.51111 14.2586 2.26666C14.7892 3.00741 15.0545 3.8963 15.0545 4.93334C15.0545 5.24445 15.0166 5.63704 14.9408 6.11111C14.7134 7.42963 14.4405 8.71112 14.1221 9.95552C13.5915 11.9852 12.6743 13.5037 11.3705 14.5111C10.0666 15.5037 8.32319 16 6.14005 16ZM6.45843 12.8C7.30742 12.8 8.02754 12.5555 8.61884 12.0666C9.22522 11.5778 9.65731 10.8296 9.91502 9.82224C10.2638 8.4296 10.529 7.21482 10.711 6.17778C10.7717 5.86666 10.802 5.54814 10.802 5.22222C10.802 3.87407 10.0818 3.2 8.64154 3.2C7.79256 3.2 7.06485 3.44445 6.45843 3.93334C5.86716 4.42222 5.44266 5.17037 5.18493 6.17778C4.91204 7.17037 4.63915 8.3852 4.36626 9.82224C4.30561 10.1185 4.27529 10.4296 4.27529 10.7555C4.27529 12.1185 5.003 12.8 6.45843 12.8Z" fill="#ECE8E3"/>
<path d="M17.3619 15.7777C17.1951 15.7777 17.0662 15.7259 16.9753 15.6222C16.8995 15.5036 16.8767 15.3704 16.907 15.2222L20.0453 0.777724C20.0756 0.61476 20.159 0.481427 20.2955 0.377724C20.4319 0.27402 20.5759 0.222168 20.7275 0.222168H26.7766C28.4594 0.222168 29.8087 0.562908 30.8245 1.24439C31.8554 1.92587 32.3709 2.91106 32.3709 4.19995C32.3709 4.57032 32.3254 4.9555 32.2345 5.3555C31.8554 7.0592 31.0898 8.31843 29.9376 9.13331C28.8006 9.94811 27.239 10.3555 25.2529 10.3555H22.1829L21.1368 15.2222C21.1065 15.3852 21.0231 15.5184 20.8867 15.6222C20.7502 15.7259 20.6063 15.7777 20.4546 15.7777H17.3619ZM25.4121 7.28884C26.0489 7.28884 26.6023 7.11847 27.0722 6.77772C27.5574 6.43699 27.8758 5.94809 28.0273 5.31106C28.0728 5.0592 28.0956 4.83699 28.0956 4.64439C28.0956 4.21476 27.9667 3.88883 27.709 3.66661C27.4513 3.42958 27.0116 3.31106 26.39 3.31106H23.6611L22.7969 7.28884H25.4121Z" fill="#ECE8E3"/>
<path d="M37.4949 15.7777C37.3281 15.7777 37.1992 15.7259 37.1083 15.6222C37.0173 15.5036 36.987 15.3704 37.0173 15.2222L39.5416 3.71106H35.4937C35.3269 3.71106 35.198 3.6592 35.1071 3.55551C35.0313 3.43699 35.0086 3.30365 35.0389 3.1555L35.5619 0.777724C35.5922 0.61476 35.6756 0.481427 35.812 0.377724C35.9484 0.27402 36.0925 0.222168 36.2441 0.222168H48.4788C48.6455 0.222168 48.7743 0.27402 48.8654 0.377724C48.926 0.466613 48.9563 0.555501 48.9563 0.64439C48.9563 0.688835 48.9487 0.733279 48.9335 0.777724L48.4105 3.1555C48.3802 3.31847 48.2968 3.4518 48.1603 3.55551C48.0391 3.6592 47.8951 3.71106 47.7283 3.71106H43.7031L41.1789 15.2222C41.1485 15.3852 41.0652 15.5184 40.9288 15.6222C40.7923 15.7259 40.6483 15.7777 40.4967 15.7777H37.4949Z" fill="#ECE8E3"/>
<path d="M49.5363 15.7777C49.3695 15.7777 49.2407 15.7259 49.1498 15.6222C49.0587 15.5036 49.0284 15.3704 49.0587 15.2222L52.2198 0.777724C52.2501 0.61476 52.3335 0.481427 52.4699 0.377724C52.6064 0.27402 52.7503 0.222168 52.902 0.222168H55.972C56.1388 0.222168 56.2677 0.27402 56.3586 0.377724C56.4193 0.466613 56.4496 0.555501 56.4496 0.64439C56.4496 0.688835 56.442 0.733279 56.4268 0.777724L53.2885 15.2222C53.2582 15.3852 53.1749 15.5184 53.0385 15.6222C52.902 15.7259 52.758 15.7777 52.6064 15.7777H49.5363Z" fill="#ECE8E3"/>
<path d="M58.1955 15.7777C58.0287 15.7777 57.8998 15.7259 57.8089 15.6222C57.7179 15.5184 57.6876 15.3852 57.7179 15.2222L60.8562 0.777724C60.8865 0.61476 60.9698 0.481427 61.1063 0.377724C61.2428 0.27402 61.3944 0.222168 61.5611 0.222168H64.0171C64.381 0.222168 64.616 0.38513 64.7221 0.711057L67.2008 7.71106L72.7269 0.711057C72.8027 0.592539 72.9088 0.481427 73.0453 0.377724C73.1969 0.27402 73.3789 0.222168 73.5911 0.222168H76.0699C76.2366 0.222168 76.3654 0.27402 76.4564 0.377724C76.517 0.466613 76.5474 0.555501 76.5474 0.64439C76.5474 0.688835 76.5398 0.733279 76.5247 0.777724L73.3864 15.2222C73.3561 15.3852 73.2727 15.5184 73.1362 15.6222C72.9998 15.7259 72.8558 15.7777 72.7041 15.7777H69.9525C69.7857 15.7777 69.6569 15.7259 69.5659 15.6222C69.4901 15.5036 69.4674 15.3704 69.4977 15.2222L71.2715 7.02217L67.7921 11.5333C67.6406 11.6963 67.4965 11.8222 67.3601 11.9111C67.2236 12 67.0644 12.0444 66.8825 12.0444H65.7C65.3816 12.0444 65.1618 11.874 65.0405 11.5333L63.4259 6.82217L61.6066 15.2222C61.5763 15.3852 61.4929 15.5184 61.3564 15.6222C61.22 15.7259 61.0759 15.7777 60.9243 15.7777H58.1955Z" fill="#ECE8E3"/>
<path d="M78.2687 15.7777C78.1019 15.7777 77.9731 15.7259 77.8821 15.6222C77.7912 15.5036 77.7608 15.3704 77.7912 15.2222L80.9521 0.777724C80.9824 0.61476 81.0658 0.481427 81.2022 0.377724C81.3384 0.27402 81.4827 0.222168 81.6343 0.222168H84.7043C84.8713 0.222168 85.0002 0.27402 85.091 0.377724C85.1518 0.466613 85.1817 0.555501 85.1817 0.64439C85.1817 0.688835 85.1745 0.733279 85.159 0.777724L82.021 15.2222C81.991 15.3852 81.9075 15.5184 81.7705 15.6222C81.6343 15.7259 81.49 15.7777 81.3384 15.7777H78.2687Z" fill="#ECE8E3"/>
<path d="M92.5451 16C91.2107 16 90.066 15.8222 89.1111 15.4666C88.1707 15.1111 87.4581 14.637 86.9733 14.0445C86.5032 13.4518 86.2681 12.7926 86.2681 12.0666C86.2681 11.9482 86.2835 11.7704 86.3135 11.5334C86.3443 11.4 86.4051 11.2889 86.4959 11.2C86.6021 11.1111 86.7229 11.0666 86.8599 11.0666H89.7701C89.9525 11.0666 90.0887 11.0963 90.1795 11.1555C90.2857 11.2148 90.3919 11.3185 90.4981 11.4666C90.6043 11.8518 90.8467 12.1704 91.2261 12.4222C91.6201 12.6741 92.1584 12.8 92.8401 12.8C93.7043 12.8 94.4023 12.6666 94.9325 12.4C95.4635 12.1334 95.7821 11.7704 95.8874 11.3111C95.9028 11.2518 95.9101 11.163 95.9101 11.0445C95.9101 10.6741 95.6759 10.3852 95.2057 10.1778C94.7355 9.95552 93.8713 9.69632 92.6132 9.4C91.1426 9.08888 90.0279 8.62224 89.27 8C88.512 7.36296 88.1334 6.53334 88.1334 5.51111C88.1334 5.15555 88.1788 4.79259 88.2696 4.42222C88.5728 3.04445 89.3235 1.96296 90.5208 1.17778C91.7336 0.392593 93.2949 0 95.2057 0C96.3576 0 97.3815 0.2 98.2757 0.6C99.1698 1 99.8597 1.51111 100.345 2.13334C100.845 2.74074 101.095 3.34815 101.095 3.95556C101.095 4.13334 101.088 4.25926 101.072 4.33334C101.042 4.46666 100.974 4.57778 100.868 4.66666C100.777 4.75556 100.663 4.8 100.527 4.8H97.4796C97.1464 4.8 96.9186 4.67407 96.7978 4.42222C96.7824 4.08148 96.6 3.79259 96.2514 3.55556C95.9028 3.31852 95.4481 3.2 94.8871 3.2C94.2199 3.2 93.667 3.31852 93.2268 3.55556C92.8029 3.79259 92.537 4.14074 92.4316 4.6C92.4162 4.67407 92.4081 4.77037 92.4081 4.88889C92.4081 5.24445 92.6205 5.54074 93.0452 5.77778C93.4846 6 94.2507 6.22963 95.3419 6.46666C97.0402 6.79259 98.2757 7.25926 99.049 7.86666C99.837 8.47408 100.231 9.28152 100.231 10.2889C100.231 10.6296 100.186 11 100.095 11.4C99.7616 12.9111 98.9501 14.0593 97.6612 14.8445C96.3884 15.6148 94.6828 16 92.5451 16Z" fill="#ECE8E3"/>
<path d="M103.248 15.7777C103.081 15.7777 102.952 15.7259 102.862 15.6222C102.771 15.5184 102.74 15.3852 102.771 15.2222L105.909 0.777724C105.939 0.61476 106.022 0.481427 106.159 0.377724C106.296 0.27402 106.447 0.222168 106.614 0.222168H109.07C109.434 0.222168 109.669 0.38513 109.775 0.711057L112.254 7.71106L117.78 0.711057C117.856 0.592539 117.962 0.481427 118.098 0.377724C118.25 0.27402 118.431 0.222168 118.644 0.222168H121.123C121.29 0.222168 121.419 0.27402 121.509 0.377724C121.57 0.466613 121.6 0.555501 121.6 0.64439C121.6 0.688835 121.593 0.733279 121.578 0.777724L118.439 15.2222C118.409 15.3852 118.325 15.5184 118.189 15.6222C118.053 15.7259 117.908 15.7777 117.757 15.7777H115.005C114.838 15.7777 114.71 15.7259 114.619 15.6222C114.543 15.5036 114.52 15.3704 114.551 15.2222L116.324 7.02217L112.845 11.5333C112.693 11.6963 112.549 11.8222 112.413 11.9111C112.277 12 112.117 12.0444 111.935 12.0444H110.753C110.434 12.0444 110.214 11.874 110.094 11.5333L108.479 6.82217L106.66 15.2222C106.629 15.3852 106.545 15.5184 106.409 15.6222C106.273 15.7259 106.129 15.7777 105.977 15.7777H103.248Z" fill="#ECE8E3"/>
</g>
<defs>
<clipPath id="clip0_264_12504">
<rect width="121.6" height="16" fill="white"/>
</clipPath>
</defs>
</svg>
