<svg width="159" height="13" viewBox="0 0 159 13" fill="none" xmlns="http://www.w3.org/2000/svg">
<path d="M15.2633 6.6677C14.5888 5.9778 13.7782 5.63301 12.8312 5.63301H3.44363C3.26928 5.63301 3.1197 5.56963 2.99459 5.44253C2.86949 5.31576 2.80709 5.16113 2.80709 4.97865V4.18183C2.80709 4.00768 2.86949 3.85689 2.99459 3.7298C3.1197 3.60302 3.26928 3.53932 3.44363 3.53932H15.5474C15.5777 3.53932 15.6022 3.52939 15.6211 3.50954C15.6401 3.49002 15.6496 3.46793 15.6496 3.44424V1.0653C15.6496 1.0336 15.6401 1.00991 15.6211 0.993905C15.6022 0.978218 15.5774 0.970215 15.5474 0.970215H3.44363C2.48897 0.970215 1.67624 1.31532 1.00574 2.00522C0.335248 2.69511 0 3.52747 0 4.50293V4.65756C0 5.64102 0.335248 6.47754 1.00574 7.16743C1.67624 7.85733 2.48897 8.20212 3.44363 8.20212H12.8312C12.9979 8.20212 13.1438 8.26358 13.2686 8.38651C13.3937 8.50945 13.4561 8.66215 13.4561 8.84463V9.64145C13.4561 9.82393 13.3937 9.97664 13.2686 10.0996C13.1435 10.2225 12.9976 10.284 12.8312 10.284H0.716072C0.693437 10.284 0.672331 10.2939 0.653672 10.3137C0.634707 10.3336 0.625225 10.3595 0.625225 10.3912V12.7702C0.625225 12.7938 0.634707 12.8159 0.653672 12.8355C0.672637 12.8553 0.693437 12.8652 0.716072 12.8652H12.8312C13.7782 12.8652 14.5888 12.5185 15.2633 11.8245C15.9374 11.1307 16.2748 10.2961 16.2748 9.32067V9.16573C16.2745 8.19027 15.9374 7.35759 15.2633 6.6677Z" fill="#ECE8E3"/>
<path d="M35.6433 0.970215H33.0179C32.9952 0.970215 32.9741 0.978218 32.9555 0.993905C32.9365 1.00991 32.927 1.0336 32.927 1.06529V4.08639C32.927 4.34794 32.7979 4.54642 32.5407 4.68119L27.3015 6.95286L22.0624 4.68119C21.8048 4.54642 21.676 4.34826 21.676 4.08639V1.06529C21.676 1.0336 21.6684 1.00991 21.6534 0.993905C21.6378 0.978218 21.6152 0.970215 21.5849 0.970215H18.9595C18.9369 0.970215 18.9158 0.978218 18.8971 0.993905C18.8781 1.00991 18.8687 1.0336 18.8687 1.06529V4.52657C18.8687 5.0423 19.0051 5.51386 19.2779 5.94188C19.5508 6.37021 19.9218 6.68715 20.3916 6.89331L25.8923 9.30775V12.7575C25.8923 12.7892 25.9018 12.8151 25.9208 12.835C25.9397 12.8548 25.9642 12.8647 25.9945 12.8647H28.6199C28.6425 12.8647 28.6633 12.8548 28.6823 12.835C28.7013 12.8151 28.7107 12.7895 28.7107 12.7575V9.30807L34.2114 6.90548C34.681 6.69131 35.0526 6.37214 35.3251 5.94796C35.598 5.52378 35.7341 5.05415 35.7341 4.53841V1.06529C35.7341 1.0336 35.7246 1.00991 35.7057 0.993905C35.6867 0.978218 35.6659 0.970215 35.6433 0.970215Z" fill="#ECE8E3"/>
<path d="M55.1446 0.970215H52.5192C52.4889 0.970215 52.466 0.980139 52.451 0.999988C52.4357 1.01984 52.4283 1.04161 52.4283 1.0653V10.2956H51.3259C51.1213 10.2956 50.947 10.2005 50.8032 10.01L45.7118 2.21909C45.1661 1.41841 44.4121 1.00191 43.4501 0.970215H39.0634C39.0331 0.970215 39.0084 0.980139 38.9894 0.999988C38.9704 1.01984 38.9609 1.04161 38.9609 1.0653V12.7697C38.9609 12.7934 38.9704 12.8154 38.9894 12.835C39.0084 12.8548 39.0328 12.8647 39.0634 12.8647H41.6888C41.7114 12.8647 41.7322 12.8548 41.7512 12.835C41.7702 12.8154 41.7796 12.7934 41.7796 12.7697V3.53935H42.882C43.0867 3.53935 43.2607 3.63859 43.4048 3.83676L48.4962 11.6277C49.0419 12.4287 49.7956 12.8411 50.7579 12.8647H55.1449C55.1752 12.8647 55.1978 12.8548 55.2131 12.835C55.2281 12.8154 55.2357 12.7934 55.2357 12.7697V1.0653C55.2357 1.04161 55.2281 1.01984 55.2131 0.999988C55.1975 0.980139 55.1749 0.970215 55.1446 0.970215Z" fill="#ECE8E3"/>
<path d="M74.1191 0.970215H58.0376C58.0073 0.970215 57.9844 0.980139 57.9694 0.999988C57.9541 1.01984 57.9468 1.04161 57.9468 1.0653V3.44427C57.9468 3.46796 57.9541 3.49005 57.9694 3.50958C57.9844 3.52942 58.0073 3.53935 58.0376 3.53935H64.6747V12.7697C64.6747 12.7934 64.682 12.8154 64.6973 12.835C64.7123 12.8548 64.7353 12.8647 64.7655 12.8647H67.3909C67.4212 12.8647 67.4438 12.8548 67.4591 12.835C67.4741 12.8154 67.4818 12.7934 67.4818 12.7697V3.53935H74.1188C74.1491 3.53935 74.1736 3.52942 74.1926 3.50958C74.2115 3.48973 74.221 3.46796 74.221 3.44427V1.0653C74.221 1.04161 74.2115 1.01984 74.1926 0.999988C74.1742 0.980139 74.1494 0.970215 74.1191 0.970215Z" fill="#ECE8E3"/>
<path d="M93.6196 0.970215H90.9942C90.9716 0.970215 90.9504 0.980139 90.9318 0.999988C90.9128 1.01984 90.9033 1.04161 90.9033 1.0653V5.63275H80.2657V1.0653C80.2657 1.04161 80.2562 1.01984 80.2372 0.999988C80.2183 0.980459 80.1935 0.970215 80.1635 0.970215H77.5381C77.5155 0.970215 77.4944 0.980139 77.4757 0.999988C77.4568 1.01984 77.4473 1.04161 77.4473 1.0653V12.7697C77.4473 12.7934 77.4568 12.8154 77.4757 12.835C77.4947 12.8548 77.5155 12.8647 77.5381 12.8647H80.1635C80.1938 12.8647 80.2183 12.8548 80.2372 12.835C80.2562 12.8151 80.2657 12.7934 80.2657 12.7697V8.20221H90.9033V12.7697C90.9033 12.7934 90.9128 12.8154 90.9318 12.835C90.9508 12.8548 90.9716 12.8647 90.9942 12.8647H93.6196C93.6499 12.8647 93.6743 12.8548 93.6933 12.835C93.7123 12.8151 93.7217 12.7934 93.7217 12.7697V1.0653C93.7217 1.04161 93.712 1.01984 93.6933 0.999988C93.6743 0.980139 93.6495 0.970215 93.6196 0.970215Z" fill="#ECE8E3"/>
<path d="M113.051 0.970215H100.311C99.3635 0.970215 98.5529 1.315 97.8787 2.00488C97.2043 2.69477 96.8672 3.52744 96.8672 4.50288V9.31992C96.8672 10.3034 97.2043 11.1399 97.8787 11.8298C98.5529 12.5196 99.3635 12.8647 100.311 12.8647H113.051C113.074 12.8647 113.094 12.8548 113.113 12.835C113.132 12.8151 113.142 12.7934 113.142 12.7697V10.3908C113.142 10.3591 113.132 10.3354 113.113 10.3194C113.094 10.3037 113.074 10.2957 113.051 10.2957H100.311C100.136 10.2957 99.9887 10.2323 99.8676 10.1055C99.7462 9.97875 99.6856 9.82797 99.6856 9.65349V8.20201H113.043C113.073 8.20201 113.096 8.19209 113.111 8.17224C113.126 8.15239 113.133 8.13062 113.133 8.10693V5.72803C113.133 5.69633 113.126 5.67264 113.111 5.65664C113.096 5.64095 113.073 5.63295 113.043 5.63295H99.6856V4.18179C99.6856 4.00731 99.7462 3.85685 99.8676 3.72976C99.9887 3.60299 100.136 3.53928 100.311 3.53928H113.051C113.074 3.53928 113.094 3.52936 113.113 3.50951C113.132 3.48998 113.142 3.46789 113.142 3.4442V1.06529C113.142 1.0416 113.132 1.01984 113.113 0.999987C113.094 0.980459 113.074 0.970215 113.051 0.970215Z" fill="#ECE8E3"/>
<path d="M132.458 0.970215H116.377C116.347 0.970215 116.324 0.980139 116.309 0.999988C116.293 1.01984 116.286 1.04161 116.286 1.0653V3.44427C116.286 3.46796 116.293 3.49005 116.309 3.50958C116.324 3.52942 116.347 3.53935 116.377 3.53935H123.014V12.7697C123.014 12.7934 123.021 12.8154 123.037 12.835C123.052 12.8548 123.075 12.8647 123.105 12.8647H125.73C125.761 12.8647 125.783 12.8548 125.798 12.835C125.814 12.8154 125.821 12.7934 125.821 12.7697V3.53935H132.458C132.488 3.53935 132.513 3.52942 132.532 3.50958C132.551 3.48973 132.56 3.46796 132.56 3.44427V1.0653C132.56 1.04161 132.551 1.01984 132.532 0.999988C132.513 0.980139 132.488 0.970215 132.458 0.970215Z" fill="#ECE8E3"/>
<path d="M138.572 0.993905C138.557 0.978218 138.534 0.970215 138.504 0.970215H135.878C135.848 0.970215 135.825 0.978218 135.81 0.993905C135.795 1.00991 135.788 1.0336 135.788 1.0653V12.7697C135.788 12.7934 135.795 12.8154 135.81 12.835C135.825 12.8548 135.848 12.8647 135.878 12.8647H138.504C138.534 12.8647 138.557 12.8548 138.572 12.835C138.587 12.8151 138.595 12.7934 138.595 12.7697V1.0653C138.595 1.03392 138.587 1.00991 138.572 0.993905Z" fill="#ECE8E3"/>
<path d="M145.82 3.86131C145.706 3.72653 145.566 3.65898 145.399 3.65898H141.99C141.96 3.65898 141.935 3.64905 141.916 3.6292C141.897 3.60968 141.888 3.58759 141.888 3.5639V1.18493C141.888 1.16124 141.897 1.13947 141.916 1.11962C141.935 1.10009 141.96 1.08984 141.99 1.08984H145.593C146.502 1.08984 147.286 1.47465 147.945 2.24363L148.82 3.34972L147.116 5.50267L145.82 3.86131ZM152.116 2.23179C152.775 1.47049 153.563 1.08984 154.48 1.08984H158.071C158.101 1.08984 158.124 1.09785 158.139 1.11353C158.154 1.12954 158.162 1.15323 158.162 1.18493V3.5639C158.162 3.58759 158.154 3.60968 158.139 3.6292C158.124 3.64905 158.101 3.65898 158.071 3.65898H154.662C154.495 3.65898 154.355 3.72653 154.241 3.86131L151.729 7.02526L154.252 10.2129C154.366 10.34 154.502 10.4034 154.662 10.4034H158.071C158.101 10.4034 158.124 10.4133 158.139 10.4332C158.154 10.453 158.162 10.4789 158.162 10.5103V12.8893C158.162 12.913 158.154 12.9351 158.139 12.9546C158.124 12.9744 158.101 12.9844 158.071 12.9844H154.48C153.563 12.9844 152.779 12.5999 152.127 11.8306L150.036 9.19006L147.945 11.8306C147.286 12.5999 146.498 12.9844 145.581 12.9844H141.99C141.96 12.9844 141.937 12.9744 141.922 12.9546C141.906 12.9348 141.899 12.9091 141.899 12.8771V10.4982C141.899 10.4745 141.906 10.4527 141.922 10.4328C141.937 10.413 141.96 10.4031 141.99 10.4031H145.399C145.558 10.4031 145.698 10.3358 145.82 10.2007L148.286 7.08449L152.116 2.23179Z" fill="#ECE8E3"/>
</svg>
