<svg width="11" height="11" viewBox="0 0 11 11" fill="none" xmlns="http://www.w3.org/2000/svg">
<path fill-rule="evenodd" clip-rule="evenodd" d="M1.5 0.5C1.77614 0.5 2 0.723858 2 1L2 10C2 10.2761 1.77614 10.5 1.5 10.5C1.22386 10.5 1 10.2761 1 10L1 1C1 0.723858 1.22386 0.5 1.5 0.5Z" fill="#787878"/>
<path d="M0 3.4C0 3.17909 0.179086 3 0.4 3H2.6C2.82091 3 3 3.17909 3 3.4V7.6C3 7.82091 2.82091 8 2.6 8H0.4C0.179086 8 0 7.82091 0 7.6V3.4Z" fill="#787878"/>
<path fill-rule="evenodd" clip-rule="evenodd" d="M1 4V7H2V4H1ZM0.4 3C0.179086 3 0 3.17909 0 3.4V7.6C0 7.82091 0.179086 8 0.4 8H2.6C2.82091 8 3 7.82091 3 7.6V3.4C3 3.17909 2.82091 3 2.6 3H0.4Z" fill="#787878"/>
<path fill-rule="evenodd" clip-rule="evenodd" d="M5.5 0.5C5.77614 0.5 6 0.723858 6 1L6 10C6 10.2761 5.77614 10.5 5.5 10.5C5.22386 10.5 5 10.2761 5 10L5 1C5 0.723858 5.22386 0.5 5.5 0.5Z" fill="#787878"/>
<path d="M4 2.4C4 2.17909 4.17909 2 4.4 2H6.6C6.82091 2 7 2.17909 7 2.4V4.6C7 4.82091 6.82091 5 6.6 5H4.4C4.17909 5 4 4.82091 4 4.6V2.4Z" fill="#787878"/>
<path fill-rule="evenodd" clip-rule="evenodd" d="M5 3V4H6V3H5ZM4.4 2C4.17909 2 4 2.17909 4 2.4V4.6C4 4.82091 4.17909 5 4.4 5H6.6C6.82091 5 7 4.82091 7 4.6V2.4C7 2.17909 6.82091 2 6.6 2H4.4Z" fill="#787878"/>
<path fill-rule="evenodd" clip-rule="evenodd" d="M9.5 0.5C9.77614 0.5 10 0.723858 10 1V10C10 10.2761 9.77614 10.5 9.5 10.5C9.22386 10.5 9 10.2761 9 10V1C9 0.723858 9.22386 0.5 9.5 0.5Z" fill="#787878"/>
<path d="M8 4.4C8 4.17909 8.17909 4 8.4 4H10.6C10.8209 4 11 4.17909 11 4.4V8.6C11 8.82091 10.8209 9 10.6 9H8.4C8.17909 9 8 8.82091 8 8.6V4.4Z" fill="#787878"/>
<path fill-rule="evenodd" clip-rule="evenodd" d="M9 5V8H10V5H9ZM8.4 4C8.17909 4 8 4.17909 8 4.4V8.6C8 8.82091 8.17909 9 8.4 9H10.6C10.8209 9 11 8.82091 11 8.6V4.4C11 4.17909 10.8209 4 10.6 4H8.4Z" fill="#787878"/>
</svg>
