<svg width="29" height="29" viewBox="0 0 29 29" fill="none" xmlns="http://www.w3.org/2000/svg">
<path d="M6.01311 14.4946C6.01311 9.92062 9.72934 6.20439 14.3033 6.20439C18.8774 6.20439 22.5936 9.92062 22.5936 14.4946C22.5936 19.0686 18.8774 22.7849 14.3033 22.7849C9.72934 22.7849 6.01311 19.0686 6.01311 14.4946Z" stroke="url(#asset-card-dot_paint0_linear)" stroke-width="0.385593"/>
<path d="M1 14.5C1 7.05142 7.05142 1 14.5 1C21.9486 1 28 7.05142 28 14.5C28 21.9485 21.9486 28 14.5 28C7.05142 28 1 21.9485 1 14.5Z" stroke="url(#asset-card-dot_paint1_linear)" stroke-width="0.771429"/>
<defs>
<linearGradient id="asset-card-dot_paint0_linear" x1="14.3033" y1="6.0116" x2="14.3033" y2="22.9777" gradientUnits="userSpaceOnUse">
<stop stop-color="#E4B378"/>
<stop offset="1" stop-color="#B98C55"/>
</linearGradient>
<linearGradient id="asset-card-dot_paint1_linear" x1="14.5" y1="1" x2="14.5" y2="28" gradientUnits="userSpaceOnUse">
<stop stop-color="#BE9461"/>
<stop offset="1" stop-color="#9C6C3C"/>
</linearGradient>
</defs>
</svg>
