<svg width="62" height="50" viewBox="0 0 62 50" fill="none" xmlns="http://www.w3.org/2000/svg">
<path d="M26.1428 0.876709L9.77713e-05 17.0142L9.63606e-05 33.1517L26.1428 17.0142L26.1428 0.876709Z" fill="#0B0C0B"/>
<path d="M34.6938 0.876709L60.8366 17.0142L60.8366 33.1517L34.6938 17.0142L34.6938 0.876709Z" fill="url(#paint0_linear)"/>
<path d="M26.1428 0.876709L9.77713e-05 17.0142L9.63606e-05 33.1517L26.1428 17.0142L26.1428 0.876709Z" fill="white"/>
<path d="M34.6938 0.876709L60.8366 17.0142L60.8366 33.1517L34.6938 17.0142L34.6938 0.876709Z" fill="url(#paint1_linear)"/>
<path d="M34.8594 49.2893L61.0021 33.1518L61.0021 17.0143L34.8594 33.1518L34.8594 49.2893Z" fill="black"/>
<path d="M34.8594 49.2893L61.0021 33.1518L61.0021 17.0143L34.8594 33.1518L34.8594 49.2893Z" fill="url(#paint2_linear)"/>
<path d="M26.1428 49.1277L0.000100593 32.9902L0.000102004 16.8527L26.1428 32.9902L26.1428 49.1277Z" fill="url(#paint3_linear)"/>
<path d="M26.1428 49.1277L0.000100593 32.9902L0.000102004 16.8527L26.1428 32.9902L26.1428 49.1277Z" fill="url(#paint4_linear)"/>
<path d="M26.1428 48.9664L0.000100593 32.8289L0.000102004 16.6915L26.1428 32.8289L26.1428 48.9664Z" fill="url(#paint5_linear)"/>
<defs>
<linearGradient id="paint0_linear" x1="47.7652" y1="0.87671" x2="47.7652" y2="33.1517" gradientUnits="userSpaceOnUse">
<stop stop-color="#666666"/>
<stop offset="1"/>
</linearGradient>
<linearGradient id="paint1_linear" x1="47.7652" y1="0.87671" x2="47.7652" y2="33.1517" gradientUnits="userSpaceOnUse">
<stop stop-color="#E7E7E7"/>
<stop offset="1"/>
<stop offset="1" stop-color="#BDBDBD"/>
</linearGradient>
<linearGradient id="paint2_linear" x1="34.698" y1="42.6729" x2="60.8407" y2="22.017" gradientUnits="userSpaceOnUse">
<stop stop-color="#888888"/>
<stop offset="1" stop-color="#FEFEFE"/>
</linearGradient>
<linearGradient id="paint3_linear" x1="26.3042" y1="42.5113" x2="0.161477" y2="21.8553" gradientUnits="userSpaceOnUse">
<stop stop-color="#707070"/>
<stop offset="1" stop-color="#DBDBDB"/>
</linearGradient>
<linearGradient id="paint4_linear" x1="26.3042" y1="42.5113" x2="0.161477" y2="21.8553" gradientUnits="userSpaceOnUse">
<stop stop-color="#12FF71"/>
<stop offset="1" stop-color="#61FFEC"/>
</linearGradient>
<linearGradient id="paint5_linear" x1="26.3042" y1="42.3501" x2="0.161477" y2="21.6941" gradientUnits="userSpaceOnUse">
<stop stop-color="#BABABA"/>
<stop offset="1" stop-color="#515151"/>
</linearGradient>
</defs>
</svg>
