<svg width="24" height="24" viewBox="0 0 24 24" fill="none" xmlns="http://www.w3.org/2000/svg">
<g clip-path="url(#icon-commodities_clip0)">
<path fill-rule="evenodd" clip-rule="evenodd" d="M15.056 3.97684C15.3674 5.34735 15.6829 6.71787 15.9987 8.08838H17.1655C17.2064 8.08838 17.2476 8.08786 17.2889 8.08734L17.2891 8.08734C17.497 8.0847 17.7088 8.08202 17.9105 8.14523C18.4987 8.32624 18.945 8.88354 19.1375 9.62813C19.1399 9.63679 19.1422 9.64564 19.1443 9.6547C19.1462 9.66267 19.1481 9.67059 19.1497 9.67844C19.4937 11.177 19.8376 12.6756 20.1777 14.1642L20.178 14.1642H20.178H20.178C20.5651 14.1515 20.955 14.1388 21.3363 14.1767C21.9217 14.2399 22.512 14.6504 22.7587 15.3767C22.841 15.623 22.899 15.8694 22.9571 16.1283C23.2956 17.618 23.6389 19.1076 23.9822 20.5973L23.9823 20.5977L23.9823 20.5979L23.9828 20.5999C24.0261 20.7876 23.9839 20.9406 23.9019 21.0427C23.8433 21.1354 23.7541 21.1983 23.6344 21.1999H23.2667H16.1884C16.0967 21.1999 16.0126 21.1526 15.9485 21.0771C15.8851 21.1489 15.8031 21.1935 15.714 21.1935H15.3463H8.26804C8.18338 21.1935 8.10515 21.1532 8.04319 21.0876C7.98593 21.1552 7.90772 21.1985 7.80855 21.1999H7.44085H0.362568C0.130335 21.1999 -0.0535163 20.8967 0.0142184 20.5999C0.343216 19.1851 0.667374 17.7704 0.991533 16.3557C1.01572 16.2546 1.03871 16.1536 1.06169 16.0525C1.08467 15.9515 1.10765 15.8504 1.13184 15.7494C1.26731 15.1494 1.59147 14.6504 2.02691 14.3851C2.44341 14.1284 2.95213 14.1485 3.42565 14.1673C3.5462 14.172 3.66445 14.1767 3.77833 14.1767C3.78948 14.1767 3.80064 14.1767 3.8118 14.1767C3.89207 13.8278 3.97181 13.4796 4.05155 13.1314L4.05173 13.1307L4.05181 13.1303L4.05197 13.1296C4.15706 12.6708 4.26214 12.2119 4.36843 11.7515C4.44825 11.4042 4.52807 11.0585 4.60788 10.7128C4.68773 10.3669 4.76757 10.0211 4.84741 9.67365C4.98772 9.07365 5.30704 8.56838 5.74732 8.29681C6.04245 8.11365 6.35209 8.08838 6.67625 8.08838H8.02096C8.3089 6.82428 8.60052 5.55582 8.89215 4.29263L8.90964 4.21676C9.08752 3.44437 9.27029 2.65073 9.88398 2.27158C10.3457 1.99101 10.8696 2.00537 11.3776 2.01928C11.4871 2.02228 11.5959 2.02526 11.7031 2.02526C11.8927 2.02526 12.0845 2.01899 12.2769 2.0127C12.6639 2.00005 13.0539 1.9873 13.4352 2.02526C14.0206 2.08842 14.6109 2.49895 14.8576 3.22526C14.9399 3.47158 14.998 3.71789 15.056 3.97684ZM5.44229 14.1705C5.15526 14.1464 4.86374 14.1491 4.57263 14.1573C4.86896 12.8712 5.16479 11.585 5.45703 10.2989C5.46512 10.2634 5.47298 10.2279 5.48083 10.1924C5.5246 9.99476 5.56776 9.79986 5.64572 9.62312C5.82957 9.20628 6.18275 9.04838 6.53111 9.04838H8.28347L8.28737 9.04841H9.15518C9.57324 9.05203 9.9282 9.39847 10.0581 9.91365C10.0644 9.93695 10.0716 9.9589 10.0796 9.97954C10.2604 10.7673 10.4412 11.5535 10.622 12.3398C10.7623 12.9498 10.9025 13.5597 11.0428 14.1703H10.7162L10.6952 14.1705H5.44229ZM6.82097 15.1115C6.86348 15.1946 6.90101 15.2831 6.93284 15.3767C7.01508 15.623 7.07314 15.8694 7.1312 16.1283C7.43069 17.4464 7.73397 18.7645 8.03768 20.0826C8.18184 19.4581 8.32536 18.8336 8.46888 18.2091C8.64666 17.4355 8.82445 16.6618 9.00344 15.8882C9.06927 15.5989 9.16493 15.3378 9.28702 15.1115H6.82097ZM7.31789 20.2462C7.07694 19.1869 6.83313 18.1313 6.58932 17.0757C6.56382 16.9631 6.54045 16.8406 6.51631 16.7141C6.44427 16.3364 6.36534 15.9227 6.20227 15.6294C5.90657 15.1035 5.44766 15.1128 5.00372 15.1218C4.94646 15.1229 4.88944 15.1241 4.83306 15.1241H2.81069C2.46234 15.1241 2.10916 15.282 1.9253 15.6988C1.84735 15.8756 1.80419 16.0705 1.76042 16.2681C1.75257 16.3036 1.74471 16.3391 1.73662 16.3746C1.44339 17.6651 1.14653 18.9557 0.849184 20.2462H7.31789ZM16.8174 16.3557C16.5302 17.6093 16.2429 18.863 15.9523 20.1167C15.8075 19.4886 15.6636 18.8604 15.5194 18.2313L15.5192 18.2304L15.5187 18.2279C15.3922 17.6762 15.2657 17.1238 15.1383 16.5703C15.12 16.4915 15.1024 16.4124 15.0848 16.3335C14.9889 15.9038 14.8941 15.4786 14.7082 15.1115H17.1922C17.0893 15.3043 17.0096 15.5194 16.9577 15.7494C16.9335 15.8504 16.9106 15.9514 16.8876 16.0524L16.8876 16.0525L16.8876 16.0525C16.8646 16.1536 16.8416 16.2546 16.8174 16.3557ZM13.2751 15.1115H12.7004C12.6204 15.1149 12.541 15.1177 12.4628 15.1177C11.8864 15.1177 11.3101 15.1177 10.729 15.1115H10.6993C10.3043 15.118 9.94452 15.3521 9.77755 15.844C9.73481 15.9642 9.7077 16.0961 9.68105 16.2257L9.68105 16.2258C9.66849 16.2869 9.65603 16.3475 9.64208 16.4061C9.4506 17.2453 9.25756 18.0825 9.06473 18.9188C8.96266 19.3614 8.86065 19.8038 8.75896 20.2461H15.232C15.1312 19.8082 15.0307 19.3704 14.9302 18.9325C14.7839 18.2946 14.6375 17.6567 14.49 17.0188C14.4271 16.7472 14.3642 16.4693 14.3013 16.1914L14.2894 16.1381C14.2452 15.9396 14.1998 15.7352 14.0932 15.5788C13.8682 15.2513 13.581 15.1421 13.2751 15.1115ZM12.951 14.1631C13.0538 14.1626 13.1565 14.1641 13.2583 14.1705H18.5553C18.786 14.1489 19.0229 14.1582 19.2515 14.1673L19.3339 14.1705H19.4226C19.2823 13.5595 19.1419 12.9493 19.0016 12.339C18.8211 11.5542 18.6406 10.7694 18.4601 9.98309C18.4518 9.96143 18.4443 9.93829 18.4379 9.91365C18.3073 9.39575 17.9492 9.04838 17.5283 9.04838H16.9332H15.7351L15.7334 9.04841H15.3657H14.9027C14.557 9.05085 14.2079 9.20952 14.0255 9.62312C13.9475 9.79986 13.9044 9.99476 13.8606 10.1924C13.8527 10.2279 13.8449 10.2634 13.8368 10.2989C13.5441 11.587 13.2478 12.8751 12.951 14.1631ZM12.4309 13.1331C12.3518 13.4786 12.2727 13.8241 12.193 14.1703H11.7994C11.4588 12.6798 11.1144 11.1792 10.77 9.67857C10.7683 9.67068 10.7665 9.66272 10.7645 9.6547C10.7624 9.64564 10.7602 9.63679 10.7578 9.62814C10.7036 9.41867 10.6294 9.22403 10.5375 9.04841H13.4562C13.3569 9.23879 13.2796 9.44962 13.2272 9.67365C13.1473 10.021 13.0675 10.3668 12.9877 10.7126C12.9078 11.0584 12.828 11.4042 12.7482 11.7515C12.6419 12.2121 12.5368 12.671 12.4316 13.13L12.4316 13.1303L12.4313 13.1315L12.431 13.1327L12.4309 13.1331ZM23.1438 20.2462C22.9029 19.1872 22.6592 18.1319 22.4154 17.0767L22.4152 17.0757C22.3897 16.9631 22.3663 16.8406 22.3422 16.7141C22.2701 16.3364 22.1912 15.9227 22.0281 15.6294C21.7325 15.1035 21.2735 15.1128 20.8296 15.1218C20.7723 15.1229 20.7153 15.1241 20.6589 15.1241H18.6366C18.2882 15.1241 17.935 15.282 17.7512 15.6988C17.6732 15.8756 17.6301 16.0705 17.5863 16.2681C17.5785 16.3036 17.5706 16.3391 17.5625 16.3746C17.2693 17.6651 16.9724 18.9557 16.6751 20.2462H23.1438ZM15.056 8.08838C14.9774 8.08838 14.8997 8.08987 14.8228 8.09473H9.26304C9.14556 8.08435 9.02681 8.08585 8.90931 8.08734H8.9093H8.90928H8.90927H8.90925C8.86788 8.08786 8.82666 8.08838 8.7857 8.08838H8.76577C9.06263 6.79997 9.35899 5.51157 9.65174 4.22316L9.67054 4.14053C9.72113 3.91689 9.77035 3.69935 9.86946 3.49684C10.0727 3.07368 10.4404 2.97263 10.7936 2.97263H12.8691H13.3481C13.7352 2.97263 14.0497 3.26316 14.2238 3.70526C14.2568 3.79142 14.2786 3.89522 14.2998 3.9966L14.2998 3.99661L14.2998 3.99662C14.3097 4.04386 14.3195 4.09057 14.3303 4.13473L14.3682 4.3012L14.3682 4.30124L14.3683 4.30175C14.4235 4.54467 14.4793 4.79021 14.5383 5.03157L14.539 5.03441L14.54 5.03879C14.7731 6.05653 15.0062 7.07427 15.2392 8.08838H15.056Z" fill="url(#icon-commodities_paint0_linear)"/>
</g>
<defs>
<linearGradient id="icon-commodities_paint0_linear" x1="12" y1="2" x2="12" y2="21.1999" gradientUnits="userSpaceOnUse">
<stop stop-color="#BE9461"/>
<stop offset="1" stop-color="#9C6C3C"/>
</linearGradient>
<clipPath id="icon-commodities_clip0">
<rect width="24" height="24" fill="white"/>
</clipPath>
</defs>
</svg>
