<svg width="24" height="24" viewBox="0 0 24 24" fill="none" xmlns="http://www.w3.org/2000/svg">
<circle cx="12" cy="12" r="11.5" stroke="url(#icon-forex_paint0_linear)"/>
<path d="M11.6084 17.2687C11.0557 17.2175 10.5592 17.0947 10.119 16.9002C9.67882 16.7057 9.30006 16.4549 8.98273 16.1478C8.66539 15.8407 8.41971 15.4875 8.24568 15.0883C8.08189 14.6788 8 14.2386 8 13.7678H9.38196C9.38196 14.4127 9.59181 14.9296 10.0115 15.3186C10.4312 15.7076 10.9635 15.9482 11.6084 16.0403V12.3551L11.2092 12.2937C10.8202 12.2322 10.4517 12.135 10.1036 12.0019C9.76583 11.8586 9.46897 11.6743 9.21305 11.4491C8.95713 11.2137 8.75752 10.9373 8.6142 10.62C8.47089 10.3026 8.39923 9.9341 8.39923 9.51439C8.39923 9.09469 8.48624 8.71081 8.66027 8.36276C8.83429 8.00448 9.06462 7.69226 9.35125 7.4261C9.64811 7.14971 9.99104 6.92962 10.38 6.76583C10.769 6.59181 11.1785 6.47921 11.6084 6.42802V5H12.6526V6.44338C13.0825 6.5048 13.4869 6.62764 13.8656 6.8119C14.2444 6.98592 14.5771 7.21113 14.8637 7.48752C15.1504 7.76392 15.3756 8.08637 15.5393 8.45489C15.7031 8.82342 15.7953 9.22265 15.8157 9.65259H14.4338C14.3928 9.14075 14.2188 8.71081 13.9117 8.36276C13.6046 8.00448 13.1849 7.77415 12.6526 7.67178V11.1727L13.0825 11.2342C13.9629 11.3775 14.6692 11.6999 15.2015 12.2015C15.7338 12.7031 16 13.3736 16 14.2131C16 14.6839 15.9028 15.0985 15.7083 15.4568C15.524 15.8151 15.2783 16.1222 14.9712 16.3781C14.6641 16.634 14.3058 16.8388 13.8964 16.9923C13.4971 17.1356 13.0825 17.2278 12.6526 17.2687V18.9117H11.6084V17.2687ZM12.6526 16.0557C12.9187 16.025 13.1695 15.9686 13.405 15.8868C13.6507 15.8049 13.8605 15.6923 14.0345 15.5489C14.2188 15.3954 14.3621 15.2162 14.4645 15.0115C14.5771 14.7965 14.6334 14.5406 14.6334 14.2438C14.6334 13.8445 14.4952 13.4862 14.2188 13.1689C13.9424 12.8413 13.492 12.6315 12.8676 12.5393L12.6526 12.5086V16.0557ZM11.6084 7.64107C11.3628 7.67178 11.1273 7.7332 10.9021 7.82533C10.6871 7.91747 10.4926 8.04031 10.3186 8.19386C10.1548 8.34741 10.0218 8.53167 9.91939 8.74664C9.81702 8.96161 9.76583 9.20729 9.76583 9.48368C9.76583 9.71913 9.8119 9.92386 9.90403 10.0979C9.99616 10.2719 10.1139 10.4203 10.2572 10.5432C10.4005 10.6558 10.5643 10.7479 10.7486 10.8196C10.9431 10.881 11.1427 10.9271 11.3474 10.9578L11.6084 11.0038V7.64107Z" fill="url(#icon-forex_paint1_linear)"/>
<defs>
<linearGradient id="icon-forex_paint0_linear" x1="12" y1="0" x2="12" y2="24" gradientUnits="userSpaceOnUse">
<stop stop-color="#BE9461"/>
<stop offset="1" stop-color="#9C6C3C"/>
</linearGradient>
<linearGradient id="icon-forex_paint1_linear" x1="12" y1="5" x2="12" y2="18.9117" gradientUnits="userSpaceOnUse">
<stop stop-color="#BE9461"/>
<stop offset="1" stop-color="#9C6C3C"/>
</linearGradient>
</defs>
</svg>
