<svg width="24" height="24" viewBox="0 0 24 24" fill="none" xmlns="http://www.w3.org/2000/svg">
<mask id="icon-equities_mask0" maskUnits="userSpaceOnUse" x="0" y="0" width="24" height="24" style="mask-type:alpha">
<path d="M12 24C18.6274 24 24 18.6274 24 12C24 5.37258 18.6274 0 12 0C5.37258 0 0 5.37258 0 12C0 18.6274 5.37258 24 12 24Z" fill="white"/>
</mask>
<g mask="url(#icon-equities_mask0)">
<path fill-rule="evenodd" clip-rule="evenodd" d="M23 12C23 18.0751 18.0751 23 12 23C6.85709 23 2.53851 19.4706 1.33425 14.7018C1.41622 14.7407 1.50977 14.751 1.59943 14.7295C1.71314 14.7021 1.8092 14.6264 1.86233 14.5223L3.25192 11.798L4.77306 15.0614C4.80958 15.1397 4.8705 15.2042 4.94669 15.245L6.61587 16.1394C6.79341 16.2345 7.014 16.1828 7.13075 16.0187L8.99971 13.3911L10.1525 13.0876C10.2832 13.0532 10.3877 12.9551 10.4303 12.8269L11.9291 8.31586L13.6253 11.8426C13.6721 11.94 13.7564 12.0143 13.8589 12.0486C13.9615 12.0829 14.0735 12.0742 14.1695 12.0245L15.4981 11.3373L16.9305 14.043C17.0022 14.1785 17.1451 14.261 17.2983 14.2556C17.4515 14.2501 17.5881 14.1576 17.65 14.0173C18.0478 13.1161 18.3639 12.4166 18.5989 11.9175C18.7165 11.6678 18.8126 11.4706 18.8878 11.3246C18.967 11.1706 19.0125 11.0943 19.0301 11.07C19.0654 11.0214 19.2014 10.8734 19.4203 10.6508C19.6282 10.4393 19.8866 10.1845 20.1419 9.93653C20.397 9.68873 20.6476 9.44925 20.8394 9.26882C20.8961 9.21554 20.9472 9.16773 20.9917 9.12658C21.0273 9.14786 21.0683 9.17308 21.1151 9.20262C21.3511 9.35178 21.6975 9.5884 22.1575 9.91568C22.2787 10.0019 22.4379 10.0138 22.5705 9.94637L22.7873 9.83627C22.9268 10.5359 23 11.2594 23 12ZM22.5961 9.03609L22.4235 9.12376C22.0544 8.8636 21.76 8.6638 21.5425 8.52634C21.4164 8.44668 21.3071 8.38213 21.2199 8.33868C21.1781 8.31782 21.1271 8.29455 21.0744 8.2786C21.0485 8.27078 21.0073 8.26004 20.958 8.25686C20.9165 8.25418 20.8139 8.25265 20.7082 8.317C20.6701 8.34016 20.6317 8.37362 20.6194 8.38439L20.6172 8.38632C20.5948 8.40569 20.5671 8.43051 20.5358 8.45901C20.4727 8.51639 20.3888 8.5944 20.2913 8.68612C20.096 8.86983 19.8423 9.11229 19.5845 9.36265C19.3269 9.61283 19.0637 9.87238 18.8498 10.09C18.6469 10.2964 18.461 10.4921 18.3825 10.6003C18.3243 10.6805 18.2536 10.8085 18.1764 10.9585C18.0952 11.1164 17.9946 11.323 17.8751 11.5767C17.7071 11.9336 17.4994 12.3886 17.2524 12.9412L16.0198 10.6128C15.9171 10.4189 15.6774 10.3439 15.4825 10.4447L14.1677 11.1247L12.1919 7.01665C12.1139 6.85447 11.9372 6.76434 11.7601 6.79642C11.5831 6.82851 11.4492 6.97489 11.4331 7.15413L11.4185 7.31515L9.73937 12.3691L8.65592 12.6543C8.56537 12.6781 8.48606 12.733 8.43179 12.8093L6.68309 15.2678L5.4419 14.6027L3.63065 10.717C3.56605 10.5784 3.42809 10.4887 3.2752 10.486C3.12232 10.4833 2.98126 10.568 2.91178 10.7042L1.36225 13.742L1.10959 13.5587C1.03736 13.0495 1 12.5291 1 12C1 5.92487 5.92487 1 12 1C17.0482 1 21.3022 4.40063 22.5961 9.03609ZM23.5041 8.57483C22.0299 3.61624 17.4373 0 12 0C5.37258 0 0 5.37258 0 12C0 12.2591 0.008214 12.5164 0.0243969 12.7714L-0.281132 12.5498C-0.385096 12.4743 -0.518956 12.4534 -0.640972 12.4936C-0.762988 12.5337 -0.858315 12.6299 -0.897226 12.7524C-1.21859 13.7633 -1.58904 14.3135 -1.94916 14.5399C-2.09761 14.6332 -2.23328 14.7205 -2.35979 14.8018L-2.35983 14.8019C-2.55661 14.9284 -2.73123 15.0407 -2.89726 15.1395C-3.17008 15.3018 -3.35992 15.3896 -3.50082 15.4191C-3.58261 15.4362 -3.74509 15.4167 -4.03808 15.2913C-4.31799 15.1714 -4.64446 14.9883 -5.03098 14.7694C-5.31487 14.6086 -5.52732 14.4378 -5.74079 14.2662L-5.74086 14.2661C-5.78826 14.228 -5.83571 14.1899 -5.884 14.1518C-6.13806 13.9515 -6.43349 13.7378 -6.82943 13.6734C-7.22597 13.6088 -8.31651 13.4842 -10.082 13.3002C-10.1956 13.2884 -10.3088 13.3257 -10.3932 13.4027C-10.4775 13.4797 -10.5249 13.5891 -10.5234 13.7033L-10.3307 28.3299C-10.3278 28.5497 -10.148 28.726 -9.92817 28.7246L23.2028 28.509C23.4105 28.5077 23.5827 28.3475 23.599 28.1405L25.1524 8.42014C25.1638 8.27589 25.0963 8.13675 24.9761 8.05628C24.8558 7.97581 24.7015 7.96657 24.5725 8.0321L23.5041 8.57483ZM23.7103 9.36737C23.9 10.2146 24 11.0956 24 12C24 18.6274 18.6274 24 12 24C5.99974 24 1.02806 19.5961 0.140844 13.8443L-0.316902 13.5122C-0.626204 14.3046 -1.0171 14.8989 -1.52334 15.2172C-1.65428 15.2995 -1.78319 15.3823 -1.90802 15.4625C-2.11599 15.5962 -2.31261 15.7225 -2.48828 15.827C-2.76935 15.9942 -3.05659 16.1434 -3.33692 16.2021C-3.67636 16.2731 -4.0373 16.1619 -4.35302 16.0267C-4.68182 15.8859 -5.04935 15.6783 -5.42521 15.4655C-5.77092 15.2697 -6.04068 15.0523 -6.25576 14.8789L-6.25579 14.8789C-6.29915 14.844 -6.34029 14.8108 -6.37938 14.78C-6.62413 14.587 -6.7803 14.4919 -6.95792 14.463C-7.29409 14.4083 -8.20913 14.3017 -9.71754 14.1428L-9.53604 27.922L22.8303 27.7114L24.2988 9.0684L23.7103 9.36737Z" fill="url(#icon-equities_paint0_linear)"/>
<path fill-rule="evenodd" clip-rule="evenodd" d="M12.3 -3.29999H11.7V5.43002C11.0153 5.569 10.5 6.17432 10.5 6.90001C10.5 7.6257 11.0153 8.23103 11.7 8.37001V27.9H12.3V8.37001C12.9847 8.23103 13.5 7.6257 13.5 6.90001C13.5 6.17432 12.9847 5.569 12.3 5.43002V-3.29999Z" fill="url(#icon-equities_paint1_linear)"/>
</g>
<defs>
<linearGradient id="icon-equities_paint0_linear" x1="7.3151" y1="0" x2="7.3151" y2="28.7247" gradientUnits="userSpaceOnUse">
<stop stop-color="#BE9461"/>
<stop offset="1" stop-color="#9C6C3C"/>
</linearGradient>
<linearGradient id="icon-equities_paint1_linear" x1="12" y1="-3.29999" x2="12" y2="27.9" gradientUnits="userSpaceOnUse">
<stop stop-color="#BE9461"/>
<stop offset="1" stop-color="#9C6C3C"/>
</linearGradient>
</defs>
</svg>
