<svg width="24" height="24" viewBox="0 0 24 24" fill="none" xmlns="http://www.w3.org/2000/svg">
<path d="M19.6104 10.4178L15.5592 0.000599956L14.4408 0.4356L18.3228 10.4178H5.6772L9.5592 0.435L8.4408 0L4.3896 10.4178H0V11.6178L3.045 22.737C3.1878 23.2554 3.6636 23.6178 4.2018 23.6178H19.7982C20.3358 23.6178 20.8116 23.2554 20.955 22.737L23.9784 11.7774L24 10.4178H19.6104ZM19.7982 22.4178H4.2018L1.2228 11.6178H22.7778L19.7982 22.4178ZM7.8 20.6676L6.6 13.4178V12.8178H7.8V13.368L9 20.6178V21.2178H7.8V20.6676ZM16.2 21.2178H15L15.0084 20.5188L16.2 13.368V12.8178H17.4L17.3916 13.5168L16.2 20.6676V21.2178ZM12.6 21.2178H11.4V12.8178H12.6V21.2178Z" fill="url(#icon-indices_paint0_linear)"/>
<defs>
<linearGradient id="icon-indices_paint0_linear" x1="12" y1="0" x2="12" y2="23.6178" gradientUnits="userSpaceOnUse">
<stop stop-color="#BE9461"/>
<stop offset="1" stop-color="#9C6C3C"/>
</linearGradient>
</defs>
</svg>
