<svg width="24" height="24" viewBox="0 0 24 24" fill="none" xmlns="http://www.w3.org/2000/svg">
<path d="M13.8574 0.751174C13.8574 1.84038 13.8386 3.21127 13.8386 4.18779C14.4015 4.28169 14.9457 4.37559 15.4899 4.48826C16.2593 4.65728 16.9723 4.95775 17.6291 5.42723C19.2241 6.59155 19.4305 9.99061 17.2163 11.1174C17.1787 11.1361 17.1412 11.1737 17.0849 11.2113C17.5353 11.4178 17.9856 11.5493 18.3797 11.7934C19.2429 12.3005 19.7495 13.0704 19.8809 14.0845C20.031 15.1174 19.9372 16.1315 19.5431 17.0892C19.0177 18.3286 18.0419 19.0423 16.7847 19.3427C15.8277 19.5869 14.8331 19.662 13.8386 19.831C13.7823 19.831 13.7448 19.8498 13.6697 19.8498C13.6509 20.8638 13.6509 22.1596 13.6322 23.2676H11.568C11.568 22.1972 11.5868 20.9014 11.5868 19.8498C11.0426 19.831 10.5172 19.8122 9.9355 19.8122C9.91673 20.8451 9.91673 22.1596 9.89797 23.2676H7.83383C7.83383 22.1596 7.85259 20.8263 7.85259 19.7559C6.44523 19.7371 5.09416 19.7183 3.68679 19.6995C3.83691 18.8732 3.96827 18.0845 4.11839 17.2394H5.50699C6.14499 17.2394 6.4077 16.9765 6.4077 16.338C6.44523 13.3897 6.48276 10.4413 6.50152 7.49296C6.50152 6.77934 6.12623 6.38498 5.41316 6.32864C5.15045 6.30986 4.88775 6.30986 4.62504 6.30986C4.36233 6.30986 4.09962 6.30986 3.79938 6.29108C3.79938 5.55869 3.81815 4.84507 3.81815 4.0939C5.20675 4.11268 6.57658 4.11268 7.98395 4.13146C8.05901 3.19249 8.07777 1.84038 8.07777 0.751174H10.1419C10.1419 1.8216 10.1231 3.13615 10.1231 4.11268H11.7745C11.7932 3.15493 11.7932 1.8216 11.812 0.751174H13.8574ZM11.1552 10.7042C11.9996 10.7042 12.8253 10.6479 13.6322 10.3662C14.4578 10.1033 14.9269 9.52113 14.9645 8.71361C15.002 7.94366 14.6267 7.32394 13.8574 6.98592C13.0129 6.61033 12.1122 6.55399 11.2115 6.55399H10.1607C10.1419 7.96244 10.1419 9.31455 10.1231 10.6854C10.4609 10.6854 10.7987 10.7042 11.1552 10.7042ZM10.1607 12.77H10.0668L10.0106 17.3146C10.3483 17.3146 10.6673 17.3333 10.9863 17.3333H11.0614C12.2623 17.3146 13.4821 17.3146 14.6079 16.8075C15.3585 16.4695 15.8277 15.9249 15.8277 15.061C15.8277 14.1972 15.3773 13.615 14.6267 13.2958C13.5759 12.8263 12.45 12.77 11.2866 12.77H10.1607ZM13.8574 0H11.7932C11.3804 0 11.0426 0.338028 11.0426 0.751174C11.0426 1.20188 11.0239 1.70892 11.0239 2.19718C11.0239 2.59155 11.0239 2.98592 11.0051 3.3615H10.855V2.1784L10.8925 0.751174C10.8925 0.544601 10.8174 0.356808 10.6673 0.225352C10.536 0.0751174 10.3483 0 10.1419 0H8.07777C7.66495 0 7.32718 0.338028 7.32718 0.751174C7.32718 1.22066 7.30841 1.7277 7.30841 2.23474C7.30841 2.64789 7.30841 3.04225 7.28965 3.43662L6.14499 3.41784L3.89321 3.38028C3.48038 3.38028 3.14261 3.71831 3.14261 4.13146L3.12385 5.67136V6.32864C3.12385 6.74178 3.44285 7.07981 3.85568 7.07981H4.86898C5.05663 7.07981 5.24428 7.07981 5.43193 7.09859C5.76969 7.11737 5.82599 7.21127 5.82599 7.51174C5.78846 10.4977 5.76969 13.5211 5.73216 16.3568C5.73216 16.4319 5.73216 16.4695 5.7134 16.507H4.17468C3.81815 16.507 3.49915 16.77 3.44285 17.1268L3.23644 18.3099L3.01126 19.5869C2.97373 19.8122 3.03002 20.0188 3.18014 20.1878C3.33026 20.3568 3.53668 20.4507 3.74309 20.4507H3.98703L7.15829 20.4883V23.2488C7.15829 23.4554 7.23335 23.6432 7.38347 23.7746C7.53359 23.9249 7.72124 24 7.90889 24H9.97302C10.3859 24 10.7236 23.662 10.7236 23.2488C10.7236 22.7418 10.7424 22.1972 10.7424 21.6526C10.7424 21.277 10.7424 20.9014 10.7611 20.5446H10.9113V23.2113C10.9113 23.4178 10.9863 23.6056 11.1364 23.7371C11.2866 23.8873 11.4742 23.9624 11.6619 23.9624H13.726C14.1388 23.9624 14.4766 23.6244 14.4766 23.2113C14.4766 22.7042 14.4954 22.1596 14.4954 21.615C14.4954 21.2019 14.4954 20.8075 14.5141 20.4131C14.6642 20.3944 14.8144 20.3756 14.9457 20.3568C15.64 20.2629 16.3531 20.169 17.0474 19.9812C18.6049 19.5869 19.7308 18.6667 20.3125 17.277C20.7441 16.2441 20.8754 15.0986 20.7065 13.8779C20.5189 12.6385 19.8809 11.662 18.83 11.061C18.755 11.0235 18.6987 10.9859 18.6236 10.9484C19.2053 10.3099 19.5619 9.46479 19.6369 8.48826C19.7495 6.96714 19.1678 5.50235 18.117 4.75117C17.4039 4.24413 16.6158 3.88732 15.6963 3.68075C15.3398 3.60563 14.9832 3.53052 14.6455 3.47418V2.1784C14.6455 1.67136 14.6455 1.16432 14.6642 0.694836V0.657277C14.6079 0.338028 14.2889 0 13.8574 0ZM10.8925 7.28638H11.1927C12.1122 7.28638 12.844 7.34272 13.5384 7.66197C14.0075 7.86854 14.2327 8.20657 14.2139 8.67606C14.1951 8.9953 14.1013 9.42723 13.3882 9.67136C12.769 9.87793 12.0747 9.97183 11.1552 9.97183H10.8737V9.25821L10.8925 7.28638ZM10.8174 13.5211H11.2866C12.2999 13.5211 13.3507 13.5587 14.3452 13.9906C14.8707 14.216 15.0958 14.554 15.0958 15.0798C15.0958 15.4366 15.002 15.8498 14.3265 16.1502C13.3319 16.5822 12.2436 16.6009 11.0989 16.6009H10.7987L10.8174 14.1972V13.5211Z" fill="url(#icon-crypto_linear)"/>
<defs>
<linearGradient id="icon-crypto_linear" x1="11.8889" y1="0" x2="11.8889" y2="24" gradientUnits="userSpaceOnUse">
<stop stop-color="#BE9461"/>
<stop offset="1" stop-color="#9C6C3C"/>
</linearGradient>
</defs>
</svg>
