<svg width="60" height="60" viewBox="0 0 60 60" fill="none" xmlns="http://www.w3.org/2000/svg">
<path d="M40 31V13C40 7.47715 35.5228 3 30 3V3C24.4772 3 20 7.47715 20 13V31" stroke="#C9975A" stroke-width="4"/>
<mask id="mask0_264_12715" style="mask-type:alpha" maskUnits="userSpaceOnUse" x="7" y="19" width="46" height="39">
<path d="M43 19H17C11.4772 19 7 23.4772 7 29V48C7 53.5228 11.4772 58 17 58H43C48.5228 58 53 53.5229 53 48V29C53 23.4772 48.5228 19 43 19Z" fill="url(#paint0_linear_264_12715)"/>
</mask>
<g mask="url(#mask0_264_12715)">
<g filter="url(#filter0_b_264_12715)">
<path d="M43 19H17C11.4772 19 7 23.4772 7 29V48C7 53.5228 11.4772 58 17 58H43C48.5228 58 53 53.5229 53 48V29C53 23.4772 48.5228 19 43 19Z" fill="url(#paint1_linear_264_12715)"/>
</g>
<path d="M17 19.25H43C48.3848 19.25 52.75 23.6152 52.75 29V48C52.75 53.3848 48.3848 57.75 43 57.75H17C11.6152 57.75 7.25 53.3848 7.25 48V29C7.25 23.6152 11.6152 19.25 17 19.25Z" stroke="url(#paint2_linear_264_12715)" stroke-width="0.5"/>
<g filter="url(#filter1_f_264_12715)">
<ellipse cx="30.5104" cy="56.0977" rx="11.234" ry="10.4634" fill="#EDA54D"/>
</g>
<g filter="url(#filter2_f_264_12715)">
<ellipse cx="53.5104" cy="60.0972" rx="11.234" ry="10.4634" fill="#95F0FB"/>
</g>
<g filter="url(#filter3_d_264_12715)">
<path d="M34 37.0885C34 34.8584 32.209 33 29.9403 33C27.791 33 26 34.8584 26 37.0885C26 38.823 26.9552 40.1858 28.3881 40.8053V47H31.6119V40.8053C33.0448 40.3097 34 38.823 34 37.0885Z" fill="#121212"/>
</g>
</g>
<defs>
<filter id="filter0_b_264_12715" x="1" y="13" width="58" height="51" filterUnits="userSpaceOnUse" color-interpolation-filters="sRGB">
<feFlood flood-opacity="0" result="BackgroundImageFix"/>
<feGaussianBlur in="BackgroundImage" stdDeviation="3"/>
<feComposite in2="SourceAlpha" operator="in" result="effect1_backgroundBlur_264_12715"/>
<feBlend mode="normal" in="SourceGraphic" in2="effect1_backgroundBlur_264_12715" result="shape"/>
</filter>
<filter id="filter1_f_264_12715" x="-6.72363" y="19.6343" width="74.4681" height="72.9268" filterUnits="userSpaceOnUse" color-interpolation-filters="sRGB">
<feFlood flood-opacity="0" result="BackgroundImageFix"/>
<feBlend mode="normal" in="SourceGraphic" in2="BackgroundImageFix" result="shape"/>
<feGaussianBlur stdDeviation="13" result="effect1_foregroundBlur_264_12715"/>
</filter>
<filter id="filter2_f_264_12715" x="16.2764" y="23.6338" width="74.4681" height="72.9268" filterUnits="userSpaceOnUse" color-interpolation-filters="sRGB">
<feFlood flood-opacity="0" result="BackgroundImageFix"/>
<feBlend mode="normal" in="SourceGraphic" in2="BackgroundImageFix" result="shape"/>
<feGaussianBlur stdDeviation="13" result="effect1_foregroundBlur_264_12715"/>
</filter>
<filter id="filter3_d_264_12715" x="25" y="32.5" width="10" height="16" filterUnits="userSpaceOnUse" color-interpolation-filters="sRGB">
<feFlood flood-opacity="0" result="BackgroundImageFix"/>
<feColorMatrix in="SourceAlpha" type="matrix" values="0 0 0 0 0 0 0 0 0 0 0 0 0 0 0 0 0 0 127 0" result="hardAlpha"/>
<feOffset dy="0.5"/>
<feGaussianBlur stdDeviation="0.5"/>
<feComposite in2="hardAlpha" operator="out"/>
<feColorMatrix type="matrix" values="0 0 0 0 1 0 0 0 0 1 0 0 0 0 1 0 0 0 0.25 0"/>
<feBlend mode="normal" in2="BackgroundImageFix" result="effect1_dropShadow_264_12715"/>
<feBlend mode="normal" in="SourceGraphic" in2="effect1_dropShadow_264_12715" result="shape"/>
</filter>
<linearGradient id="paint0_linear_264_12715" x1="30" y1="19" x2="30" y2="58" gradientUnits="userSpaceOnUse">
<stop stop-color="#272625" stop-opacity="0.79"/>
<stop offset="1" stop-color="#272625"/>
</linearGradient>
<linearGradient id="paint1_linear_264_12715" x1="30" y1="19" x2="30" y2="58" gradientUnits="userSpaceOnUse">
<stop stop-color="#1C1B1A" stop-opacity="0.79"/>
<stop offset="1" stop-color="#1C1B1A"/>
</linearGradient>
<linearGradient id="paint2_linear_264_12715" x1="30" y1="19" x2="30" y2="36.9605" gradientUnits="userSpaceOnUse">
<stop stop-color="#606060"/>
<stop offset="1" stop-color="#292725" stop-opacity="0"/>
</linearGradient>
</defs>
</svg>
