<svg width="122" height="40" viewBox="0 0 122 40" fill="none" xmlns="http://www.w3.org/2000/svg">
<path d="M0.335 15.57L9.85 8.915V33.005H0.28V39H25.8V33.005H16.725V0.774997H10.84L0.335 8.09V15.57ZM34.3664 18.98V25.14H53.9464V18.98H34.3664ZM63.9429 33.555V39H89.7929V32.785H73.3479L84.2379 21.51C85.7779 19.915 86.9329 18.375 87.7579 16.78C88.5279 15.24 88.9129 13.535 88.9129 11.665C88.9129 9.85 88.5829 8.255 87.9779 6.825C87.3179 5.395 86.4379 4.185 85.3379 3.195C84.1829 2.205 82.9179 1.435 81.4329 0.884999C79.9479 0.389999 78.3529 0.114999 76.6479 0.114999C74.5029 0.114999 72.6329 0.444998 71.0379 1.05C69.4429 1.71 68.0679 2.59 67.0229 3.69C65.9229 4.79 65.0979 6.055 64.5479 7.54C63.9979 9.025 63.7229 10.565 63.7229 12.27C63.7229 12.325 63.7229 12.435 63.7229 12.6C63.7229 12.765 63.7229 12.985 63.7779 13.205H70.8729C70.8179 13.04 70.8179 12.82 70.8179 12.655C70.8179 12.49 70.8179 12.38 70.8179 12.325C70.8179 10.51 71.3129 9.025 72.2479 7.87C73.1829 6.715 74.6679 6.165 76.5929 6.165C78.1879 6.165 79.4529 6.605 80.4429 7.54C81.4329 8.475 81.9279 9.795 81.9279 11.555C81.9279 12.325 81.7629 13.205 81.4329 14.195C81.0479 15.185 80.3879 16.175 79.4529 17.165L63.9429 33.555ZM121.294 30.2C121.294 27.945 120.524 26.075 119.039 24.7C117.554 23.325 115.574 22.445 113.099 22.115L106.554 21.18C105.619 21.015 104.849 20.74 104.134 20.355C103.419 19.97 103.089 19.255 103.089 18.265C103.089 17.22 103.584 16.34 104.629 15.735C105.674 15.13 106.994 14.8 108.644 14.8C110.349 14.8 111.614 15.185 112.549 15.955C113.429 16.725 113.924 17.715 113.979 18.87H120.524C120.524 17.495 120.249 16.285 119.644 15.13C119.039 13.975 118.269 13.04 117.224 12.215C116.179 11.39 114.914 10.785 113.429 10.29C111.944 9.85 110.349 9.63 108.644 9.63C106.829 9.63 105.234 9.85 103.749 10.29C102.264 10.785 100.999 11.39 99.9543 12.215C98.9093 13.04 98.0843 14.03 97.4793 15.185C96.8743 16.34 96.5993 17.55 96.5993 18.87C96.5993 19.695 96.7643 20.575 97.0393 21.4C97.3143 22.28 97.8093 23.05 98.5243 23.765C99.1843 24.48 100.064 25.14 101.164 25.635C102.209 26.185 103.529 26.57 105.069 26.79L111.559 27.78C112.824 27.945 113.704 28.33 114.199 28.825C114.694 29.375 114.914 30.035 114.914 30.86C114.914 31.96 114.364 32.84 113.264 33.5C112.109 34.16 110.569 34.49 108.644 34.49C106.829 34.49 105.289 34.105 104.024 33.28C102.759 32.51 102.044 31.355 101.989 29.815H95.3893C95.3893 31.465 95.7743 32.895 96.4893 34.16C97.2043 35.425 98.1393 36.415 99.3493 37.24C100.504 38.065 101.879 38.725 103.474 39.11C105.069 39.55 106.719 39.77 108.424 39.77C110.129 39.77 111.724 39.605 113.319 39.22C114.859 38.835 116.234 38.285 117.389 37.515C118.544 36.745 119.534 35.755 120.249 34.545C120.964 33.335 121.294 31.905 121.294 30.2Z" fill="url(#paint0_linear)"/>
<defs>
<linearGradient id="paint0_linear" x1="59.5" y1="-14" x2="59.5" y2="41" gradientUnits="userSpaceOnUse">
<stop stop-color="#E4B378"/>
<stop offset="1" stop-color="#B98C55"/>
</linearGradient>
</defs>
</svg>
