<svg height="40" viewBox="0 0 94 40" fill="none" xmlns="http://www.w3.org/2000/svg">
<path d="M28.35 26.185C28.35 24.37 28.075 22.72 27.525 21.18C26.975 19.64 26.205 18.32 25.16 17.165C24.115 16.01 22.795 15.13 21.31 14.525C19.77 13.92 18.01 13.59 16.085 13.59C12.51 13.59 9.87 14.58 8.11 16.56L8.715 7.045H26.425V0.884999H2.885L1.675 22.72H8.605C9.21 21.73 10.035 20.96 11.19 20.41C12.29 19.915 13.445 19.64 14.6 19.64C16.855 19.64 18.505 20.3 19.66 21.565C20.76 22.83 21.31 24.48 21.31 26.46C21.31 28.605 20.76 30.31 19.605 31.63C18.45 33.005 16.8 33.665 14.6 33.665C12.73 33.665 11.19 33.17 9.925 32.125C8.66 31.135 8 29.705 7.835 27.835H0.905C1.015 29.65 1.4 31.245 2.115 32.73C2.83 34.215 3.765 35.425 4.975 36.47C6.13 37.515 7.56 38.34 9.21 38.89C10.805 39.495 12.62 39.77 14.545 39.77C16.69 39.77 18.615 39.44 20.32 38.78C22.025 38.12 23.455 37.185 24.665 35.975C25.82 34.82 26.755 33.39 27.415 31.685C28.02 30.035 28.35 28.22 28.35 26.185ZM46.1564 6.495C47.5864 6.495 48.7414 6.825 49.6764 7.43C50.5564 8.035 51.2714 8.86 51.7664 9.85C52.2614 10.84 52.5914 11.94 52.7564 13.205C52.9214 14.47 52.9764 15.79 53.0314 17.055L53.0864 21.235C53.0864 22.5 53.0314 23.82 52.9764 25.195C52.8664 26.625 52.5914 27.945 52.1514 29.155C51.6564 30.365 50.9964 31.355 50.0614 32.18C49.1264 33.005 47.8064 33.39 46.1564 33.39C44.5064 33.39 43.2414 33.005 42.3064 32.18C41.3714 31.355 40.6564 30.365 40.2164 29.155C39.7214 27.945 39.4464 26.625 39.3914 25.195C39.2814 23.82 39.2264 22.5 39.2264 21.235L39.2814 17.055C39.3364 15.79 39.4464 14.47 39.6114 13.205C39.7764 11.94 40.1064 10.84 40.6014 9.85C41.0964 8.86 41.7564 8.035 42.6914 7.43C43.5714 6.825 44.7264 6.495 46.1564 6.495ZM46.1564 39.715C48.3014 39.715 50.1714 39.385 51.6564 38.725C53.1414 38.065 54.3514 37.24 55.3964 36.305C56.4414 35.37 57.2664 34.27 57.8714 33.005C58.4764 31.795 58.9714 30.475 59.3014 29.045C59.6314 27.67 59.8514 26.185 59.9614 24.645C60.0714 23.105 60.1264 21.565 60.1264 19.97C60.1264 18.375 60.0714 16.835 59.9614 15.295C59.8514 13.755 59.6314 12.27 59.3014 10.84C58.9714 9.41 58.4764 8.09 57.8714 6.825C57.2664 5.615 56.4414 4.515 55.3964 3.58C54.3514 2.645 53.1414 1.82 51.6564 1.105C50.1714 0.444998 48.3014 0.114999 46.1564 0.114999C44.0114 0.114999 42.1964 0.444998 40.7114 1.105C39.2264 1.82 37.9614 2.645 36.9164 3.58C35.8714 4.515 35.0464 5.615 34.4414 6.825C33.8364 8.09 33.3414 9.41 33.0114 10.84C32.6814 12.27 32.4614 13.755 32.3514 15.295C32.2414 16.835 32.1864 18.375 32.1864 19.97C32.1864 21.565 32.2414 23.105 32.3514 24.645C32.4614 26.185 32.6814 27.67 33.0114 29.045C33.3414 30.475 33.8364 31.795 34.4414 33.005C35.0464 34.27 35.8714 35.37 36.9164 36.305C37.9614 37.24 39.2264 38.065 40.7114 38.725C42.1964 39.385 44.0114 39.715 46.1564 39.715ZM93.2229 39L82.3329 24.48L93.1129 10.4H85.3029L78.5379 19.695L71.6629 10.4H63.4679L74.4129 24.425L63.3029 39H71.1679L78.0979 29.32L85.1379 39H93.2229Z" fill="url(#paint0_linear)"/>
<defs>
<linearGradient id="paint0_linear" x1="45.5" y1="-14" x2="45.5" y2="41" gradientUnits="userSpaceOnUse">
<stop stop-color="#E4B378"/>
<stop offset="1" stop-color="#B98C55"/>
</linearGradient>
</defs>
</svg>
