<svg width="57" height="35" viewBox="0 0 57 35" fill="none" xmlns="http://www.w3.org/2000/svg">
<path d="M31.4518 1.37461C30.8488 1.68528 30.4833 2.30663 30.4833 2.9828V8.46525H10.381C9.37583 8.46525 8.55347 9.28762 8.55347 10.2927C8.55347 11.2979 9.37583 12.1202 10.381 12.1202H32.3108C33.3159 12.1202 34.1382 11.2979 34.1382 10.2927V6.40019L50.9511 17.6027L34.1382 28.8051V24.9126C34.1382 23.9075 33.3159 23.0851 32.3108 23.0851H10.381C9.37583 23.0851 8.55347 23.9075 8.55347 24.9126C8.55347 25.9177 9.37583 26.7401 10.381 26.7401H30.4833V32.2225C30.4833 32.8987 30.8488 33.5201 31.4518 33.8307C31.726 33.9769 32.0184 34.05 32.3108 34.05C32.658 34.05 33.0235 33.9404 33.3159 33.7394L55.2457 19.1195C55.7574 18.7905 56.0681 18.2057 56.0681 17.6027C56.0681 16.9996 55.7574 16.4148 55.2457 16.0859L33.3159 1.46599C32.7676 1.08222 32.0366 1.04566 31.4518 1.37461Z" fill="url(#arrow_paint0_linear)" stroke="#0D0D18" stroke-width="1.82748"/>
<path d="M32.3094 19.4301C33.3145 19.4301 34.1369 18.6077 34.1369 17.6026C34.1369 16.5975 33.3145 15.7751 32.3094 15.7751H3.06967C2.06456 15.7751 1.24219 16.5975 1.24219 17.6026C1.24219 18.6077 2.06456 19.4301 3.06967 19.4301H32.3094Z" fill="url(#arrow_paint1_linear)" stroke="#0D0D18" stroke-width="1.82748"/>
<defs>
<linearGradient id="arrow_paint0_linear" x1="32.3108" y1="1.15088" x2="32.3108" y2="34.05" gradientUnits="userSpaceOnUse">
<stop stop-color="#BE9461"/>
<stop offset="1" stop-color="#9C6C3C"/>
</linearGradient>
<linearGradient id="arrow_paint1_linear" x1="17.6895" y1="15.7751" x2="17.6895" y2="19.4301" gradientUnits="userSpaceOnUse">
<stop stop-color="#E4B378"/>
<stop offset="1" stop-color="#B98C55"/>
</linearGradient>
</defs>
</svg>
