<svg width="45" height="45" viewBox="0 0 45 45" fill="none" xmlns="http://www.w3.org/2000/svg">
<mask id="path-1-outside-1" maskUnits="userSpaceOnUse" x="-0.246094" y="0" width="45" height="45" fill="black">
<rect fill="white" x="-0.246094" width="45" height="45"/>
<path d="M19.701 1.00008C19.5104 1.02081 19.3381 1.16122 19.2793 1.34372L17.358 7.12315C16.4115 7.45427 15.5246 8.00055 14.7495 8.43523L9.48552 5.56114C9.29892 5.45647 9.04514 5.48986 8.89196 5.63924L5.39307 9.13813C5.24369 9.29131 5.2103 9.54509 5.31497 9.7317L8.18906 14.9957C7.75438 15.7707 7.2081 16.6576 6.87697 17.6042L1.09755 19.5255C0.901199 19.5901 0.756493 19.7874 0.753906 19.9941V24.9925C0.756495 25.1992 0.901199 25.3965 1.09755 25.4611L6.87697 27.3824C7.2081 28.329 7.75438 29.2159 8.18906 29.9909L5.31497 35.2549C5.2103 35.4415 5.24369 35.6953 5.39307 35.8485L8.89196 39.3473C9.04514 39.4967 9.29892 39.5301 9.48552 39.4254L14.7495 36.5514C15.5246 36.986 16.4115 37.5323 17.358 37.8634L19.2793 43.6429C19.3439 43.8392 19.5412 43.9839 19.7479 43.9865H24.7463C24.953 43.9839 25.1503 43.8392 25.2149 43.6429L27.1362 37.8634C28.0828 37.5323 28.9697 36.986 29.7448 36.5514L35.0087 39.4254C35.1953 39.5301 35.4491 39.4967 35.6023 39.3473L39.1012 35.8485C39.2506 35.6953 39.2839 35.4415 39.1793 35.2549L36.3052 29.9909C36.7399 29.2159 37.2861 28.329 37.6173 27.3824L43.3967 25.4611C43.593 25.3965 43.7377 25.1992 43.7403 24.9925V19.9941C43.7377 19.7874 43.593 19.5901 43.3967 19.5255L37.6173 17.6042C37.2861 16.6576 36.7399 15.7707 36.3052 14.9957L39.1793 9.7317C39.2839 9.54509 39.2506 9.29131 39.1012 9.13813L35.6023 5.63924C35.4491 5.48986 35.1953 5.45647 35.0087 5.56114L29.7135 8.45085C28.9123 8.0272 28.0058 7.5941 27.105 7.29497L25.2306 1.34372C25.1644 1.14241 24.9582 0.996116 24.7463 1.00008C23.066 1.00008 21.378 1.00008 19.701 1.00008ZM20.1072 1.99976H24.3715L26.199 7.81043C26.2499 7.9674 26.3835 8.09491 26.5426 8.13845C27.5036 8.42524 28.6059 8.94616 29.5105 9.43491C29.6541 9.51111 29.8354 9.51111 29.9791 9.43491L35.1493 6.6233L38.1171 9.59112L35.3055 14.7614C35.2293 14.905 35.2293 15.0864 35.3055 15.23C35.8196 16.1813 36.4864 17.2245 36.7582 18.1353C36.8061 18.2888 36.9327 18.4153 37.0862 18.4633L42.7407 20.3533V24.6332L37.0862 26.5233C36.9327 26.5712 36.8061 26.6978 36.7582 26.8513C36.4864 27.7621 35.8196 28.8053 35.3055 29.7566C35.2293 29.9002 35.2293 30.0816 35.3055 30.2252L38.1171 35.3955L35.1493 38.3633L29.9791 35.5517C29.8354 35.4755 29.6541 35.4755 29.5105 35.5517C28.5591 36.0657 27.5159 36.7326 26.6051 37.0043C26.4516 37.0523 26.3251 37.1789 26.2771 37.3324L24.3871 42.9868H20.1072L18.2171 37.3324C18.1692 37.1789 18.0426 37.0523 17.8891 37.0043C16.9784 36.7326 15.9352 36.0657 14.9838 35.5517C14.8402 35.4755 14.6588 35.4755 14.5152 35.5517L9.34494 38.3633L6.37713 35.3955L9.18874 30.2252C9.26494 30.0816 9.26494 29.9002 9.18874 29.7566C8.67469 28.8053 8.00788 27.7621 7.73608 26.8513C7.68811 26.6978 7.56153 26.5712 7.40806 26.5233L1.75359 24.6332V20.3533L7.40806 18.4633C7.56153 18.4153 7.68811 18.2888 7.73608 18.1353C8.00788 17.2245 8.67469 16.1813 9.18874 15.23C9.26494 15.0864 9.26494 14.905 9.18874 14.7614L6.37713 9.59112L9.34494 6.6233L14.5152 9.43491C14.6588 9.51111 14.8402 9.51111 14.9838 9.43491C15.9352 8.92086 16.9784 8.25405 17.8891 7.98225C18.0426 7.93428 18.1692 7.8077 18.2171 7.65423L20.1072 1.99976ZM22.2471 11.4968C16.1798 11.4968 11.2506 16.426 11.2506 22.4933C11.2506 28.5605 16.1798 33.4898 22.2471 33.4898C28.3144 33.4898 33.2436 28.5605 33.2436 22.4933C33.2436 16.426 28.3144 11.4968 22.2471 11.4968ZM22.2471 12.4964C27.7741 12.4964 32.244 16.9663 32.244 22.4933C32.244 28.0203 27.7741 32.4901 22.2471 32.4901C16.7201 32.4901 12.2503 28.0203 12.2503 22.4933C12.2503 16.9663 16.7201 12.4964 22.2471 12.4964Z"/>
</mask>
<path d="M19.701 1.00008C19.5104 1.02081 19.3381 1.16122 19.2793 1.34372L17.358 7.12315C16.4115 7.45427 15.5246 8.00055 14.7495 8.43523L9.48552 5.56114C9.29892 5.45647 9.04514 5.48986 8.89196 5.63924L5.39307 9.13813C5.24369 9.29131 5.2103 9.54509 5.31497 9.7317L8.18906 14.9957C7.75438 15.7707 7.2081 16.6576 6.87697 17.6042L1.09755 19.5255C0.901199 19.5901 0.756493 19.7874 0.753906 19.9941V24.9925C0.756495 25.1992 0.901199 25.3965 1.09755 25.4611L6.87697 27.3824C7.2081 28.329 7.75438 29.2159 8.18906 29.9909L5.31497 35.2549C5.2103 35.4415 5.24369 35.6953 5.39307 35.8485L8.89196 39.3473C9.04514 39.4967 9.29892 39.5301 9.48552 39.4254L14.7495 36.5514C15.5246 36.986 16.4115 37.5323 17.358 37.8634L19.2793 43.6429C19.3439 43.8392 19.5412 43.9839 19.7479 43.9865H24.7463C24.953 43.9839 25.1503 43.8392 25.2149 43.6429L27.1362 37.8634C28.0828 37.5323 28.9697 36.986 29.7448 36.5514L35.0087 39.4254C35.1953 39.5301 35.4491 39.4967 35.6023 39.3473L39.1012 35.8485C39.2506 35.6953 39.2839 35.4415 39.1793 35.2549L36.3052 29.9909C36.7399 29.2159 37.2861 28.329 37.6173 27.3824L43.3967 25.4611C43.593 25.3965 43.7377 25.1992 43.7403 24.9925V19.9941C43.7377 19.7874 43.593 19.5901 43.3967 19.5255L37.6173 17.6042C37.2861 16.6576 36.7399 15.7707 36.3052 14.9957L39.1793 9.7317C39.2839 9.54509 39.2506 9.29131 39.1012 9.13813L35.6023 5.63924C35.4491 5.48986 35.1953 5.45647 35.0087 5.56114L29.7135 8.45085C28.9123 8.0272 28.0058 7.5941 27.105 7.29497L25.2306 1.34372C25.1644 1.14241 24.9582 0.996116 24.7463 1.00008C23.066 1.00008 21.378 1.00008 19.701 1.00008ZM20.1072 1.99976H24.3715L26.199 7.81043C26.2499 7.9674 26.3835 8.09491 26.5426 8.13845C27.5036 8.42524 28.6059 8.94616 29.5105 9.43491C29.6541 9.51111 29.8354 9.51111 29.9791 9.43491L35.1493 6.6233L38.1171 9.59112L35.3055 14.7614C35.2293 14.905 35.2293 15.0864 35.3055 15.23C35.8196 16.1813 36.4864 17.2245 36.7582 18.1353C36.8061 18.2888 36.9327 18.4153 37.0862 18.4633L42.7407 20.3533V24.6332L37.0862 26.5233C36.9327 26.5712 36.8061 26.6978 36.7582 26.8513C36.4864 27.7621 35.8196 28.8053 35.3055 29.7566C35.2293 29.9002 35.2293 30.0816 35.3055 30.2252L38.1171 35.3955L35.1493 38.3633L29.9791 35.5517C29.8354 35.4755 29.6541 35.4755 29.5105 35.5517C28.5591 36.0657 27.5159 36.7326 26.6051 37.0043C26.4516 37.0523 26.3251 37.1789 26.2771 37.3324L24.3871 42.9868H20.1072L18.2171 37.3324C18.1692 37.1789 18.0426 37.0523 17.8891 37.0043C16.9784 36.7326 15.9352 36.0657 14.9838 35.5517C14.8402 35.4755 14.6588 35.4755 14.5152 35.5517L9.34494 38.3633L6.37713 35.3955L9.18874 30.2252C9.26494 30.0816 9.26494 29.9002 9.18874 29.7566C8.67469 28.8053 8.00788 27.7621 7.73608 26.8513C7.68811 26.6978 7.56153 26.5712 7.40806 26.5233L1.75359 24.6332V20.3533L7.40806 18.4633C7.56153 18.4153 7.68811 18.2888 7.73608 18.1353C8.00788 17.2245 8.67469 16.1813 9.18874 15.23C9.26494 15.0864 9.26494 14.905 9.18874 14.7614L6.37713 9.59112L9.34494 6.6233L14.5152 9.43491C14.6588 9.51111 14.8402 9.51111 14.9838 9.43491C15.9352 8.92086 16.9784 8.25405 17.8891 7.98225C18.0426 7.93428 18.1692 7.8077 18.2171 7.65423L20.1072 1.99976ZM22.2471 11.4968C16.1798 11.4968 11.2506 16.426 11.2506 22.4933C11.2506 28.5605 16.1798 33.4898 22.2471 33.4898C28.3144 33.4898 33.2436 28.5605 33.2436 22.4933C33.2436 16.426 28.3144 11.4968 22.2471 11.4968ZM22.2471 12.4964C27.7741 12.4964 32.244 16.9663 32.244 22.4933C32.244 28.0203 27.7741 32.4901 22.2471 32.4901C16.7201 32.4901 12.2503 28.0203 12.2503 22.4933C12.2503 16.9663 16.7201 12.4964 22.2471 12.4964Z" fill="url(#cog_paint0_linear)"/>
<path d="M19.701 1.00008C19.5104 1.02081 19.3381 1.16122 19.2793 1.34372L17.358 7.12315C16.4115 7.45427 15.5246 8.00055 14.7495 8.43523L9.48552 5.56114C9.29892 5.45647 9.04514 5.48986 8.89196 5.63924L5.39307 9.13813C5.24369 9.29131 5.2103 9.54509 5.31497 9.7317L8.18906 14.9957C7.75438 15.7707 7.2081 16.6576 6.87697 17.6042L1.09755 19.5255C0.901199 19.5901 0.756493 19.7874 0.753906 19.9941V24.9925C0.756495 25.1992 0.901199 25.3965 1.09755 25.4611L6.87697 27.3824C7.2081 28.329 7.75438 29.2159 8.18906 29.9909L5.31497 35.2549C5.2103 35.4415 5.24369 35.6953 5.39307 35.8485L8.89196 39.3473C9.04514 39.4967 9.29892 39.5301 9.48552 39.4254L14.7495 36.5514C15.5246 36.986 16.4115 37.5323 17.358 37.8634L19.2793 43.6429C19.3439 43.8392 19.5412 43.9839 19.7479 43.9865H24.7463C24.953 43.9839 25.1503 43.8392 25.2149 43.6429L27.1362 37.8634C28.0828 37.5323 28.9697 36.986 29.7448 36.5514L35.0087 39.4254C35.1953 39.5301 35.4491 39.4967 35.6023 39.3473L39.1012 35.8485C39.2506 35.6953 39.2839 35.4415 39.1793 35.2549L36.3052 29.9909C36.7399 29.2159 37.2861 28.329 37.6173 27.3824L43.3967 25.4611C43.593 25.3965 43.7377 25.1992 43.7403 24.9925V19.9941C43.7377 19.7874 43.593 19.5901 43.3967 19.5255L37.6173 17.6042C37.2861 16.6576 36.7399 15.7707 36.3052 14.9957L39.1793 9.7317C39.2839 9.54509 39.2506 9.29131 39.1012 9.13813L35.6023 5.63924C35.4491 5.48986 35.1953 5.45647 35.0087 5.56114L29.7135 8.45085C28.9123 8.0272 28.0058 7.5941 27.105 7.29497L25.2306 1.34372C25.1644 1.14241 24.9582 0.996116 24.7463 1.00008C23.066 1.00008 21.378 1.00008 19.701 1.00008ZM20.1072 1.99976H24.3715L26.199 7.81043C26.2499 7.9674 26.3835 8.09491 26.5426 8.13845C27.5036 8.42524 28.6059 8.94616 29.5105 9.43491C29.6541 9.51111 29.8354 9.51111 29.9791 9.43491L35.1493 6.6233L38.1171 9.59112L35.3055 14.7614C35.2293 14.905 35.2293 15.0864 35.3055 15.23C35.8196 16.1813 36.4864 17.2245 36.7582 18.1353C36.8061 18.2888 36.9327 18.4153 37.0862 18.4633L42.7407 20.3533V24.6332L37.0862 26.5233C36.9327 26.5712 36.8061 26.6978 36.7582 26.8513C36.4864 27.7621 35.8196 28.8053 35.3055 29.7566C35.2293 29.9002 35.2293 30.0816 35.3055 30.2252L38.1171 35.3955L35.1493 38.3633L29.9791 35.5517C29.8354 35.4755 29.6541 35.4755 29.5105 35.5517C28.5591 36.0657 27.5159 36.7326 26.6051 37.0043C26.4516 37.0523 26.3251 37.1789 26.2771 37.3324L24.3871 42.9868H20.1072L18.2171 37.3324C18.1692 37.1789 18.0426 37.0523 17.8891 37.0043C16.9784 36.7326 15.9352 36.0657 14.9838 35.5517C14.8402 35.4755 14.6588 35.4755 14.5152 35.5517L9.34494 38.3633L6.37713 35.3955L9.18874 30.2252C9.26494 30.0816 9.26494 29.9002 9.18874 29.7566C8.67469 28.8053 8.00788 27.7621 7.73608 26.8513C7.68811 26.6978 7.56153 26.5712 7.40806 26.5233L1.75359 24.6332V20.3533L7.40806 18.4633C7.56153 18.4153 7.68811 18.2888 7.73608 18.1353C8.00788 17.2245 8.67469 16.1813 9.18874 15.23C9.26494 15.0864 9.26494 14.905 9.18874 14.7614L6.37713 9.59112L9.34494 6.6233L14.5152 9.43491C14.6588 9.51111 14.8402 9.51111 14.9838 9.43491C15.9352 8.92086 16.9784 8.25405 17.8891 7.98225C18.0426 7.93428 18.1692 7.8077 18.2171 7.65423L20.1072 1.99976ZM22.2471 11.4968C16.1798 11.4968 11.2506 16.426 11.2506 22.4933C11.2506 28.5605 16.1798 33.4898 22.2471 33.4898C28.3144 33.4898 33.2436 28.5605 33.2436 22.4933C33.2436 16.426 28.3144 11.4968 22.2471 11.4968ZM22.2471 12.4964C27.7741 12.4964 32.244 16.9663 32.244 22.4933C32.244 28.0203 27.7741 32.4901 22.2471 32.4901C16.7201 32.4901 12.2503 28.0203 12.2503 22.4933C12.2503 16.9663 16.7201 12.4964 22.2471 12.4964Z" stroke="url(#cog_paint1_linear)" stroke-width="0.7" mask="url(#path-1-outside-1)"/>
<defs>
<linearGradient id="cog_paint0_linear" x1="22.2471" y1="1" x2="22.2471" y2="43.9865" gradientUnits="userSpaceOnUse">
<stop stop-color="#BE9461"/>
<stop offset="1" stop-color="#9C6C3C"/>
</linearGradient>
<linearGradient id="cog_paint1_linear" x1="22.2471" y1="1" x2="22.2471" y2="43.9865" gradientUnits="userSpaceOnUse">
<stop stop-color="#BE9461"/>
<stop offset="1" stop-color="#9C6C3C"/>
</linearGradient>
</defs>
</svg>
