<svg id="Vectors" xmlns="http://www.w3.org/2000/svg" xmlns:xlink="http://www.w3.org/1999/xlink" viewBox="0 0 64 64"><defs><style>.cls-1{fill:url(#futures-linear-gradient);}.cls-2{fill:url(#futures-linear-gradient-2);}.cls-3{fill:url(#futures-linear-gradient-3);}.cls-4{fill:#c19765;}</style><linearGradient id="futures-linear-gradient" x1="10" y1="21" x2="64" y2="21" gradientUnits="userSpaceOnUse"><stop offset="0" stop-color="#323233"/><stop offset="1"/></linearGradient><linearGradient id="futures-linear-gradient-2" y1="43" x2="54" y2="43" gradientUnits="userSpaceOnUse"><stop offset="0"/><stop offset="1" stop-color="#323233"/></linearGradient><linearGradient id="futures-linear-gradient-3" x1="17.04" y1="58.3" x2="47.04" y2="5.56" gradientTransform="translate(43.71 -11.71) rotate(60)" gradientUnits="userSpaceOnUse"><stop offset="0" stop-color="#9a6b3a"/><stop offset="1" stop-color="#c19765"/></linearGradient></defs><path class="cls-1" d="M21,10H64a0,0,0,0,1,0,0V32a0,0,0,0,1,0,0H21A11,11,0,0,1,10,21v0A11,11,0,0,1,21,10Z"/><path class="cls-2" d="M0,32H43A11,11,0,0,1,54,43v0A11,11,0,0,1,43,54H0a0,0,0,0,1,0,0V32A0,0,0,0,1,0,32Z"/><rect class="cls-3" y="29" width="64" height="6" transform="translate(-11.71 43.71) rotate(-60)"/><path class="cls-4" d="M45.49,3.13l4.77,2.75-31.75,55-4.77-2.75,31.75-55m-.09-.34-32,55.42,5.2,3,32-55.42-5.2-3Z"/></svg>