<svg id="Vectors" xmlns="http://www.w3.org/2000/svg" xmlns:xlink="http://www.w3.org/1999/xlink" viewBox="0 0 64 64"><defs><style>.cls-1{fill:url(#infinite-liquidity_linear-gradient);}.cls-2{fill:url(#infinite-liquidity_linear-gradient-2);}.cls-3{fill:url(#infinite-liquidity_linear-gradient-3);}.cls-4{fill:url(#infinite-liquidity_linear-gradient-4);}</style><linearGradient id="infinite-liquidity_linear-gradient" x1="47.5" y1="37.93" x2="47.5" y2="0.67" gradientUnits="userSpaceOnUse"><stop offset="0" stop-color="#323233"/><stop offset="0.32" stop-color="#2f2f30"/><stop offset="0.57" stop-color="#252526"/><stop offset="0.8" stop-color="#151515"/><stop offset="1"/></linearGradient><linearGradient id="infinite-liquidity_linear-gradient-2" x1="51.5" y1="189.93" x2="51.5" y2="152.67" gradientTransform="translate(68 216) rotate(180)" xlink:href="#infinite-liquidity_linear-gradient"/><linearGradient id="infinite-liquidity_linear-gradient-3" x1="1" y1="32" x2="63" y2="32" gradientUnits="userSpaceOnUse"><stop offset="0.1" stop-color="#c19765"/><stop offset="0.5" stop-color="#9a6b3a"/><stop offset="0.9" stop-color="#c19765"/></linearGradient><linearGradient id="infinite-liquidity_linear-gradient-4" x1="1" y1="32" x2="63" y2="32" gradientUnits="userSpaceOnUse"><stop offset="0" stop-color="#c19765"/><stop offset="0.5" stop-color="#c19765"/><stop offset="1" stop-color="#c19765"/></linearGradient></defs><path class="cls-1" d="M34,0V32a13.5,13.5,0,0,0,27,0V0Z"/><path class="cls-2" d="M16.5,64A13.49,13.49,0,0,0,30,50.5V32A13.5,13.5,0,0,0,3,32V50.5A13.49,13.49,0,0,0,16.5,64Z"/><path class="cls-3" d="M16.25,47.25A15.27,15.27,0,0,1,1,32H7a9.26,9.26,0,0,0,9.25,9.25c5.72,0,11.43-7.75,13.15-10.74.32-.56,8-13.76,18.35-13.76A15.27,15.27,0,0,1,63,32H57a9.26,9.26,0,0,0-9.25-9.25C42,22.75,36.32,30.5,34.6,33.49,34.28,34.05,26.62,47.25,16.25,47.25Z"/><path class="cls-4" d="M47.75,17a15,15,0,0,1,15,14.75h-5.5a9.52,9.52,0,0,0-9.5-9.25c-5.84,0-11.63,7.84-13.36,10.87C34.07,33.92,26.47,47,16.25,47a15,15,0,0,1-15-14.75h5.5a9.52,9.52,0,0,0,9.5,9.25c5.84,0,11.63-7.84,13.36-10.87C29.93,30.08,37.53,17,47.75,17m0-.25c-10.37,0-18,13.2-18.35,13.76-1.72,3-7.43,10.74-13.15,10.74A9.26,9.26,0,0,1,7,32H1A15.27,15.27,0,0,0,16.25,47.25c10.37,0,18-13.2,18.35-13.76,1.72-3,7.43-10.74,13.15-10.74A9.26,9.26,0,0,1,57,32h6A15.27,15.27,0,0,0,47.75,16.75Z"/><path class="cls-4" d="M47.75,47.25c-10.37,0-18-13.2-18.35-13.76-1.72-3-7.43-10.74-13.15-10.74A9.26,9.26,0,0,0,7,32H1A15.27,15.27,0,0,1,16.25,16.75c10.37,0,18,13.2,18.35,13.76,1.72,3,7.43,10.74,13.15,10.74A9.26,9.26,0,0,0,57,32h6A15.27,15.27,0,0,1,47.75,47.25Z"/></svg>