<svg id="Vectors" xmlns="http://www.w3.org/2000/svg" xmlns:xlink="http://www.w3.org/1999/xlink" viewBox="0 0 64 64"><defs><style>.cls-1{fill:url(#slippage_linear-gradient);}.cls-2{fill:url(#slippage_linear-gradient-2);}.cls-3{fill:#c19765;}.cls-4{fill:url(#slippage_linear-gradient-3);}</style><linearGradient id="slippage_linear-gradient" x1="32" y1="62.63" x2="32" y2="36.24" gradientUnits="userSpaceOnUse"><stop offset="0"/><stop offset="0.2" stop-color="#151515"/><stop offset="0.43" stop-color="#252526"/><stop offset="0.68" stop-color="#2f2f30"/><stop offset="1" stop-color="#323233"/></linearGradient><linearGradient id="slippage_linear-gradient-2" x1="23.5" y1="178.5" x2="40.5" y2="161.5" gradientTransform="translate(64 184) rotate(180)" gradientUnits="userSpaceOnUse"><stop offset="0" stop-color="#c19765"/><stop offset="1" stop-color="#9a6b3a"/></linearGradient><linearGradient id="slippage_linear-gradient-3" x1="32" y1="31.14" x2="32" y2="7.97" gradientTransform="matrix(1, 0, 0, 1, 0, 0)" xlink:href="#slippage_linear-gradient-2"/></defs><polygon class="cls-1" points="47.12 46.88 32 31.76 16.88 46.88 21.12 51.12 29 43.24 29 64 35 64 35 43.24 42.88 51.12 47.12 46.88"/><rect class="cls-2" x="29" width="6" height="28"/><path class="cls-3" d="M34.75.25v27.5h-5.5V.25h5.5M35,0H29V28h6V0Z"/><polygon class="cls-4" points="32 32.24 16.88 17.12 21.12 12.88 32 23.76 42.88 12.88 47.12 17.12 32 32.24"/><path class="cls-3" d="M42.88,13.23l3.89,3.89L32,31.89,17.23,17.12l3.89-3.89,10.7,10.7.18.18.18-.18,10.7-10.7m0-.35L32,23.76,21.12,12.88l-4.24,4.24L32,32.24,47.12,17.12l-4.24-4.24Z"/></svg>