<svg width="50" height="36" viewBox="0 0 50 36" fill="none" xmlns="http://www.w3.org/2000/svg">
<path d="M24.4518 1.9586C23.8488 2.26927 23.4833 2.89061 23.4833 3.56678V9.04924H3.38095C2.37583 9.04924 1.55347 9.8716 1.55347 10.8767C1.55347 11.8818 2.37583 12.7042 3.38095 12.7042H25.3108C26.3159 12.7042 27.1382 11.8818 27.1382 10.8767V6.98418L43.9511 18.1867L27.1382 29.3891V25.4966C27.1382 24.4915 26.3159 23.6691 25.3108 23.6691H3.38095C2.37583 23.6691 1.55347 24.4915 1.55347 25.4966C1.55347 26.5017 2.37583 27.3241 3.38095 27.3241H23.4833V32.8065C23.4833 33.4827 23.8488 34.104 24.4518 34.4147C24.726 34.5609 25.0184 34.634 25.3108 34.634C25.658 34.634 26.0235 34.5244 26.3159 34.3233L48.2457 19.7035C48.7574 19.3745 49.0681 18.7897 49.0681 18.1867C49.0681 17.5836 48.7574 16.9988 48.2457 16.6698L26.3159 2.04997C25.7676 1.6662 25.0366 1.62965 24.4518 1.9586Z" fill="url(#infinite_liquidity_1)" stroke="#0D0D18" stroke-width="1.82748"/>
<defs>
<linearGradient id="infinite_liquidity_1" x1="25.3108" y1="1.73486" x2="25.3108" y2="34.634" gradientUnits="userSpaceOnUse">
<stop stop-color="#F2DE82"/>
<stop offset="1" stop-color="#D1A866"/>
</linearGradient>
</defs>
</svg>
