<svg width="57" height="36" viewBox="0 0 57 36" fill="none" xmlns="http://www.w3.org/2000/svg">
<path d="M31.4518 1.9586C30.8488 2.26927 30.4833 2.89061 30.4833 3.56678V9.04924H10.381C9.37583 9.04924 8.55347 9.8716 8.55347 10.8767C8.55347 11.8818 9.37583 12.7042 10.381 12.7042H32.3108C33.3159 12.7042 34.1382 11.8818 34.1382 10.8767V6.98418L50.9511 18.1867L34.1382 29.3891V25.4966C34.1382 24.4915 33.3159 23.6691 32.3108 23.6691H10.381C9.37583 23.6691 8.55347 24.4915 8.55347 25.4966C8.55347 26.5017 9.37583 27.3241 10.381 27.3241H30.4833V32.8065C30.4833 33.4827 30.8488 34.104 31.4518 34.4147C31.726 34.5609 32.0184 34.634 32.3108 34.634C32.658 34.634 33.0235 34.5244 33.3159 34.3233L55.2457 19.7035C55.7574 19.3745 56.0681 18.7897 56.0681 18.1867C56.0681 17.5836 55.7574 16.9988 55.2457 16.6698L33.3159 2.04997C32.7676 1.6662 32.0366 1.62965 31.4518 1.9586Z" fill="#5D46CE" stroke="#0D0D18" stroke-width="1.82748"/>
<path d="M32.3094 20.0141C33.3145 20.0141 34.1369 19.1917 34.1369 18.1866C34.1369 17.1815 33.3145 16.3591 32.3094 16.3591H3.06967C2.06456 16.3591 1.24219 17.1815 1.24219 18.1866C1.24219 19.1917 2.06456 20.0141 3.06967 20.0141H32.3094Z" fill="#340564" stroke="#0D0D18" stroke-width="1.82748"/>
</svg>