<svg width="55" height="44" viewBox="0 0 55 44" fill="none" xmlns="http://www.w3.org/2000/svg">
<path fill-rule="evenodd" clip-rule="evenodd" d="M26.6893 0.114217C27.013 -0.0380725 27.3876 -0.0380725 27.7112 0.114217L53.2112 12.1142C53.6318 12.3121 53.9003 12.7352 53.9003 13.2C53.9003 13.6648 53.6318 14.0879 53.2112 14.2858L27.7112 26.2858C27.3876 26.4381 27.013 26.4381 26.6893 26.2858L1.18933 14.2858C0.768742 14.0879 0.500289 13.6648 0.500289 13.2C0.500289 12.7352 0.768742 12.3121 1.18933 12.1142L26.6893 0.114217ZM4.51853 13.2L27.2003 23.8738L49.882 13.2L27.2003 2.52623L4.51853 13.2Z" fill="url(#layers_paint0_linear)"/>
<path d="M0.110738 21.6971C0.388465 21.0954 1.10142 20.8327 1.70316 21.1104L27.2003 32.8784L52.6974 21.1104C53.2992 20.8327 54.0121 21.0954 54.2898 21.6971C54.5676 22.2989 54.3049 23.0118 53.7032 23.2896L27.7032 35.2896C27.3841 35.4368 27.0165 35.4368 26.6974 35.2896L0.69742 23.2896C0.0956771 23.0118 -0.166989 22.2989 0.110738 21.6971Z" fill="url(#layers_paint1_linear)"/>
<path d="M1.70316 29.1104C1.10142 28.8327 0.388465 29.0954 0.110738 29.6971C-0.166989 30.2989 0.0956771 31.0118 0.69742 31.2896L26.6974 43.2896C27.0165 43.4368 27.3841 43.4368 27.7032 43.2896L53.7032 31.2896C54.3049 31.0118 54.5676 30.2989 54.2898 29.6971C54.0121 29.0954 53.2992 28.8327 52.6974 29.1104L27.2003 40.8784L1.70316 29.1104Z" fill="url(#layers_paint2_linear)"/>
<defs>
<linearGradient id="layers_paint0_linear" x1="27.2003" y1="0" x2="27.2003" y2="43.4" gradientUnits="userSpaceOnUse">
<stop stop-color="#BE9461"/>
<stop offset="1" stop-color="#9C6C3C"/>
</linearGradient>
<linearGradient id="layers_paint1_linear" x1="27.2003" y1="0" x2="27.2003" y2="43.4" gradientUnits="userSpaceOnUse">
<stop stop-color="#BE9461"/>
<stop offset="1" stop-color="#9C6C3C"/>
</linearGradient>
<linearGradient id="layers_paint2_linear" x1="27.2003" y1="0" x2="27.2003" y2="43.4" gradientUnits="userSpaceOnUse">
<stop stop-color="#BE9461"/>
<stop offset="1" stop-color="#9C6C3C"/>
</linearGradient>
</defs>
</svg>
