<svg width="56" height="45" viewBox="0 0 56 45" fill="none" xmlns="http://www.w3.org/2000/svg">
<path fill-rule="evenodd" clip-rule="evenodd" d="M27.4891 0.914266C27.8128 0.761976 28.1874 0.761976 28.5111 0.914266L54.0111 12.9143C54.4316 13.1122 54.7001 13.5352 54.7001 14C54.7001 14.4649 54.4316 14.8879 54.0111 15.0858L28.5111 27.0858C28.1874 27.2381 27.8128 27.2381 27.4891 27.0858L1.98914 15.0858C1.56855 14.8879 1.30009 14.4649 1.30009 14C1.30009 13.5352 1.56855 13.1122 1.98914 12.9143L27.4891 0.914266ZM5.31834 14L28.0001 24.6738L50.6819 14L28.0001 3.32628L5.31834 14Z" fill="#5D46CE"/>
<path d="M0.910543 22.4972C1.18827 21.8954 1.90122 21.6328 2.50296 21.9105L28.0001 33.6784L53.4972 21.9105C54.099 21.6328 54.8119 21.8954 55.0896 22.4972C55.3674 23.0989 55.1047 23.8119 54.503 24.0896L28.503 36.0896C28.1839 36.2369 27.8163 36.2369 27.4972 36.0896L1.49722 24.0896C0.895482 23.8119 0.632815 23.0989 0.910543 22.4972Z" fill="#5D46CE"/>
<path d="M2.50296 29.9105C1.90122 29.6328 1.18827 29.8954 0.910543 30.4972C0.632815 31.0989 0.895482 31.8119 1.49722 32.0896L27.4972 44.0896C27.8163 44.2369 28.1839 44.2369 28.503 44.0896L54.503 32.0896C55.1047 31.8119 55.3674 31.0989 55.0896 30.4972C54.8119 29.8954 54.099 29.6328 53.4972 29.9105L28.0001 41.6784L2.50296 29.9105Z" fill="#5D46CE"/>
</svg>
