<svg width="62" height="50" viewBox="0 0 62 50" fill="none" xmlns="http://www.w3.org/2000/svg">
<path d="M59.9629 33.6081L59.9628 33.6082L31.063 47.0427L30.9998 47.0721L30.9365 47.0427L2.03766 33.6075L59.9629 33.6081ZM59.9629 33.6081C60.6303 33.2968 61.4158 33.5849 61.7255 34.2452L59.9629 33.6081ZM30.4393 49.7257L30.4399 49.726C30.6163 49.809 30.8078 49.85 30.9998 49.85C31.1917 49.85 31.3834 49.809 31.5609 49.7265L61.0841 36.0017C61.7477 35.6917 62.0348 34.9073 61.7255 34.2454L30.4393 49.7257ZM30.4393 49.7257L0.916 36.0009C0.251326 35.691 -0.0345834 34.9068 0.274645 34.2448M30.4393 49.7257L0.274645 34.2448M30.4385 30.1178C30.6164 30.2004 30.8081 30.2421 30.9998 30.2421C31.1917 30.2421 31.3834 30.201 31.5609 30.1185C31.5609 30.1185 31.561 30.1185 31.561 30.1185L61.0842 16.3923L30.4385 30.1178ZM30.4385 30.1178L0.915181 16.3922C0.915157 16.3922 0.915133 16.3922 0.915108 16.3922C0.44812 16.1747 0.15012 15.7085 0.15012 15.1958C0.15012 14.6832 0.448137 14.2168 0.915339 13.9987L30.4384 0.273944C30.7948 0.108685 31.2047 0.108685 31.5611 0.273944L61.0842 13.9987C61.0842 13.9987 61.0843 13.9987 61.0843 13.9987C61.5498 14.2161 61.8479 14.6824 61.8479 15.1958C61.8479 15.7092 61.5499 16.1747 61.0844 16.3922L30.4385 30.1178ZM0.274645 34.2448C0.584671 33.5848 1.37372 33.3001 2.03748 33.6075L0.274645 34.2448ZM4.90347 15.0598L4.61088 15.1958L4.90347 15.3319L30.9365 27.4347L30.9998 27.4641L31.063 27.4347L57.096 15.3319L57.3886 15.1958L57.096 15.0598L31.063 2.95771L30.9998 2.92831L30.9365 2.95771L4.90347 15.0598ZM30.9365 37.2383L30.9998 37.2677L31.063 37.2383L59.9627 23.8039C59.9627 23.8039 59.9627 23.8039 59.9628 23.8039C60.6304 23.4938 61.416 23.7815 61.7255 24.4418C62.0348 25.1038 61.7475 25.8887 61.0844 26.1972C61.0844 26.1972 61.0844 26.1973 61.0844 26.1973L31.5609 39.9221C31.383 40.0048 31.192 40.0464 31.0005 40.0464C30.8089 40.0464 30.6172 40.0048 30.4393 39.9221L0.915843 26.1972L0.915778 26.1972C0.251359 25.8887 -0.0346921 25.1031 0.274747 24.4417C0.584925 23.7817 1.37405 23.4965 2.03766 23.8039L30.9365 37.2383Z" fill="#5D46CE" stroke="#5D46CE" stroke-width="0.3"/>
</svg>
