<svg width="17" height="14" viewBox="0 0 17 14" fill="none" xmlns="http://www.w3.org/2000/svg">
<path d="M2.31135 2.73936C2.33123 2.53173 2.25633 2.3265 2.10967 2.18676L0.615744 0.284196V0H5.2544L8.83983 8.31282L11.9921 0H16.4141V0.284196L15.1368 1.57889C15.0267 1.66762 14.972 1.81347 14.9949 1.95782V11.4705C14.972 11.6149 15.0267 11.7607 15.1368 11.8495L16.3842 13.1441V13.4283H10.1097V13.1441L11.402 11.8179C11.5289 11.6837 11.5289 11.6442 11.5289 11.439V3.74985L7.936 13.3968H7.45047L3.26747 3.74985V10.2153C3.23259 10.4872 3.31799 10.7608 3.49903 10.9574L5.1797 13.1126V13.3968H0.414062V13.1126L2.09473 10.9574C2.27445 10.7605 2.35487 10.485 2.31135 10.2153V2.73936Z" fill="currentColor"/>
</svg>
