<svg width="202" height="20" viewBox="0 0 202 20" fill="none" xmlns="http://www.w3.org/2000/svg">
<rect x="150.5" y="1.5" width="51" height="17" rx="8.5" stroke="url(#paint0_linear)"/>
<path d="M164.8 11.2433L165.438 12.8823H166.417L163.986 6.75532H162.798L160.378 12.8823H161.335L161.951 11.2433H164.8ZM162.248 10.4513L163.37 7.50332L164.503 10.4513H162.248ZM168.563 6.75532H167.628V12.8823H171.753V12.0793H168.563V6.75532ZM175.595 6.75532H173.021V12.8823H173.956V10.4293H175.595C176.97 10.4293 177.784 9.73632 177.784 8.59232C177.784 7.44832 176.97 6.75532 175.595 6.75532ZM175.54 9.65932H173.956V7.52532H175.54C176.398 7.52532 176.827 7.87732 176.827 8.59232C176.827 9.30732 176.398 9.65932 175.54 9.65932ZM180.154 6.75532H179.219V12.8823H180.154V10.0993H183.245V12.8823H184.18V6.75532H183.245V9.27432H180.154V6.75532ZM189.754 11.2433L190.392 12.8823H191.371L188.94 6.75532H187.752L185.332 12.8823H186.289L186.905 11.2433H189.754ZM187.202 10.4513L188.324 7.50332L189.457 10.4513H187.202Z" fill="white"/>
<path d="M6.96815 19.2357C4.92072 19.2357 3.2432 18.737 1.9356 17.7396C0.645199 16.7244 0 15.2817 0 13.4116C0 13.0197 0.0430132 12.5389 0.12904 11.969C0.352709 10.6866 0.671007 9.14589 1.08393 7.34699C2.2539 2.449 5.27343 0 10.1425 0C11.4673 0 12.6545 0.231542 13.704 0.694625C14.7536 1.1399 15.5794 1.81671 16.1816 2.72507C16.7837 3.61561 17.0849 4.68427 17.0849 5.93102C17.0849 6.30506 17.0419 6.77704 16.9559 7.34699C16.6977 8.93216 16.3881 10.4728 16.0268 11.969C15.4245 14.409 14.3836 16.2347 12.904 17.4457C11.4243 18.639 9.44573 19.2357 6.96815 19.2357ZM7.32947 15.3886C8.29296 15.3886 9.11021 15.0948 9.78126 14.507C10.4694 13.9192 10.9598 13.0197 11.2522 11.8086C11.648 10.1344 11.9491 8.67389 12.1556 7.42713C12.2244 7.05311 12.2588 6.67017 12.2588 6.27833C12.2588 4.65754 11.4415 3.84715 9.80702 3.84715C8.84353 3.84715 8.01767 4.14103 7.32947 4.72879C6.65845 5.31655 6.17671 6.216 5.88422 7.42713C5.57452 8.62047 5.26483 10.081 4.95513 11.8086C4.8863 12.1649 4.8519 12.5389 4.8519 12.9307C4.8519 14.5693 5.67775 15.3886 7.32947 15.3886Z" fill="#FF0420"/>
<path d="M19.7038 18.9687C19.5145 18.9687 19.3683 18.9065 19.2651 18.7818C19.179 18.6392 19.1532 18.4789 19.1876 18.3008L22.7491 0.935243C22.7835 0.739323 22.8782 0.579025 23.033 0.454349C23.1878 0.329673 23.3513 0.267334 23.5234 0.267334H30.3882C32.298 0.267334 33.8293 0.676984 34.982 1.49629C36.152 2.31559 36.737 3.50001 36.737 5.04955C36.737 5.49483 36.6854 5.95791 36.5822 6.43881C36.152 8.48706 35.2832 10.0009 33.9756 10.9806C32.6852 11.9602 30.913 12.45 28.6591 12.45H25.175L23.9879 18.3008C23.9535 18.4967 23.8588 18.657 23.704 18.7818C23.5491 18.9065 23.3857 18.9687 23.2136 18.9687H19.7038ZM28.8398 8.76312C29.5624 8.76312 30.1904 8.55829 30.7237 8.14865C31.2744 7.739 31.6356 7.15124 31.8077 6.38537C31.8593 6.08259 31.8851 5.81543 31.8851 5.58389C31.8851 5.06737 31.7389 4.67552 31.4464 4.40836C31.1539 4.12339 30.6549 3.9809 29.9496 3.9809H26.8526L25.8718 8.76312H28.8398Z" fill="#FF0420"/>
<path d="M42.552 18.9687C42.3627 18.9687 42.2165 18.9065 42.1132 18.7818C42.01 18.6392 41.9756 18.4789 42.01 18.3008L44.8747 4.4618H40.2809C40.0916 4.4618 39.9454 4.39946 39.8421 4.27478C39.7561 4.13229 39.7303 3.972 39.7648 3.79389L40.3583 0.935243C40.3927 0.739323 40.4873 0.579025 40.6422 0.454349C40.797 0.329673 40.9605 0.267334 41.1325 0.267334H55.0173C55.2065 0.267334 55.3527 0.329673 55.456 0.454349C55.5248 0.561214 55.5592 0.668079 55.5592 0.774945C55.5592 0.828377 55.5506 0.88181 55.5334 0.935243L54.9398 3.79389C54.9054 3.98981 54.8108 4.1501 54.6559 4.27478C54.5183 4.39946 54.3549 4.4618 54.1656 4.4618H49.5975L46.7328 18.3008C46.6984 18.4967 46.6039 18.657 46.449 18.7818C46.2941 18.9065 46.1307 18.9687 45.9587 18.9687H42.552Z" fill="#FF0420"/>
<path d="M56.217 18.9687C56.0277 18.9687 55.8815 18.9065 55.7783 18.7818C55.675 18.6392 55.6406 18.4789 55.675 18.3008L59.2624 0.935243C59.2968 0.739323 59.3914 0.579025 59.5463 0.454349C59.7011 0.329673 59.8645 0.267334 60.0366 0.267334H63.5207C63.7099 0.267334 63.8562 0.329673 63.9594 0.454349C64.0283 0.561214 64.0627 0.668079 64.0627 0.774945C64.0627 0.828377 64.054 0.88181 64.0368 0.935243L60.4753 18.3008C60.4409 18.4967 60.3463 18.657 60.1915 18.7818C60.0366 18.9065 59.8732 18.9687 59.7011 18.9687H56.217Z" fill="#FF0420"/>
<path d="M66.0441 18.9687C65.8549 18.9687 65.7086 18.9065 65.6054 18.7818C65.5022 18.657 65.4678 18.4967 65.5022 18.3008L69.0637 0.935243C69.0981 0.739323 69.1927 0.579025 69.3475 0.454349C69.5024 0.329673 69.6745 0.267334 69.8637 0.267334H72.6509C73.0639 0.267334 73.3305 0.463254 73.451 0.855094L76.2641 9.27073L82.5354 0.855094C82.6214 0.712606 82.7419 0.579025 82.8967 0.454349C83.0687 0.329673 83.2752 0.267334 83.5161 0.267334H86.3292C86.5185 0.267334 86.6647 0.329673 86.7679 0.454349C86.8367 0.561214 86.8712 0.668079 86.8712 0.774945C86.8712 0.828377 86.8626 0.88181 86.8453 0.935243L83.2838 18.3008C83.2494 18.4967 83.1548 18.657 82.9999 18.7818C82.8451 18.9065 82.6817 18.9687 82.5096 18.9687H79.3868C79.1976 18.9687 79.0514 18.9065 78.9481 18.7818C78.862 18.6392 78.8363 18.4789 78.8707 18.3008L80.8837 8.44253L76.9351 13.866C76.7631 14.0619 76.5996 14.2132 76.4447 14.3201C76.2899 14.427 76.1092 14.4805 75.9028 14.4805H74.5608C74.1995 14.4805 73.95 14.2756 73.8123 13.866L71.98 8.20209L69.9153 18.3008C69.8809 18.4967 69.7862 18.657 69.6314 18.7818C69.4766 18.9065 69.3131 18.9687 69.141 18.9687H66.0441Z" fill="#FF0420"/>
<path d="M88.8244 18.9687C88.6351 18.9687 88.4889 18.9065 88.3857 18.7818C88.2824 18.6392 88.248 18.4789 88.2824 18.3008L91.8697 0.935243C91.9041 0.739323 91.9988 0.579025 92.1535 0.454349C92.3081 0.329673 92.4718 0.267334 92.6439 0.267334H96.1279C96.3174 0.267334 96.4637 0.329673 96.5668 0.454349C96.6358 0.561214 96.6698 0.668079 96.6698 0.774945C96.6698 0.828377 96.6615 0.88181 96.644 0.935243L93.0827 18.3008C93.0487 18.4967 92.9539 18.657 92.7984 18.7818C92.6439 18.9065 92.4801 18.9687 92.3081 18.9687H88.8244Z" fill="#FF0420"/>
<path d="M105.026 19.2357C103.512 19.2357 102.213 19.022 101.129 18.5946C100.062 18.1671 99.2529 17.5971 98.7027 16.8848C98.1691 16.1723 97.9023 15.3797 97.9023 14.507C97.9023 14.3645 97.9198 14.1508 97.9539 13.8658C97.9888 13.7054 98.0578 13.5719 98.1609 13.465C98.2814 13.3582 98.4185 13.3048 98.5739 13.3048H101.877C102.084 13.3048 102.238 13.3404 102.341 13.4116C102.462 13.4829 102.582 13.6075 102.703 13.7856C102.823 14.2487 103.099 14.6316 103.529 14.9344C103.976 15.2372 104.587 15.3886 105.361 15.3886C106.342 15.3886 107.134 15.2283 107.735 14.9077C108.338 14.5871 108.699 14.1508 108.819 13.5986C108.837 13.5273 108.845 13.4205 108.845 13.278C108.845 12.8328 108.579 12.4854 108.045 12.2361C107.512 11.969 106.531 11.6572 105.103 11.301C103.434 10.927 102.169 10.3659 101.309 9.6179C100.449 8.85201 100.019 7.8546 100.019 6.62565C100.019 6.19819 100.071 5.76182 100.174 5.31655C100.518 3.66013 101.37 2.35994 102.729 1.41596C104.105 0.471989 105.877 0 108.045 0C109.353 0 110.515 0.240447 111.529 0.721341C112.544 1.20224 113.327 1.81671 113.878 2.56477C114.446 3.29501 114.729 4.02526 114.729 4.7555C114.729 4.96924 114.721 5.12063 114.703 5.20969C114.669 5.36998 114.592 5.50356 114.472 5.61043C114.369 5.7173 114.239 5.77072 114.084 5.77072H110.626C110.248 5.77072 109.989 5.61933 109.852 5.31655C109.835 4.90689 109.628 4.55959 109.232 4.27461C108.837 3.98964 108.32 3.84715 107.684 3.84715C106.927 3.84715 106.299 3.98964 105.8 4.27461C105.318 4.55959 105.017 4.97814 104.897 5.53028C104.88 5.61933 104.87 5.7351 104.87 5.87759C104.87 6.30505 105.111 6.66127 105.594 6.94625C106.092 7.21341 106.962 7.48948 108.2 7.77445C110.127 8.16629 111.529 8.72733 112.407 9.45758C113.301 10.1878 113.748 11.1585 113.748 12.3696C113.748 12.7793 113.697 13.2246 113.594 13.7054C113.216 15.5222 112.295 16.9026 110.832 17.8465C109.388 18.7727 107.452 19.2357 105.026 19.2357Z" fill="#FF0420"/>
<path d="M117.173 18.9687C116.984 18.9687 116.837 18.9065 116.734 18.7818C116.631 18.657 116.596 18.4967 116.631 18.3008L120.193 0.935243C120.227 0.739323 120.321 0.579025 120.477 0.454349C120.631 0.329673 120.804 0.267334 120.993 0.267334H123.78C124.193 0.267334 124.46 0.463254 124.58 0.855094L127.393 9.27073L133.664 0.855094C133.751 0.712606 133.871 0.579025 134.026 0.454349C134.198 0.329673 134.404 0.267334 134.645 0.267334H137.458C137.648 0.267334 137.794 0.329673 137.897 0.454349C137.966 0.561214 138 0.668079 138 0.774945C138 0.828377 137.992 0.88181 137.974 0.935243L134.413 18.3008C134.378 18.4967 134.283 18.657 134.129 18.7818C133.974 18.9065 133.81 18.9687 133.638 18.9687H130.516C130.326 18.9687 130.18 18.9065 130.077 18.7818C129.991 18.6392 129.965 18.4789 130 18.3008L132.013 8.44253L128.064 13.866C127.892 14.0619 127.728 14.2132 127.574 14.3201C127.419 14.427 127.238 14.4805 127.032 14.4805H125.69C125.328 14.4805 125.079 14.2756 124.942 13.866L123.109 8.20209L121.045 18.3008C121.01 18.4967 120.915 18.657 120.76 18.7818C120.606 18.9065 120.442 18.9687 120.27 18.9687H117.173Z" fill="#FF0420"/>
<defs>
<linearGradient id="paint0_linear" x1="176" y1="1" x2="176" y2="19" gradientUnits="userSpaceOnUse">
<stop stop-color="#BE9461"/>
<stop offset="1" stop-color="#9C6C3C"/>
</linearGradient>
</defs>
</svg>
