<svg width="160" height="110" viewBox="0 0 160 110" fill="none" xmlns="http://www.w3.org/2000/svg">
<path d="M36.75 109.1C31.35 109.1 26.75 108.3 22.95 106.7C19.15 105 15.9 102.85 13.2 100.25C10.4 97.55 8.15 94.65 6.45 91.55C4.75 88.35 3.45 84.9 2.55 81.2C1.65 77.4 1.05 73.35 0.750001 69.05C0.450001 64.65 0.3 59.95 0.3 54.95C0.3 49.95 0.450001 45.3 0.750001 41C1.05 36.6 1.65 32.55 2.55 28.85C3.45 25.05 4.75 21.6 6.45 18.5C8.15 15.3 10.4 12.35 13.2 9.64999C15.9 7.05 19.15 4.95 22.95 3.34999C26.75 1.75 31.35 0.949997 36.75 0.949997C42.15 0.949997 46.75 1.75 50.55 3.34999C54.35 4.95 57.6 7.05 60.3 9.64999C63.1 12.35 65.35 15.3 67.05 18.5C68.75 21.6 70.05 25.05 70.95 28.85C71.85 32.55 72.45 36.6 72.75 41C73.05 45.3 73.2 49.95 73.2 54.95C73.2 59.95 73.05 64.65 72.75 69.05C72.45 73.35 71.85 77.4 70.95 81.2C70.05 84.9 68.75 88.35 67.05 91.55C65.35 94.65 63.1 97.55 60.3 100.25C57.6 102.85 54.35 105 50.55 106.7C46.75 108.3 42.15 109.1 36.75 109.1ZM36.75 97.4C39.65 97.4 42.3 96.95 44.7 96.05C47.2 95.15 49.25 94 50.85 92.6C52.75 90.9 54.25 89 55.35 86.9C56.55 84.8 57.45 82.3 58.05 79.4C58.75 76.4 59.2 72.95 59.4 69.05C59.7 65.05 59.85 60.35 59.85 54.95C59.85 51.05 59.8 47.3 59.7 43.7C59.6 40 59.25 36.55 58.65 33.35C58.05 30.05 57.15 27.1 55.95 24.5C54.75 21.8 53.05 19.45 50.85 17.45C49.25 16.05 47.2 14.9 44.7 14C42.3 13.1 39.65 12.65 36.75 12.65C33.85 12.65 31.15 13.1 28.65 14C26.25 14.9 24.25 16.05 22.65 17.45C20.45 19.45 18.75 21.8 17.55 24.5C16.35 27.1 15.45 30.05 14.85 33.35C14.25 36.55 13.9 40 13.8 43.7C13.7 47.3 13.65 51.05 13.65 54.95C13.65 60.55 13.75 65.35 13.95 69.35C14.25 73.25 14.7 76.65 15.3 79.55C16 82.45 16.95 84.95 18.15 87.05C19.35 89.05 20.85 90.9 22.65 92.6C24.25 94 26.25 95.15 28.65 96.05C31.15 96.95 33.85 97.4 36.75 97.4ZM124.553 109.1C119.753 109.1 115.303 108.35 111.203 106.85C107.103 105.35 103.503 103.25 100.403 100.55C97.4027 97.75 95.0027 94.4 93.2027 90.5C91.4027 86.5 90.4027 82.05 90.2027 77.15H103.253C103.653 83.05 105.653 87.95 109.253 91.85C112.853 95.65 117.953 97.55 124.553 97.55C130.853 97.55 136.003 95.85 140.003 92.45C144.103 89.05 146.153 84.35 146.153 78.35C146.153 75.15 145.553 72.35 144.353 69.95C143.153 67.55 141.503 65.55 139.403 63.95C137.303 62.25 134.803 61 131.903 60.2C129.103 59.4 126.053 59 122.753 59H115.403V47.15H122.753C129.053 47.15 134.103 45.65 137.903 42.65C141.803 39.55 143.753 35.25 143.753 29.75C143.753 24.85 142.003 20.75 138.503 17.45C135.103 14.15 130.503 12.5 124.703 12.5C118.303 12.5 113.303 14.25 109.703 17.75C106.103 21.15 104.203 25.7 104.003 31.4H90.9527C91.3527 22 94.6027 14.6 100.703 9.2C106.803 3.7 114.903 0.949997 125.003 0.949997C129.303 0.949997 133.353 1.6 137.153 2.9C141.053 4.1 144.453 5.89999 147.353 8.29999C150.253 10.7 152.553 13.7 154.253 17.3C155.953 20.9 156.803 25.05 156.803 29.75C156.803 32.45 156.353 35.05 155.453 37.55C154.653 39.95 153.453 42.2 151.853 44.3C150.353 46.4 148.503 48.25 146.303 49.85C144.103 51.35 141.703 52.45 139.103 53.15C145.803 54.85 150.803 58.1 154.103 62.9C157.403 67.6 159.053 72.75 159.053 78.35C159.053 83.05 158.153 87.3 156.353 91.1C154.653 94.8 152.253 98 149.153 100.7C146.153 103.4 142.503 105.5 138.203 107C134.003 108.4 129.453 109.1 124.553 109.1Z" fill="url(#step-three_paint0_linear)"/>
<defs>
<linearGradient id="step-three_paint0_linear" x1="79.5" y1="-22" x2="79.5" y2="128" gradientUnits="userSpaceOnUse">
<stop stop-color="#BE9461"/>
<stop offset="1" stop-color="#9C6C3C"/>
</linearGradient>
</defs>
</svg>
