<svg width="159" height="112" viewBox="0 0 159 112" fill="none" xmlns="http://www.w3.org/2000/svg">
<path opacity="0.3" d="M23.95 107.7L23.5416 108.613L23.5517 108.617L23.5619 108.622L23.95 107.7ZM14.2 101.25L13.5059 101.97L13.5064 101.97L14.2 101.25ZM7.45 92.55L6.56681 93.0192L6.57319 93.0308L7.45 92.55ZM3.55 82.2L2.5769 82.4305L2.57833 82.4364L3.55 82.2ZM1.75 70.05L0.752316 70.118L0.752425 70.1196L1.75 70.05ZM1.75 42L2.74758 42.0696L2.74768 42.068L1.75 42ZM3.55 29.85L4.52169 30.0864L4.52308 30.0805L3.55 29.85ZM7.45 19.5L8.32689 19.9809L8.33312 19.9692L7.45 19.5ZM14.2 10.65L13.5064 9.92967L13.5059 9.93015L14.2 10.65ZM23.95 4.34999L23.5619 3.42836L23.95 4.34999ZM51.55 4.34999L51.9381 3.42836H51.9381L51.55 4.34999ZM61.3 10.65L61.9941 9.93015L61.9936 9.92967L61.3 10.65ZM68.05 19.5L67.1668 19.9692L67.1732 19.9808L68.05 19.5ZM71.95 29.85L70.9769 30.0805L70.9783 30.0863L71.95 29.85ZM73.75 42L72.7523 42.068L72.7524 42.0696L73.75 42ZM73.75 70.05L74.7476 70.1196L74.7477 70.118L73.75 70.05ZM71.95 82.2L72.9217 82.4364L72.9231 82.4305L71.95 82.2ZM68.05 92.55L68.9269 93.0309L68.9331 93.0192L68.05 92.55ZM61.3 101.25L61.9936 101.97L61.9941 101.97L61.3 101.25ZM51.55 107.7L51.9381 108.622L51.9483 108.617L51.9584 108.613L51.55 107.7ZM45.7 97.05L45.3613 96.109L45.3489 96.1137L45.7 97.05ZM51.85 93.6L52.5085 94.3526L52.5168 94.3452L51.85 93.6ZM56.35 87.9L55.4818 87.4039L55.4727 87.4198L55.4642 87.436L56.35 87.9ZM59.05 80.4L58.0762 80.1728L58.0733 80.185L58.0707 80.1974L59.05 80.4ZM60.4 70.05L59.4028 69.9752L59.4019 69.987L59.4013 69.9988L60.4 70.05ZM60.7 44.7L59.7004 44.727L59.7004 44.7278L60.7 44.7ZM59.65 34.35L58.6661 34.5289L58.6671 34.5343L59.65 34.35ZM56.95 25.5L56.0362 25.9061L56.0391 25.9126L56.042 25.9191L56.95 25.5ZM51.85 18.45L52.5227 17.7101L52.5157 17.7037L52.5085 17.6974L51.85 18.45ZM45.7 15L45.3488 15.9364L45.3613 15.9409L45.7 15ZM29.65 15L29.3113 14.059L29.2989 14.0637L29.65 15ZM23.65 18.45L22.9915 17.6974L22.9844 17.7037L22.9773 17.7101L23.65 18.45ZM18.55 25.5L19.458 25.9191L19.4609 25.9126L19.4638 25.9061L18.55 25.5ZM15.85 34.35L16.8329 34.5343L16.8339 34.5289L15.85 34.35ZM14.8 44.7L15.7996 44.7278L15.7996 44.727L14.8 44.7ZM14.95 70.35L13.9513 70.3999L13.9519 70.4133L13.9529 70.4267L14.95 70.35ZM16.3 80.55L15.3207 80.7526L15.3241 80.7687L15.3279 80.7846L16.3 80.55ZM19.15 88.05L18.2818 88.5461L18.287 88.5554L18.2925 88.5645L19.15 88.05ZM23.65 93.6L22.9634 94.327L22.9772 94.3401L22.9915 94.3526L23.65 93.6ZM29.65 97.05L29.2988 97.9864L29.3113 97.9909L29.65 97.05ZM37.75 109.1C32.444 109.1 27.9836 108.313 24.3381 106.778L23.5619 108.622C27.5164 110.287 32.256 111.1 37.75 111.1V109.1ZM24.3584 106.787C20.6523 105.129 17.5017 103.041 14.8936 100.53L13.5064 101.97C16.2983 104.659 19.6477 106.871 23.5416 108.613L24.3584 106.787ZM14.8941 100.53C12.1595 97.8932 9.97373 95.0724 8.32681 92.0692L6.57319 93.0308C8.32627 96.2276 10.6405 99.2068 13.5059 101.97L14.8941 100.53ZM8.33312 92.0808C6.67416 88.9581 5.40297 85.5868 4.52167 81.9636L2.57833 82.4364C3.49703 86.2132 4.82584 89.7419 6.56689 93.0192L8.33312 92.0808ZM4.52308 81.9695C3.63681 78.2275 3.04418 74.2317 2.74758 69.9804L0.752425 70.1196C1.05582 74.4683 1.66319 78.5725 2.57692 82.4305L4.52308 81.9695ZM2.74768 69.982C2.44942 65.6074 2.3 60.9302 2.3 55.95H0.3C0.3 60.9698 0.450585 65.6926 0.752317 70.118L2.74768 69.982ZM2.3 55.95C2.3 50.9696 2.44942 46.3431 2.74758 42.0696L0.752425 41.9304C0.450579 46.2569 0.3 50.9303 0.3 55.95H2.3ZM2.74768 42.068C3.04441 37.7161 3.63702 33.7232 4.52167 30.0863L2.57833 29.6136C1.66298 33.3768 1.05559 37.4839 0.752317 41.932L2.74768 42.068ZM4.52308 30.0805C5.40452 26.3588 6.67424 22.9943 8.32681 19.9808L6.57319 19.0192C4.82576 22.2057 3.49548 25.7412 2.57692 29.6195L4.52308 30.0805ZM8.33312 19.9692C9.98021 16.8687 12.1644 14.0021 14.8941 11.3698L13.5059 9.93015C10.6356 12.6979 8.31979 15.7313 6.56688 19.0308L8.33312 19.9692ZM14.8936 11.3703C17.4966 8.86378 20.6401 6.82867 24.3381 5.27163L23.5619 3.42836C19.6599 5.07133 16.3034 7.23621 13.5064 9.92967L14.8936 11.3703ZM24.3381 5.27163C27.9836 3.73668 32.444 2.95 37.75 2.95V0.949997C32.256 0.949997 27.5164 1.76331 23.5619 3.42836L24.3381 5.27163ZM37.75 2.95C43.056 2.95 47.5164 3.73668 51.1619 5.27163L51.9381 3.42836C47.9836 1.76331 43.244 0.949997 37.75 0.949997V2.95ZM51.1619 5.27163C54.8599 6.82867 58.0034 8.86378 60.6064 11.3703L61.9936 9.92967C59.1966 7.23621 55.8401 5.07133 51.9381 3.42836L51.1619 5.27163ZM60.6059 11.3698C63.3356 14.0021 65.5198 16.8687 67.1669 19.9692L68.9331 19.0308C67.1802 15.7313 64.8644 12.6979 61.9941 9.93015L60.6059 11.3698ZM67.1732 19.9808C68.8258 22.9943 70.0955 26.3588 70.9769 30.0805L72.9231 29.6195C72.0045 25.7412 70.6742 22.2057 68.9268 19.0192L67.1732 19.9808ZM70.9783 30.0863C71.863 33.7232 72.4556 37.7161 72.7523 42.068L74.7477 41.932C74.4444 37.4839 73.837 33.3768 72.9217 29.6136L70.9783 30.0863ZM72.7524 42.0696C73.0506 46.3431 73.2 50.9696 73.2 55.95H75.2C75.2 50.9303 75.0494 46.2569 74.7476 41.9304L72.7524 42.0696ZM73.2 55.95C73.2 60.9302 73.0506 65.6074 72.7523 69.982L74.7477 70.118C75.0494 65.6926 75.2 60.9698 75.2 55.95H73.2ZM72.7524 69.9804C72.4558 74.2317 71.8632 78.2275 70.9769 81.9695L72.9231 82.4305C73.8368 78.5725 74.4442 74.4683 74.7476 70.1196L72.7524 69.9804ZM70.9783 81.9636C70.097 85.5868 68.8259 88.9581 67.1669 92.0808L68.9331 93.0192C70.6742 89.7419 72.003 86.2132 72.9217 82.4364L70.9783 81.9636ZM67.1732 92.0692C65.5263 95.0724 63.3405 97.8932 60.6059 100.53L61.9941 101.97C64.8595 99.2068 67.1737 96.2276 68.9268 93.0308L67.1732 92.0692ZM60.6064 100.53C57.9983 103.041 54.8477 105.129 51.1416 106.787L51.9584 108.613C55.8523 106.871 59.2017 104.659 61.9936 101.97L60.6064 100.53ZM51.1619 106.778C47.5164 108.313 43.056 109.1 37.75 109.1V111.1C43.244 111.1 47.9836 110.287 51.9381 108.622L51.1619 106.778ZM37.75 99.4C40.7543 99.4 43.5251 98.9336 46.0511 97.9863L45.3489 96.1137C43.0749 96.9664 40.5457 97.4 37.75 97.4V99.4ZM46.0387 97.9909C48.6279 97.0588 50.7944 95.8524 52.5085 94.3526L51.1915 92.8474C49.7056 94.1476 47.7721 95.2412 45.3613 96.1091L46.0387 97.9909ZM52.5168 94.3452C54.4993 92.5714 56.0762 90.5779 57.2358 88.364L55.4642 87.436C54.4238 89.4221 53.0007 91.2286 51.1832 92.8548L52.5168 94.3452ZM57.2182 88.3961C58.4807 86.1869 59.4125 83.5834 60.0293 80.6026L58.0707 80.1974C57.4875 83.0166 56.6193 85.4131 55.4818 87.4039L57.2182 88.3961ZM60.0238 80.6272C60.7403 77.5565 61.1964 74.0456 61.3987 70.1012L59.4013 69.9988C59.2036 73.8544 58.7597 77.2435 58.0762 80.1728L60.0238 80.6272ZM61.3972 70.1248C61.6996 66.0931 61.85 61.367 61.85 55.95H59.85C59.85 61.333 59.7004 66.0069 59.4028 69.9752L61.3972 70.1248ZM61.85 55.95C61.85 52.0415 61.7999 48.2822 61.6996 44.6722L59.7004 44.7278C59.8001 48.3178 59.85 52.0585 59.85 55.95H61.85ZM61.6996 44.673C61.5984 40.9272 61.2438 37.4241 60.6329 34.1657L58.6671 34.5343C59.2562 37.6759 59.6016 41.0728 59.7004 44.727L61.6996 44.673ZM60.6339 34.1711C60.0213 30.8019 59.0987 27.7692 57.858 25.0809L56.042 25.9191C57.2013 28.4308 58.0787 31.298 58.6661 34.5289L60.6339 34.1711ZM57.8638 25.0939C56.6071 22.2662 54.8247 19.8028 52.5227 17.7101L51.1773 19.1899C53.2753 21.0972 54.8929 23.3337 56.0362 25.9061L57.8638 25.0939ZM52.5085 17.6974C50.7944 16.1976 48.6279 14.9912 46.0387 14.0591L45.3613 15.9409C47.7721 16.8088 49.7056 17.9024 51.1915 19.2026L52.5085 17.6974ZM46.0511 14.0637C43.5251 13.1164 40.7543 12.65 37.75 12.65V14.65C40.5457 14.65 43.0749 15.0836 45.3489 15.9363L46.0511 14.0637ZM37.75 12.65C34.7451 12.65 31.9294 13.1166 29.3113 14.0591L29.9887 15.9409C32.3706 15.0834 34.9549 14.65 37.75 14.65V12.65ZM29.2989 14.0637C26.8087 14.9975 24.6986 16.2037 22.9915 17.6974L24.3085 19.2026C25.8014 17.8963 27.6913 16.8025 30.0011 15.9363L29.2989 14.0637ZM22.9773 17.7101C20.6753 19.8028 18.8929 22.2662 17.6362 25.0939L19.4638 25.9061C20.6071 23.3337 22.2247 21.0972 24.3227 19.1899L22.9773 17.7101ZM17.642 25.0809C16.4013 27.7692 15.4787 30.8019 14.8661 34.1711L16.8339 34.5289C17.4213 31.298 18.2987 28.4308 19.458 25.9191L17.642 25.0809ZM14.8671 34.1657C14.2562 37.4241 13.9016 40.9272 13.8004 44.673L15.7996 44.727C15.8984 41.0728 16.2438 37.6759 16.8329 34.5343L14.8671 34.1657ZM13.8004 44.6722C13.7001 48.2822 13.65 52.0415 13.65 55.95H15.65C15.65 52.0585 15.6999 48.3178 15.7996 44.7278L13.8004 44.6722ZM13.65 55.95C13.65 61.5607 13.7502 66.3782 13.9513 70.3999L15.9488 70.3001C15.7498 66.3218 15.65 61.5393 15.65 55.95H13.65ZM13.9529 70.4267C14.2552 74.3565 14.7099 77.8003 15.3207 80.7526L17.2793 80.3474C16.6901 77.4997 16.2448 74.1435 15.9471 70.2733L13.9529 70.4267ZM15.3279 80.7846C16.0451 83.7558 17.0256 86.3478 18.2818 88.5461L20.0182 87.5539C18.8744 85.5522 17.9549 83.1442 17.2721 80.3154L15.3279 80.7846ZM18.2925 88.5645C19.5423 90.6475 21.1011 92.5682 22.9634 94.327L24.3366 92.873C22.5989 91.2318 21.1577 89.4525 20.0075 87.5355L18.2925 88.5645ZM22.9915 94.3526C24.6986 95.8463 26.8087 97.0525 29.2989 97.9863L30.0011 96.1137C27.6913 95.2475 25.8014 94.1537 24.3085 92.8474L22.9915 94.3526ZM29.3113 97.9909C31.9294 98.9334 34.7451 99.4 37.75 99.4V97.4C34.9549 97.4 32.3706 96.9666 29.9887 96.1091L29.3113 97.9909ZM91.8027 95.85L91.0703 95.1692L90.8027 95.457V95.85H91.8027ZM133.353 51.15L132.626 50.4628L132.62 50.4692L133.353 51.15ZM140.703 40.65L141.623 41.0406L141.627 41.0307L140.703 40.65ZM138.003 18.3L137.285 18.9958L137.29 19.0015L137.296 19.0071L138.003 18.3ZM110.103 19.05L109.376 18.3628V18.3628L110.103 19.05ZM104.853 36V37H105.853V36H104.853ZM91.6527 36H90.6527V37H91.6527V36ZM94.0527 21.45L93.1227 21.0823L93.1182 21.094L94.0527 21.45ZM100.953 10.8L101.647 11.5194L101.654 11.5133L101.66 11.5071L100.953 10.8ZM111.453 4.2L111.109 3.26087L111.453 4.2ZM137.553 4.05L137.207 4.98834L137.218 4.99238L137.229 4.99616L137.553 4.05ZM147.303 9.89999L146.609 10.6203L146.616 10.6271L146.623 10.6338L147.303 9.89999ZM153.603 19.05L152.68 19.4346L152.684 19.4439L153.603 19.05ZM152.553 45.6L153.443 46.0555L153.447 46.0472L152.553 45.6ZM143.553 58.2L144.286 58.8804L144.286 58.8798L143.553 58.2ZM108.453 96L107.72 95.3195L106.16 97H108.453V96ZM157.803 96H158.803V95H157.803V96ZM157.803 108V109H158.803V108H157.803ZM91.8027 108H90.8027V109H91.8027V108ZM92.5352 96.5308L134.085 51.8308L132.62 50.4692L91.0703 95.1692L92.5352 96.5308ZM134.079 51.8372C137.629 48.0841 140.162 44.4858 141.623 41.0405L139.782 40.2594C138.444 43.4142 136.076 46.8159 132.626 50.4628L134.079 51.8372ZM141.627 41.0307C143.066 37.5364 143.803 34.2065 143.803 31.05H141.803C141.803 33.8935 141.139 36.9635 139.778 40.2692L141.627 41.0307ZM143.803 31.05C143.803 25.5337 142.129 21.0124 138.71 17.5929L137.296 19.0071C140.276 21.9876 141.803 25.9663 141.803 31.05H143.803ZM138.721 17.6042C135.384 14.1591 130.694 12.5 124.803 12.5V14.5C130.312 14.5 134.422 16.0408 137.285 18.9958L138.721 17.6042ZM124.803 12.5C118.298 12.5 113.108 14.4176 109.376 18.3628L110.829 19.7372C114.097 16.2824 118.708 14.5 124.803 14.5V12.5ZM109.376 18.3628C105.631 22.3221 103.853 28.2679 103.853 36H105.853C105.853 28.532 107.575 23.1779 110.829 19.7372L109.376 18.3628ZM104.853 35H91.6527V37H104.853V35ZM92.6527 36C92.6527 30.5953 93.439 25.87 94.9872 21.806L93.1182 21.094C91.4665 25.43 90.6527 30.4047 90.6527 36H92.6527ZM94.9827 21.8177C96.6379 17.6309 98.864 14.2067 101.647 11.5194L100.258 10.0806C97.2414 12.9933 94.8675 16.6691 93.1228 21.0823L94.9827 21.8177ZM101.66 11.5071C104.45 8.71652 107.824 6.59243 111.796 5.13912L111.109 3.26087C106.882 4.80756 103.255 7.08347 100.246 10.0929L101.66 11.5071ZM111.796 5.13912C115.774 3.68401 120.156 2.95 124.953 2.95V0.949997C119.95 0.949997 115.332 1.71599 111.109 3.26087L111.796 5.13912ZM124.953 2.95C129.451 2.95 133.532 3.63427 137.207 4.98834L137.898 3.11165C133.974 1.66573 129.655 0.949997 124.953 0.949997V2.95ZM137.229 4.99616C140.901 6.25228 144.022 8.12887 146.609 10.6203L147.996 9.17967C145.184 6.47112 141.805 4.44772 137.876 3.10383L137.229 4.99616ZM146.623 10.6338C149.212 13.0304 151.232 15.959 152.68 19.4346L154.526 18.6654C152.974 14.941 150.794 11.7696 147.982 9.16623L146.623 10.6338ZM152.684 19.4439C154.123 22.8016 154.853 26.6145 154.853 30.9H156.853C156.853 26.3854 156.083 22.2984 154.522 18.6561L152.684 19.4439ZM154.853 30.9C154.853 36.1602 153.782 40.9048 151.658 45.1528L153.447 46.0472C155.723 41.4952 156.853 36.4398 156.853 30.9H154.853ZM151.662 45.1445C149.51 49.3513 146.567 53.4771 142.819 57.5202L144.286 58.8798C148.139 54.7228 151.195 50.4487 153.443 46.0555L151.662 45.1445ZM142.82 57.5195L107.72 95.3195L109.186 96.6805L144.286 58.8804L142.82 57.5195ZM108.453 97H157.803V95H108.453V97ZM156.803 96V108H158.803V96H156.803ZM157.803 107H91.8027V109H157.803V107ZM92.8027 108V95.85H90.8027V108H92.8027Z" fill="url(#step_two)"/>
<defs>
<linearGradient id="step_two" x1="79" y1="22" x2="79" y2="86" gradientUnits="userSpaceOnUse">
<stop stop-color="#F2DE82"/>
<stop offset="1" stop-color="#D1A866"/>
</linearGradient>
</defs>
</svg>
