<svg width="162" height="112" viewBox="0 0 162 112" fill="none" xmlns="http://www.w3.org/2000/svg">
<path opacity="0.3" d="M23.95 107.7L23.5416 108.613L23.5517 108.617L23.5619 108.622L23.95 107.7ZM14.2 101.25L13.5059 101.97L13.5064 101.97L14.2 101.25ZM7.45 92.55L6.56681 93.0192L6.57319 93.0308L7.45 92.55ZM3.55 82.2L2.5769 82.4305L2.57833 82.4364L3.55 82.2ZM1.75 70.05L0.752316 70.118L0.752425 70.1196L1.75 70.05ZM1.75 42L2.74758 42.0696L2.74768 42.068L1.75 42ZM3.55 29.85L4.52169 30.0864L4.52308 30.0805L3.55 29.85ZM7.45 19.5L8.32689 19.9809L8.33312 19.9692L7.45 19.5ZM14.2 10.65L13.5064 9.92967L13.5059 9.93015L14.2 10.65ZM23.95 4.34999L23.5619 3.42836L23.95 4.34999ZM51.55 4.34999L51.9381 3.42836H51.9381L51.55 4.34999ZM61.3 10.65L61.9941 9.93015L61.9936 9.92967L61.3 10.65ZM68.05 19.5L67.1668 19.9692L67.1732 19.9808L68.05 19.5ZM71.95 29.85L70.9769 30.0805L70.9783 30.0863L71.95 29.85ZM73.75 42L72.7523 42.068L72.7524 42.0696L73.75 42ZM73.75 70.05L74.7476 70.1196L74.7477 70.118L73.75 70.05ZM71.95 82.2L72.9217 82.4364L72.9231 82.4305L71.95 82.2ZM68.05 92.55L68.9269 93.0309L68.9331 93.0192L68.05 92.55ZM61.3 101.25L61.9936 101.97L61.9941 101.97L61.3 101.25ZM51.55 107.7L51.9381 108.622L51.9483 108.617L51.9584 108.613L51.55 107.7ZM45.7 97.05L45.3613 96.109L45.3489 96.1137L45.7 97.05ZM51.85 93.6L52.5085 94.3526L52.5168 94.3452L51.85 93.6ZM56.35 87.9L55.4818 87.4039L55.4727 87.4198L55.4642 87.436L56.35 87.9ZM59.05 80.4L58.0762 80.1728L58.0733 80.185L58.0707 80.1974L59.05 80.4ZM60.4 70.05L59.4028 69.9752L59.4019 69.987L59.4013 69.9988L60.4 70.05ZM60.7 44.7L59.7004 44.727L59.7004 44.7278L60.7 44.7ZM59.65 34.35L58.6661 34.5289L58.6671 34.5343L59.65 34.35ZM56.95 25.5L56.0362 25.9061L56.0391 25.9126L56.042 25.9191L56.95 25.5ZM51.85 18.45L52.5227 17.7101L52.5157 17.7037L52.5085 17.6974L51.85 18.45ZM45.7 15L45.3488 15.9364L45.3613 15.9409L45.7 15ZM29.65 15L29.3113 14.059L29.2989 14.0637L29.65 15ZM23.65 18.45L22.9915 17.6974L22.9844 17.7037L22.9773 17.7101L23.65 18.45ZM18.55 25.5L19.458 25.9191L19.4609 25.9126L19.4638 25.9061L18.55 25.5ZM15.85 34.35L16.8329 34.5343L16.8339 34.5289L15.85 34.35ZM14.8 44.7L15.7996 44.7278L15.7996 44.727L14.8 44.7ZM14.95 70.35L13.9513 70.3999L13.9519 70.4133L13.9529 70.4267L14.95 70.35ZM16.3 80.55L15.3207 80.7526L15.3241 80.7687L15.3279 80.7846L16.3 80.55ZM19.15 88.05L18.2818 88.5461L18.287 88.5554L18.2925 88.5645L19.15 88.05ZM23.65 93.6L22.9634 94.327L22.9772 94.3401L22.9915 94.3526L23.65 93.6ZM29.65 97.05L29.2988 97.9864L29.3113 97.9909L29.65 97.05ZM37.75 109.1C32.444 109.1 27.9836 108.313 24.3381 106.778L23.5619 108.622C27.5164 110.287 32.256 111.1 37.75 111.1V109.1ZM24.3584 106.787C20.6523 105.129 17.5017 103.041 14.8936 100.53L13.5064 101.97C16.2983 104.659 19.6477 106.871 23.5416 108.613L24.3584 106.787ZM14.8941 100.53C12.1595 97.8932 9.97373 95.0724 8.32681 92.0692L6.57319 93.0308C8.32627 96.2276 10.6405 99.2068 13.5059 101.97L14.8941 100.53ZM8.33312 92.0808C6.67416 88.9581 5.40297 85.5868 4.52167 81.9636L2.57833 82.4364C3.49703 86.2132 4.82584 89.7419 6.56689 93.0192L8.33312 92.0808ZM4.52308 81.9695C3.63681 78.2275 3.04418 74.2317 2.74758 69.9804L0.752425 70.1196C1.05582 74.4683 1.66319 78.5725 2.57692 82.4305L4.52308 81.9695ZM2.74768 69.982C2.44942 65.6074 2.3 60.9302 2.3 55.95H0.3C0.3 60.9698 0.450585 65.6926 0.752317 70.118L2.74768 69.982ZM2.3 55.95C2.3 50.9696 2.44942 46.3431 2.74758 42.0696L0.752425 41.9304C0.450579 46.2569 0.3 50.9303 0.3 55.95H2.3ZM2.74768 42.068C3.04441 37.7161 3.63702 33.7232 4.52167 30.0863L2.57833 29.6136C1.66298 33.3768 1.05559 37.4839 0.752317 41.932L2.74768 42.068ZM4.52308 30.0805C5.40452 26.3588 6.67424 22.9943 8.32681 19.9808L6.57319 19.0192C4.82576 22.2057 3.49548 25.7412 2.57692 29.6195L4.52308 30.0805ZM8.33312 19.9692C9.98021 16.8687 12.1644 14.0021 14.8941 11.3698L13.5059 9.93015C10.6356 12.6979 8.31979 15.7313 6.56688 19.0308L8.33312 19.9692ZM14.8936 11.3703C17.4966 8.86378 20.6401 6.82867 24.3381 5.27163L23.5619 3.42836C19.6599 5.07133 16.3034 7.23621 13.5064 9.92967L14.8936 11.3703ZM24.3381 5.27163C27.9836 3.73668 32.444 2.95 37.75 2.95V0.949997C32.256 0.949997 27.5164 1.76331 23.5619 3.42836L24.3381 5.27163ZM37.75 2.95C43.056 2.95 47.5164 3.73668 51.1619 5.27163L51.9381 3.42836C47.9836 1.76331 43.244 0.949997 37.75 0.949997V2.95ZM51.1619 5.27163C54.8599 6.82867 58.0034 8.86378 60.6064 11.3703L61.9936 9.92967C59.1966 7.23621 55.8401 5.07133 51.9381 3.42836L51.1619 5.27163ZM60.6059 11.3698C63.3356 14.0021 65.5198 16.8687 67.1669 19.9692L68.9331 19.0308C67.1802 15.7313 64.8644 12.6979 61.9941 9.93015L60.6059 11.3698ZM67.1732 19.9808C68.8258 22.9943 70.0955 26.3588 70.9769 30.0805L72.9231 29.6195C72.0045 25.7412 70.6742 22.2057 68.9268 19.0192L67.1732 19.9808ZM70.9783 30.0863C71.863 33.7232 72.4556 37.7161 72.7523 42.068L74.7477 41.932C74.4444 37.4839 73.837 33.3768 72.9217 29.6136L70.9783 30.0863ZM72.7524 42.0696C73.0506 46.3431 73.2 50.9696 73.2 55.95H75.2C75.2 50.9303 75.0494 46.2569 74.7476 41.9304L72.7524 42.0696ZM73.2 55.95C73.2 60.9302 73.0506 65.6074 72.7523 69.982L74.7477 70.118C75.0494 65.6926 75.2 60.9698 75.2 55.95H73.2ZM72.7524 69.9804C72.4558 74.2317 71.8632 78.2275 70.9769 81.9695L72.9231 82.4305C73.8368 78.5725 74.4442 74.4683 74.7476 70.1196L72.7524 69.9804ZM70.9783 81.9636C70.097 85.5868 68.8259 88.9581 67.1669 92.0808L68.9331 93.0192C70.6742 89.7419 72.003 86.2132 72.9217 82.4364L70.9783 81.9636ZM67.1732 92.0692C65.5263 95.0724 63.3405 97.8932 60.6059 100.53L61.9941 101.97C64.8595 99.2068 67.1737 96.2276 68.9268 93.0308L67.1732 92.0692ZM60.6064 100.53C57.9983 103.041 54.8477 105.129 51.1416 106.787L51.9584 108.613C55.8523 106.871 59.2017 104.659 61.9936 101.97L60.6064 100.53ZM51.1619 106.778C47.5164 108.313 43.056 109.1 37.75 109.1V111.1C43.244 111.1 47.9836 110.287 51.9381 108.622L51.1619 106.778ZM37.75 99.4C40.7543 99.4 43.5251 98.9336 46.0511 97.9863L45.3489 96.1137C43.0749 96.9664 40.5457 97.4 37.75 97.4V99.4ZM46.0387 97.9909C48.6279 97.0588 50.7944 95.8524 52.5085 94.3526L51.1915 92.8474C49.7056 94.1476 47.7721 95.2412 45.3613 96.1091L46.0387 97.9909ZM52.5168 94.3452C54.4993 92.5714 56.0762 90.5779 57.2358 88.364L55.4642 87.436C54.4238 89.4221 53.0007 91.2286 51.1832 92.8548L52.5168 94.3452ZM57.2182 88.3961C58.4807 86.1869 59.4125 83.5834 60.0293 80.6026L58.0707 80.1974C57.4875 83.0166 56.6193 85.4131 55.4818 87.4039L57.2182 88.3961ZM60.0238 80.6272C60.7403 77.5565 61.1964 74.0456 61.3987 70.1012L59.4013 69.9988C59.2036 73.8544 58.7597 77.2435 58.0762 80.1728L60.0238 80.6272ZM61.3972 70.1248C61.6996 66.0931 61.85 61.367 61.85 55.95H59.85C59.85 61.333 59.7004 66.0069 59.4028 69.9752L61.3972 70.1248ZM61.85 55.95C61.85 52.0415 61.7999 48.2822 61.6996 44.6722L59.7004 44.7278C59.8001 48.3178 59.85 52.0585 59.85 55.95H61.85ZM61.6996 44.673C61.5984 40.9272 61.2438 37.4241 60.6329 34.1657L58.6671 34.5343C59.2562 37.6759 59.6016 41.0728 59.7004 44.727L61.6996 44.673ZM60.6339 34.1711C60.0213 30.8019 59.0987 27.7692 57.858 25.0809L56.042 25.9191C57.2013 28.4308 58.0787 31.298 58.6661 34.5289L60.6339 34.1711ZM57.8638 25.0939C56.6071 22.2662 54.8247 19.8028 52.5227 17.7101L51.1773 19.1899C53.2753 21.0972 54.8929 23.3337 56.0362 25.9061L57.8638 25.0939ZM52.5085 17.6974C50.7944 16.1976 48.6279 14.9912 46.0387 14.0591L45.3613 15.9409C47.7721 16.8088 49.7056 17.9024 51.1915 19.2026L52.5085 17.6974ZM46.0511 14.0637C43.5251 13.1164 40.7543 12.65 37.75 12.65V14.65C40.5457 14.65 43.0749 15.0836 45.3489 15.9363L46.0511 14.0637ZM37.75 12.65C34.7451 12.65 31.9294 13.1166 29.3113 14.0591L29.9887 15.9409C32.3706 15.0834 34.9549 14.65 37.75 14.65V12.65ZM29.2989 14.0637C26.8087 14.9975 24.6986 16.2037 22.9915 17.6974L24.3085 19.2026C25.8014 17.8963 27.6913 16.8025 30.0011 15.9363L29.2989 14.0637ZM22.9773 17.7101C20.6753 19.8028 18.8929 22.2662 17.6362 25.0939L19.4638 25.9061C20.6071 23.3337 22.2247 21.0972 24.3227 19.1899L22.9773 17.7101ZM17.642 25.0809C16.4013 27.7692 15.4787 30.8019 14.8661 34.1711L16.8339 34.5289C17.4213 31.298 18.2987 28.4308 19.458 25.9191L17.642 25.0809ZM14.8671 34.1657C14.2562 37.4241 13.9016 40.9272 13.8004 44.673L15.7996 44.727C15.8984 41.0728 16.2438 37.6759 16.8329 34.5343L14.8671 34.1657ZM13.8004 44.6722C13.7001 48.2822 13.65 52.0415 13.65 55.95H15.65C15.65 52.0585 15.6999 48.3178 15.7996 44.7278L13.8004 44.6722ZM13.65 55.95C13.65 61.5607 13.7502 66.3782 13.9513 70.3999L15.9488 70.3001C15.7498 66.3218 15.65 61.5393 15.65 55.95H13.65ZM13.9529 70.4267C14.2552 74.3565 14.7099 77.8003 15.3207 80.7526L17.2793 80.3474C16.6901 77.4997 16.2448 74.1435 15.9471 70.2733L13.9529 70.4267ZM15.3279 80.7846C16.0451 83.7558 17.0256 86.3478 18.2818 88.5461L20.0182 87.5539C18.8744 85.5522 17.9549 83.1442 17.2721 80.3154L15.3279 80.7846ZM18.2925 88.5645C19.5423 90.6475 21.1011 92.5682 22.9634 94.327L24.3366 92.873C22.5989 91.2318 21.1577 89.4525 20.0075 87.5355L18.2925 88.5645ZM22.9915 94.3526C24.6986 95.8463 26.8087 97.0525 29.2989 97.9863L30.0011 96.1137C27.6913 95.2475 25.8014 94.1537 24.3085 92.8474L22.9915 94.3526ZM29.3113 97.9909C31.9294 98.9334 34.7451 99.4 37.75 99.4V97.4C34.9549 97.4 32.3706 96.9666 29.9887 96.1091L29.3113 97.9909ZM112.203 107.85L112.546 106.911L112.203 107.85ZM101.403 101.55L100.72 102.281L100.733 102.293L100.746 102.304L101.403 101.55ZM94.2027 91.5L93.2908 91.9104L93.2948 91.9191L94.2027 91.5ZM91.2027 78.15V77.15H90.1611L90.2036 78.1908L91.2027 78.15ZM104.253 78.15L105.25 78.0824L105.187 77.15H104.253V78.15ZM110.253 92.85L109.518 93.5283L109.527 93.5377L110.253 92.85ZM141.003 93.45L140.364 92.6802L140.355 92.6881L141.003 93.45ZM145.353 70.95L146.247 70.5028L145.353 70.95ZM140.403 64.95L139.774 65.7272L139.785 65.7365L139.797 65.7454L140.403 64.95ZM132.903 61.2L132.628 62.1616L132.637 62.164L132.903 61.2ZM116.403 60H115.403V61H116.403V60ZM116.403 48.15V47.15H115.403V48.15H116.403ZM138.903 43.65L139.522 44.4349L139.525 44.4328L138.903 43.65ZM139.503 18.45L138.806 19.1676L138.811 19.1726L138.817 19.1776L139.503 18.45ZM110.703 18.75L111.389 19.477L111.395 19.472L111.4 19.467L110.703 18.75ZM105.003 32.4V33.4H105.968L106.002 32.4351L105.003 32.4ZM91.9527 32.4L90.9536 32.3575L90.9093 33.4H91.9527V32.4ZM101.703 10.2L102.366 10.9488L102.372 10.9427L101.703 10.2ZM138.153 3.9L137.829 4.84616L137.844 4.8512L137.859 4.85578L138.153 3.9ZM148.353 9.29999L148.99 8.5296L148.353 9.29999ZM155.253 18.3L154.348 18.727L155.253 18.3ZM156.453 38.55L155.512 38.2113L155.508 38.2225L155.504 38.2338L156.453 38.55ZM152.853 45.3L152.057 44.694L152.048 44.7062L152.039 44.7188L152.853 45.3ZM147.303 50.85L147.866 51.6762L147.879 51.6677L147.891 51.6587L147.303 50.85ZM140.103 54.15L139.843 53.1844L136.15 54.1787L139.857 55.1193L140.103 54.15ZM155.103 63.9L154.279 64.4666L154.284 64.4746L155.103 63.9ZM157.353 92.1L156.449 91.6719L156.444 91.6825L157.353 92.1ZM150.153 101.7L149.496 100.946L149.49 100.951L149.484 100.957L150.153 101.7ZM139.203 108L139.519 108.949L139.532 108.944L139.203 108ZM125.553 109.1C120.858 109.1 116.526 108.367 112.546 106.911L111.859 108.789C116.08 110.333 120.647 111.1 125.553 111.1V109.1ZM112.546 106.911C108.554 105.45 105.062 103.411 102.06 100.796L100.746 102.304C103.944 105.089 107.652 107.25 111.859 108.789L112.546 106.911ZM102.085 100.819C99.1842 98.1115 96.859 94.8689 95.1107 91.0809L93.2948 91.9191C95.1465 95.9311 97.6213 99.3885 100.72 102.281L102.085 100.819ZM95.1147 91.0896C93.3729 87.2191 92.3973 82.8966 92.2019 78.1092L90.2036 78.1908C90.4082 83.2034 91.4326 87.7809 93.2908 91.9104L95.1147 91.0896ZM91.2027 79.15H104.253V77.15H91.2027V79.15ZM103.255 78.2176C103.669 84.3176 105.745 89.4414 109.518 93.5283L110.988 92.1717C107.56 88.4586 105.637 83.7824 105.25 78.0824L103.255 78.2176ZM109.527 93.5377C113.362 97.5863 118.754 99.55 125.553 99.55V97.55C119.151 97.55 114.343 95.7137 110.979 92.1623L109.527 93.5377ZM125.553 99.55C132.04 99.55 137.435 97.795 141.65 94.2119L140.355 92.6881C136.57 95.905 131.665 97.55 125.553 97.55V99.55ZM141.641 94.2198C146.001 90.6043 148.153 85.6052 148.153 79.35H146.153C146.153 85.0948 144.205 89.4957 140.364 92.6802L141.641 94.2198ZM148.153 79.35C148.153 76.0244 147.529 73.0659 146.247 70.5028L144.458 71.3972C145.577 73.6341 146.153 76.2756 146.153 79.35H148.153ZM146.247 70.5028C144.98 67.9685 143.232 65.8487 141.009 64.1546L139.797 65.7454C141.773 67.2513 143.325 69.1315 144.458 71.3972L146.247 70.5028ZM141.032 64.1728C138.813 62.3768 136.186 61.0684 133.169 60.236L132.637 62.164C135.419 62.9316 137.792 64.1232 139.774 65.7272L141.032 64.1728ZM133.177 60.2385C130.277 59.4098 127.134 59 123.753 59V61C126.972 61 129.928 61.3902 132.628 62.1615L133.177 60.2385ZM123.753 59H116.403V61H123.753V59ZM117.403 60V48.15H115.403V60H117.403ZM116.403 49.15H123.753V47.15H116.403V49.15ZM123.753 49.15C130.209 49.15 135.499 47.6113 139.522 44.4349L138.283 42.8651C134.707 45.6887 129.896 47.15 123.753 47.15V49.15ZM139.525 44.4328C143.691 41.1217 145.753 36.5187 145.753 30.75H143.753C143.753 35.9813 141.915 39.9783 138.28 42.8672L139.525 44.4328ZM145.753 30.75C145.753 25.5804 143.893 21.2153 140.189 17.7224L138.817 19.1776C142.112 22.2847 143.753 26.1196 143.753 30.75H145.753ZM140.199 17.7324C136.573 14.2124 131.701 12.5 125.703 12.5V14.5C131.304 14.5 135.633 16.0875 138.806 19.1676L140.199 17.7324ZM125.703 12.5C119.117 12.5 113.84 14.3054 110.006 18.033L111.4 19.467C114.766 16.1946 119.488 14.5 125.703 14.5V12.5ZM110.016 18.023C106.196 21.6312 104.211 26.4453 104.003 32.3649L106.002 32.4351C106.194 26.9547 108.01 22.6688 111.389 19.477L110.016 18.023ZM105.003 31.4H91.9527V33.4H105.003V31.4ZM92.9518 32.4425C93.3422 23.268 96.5008 16.1405 102.366 10.9488L101.04 9.45124C94.7046 15.0595 91.3632 22.7319 90.9536 32.3575L92.9518 32.4425ZM102.372 10.9427C108.249 5.64421 116.091 2.95 126.003 2.95V0.949997C115.715 0.949997 107.357 3.75579 101.033 9.45731L102.372 10.9427ZM126.003 2.95C130.2 2.95 134.14 3.58425 137.829 4.84616L138.476 2.95383C134.565 1.61575 130.405 0.949997 126.003 0.949997V2.95ZM137.859 4.85578C141.644 6.02041 144.925 7.76095 147.715 10.0704L148.99 8.5296C145.981 6.03903 142.462 4.17958 138.447 2.94422L137.859 4.85578ZM147.715 10.0704C150.496 12.3715 152.707 15.2518 154.348 18.727L156.157 17.873C154.398 14.1482 152.01 11.0285 148.99 8.5296L147.715 10.0704ZM154.348 18.727C155.975 22.1715 156.803 26.1712 156.803 30.75H158.803C158.803 25.9288 157.93 21.6285 156.157 17.873L154.348 18.727ZM156.803 30.75C156.803 33.3364 156.372 35.8217 155.512 38.2113L157.394 38.8887C158.333 36.2783 158.803 33.5636 158.803 30.75H156.803ZM155.504 38.2338C154.74 40.5249 153.594 42.6776 152.057 44.694L153.648 45.906C155.312 43.7224 156.565 41.3751 157.401 38.8662L155.504 38.2338ZM152.039 44.7188C150.605 46.7267 148.832 48.501 146.715 50.0413L147.891 51.6587C150.173 49.999 152.101 48.0733 153.666 45.8812L152.039 44.7188ZM146.739 50.0238C144.633 51.4599 142.336 52.5132 139.843 53.1844L140.363 55.1156C143.07 54.3868 145.572 53.2401 147.866 51.6762L146.739 50.0238ZM139.857 55.1193C146.368 56.7713 151.141 59.9026 154.279 64.4665L155.927 63.3335C152.465 58.2974 147.238 54.9286 140.349 53.1807L139.857 55.1193ZM154.284 64.4746C157.469 69.0109 159.053 73.9612 159.053 79.35H161.053C161.053 73.5388 159.336 68.1891 155.921 63.3254L154.284 64.4746ZM159.053 79.35C159.053 83.9195 158.179 88.0207 156.449 91.6719L158.256 92.5281C160.127 88.5793 161.053 84.1805 161.053 79.35H159.053ZM156.444 91.6825C154.804 95.2525 152.49 98.3381 149.496 100.946L150.81 102.454C154.015 99.6619 156.502 96.3475 158.261 92.5175L156.444 91.6825ZM149.484 100.957C146.594 103.557 143.064 105.594 138.873 107.056L139.532 108.944C143.941 107.406 147.711 105.243 150.822 102.443L149.484 100.957ZM138.887 107.051C134.799 108.414 130.357 109.1 125.553 109.1V111.1C130.549 111.1 135.207 110.386 139.519 108.949L138.887 107.051Z" fill="url(#step_three)"/>
<defs>
<linearGradient id="step_three" x1="80.5" y1="22" x2="80.5" y2="86" gradientUnits="userSpaceOnUse">
<stop stop-color="#F2DE82"/>
<stop offset="1" stop-color="#D1A866"/>
</linearGradient>
</defs>
</svg>
