<svg width="157" height="110" viewBox="0 0 157 110" fill="none" xmlns="http://www.w3.org/2000/svg">
<path d="M36.75 109.1C31.35 109.1 26.75 108.3 22.95 106.7C19.15 105 15.9 102.85 13.2 100.25C10.4 97.55 8.15 94.65 6.45 91.55C4.75 88.35 3.45 84.9 2.55 81.2C1.65 77.4 1.05 73.35 0.750001 69.05C0.450001 64.65 0.3 59.95 0.3 54.95C0.3 49.95 0.450001 45.3 0.750001 41C1.05 36.6 1.65 32.55 2.55 28.85C3.45 25.05 4.75 21.6 6.45 18.5C8.15 15.3 10.4 12.35 13.2 9.64999C15.9 7.05 19.15 4.95 22.95 3.34999C26.75 1.75 31.35 0.949997 36.75 0.949997C42.15 0.949997 46.75 1.75 50.55 3.34999C54.35 4.95 57.6 7.05 60.3 9.64999C63.1 12.35 65.35 15.3 67.05 18.5C68.75 21.6 70.05 25.05 70.95 28.85C71.85 32.55 72.45 36.6 72.75 41C73.05 45.3 73.2 49.95 73.2 54.95C73.2 59.95 73.05 64.65 72.75 69.05C72.45 73.35 71.85 77.4 70.95 81.2C70.05 84.9 68.75 88.35 67.05 91.55C65.35 94.65 63.1 97.55 60.3 100.25C57.6 102.85 54.35 105 50.55 106.7C46.75 108.3 42.15 109.1 36.75 109.1ZM36.75 97.4C39.65 97.4 42.3 96.95 44.7 96.05C47.2 95.15 49.25 94 50.85 92.6C52.75 90.9 54.25 89 55.35 86.9C56.55 84.8 57.45 82.3 58.05 79.4C58.75 76.4 59.2 72.95 59.4 69.05C59.7 65.05 59.85 60.35 59.85 54.95C59.85 51.05 59.8 47.3 59.7 43.7C59.6 40 59.25 36.55 58.65 33.35C58.05 30.05 57.15 27.1 55.95 24.5C54.75 21.8 53.05 19.45 50.85 17.45C49.25 16.05 47.2 14.9 44.7 14C42.3 13.1 39.65 12.65 36.75 12.65C33.85 12.65 31.15 13.1 28.65 14C26.25 14.9 24.25 16.05 22.65 17.45C20.45 19.45 18.75 21.8 17.55 24.5C16.35 27.1 15.45 30.05 14.85 33.35C14.25 36.55 13.9 40 13.8 43.7C13.7 47.3 13.65 51.05 13.65 54.95C13.65 60.55 13.75 65.35 13.95 69.35C14.25 73.25 14.7 76.65 15.3 79.55C16 82.45 16.95 84.95 18.15 87.05C19.35 89.05 20.85 90.9 22.65 92.6C24.25 94 26.25 95.15 28.65 96.05C31.15 96.95 33.85 97.4 36.75 97.4ZM90.8027 94.85L132.353 50.15C135.853 46.45 138.303 42.95 139.703 39.65C141.103 36.25 141.803 33.05 141.803 30.05C141.803 24.75 140.203 20.5 137.003 17.3C133.903 14.1 129.503 12.5 123.803 12.5C117.503 12.5 112.603 14.35 109.103 18.05C105.603 21.75 103.853 27.4 103.853 35H90.6527C90.6527 29.5 91.4527 24.65 93.0527 20.45C94.7527 16.15 97.0527 12.6 99.9527 9.8C102.853 6.9 106.353 4.69999 110.453 3.2C114.553 1.7 119.053 0.949997 123.953 0.949997C128.553 0.949997 132.753 1.65 136.553 3.05C140.353 4.35 143.603 6.3 146.303 8.89999C149.003 11.4 151.103 14.45 152.603 18.05C154.103 21.55 154.853 25.5 154.853 29.9C154.853 35.3 153.753 40.2 151.553 44.6C149.353 48.9 146.353 53.1 142.553 57.2L107.453 95H156.803V107H90.8027V94.85Z" fill="url(#step-two_paint0_linear)"/>
<defs>
<linearGradient id="step-two_paint0_linear" x1="78" y1="-22" x2="78" y2="128" gradientUnits="userSpaceOnUse">
<stop stop-color="#BE9461"/>
<stop offset="1" stop-color="#9C6C3C"/>
</linearGradient>
</defs>
</svg>
