<svg width="615" height="390" viewBox="0 0 615 390" fill="none" xmlns="http://www.w3.org/2000/svg">
<g filter="url(#filter0_d)">
<rect x="24.6746" y="20.6746" width="565.318" height="168.651" rx="4.72222" fill="#0D0D18" stroke="black" stroke-width="1.34921"/>
<path d="M83.7261 55.6852V54.247H75.6754V66.6826H77.2364V61.2102H83.0245V59.7369H77.2364V55.6852H83.7261ZM90.6352 59.2633V57.8075C90.4013 57.7725 90.1675 57.7549 89.9336 57.7549C89.3606 57.7549 88.8345 57.8894 88.355 58.1583C87.8873 58.4273 87.5307 58.8307 87.2851 59.3686L87.1623 57.8075H85.8469V66.6826H87.3202V62.7362C87.3085 62.2568 87.3553 61.754 87.4605 61.2278C87.5541 60.7016 87.7762 60.2572 88.127 59.8948C88.3258 59.696 88.5714 59.5323 88.8637 59.4036C89.1443 59.2633 89.46 59.1932 89.8108 59.1932C89.9395 59.1932 90.0798 59.199 90.2318 59.2107C90.3721 59.2224 90.5066 59.2399 90.6352 59.2633ZM99.7872 62.2451C99.7989 61.5435 99.7112 60.8828 99.5241 60.2631C99.337 59.6434 99.0038 59.0938 98.5244 58.6144C98.1969 58.2986 97.8111 58.0472 97.3667 57.8602C96.9107 57.6731 96.4021 57.5795 95.8408 57.5795C95.2795 57.5795 94.7709 57.6731 94.3148 57.8602C93.8705 58.0472 93.4846 58.2986 93.1572 58.6144C92.6778 59.0938 92.3445 59.6434 92.1574 60.2631C91.9704 60.8828 91.8827 61.5435 91.8944 62.2451C91.8827 62.9467 91.9704 63.6073 92.1574 64.2271C92.3445 64.8468 92.6778 65.3964 93.1572 65.8758C93.4846 66.1915 93.8705 66.4429 94.3148 66.63C94.7709 66.8171 95.2795 66.9106 95.8408 66.9106C96.4021 66.9106 96.9107 66.8171 97.3667 66.63C97.8111 66.4429 98.1969 66.1915 98.5244 65.8758C99.0038 65.3964 99.337 64.8468 99.5241 64.2271C99.7112 63.6073 99.7989 62.9467 99.7872 62.2451ZM98.2613 62.2451C98.2613 62.7713 98.2028 63.2799 98.0859 63.771C97.9689 64.2504 97.7526 64.6597 97.4369 64.9988C97.2498 65.1859 97.0276 65.3379 96.7704 65.4548C96.5014 65.5718 96.1916 65.6302 95.8408 65.6302C95.49 65.6302 95.1801 65.5718 94.9112 65.4548C94.6539 65.3379 94.4318 65.1859 94.2447 64.9988C93.929 64.6597 93.7126 64.2504 93.5957 63.771C93.4788 63.2799 93.4203 62.7713 93.4203 62.2451C93.4203 61.7189 93.4788 61.2102 93.5957 60.7191C93.7126 60.2397 93.929 59.8304 94.2447 59.4913C94.4318 59.3043 94.6539 59.1522 94.9112 59.0353C95.1801 58.9184 95.49 58.8599 95.8408 58.8599C96.1916 58.8599 96.5014 58.9184 96.7704 59.0353C97.0276 59.1522 97.2498 59.3043 97.4369 59.4913C97.7526 59.8304 97.9689 60.2397 98.0859 60.7191C98.2028 61.2102 98.2613 61.7189 98.2613 62.2451ZM114.637 66.6826V60.8419C114.637 59.848 114.397 59.0587 113.917 58.474C113.426 57.8894 112.678 57.5912 111.672 57.5795C111.099 57.5795 110.562 57.7198 110.059 58.0005C109.556 58.2928 109.182 58.7138 108.936 59.2633C108.737 58.7138 108.41 58.2986 107.954 58.018C107.51 57.7257 106.954 57.5795 106.288 57.5795C105.773 57.5795 105.294 57.7023 104.849 57.9479C104.393 58.1934 104.043 58.5676 103.797 59.0704L103.657 57.8075H102.359V66.6826H103.85V61.9644C103.85 61.5786 103.896 61.181 103.99 60.7717C104.072 60.3625 104.224 60.0117 104.446 59.7194C104.633 59.4738 104.849 59.2809 105.095 59.1406C105.352 59.0002 105.639 58.9301 105.954 58.9301C106.656 58.9418 107.13 59.1347 107.375 59.5089C107.632 59.8948 107.755 60.4034 107.744 61.0348V66.6826H109.234V61.9644C109.234 61.4967 109.287 61.0524 109.392 60.6314C109.497 60.2105 109.696 59.8421 109.989 59.5264C110.164 59.3393 110.363 59.1932 110.585 59.0879C110.807 58.9827 111.059 58.9301 111.339 58.9301C112.029 58.9418 112.508 59.1347 112.777 59.5089C113.035 59.8948 113.157 60.4034 113.146 61.0348V66.6826H114.637Z" fill="#8A939F"/>
<path d="M484.956 166V164.842H482.166V155.685H480.949L478.099 157.451V158.802L480.89 157.125V164.842H478.085V166H484.956ZM494.026 162.601C494.026 162.087 493.947 161.607 493.788 161.162C493.63 160.726 493.398 160.35 493.091 160.034C492.834 159.767 492.527 159.559 492.171 159.41C491.805 159.262 491.394 159.188 490.939 159.188C490.494 159.188 490.073 159.262 489.677 159.41C489.282 159.559 488.965 159.796 488.728 160.123L488.891 156.828H493.506V155.685H487.807L487.525 161.221H488.935C489.123 160.924 489.371 160.697 489.677 160.538C489.994 160.39 490.33 160.316 490.687 160.316C491.013 160.316 491.3 160.365 491.547 160.464C491.795 160.573 491.998 160.717 492.156 160.895C492.354 161.112 492.502 161.37 492.601 161.666C492.7 161.973 492.75 162.305 492.75 162.661C492.75 163.007 492.705 163.324 492.616 163.611C492.527 163.897 492.398 164.15 492.23 164.367C492.072 164.575 491.864 164.738 491.607 164.857C491.349 164.986 491.043 165.05 490.687 165.05C490.36 165.05 490.068 165.001 489.811 164.902C489.544 164.803 489.326 164.669 489.158 164.501C488.99 164.333 488.851 164.125 488.742 163.878C488.643 163.64 488.584 163.358 488.564 163.032H487.303C487.323 163.507 487.417 163.937 487.585 164.323C487.753 164.699 487.981 165.03 488.267 165.317C488.554 165.594 488.906 165.812 489.321 165.97C489.737 166.129 490.197 166.208 490.701 166.208C491.246 166.198 491.721 166.104 492.126 165.926C492.542 165.738 492.883 165.495 493.15 165.199C493.437 164.882 493.655 164.506 493.803 164.071C493.952 163.635 494.026 163.146 494.026 162.601ZM503.289 160.835C503.298 159.846 503.224 158.98 503.066 158.238C502.908 157.496 502.576 156.863 502.072 156.338C501.824 156.081 501.517 155.873 501.151 155.715C500.785 155.557 500.35 155.478 499.845 155.478C499.341 155.478 498.905 155.557 498.539 155.715C498.173 155.873 497.867 156.081 497.619 156.338C497.115 156.863 496.783 157.496 496.625 158.238C496.467 158.98 496.392 159.846 496.402 160.835C496.392 161.825 496.467 162.69 496.625 163.432C496.783 164.165 497.115 164.793 497.619 165.317C497.867 165.575 498.173 165.782 498.539 165.941C498.905 166.099 499.341 166.183 499.845 166.193C500.35 166.183 500.785 166.099 501.151 165.941C501.517 165.782 501.824 165.575 502.072 165.317C502.576 164.793 502.908 164.165 503.066 163.432C503.224 162.69 503.298 161.825 503.289 160.835ZM501.626 157.837L497.753 162.587C497.723 162.3 497.708 162.008 497.708 161.711C497.708 161.414 497.708 161.122 497.708 160.835C497.688 160.123 497.723 159.43 497.812 158.757C497.901 158.085 498.153 157.531 498.569 157.095C498.717 156.957 498.9 156.843 499.118 156.754C499.326 156.665 499.568 156.62 499.845 156.62C500.122 156.62 500.365 156.665 500.573 156.754C500.79 156.843 500.973 156.957 501.122 157.095C501.339 157.303 501.508 157.55 501.626 157.837ZM501.983 160.835C502.002 161.548 501.968 162.24 501.879 162.913C501.79 163.586 501.537 164.14 501.122 164.575C500.973 164.714 500.79 164.828 500.573 164.917C500.365 165.006 500.122 165.05 499.845 165.05C499.568 165.05 499.326 165.006 499.118 164.917C498.9 164.828 498.717 164.714 498.569 164.575C498.381 164.397 498.228 164.179 498.109 163.922L501.938 159.188C501.958 159.455 501.973 159.727 501.983 160.004C501.983 160.281 501.983 160.558 501.983 160.835ZM510.295 166.015V163.774H508.099V166.015H510.295ZM521.992 160.835C522.002 159.846 521.928 158.98 521.769 158.238C521.611 157.496 521.28 156.863 520.775 156.338C520.528 156.081 520.221 155.873 519.855 155.715C519.489 155.557 519.053 155.478 518.549 155.478C518.044 155.478 517.609 155.557 517.243 155.715C516.877 155.873 516.57 156.081 516.323 156.338C515.818 156.863 515.487 157.496 515.328 158.238C515.17 158.98 515.096 159.846 515.106 160.835C515.096 161.825 515.17 162.69 515.328 163.432C515.487 164.165 515.818 164.793 516.323 165.317C516.57 165.575 516.877 165.782 517.243 165.941C517.609 166.099 518.044 166.183 518.549 166.193C519.053 166.183 519.489 166.099 519.855 165.941C520.221 165.782 520.528 165.575 520.775 165.317C521.28 164.793 521.611 164.165 521.769 163.432C521.928 162.69 522.002 161.825 521.992 160.835ZM520.33 157.837L516.456 162.587C516.427 162.3 516.412 162.008 516.412 161.711C516.412 161.414 516.412 161.122 516.412 160.835C516.392 160.123 516.427 159.43 516.516 158.757C516.605 158.085 516.857 157.531 517.272 157.095C517.421 156.957 517.604 156.843 517.822 156.754C518.029 156.665 518.272 156.62 518.549 156.62C518.826 156.62 519.068 156.665 519.276 156.754C519.494 156.843 519.677 156.957 519.825 157.095C520.043 157.303 520.211 157.55 520.33 157.837ZM520.686 160.835C520.706 161.548 520.671 162.24 520.582 162.913C520.493 163.586 520.241 164.14 519.825 164.575C519.677 164.714 519.494 164.828 519.276 164.917C519.068 165.006 518.826 165.05 518.549 165.05C518.272 165.05 518.029 165.006 517.822 164.917C517.604 164.828 517.421 164.714 517.272 164.575C517.085 164.397 516.931 164.179 516.812 163.922L520.641 159.188C520.661 159.455 520.676 159.727 520.686 160.004C520.686 160.281 520.686 160.558 520.686 160.835ZM531.344 160.835C531.354 159.846 531.279 158.98 531.121 158.238C530.963 157.496 530.631 156.863 530.127 156.338C529.879 156.081 529.573 155.873 529.207 155.715C528.841 155.557 528.405 155.478 527.901 155.478C527.396 155.478 526.961 155.557 526.595 155.715C526.228 155.873 525.922 156.081 525.674 156.338C525.17 156.863 524.838 157.496 524.68 158.238C524.522 158.98 524.448 159.846 524.457 160.835C524.448 161.825 524.522 162.69 524.68 163.432C524.838 164.165 525.17 164.793 525.674 165.317C525.922 165.575 526.228 165.782 526.595 165.941C526.961 166.099 527.396 166.183 527.901 166.193C528.405 166.183 528.841 166.099 529.207 165.941C529.573 165.782 529.879 165.575 530.127 165.317C530.631 164.793 530.963 164.165 531.121 163.432C531.279 162.69 531.354 161.825 531.344 160.835ZM529.682 157.837L525.808 162.587C525.778 162.3 525.763 162.008 525.763 161.711C525.763 161.414 525.763 161.122 525.763 160.835C525.744 160.123 525.778 159.43 525.867 158.757C525.956 158.085 526.209 157.531 526.624 157.095C526.773 156.957 526.956 156.843 527.173 156.754C527.381 156.665 527.624 156.62 527.901 156.62C528.178 156.62 528.42 156.665 528.628 156.754C528.845 156.843 529.029 156.957 529.177 157.095C529.395 157.303 529.563 157.55 529.682 157.837ZM530.038 160.835C530.058 161.548 530.023 162.24 529.934 162.913C529.845 163.586 529.592 164.14 529.177 164.575C529.029 164.714 528.845 164.828 528.628 164.917C528.42 165.006 528.178 165.05 527.901 165.05C527.624 165.05 527.381 165.006 527.173 164.917C526.956 164.828 526.773 164.714 526.624 164.575C526.436 164.397 526.283 164.179 526.164 163.922L529.993 159.188C530.013 159.455 530.028 159.727 530.038 160.004C530.038 160.281 530.038 160.558 530.038 160.835Z" fill="#6F6E95"/>
<path d="M86.801 156.478H85.5988L83.9218 165.041L81.4878 156.626H80.3005L77.8665 165.056L76.1895 156.478H74.9577L77.0651 167H78.4602L80.8942 158.526L83.2984 167H84.7084L86.801 156.478ZM95.1018 166.926V165.991C95.0919 165.991 95.0523 165.996 94.983 166.006C94.9138 166.025 94.8445 166.035 94.7753 166.035C94.6466 166.035 94.5477 166.001 94.4784 165.931C94.3993 165.862 94.3597 165.729 94.3597 165.531V161.895C94.3597 161.459 94.2855 161.073 94.1371 160.737C93.959 160.321 93.6572 159.98 93.2318 159.713C92.7964 159.446 92.2176 159.307 91.4954 159.297C91.0303 159.297 90.595 159.362 90.1893 159.49C89.7738 159.629 89.4374 159.832 89.1801 160.099C88.9822 160.297 88.8289 160.524 88.72 160.782C88.6013 161.039 88.537 161.336 88.5271 161.672H89.7589C89.7589 161.484 89.7936 161.316 89.8628 161.167C89.9222 161.019 90.0112 160.885 90.13 160.767C90.2586 160.638 90.4317 160.534 90.6494 160.455C90.877 160.366 91.1589 160.321 91.4954 160.321C91.8021 160.321 92.0544 160.356 92.2523 160.425C92.4501 160.495 92.6084 160.589 92.7272 160.707C92.8954 160.866 93.0042 161.049 93.0537 161.256C93.1032 161.464 93.1229 161.662 93.113 161.85V162.399L90.8275 162.533C89.8183 162.622 89.1158 162.909 88.72 163.394C88.3243 163.868 88.1363 164.363 88.1561 164.878C88.1561 165.481 88.3737 166.011 88.8091 166.466C89.2345 166.931 89.8777 167.173 90.7384 167.193C91.2727 167.193 91.7526 167.084 92.1781 166.866C92.6035 166.649 92.93 166.347 93.1576 165.961H93.1873C93.1873 166.288 93.2862 166.56 93.4841 166.777C93.6721 166.985 93.9343 167.094 94.2707 167.104C94.429 167.104 94.5724 167.089 94.7011 167.059C94.8396 167.04 94.9732 166.995 95.1018 166.926ZM93.113 163.824C93.113 164.141 93.0636 164.447 92.9646 164.744C92.8558 165.031 92.6925 165.293 92.4749 165.531C92.2671 165.738 92.0346 165.892 91.7773 165.991C91.5102 166.09 91.2282 166.139 90.9314 166.139C90.407 166.129 90.0261 165.996 89.7886 165.738C89.561 165.491 89.4473 165.194 89.4473 164.848C89.467 164.383 89.6451 164.047 89.9815 163.839C90.3278 163.631 90.6989 163.517 91.0946 163.497L93.113 163.379V163.824ZM99.6669 167V165.931C99.6669 165.931 99.6322 165.931 99.563 165.931C99.4937 165.941 99.3552 165.946 99.1474 165.946C98.8902 165.946 98.7121 165.882 98.6131 165.753C98.5142 165.625 98.4647 165.432 98.4647 165.175V156.285H97.2032V165.249C97.2032 165.842 97.3269 166.298 97.5742 166.614C97.8315 166.931 98.2322 167.089 98.7764 167.089C99.0831 167.089 99.3057 167.074 99.4442 167.045C99.5927 167.015 99.6669 167 99.6669 167ZM104.134 167V165.931C104.134 165.931 104.1 165.931 104.03 165.931C103.961 165.941 103.823 165.946 103.615 165.946C103.358 165.946 103.18 165.882 103.081 165.753C102.982 165.625 102.932 165.432 102.932 165.175V156.285H101.671V165.249C101.671 165.842 101.794 166.298 102.042 166.614C102.299 166.931 102.7 167.089 103.244 167.089C103.551 167.089 103.773 167.074 103.912 167.045C104.06 167.015 104.134 167 104.134 167ZM112.238 162.904C112.248 162.389 112.169 161.904 112 161.449C111.832 160.994 111.595 160.598 111.288 160.262C111.011 159.965 110.684 159.728 110.309 159.55C109.923 159.381 109.487 159.297 109.002 159.297C108.349 159.307 107.781 159.456 107.296 159.743C106.811 160.03 106.435 160.406 106.168 160.871C105.96 161.217 105.812 161.593 105.723 161.998C105.634 162.394 105.589 162.82 105.589 163.275C105.589 163.809 105.668 164.319 105.826 164.803C105.985 165.278 106.217 165.699 106.524 166.065C106.811 166.411 107.167 166.683 107.593 166.881C108.018 167.089 108.493 167.193 109.017 167.193C109.374 167.193 109.715 167.143 110.041 167.045C110.368 166.946 110.665 166.807 110.932 166.629C111.239 166.411 111.496 166.144 111.704 165.828C111.901 165.501 112.03 165.15 112.089 164.774H110.858C110.808 164.972 110.749 165.13 110.68 165.249C110.6 165.377 110.511 165.491 110.412 165.59C110.254 165.748 110.056 165.872 109.819 165.961C109.581 166.04 109.314 166.08 109.017 166.08C108.73 166.08 108.473 166.035 108.246 165.946C108.008 165.847 107.805 165.714 107.637 165.546C107.41 165.308 107.231 165.021 107.103 164.685C106.974 164.348 106.91 164.007 106.91 163.661H112.223L112.238 162.904ZM110.947 162.577H106.94C106.949 162.003 107.128 161.499 107.474 161.063C107.81 160.618 108.32 160.386 109.002 160.366C109.339 160.366 109.631 160.425 109.878 160.544C110.125 160.673 110.328 160.841 110.487 161.049C110.635 161.256 110.749 161.489 110.828 161.746C110.907 162.013 110.947 162.29 110.947 162.577ZM118.394 166.896V165.813C118.374 165.823 118.226 165.842 117.949 165.872C117.671 165.912 117.39 165.936 117.103 165.946C116.756 165.946 116.499 165.867 116.331 165.709C116.173 165.541 116.093 165.278 116.093 164.922V160.574H118.32V159.49H116.093V157.279L114.832 157.576V159.49H113.377V160.574H114.832V165.071C114.812 165.595 114.956 166.06 115.262 166.466C115.559 166.871 116.103 167.084 116.895 167.104C117.241 167.104 117.538 167.079 117.785 167.03C118.023 166.99 118.226 166.946 118.394 166.896ZM131.725 164.061C131.715 163.488 131.556 162.968 131.25 162.503C130.943 162.038 130.518 161.712 129.973 161.524C130.468 161.336 130.844 161.029 131.101 160.603C131.359 160.178 131.487 159.708 131.487 159.193C131.487 158.818 131.428 158.486 131.309 158.199C131.181 157.922 131.012 157.67 130.805 157.442C130.508 157.126 130.132 156.883 129.677 156.715C129.212 156.557 128.732 156.478 128.237 156.478H124.037V167H128.282C128.806 167 129.301 166.921 129.766 166.763C130.231 166.594 130.617 166.352 130.923 166.035C131.161 165.788 131.354 165.501 131.502 165.175C131.65 164.858 131.725 164.487 131.725 164.061ZM130.137 159.297C130.127 159.881 129.954 160.307 129.617 160.574C129.281 160.831 128.836 160.96 128.282 160.96H125.328V157.65H128.237C128.761 157.65 129.207 157.789 129.573 158.066C129.929 158.333 130.117 158.743 130.137 159.297ZM130.374 163.972C130.364 164.596 130.161 165.051 129.766 165.338C129.37 165.635 128.875 165.783 128.282 165.783H125.328V162.117H128.311C128.885 162.117 129.37 162.28 129.766 162.607C130.152 162.924 130.354 163.379 130.374 163.972ZM140.288 166.926V165.991C140.278 165.991 140.238 165.996 140.169 166.006C140.1 166.025 140.03 166.035 139.961 166.035C139.833 166.035 139.734 166.001 139.664 165.931C139.585 165.862 139.546 165.729 139.546 165.531V161.895C139.546 161.459 139.471 161.073 139.323 160.737C139.145 160.321 138.843 159.98 138.418 159.713C137.982 159.446 137.403 159.307 136.681 159.297C136.216 159.297 135.781 159.362 135.375 159.49C134.96 159.629 134.623 159.832 134.366 160.099C134.168 160.297 134.015 160.524 133.906 160.782C133.787 161.039 133.723 161.336 133.713 161.672H134.945C134.945 161.484 134.979 161.316 135.049 161.167C135.108 161.019 135.197 160.885 135.316 160.767C135.444 160.638 135.618 160.534 135.835 160.455C136.063 160.366 136.345 160.321 136.681 160.321C136.988 160.321 137.24 160.356 137.438 160.425C137.636 160.495 137.794 160.589 137.913 160.707C138.081 160.866 138.19 161.049 138.24 161.256C138.289 161.464 138.309 161.662 138.299 161.85V162.399L136.013 162.533C135.004 162.622 134.302 162.909 133.906 163.394C133.51 163.868 133.322 164.363 133.342 164.878C133.342 165.481 133.56 166.011 133.995 166.466C134.42 166.931 135.064 167.173 135.924 167.193C136.459 167.193 136.938 167.084 137.364 166.866C137.789 166.649 138.116 166.347 138.343 165.961H138.373C138.373 166.288 138.472 166.56 138.67 166.777C138.858 166.985 139.12 167.094 139.457 167.104C139.615 167.104 139.758 167.089 139.887 167.059C140.025 167.04 140.159 166.995 140.288 166.926ZM138.299 163.824C138.299 164.141 138.249 164.447 138.151 164.744C138.042 165.031 137.878 165.293 137.661 165.531C137.453 165.738 137.22 165.892 136.963 165.991C136.696 166.09 136.414 166.139 136.117 166.139C135.593 166.129 135.212 165.996 134.974 165.738C134.747 165.491 134.633 165.194 134.633 164.848C134.653 164.383 134.831 164.047 135.167 163.839C135.514 163.631 135.885 163.517 136.281 163.497L138.299 163.379V163.824ZM144.853 167V165.931C144.853 165.931 144.818 165.931 144.749 165.931C144.68 165.941 144.541 165.946 144.333 165.946C144.076 165.946 143.898 165.882 143.799 165.753C143.7 165.625 143.651 165.432 143.651 165.175V156.285H142.389V165.249C142.389 165.842 142.513 166.298 142.76 166.614C143.017 166.931 143.418 167.089 143.962 167.089C144.269 167.089 144.492 167.074 144.63 167.045C144.779 167.015 144.853 167 144.853 167ZM153.194 166.926V165.991C153.184 165.991 153.144 165.996 153.075 166.006C153.006 166.025 152.937 166.035 152.867 166.035C152.739 166.035 152.64 166.001 152.57 165.931C152.491 165.862 152.452 165.729 152.452 165.531V161.895C152.452 161.459 152.377 161.073 152.229 160.737C152.051 160.321 151.749 159.98 151.324 159.713C150.888 159.446 150.31 159.307 149.587 159.297C149.122 159.297 148.687 159.362 148.281 159.49C147.866 159.629 147.529 159.832 147.272 160.099C147.074 160.297 146.921 160.524 146.812 160.782C146.693 161.039 146.629 161.336 146.619 161.672H147.851C147.851 161.484 147.886 161.316 147.955 161.167C148.014 161.019 148.103 160.885 148.222 160.767C148.351 160.638 148.524 160.534 148.741 160.455C148.969 160.366 149.251 160.321 149.587 160.321C149.894 160.321 150.146 160.356 150.344 160.425C150.542 160.495 150.7 160.589 150.819 160.707C150.987 160.866 151.096 161.049 151.146 161.256C151.195 161.464 151.215 161.662 151.205 161.85V162.399L148.919 162.533C147.91 162.622 147.208 162.909 146.812 163.394C146.416 163.868 146.228 164.363 146.248 164.878C146.248 165.481 146.466 166.011 146.901 166.466C147.327 166.931 147.97 167.173 148.83 167.193C149.365 167.193 149.845 167.084 150.27 166.866C150.695 166.649 151.022 166.347 151.25 165.961H151.279C151.279 166.288 151.378 166.56 151.576 166.777C151.764 166.985 152.026 167.094 152.363 167.104C152.521 167.104 152.664 167.089 152.793 167.059C152.932 167.04 153.065 166.995 153.194 166.926ZM151.205 163.824C151.205 164.141 151.156 164.447 151.057 164.744C150.948 165.031 150.785 165.293 150.567 165.531C150.359 165.738 150.127 165.892 149.869 165.991C149.602 166.09 149.32 166.139 149.023 166.139C148.499 166.129 148.118 165.996 147.881 165.738C147.653 165.491 147.539 165.194 147.539 164.848C147.559 164.383 147.737 164.047 148.074 163.839C148.42 163.631 148.791 163.517 149.187 163.497L151.205 163.379V163.824ZM161.41 167V162.058C161.41 161.187 161.192 160.509 160.757 160.025C160.312 159.55 159.663 159.307 158.813 159.297C158.367 159.297 157.932 159.411 157.507 159.639C157.071 159.856 156.75 160.183 156.542 160.618L156.438 159.49H155.34V167H156.601V163.512C156.601 163.215 156.616 162.894 156.646 162.548C156.675 162.201 156.75 161.885 156.868 161.598C157.037 161.251 157.259 160.974 157.536 160.767C157.813 160.559 158.135 160.45 158.501 160.44C159.085 160.44 159.51 160.598 159.777 160.915C160.034 161.232 160.158 161.672 160.148 162.236V167H161.41ZM170.002 164.477H168.726C168.696 164.724 168.637 164.937 168.548 165.115C168.469 165.293 168.36 165.452 168.221 165.59C168.073 165.748 167.89 165.872 167.672 165.961C167.445 166.05 167.202 166.095 166.945 166.095C166.658 166.095 166.411 166.05 166.203 165.961C165.985 165.872 165.797 165.753 165.639 165.605C165.352 165.348 165.154 165.006 165.045 164.581C164.927 164.155 164.872 163.71 164.882 163.245C164.872 162.78 164.927 162.335 165.045 161.909C165.154 161.484 165.352 161.143 165.639 160.885C165.797 160.737 165.985 160.618 166.203 160.529C166.411 160.44 166.658 160.396 166.945 160.396C167.192 160.396 167.42 160.435 167.628 160.514C167.835 160.603 168.014 160.717 168.162 160.856C168.301 160.994 168.419 161.157 168.518 161.345C168.607 161.543 168.667 161.771 168.696 162.028H169.973C169.943 161.623 169.849 161.261 169.691 160.945C169.542 160.628 169.339 160.346 169.082 160.099C168.825 159.842 168.513 159.644 168.147 159.505C167.791 159.367 167.39 159.297 166.945 159.297C166.272 159.307 165.713 159.446 165.268 159.713C164.833 159.97 164.481 160.302 164.214 160.707C164.016 161.004 163.863 161.36 163.754 161.776C163.645 162.191 163.591 162.681 163.591 163.245C163.591 163.809 163.645 164.299 163.754 164.714C163.863 165.13 164.016 165.486 164.214 165.783C164.481 166.189 164.838 166.52 165.283 166.777C165.728 167.045 166.287 167.183 166.96 167.193C167.415 167.193 167.826 167.124 168.192 166.985C168.548 166.837 168.86 166.634 169.127 166.377C169.384 166.129 169.587 165.852 169.735 165.546C169.884 165.229 169.973 164.873 170.002 164.477ZM178.272 162.904C178.282 162.389 178.203 161.904 178.035 161.449C177.867 160.994 177.629 160.598 177.322 160.262C177.045 159.965 176.719 159.728 176.343 159.55C175.957 159.381 175.522 159.297 175.037 159.297C174.384 159.307 173.815 159.456 173.33 159.743C172.845 160.03 172.469 160.406 172.202 160.871C171.994 161.217 171.846 161.593 171.757 161.998C171.668 162.394 171.623 162.82 171.623 163.275C171.623 163.809 171.703 164.319 171.861 164.803C172.019 165.278 172.252 165.699 172.558 166.065C172.845 166.411 173.201 166.683 173.627 166.881C174.052 167.089 174.527 167.193 175.052 167.193C175.408 167.193 175.749 167.143 176.076 167.045C176.402 166.946 176.699 166.807 176.966 166.629C177.273 166.411 177.53 166.144 177.738 165.828C177.936 165.501 178.064 165.15 178.124 164.774H176.892C176.843 164.972 176.783 165.13 176.714 165.249C176.635 165.377 176.546 165.491 176.447 165.59C176.288 165.748 176.091 165.872 175.853 165.961C175.616 166.04 175.349 166.08 175.052 166.08C174.765 166.08 174.508 166.035 174.28 165.946C174.042 165.847 173.84 165.714 173.671 165.546C173.444 165.308 173.266 165.021 173.137 164.685C173.009 164.348 172.944 164.007 172.944 163.661H178.257L178.272 162.904ZM176.981 162.577H172.974C172.984 162.003 173.162 161.499 173.508 161.063C173.845 160.618 174.354 160.386 175.037 160.366C175.373 160.366 175.665 160.425 175.912 160.544C176.16 160.673 176.363 160.841 176.521 161.049C176.669 161.256 176.783 161.489 176.862 161.746C176.941 162.013 176.981 162.29 176.981 162.577Z" fill="#6F6E95"/>
<rect x="24.6746" y="192.675" width="565.318" height="168.651" rx="4.72222" fill="#0D0D18" stroke="black" stroke-width="1.34921"/>
<rect x="231.778" y="81.4126" width="299.524" height="58.0159" rx="5.39683" fill="black"/>
<rect x="237.171" y="252.413" width="299.524" height="58.0159" rx="5.39683" fill="black"/>
<path d="M77.271 240.032V227.596H75.6749V240.032H77.271ZM87.8301 240.032V234.191C87.8301 233.162 87.5729 232.361 87.0584 231.788C86.5322 231.227 85.7663 230.94 84.7607 230.929C84.2345 230.929 83.72 231.063 83.2172 231.332C82.7027 231.589 82.3227 231.975 82.0771 232.49L81.9543 231.157H80.6564V240.032H82.1473V235.91C82.1473 235.559 82.1648 235.179 82.1999 234.77C82.235 234.361 82.3227 233.986 82.463 233.647C82.6618 233.238 82.9249 232.911 83.2523 232.665C83.5797 232.42 83.9597 232.291 84.3924 232.279C85.0823 232.279 85.5851 232.466 85.9008 232.84C86.2048 233.215 86.351 233.735 86.3393 234.402V240.032H87.8301ZM95.5118 239.909V238.629C95.4885 238.64 95.3131 238.664 94.9856 238.699C94.6582 238.745 94.325 238.775 93.9859 238.786C93.5766 238.786 93.2726 238.693 93.0738 238.506C92.8867 238.307 92.7932 237.997 92.7932 237.576V232.437H95.4241V231.157H92.7932V228.543L91.3023 228.894V231.157H89.5834V232.437H91.3023V237.752C91.2789 238.371 91.4485 238.921 91.811 239.4C92.1618 239.88 92.8049 240.131 93.7403 240.155C94.1496 240.155 94.5004 240.125 94.7927 240.067C95.0733 240.02 95.3131 239.967 95.5118 239.909ZM104.874 235.594C104.886 234.893 104.798 234.232 104.611 233.612C104.424 232.992 104.09 232.443 103.611 231.963C103.284 231.648 102.898 231.396 102.453 231.209C101.997 231.022 101.489 230.929 100.927 230.929C100.366 230.929 99.8576 231.022 99.4015 231.209C98.9572 231.396 98.5713 231.648 98.2439 231.963C97.7645 232.443 97.4312 232.992 97.2442 233.612C97.0571 234.232 96.9694 234.893 96.9811 235.594C96.9694 236.296 97.0571 236.956 97.2442 237.576C97.4312 238.196 97.7645 238.745 98.2439 239.225C98.5713 239.541 98.9572 239.792 99.4015 239.979C99.8576 240.166 100.366 240.26 100.927 240.26C101.489 240.26 101.997 240.166 102.453 239.979C102.898 239.792 103.284 239.541 103.611 239.225C104.09 238.745 104.424 238.196 104.611 237.576C104.798 236.956 104.886 236.296 104.874 235.594ZM103.348 235.594C103.348 236.12 103.289 236.629 103.173 237.12C103.056 237.6 102.839 238.009 102.524 238.348C102.337 238.535 102.114 238.687 101.857 238.804C101.588 238.921 101.278 238.979 100.927 238.979C100.577 238.979 100.267 238.921 99.9979 238.804C99.7406 238.687 99.5185 238.535 99.3314 238.348C99.0157 238.009 98.7993 237.6 98.6824 237.12C98.5655 236.629 98.507 236.12 98.507 235.594C98.507 235.068 98.5655 234.559 98.6824 234.068C98.7993 233.589 99.0157 233.18 99.3314 232.84C99.5185 232.653 99.7406 232.501 99.9979 232.384C100.267 232.268 100.577 232.209 100.927 232.209C101.278 232.209 101.588 232.268 101.857 232.384C102.114 232.501 102.337 232.653 102.524 232.84C102.839 233.18 103.056 233.589 103.173 234.068C103.289 234.559 103.348 235.068 103.348 235.594Z" fill="#8A939F"/>
<path d="M77.271 238.032V225.596H75.6749V238.032H77.271ZM87.8301 238.032V232.191C87.8301 231.162 87.5729 230.361 87.0584 229.788C86.5322 229.227 85.7663 228.94 84.7607 228.929C84.2345 228.929 83.72 229.063 83.2172 229.332C82.7027 229.589 82.3227 229.975 82.0771 230.49L81.9543 229.157H80.6564V238.032H82.1473V233.91C82.1473 233.559 82.1648 233.179 82.1999 232.77C82.235 232.361 82.3227 231.986 82.463 231.647C82.6618 231.238 82.9249 230.911 83.2523 230.665C83.5797 230.42 83.9597 230.291 84.3924 230.279C85.0823 230.279 85.5851 230.466 85.9008 230.84C86.2048 231.215 86.351 231.735 86.3393 232.402V238.032H87.8301ZM95.5118 237.909V236.629C95.4885 236.64 95.3131 236.664 94.9856 236.699C94.6582 236.745 94.325 236.775 93.9859 236.786C93.5766 236.786 93.2726 236.693 93.0738 236.506C92.8867 236.307 92.7932 235.997 92.7932 235.576V230.437H95.4241V229.157H92.7932V226.543L91.3023 226.894V229.157H89.5834V230.437H91.3023V235.752C91.2789 236.371 91.4485 236.921 91.811 237.4C92.1618 237.88 92.8049 238.131 93.7403 238.155C94.1496 238.155 94.5004 238.125 94.7927 238.067C95.0733 238.02 95.3131 237.967 95.5118 237.909ZM104.874 233.594C104.886 232.893 104.798 232.232 104.611 231.612C104.424 230.992 104.09 230.443 103.611 229.963C103.284 229.648 102.898 229.396 102.453 229.209C101.997 229.022 101.489 228.929 100.927 228.929C100.366 228.929 99.8576 229.022 99.4015 229.209C98.9572 229.396 98.5713 229.648 98.2439 229.963C97.7645 230.443 97.4312 230.992 97.2442 231.612C97.0571 232.232 96.9694 232.893 96.9811 233.594C96.9694 234.296 97.0571 234.956 97.2442 235.576C97.4312 236.196 97.7645 236.745 98.2439 237.225C98.5713 237.541 98.9572 237.792 99.4015 237.979C99.8576 238.166 100.366 238.26 100.927 238.26C101.489 238.26 101.997 238.166 102.453 237.979C102.898 237.792 103.284 237.541 103.611 237.225C104.09 236.745 104.424 236.196 104.611 235.576C104.798 234.956 104.886 234.296 104.874 233.594ZM103.348 233.594C103.348 234.12 103.289 234.629 103.173 235.12C103.056 235.6 102.839 236.009 102.524 236.348C102.337 236.535 102.114 236.687 101.857 236.804C101.588 236.921 101.278 236.979 100.927 236.979C100.577 236.979 100.267 236.921 99.9979 236.804C99.7406 236.687 99.5185 236.535 99.3314 236.348C99.0157 236.009 98.7993 235.6 98.6824 235.12C98.5655 234.629 98.507 234.12 98.507 233.594C98.507 233.068 98.5655 232.559 98.6824 232.068C98.7993 231.589 99.0157 231.18 99.3314 230.84C99.5185 230.653 99.7406 230.501 99.9979 230.384C100.267 230.268 100.577 230.209 100.927 230.209C101.278 230.209 101.588 230.268 101.857 230.384C102.114 230.501 102.337 230.653 102.524 230.84C102.839 231.18 103.056 231.589 103.173 232.068C103.289 232.559 103.348 233.068 103.348 233.594Z" fill="#8A939F"/>
<path d="M504.17 238.032V236.576H498.189V225.596H496.628V238.032H504.17ZM507.677 227.122V225.368H505.941V227.122H507.677ZM507.572 238.032V229.157H506.046V238.032H507.572ZM523.12 238.032V232.191C523.12 231.197 522.88 230.408 522.401 229.823C521.909 229.239 521.161 228.94 520.155 228.929C519.582 228.929 519.045 229.069 518.542 229.35C518.039 229.642 517.665 230.063 517.419 230.612C517.22 230.063 516.893 229.648 516.437 229.367C515.993 229.075 515.437 228.929 514.771 228.929C514.256 228.929 513.777 229.051 513.332 229.297C512.876 229.543 512.526 229.917 512.28 230.42L512.14 229.157H510.842V238.032H512.333V233.314C512.333 232.928 512.379 232.53 512.473 232.121C512.555 231.712 512.707 231.361 512.929 231.068C513.116 230.823 513.332 230.63 513.578 230.49C513.835 230.349 514.122 230.279 514.437 230.279C515.139 230.291 515.613 230.484 515.858 230.858C516.115 231.244 516.238 231.753 516.227 232.384V238.032H517.717V233.314C517.717 232.846 517.77 232.401 517.875 231.981C517.981 231.56 518.179 231.191 518.472 230.876C518.647 230.688 518.846 230.542 519.068 230.437C519.29 230.332 519.542 230.279 519.822 230.279C520.512 230.291 520.991 230.484 521.26 230.858C521.518 231.244 521.64 231.753 521.629 232.384V238.032H523.12ZM527.872 227.122V225.368H526.135V227.122H527.872ZM527.766 238.032V229.157H526.24V238.032H527.766ZM535.632 237.909V236.629C535.608 236.64 535.433 236.664 535.106 236.699C534.778 236.745 534.445 236.775 534.106 236.786C533.697 236.786 533.393 236.693 533.194 236.506C533.007 236.307 532.913 235.997 532.913 235.576V230.437H535.544V229.157H532.913V226.543L531.422 226.894V229.157H529.703V230.437H531.422V235.752C531.399 236.371 531.569 236.921 531.931 237.4C532.282 237.88 532.925 238.131 533.86 238.155C534.27 238.155 534.62 238.125 534.913 238.067C535.193 238.02 535.433 237.967 535.632 237.909Z" fill="#8A939F"/>
<path d="M426.25 238.032V225.596H424.058L420.322 235.717L416.568 225.596H414.323V238.032H415.814V227.455L419.673 237.856H420.901L424.759 227.543V238.032H426.25ZM437.07 237.944V236.839C437.059 236.839 437.012 236.845 436.93 236.857C436.848 236.88 436.766 236.892 436.684 236.892C436.532 236.892 436.415 236.851 436.334 236.769C436.24 236.687 436.193 236.529 436.193 236.295V231.998C436.193 231.484 436.106 231.028 435.93 230.63C435.72 230.139 435.363 229.735 434.86 229.42C434.346 229.104 433.662 228.94 432.808 228.929C432.258 228.929 431.744 229.005 431.265 229.157C430.773 229.32 430.376 229.56 430.072 229.876C429.838 230.11 429.657 230.379 429.528 230.683C429.388 230.987 429.312 231.337 429.3 231.735H430.756C430.756 231.513 430.797 231.314 430.879 231.139C430.949 230.963 431.054 230.805 431.194 230.665C431.346 230.513 431.551 230.39 431.808 230.297C432.077 230.191 432.411 230.139 432.808 230.139C433.171 230.139 433.469 230.18 433.703 230.262C433.936 230.344 434.124 230.455 434.264 230.595C434.463 230.782 434.591 230.998 434.65 231.244C434.708 231.489 434.732 231.723 434.72 231.945V232.594L432.019 232.752C430.826 232.858 429.996 233.197 429.528 233.77C429.06 234.331 428.838 234.916 428.862 235.524C428.862 236.237 429.119 236.862 429.633 237.4C430.136 237.95 430.896 238.236 431.914 238.26C432.545 238.26 433.112 238.131 433.615 237.874C434.118 237.617 434.504 237.26 434.773 236.804H434.808C434.808 237.19 434.925 237.511 435.158 237.769C435.381 238.014 435.69 238.143 436.088 238.155C436.275 238.155 436.445 238.137 436.597 238.102C436.76 238.079 436.918 238.026 437.07 237.944ZM434.72 234.278C434.72 234.652 434.661 235.015 434.545 235.366C434.416 235.705 434.223 236.015 433.966 236.295C433.72 236.541 433.445 236.722 433.141 236.839C432.826 236.956 432.492 237.014 432.142 237.014C431.522 237.003 431.072 236.845 430.791 236.541C430.522 236.249 430.388 235.898 430.388 235.488C430.411 234.939 430.621 234.541 431.019 234.296C431.428 234.05 431.867 233.916 432.335 233.892L434.72 233.752V234.278ZM444.219 230.612V229.157C443.985 229.122 443.752 229.104 443.518 229.104C442.945 229.104 442.419 229.239 441.939 229.507C441.471 229.776 441.115 230.18 440.869 230.718L440.746 229.157H439.431V238.032H440.904V234.085C440.893 233.606 440.939 233.103 441.045 232.577C441.138 232.051 441.36 231.606 441.711 231.244C441.91 231.045 442.155 230.881 442.448 230.753C442.728 230.612 443.044 230.542 443.395 230.542C443.524 230.542 443.664 230.548 443.816 230.56C443.956 230.572 444.091 230.589 444.219 230.612ZM453.81 238.032L450.319 232.665L453.477 229.157H451.67L447.653 233.629V225.368H446.162V238.032H447.653V235.646L449.355 233.752L452.126 238.032H453.81ZM462.876 233.191C462.888 232.583 462.795 232.01 462.596 231.472C462.397 230.934 462.116 230.466 461.754 230.069C461.426 229.718 461.041 229.437 460.596 229.227C460.14 229.028 459.626 228.929 459.053 228.929C458.281 228.94 457.609 229.116 457.036 229.455C456.463 229.794 456.018 230.238 455.703 230.788C455.457 231.197 455.282 231.641 455.177 232.121C455.071 232.589 455.019 233.091 455.019 233.629C455.019 234.261 455.112 234.863 455.299 235.436C455.486 235.997 455.761 236.494 456.124 236.927C456.463 237.336 456.884 237.658 457.387 237.891C457.889 238.137 458.451 238.26 459.07 238.26C459.491 238.26 459.895 238.201 460.281 238.084C460.666 237.967 461.017 237.804 461.333 237.593C461.695 237.336 461.999 237.02 462.245 236.646C462.479 236.26 462.631 235.845 462.701 235.401H461.245C461.187 235.635 461.117 235.822 461.035 235.962C460.941 236.114 460.836 236.249 460.719 236.365C460.532 236.553 460.298 236.699 460.017 236.804C459.737 236.898 459.421 236.944 459.07 236.944C458.731 236.944 458.427 236.892 458.158 236.786C457.878 236.669 457.638 236.512 457.439 236.313C457.17 236.032 456.96 235.693 456.808 235.296C456.656 234.898 456.58 234.495 456.58 234.085H462.859L462.876 233.191ZM461.35 232.805H456.615C456.626 232.127 456.837 231.53 457.246 231.016C457.644 230.49 458.246 230.215 459.053 230.191C459.45 230.191 459.795 230.262 460.088 230.402C460.38 230.554 460.62 230.753 460.807 230.998C460.982 231.244 461.117 231.519 461.21 231.823C461.304 232.138 461.35 232.466 461.35 232.805ZM469.976 237.909V236.629C469.953 236.64 469.777 236.664 469.45 236.699C469.123 236.745 468.789 236.775 468.45 236.786C468.041 236.786 467.737 236.693 467.538 236.506C467.351 236.307 467.258 235.997 467.258 235.576V230.437H469.888V229.157H467.258V226.543L465.767 226.894V229.157H464.048V230.437H465.767V235.752C465.743 236.371 465.913 236.921 466.275 237.4C466.626 237.88 467.269 238.131 468.205 238.155C468.614 238.155 468.965 238.125 469.257 238.067C469.538 238.02 469.777 237.967 469.976 237.909Z" fill="white"/>
<path opacity="0.5" d="M259.772 113.957C259.772 114.702 259.746 115.438 259.694 116.166C259.642 116.894 259.538 117.595 259.382 118.271C259.244 118.946 259.027 119.579 258.733 120.168C258.455 120.757 258.083 121.276 257.615 121.727C257.147 122.177 256.576 122.558 255.9 122.87C255.225 123.182 254.393 123.338 253.406 123.338C252.418 123.338 251.587 123.182 250.911 122.87C250.236 122.558 249.664 122.177 249.196 121.727C248.728 121.276 248.347 120.757 248.053 120.168C247.776 119.579 247.559 118.946 247.403 118.271C247.265 117.595 247.169 116.894 247.117 116.166C247.065 115.438 247.039 114.702 247.039 113.957C247.039 113.212 247.065 112.476 247.117 111.749C247.169 111.021 247.265 110.319 247.403 109.644C247.559 108.968 247.776 108.336 248.053 107.747C248.347 107.158 248.728 106.638 249.196 106.188C249.664 105.737 250.236 105.356 250.911 105.045C251.587 104.733 252.418 104.577 253.406 104.577C254.393 104.577 255.225 104.733 255.9 105.045C256.576 105.356 257.147 105.737 257.615 106.188C258.083 106.638 258.455 107.158 258.733 107.747C259.027 108.336 259.244 108.968 259.382 109.644C259.538 110.319 259.642 111.021 259.694 111.749C259.746 112.476 259.772 113.212 259.772 113.957ZM256.472 112.84C256.472 112.268 256.446 111.671 256.394 111.047C256.342 110.423 256.212 109.86 256.004 109.358C255.796 108.838 255.484 108.414 255.069 108.085C254.67 107.756 254.116 107.591 253.406 107.591C252.695 107.591 252.132 107.756 251.717 108.085C251.318 108.414 251.015 108.838 250.807 109.358C250.599 109.86 250.469 110.423 250.417 111.047C250.365 111.671 250.339 112.268 250.339 112.84V115.075C250.339 115.646 250.365 116.244 250.417 116.868C250.469 117.491 250.599 118.063 250.807 118.583C251.015 119.085 251.318 119.501 251.717 119.83C252.132 120.159 252.695 120.324 253.406 120.324C254.116 120.324 254.67 120.159 255.069 119.83C255.484 119.501 255.796 119.085 256.004 118.583C256.212 118.063 256.342 117.491 256.394 116.868C256.446 116.244 256.472 115.646 256.472 115.075V112.84Z" fill="white"/>
<path d="M505.984 332.835C505.994 331.846 505.92 330.98 505.762 330.238C505.603 329.496 505.272 328.863 504.767 328.338C504.52 328.081 504.213 327.873 503.847 327.715C503.481 327.557 503.046 327.478 502.541 327.478C502.036 327.478 501.601 327.557 501.235 327.715C500.869 327.873 500.562 328.081 500.315 328.338C499.81 328.863 499.479 329.496 499.32 330.238C499.162 330.98 499.088 331.846 499.098 332.835C499.088 333.825 499.162 334.69 499.32 335.432C499.479 336.165 499.81 336.793 500.315 337.317C500.562 337.575 500.869 337.782 501.235 337.941C501.601 338.099 502.036 338.183 502.541 338.193C503.046 338.183 503.481 338.099 503.847 337.941C504.213 337.782 504.52 337.575 504.767 337.317C505.272 336.793 505.603 336.165 505.762 335.432C505.92 334.69 505.994 333.825 505.984 332.835ZM504.322 329.837L500.448 334.587C500.419 334.3 500.404 334.008 500.404 333.711C500.404 333.414 500.404 333.122 500.404 332.835C500.384 332.123 500.419 331.43 500.508 330.757C500.597 330.085 500.849 329.531 501.265 329.095C501.413 328.957 501.596 328.843 501.814 328.754C502.022 328.665 502.264 328.62 502.541 328.62C502.818 328.62 503.06 328.665 503.268 328.754C503.486 328.843 503.669 328.957 503.817 329.095C504.035 329.303 504.203 329.55 504.322 329.837ZM504.678 332.835C504.698 333.548 504.663 334.24 504.574 334.913C504.485 335.586 504.233 336.14 503.817 336.575C503.669 336.714 503.486 336.828 503.268 336.917C503.06 337.006 502.818 337.05 502.541 337.05C502.264 337.05 502.022 337.006 501.814 336.917C501.596 336.828 501.413 336.714 501.265 336.575C501.077 336.397 500.923 336.179 500.805 335.922L504.634 331.188C504.653 331.455 504.668 331.727 504.678 332.004C504.678 332.281 504.678 332.558 504.678 332.835ZM512.991 338.015V335.774H510.794V338.015H512.991ZM524.688 332.835C524.697 331.846 524.623 330.98 524.465 330.238C524.307 329.496 523.975 328.863 523.471 328.338C523.223 328.081 522.917 327.873 522.55 327.715C522.184 327.557 521.749 327.478 521.244 327.478C520.74 327.478 520.304 327.557 519.938 327.715C519.572 327.873 519.266 328.081 519.018 328.338C518.514 328.863 518.182 329.496 518.024 330.238C517.866 330.98 517.791 331.846 517.801 332.835C517.791 333.825 517.866 334.69 518.024 335.432C518.182 336.165 518.514 336.793 519.018 337.317C519.266 337.575 519.572 337.782 519.938 337.941C520.304 338.099 520.74 338.183 521.244 338.193C521.749 338.183 522.184 338.099 522.55 337.941C522.917 337.782 523.223 337.575 523.471 337.317C523.975 336.793 524.307 336.165 524.465 335.432C524.623 334.69 524.697 333.825 524.688 332.835ZM523.025 329.837L519.152 334.587C519.122 334.3 519.107 334.008 519.107 333.711C519.107 333.414 519.107 333.122 519.107 332.835C519.087 332.123 519.122 331.43 519.211 330.757C519.3 330.085 519.553 329.531 519.968 329.095C520.116 328.957 520.3 328.843 520.517 328.754C520.725 328.665 520.967 328.62 521.244 328.62C521.521 328.62 521.764 328.665 521.972 328.754C522.189 328.843 522.372 328.957 522.521 329.095C522.738 329.303 522.907 329.55 523.025 329.837ZM523.382 332.835C523.401 333.548 523.367 334.24 523.278 334.913C523.189 335.586 522.936 336.14 522.521 336.575C522.372 336.714 522.189 336.828 521.972 336.917C521.764 337.006 521.521 337.05 521.244 337.05C520.967 337.05 520.725 337.006 520.517 336.917C520.3 336.828 520.116 336.714 519.968 336.575C519.78 336.397 519.627 336.179 519.508 335.922L523.337 331.188C523.357 331.455 523.372 331.727 523.382 332.004C523.382 332.281 523.382 332.558 523.382 332.835ZM534.039 332.835C534.049 331.846 533.975 330.98 533.817 330.238C533.658 329.496 533.327 328.863 532.822 328.338C532.575 328.081 532.268 327.873 531.902 327.715C531.536 327.557 531.101 327.478 530.596 327.478C530.092 327.478 529.656 327.557 529.29 327.715C528.924 327.873 528.617 328.081 528.37 328.338C527.865 328.863 527.534 329.496 527.376 330.238C527.217 330.98 527.143 331.846 527.153 332.835C527.143 333.825 527.217 334.69 527.376 335.432C527.534 336.165 527.865 336.793 528.37 337.317C528.617 337.575 528.924 337.782 529.29 337.941C529.656 338.099 530.092 338.183 530.596 338.193C531.101 338.183 531.536 338.099 531.902 337.941C532.268 337.782 532.575 337.575 532.822 337.317C533.327 336.793 533.658 336.165 533.817 335.432C533.975 334.69 534.049 333.825 534.039 332.835ZM532.377 329.837L528.504 334.587C528.474 334.3 528.459 334.008 528.459 333.711C528.459 333.414 528.459 333.122 528.459 332.835C528.439 332.123 528.474 331.43 528.563 330.757C528.652 330.085 528.904 329.531 529.32 329.095C529.468 328.957 529.651 328.843 529.869 328.754C530.077 328.665 530.319 328.62 530.596 328.62C530.873 328.62 531.116 328.665 531.323 328.754C531.541 328.843 531.724 328.957 531.873 329.095C532.09 329.303 532.258 329.55 532.377 329.837ZM532.733 332.835C532.753 333.548 532.718 334.24 532.629 334.913C532.54 335.586 532.288 336.14 531.873 336.575C531.724 336.714 531.541 336.828 531.323 336.917C531.116 337.006 530.873 337.05 530.596 337.05C530.319 337.05 530.077 337.006 529.869 336.917C529.651 336.828 529.468 336.714 529.32 336.575C529.132 336.397 528.978 336.179 528.86 335.922L532.689 331.188C532.709 331.455 532.723 331.727 532.733 332.004C532.733 332.281 532.733 332.558 532.733 332.835Z" fill="#6F6E95"/>
<path d="M86.8005 327.478H85.5984L83.9213 336.041L81.4873 327.626H80.3L77.8661 336.056L76.189 327.478H74.9572L77.0646 338H78.4597L80.8937 329.526L83.298 338H84.7079L86.8005 327.478ZM95.1013 337.926V336.991C95.0914 336.991 95.0518 336.996 94.9826 337.006C94.9133 337.025 94.844 337.035 94.7748 337.035C94.6462 337.035 94.5472 337.001 94.478 336.931C94.3988 336.862 94.3592 336.729 94.3592 336.531V332.895C94.3592 332.459 94.285 332.073 94.1366 331.737C93.9585 331.321 93.6567 330.98 93.2313 330.713C92.7959 330.446 92.2171 330.307 91.4949 330.297C91.0298 330.297 90.5945 330.362 90.1888 330.49C89.7733 330.629 89.4369 330.832 89.1796 331.099C88.9817 331.297 88.8284 331.524 88.7195 331.782C88.6008 332.039 88.5365 332.336 88.5266 332.672H89.7584C89.7584 332.484 89.7931 332.316 89.8623 332.167C89.9217 332.019 90.0107 331.885 90.1295 331.767C90.2581 331.638 90.4312 331.534 90.6489 331.455C90.8765 331.366 91.1585 331.321 91.4949 331.321C91.8016 331.321 92.0539 331.356 92.2518 331.425C92.4497 331.495 92.608 331.589 92.7267 331.707C92.8949 331.866 93.0037 332.049 93.0532 332.256C93.1027 332.464 93.1225 332.662 93.1126 332.85V333.399L90.827 333.533C89.8178 333.622 89.1153 333.909 88.7195 334.394C88.3238 334.868 88.1358 335.363 88.1556 335.878C88.1556 336.481 88.3732 337.011 88.8086 337.466C89.234 337.931 89.8772 338.173 90.738 338.193C91.2722 338.193 91.7521 338.084 92.1776 337.866C92.603 337.649 92.9295 337.347 93.1571 336.961H93.1868C93.1868 337.288 93.2857 337.56 93.4836 337.777C93.6716 337.985 93.9338 338.094 94.2702 338.104C94.4285 338.104 94.572 338.089 94.7006 338.059C94.8391 338.04 94.9727 337.995 95.1013 337.926ZM93.1126 334.824C93.1126 335.141 93.0631 335.447 92.9641 335.744C92.8553 336.031 92.6921 336.293 92.4744 336.531C92.2666 336.738 92.0341 336.892 91.7768 336.991C91.5097 337.09 91.2277 337.139 90.9309 337.139C90.4065 337.129 90.0256 336.996 89.7881 336.738C89.5606 336.491 89.4468 336.194 89.4468 335.848C89.4666 335.383 89.6447 335.047 89.9811 334.839C90.3274 334.631 90.6984 334.517 91.0941 334.497L93.1126 334.379V334.824ZM99.6664 338V336.931C99.6664 336.931 99.6317 336.931 99.5625 336.931C99.4932 336.941 99.3547 336.946 99.1469 336.946C98.8897 336.946 98.7116 336.882 98.6126 336.753C98.5137 336.625 98.4642 336.432 98.4642 336.175V327.285H97.2027V336.249C97.2027 336.842 97.3264 337.298 97.5738 337.614C97.831 337.931 98.2317 338.089 98.7759 338.089C99.0826 338.089 99.3052 338.074 99.4438 338.045C99.5922 338.015 99.6664 338 99.6664 338ZM104.134 338V336.931C104.134 336.931 104.099 336.931 104.03 336.931C103.961 336.941 103.822 336.946 103.614 336.946C103.357 336.946 103.179 336.882 103.08 336.753C102.981 336.625 102.932 336.432 102.932 336.175V327.285H101.67V336.249C101.67 336.842 101.794 337.298 102.041 337.614C102.298 337.931 102.699 338.089 103.243 338.089C103.55 338.089 103.773 338.074 103.911 338.045C104.06 338.015 104.134 338 104.134 338ZM112.237 333.904C112.247 333.389 112.168 332.904 112 332.449C111.832 331.994 111.594 331.598 111.288 331.262C111.011 330.965 110.684 330.728 110.308 330.55C109.922 330.381 109.487 330.297 109.002 330.297C108.349 330.307 107.78 330.456 107.295 330.743C106.81 331.03 106.434 331.406 106.167 331.871C105.96 332.217 105.811 332.593 105.722 332.998C105.633 333.394 105.589 333.82 105.589 334.275C105.589 334.809 105.668 335.319 105.826 335.803C105.984 336.278 106.217 336.699 106.524 337.065C106.81 337.411 107.167 337.683 107.592 337.881C108.018 338.089 108.492 338.193 109.017 338.193C109.373 338.193 109.714 338.143 110.041 338.045C110.367 337.946 110.664 337.807 110.931 337.629C111.238 337.411 111.495 337.144 111.703 336.828C111.901 336.501 112.03 336.15 112.089 335.774H110.857C110.808 335.972 110.748 336.13 110.679 336.249C110.6 336.377 110.511 336.491 110.412 336.59C110.254 336.748 110.056 336.872 109.818 336.961C109.581 337.04 109.314 337.08 109.017 337.08C108.73 337.08 108.473 337.035 108.245 336.946C108.008 336.847 107.805 336.714 107.637 336.546C107.409 336.308 107.231 336.021 107.102 335.685C106.974 335.348 106.909 335.007 106.909 334.661H112.223L112.237 333.904ZM110.946 333.577H106.939C106.949 333.003 107.127 332.499 107.473 332.063C107.81 331.618 108.319 331.386 109.002 331.366C109.338 331.366 109.63 331.425 109.878 331.544C110.125 331.673 110.328 331.841 110.486 332.049C110.635 332.256 110.748 332.489 110.827 332.746C110.907 333.013 110.946 333.29 110.946 333.577ZM118.393 337.896V336.813C118.373 336.823 118.225 336.842 117.948 336.872C117.671 336.912 117.389 336.936 117.102 336.946C116.756 336.946 116.499 336.867 116.33 336.709C116.172 336.541 116.093 336.278 116.093 335.922V331.574H118.319V330.49H116.093V328.279L114.831 328.576V330.49H113.377V331.574H114.831V336.071C114.812 336.595 114.955 337.06 115.262 337.466C115.559 337.871 116.103 338.084 116.894 338.104C117.241 338.104 117.537 338.079 117.785 338.03C118.022 337.99 118.225 337.946 118.393 337.896ZM131.724 335.061C131.714 334.488 131.556 333.968 131.249 333.503C130.943 333.038 130.517 332.712 129.973 332.524C130.468 332.336 130.844 332.029 131.101 331.603C131.358 331.178 131.487 330.708 131.487 330.193C131.487 329.818 131.427 329.486 131.309 329.199C131.18 328.922 131.012 328.67 130.804 328.442C130.507 328.126 130.131 327.883 129.676 327.715C129.211 327.557 128.731 327.478 128.237 327.478H124.036V338H128.281C128.805 338 129.3 337.921 129.765 337.763C130.23 337.594 130.616 337.352 130.923 337.035C131.16 336.788 131.353 336.501 131.502 336.175C131.65 335.858 131.724 335.487 131.724 335.061ZM130.136 330.297C130.126 330.881 129.953 331.307 129.617 331.574C129.28 331.831 128.835 331.96 128.281 331.96H125.328V328.65H128.237C128.761 328.65 129.206 328.789 129.572 329.066C129.928 329.333 130.116 329.743 130.136 330.297ZM130.374 334.972C130.364 335.596 130.161 336.051 129.765 336.338C129.369 336.635 128.875 336.783 128.281 336.783H125.328V333.117H128.311C128.885 333.117 129.369 333.28 129.765 333.607C130.151 333.924 130.354 334.379 130.374 334.972ZM140.287 337.926V336.991C140.277 336.991 140.238 336.996 140.168 337.006C140.099 337.025 140.03 337.035 139.961 337.035C139.832 337.035 139.733 337.001 139.664 336.931C139.585 336.862 139.545 336.729 139.545 336.531V332.895C139.545 332.459 139.471 332.073 139.322 331.737C139.144 331.321 138.843 330.98 138.417 330.713C137.982 330.446 137.403 330.307 136.681 330.297C136.216 330.297 135.78 330.362 135.375 330.49C134.959 330.629 134.623 330.832 134.365 331.099C134.168 331.297 134.014 331.524 133.905 331.782C133.787 332.039 133.722 332.336 133.712 332.672H134.944C134.944 332.484 134.979 332.316 135.048 332.167C135.108 332.019 135.197 331.885 135.315 331.767C135.444 331.638 135.617 331.534 135.835 331.455C136.062 331.366 136.344 331.321 136.681 331.321C136.987 331.321 137.24 331.356 137.438 331.425C137.636 331.495 137.794 331.589 137.913 331.707C138.081 331.866 138.19 332.049 138.239 332.256C138.289 332.464 138.308 332.662 138.298 332.85V333.399L136.013 333.533C135.004 333.622 134.301 333.909 133.905 334.394C133.51 334.868 133.322 335.363 133.341 335.878C133.341 336.481 133.559 337.011 133.994 337.466C134.42 337.931 135.063 338.173 135.924 338.193C136.458 338.193 136.938 338.084 137.363 337.866C137.789 337.649 138.115 337.347 138.343 336.961H138.373C138.373 337.288 138.472 337.56 138.669 337.777C138.857 337.985 139.12 338.094 139.456 338.104C139.614 338.104 139.758 338.089 139.886 338.059C140.025 338.04 140.159 337.995 140.287 337.926ZM138.298 334.824C138.298 335.141 138.249 335.447 138.15 335.744C138.041 336.031 137.878 336.293 137.66 336.531C137.452 336.738 137.22 336.892 136.963 336.991C136.696 337.09 136.414 337.139 136.117 337.139C135.592 337.129 135.211 336.996 134.974 336.738C134.746 336.491 134.633 336.194 134.633 335.848C134.652 335.383 134.831 335.047 135.167 334.839C135.513 334.631 135.884 334.517 136.28 334.497L138.298 334.379V334.824ZM144.852 338V336.931C144.852 336.931 144.818 336.931 144.748 336.931C144.679 336.941 144.541 336.946 144.333 336.946C144.076 336.946 143.897 336.882 143.799 336.753C143.7 336.625 143.65 336.432 143.65 336.175V327.285H142.389V336.249C142.389 336.842 142.512 337.298 142.76 337.614C143.017 337.931 143.418 338.089 143.962 338.089C144.268 338.089 144.491 338.074 144.63 338.045C144.778 338.015 144.852 338 144.852 338ZM153.193 337.926V336.991C153.183 336.991 153.144 336.996 153.075 337.006C153.005 337.025 152.936 337.035 152.867 337.035C152.738 337.035 152.639 337.001 152.57 336.931C152.491 336.862 152.451 336.729 152.451 336.531V332.895C152.451 332.459 152.377 332.073 152.229 331.737C152.05 331.321 151.749 330.98 151.323 330.713C150.888 330.446 150.309 330.307 149.587 330.297C149.122 330.297 148.686 330.362 148.281 330.49C147.865 330.629 147.529 330.832 147.272 331.099C147.074 331.297 146.92 331.524 146.812 331.782C146.693 332.039 146.628 332.336 146.619 332.672H147.85C147.85 332.484 147.885 332.316 147.954 332.167C148.014 332.019 148.103 331.885 148.221 331.767C148.35 331.638 148.523 331.534 148.741 331.455C148.968 331.366 149.25 331.321 149.587 331.321C149.894 331.321 150.146 331.356 150.344 331.425C150.542 331.495 150.7 331.589 150.819 331.707C150.987 331.866 151.096 332.049 151.145 332.256C151.195 332.464 151.214 332.662 151.205 332.85V333.399L148.919 333.533C147.91 333.622 147.207 333.909 146.812 334.394C146.416 334.868 146.228 335.363 146.248 335.878C146.248 336.481 146.465 337.011 146.901 337.466C147.326 337.931 147.969 338.173 148.83 338.193C149.364 338.193 149.844 338.084 150.27 337.866C150.695 337.649 151.021 337.347 151.249 336.961H151.279C151.279 337.288 151.378 337.56 151.576 337.777C151.764 337.985 152.026 338.094 152.362 338.104C152.52 338.104 152.664 338.089 152.793 338.059C152.931 338.04 153.065 337.995 153.193 337.926ZM151.205 334.824C151.205 335.141 151.155 335.447 151.056 335.744C150.947 336.031 150.784 336.293 150.566 336.531C150.359 336.738 150.126 336.892 149.869 336.991C149.602 337.09 149.32 337.139 149.023 337.139C148.498 337.129 148.118 336.996 147.88 336.738C147.653 336.491 147.539 336.194 147.539 335.848C147.559 335.383 147.737 335.047 148.073 334.839C148.419 334.631 148.79 334.517 149.186 334.497L151.205 334.379V334.824ZM161.409 338V333.058C161.409 332.187 161.192 331.509 160.756 331.025C160.311 330.55 159.663 330.307 158.812 330.297C158.367 330.297 157.931 330.411 157.506 330.639C157.071 330.856 156.749 331.183 156.541 331.618L156.437 330.49H155.339V338H156.601V334.512C156.601 334.215 156.616 333.894 156.645 333.548C156.675 333.201 156.749 332.885 156.868 332.598C157.036 332.251 157.259 331.974 157.536 331.767C157.813 331.559 158.134 331.45 158.5 331.44C159.084 331.44 159.51 331.598 159.777 331.915C160.034 332.232 160.158 332.672 160.148 333.236V338H161.409ZM170.002 335.477H168.725C168.696 335.724 168.636 335.937 168.547 336.115C168.468 336.293 168.359 336.452 168.221 336.59C168.072 336.748 167.889 336.872 167.672 336.961C167.444 337.05 167.202 337.095 166.945 337.095C166.658 337.095 166.41 337.05 166.202 336.961C165.985 336.872 165.797 336.753 165.638 336.605C165.352 336.348 165.154 336.006 165.045 335.581C164.926 335.155 164.872 334.71 164.882 334.245C164.872 333.78 164.926 333.335 165.045 332.909C165.154 332.484 165.352 332.143 165.638 331.885C165.797 331.737 165.985 331.618 166.202 331.529C166.41 331.44 166.658 331.396 166.945 331.396C167.192 331.396 167.419 331.435 167.627 331.514C167.835 331.603 168.013 331.717 168.161 331.856C168.3 331.994 168.419 332.157 168.518 332.345C168.607 332.543 168.666 332.771 168.696 333.028H169.972C169.942 332.623 169.848 332.261 169.69 331.945C169.542 331.628 169.339 331.346 169.082 331.099C168.824 330.842 168.513 330.644 168.147 330.505C167.79 330.367 167.39 330.297 166.945 330.297C166.272 330.307 165.713 330.446 165.267 330.713C164.832 330.97 164.481 331.302 164.214 331.707C164.016 332.004 163.862 332.36 163.754 332.776C163.645 333.191 163.59 333.681 163.59 334.245C163.59 334.809 163.645 335.299 163.754 335.714C163.862 336.13 164.016 336.486 164.214 336.783C164.481 337.189 164.837 337.52 165.282 337.777C165.728 338.045 166.287 338.183 166.959 338.193C167.414 338.193 167.825 338.124 168.191 337.985C168.547 337.837 168.859 337.634 169.126 337.377C169.383 337.129 169.586 336.852 169.735 336.546C169.883 336.229 169.972 335.873 170.002 335.477ZM178.272 333.904C178.282 333.389 178.203 332.904 178.034 332.449C177.866 331.994 177.629 331.598 177.322 331.262C177.045 330.965 176.718 330.728 176.342 330.55C175.957 330.381 175.521 330.297 175.036 330.297C174.383 330.307 173.814 330.456 173.33 330.743C172.845 331.03 172.469 331.406 172.202 331.871C171.994 332.217 171.845 332.593 171.756 332.998C171.667 333.394 171.623 333.82 171.623 334.275C171.623 334.809 171.702 335.319 171.86 335.803C172.019 336.278 172.251 336.699 172.558 337.065C172.845 337.411 173.201 337.683 173.626 337.881C174.052 338.089 174.527 338.193 175.051 338.193C175.407 338.193 175.749 338.143 176.075 338.045C176.402 337.946 176.699 337.807 176.966 337.629C177.272 337.411 177.53 337.144 177.737 336.828C177.935 336.501 178.064 336.15 178.123 335.774H176.892C176.842 335.972 176.783 336.13 176.713 336.249C176.634 336.377 176.545 336.491 176.446 336.59C176.288 336.748 176.09 336.872 175.853 336.961C175.615 337.04 175.348 337.08 175.051 337.08C174.764 337.08 174.507 337.035 174.279 336.946C174.042 336.847 173.839 336.714 173.671 336.546C173.443 336.308 173.265 336.021 173.137 335.685C173.008 335.348 172.944 335.007 172.944 334.661H178.257L178.272 333.904ZM176.981 333.577H172.973C172.983 333.003 173.161 332.499 173.508 332.063C173.844 331.618 174.354 331.386 175.036 331.366C175.373 331.366 175.665 331.425 175.912 331.544C176.159 331.673 176.362 331.841 176.52 332.049C176.669 332.256 176.783 332.489 176.862 332.746C176.941 333.013 176.981 333.29 176.981 333.577Z" fill="#6F6E95"/>
<circle cx="307.31" cy="190.31" r="24.9603" fill="#0D0D18" stroke="black" stroke-width="2.69841"/>
<path d="M302.641 198.701C302.641 198.801 302.601 198.897 302.531 198.968C302.46 199.039 302.364 199.078 302.263 199.078L299.619 199.078C299.519 199.078 299.423 199.039 299.352 198.968C299.281 198.897 299.241 198.801 299.241 198.701L299.241 186.514L296.476 189.101C296.422 189.152 296.355 189.185 296.283 189.198C296.21 189.211 296.136 189.202 296.068 189.173C296.001 189.144 295.944 189.096 295.904 189.035C295.863 188.974 295.842 188.902 295.841 188.829L295.841 185.082C295.841 185.03 295.852 184.979 295.873 184.931C295.894 184.884 295.924 184.841 295.962 184.806L300.684 180.431C300.754 180.367 300.846 180.331 300.941 180.331C301.037 180.331 301.128 180.367 301.198 180.431L305.92 184.806C305.958 184.841 305.989 184.884 306.009 184.931C306.03 184.979 306.041 185.03 306.041 185.082L306.041 188.829C306.041 188.902 306.019 188.974 305.979 189.035C305.939 189.096 305.882 189.144 305.815 189.173C305.747 189.202 305.672 189.211 305.6 189.198C305.527 189.185 305.46 189.152 305.407 189.101L302.641 186.514L302.641 198.701Z" fill="white"/>
<path d="M311.763 180.186L314.407 180.186C314.507 180.186 314.603 180.226 314.674 180.297C314.745 180.368 314.785 180.464 314.785 180.564L314.785 192.751L317.55 190.163C317.604 190.113 317.671 190.079 317.743 190.066C317.816 190.054 317.89 190.062 317.958 190.091C318.025 190.121 318.082 190.169 318.122 190.23C318.163 190.291 318.184 190.362 318.185 190.435L318.185 194.164C318.185 194.216 318.174 194.267 318.153 194.314C318.132 194.362 318.102 194.404 318.064 194.44L313.342 198.833C313.272 198.898 313.18 198.934 313.085 198.934C312.989 198.934 312.898 198.898 312.828 198.833L308.106 194.458C308.065 194.421 308.034 194.375 308.013 194.324C307.992 194.274 307.982 194.219 307.985 194.164L307.985 190.416C307.985 190.343 308.007 190.272 308.047 190.211C308.087 190.15 308.144 190.102 308.211 190.072C308.279 190.043 308.354 190.035 308.426 190.047C308.499 190.06 308.566 190.094 308.619 190.144L311.385 192.751L311.385 180.564C311.385 180.464 311.425 180.368 311.495 180.297C311.566 180.226 311.662 180.186 311.763 180.186Z" fill="white"/>
<path d="M413.249 240.595H472.614" stroke="#5D46CE" stroke-width="1.34921"/>
<path d="M86.4455 289.467C86.4455 290.126 86.3329 290.697 86.1077 291.182C85.8999 291.667 85.6227 292.083 85.2762 292.43C84.7219 292.984 84.0463 293.382 83.2494 293.625C82.4525 293.867 81.5864 293.989 80.6509 293.989C79.7848 293.989 78.9793 293.867 78.2344 293.625C77.4895 293.365 76.8398 292.967 76.2855 292.43C75.8871 292.048 75.5493 291.589 75.2721 291.052C74.9949 290.515 74.8563 289.926 74.8563 289.285H77.8966C77.8966 289.58 77.9659 289.874 78.1044 290.169C78.243 290.463 78.4163 290.697 78.6241 290.871C78.884 291.078 79.1698 291.234 79.4816 291.338C79.8108 291.425 80.2092 291.468 80.6769 291.468C80.9541 291.468 81.2486 291.451 81.5604 291.416C81.8895 291.364 82.1927 291.278 82.4699 291.156C82.747 291.035 82.9722 290.862 83.1455 290.637C83.336 290.411 83.4313 290.117 83.4313 289.753C83.4313 289.355 83.31 289.034 83.0675 288.792C82.825 288.549 82.4959 288.393 82.0801 288.324C81.4738 288.237 80.8502 288.168 80.2092 288.116C79.5682 288.047 78.9446 287.943 78.3383 287.804C77.8706 287.7 77.4462 287.536 77.065 287.311C76.7013 287.085 76.3808 286.817 76.1036 286.505C75.8264 286.176 75.6099 285.821 75.454 285.44C75.3154 285.041 75.2461 284.626 75.2461 284.192C75.2461 283.5 75.376 282.911 75.6359 282.425C75.8957 281.923 76.2249 281.499 76.6233 281.152C77.1257 280.719 77.7233 280.39 78.4163 280.165C79.1092 279.922 79.8801 279.801 80.7289 279.801C81.5431 279.801 82.3226 279.931 83.0675 280.191C83.8297 280.451 84.462 280.849 84.9644 281.386C85.3282 281.785 85.614 282.226 85.8219 282.711C86.0471 283.179 86.1597 283.664 86.1597 284.166H83.0675C83.0675 283.907 83.0155 283.673 82.9116 283.465C82.8077 283.257 82.6777 283.066 82.5218 282.893C82.3313 282.703 82.0714 282.555 81.7423 282.451C81.4305 282.33 81.1013 282.27 80.7549 282.27C80.5124 282.27 80.2785 282.278 80.0533 282.296C79.8281 282.313 79.5942 282.374 79.3517 282.477C79.0572 282.599 78.806 282.781 78.5981 283.023C78.4076 283.266 78.3123 283.56 78.3123 283.907C78.3123 284.392 78.4769 284.729 78.806 284.92C79.1525 285.093 79.5076 285.206 79.8714 285.258C80.1832 285.292 80.4431 285.327 80.6509 285.362C80.8588 285.379 81.0667 285.405 81.2746 285.44C81.4825 285.457 81.699 285.483 81.9242 285.518C82.1494 285.552 82.4266 285.596 82.7557 285.648C83.8297 285.821 84.7132 286.237 85.4061 286.895C86.0991 287.536 86.4455 288.393 86.4455 289.467ZM103.738 288.298C103.738 289.13 103.591 289.9 103.296 290.611C103.002 291.321 102.525 291.927 101.867 292.43C101.139 292.984 100.36 293.33 99.5284 293.469C98.6969 293.608 97.8394 293.677 96.9559 293.677H89.6283V275.228H96.9559C97.7008 275.228 98.4371 275.297 99.1646 275.436C99.9095 275.574 100.594 275.843 101.217 276.241C101.893 276.692 102.413 277.272 102.777 277.982C103.158 278.692 103.348 279.446 103.348 280.243C103.348 280.624 103.305 281.005 103.218 281.386C103.132 281.767 102.993 282.14 102.803 282.503C102.612 282.85 102.369 283.17 102.075 283.465C101.798 283.742 101.469 283.967 101.088 284.14C101.971 284.539 102.629 285.119 103.062 285.881C103.513 286.626 103.738 287.432 103.738 288.298ZM99.9442 280.451C99.9442 280.018 99.8662 279.654 99.7103 279.359C99.5544 279.047 99.3465 278.805 99.0867 278.632C98.8268 278.441 98.5237 278.311 98.1772 278.242C97.8308 278.155 97.467 278.112 97.0859 278.112H92.9543V282.737H97.1638C97.5449 282.737 97.9001 282.703 98.2292 282.633C98.5757 282.547 98.8701 282.417 99.1127 282.244C99.3725 282.07 99.5717 281.836 99.7103 281.542C99.8662 281.248 99.9442 280.884 99.9442 280.451ZM100.334 288.22C100.334 287.233 100.031 286.54 99.4245 286.141C98.8182 285.743 98.0733 285.544 97.1898 285.544H92.9543V290.663H97.0859C97.467 290.663 97.8481 290.628 98.2292 290.559C98.6276 290.472 98.9827 290.333 99.2946 290.143C99.6064 289.952 99.8576 289.701 100.048 289.389C100.239 289.078 100.334 288.688 100.334 288.22ZM113.692 278.346V293.651H110.34V278.346H104.883V275.228H119.149V278.346H113.692ZM134.883 287.778C134.797 288.506 134.615 289.225 134.338 289.935C134.061 290.628 133.654 291.252 133.117 291.806C132.424 292.516 131.618 293.062 130.7 293.443C129.782 293.807 128.829 293.989 127.842 293.989C126.854 293.989 125.91 293.824 125.009 293.495C124.126 293.166 123.329 292.646 122.619 291.936C122.116 291.434 121.709 290.905 121.397 290.351C121.103 289.796 120.878 289.207 120.722 288.584C120.566 287.96 120.462 287.311 120.41 286.635C120.358 285.942 120.332 285.215 120.332 284.452C120.332 283.707 120.358 282.988 120.41 282.296C120.462 281.603 120.566 280.944 120.722 280.321C120.878 279.697 121.103 279.108 121.397 278.554C121.709 277.999 122.116 277.471 122.619 276.969C123.329 276.258 124.126 275.739 125.009 275.41C125.91 275.063 126.854 274.89 127.842 274.89C128.829 274.89 129.782 275.072 130.7 275.436C131.618 275.782 132.424 276.31 133.117 277.021C133.654 277.575 134.061 278.199 134.338 278.892C134.615 279.584 134.797 280.295 134.883 281.022H131.453C131.419 280.624 131.332 280.277 131.194 279.983C131.055 279.671 130.865 279.368 130.622 279.073C130.327 278.692 129.929 278.407 129.427 278.216C128.942 278.025 128.413 277.93 127.842 277.93C127.305 277.93 126.785 278.034 126.283 278.242C125.797 278.45 125.373 278.753 125.009 279.151C124.697 279.481 124.455 279.862 124.282 280.295C124.108 280.728 123.979 281.187 123.892 281.672C123.823 282.14 123.779 282.616 123.762 283.101C123.745 283.586 123.736 284.037 123.736 284.452C123.736 284.868 123.745 285.318 123.762 285.803C123.779 286.289 123.823 286.774 123.892 287.259C123.979 287.726 124.108 288.177 124.282 288.61C124.455 289.043 124.697 289.424 125.009 289.753C125.373 290.152 125.797 290.455 126.283 290.663C126.785 290.871 127.305 290.974 127.842 290.974C128.413 290.974 128.942 290.879 129.427 290.689C129.929 290.481 130.327 290.186 130.622 289.805C131.107 289.216 131.384 288.541 131.453 287.778H134.883Z" fill="white"/>
<path d="M152.171 278.669L163.659 290.158L175.148 278.669" stroke="#5D46CE" stroke-width="3.99765"/>
<path d="M158.921 104.971L170.41 116.46L181.898 104.971" stroke="#5D46CE" stroke-width="3.99765"/>
<path d="M86.446 117.118C86.446 117.776 86.3334 118.348 86.1082 118.833C85.9003 119.318 85.6232 119.734 85.2767 120.08C84.7224 120.635 84.0468 121.033 83.2499 121.276C82.453 121.518 81.5869 121.639 80.6514 121.639C79.7853 121.639 78.9797 121.518 78.2348 121.276C77.49 121.016 76.8403 120.617 76.286 120.08C75.8876 119.699 75.5498 119.24 75.2726 118.703C74.9954 118.166 74.8568 117.577 74.8568 116.936H77.897C77.897 117.231 77.9663 117.525 78.1049 117.82C78.2435 118.114 78.4167 118.348 78.6246 118.521C78.8845 118.729 79.1703 118.885 79.4821 118.989C79.8113 119.075 80.2097 119.119 80.6774 119.119C80.9546 119.119 81.2491 119.101 81.5609 119.067C81.89 119.015 82.1932 118.928 82.4704 118.807C82.7475 118.686 82.9727 118.512 83.146 118.287C83.3365 118.062 83.4318 117.768 83.4318 117.404C83.4318 117.005 83.3105 116.685 83.068 116.442C82.8255 116.2 82.4963 116.044 82.0806 115.975C81.4743 115.888 80.8506 115.819 80.2097 115.767C79.5687 115.697 78.9451 115.594 78.3388 115.455C77.8711 115.351 77.4466 115.186 77.0655 114.961C76.7018 114.736 76.3813 114.468 76.1041 114.156C75.8269 113.827 75.6104 113.471 75.4545 113.09C75.3159 112.692 75.2466 112.276 75.2466 111.843C75.2466 111.15 75.3765 110.561 75.6364 110.076C75.8962 109.574 76.2254 109.149 76.6238 108.803C77.1262 108.37 77.7238 108.041 78.4167 107.815C79.1097 107.573 79.8805 107.452 80.7294 107.452C81.5436 107.452 82.3231 107.582 83.068 107.841C83.8302 108.101 84.4625 108.5 84.9649 109.037C85.3287 109.435 85.6145 109.877 85.8224 110.362C86.0476 110.83 86.1602 111.315 86.1602 111.817H83.068C83.068 111.557 83.016 111.323 82.9121 111.116C82.8082 110.908 82.6782 110.717 82.5223 110.544C82.3318 110.353 82.0719 110.206 81.7428 110.102C81.431 109.981 81.1018 109.92 80.7554 109.92C80.5128 109.92 80.279 109.929 80.0538 109.946C79.8286 109.964 79.5947 110.024 79.3522 110.128C79.0577 110.249 78.8065 110.431 78.5986 110.674C78.4081 110.916 78.3128 111.211 78.3128 111.557C78.3128 112.042 78.4774 112.38 78.8065 112.571C79.153 112.744 79.5081 112.856 79.8719 112.908C80.1837 112.943 80.4435 112.978 80.6514 113.012C80.8593 113.03 81.0672 113.056 81.2751 113.09C81.4829 113.108 81.6995 113.134 81.9247 113.168C82.1499 113.203 82.427 113.246 82.7562 113.298C83.8302 113.471 84.7137 113.887 85.4066 114.545C86.0996 115.186 86.446 116.044 86.446 117.118ZM96.4367 105.997V121.302H93.0847V105.997H87.6279V102.878H101.894V105.997H96.4367ZM117.603 115.819C117.603 116.685 117.455 117.43 117.161 118.053C116.884 118.677 116.52 119.214 116.069 119.664C115.359 120.375 114.493 120.886 113.471 121.198C112.466 121.492 111.392 121.639 110.249 121.639C109.261 121.639 108.283 121.501 107.313 121.224C106.36 120.929 105.502 120.435 104.74 119.742C104.186 119.24 103.727 118.625 103.363 117.898C102.999 117.153 102.817 116.338 102.817 115.455H106.247C106.247 115.905 106.334 116.33 106.507 116.728C106.698 117.109 106.931 117.438 107.209 117.716C107.607 118.114 108.083 118.383 108.638 118.521C109.209 118.642 109.764 118.703 110.301 118.703C110.942 118.703 111.548 118.634 112.12 118.495C112.691 118.339 113.15 118.079 113.497 117.716C113.705 117.49 113.878 117.257 114.017 117.014C114.155 116.754 114.224 116.399 114.224 115.949C114.224 115.273 113.999 114.771 113.549 114.442C113.116 114.095 112.613 113.87 112.042 113.766C111.418 113.645 110.734 113.558 109.989 113.506C109.244 113.454 108.568 113.376 107.962 113.272C107.321 113.168 106.715 112.986 106.143 112.727C105.589 112.467 105.095 112.129 104.662 111.713C104.246 111.28 103.909 110.769 103.649 110.18C103.406 109.574 103.285 108.889 103.285 108.127C103.285 107.4 103.432 106.733 103.727 106.126C104.021 105.52 104.411 104.974 104.896 104.489C105.502 103.883 106.282 103.407 107.235 103.06C108.187 102.714 109.209 102.541 110.301 102.541C111.288 102.541 112.232 102.696 113.133 103.008C114.051 103.303 114.822 103.745 115.446 104.333C116 104.853 116.442 105.442 116.771 106.1C117.117 106.759 117.299 107.478 117.317 108.257H113.887C113.869 107.928 113.783 107.608 113.627 107.296C113.488 106.967 113.306 106.681 113.081 106.438C112.787 106.126 112.371 105.884 111.834 105.711C111.297 105.537 110.777 105.451 110.275 105.451C109.755 105.451 109.218 105.52 108.664 105.659C108.127 105.797 107.668 106.066 107.287 106.464C107.096 106.672 106.94 106.897 106.819 107.14C106.715 107.382 106.663 107.677 106.663 108.023C106.663 108.63 106.836 109.097 107.183 109.426C107.529 109.738 107.979 109.938 108.534 110.024C109.123 110.111 109.781 110.189 110.509 110.258C111.254 110.327 111.929 110.405 112.535 110.492C113.228 110.596 113.878 110.786 114.484 111.064C115.108 111.323 115.645 111.679 116.095 112.129C116.563 112.562 116.927 113.09 117.187 113.714C117.464 114.338 117.603 115.039 117.603 115.819ZM120.612 121.302V102.878H123.964V118.131H132.513V121.302H120.612ZM145.839 121.302L144.643 117.768H137.316L136.12 121.302H132.742L139.212 102.878H142.876L149.346 121.302H145.839ZM140.979 106.984L138.355 114.753H143.604L140.979 106.984Z" fill="white"/>
<path d="M241.223 92.8809V131.333" stroke="#5D46CE" stroke-width="1.34921"/>
<path opacity="0.5" d="M261.74 281.608C261.74 282.353 261.714 283.089 261.662 283.817C261.61 284.544 261.506 285.246 261.35 285.922C261.211 286.597 260.995 287.23 260.7 287.819C260.423 288.408 260.051 288.927 259.583 289.378C259.115 289.828 258.544 290.209 257.868 290.521C257.192 290.833 256.361 290.989 255.373 290.989C254.386 290.989 253.554 290.833 252.879 290.521C252.203 290.209 251.632 289.828 251.164 289.378C250.696 288.927 250.315 288.408 250.021 287.819C249.743 287.23 249.527 286.597 249.371 285.922C249.232 285.246 249.137 284.544 249.085 283.817C249.033 283.089 249.007 282.353 249.007 281.608C249.007 280.863 249.033 280.127 249.085 279.399C249.137 278.672 249.232 277.97 249.371 277.295C249.527 276.619 249.743 275.987 250.021 275.398C250.315 274.809 250.696 274.289 251.164 273.839C251.632 273.388 252.203 273.007 252.879 272.695C253.554 272.384 254.386 272.228 255.373 272.228C256.361 272.228 257.192 272.384 257.868 272.695C258.544 273.007 259.115 273.388 259.583 273.839C260.051 274.289 260.423 274.809 260.7 275.398C260.995 275.987 261.211 276.619 261.35 277.295C261.506 277.97 261.61 278.672 261.662 279.399C261.714 280.127 261.74 280.863 261.74 281.608ZM258.44 280.491C258.44 279.919 258.414 279.322 258.362 278.698C258.31 278.074 258.18 277.511 257.972 277.009C257.764 276.489 257.452 276.065 257.036 275.736C256.638 275.407 256.084 275.242 255.373 275.242C254.663 275.242 254.1 275.407 253.684 275.736C253.286 276.065 252.983 276.489 252.775 277.009C252.567 277.511 252.437 278.074 252.385 278.698C252.333 279.322 252.307 279.919 252.307 280.491V282.726C252.307 283.297 252.333 283.895 252.385 284.518C252.437 285.142 252.567 285.714 252.775 286.233C252.983 286.736 253.286 287.152 253.684 287.481C254.1 287.81 254.663 287.974 255.373 287.974C256.084 287.974 256.638 287.81 257.036 287.481C257.452 287.152 257.764 286.736 257.972 286.233C258.18 285.714 258.31 285.142 258.362 284.518C258.414 283.895 258.44 283.297 258.44 282.726V280.491Z" fill="white"/>
<path d="M503.463 124.935V118.271H502.142V124.965C502.152 125.816 501.959 126.488 501.563 126.983C501.167 127.488 500.519 127.745 499.619 127.755C498.719 127.745 498.071 127.488 497.675 126.983C497.279 126.488 497.086 125.816 497.096 124.965V118.271H495.775V124.935C495.785 126.251 496.131 127.255 496.814 127.948C497.487 128.64 498.422 128.987 499.619 128.987C500.816 128.987 501.751 128.64 502.424 127.948C503.107 127.255 503.453 126.251 503.463 124.935ZM513.477 125.9C513.467 125.069 513.2 124.396 512.675 123.881C512.151 123.367 511.444 123.045 510.553 122.917C510.266 122.867 509.974 122.823 509.677 122.783C509.391 122.734 509.099 122.689 508.802 122.649C508.396 122.6 508.035 122.456 507.718 122.219C507.412 121.991 507.248 121.64 507.229 121.165C507.229 120.928 507.268 120.715 507.347 120.527C507.417 120.349 507.521 120.181 507.659 120.023C507.887 119.765 508.164 119.577 508.49 119.459C508.807 119.35 509.153 119.295 509.529 119.295C509.935 119.295 510.296 119.36 510.612 119.488C510.929 119.617 511.186 119.795 511.384 120.023C511.533 120.191 511.651 120.389 511.74 120.616C511.829 120.844 511.884 121.086 511.904 121.343H513.284C513.254 120.453 512.918 119.701 512.275 119.088C511.918 118.751 511.503 118.499 511.028 118.331C510.553 118.162 510.058 118.078 509.544 118.078C508.99 118.078 508.485 118.167 508.03 118.345C507.565 118.514 507.149 118.771 506.783 119.117C506.496 119.384 506.274 119.701 506.116 120.067C505.947 120.423 505.863 120.799 505.863 121.195C505.883 122.026 506.155 122.669 506.68 123.124C507.204 123.579 507.867 123.866 508.668 123.985C508.945 124.025 509.222 124.064 509.499 124.104C509.766 124.153 510.044 124.198 510.33 124.237C510.954 124.336 511.404 124.539 511.681 124.846C511.958 125.153 512.097 125.514 512.097 125.929C512.097 126.206 512.047 126.444 511.948 126.642C511.859 126.84 511.73 127.013 511.562 127.161C511.325 127.379 511.038 127.537 510.701 127.636C510.375 127.725 510.009 127.77 509.603 127.77C509.227 127.77 508.856 127.72 508.49 127.621C508.134 127.512 507.832 127.344 507.585 127.117C507.367 126.909 507.189 126.657 507.051 126.36C506.912 126.073 506.843 125.771 506.843 125.454H505.463C505.472 125.959 505.576 126.424 505.774 126.849C505.982 127.285 506.254 127.661 506.59 127.977C506.947 128.304 507.377 128.551 507.882 128.719C508.386 128.898 508.96 128.987 509.603 128.987C510.177 128.987 510.726 128.898 511.251 128.719C511.765 128.551 512.21 128.289 512.586 127.933C512.853 127.686 513.066 127.394 513.225 127.057C513.393 126.721 513.477 126.335 513.477 125.9ZM523.625 123.525C523.645 122.753 523.565 122.001 523.387 121.269C523.209 120.547 522.838 119.904 522.274 119.34C521.898 118.984 521.473 118.716 520.998 118.538C520.523 118.36 520.028 118.271 519.514 118.271H515.848V128.794H519.514C520.028 128.794 520.523 128.705 520.998 128.527C521.473 128.358 521.898 128.096 522.274 127.74C522.828 127.176 523.194 126.523 523.372 125.781C523.56 125.049 523.645 124.297 523.625 123.525ZM522.289 123.525C522.299 124.109 522.254 124.698 522.155 125.291C522.047 125.895 521.789 126.414 521.384 126.849C521.136 127.097 520.849 127.28 520.523 127.399C520.196 127.517 519.86 127.577 519.514 127.577H517.169V119.488H519.514C519.86 119.488 520.196 119.548 520.523 119.666C520.849 119.785 521.136 119.968 521.384 120.215C521.789 120.661 522.047 121.18 522.155 121.774C522.254 122.367 522.299 122.951 522.289 123.525Z" fill="#6F6E95"/>
<path d="M511.779 99.7846C511.779 99.7365 511.798 99.6904 511.832 99.6564C511.866 99.6224 511.912 99.6033 511.96 99.6033L513.23 99.6033C513.278 99.6033 513.324 99.6224 513.358 99.6564C513.392 99.6904 513.411 99.7365 513.411 99.7846L513.411 105.634L514.738 104.392C514.764 104.368 514.796 104.352 514.831 104.346C514.866 104.34 514.902 104.344 514.934 104.358C514.966 104.372 514.994 104.395 515.013 104.424C515.032 104.453 515.043 104.488 515.043 104.523L515.043 106.322C515.043 106.346 515.038 106.371 515.028 106.394C515.018 106.417 515.003 106.437 514.985 106.454L512.718 108.554C512.685 108.585 512.641 108.602 512.595 108.602C512.549 108.602 512.505 108.585 512.472 108.554L510.205 106.454C510.187 106.437 510.172 106.417 510.162 106.394C510.152 106.371 510.147 106.346 510.147 106.322L510.147 104.523C510.147 104.488 510.158 104.453 510.177 104.424C510.196 104.395 510.224 104.372 510.256 104.358C510.288 104.344 510.324 104.34 510.359 104.346C510.394 104.352 510.426 104.368 510.452 104.392L511.779 105.634L511.779 99.7846Z" fill="white"/>
<path d="M506.05 106.671L504.78 106.671C504.732 106.671 504.686 106.651 504.652 106.617C504.618 106.583 504.599 106.537 504.599 106.489L504.599 100.639L503.272 101.882C503.246 101.906 503.214 101.922 503.179 101.928C503.144 101.934 503.108 101.93 503.076 101.916C503.044 101.902 503.016 101.879 502.997 101.85C502.978 101.82 502.967 101.786 502.967 101.751L502.967 99.9613C502.967 99.9364 502.972 99.9118 502.982 99.889C502.992 99.8663 503.007 99.8458 503.025 99.8289L505.292 97.72C505.325 97.6889 505.369 97.6716 505.415 97.6716C505.461 97.6716 505.505 97.6889 505.538 97.72L507.805 99.8198C507.824 99.8378 507.84 99.8597 507.85 99.8841C507.86 99.9086 507.864 99.9349 507.863 99.9613L507.863 101.76C507.863 101.795 507.852 101.829 507.833 101.859C507.814 101.888 507.786 101.911 507.754 101.925C507.722 101.939 507.686 101.943 507.651 101.937C507.616 101.931 507.584 101.915 507.558 101.891L506.231 100.639L506.231 106.489C506.231 106.537 506.212 106.583 506.178 106.617C506.144 106.651 506.098 106.671 506.05 106.671Z" fill="white"/>
<path d="M510.207 295.935V289.271H508.886V295.965C508.896 296.816 508.703 297.488 508.307 297.983C507.912 298.488 507.264 298.745 506.363 298.755C505.463 298.745 504.815 298.488 504.419 297.983C504.023 297.488 503.83 296.816 503.84 295.965V289.271H502.519V295.935C502.529 297.251 502.875 298.255 503.558 298.948C504.231 299.64 505.166 299.987 506.363 299.987C507.56 299.987 508.495 299.64 509.168 298.948C509.851 298.255 510.197 297.251 510.207 295.935ZM520.221 296.9C520.211 296.069 519.944 295.396 519.42 294.881C518.895 294.367 518.188 294.045 517.297 293.917C517.01 293.867 516.718 293.823 516.422 293.783C516.135 293.734 515.843 293.689 515.546 293.649C515.14 293.6 514.779 293.456 514.463 293.219C514.156 292.991 513.993 292.64 513.973 292.165C513.973 291.928 514.012 291.715 514.092 291.527C514.161 291.349 514.265 291.181 514.403 291.023C514.631 290.765 514.908 290.577 515.234 290.459C515.551 290.35 515.897 290.295 516.273 290.295C516.679 290.295 517.04 290.36 517.357 290.488C517.673 290.617 517.93 290.795 518.128 291.023C518.277 291.191 518.395 291.389 518.485 291.616C518.574 291.844 518.628 292.086 518.648 292.343H520.028C519.998 291.453 519.662 290.701 519.019 290.088C518.663 289.751 518.247 289.499 517.772 289.331C517.297 289.162 516.803 289.078 516.288 289.078C515.734 289.078 515.229 289.167 514.774 289.345C514.309 289.514 513.894 289.771 513.528 290.117C513.241 290.384 513.018 290.701 512.86 291.067C512.691 291.423 512.607 291.799 512.607 292.195C512.627 293.026 512.899 293.669 513.424 294.124C513.948 294.579 514.611 294.866 515.412 294.985C515.689 295.025 515.966 295.064 516.243 295.104C516.511 295.153 516.788 295.198 517.075 295.237C517.698 295.336 518.148 295.539 518.425 295.846C518.702 296.153 518.841 296.514 518.841 296.929C518.841 297.206 518.791 297.444 518.692 297.642C518.603 297.84 518.475 298.013 518.306 298.161C518.069 298.379 517.782 298.537 517.446 298.636C517.119 298.725 516.753 298.77 516.347 298.77C515.971 298.77 515.6 298.72 515.234 298.621C514.878 298.512 514.576 298.344 514.329 298.117C514.111 297.909 513.933 297.657 513.795 297.36C513.656 297.073 513.587 296.771 513.587 296.454H512.207C512.217 296.959 512.32 297.424 512.518 297.849C512.726 298.285 512.998 298.661 513.335 298.977C513.691 299.304 514.121 299.551 514.626 299.719C515.13 299.898 515.704 299.987 516.347 299.987C516.921 299.987 517.47 299.898 517.995 299.719C518.509 299.551 518.954 299.289 519.33 298.933C519.598 298.686 519.81 298.394 519.969 298.057C520.137 297.721 520.221 297.335 520.221 296.9ZM530.369 294.525C530.389 293.753 530.31 293.001 530.131 292.269C529.953 291.547 529.582 290.904 529.018 290.34C528.642 289.984 528.217 289.716 527.742 289.538C527.267 289.36 526.772 289.271 526.258 289.271H522.592V299.794H526.258C526.772 299.794 527.267 299.705 527.742 299.527C528.217 299.358 528.642 299.096 529.018 298.74C529.572 298.176 529.938 297.523 530.117 296.781C530.305 296.049 530.389 295.297 530.369 294.525ZM529.033 294.525C529.043 295.109 528.999 295.698 528.9 296.291C528.791 296.895 528.534 297.414 528.128 297.849C527.881 298.097 527.594 298.28 527.267 298.399C526.941 298.517 526.604 298.577 526.258 298.577H523.913V290.488H526.258C526.604 290.488 526.941 290.548 527.267 290.666C527.594 290.785 527.881 290.968 528.128 291.215C528.534 291.661 528.791 292.18 528.9 292.774C528.999 293.367 529.043 293.951 529.033 294.525Z" fill="#6F6E95"/>
<path d="M518.524 271.785C518.524 271.737 518.543 271.69 518.577 271.656C518.611 271.622 518.657 271.603 518.705 271.603L519.975 271.603C520.023 271.603 520.069 271.622 520.103 271.656C520.137 271.69 520.156 271.737 520.156 271.785L520.156 277.634L521.483 276.392C521.509 276.368 521.541 276.352 521.576 276.346C521.611 276.34 521.647 276.344 521.679 276.358C521.711 276.372 521.739 276.395 521.758 276.424C521.777 276.453 521.788 276.488 521.788 276.523L521.788 278.322C521.788 278.346 521.783 278.371 521.773 278.394C521.763 278.417 521.748 278.437 521.73 278.454L519.463 280.554C519.43 280.585 519.386 280.602 519.34 280.602C519.294 280.602 519.25 280.585 519.217 280.554L516.95 278.454C516.932 278.437 516.917 278.417 516.907 278.394C516.897 278.371 516.892 278.346 516.892 278.322L516.892 276.523C516.892 276.488 516.903 276.453 516.922 276.424C516.941 276.395 516.969 276.372 517.001 276.358C517.033 276.344 517.069 276.34 517.104 276.346C517.139 276.352 517.171 276.368 517.197 276.392L518.524 277.634L518.524 271.785Z" fill="white"/>
<path d="M512.795 277.671L511.526 277.671C511.477 277.671 511.431 277.651 511.397 277.617C511.363 277.583 511.344 277.537 511.344 277.489L511.344 271.639L510.017 272.882C509.991 272.906 509.959 272.922 509.924 272.928C509.889 272.934 509.854 272.93 509.821 272.916C509.789 272.902 509.762 272.879 509.742 272.85C509.723 272.82 509.712 272.786 509.712 272.751L509.712 270.961C509.712 270.936 509.718 270.912 509.728 270.889C509.738 270.866 509.752 270.846 509.77 270.829L512.037 268.72C512.07 268.689 512.115 268.672 512.16 268.672C512.206 268.672 512.25 268.689 512.284 268.72L514.55 270.82C514.57 270.838 514.585 270.86 514.595 270.884C514.605 270.909 514.609 270.935 514.608 270.961L514.608 272.76C514.608 272.795 514.598 272.829 514.578 272.859C514.559 272.888 514.532 272.911 514.499 272.925C514.467 272.939 514.431 272.943 514.396 272.937C514.362 272.931 514.329 272.915 514.304 272.891L512.976 271.639L512.976 277.489C512.976 277.537 512.957 277.583 512.923 277.617C512.889 277.651 512.843 277.671 512.795 277.671Z" fill="white"/>
</g>
<defs>
<filter id="filter0_d" x="0" y="0" width="614.667" height="390" filterUnits="userSpaceOnUse" color-interpolation-filters="sRGB">
<feFlood flood-opacity="0" result="BackgroundImageFix"/>
<feColorMatrix in="SourceAlpha" type="matrix" values="0 0 0 0 0 0 0 0 0 0 0 0 0 0 0 0 0 0 127 0"/>
<feOffset dy="4"/>
<feGaussianBlur stdDeviation="12"/>
<feColorMatrix type="matrix" values="0 0 0 0 1 0 0 0 0 1 0 0 0 0 1 0 0 0 0.07 0"/>
<feBlend mode="normal" in2="BackgroundImageFix" result="effect1_dropShadow"/>
<feBlend mode="normal" in="SourceGraphic" in2="effect1_dropShadow" result="shape"/>
</filter>
</defs>
</svg>
