<svg width="1136" height="170" viewBox="0 0 1136 170" fill="none" xmlns="http://www.w3.org/2000/svg">
<rect width="566.667" height="170" rx="5.39683" fill="#10101E"/>
<path d="M64.736 29.656V30.968H58.976V34.664H64.096V36.008H58.976V41H57.552V29.656H64.736ZM66.408 32.92H67.624L67.736 34.328C67.9493 33.8053 68.2747 33.432 68.712 33.208C69.16 32.9733 69.64 32.856 70.152 32.856C70.3653 32.856 70.5787 32.872 70.792 32.904V34.264C70.6 34.2107 70.3867 34.184 70.152 34.184C69.704 34.184 69.3253 34.264 69.016 34.424C68.7173 34.5733 68.472 34.7813 68.28 35.048C68.0987 35.3147 67.9653 35.624 67.88 35.976C67.8053 36.3173 67.768 36.6853 67.768 37.08V41H66.408V32.92ZM75.6861 41.224C75.1528 41.224 74.6781 41.1387 74.2621 40.968C73.8461 40.7973 73.4835 40.568 73.1741 40.28C72.7155 39.8427 72.4008 39.3413 72.2301 38.776C72.0701 38.2 71.9901 37.592 71.9901 36.952C71.9901 36.312 72.0701 35.7093 72.2301 35.144C72.4008 34.5787 72.7155 34.0773 73.1741 33.64C73.4835 33.352 73.8461 33.1227 74.2621 32.952C74.6781 32.7813 75.1528 32.696 75.6861 32.696C76.2195 32.696 76.6941 32.7813 77.1101 32.952C77.5261 33.1227 77.8888 33.352 78.1981 33.64C78.6568 34.0773 78.9661 34.5787 79.1261 35.144C79.2968 35.7093 79.3821 36.312 79.3821 36.952C79.3821 37.592 79.2968 38.2 79.1261 38.776C78.9661 39.3413 78.6568 39.8427 78.1981 40.28C77.8888 40.568 77.5261 40.7973 77.1101 40.968C76.6941 41.1387 76.2195 41.224 75.6861 41.224ZM75.6861 40.056C76.0168 40.056 76.3101 40.0027 76.5661 39.896C76.8221 39.7893 77.0355 39.6507 77.2061 39.48C77.5048 39.1813 77.7075 38.824 77.8141 38.408C77.9315 37.9813 77.9901 37.496 77.9901 36.952C77.9901 36.408 77.9315 35.928 77.8141 35.512C77.7075 35.096 77.5048 34.7387 77.2061 34.44C77.0355 34.2693 76.8221 34.1307 76.5661 34.024C76.3101 33.9173 76.0168 33.864 75.6861 33.864C75.3555 33.864 75.0621 33.9173 74.8061 34.024C74.5501 34.1307 74.3368 34.2693 74.1661 34.44C73.8675 34.7387 73.6595 35.096 73.5421 35.512C73.4355 35.928 73.3821 36.408 73.3821 36.952C73.3821 37.496 73.4355 37.9813 73.5421 38.408C73.6595 38.824 73.8675 39.1813 74.1661 39.48C74.3368 39.6507 74.5501 39.7893 74.8061 39.896C75.0621 40.0027 75.3555 40.056 75.6861 40.056ZM81.7049 32.92H82.8889L83.0169 34.104C83.2302 33.6347 83.5502 33.2827 83.9769 33.048C84.4035 32.8133 84.8515 32.696 85.3209 32.696C85.9289 32.696 86.4355 32.8293 86.8409 33.096C87.2569 33.352 87.5555 33.7307 87.7369 34.232C87.9609 33.72 88.3075 33.336 88.7769 33.08C89.2569 32.824 89.7529 32.696 90.2649 32.696C91.1929 32.696 91.8809 32.968 92.3289 33.512C92.7769 34.056 93.0009 34.776 93.0009 35.672V41H91.6409V35.848C91.6409 35.5707 91.6089 35.3147 91.5449 35.08C91.4915 34.8453 91.3955 34.6427 91.2569 34.472C91.1289 34.3013 90.9582 34.168 90.7449 34.072C90.5422 33.976 90.2915 33.928 89.9929 33.928C89.6835 33.928 89.4062 33.992 89.1609 34.12C88.9155 34.248 88.7075 34.424 88.5369 34.648C88.3662 34.8613 88.2329 35.1173 88.1369 35.416C88.0515 35.7147 88.0089 36.0347 88.0089 36.376V41H86.6649V35.896C86.6649 35.6187 86.6382 35.3627 86.5849 35.128C86.5315 34.8827 86.4409 34.6747 86.3129 34.504C86.1849 34.3227 86.0142 34.184 85.8009 34.088C85.5982 33.9813 85.3475 33.928 85.0489 33.928C84.7502 33.928 84.4782 33.9973 84.2329 34.136C83.9875 34.264 83.7795 34.44 83.6089 34.664C83.4382 34.888 83.3049 35.1493 83.2089 35.448C83.1129 35.736 83.0649 36.0453 83.0649 36.376V41H81.7049V32.92Z" fill="#8A939F"/>
<path d="M454.973 148V146.72H449.981L453.853 142.032C454.162 141.659 454.397 141.28 454.557 140.896C454.717 140.512 454.797 140.101 454.797 139.664C454.797 139.312 454.754 138.997 454.669 138.72C454.583 138.432 454.455 138.171 454.285 137.936C453.997 137.541 453.618 137.232 453.149 137.008C452.669 136.773 452.125 136.656 451.517 136.656C450.514 136.667 449.714 136.965 449.117 137.552C448.509 138.139 448.199 138.923 448.189 139.904H449.597C449.618 139.179 449.815 138.656 450.189 138.336C450.573 138.027 451.021 137.877 451.533 137.888C452.119 137.888 452.578 138.043 452.909 138.352C453.239 138.661 453.405 139.104 453.405 139.68C453.405 139.968 453.357 140.24 453.261 140.496C453.165 140.763 453.01 141.024 452.797 141.28L448.205 146.832V148H454.973ZM462.735 148.016V145.6H460.367V148.016H462.735ZM475.745 148V146.752H472.737V136.88H471.425L468.353 138.784V140.24L471.361 138.432V146.752H468.337V148H475.745ZM485.218 148V146.72H480.226L484.098 142.032C484.408 141.659 484.642 141.28 484.802 140.896C484.962 140.512 485.042 140.101 485.042 139.664C485.042 139.312 485 138.997 484.914 138.72C484.829 138.432 484.701 138.171 484.53 137.936C484.242 137.541 483.864 137.232 483.394 137.008C482.914 136.773 482.37 136.656 481.762 136.656C480.76 136.667 479.96 136.965 479.362 137.552C478.754 138.139 478.445 138.923 478.434 139.904H479.842C479.864 139.179 480.061 138.656 480.434 138.336C480.818 138.027 481.266 137.877 481.778 137.888C482.365 137.888 482.824 138.043 483.154 138.352C483.485 138.661 483.65 139.104 483.65 139.68C483.65 139.968 483.602 140.24 483.506 140.496C483.41 140.763 483.256 141.024 483.042 141.28L478.45 146.832V148H485.218ZM495.604 144.336C495.604 143.781 495.519 143.264 495.348 142.784C495.178 142.315 494.927 141.909 494.596 141.568C494.319 141.28 493.988 141.056 493.604 140.896C493.21 140.736 492.767 140.656 492.276 140.656C491.796 140.656 491.343 140.736 490.916 140.896C490.49 141.056 490.148 141.312 489.892 141.664L490.068 138.112H495.044V136.88H488.9L488.596 142.848H490.116C490.319 142.528 490.586 142.283 490.916 142.112C491.258 141.952 491.62 141.872 492.004 141.872C492.356 141.872 492.666 141.925 492.932 142.032C493.199 142.149 493.418 142.304 493.588 142.496C493.802 142.731 493.962 143.008 494.068 143.328C494.175 143.659 494.228 144.016 494.228 144.4C494.228 144.773 494.18 145.115 494.084 145.424C493.988 145.733 493.85 146.005 493.668 146.24C493.498 146.464 493.274 146.64 492.996 146.768C492.719 146.907 492.388 146.976 492.004 146.976C491.652 146.976 491.338 146.923 491.06 146.816C490.772 146.709 490.538 146.565 490.356 146.384C490.175 146.203 490.026 145.979 489.908 145.712C489.802 145.456 489.738 145.152 489.716 144.8H488.356C488.378 145.312 488.479 145.776 488.66 146.192C488.842 146.597 489.087 146.955 489.396 147.264C489.706 147.563 490.084 147.797 490.532 147.968C490.98 148.139 491.476 148.224 492.02 148.224C492.607 148.213 493.119 148.112 493.556 147.92C494.004 147.717 494.372 147.456 494.66 147.136C494.97 146.795 495.204 146.389 495.364 145.92C495.524 145.451 495.604 144.923 495.604 144.336ZM505.99 148V146.752H502.982V136.88H501.67L498.598 138.784V140.24L501.606 138.432V146.752H498.582V148H505.99Z" fill="#6F6E95"/>
<path d="M68.2 133.656L65.944 145H64.424L61.832 135.864L59.208 145H57.704L55.432 133.656H56.792L58.568 142.92L61.192 133.816H62.472L65.096 142.904L66.872 133.656H68.2ZM72.0051 145.224C71.5358 145.224 71.1251 145.149 70.7731 145C70.4318 144.861 70.1438 144.675 69.9091 144.44C69.6851 144.205 69.5145 143.939 69.3971 143.64C69.2798 143.341 69.2211 143.037 69.2211 142.728C69.2211 142.472 69.2638 142.2 69.3491 141.912C69.4451 141.624 69.6051 141.357 69.8291 141.112C70.0531 140.867 70.3465 140.659 70.7091 140.488C71.0825 140.317 71.5465 140.216 72.1011 140.184L74.5651 140.04V139.48C74.5651 138.904 74.4158 138.483 74.1171 138.216C73.8291 137.939 73.3918 137.8 72.8051 137.8C72.2505 137.8 71.8025 137.933 71.4611 138.2C71.1198 138.456 70.9491 138.813 70.9491 139.272H69.6211C69.6318 138.856 69.7171 138.488 69.8771 138.168C70.0478 137.848 70.2771 137.581 70.5651 137.368C70.8531 137.144 71.1891 136.979 71.5731 136.872C71.9571 136.755 72.3678 136.696 72.8051 136.696C73.7545 136.696 74.5065 136.936 75.0611 137.416C75.6265 137.896 75.9091 138.589 75.9091 139.496V143.416C75.9091 143.629 75.9465 143.773 76.0211 143.848C76.1065 143.923 76.2185 143.96 76.3571 143.96C76.3891 143.96 76.4371 143.96 76.5011 143.96C76.5758 143.949 76.6451 143.933 76.7091 143.912V144.92C76.5598 144.995 76.4158 145.043 76.2771 145.064C76.1385 145.096 75.9838 145.112 75.8131 145.112C75.4505 145.112 75.1625 144.995 74.9491 144.76C74.7358 144.515 74.6291 144.221 74.6291 143.88C74.3838 144.275 74.0265 144.6 73.5571 144.856C73.0985 145.101 72.5811 145.224 72.0051 145.224ZM72.2131 144.088C72.5758 144.088 72.9011 144.024 73.1891 143.896C73.4878 143.768 73.7385 143.592 73.9411 143.368C74.1438 143.133 74.2985 142.867 74.4051 142.568C74.5118 142.259 74.5651 141.928 74.5651 141.576V141.096L72.2291 141.224C72.0265 141.235 71.8291 141.272 71.6371 141.336C71.4451 141.4 71.2691 141.491 71.1091 141.608C70.9598 141.725 70.8371 141.875 70.7411 142.056C70.6558 142.237 70.6131 142.451 70.6131 142.696C70.6131 142.867 70.6398 143.037 70.6931 143.208C70.7571 143.368 70.8531 143.517 70.9811 143.656C71.1091 143.784 71.2745 143.891 71.4771 143.976C71.6798 144.051 71.9251 144.088 72.2131 144.088ZM80.4329 145.112C79.8675 145.112 79.4302 144.957 79.1209 144.648C78.8115 144.328 78.6569 143.848 78.6569 143.208V133.416H80.0169V143.048C80.0169 143.325 80.0702 143.533 80.1769 143.672C80.2835 143.811 80.4755 143.88 80.7529 143.88C80.8062 143.88 80.8702 143.88 80.9449 143.88C81.0195 143.88 81.1422 143.869 81.3129 143.848V145C81.1635 145.043 81.0302 145.069 80.9129 145.08C80.7955 145.101 80.6355 145.112 80.4329 145.112ZM84.9016 145.112C84.3363 145.112 83.899 144.957 83.5896 144.648C83.2803 144.328 83.1256 143.848 83.1256 143.208V133.416H84.4856V143.048C84.4856 143.325 84.539 143.533 84.6456 143.672C84.7523 143.811 84.9443 143.88 85.2216 143.88C85.275 143.88 85.339 143.88 85.4136 143.88C85.4883 143.88 85.611 143.869 85.7816 143.848V145C85.6323 145.043 85.499 145.069 85.3816 145.08C85.2643 145.101 85.1043 145.112 84.9016 145.112ZM90.9083 145.224C90.3216 145.224 89.7829 145.117 89.2923 144.904C88.8123 144.68 88.4069 144.381 88.0763 144.008C87.7349 143.613 87.4789 143.16 87.3083 142.648C87.1376 142.125 87.0523 141.576 87.0523 141C87.0523 140.509 87.1003 140.051 87.1963 139.624C87.2923 139.187 87.4576 138.781 87.6923 138.408C87.9909 137.917 88.4016 137.512 88.9243 137.192C89.4576 136.861 90.0869 136.696 90.8123 136.696C91.3669 136.696 91.8629 136.803 92.3003 137.016C92.7376 137.219 93.1056 137.496 93.4043 137.848C93.7136 138.2 93.9483 138.616 94.1083 139.096C94.2789 139.565 94.3643 140.067 94.3643 140.6C94.3643 140.728 94.3643 140.867 94.3643 141.016C94.3643 141.165 94.3536 141.299 94.3323 141.416H88.4763C88.4763 141.789 88.5296 142.136 88.6363 142.456C88.7536 142.776 88.9136 143.053 89.1163 143.288C89.3296 143.523 89.5856 143.704 89.8843 143.832C90.1936 143.96 90.5403 144.024 90.9243 144.024C91.3936 144.024 91.7989 143.907 92.1403 143.672C92.4923 143.437 92.7376 143.08 92.8763 142.6H94.2362C94.1829 142.984 94.0549 143.336 93.8523 143.656C93.6496 143.976 93.3989 144.253 93.1003 144.488C92.8016 144.723 92.4656 144.904 92.0923 145.032C91.7189 145.16 91.3243 145.224 90.9083 145.224ZM92.9723 140.248C92.9723 139.544 92.7856 138.968 92.4123 138.52C92.0389 138.072 91.4949 137.848 90.7803 137.848C90.4069 137.848 90.0816 137.917 89.8043 138.056C89.5269 138.195 89.2923 138.376 89.1003 138.6C88.9083 138.824 88.7643 139.08 88.6683 139.368C88.5723 139.656 88.5189 139.949 88.5082 140.248H92.9723ZM99.6374 145.096C99.2 145.096 98.832 145.027 98.5334 144.888C98.2454 144.749 98.0107 144.573 97.8294 144.36C97.648 144.136 97.5147 143.891 97.4294 143.624C97.3547 143.347 97.3174 143.069 97.3174 142.792V138.088H95.5414V136.92H97.3174V134.776L98.6774 134.456V136.92H100.981V138.088H98.6774V142.632C98.6774 143.048 98.7787 143.357 98.9814 143.56C99.1947 143.752 99.488 143.848 99.8614 143.848C100.096 143.848 100.315 143.832 100.517 143.8C100.731 143.768 100.912 143.731 101.061 143.688V144.856C100.912 144.909 100.72 144.963 100.485 145.016C100.261 145.069 99.9787 145.096 99.6374 145.096ZM106.896 133.656H111.536C112.026 133.656 112.474 133.725 112.88 133.864C113.296 134.003 113.653 134.2 113.952 134.456C114.261 134.701 114.501 135.005 114.672 135.368C114.842 135.731 114.928 136.136 114.928 136.584C114.928 137.128 114.789 137.635 114.512 138.104C114.234 138.573 113.829 138.904 113.296 139.096C113.584 139.192 113.845 139.336 114.08 139.528C114.314 139.709 114.512 139.923 114.672 140.168C114.842 140.403 114.97 140.664 115.056 140.952C115.141 141.24 115.184 141.533 115.184 141.832C115.184 142.312 115.093 142.749 114.912 143.144C114.73 143.539 114.48 143.875 114.16 144.152C113.84 144.419 113.456 144.627 113.008 144.776C112.56 144.925 112.074 145 111.552 145H106.896V133.656ZM111.472 143.688C111.781 143.688 112.074 143.651 112.352 143.576C112.629 143.501 112.869 143.384 113.072 143.224C113.274 143.064 113.434 142.861 113.552 142.616C113.669 142.371 113.728 142.077 113.728 141.736C113.728 141.416 113.669 141.133 113.552 140.888C113.434 140.643 113.274 140.435 113.072 140.264C112.869 140.093 112.629 139.965 112.352 139.88C112.085 139.784 111.792 139.736 111.472 139.736H108.288V143.688H111.472ZM111.44 138.488C112.037 138.488 112.522 138.344 112.896 138.056C113.28 137.768 113.472 137.315 113.472 136.696C113.472 136.397 113.418 136.141 113.312 135.928C113.205 135.704 113.056 135.517 112.864 135.368C112.682 135.219 112.464 135.107 112.208 135.032C111.962 134.957 111.701 134.92 111.424 134.92H108.288V138.488H111.44ZM119.63 145.224C119.161 145.224 118.75 145.149 118.398 145C118.057 144.861 117.769 144.675 117.534 144.44C117.31 144.205 117.139 143.939 117.022 143.64C116.905 143.341 116.846 143.037 116.846 142.728C116.846 142.472 116.889 142.2 116.974 141.912C117.07 141.624 117.23 141.357 117.454 141.112C117.678 140.867 117.971 140.659 118.334 140.488C118.707 140.317 119.171 140.216 119.726 140.184L122.19 140.04V139.48C122.19 138.904 122.041 138.483 121.742 138.216C121.454 137.939 121.017 137.8 120.43 137.8C119.875 137.8 119.427 137.933 119.086 138.2C118.745 138.456 118.574 138.813 118.574 139.272H117.246C117.257 138.856 117.342 138.488 117.502 138.168C117.673 137.848 117.902 137.581 118.19 137.368C118.478 137.144 118.814 136.979 119.198 136.872C119.582 136.755 119.993 136.696 120.43 136.696C121.379 136.696 122.131 136.936 122.686 137.416C123.251 137.896 123.534 138.589 123.534 139.496V143.416C123.534 143.629 123.571 143.773 123.646 143.848C123.731 143.923 123.843 143.96 123.982 143.96C124.014 143.96 124.062 143.96 124.126 143.96C124.201 143.949 124.27 143.933 124.334 143.912V144.92C124.185 144.995 124.041 145.043 123.902 145.064C123.763 145.096 123.609 145.112 123.438 145.112C123.075 145.112 122.787 144.995 122.574 144.76C122.361 144.515 122.254 144.221 122.254 143.88C122.009 144.275 121.651 144.6 121.182 144.856C120.723 145.101 120.206 145.224 119.63 145.224ZM119.838 144.088C120.201 144.088 120.526 144.024 120.814 143.896C121.113 143.768 121.363 143.592 121.566 143.368C121.769 143.133 121.923 142.867 122.03 142.568C122.137 142.259 122.19 141.928 122.19 141.576V141.096L119.854 141.224C119.651 141.235 119.454 141.272 119.262 141.336C119.07 141.4 118.894 141.491 118.734 141.608C118.585 141.725 118.462 141.875 118.366 142.056C118.281 142.237 118.238 142.451 118.238 142.696C118.238 142.867 118.265 143.037 118.318 143.208C118.382 143.368 118.478 143.517 118.606 143.656C118.734 143.784 118.899 143.891 119.102 143.976C119.305 144.051 119.55 144.088 119.838 144.088ZM128.058 145.112C127.493 145.112 127.055 144.957 126.746 144.648C126.437 144.328 126.282 143.848 126.282 143.208V133.416H127.642V143.048C127.642 143.325 127.695 143.533 127.802 143.672C127.909 143.811 128.101 143.88 128.378 143.88C128.431 143.88 128.495 143.88 128.57 143.88C128.645 143.88 128.767 143.869 128.938 143.848V145C128.789 145.043 128.655 145.069 128.538 145.08C128.421 145.101 128.261 145.112 128.058 145.112ZM132.943 145.224C132.473 145.224 132.063 145.149 131.711 145C131.369 144.861 131.081 144.675 130.847 144.44C130.623 144.205 130.452 143.939 130.335 143.64C130.217 143.341 130.159 143.037 130.159 142.728C130.159 142.472 130.201 142.2 130.287 141.912C130.383 141.624 130.543 141.357 130.767 141.112C130.991 140.867 131.284 140.659 131.647 140.488C132.02 140.317 132.484 140.216 133.039 140.184L135.503 140.04V139.48C135.503 138.904 135.353 138.483 135.055 138.216C134.767 137.939 134.329 137.8 133.743 137.8C133.188 137.8 132.74 137.933 132.399 138.2C132.057 138.456 131.887 138.813 131.887 139.272H130.559C130.569 138.856 130.655 138.488 130.815 138.168C130.985 137.848 131.215 137.581 131.503 137.368C131.791 137.144 132.127 136.979 132.511 136.872C132.895 136.755 133.305 136.696 133.743 136.696C134.692 136.696 135.444 136.936 135.999 137.416C136.564 137.896 136.847 138.589 136.847 139.496V143.416C136.847 143.629 136.884 143.773 136.959 143.848C137.044 143.923 137.156 143.96 137.295 143.96C137.327 143.96 137.375 143.96 137.439 143.96C137.513 143.949 137.583 143.933 137.647 143.912V144.92C137.497 144.995 137.353 145.043 137.215 145.064C137.076 145.096 136.921 145.112 136.751 145.112C136.388 145.112 136.1 144.995 135.887 144.76C135.673 144.515 135.567 144.221 135.567 143.88C135.321 144.275 134.964 144.6 134.495 144.856C134.036 145.101 133.519 145.224 132.943 145.224ZM133.151 144.088C133.513 144.088 133.839 144.024 134.127 143.896C134.425 143.768 134.676 143.592 134.879 143.368C135.081 143.133 135.236 142.867 135.343 142.568C135.449 142.259 135.503 141.928 135.503 141.576V141.096L133.167 141.224C132.964 141.235 132.767 141.272 132.575 141.336C132.383 141.4 132.207 141.491 132.047 141.608C131.897 141.725 131.775 141.875 131.679 142.056C131.593 142.237 131.551 142.451 131.551 142.696C131.551 142.867 131.577 143.037 131.631 143.208C131.695 143.368 131.791 143.517 131.919 143.656C132.047 143.784 132.212 143.891 132.415 143.976C132.617 144.051 132.863 144.088 133.151 144.088ZM139.752 136.92H140.936L141.048 138.168C141.154 137.933 141.298 137.725 141.48 137.544C141.672 137.352 141.88 137.197 142.104 137.08C142.338 136.952 142.578 136.856 142.824 136.792C143.08 136.728 143.32 136.696 143.544 136.696C144.472 136.696 145.176 136.957 145.656 137.48C146.146 138.003 146.392 138.733 146.392 139.672V145H145.032V139.864C145.032 139.267 144.893 138.797 144.616 138.456C144.338 138.104 143.896 137.928 143.288 137.928C142.946 137.928 142.642 137.997 142.376 138.136C142.109 138.275 141.88 138.467 141.688 138.712C141.506 138.947 141.362 139.229 141.256 139.56C141.16 139.891 141.112 140.243 141.112 140.616V145H139.752V136.92ZM152.311 145.224C151.233 145.224 150.375 144.893 149.735 144.232C149.361 143.859 149.084 143.395 148.903 142.84C148.721 142.285 148.631 141.656 148.631 140.952C148.631 140.291 148.716 139.699 148.887 139.176C149.068 138.653 149.319 138.205 149.639 137.832C150.3 137.075 151.207 136.696 152.359 136.696C152.849 136.696 153.292 136.771 153.687 136.92C154.081 137.069 154.417 137.277 154.695 137.544C154.983 137.8 155.207 138.109 155.367 138.472C155.527 138.835 155.617 139.224 155.639 139.64H154.263C154.199 139.064 153.985 138.627 153.623 138.328C153.26 138.029 152.817 137.88 152.295 137.88C151.921 137.88 151.596 137.955 151.319 138.104C151.041 138.243 150.812 138.429 150.631 138.664C150.417 138.941 150.263 139.272 150.167 139.656C150.071 140.04 150.023 140.472 150.023 140.952C150.023 141.453 150.071 141.907 150.167 142.312C150.263 142.707 150.423 143.037 150.647 143.304C150.839 143.539 151.068 143.72 151.335 143.848C151.612 143.976 151.932 144.04 152.295 144.04C152.839 144.04 153.292 143.885 153.655 143.576C154.028 143.267 154.241 142.84 154.295 142.296H155.671C155.639 142.733 155.527 143.133 155.335 143.496C155.153 143.848 154.913 144.152 154.615 144.408C154.316 144.664 153.969 144.861 153.575 145C153.18 145.149 152.759 145.224 152.311 145.224ZM161.205 145.224C160.618 145.224 160.08 145.117 159.589 144.904C159.109 144.68 158.704 144.381 158.373 144.008C158.032 143.613 157.776 143.16 157.605 142.648C157.434 142.125 157.349 141.576 157.349 141C157.349 140.509 157.397 140.051 157.493 139.624C157.589 139.187 157.754 138.781 157.989 138.408C158.288 137.917 158.698 137.512 159.221 137.192C159.754 136.861 160.384 136.696 161.109 136.696C161.664 136.696 162.16 136.803 162.597 137.016C163.034 137.219 163.402 137.496 163.701 137.848C164.01 138.2 164.245 138.616 164.405 139.096C164.576 139.565 164.661 140.067 164.661 140.6C164.661 140.728 164.661 140.867 164.661 141.016C164.661 141.165 164.65 141.299 164.629 141.416H158.773C158.773 141.789 158.826 142.136 158.933 142.456C159.05 142.776 159.21 143.053 159.413 143.288C159.626 143.523 159.882 143.704 160.181 143.832C160.49 143.96 160.837 144.024 161.221 144.024C161.69 144.024 162.096 143.907 162.437 143.672C162.789 143.437 163.034 143.08 163.173 142.6H164.533C164.48 142.984 164.352 143.336 164.149 143.656C163.946 143.976 163.696 144.253 163.397 144.488C163.098 144.723 162.762 144.904 162.389 145.032C162.016 145.16 161.621 145.224 161.205 145.224ZM163.269 140.248C163.269 139.544 163.082 138.968 162.709 138.52C162.336 138.072 161.792 137.848 161.077 137.848C160.704 137.848 160.378 137.917 160.101 138.056C159.824 138.195 159.589 138.376 159.397 138.6C159.205 138.824 159.061 139.08 158.965 139.368C158.869 139.656 158.816 139.949 158.805 140.248H163.269Z" fill="#6F6E95"/>
<rect x="569.016" width="566.667" height="170" rx="5.39683" fill="#10101E"/>
<path d="M628.008 29.656V41H626.552V29.656H628.008ZM630.971 32.92H632.155L632.267 34.168C632.373 33.9333 632.517 33.7253 632.699 33.544C632.891 33.352 633.099 33.1973 633.323 33.08C633.557 32.952 633.797 32.856 634.043 32.792C634.299 32.728 634.539 32.696 634.763 32.696C635.691 32.696 636.395 32.9573 636.875 33.48C637.365 34.0027 637.611 34.7333 637.611 35.672V41H636.251V35.864C636.251 35.2667 636.112 34.7973 635.835 34.456C635.557 34.104 635.115 33.928 634.507 33.928C634.165 33.928 633.861 33.9973 633.595 34.136C633.328 34.2747 633.099 34.4667 632.907 34.712C632.725 34.9467 632.581 35.2293 632.475 35.56C632.379 35.8907 632.331 36.2427 632.331 36.616V41H630.971V32.92ZM643.387 41.096C642.95 41.096 642.582 41.0267 642.283 40.888C641.995 40.7493 641.761 40.5733 641.579 40.36C641.398 40.136 641.265 39.8907 641.179 39.624C641.105 39.3467 641.067 39.0693 641.067 38.792V34.088H639.291V32.92H641.067V30.776L642.427 30.456V32.92H644.731V34.088H642.427V38.632C642.427 39.048 642.529 39.3573 642.731 39.56C642.945 39.752 643.238 39.848 643.611 39.848C643.846 39.848 644.065 39.832 644.267 39.8C644.481 39.768 644.662 39.7307 644.811 39.688V40.856C644.662 40.9093 644.47 40.9627 644.235 41.016C644.011 41.0693 643.729 41.096 643.387 41.096ZM649.905 41.224C649.372 41.224 648.897 41.1387 648.481 40.968C648.065 40.7973 647.702 40.568 647.393 40.28C646.934 39.8427 646.62 39.3413 646.449 38.776C646.289 38.2 646.209 37.592 646.209 36.952C646.209 36.312 646.289 35.7093 646.449 35.144C646.62 34.5787 646.934 34.0773 647.393 33.64C647.702 33.352 648.065 33.1227 648.481 32.952C648.897 32.7813 649.372 32.696 649.905 32.696C650.438 32.696 650.913 32.7813 651.329 32.952C651.745 33.1227 652.108 33.352 652.417 33.64C652.876 34.0773 653.185 34.5787 653.345 35.144C653.516 35.7093 653.601 36.312 653.601 36.952C653.601 37.592 653.516 38.2 653.345 38.776C653.185 39.3413 652.876 39.8427 652.417 40.28C652.108 40.568 651.745 40.7973 651.329 40.968C650.913 41.1387 650.438 41.224 649.905 41.224ZM649.905 40.056C650.236 40.056 650.529 40.0027 650.785 39.896C651.041 39.7893 651.254 39.6507 651.425 39.48C651.724 39.1813 651.926 38.824 652.033 38.408C652.15 37.9813 652.209 37.496 652.209 36.952C652.209 36.408 652.15 35.928 652.033 35.512C651.926 35.096 651.724 34.7387 651.425 34.44C651.254 34.2693 651.041 34.1307 650.785 34.024C650.529 33.9173 650.236 33.864 649.905 33.864C649.574 33.864 649.281 33.9173 649.025 34.024C648.769 34.1307 648.556 34.2693 648.385 34.44C648.086 34.7387 647.878 35.096 647.761 35.512C647.654 35.928 647.601 36.408 647.601 36.952C647.601 37.496 647.654 37.9813 647.761 38.408C647.878 38.824 648.086 39.1813 648.385 39.48C648.556 39.6507 648.769 39.7893 649.025 39.896C649.281 40.0027 649.574 40.056 649.905 40.056Z" fill="#8A939F"/>
<path d="M1027.18 142.432C1027.19 141.365 1027.11 140.432 1026.94 139.632C1026.77 138.832 1026.41 138.149 1025.87 137.584C1025.6 137.307 1025.27 137.083 1024.88 136.912C1024.48 136.741 1024.01 136.656 1023.47 136.656C1022.92 136.656 1022.46 136.741 1022.06 136.912C1021.67 137.083 1021.34 137.307 1021.07 137.584C1020.52 138.149 1020.17 138.832 1020 139.632C1019.83 140.432 1019.75 141.365 1019.76 142.432C1019.75 143.499 1019.83 144.432 1020 145.232C1020.17 146.021 1020.52 146.699 1021.07 147.264C1021.34 147.541 1021.67 147.765 1022.06 147.936C1022.46 148.107 1022.92 148.197 1023.47 148.208C1024.01 148.197 1024.48 148.107 1024.88 147.936C1025.27 147.765 1025.6 147.541 1025.87 147.264C1026.41 146.699 1026.77 146.021 1026.94 145.232C1027.11 144.432 1027.19 143.499 1027.18 142.432ZM1025.39 139.2L1021.21 144.32C1021.18 144.011 1021.16 143.696 1021.16 143.376C1021.16 143.056 1021.16 142.741 1021.16 142.432C1021.14 141.664 1021.18 140.917 1021.28 140.192C1021.37 139.467 1021.64 138.869 1022.09 138.4C1022.25 138.251 1022.45 138.128 1022.68 138.032C1022.91 137.936 1023.17 137.888 1023.47 137.888C1023.77 137.888 1024.03 137.936 1024.25 138.032C1024.49 138.128 1024.68 138.251 1024.84 138.4C1025.08 138.624 1025.26 138.891 1025.39 139.2ZM1025.77 142.432C1025.79 143.2 1025.76 143.947 1025.66 144.672C1025.56 145.397 1025.29 145.995 1024.84 146.464C1024.68 146.613 1024.49 146.736 1024.25 146.832C1024.03 146.928 1023.77 146.976 1023.47 146.976C1023.17 146.976 1022.91 146.928 1022.68 146.832C1022.45 146.736 1022.25 146.613 1022.09 146.464C1021.89 146.272 1021.72 146.037 1021.6 145.76L1025.72 140.656C1025.75 140.944 1025.76 141.237 1025.77 141.536C1025.77 141.835 1025.77 142.133 1025.77 142.432ZM1034.73 148.016V145.6H1032.37V148.016H1034.73ZM1047.34 142.432C1047.36 141.365 1047.28 140.432 1047.1 139.632C1046.93 138.832 1046.58 138.149 1046.03 137.584C1045.77 137.307 1045.44 137.083 1045.04 136.912C1044.65 136.741 1044.18 136.656 1043.63 136.656C1043.09 136.656 1042.62 136.741 1042.22 136.912C1041.83 137.083 1041.5 137.307 1041.23 137.584C1040.69 138.149 1040.33 138.832 1040.16 139.632C1039.99 140.432 1039.91 141.365 1039.92 142.432C1039.91 143.499 1039.99 144.432 1040.16 145.232C1040.33 146.021 1040.69 146.699 1041.23 147.264C1041.5 147.541 1041.83 147.765 1042.22 147.936C1042.62 148.107 1043.09 148.197 1043.63 148.208C1044.18 148.197 1044.65 148.107 1045.04 147.936C1045.44 147.765 1045.77 147.541 1046.03 147.264C1046.58 146.699 1046.93 146.021 1047.1 145.232C1047.28 144.432 1047.36 143.499 1047.34 142.432ZM1045.55 139.2L1041.38 144.32C1041.34 144.011 1041.33 143.696 1041.33 143.376C1041.33 143.056 1041.33 142.741 1041.33 142.432C1041.31 141.664 1041.34 140.917 1041.44 140.192C1041.54 139.467 1041.81 138.869 1042.26 138.4C1042.42 138.251 1042.61 138.128 1042.85 138.032C1043.07 137.936 1043.33 137.888 1043.63 137.888C1043.93 137.888 1044.19 137.936 1044.42 138.032C1044.65 138.128 1044.85 138.251 1045.01 138.4C1045.24 138.624 1045.42 138.891 1045.55 139.2ZM1045.94 142.432C1045.96 143.2 1045.92 143.947 1045.82 144.672C1045.73 145.397 1045.46 145.995 1045.01 146.464C1044.85 146.613 1044.65 146.736 1044.42 146.832C1044.19 146.928 1043.93 146.976 1043.63 146.976C1043.33 146.976 1043.07 146.928 1042.85 146.832C1042.61 146.736 1042.42 146.613 1042.26 146.464C1042.05 146.272 1041.89 146.037 1041.76 145.76L1045.89 140.656C1045.91 140.944 1045.93 141.237 1045.94 141.536C1045.94 141.835 1045.94 142.133 1045.94 142.432ZM1057.43 142.432C1057.44 141.365 1057.36 140.432 1057.19 139.632C1057.02 138.832 1056.66 138.149 1056.11 137.584C1055.85 137.307 1055.52 137.083 1055.12 136.912C1054.73 136.741 1054.26 136.656 1053.71 136.656C1053.17 136.656 1052.7 136.741 1052.31 136.912C1051.91 137.083 1051.58 137.307 1051.31 137.584C1050.77 138.149 1050.41 138.832 1050.24 139.632C1050.07 140.432 1049.99 141.365 1050 142.432C1049.99 143.499 1050.07 144.432 1050.24 145.232C1050.41 146.021 1050.77 146.699 1051.31 147.264C1051.58 147.541 1051.91 147.765 1052.31 147.936C1052.7 148.107 1053.17 148.197 1053.71 148.208C1054.26 148.197 1054.73 148.107 1055.12 147.936C1055.52 147.765 1055.85 147.541 1056.11 147.264C1056.66 146.699 1057.02 146.021 1057.19 145.232C1057.36 144.432 1057.44 143.499 1057.43 142.432ZM1055.63 139.2L1051.46 144.32C1051.43 144.011 1051.41 143.696 1051.41 143.376C1051.41 143.056 1051.41 142.741 1051.41 142.432C1051.39 141.664 1051.43 140.917 1051.52 140.192C1051.62 139.467 1051.89 138.869 1052.34 138.4C1052.5 138.251 1052.7 138.128 1052.93 138.032C1053.15 137.936 1053.42 137.888 1053.71 137.888C1054.01 137.888 1054.27 137.936 1054.5 138.032C1054.73 138.128 1054.93 138.251 1055.09 138.4C1055.33 138.624 1055.51 138.891 1055.63 139.2ZM1056.02 142.432C1056.04 143.2 1056 143.947 1055.91 144.672C1055.81 145.397 1055.54 145.995 1055.09 146.464C1054.93 146.613 1054.73 146.736 1054.5 146.832C1054.27 146.928 1054.01 146.976 1053.71 146.976C1053.42 146.976 1053.15 146.928 1052.93 146.832C1052.7 146.736 1052.5 146.613 1052.34 146.464C1052.14 146.272 1051.97 146.037 1051.84 145.76L1055.97 140.656C1055.99 140.944 1056.01 141.237 1056.02 141.536C1056.02 141.835 1056.02 142.133 1056.02 142.432ZM1067.51 142.432C1067.52 141.365 1067.44 140.432 1067.27 139.632C1067.1 138.832 1066.74 138.149 1066.2 137.584C1065.93 137.307 1065.6 137.083 1065.2 136.912C1064.81 136.741 1064.34 136.656 1063.8 136.656C1063.25 136.656 1062.78 136.741 1062.39 136.912C1061.99 137.083 1061.66 137.307 1061.4 137.584C1060.85 138.149 1060.49 138.832 1060.32 139.632C1060.15 140.432 1060.07 141.365 1060.08 142.432C1060.07 143.499 1060.15 144.432 1060.32 145.232C1060.49 146.021 1060.85 146.699 1061.4 147.264C1061.66 147.541 1061.99 147.765 1062.39 147.936C1062.78 148.107 1063.25 148.197 1063.8 148.208C1064.34 148.197 1064.81 148.107 1065.2 147.936C1065.6 147.765 1065.93 147.541 1066.2 147.264C1066.74 146.699 1067.1 146.021 1067.27 145.232C1067.44 144.432 1067.52 143.499 1067.51 142.432ZM1065.72 139.2L1061.54 144.32C1061.51 144.011 1061.49 143.696 1061.49 143.376C1061.49 143.056 1061.49 142.741 1061.49 142.432C1061.47 141.664 1061.51 140.917 1061.6 140.192C1061.7 139.467 1061.97 138.869 1062.42 138.4C1062.58 138.251 1062.78 138.128 1063.01 138.032C1063.24 137.936 1063.5 137.888 1063.8 137.888C1064.09 137.888 1064.36 137.936 1064.58 138.032C1064.81 138.128 1065.01 138.251 1065.17 138.4C1065.41 138.624 1065.59 138.891 1065.72 139.2ZM1066.1 142.432C1066.12 143.2 1066.08 143.947 1065.99 144.672C1065.89 145.397 1065.62 145.995 1065.17 146.464C1065.01 146.613 1064.81 146.736 1064.58 146.832C1064.36 146.928 1064.09 146.976 1063.8 146.976C1063.5 146.976 1063.24 146.928 1063.01 146.832C1062.78 146.736 1062.58 146.613 1062.42 146.464C1062.22 146.272 1062.05 146.037 1061.92 145.76L1066.05 140.656C1066.07 140.944 1066.09 141.237 1066.1 141.536C1066.1 141.835 1066.1 142.133 1066.1 142.432ZM1077.59 142.432C1077.6 141.365 1077.52 140.432 1077.35 139.632C1077.18 138.832 1076.82 138.149 1076.28 137.584C1076.01 137.307 1075.68 137.083 1075.29 136.912C1074.89 136.741 1074.42 136.656 1073.88 136.656C1073.33 136.656 1072.86 136.741 1072.47 136.912C1072.08 137.083 1071.74 137.307 1071.48 137.584C1070.93 138.149 1070.58 138.832 1070.41 139.632C1070.24 140.432 1070.16 141.365 1070.17 142.432C1070.16 143.499 1070.24 144.432 1070.41 145.232C1070.58 146.021 1070.93 146.699 1071.48 147.264C1071.74 147.541 1072.08 147.765 1072.47 147.936C1072.86 148.107 1073.33 148.197 1073.88 148.208C1074.42 148.197 1074.89 148.107 1075.29 147.936C1075.68 147.765 1076.01 147.541 1076.28 147.264C1076.82 146.699 1077.18 146.021 1077.35 145.232C1077.52 144.432 1077.6 143.499 1077.59 142.432ZM1075.8 139.2L1071.62 144.32C1071.59 144.011 1071.57 143.696 1071.57 143.376C1071.57 143.056 1071.57 142.741 1071.57 142.432C1071.55 141.664 1071.59 140.917 1071.69 140.192C1071.78 139.467 1072.05 138.869 1072.5 138.4C1072.66 138.251 1072.86 138.128 1073.09 138.032C1073.32 137.936 1073.58 137.888 1073.88 137.888C1074.18 137.888 1074.44 137.936 1074.66 138.032C1074.9 138.128 1075.09 138.251 1075.25 138.4C1075.49 138.624 1075.67 138.891 1075.8 139.2ZM1076.18 142.432C1076.2 143.2 1076.17 143.947 1076.07 144.672C1075.97 145.397 1075.7 145.995 1075.25 146.464C1075.09 146.613 1074.9 146.736 1074.66 146.832C1074.44 146.928 1074.18 146.976 1073.88 146.976C1073.58 146.976 1073.32 146.928 1073.09 146.832C1072.86 146.736 1072.66 146.613 1072.5 146.464C1072.3 146.272 1072.13 146.037 1072.01 145.76L1076.13 140.656C1076.16 140.944 1076.17 141.237 1076.18 141.536C1076.18 141.835 1076.18 142.133 1076.18 142.432Z" fill="#6F6E95"/>
<path d="M637.2 133.656L634.944 145H633.424L630.832 135.864L628.208 145H626.704L624.432 133.656H625.792L627.568 142.92L630.192 133.816H631.472L634.096 142.904L635.872 133.656H637.2ZM641.005 145.224C640.536 145.224 640.125 145.149 639.773 145C639.432 144.861 639.144 144.675 638.909 144.44C638.685 144.205 638.514 143.939 638.397 143.64C638.28 143.341 638.221 143.037 638.221 142.728C638.221 142.472 638.264 142.2 638.349 141.912C638.445 141.624 638.605 141.357 638.829 141.112C639.053 140.867 639.346 140.659 639.709 140.488C640.082 140.317 640.546 140.216 641.101 140.184L643.565 140.04V139.48C643.565 138.904 643.416 138.483 643.117 138.216C642.829 137.939 642.392 137.8 641.805 137.8C641.25 137.8 640.802 137.933 640.461 138.2C640.12 138.456 639.949 138.813 639.949 139.272H638.621C638.632 138.856 638.717 138.488 638.877 138.168C639.048 137.848 639.277 137.581 639.565 137.368C639.853 137.144 640.189 136.979 640.573 136.872C640.957 136.755 641.368 136.696 641.805 136.696C642.754 136.696 643.506 136.936 644.061 137.416C644.626 137.896 644.909 138.589 644.909 139.496V143.416C644.909 143.629 644.946 143.773 645.021 143.848C645.106 143.923 645.218 143.96 645.357 143.96C645.389 143.96 645.437 143.96 645.501 143.96C645.576 143.949 645.645 143.933 645.709 143.912V144.92C645.56 144.995 645.416 145.043 645.277 145.064C645.138 145.096 644.984 145.112 644.813 145.112C644.45 145.112 644.162 144.995 643.949 144.76C643.736 144.515 643.629 144.221 643.629 143.88C643.384 144.275 643.026 144.6 642.557 144.856C642.098 145.101 641.581 145.224 641.005 145.224ZM641.213 144.088C641.576 144.088 641.901 144.024 642.189 143.896C642.488 143.768 642.738 143.592 642.941 143.368C643.144 143.133 643.298 142.867 643.405 142.568C643.512 142.259 643.565 141.928 643.565 141.576V141.096L641.229 141.224C641.026 141.235 640.829 141.272 640.637 141.336C640.445 141.4 640.269 141.491 640.109 141.608C639.96 141.725 639.837 141.875 639.741 142.056C639.656 142.237 639.613 142.451 639.613 142.696C639.613 142.867 639.64 143.037 639.693 143.208C639.757 143.368 639.853 143.517 639.981 143.656C640.109 143.784 640.274 143.891 640.477 143.976C640.68 144.051 640.925 144.088 641.213 144.088ZM649.433 145.112C648.868 145.112 648.43 144.957 648.121 144.648C647.812 144.328 647.657 143.848 647.657 143.208V133.416H649.017V143.048C649.017 143.325 649.07 143.533 649.177 143.672C649.284 143.811 649.476 143.88 649.753 143.88C649.806 143.88 649.87 143.88 649.945 143.88C650.02 143.88 650.142 143.869 650.313 143.848V145C650.164 145.043 650.03 145.069 649.913 145.08C649.796 145.101 649.636 145.112 649.433 145.112ZM653.902 145.112C653.336 145.112 652.899 144.957 652.59 144.648C652.28 144.328 652.126 143.848 652.126 143.208V133.416H653.486V143.048C653.486 143.325 653.539 143.533 653.646 143.672C653.752 143.811 653.944 143.88 654.222 143.88C654.275 143.88 654.339 143.88 654.414 143.88C654.488 143.88 654.611 143.869 654.782 143.848V145C654.632 145.043 654.499 145.069 654.382 145.08C654.264 145.101 654.104 145.112 653.902 145.112ZM659.908 145.224C659.322 145.224 658.783 145.117 658.292 144.904C657.812 144.68 657.407 144.381 657.076 144.008C656.735 143.613 656.479 143.16 656.308 142.648C656.138 142.125 656.052 141.576 656.052 141C656.052 140.509 656.1 140.051 656.196 139.624C656.292 139.187 656.458 138.781 656.692 138.408C656.991 137.917 657.402 137.512 657.924 137.192C658.458 136.861 659.087 136.696 659.812 136.696C660.367 136.696 660.863 136.803 661.3 137.016C661.738 137.219 662.106 137.496 662.404 137.848C662.714 138.2 662.948 138.616 663.108 139.096C663.279 139.565 663.364 140.067 663.364 140.6C663.364 140.728 663.364 140.867 663.364 141.016C663.364 141.165 663.354 141.299 663.332 141.416H657.476C657.476 141.789 657.53 142.136 657.636 142.456C657.754 142.776 657.914 143.053 658.116 143.288C658.33 143.523 658.586 143.704 658.884 143.832C659.194 143.96 659.54 144.024 659.924 144.024C660.394 144.024 660.799 143.907 661.14 143.672C661.492 143.437 661.738 143.08 661.876 142.6H663.236C663.183 142.984 663.055 143.336 662.852 143.656C662.65 143.976 662.399 144.253 662.1 144.488C661.802 144.723 661.466 144.904 661.092 145.032C660.719 145.16 660.324 145.224 659.908 145.224ZM661.972 140.248C661.972 139.544 661.786 138.968 661.412 138.52C661.039 138.072 660.495 137.848 659.78 137.848C659.407 137.848 659.082 137.917 658.804 138.056C658.527 138.195 658.292 138.376 658.1 138.6C657.908 138.824 657.764 139.08 657.668 139.368C657.572 139.656 657.519 139.949 657.508 140.248H661.972ZM668.637 145.096C668.2 145.096 667.832 145.027 667.533 144.888C667.245 144.749 667.011 144.573 666.829 144.36C666.648 144.136 666.515 143.891 666.429 143.624C666.355 143.347 666.317 143.069 666.317 142.792V138.088H664.541V136.92H666.317V134.776L667.677 134.456V136.92H669.981V138.088H667.677V142.632C667.677 143.048 667.779 143.357 667.981 143.56C668.195 143.752 668.488 143.848 668.861 143.848C669.096 143.848 669.315 143.832 669.517 143.8C669.731 143.768 669.912 143.731 670.061 143.688V144.856C669.912 144.909 669.72 144.963 669.485 145.016C669.261 145.069 668.979 145.096 668.637 145.096ZM675.896 133.656H680.536C681.026 133.656 681.474 133.725 681.88 133.864C682.296 134.003 682.653 134.2 682.952 134.456C683.261 134.701 683.501 135.005 683.672 135.368C683.842 135.731 683.928 136.136 683.928 136.584C683.928 137.128 683.789 137.635 683.512 138.104C683.234 138.573 682.829 138.904 682.296 139.096C682.584 139.192 682.845 139.336 683.08 139.528C683.314 139.709 683.512 139.923 683.672 140.168C683.842 140.403 683.97 140.664 684.056 140.952C684.141 141.24 684.184 141.533 684.184 141.832C684.184 142.312 684.093 142.749 683.912 143.144C683.73 143.539 683.48 143.875 683.16 144.152C682.84 144.419 682.456 144.627 682.008 144.776C681.56 144.925 681.074 145 680.552 145H675.896V133.656ZM680.472 143.688C680.781 143.688 681.074 143.651 681.352 143.576C681.629 143.501 681.869 143.384 682.072 143.224C682.274 143.064 682.434 142.861 682.552 142.616C682.669 142.371 682.728 142.077 682.728 141.736C682.728 141.416 682.669 141.133 682.552 140.888C682.434 140.643 682.274 140.435 682.072 140.264C681.869 140.093 681.629 139.965 681.352 139.88C681.085 139.784 680.792 139.736 680.472 139.736H677.288V143.688H680.472ZM680.44 138.488C681.037 138.488 681.522 138.344 681.896 138.056C682.28 137.768 682.472 137.315 682.472 136.696C682.472 136.397 682.418 136.141 682.312 135.928C682.205 135.704 682.056 135.517 681.864 135.368C681.682 135.219 681.464 135.107 681.208 135.032C680.962 134.957 680.701 134.92 680.424 134.92H677.288V138.488H680.44ZM688.63 145.224C688.161 145.224 687.75 145.149 687.398 145C687.057 144.861 686.769 144.675 686.534 144.44C686.31 144.205 686.139 143.939 686.022 143.64C685.905 143.341 685.846 143.037 685.846 142.728C685.846 142.472 685.889 142.2 685.974 141.912C686.07 141.624 686.23 141.357 686.454 141.112C686.678 140.867 686.971 140.659 687.334 140.488C687.707 140.317 688.171 140.216 688.726 140.184L691.19 140.04V139.48C691.19 138.904 691.041 138.483 690.742 138.216C690.454 137.939 690.017 137.8 689.43 137.8C688.875 137.8 688.427 137.933 688.086 138.2C687.745 138.456 687.574 138.813 687.574 139.272H686.246C686.257 138.856 686.342 138.488 686.502 138.168C686.673 137.848 686.902 137.581 687.19 137.368C687.478 137.144 687.814 136.979 688.198 136.872C688.582 136.755 688.993 136.696 689.43 136.696C690.379 136.696 691.131 136.936 691.686 137.416C692.251 137.896 692.534 138.589 692.534 139.496V143.416C692.534 143.629 692.571 143.773 692.646 143.848C692.731 143.923 692.843 143.96 692.982 143.96C693.014 143.96 693.062 143.96 693.126 143.96C693.201 143.949 693.27 143.933 693.334 143.912V144.92C693.185 144.995 693.041 145.043 692.902 145.064C692.763 145.096 692.609 145.112 692.438 145.112C692.075 145.112 691.787 144.995 691.574 144.76C691.361 144.515 691.254 144.221 691.254 143.88C691.009 144.275 690.651 144.6 690.182 144.856C689.723 145.101 689.206 145.224 688.63 145.224ZM688.838 144.088C689.201 144.088 689.526 144.024 689.814 143.896C690.113 143.768 690.363 143.592 690.566 143.368C690.769 143.133 690.923 142.867 691.03 142.568C691.137 142.259 691.19 141.928 691.19 141.576V141.096L688.854 141.224C688.651 141.235 688.454 141.272 688.262 141.336C688.07 141.4 687.894 141.491 687.734 141.608C687.585 141.725 687.462 141.875 687.366 142.056C687.281 142.237 687.238 142.451 687.238 142.696C687.238 142.867 687.265 143.037 687.318 143.208C687.382 143.368 687.478 143.517 687.606 143.656C687.734 143.784 687.899 143.891 688.102 143.976C688.305 144.051 688.55 144.088 688.838 144.088ZM697.058 145.112C696.493 145.112 696.055 144.957 695.746 144.648C695.437 144.328 695.282 143.848 695.282 143.208V133.416H696.642V143.048C696.642 143.325 696.695 143.533 696.802 143.672C696.909 143.811 697.101 143.88 697.378 143.88C697.431 143.88 697.495 143.88 697.57 143.88C697.645 143.88 697.767 143.869 697.938 143.848V145C697.789 145.043 697.655 145.069 697.538 145.08C697.421 145.101 697.261 145.112 697.058 145.112ZM701.943 145.224C701.473 145.224 701.063 145.149 700.711 145C700.369 144.861 700.081 144.675 699.847 144.44C699.623 144.205 699.452 143.939 699.335 143.64C699.217 143.341 699.159 143.037 699.159 142.728C699.159 142.472 699.201 142.2 699.287 141.912C699.383 141.624 699.543 141.357 699.767 141.112C699.991 140.867 700.284 140.659 700.647 140.488C701.02 140.317 701.484 140.216 702.039 140.184L704.503 140.04V139.48C704.503 138.904 704.353 138.483 704.055 138.216C703.767 137.939 703.329 137.8 702.743 137.8C702.188 137.8 701.74 137.933 701.399 138.2C701.057 138.456 700.887 138.813 700.887 139.272H699.559C699.569 138.856 699.655 138.488 699.815 138.168C699.985 137.848 700.215 137.581 700.503 137.368C700.791 137.144 701.127 136.979 701.511 136.872C701.895 136.755 702.305 136.696 702.743 136.696C703.692 136.696 704.444 136.936 704.999 137.416C705.564 137.896 705.847 138.589 705.847 139.496V143.416C705.847 143.629 705.884 143.773 705.959 143.848C706.044 143.923 706.156 143.96 706.295 143.96C706.327 143.96 706.375 143.96 706.439 143.96C706.513 143.949 706.583 143.933 706.647 143.912V144.92C706.497 144.995 706.353 145.043 706.215 145.064C706.076 145.096 705.921 145.112 705.751 145.112C705.388 145.112 705.1 144.995 704.887 144.76C704.673 144.515 704.567 144.221 704.567 143.88C704.321 144.275 703.964 144.6 703.495 144.856C703.036 145.101 702.519 145.224 701.943 145.224ZM702.151 144.088C702.513 144.088 702.839 144.024 703.127 143.896C703.425 143.768 703.676 143.592 703.879 143.368C704.081 143.133 704.236 142.867 704.343 142.568C704.449 142.259 704.503 141.928 704.503 141.576V141.096L702.167 141.224C701.964 141.235 701.767 141.272 701.575 141.336C701.383 141.4 701.207 141.491 701.047 141.608C700.897 141.725 700.775 141.875 700.679 142.056C700.593 142.237 700.551 142.451 700.551 142.696C700.551 142.867 700.577 143.037 700.631 143.208C700.695 143.368 700.791 143.517 700.919 143.656C701.047 143.784 701.212 143.891 701.415 143.976C701.617 144.051 701.863 144.088 702.151 144.088ZM708.752 136.92H709.936L710.048 138.168C710.154 137.933 710.298 137.725 710.48 137.544C710.672 137.352 710.88 137.197 711.104 137.08C711.338 136.952 711.578 136.856 711.824 136.792C712.08 136.728 712.32 136.696 712.544 136.696C713.472 136.696 714.176 136.957 714.656 137.48C715.146 138.003 715.392 138.733 715.392 139.672V145H714.032V139.864C714.032 139.267 713.893 138.797 713.616 138.456C713.338 138.104 712.896 137.928 712.288 137.928C711.946 137.928 711.642 137.997 711.376 138.136C711.109 138.275 710.88 138.467 710.688 138.712C710.506 138.947 710.362 139.229 710.256 139.56C710.16 139.891 710.112 140.243 710.112 140.616V145H708.752V136.92ZM721.311 145.224C720.233 145.224 719.375 144.893 718.735 144.232C718.361 143.859 718.084 143.395 717.903 142.84C717.721 142.285 717.631 141.656 717.631 140.952C717.631 140.291 717.716 139.699 717.887 139.176C718.068 138.653 718.319 138.205 718.639 137.832C719.3 137.075 720.207 136.696 721.359 136.696C721.849 136.696 722.292 136.771 722.687 136.92C723.081 137.069 723.417 137.277 723.695 137.544C723.983 137.8 724.207 138.109 724.367 138.472C724.527 138.835 724.617 139.224 724.639 139.64H723.263C723.199 139.064 722.985 138.627 722.623 138.328C722.26 138.029 721.817 137.88 721.295 137.88C720.921 137.88 720.596 137.955 720.319 138.104C720.041 138.243 719.812 138.429 719.631 138.664C719.417 138.941 719.263 139.272 719.167 139.656C719.071 140.04 719.023 140.472 719.023 140.952C719.023 141.453 719.071 141.907 719.167 142.312C719.263 142.707 719.423 143.037 719.647 143.304C719.839 143.539 720.068 143.72 720.335 143.848C720.612 143.976 720.932 144.04 721.295 144.04C721.839 144.04 722.292 143.885 722.655 143.576C723.028 143.267 723.241 142.84 723.295 142.296H724.671C724.639 142.733 724.527 143.133 724.335 143.496C724.153 143.848 723.913 144.152 723.615 144.408C723.316 144.664 722.969 144.861 722.575 145C722.18 145.149 721.759 145.224 721.311 145.224ZM730.205 145.224C729.618 145.224 729.08 145.117 728.589 144.904C728.109 144.68 727.704 144.381 727.373 144.008C727.032 143.613 726.776 143.16 726.605 142.648C726.434 142.125 726.349 141.576 726.349 141C726.349 140.509 726.397 140.051 726.493 139.624C726.589 139.187 726.754 138.781 726.989 138.408C727.288 137.917 727.698 137.512 728.221 137.192C728.754 136.861 729.384 136.696 730.109 136.696C730.664 136.696 731.16 136.803 731.597 137.016C732.034 137.219 732.402 137.496 732.701 137.848C733.01 138.2 733.245 138.616 733.405 139.096C733.576 139.565 733.661 140.067 733.661 140.6C733.661 140.728 733.661 140.867 733.661 141.016C733.661 141.165 733.65 141.299 733.629 141.416H727.773C727.773 141.789 727.826 142.136 727.933 142.456C728.05 142.776 728.21 143.053 728.413 143.288C728.626 143.523 728.882 143.704 729.181 143.832C729.49 143.96 729.837 144.024 730.221 144.024C730.69 144.024 731.096 143.907 731.437 143.672C731.789 143.437 732.034 143.08 732.173 142.6H733.533C733.48 142.984 733.352 143.336 733.149 143.656C732.946 143.976 732.696 144.253 732.397 144.488C732.098 144.723 731.762 144.904 731.389 145.032C731.016 145.16 730.621 145.224 730.205 145.224ZM732.269 140.248C732.269 139.544 732.082 138.968 731.709 138.52C731.336 138.072 730.792 137.848 730.077 137.848C729.704 137.848 729.378 137.917 729.101 138.056C728.824 138.195 728.589 138.376 728.397 138.6C728.205 138.824 728.061 139.08 727.965 139.368C727.869 139.656 727.816 139.949 727.805 140.248H732.269Z" fill="#6F6E95"/>
<rect x="779" y="42" width="300" height="80" rx="5.39683" fill="black"/>
<path d="M803.092 103.27C803.083 102.486 802.835 101.851 802.35 101.366C801.865 100.881 801.202 100.577 800.362 100.456C800.185 100.428 800.012 100.4 799.844 100.372V97.068C800.115 97.1147 800.357 97.1893 800.572 97.292C800.787 97.404 800.969 97.5487 801.118 97.726C801.258 97.8847 801.37 98.0713 801.454 98.286C801.538 98.5007 801.589 98.7293 801.608 98.972H802.91C802.882 98.132 802.565 97.4227 801.958 96.844C801.678 96.5733 801.356 96.3633 800.992 96.214C800.628 96.0553 800.245 95.9573 799.844 95.92V94.814H799.06V95.906C798.183 95.9713 797.445 96.2933 796.848 96.872C796.577 97.124 796.372 97.4227 796.232 97.768C796.083 98.104 796.008 98.4587 796.008 98.832C796.027 99.616 796.279 100.223 796.764 100.652C797.249 101.081 797.87 101.352 798.626 101.464L799.06 101.534V105.02C798.78 104.983 798.514 104.917 798.262 104.824C798.01 104.731 797.791 104.595 797.604 104.418C797.399 104.222 797.231 103.984 797.1 103.704C796.969 103.433 796.904 103.149 796.904 102.85H795.602C795.611 103.326 795.709 103.765 795.896 104.166C796.092 104.577 796.349 104.931 796.666 105.23C797.254 105.781 798.052 106.093 799.06 106.168V107.218H799.844V106.168C800.311 106.131 800.754 106.033 801.174 105.874C801.585 105.706 801.944 105.477 802.252 105.188C802.504 104.955 802.705 104.679 802.854 104.362C803.013 104.045 803.092 103.681 803.092 103.27ZM799.06 100.246C798.957 100.227 798.855 100.213 798.752 100.204C798.369 100.157 798.033 100.022 797.744 99.798C797.464 99.5833 797.315 99.252 797.296 98.804C797.296 98.58 797.329 98.3793 797.394 98.202C797.459 98.034 797.553 97.8753 797.674 97.726C797.861 97.5207 798.066 97.3667 798.29 97.264C798.523 97.152 798.78 97.082 799.06 97.054V100.246ZM801.79 103.298C801.79 103.559 801.743 103.783 801.65 103.97C801.566 104.157 801.445 104.32 801.286 104.46C801.099 104.637 800.885 104.768 800.642 104.852C800.399 104.945 800.133 105.001 799.844 105.02V101.66L800.152 101.702C800.731 101.795 801.151 101.987 801.412 102.276C801.673 102.565 801.799 102.906 801.79 103.298ZM811.088 106V104.88H806.72L810.108 100.778C810.378 100.451 810.584 100.12 810.724 99.784C810.864 99.448 810.934 99.0887 810.934 98.706C810.934 98.398 810.896 98.1227 810.822 97.88C810.747 97.628 810.635 97.3993 810.486 97.194C810.234 96.8487 809.902 96.578 809.492 96.382C809.072 96.1767 808.596 96.074 808.064 96.074C807.186 96.0833 806.486 96.3447 805.964 96.858C805.432 97.3713 805.161 98.0573 805.152 98.916H806.384C806.402 98.2813 806.575 97.824 806.902 97.544C807.238 97.2733 807.63 97.1427 808.078 97.152C808.591 97.152 808.992 97.2873 809.282 97.558C809.571 97.8287 809.716 98.216 809.716 98.72C809.716 98.972 809.674 99.21 809.59 99.434C809.506 99.6673 809.37 99.896 809.184 100.12L805.166 104.978V106H811.088ZM819.727 103.34C819.727 102.817 819.587 102.337 819.307 101.898C819.027 101.459 818.626 101.147 818.103 100.96C818.514 100.783 818.85 100.489 819.111 100.078C819.382 99.6673 819.522 99.2287 819.531 98.762C819.531 98.342 819.461 97.9733 819.321 97.656C819.181 97.348 818.99 97.082 818.747 96.858C818.486 96.6153 818.169 96.424 817.795 96.284C817.431 96.144 817.044 96.074 816.633 96.074C816.213 96.074 815.821 96.1347 815.457 96.256C815.093 96.3773 814.776 96.55 814.505 96.774C814.216 97.0073 813.992 97.3013 813.833 97.656C813.665 98.0107 813.577 98.4307 813.567 98.916H814.785C814.795 98.6173 814.846 98.3513 814.939 98.118C815.042 97.894 815.187 97.7027 815.373 97.544C815.523 97.4227 815.7 97.3293 815.905 97.264C816.111 97.1893 816.344 97.152 816.605 97.152C816.876 97.152 817.114 97.1987 817.319 97.292C817.534 97.376 817.707 97.488 817.837 97.628C817.996 97.7773 818.113 97.9453 818.187 98.132C818.262 98.328 818.299 98.538 818.299 98.762C818.29 99.2753 818.127 99.6767 817.809 99.966C817.483 100.255 817.035 100.4 816.465 100.4H815.835V101.506H816.465C817.072 101.506 817.562 101.66 817.935 101.968C818.309 102.267 818.5 102.715 818.509 103.312C818.509 103.573 818.467 103.807 818.383 104.012C818.299 104.217 818.187 104.395 818.047 104.544C817.879 104.731 817.669 104.871 817.417 104.964C817.165 105.057 816.89 105.104 816.591 105.104C816.283 105.104 816.013 105.053 815.779 104.95C815.555 104.857 815.369 104.726 815.219 104.558C815.061 104.39 814.939 104.194 814.855 103.97C814.771 103.737 814.725 103.485 814.715 103.214H813.497C813.507 103.662 813.581 104.059 813.721 104.404C813.871 104.749 814.071 105.048 814.323 105.3C814.594 105.58 814.925 105.795 815.317 105.944C815.7 106.103 816.125 106.182 816.591 106.182C817.133 106.182 817.604 106.103 818.005 105.944C818.397 105.795 818.724 105.58 818.985 105.3C819.228 105.048 819.41 104.754 819.531 104.418C819.662 104.082 819.727 103.723 819.727 103.34ZM826.449 106V103.914H824.335V106H825.441C825.45 106.485 825.376 106.877 825.217 107.176C825.068 107.475 824.769 107.717 824.321 107.904L824.769 108.716C825.394 108.455 825.833 108.095 826.085 107.638C826.337 107.19 826.458 106.644 826.449 106ZM837.665 106V104.908H835.033V96.27H833.885L831.197 97.936V99.21L833.829 97.628V104.908H831.183V106H837.665ZM845.814 106V104.88H841.446L844.834 100.778C845.105 100.451 845.31 100.12 845.45 99.784C845.59 99.448 845.66 99.0887 845.66 98.706C845.66 98.398 845.623 98.1227 845.548 97.88C845.474 97.628 845.362 97.3993 845.212 97.194C844.96 96.8487 844.629 96.578 844.218 96.382C843.798 96.1767 843.322 96.074 842.79 96.074C841.913 96.0833 841.213 96.3447 840.69 96.858C840.158 97.3713 839.888 98.0573 839.878 98.916H841.11C841.129 98.2813 841.302 97.824 841.628 97.544C841.964 97.2733 842.356 97.1427 842.804 97.152C843.318 97.152 843.719 97.2873 844.008 97.558C844.298 97.8287 844.442 98.216 844.442 98.72C844.442 98.972 844.4 99.21 844.316 99.434C844.232 99.6673 844.097 99.896 843.91 100.12L839.892 104.978V106H845.814ZM854.986 103.928V102.85H853.67V99.952H852.466V102.85H849.036L852.984 96.27H851.696L847.86 102.64V103.928H852.466V106H853.67V103.928H854.986ZM861.147 106.014V103.9H859.075V106.014H861.147ZM872.223 102.864C872.223 102.351 872.134 101.879 871.957 101.45C871.789 101.021 871.546 100.652 871.229 100.344C870.996 100.12 870.702 99.938 870.347 99.798C869.992 99.658 869.591 99.588 869.143 99.588C868.667 99.5973 868.219 99.7 867.799 99.896C867.379 100.101 867.085 100.377 866.917 100.722C866.917 100.199 866.964 99.6673 867.057 99.126C867.16 98.594 867.36 98.146 867.659 97.782C867.808 97.6047 867.99 97.4553 868.205 97.334C868.429 97.222 868.695 97.1613 869.003 97.152C869.236 97.152 869.446 97.1847 869.633 97.25C869.829 97.306 869.997 97.3947 870.137 97.516C870.286 97.6467 870.412 97.8007 870.515 97.978C870.608 98.1647 870.664 98.3793 870.683 98.622H871.887C871.868 98.2673 871.789 97.936 871.649 97.628C871.509 97.3293 871.327 97.0727 871.103 96.858C870.851 96.6153 870.552 96.424 870.207 96.284C869.852 96.144 869.465 96.074 869.045 96.074C868.429 96.0833 867.911 96.2233 867.491 96.494C867.08 96.7647 866.758 97.0867 866.525 97.46C866.208 97.992 865.988 98.5847 865.867 99.238C865.755 99.8913 865.704 100.568 865.713 101.268C865.704 101.968 865.76 102.635 865.881 103.27C866.002 103.905 866.236 104.469 866.581 104.964C866.824 105.3 867.15 105.585 867.561 105.818C867.962 106.051 868.438 106.173 868.989 106.182C869.493 106.182 869.946 106.093 870.347 105.916C870.739 105.748 871.066 105.524 871.327 105.244C871.607 104.945 871.826 104.595 871.985 104.194C872.144 103.802 872.223 103.359 872.223 102.864ZM871.019 102.878C871.019 103.223 870.968 103.536 870.865 103.816C870.762 104.096 870.618 104.339 870.431 104.544C870.282 104.712 870.09 104.847 869.857 104.95C869.624 105.053 869.353 105.104 869.045 105.104C868.737 105.104 868.471 105.043 868.247 104.922C868.014 104.81 867.822 104.67 867.673 104.502C867.486 104.297 867.337 104.059 867.225 103.788C867.122 103.527 867.071 103.223 867.071 102.878C867.071 102.533 867.118 102.225 867.211 101.954C867.304 101.693 867.444 101.459 867.631 101.254C867.78 101.086 867.972 100.941 868.205 100.82C868.438 100.708 868.709 100.652 869.017 100.652C869.325 100.652 869.6 100.703 869.843 100.806C870.086 100.909 870.282 101.044 870.431 101.212C870.618 101.417 870.762 101.66 870.865 101.94C870.968 102.22 871.019 102.533 871.019 102.878ZM881.031 103.928V102.85H879.715V99.952H878.511V102.85H875.081L879.029 96.27H877.741L873.905 102.64V103.928H878.511V106H879.715V103.928H881.031Z" fill="#6F6E95"/>
<path d="M803.764 82.392C802.327 82.392 801.048 82.0373 799.928 81.328C798.827 80.6187 797.987 79.676 797.408 78.5C796.979 77.6413 796.699 76.7173 796.568 75.728C796.456 74.7387 796.4 73.7213 796.4 72.676C796.4 71.9667 796.428 71.2293 796.484 70.464C796.54 69.68 796.652 68.9147 796.82 68.168C796.988 67.4213 797.231 66.712 797.548 66.04C797.865 65.3493 798.285 64.7333 798.808 64.192C799.368 63.6133 800.049 63.1373 800.852 62.764C801.655 62.3907 802.672 62.204 803.904 62.204C804.8 62.204 805.64 62.3347 806.424 62.596C807.208 62.8387 807.889 63.1933 808.468 63.66C809.065 64.1267 809.532 64.6867 809.868 65.34C810.223 65.9933 810.4 66.712 810.4 67.496H806.704C806.499 65.9653 805.509 65.2 803.736 65.2C802.952 65.2 802.308 65.3867 801.804 65.76C801.319 66.1147 800.936 66.5813 800.656 67.16C800.376 67.7387 800.18 68.3827 800.068 69.092C799.975 69.8013 799.928 70.5013 799.928 71.192C800.152 70.8187 800.441 70.5013 800.796 70.24C801.151 69.96 801.524 69.736 801.916 69.568C802.327 69.3813 802.747 69.2507 803.176 69.176C803.605 69.0827 804.016 69.036 804.408 69.036C805.472 69.036 806.405 69.204 807.208 69.54C808.011 69.8573 808.683 70.3053 809.224 70.884C809.765 71.4627 810.167 72.1627 810.428 72.984C810.708 73.7867 810.848 74.6733 810.848 75.644C810.848 76.5773 810.689 77.4547 810.372 78.276C810.055 79.0973 809.597 79.816 809 80.432C808.403 81.0293 807.656 81.5053 806.76 81.86C805.883 82.2147 804.884 82.392 803.764 82.392ZM803.764 79.256C804.884 79.256 805.752 78.92 806.368 78.248C806.984 77.5573 807.292 76.6427 807.292 75.504C807.292 74.496 806.984 73.6467 806.368 72.956C805.771 72.2467 804.884 71.892 803.708 71.892C803.223 71.892 802.765 71.9853 802.336 72.172C801.925 72.3587 801.561 72.6107 801.244 72.928C800.945 73.2453 800.712 73.628 800.544 74.076C800.376 74.524 800.292 75 800.292 75.504C800.292 76.568 800.6 77.464 801.216 78.192C801.832 78.9013 802.681 79.256 803.764 79.256ZM822.085 78.108H812.817V74.384L820.321 62.596H824.325L816.373 74.944H822.085V69.708H825.585V74.944H828.217V78.108H825.585V82H822.085V78.108ZM835.094 77.772V82H830.866V77.772H835.094ZM846.361 65.732H836.057V62.596H850.141V65.396L841.965 82H838.129L846.361 65.732ZM858.708 82.392C857.719 82.392 856.813 82.2427 855.992 81.944C855.171 81.6267 854.452 81.1973 853.836 80.656C853.22 80.096 852.735 79.4427 852.38 78.696C852.025 77.9307 851.839 77.0907 851.82 76.176H855.348C855.423 77.128 855.759 77.8933 856.356 78.472C856.953 79.032 857.747 79.312 858.736 79.312C859.763 79.312 860.575 79.0413 861.172 78.5C861.769 77.9587 862.068 77.24 862.068 76.344C862.068 75.336 861.713 74.608 861.004 74.16C860.313 73.6933 859.455 73.46 858.428 73.46H856.86V70.408H858.372C858.783 70.408 859.184 70.3707 859.576 70.296C859.968 70.2027 860.313 70.0533 860.612 69.848C860.929 69.6427 861.181 69.3813 861.368 69.064C861.555 68.728 861.648 68.308 861.648 67.804C861.648 67.0573 861.377 66.4507 860.836 65.984C860.313 65.5173 859.613 65.284 858.736 65.284C857.728 65.284 856.935 65.564 856.356 66.124C855.777 66.6653 855.488 67.3373 855.488 68.14H851.932C851.951 67.2627 852.137 66.46 852.492 65.732C852.847 65.004 853.332 64.3787 853.948 63.856C854.564 63.3333 855.283 62.932 856.104 62.652C856.925 62.3533 857.803 62.204 858.736 62.204C859.651 62.204 860.5 62.3347 861.284 62.596C862.087 62.8573 862.777 63.2307 863.356 63.716C863.935 64.1827 864.383 64.7613 864.7 65.452C865.036 66.124 865.204 66.88 865.204 67.72C865.204 68.616 864.943 69.456 864.42 70.24C863.897 71.024 863.16 71.5747 862.208 71.892C862.749 72.0413 863.235 72.2653 863.664 72.564C864.093 72.8627 864.448 73.2173 864.728 73.628C865.027 74.0387 865.251 74.4867 865.4 74.972C865.549 75.4573 865.624 75.952 865.624 76.456C865.624 77.3893 865.437 78.2293 865.064 78.976C864.709 79.704 864.215 80.32 863.58 80.824C862.964 81.328 862.236 81.72 861.396 82C860.556 82.2613 859.66 82.392 858.708 82.392ZM875.733 82.392C874.295 82.392 873.017 82.0373 871.897 81.328C870.795 80.6187 869.955 79.676 869.377 78.5C868.947 77.6413 868.667 76.7173 868.537 75.728C868.425 74.7387 868.369 73.7213 868.369 72.676C868.369 71.9667 868.397 71.2293 868.453 70.464C868.509 69.68 868.621 68.9147 868.789 68.168C868.957 67.4213 869.199 66.712 869.517 66.04C869.834 65.3493 870.254 64.7333 870.777 64.192C871.337 63.6133 872.018 63.1373 872.821 62.764C873.623 62.3907 874.641 62.204 875.873 62.204C876.769 62.204 877.609 62.3347 878.393 62.596C879.177 62.8387 879.858 63.1933 880.437 63.66C881.034 64.1267 881.501 64.6867 881.837 65.34C882.191 65.9933 882.369 66.712 882.369 67.496H878.673C878.467 65.9653 877.478 65.2 875.705 65.2C874.921 65.2 874.277 65.3867 873.773 65.76C873.287 66.1147 872.905 66.5813 872.625 67.16C872.345 67.7387 872.149 68.3827 872.037 69.092C871.943 69.8013 871.897 70.5013 871.897 71.192C872.121 70.8187 872.41 70.5013 872.765 70.24C873.119 69.96 873.493 69.736 873.885 69.568C874.295 69.3813 874.715 69.2507 875.145 69.176C875.574 69.0827 875.985 69.036 876.377 69.036C877.441 69.036 878.374 69.204 879.177 69.54C879.979 69.8573 880.651 70.3053 881.193 70.884C881.734 71.4627 882.135 72.1627 882.397 72.984C882.677 73.7867 882.817 74.6733 882.817 75.644C882.817 76.5773 882.658 77.4547 882.341 78.276C882.023 79.0973 881.566 79.816 880.969 80.432C880.371 81.0293 879.625 81.5053 878.729 81.86C877.851 82.2147 876.853 82.392 875.733 82.392ZM875.733 79.256C876.853 79.256 877.721 78.92 878.337 78.248C878.953 77.5573 879.261 76.6427 879.261 75.504C879.261 74.496 878.953 73.6467 878.337 72.956C877.739 72.2467 876.853 71.892 875.677 71.892C875.191 71.892 874.734 71.9853 874.305 72.172C873.894 72.3587 873.53 72.6107 873.213 72.928C872.914 73.2453 872.681 73.628 872.513 74.076C872.345 74.524 872.261 75 872.261 75.504C872.261 76.568 872.569 77.464 873.185 78.192C873.801 78.9013 874.65 79.256 875.733 79.256ZM894.054 78.108H884.786V74.384L892.29 62.596H896.294L888.342 74.944H894.054V69.708H897.554V74.944H900.186V78.108H897.554V82H894.054V78.108ZM908.942 82.392C908.065 82.392 907.244 82.2613 906.478 82C905.713 81.7387 905.041 81.3747 904.462 80.908C903.902 80.4227 903.445 79.8533 903.09 79.2C902.754 78.5467 902.568 77.828 902.53 77.044H906.03C906.124 77.828 906.45 78.416 907.01 78.808C907.57 79.2 908.27 79.396 909.11 79.396C909.801 79.396 910.37 79.2467 910.818 78.948C911.285 78.6493 911.658 78.2293 911.938 77.688C912.218 77.128 912.414 76.4747 912.526 75.728C912.638 74.9627 912.694 74.1227 912.694 73.208C912.545 73.6 912.321 73.9453 912.022 74.244C911.742 74.524 911.416 74.7573 911.042 74.944C910.669 75.112 910.268 75.2427 909.838 75.336C909.428 75.4293 909.036 75.476 908.662 75.476C907.598 75.476 906.646 75.3267 905.806 75.028C904.985 74.7107 904.285 74.2627 903.706 73.684C903.128 73.1053 902.689 72.4147 902.39 71.612C902.092 70.8093 901.942 69.9133 901.942 68.924C901.942 67.972 902.101 67.0853 902.418 66.264C902.754 65.4427 903.221 64.7333 903.818 64.136C904.416 63.5387 905.144 63.072 906.002 62.736C906.88 62.3813 907.869 62.204 908.97 62.204C909.978 62.204 910.865 62.3627 911.63 62.68C912.414 62.9973 913.077 63.4173 913.618 63.94C914.514 64.78 915.168 65.8347 915.578 67.104C915.989 68.3547 916.194 69.9693 916.194 71.948C916.194 72.6573 916.176 73.404 916.138 74.188C916.101 74.9533 915.998 75.7093 915.83 76.456C915.681 77.2027 915.457 77.9213 915.158 78.612C914.86 79.284 914.449 79.8813 913.926 80.404C913.366 80.964 912.694 81.44 911.91 81.832C911.145 82.2053 910.156 82.392 908.942 82.392ZM909.026 72.62C909.493 72.62 909.932 72.536 910.342 72.368C910.753 72.1813 911.098 71.9293 911.378 71.612C911.677 71.2947 911.91 70.9213 912.078 70.492C912.246 70.044 912.33 69.568 912.33 69.064C912.33 68 912.041 67.1133 911.462 66.404C910.884 65.6947 910.053 65.34 908.97 65.34C907.888 65.34 907.038 65.676 906.422 66.348C905.825 67.02 905.526 67.9253 905.526 69.064C905.526 70.072 905.825 70.9213 906.422 71.612C907.038 72.284 907.906 72.62 909.026 72.62ZM926.373 82.392C924.936 82.392 923.657 82.0373 922.537 81.328C921.436 80.6187 920.596 79.676 920.017 78.5C919.588 77.6413 919.308 76.7173 919.177 75.728C919.065 74.7387 919.009 73.7213 919.009 72.676C919.009 71.9667 919.037 71.2293 919.093 70.464C919.149 69.68 919.261 68.9147 919.429 68.168C919.597 67.4213 919.84 66.712 920.157 66.04C920.475 65.3493 920.895 64.7333 921.417 64.192C921.977 63.6133 922.659 63.1373 923.461 62.764C924.264 62.3907 925.281 62.204 926.513 62.204C927.409 62.204 928.249 62.3347 929.033 62.596C929.817 62.8387 930.499 63.1933 931.077 63.66C931.675 64.1267 932.141 64.6867 932.477 65.34C932.832 65.9933 933.009 66.712 933.009 67.496H929.313C929.108 65.9653 928.119 65.2 926.345 65.2C925.561 65.2 924.917 65.3867 924.413 65.76C923.928 66.1147 923.545 66.5813 923.265 67.16C922.985 67.7387 922.789 68.3827 922.677 69.092C922.584 69.8013 922.537 70.5013 922.537 71.192C922.761 70.8187 923.051 70.5013 923.405 70.24C923.76 69.96 924.133 69.736 924.525 69.568C924.936 69.3813 925.356 69.2507 925.785 69.176C926.215 69.0827 926.625 69.036 927.017 69.036C928.081 69.036 929.015 69.204 929.817 69.54C930.62 69.8573 931.292 70.3053 931.833 70.884C932.375 71.4627 932.776 72.1627 933.037 72.984C933.317 73.7867 933.457 74.6733 933.457 75.644C933.457 76.5773 933.299 77.4547 932.981 78.276C932.664 79.0973 932.207 79.816 931.609 80.432C931.012 81.0293 930.265 81.5053 929.369 81.86C928.492 82.2147 927.493 82.392 926.373 82.392ZM926.373 79.256C927.493 79.256 928.361 78.92 928.977 78.248C929.593 77.5573 929.901 76.6427 929.901 75.504C929.901 74.496 929.593 73.6467 928.977 72.956C928.38 72.2467 927.493 71.892 926.317 71.892C925.832 71.892 925.375 71.9853 924.945 72.172C924.535 72.3587 924.171 72.6107 923.853 72.928C923.555 73.2453 923.321 73.628 923.153 74.076C922.985 74.524 922.901 75 922.901 75.504C922.901 76.568 923.209 77.464 923.825 78.192C924.441 78.9013 925.291 79.256 926.373 79.256ZM936.099 78.78L943.631 71.444C944.303 70.7907 944.76 70.1747 945.003 69.596C945.245 68.9987 945.367 68.4573 945.367 67.972C945.367 67.1133 945.115 66.46 944.611 66.012C944.107 65.5453 943.435 65.312 942.595 65.312C941.493 65.312 940.709 65.648 940.243 66.32C939.776 66.9733 939.543 67.7853 939.543 68.756H935.987C935.987 67.748 936.145 66.8427 936.463 66.04C936.78 65.2187 937.228 64.528 937.807 63.968C938.385 63.408 939.085 62.9787 939.907 62.68C940.728 62.3627 941.643 62.204 942.651 62.204C943.547 62.204 944.377 62.3347 945.143 62.596C945.908 62.8573 946.571 63.24 947.131 63.744C947.691 64.248 948.129 64.864 948.447 65.592C948.764 66.32 948.923 67.1413 948.923 68.056C948.923 69.064 948.68 70.016 948.195 70.912C947.709 71.7893 947.093 72.5827 946.347 73.292L940.551 78.836H949.259V82H936.099V78.78ZM958.653 82.392C957.645 82.392 956.721 82.252 955.881 81.972C955.041 81.6733 954.313 81.2627 953.697 80.74C953.1 80.2173 952.624 79.5827 952.269 78.836C951.915 78.0893 951.719 77.2493 951.681 76.316H955.181C955.275 77.268 955.639 78.0053 956.273 78.528C956.908 79.032 957.711 79.284 958.681 79.284C959.26 79.284 959.764 79.1907 960.193 79.004C960.641 78.7987 961.005 78.528 961.285 78.192C961.584 77.856 961.808 77.464 961.957 77.016C962.107 76.5493 962.181 76.0547 962.181 75.532C962.181 75.028 962.107 74.5613 961.957 74.132C961.827 73.7027 961.612 73.3293 961.313 73.012C961.015 72.6947 960.641 72.4427 960.193 72.256C959.764 72.0693 959.26 71.976 958.681 71.976C958.084 71.976 957.505 72.116 956.945 72.396C956.385 72.676 955.947 73.0587 955.629 73.544H952.073L952.745 62.596H964.869V65.732H955.685L955.377 70.492C956.273 69.428 957.636 68.896 959.465 68.896C960.473 68.896 961.369 69.064 962.153 69.4C962.937 69.7173 963.591 70.1747 964.113 70.772C964.655 71.3507 965.065 72.0413 965.345 72.844C965.625 73.628 965.765 74.4773 965.765 75.392C965.765 76.4187 965.597 77.3613 965.261 78.22C964.944 79.0787 964.477 79.816 963.861 80.432C963.245 81.048 962.499 81.5333 961.621 81.888C960.744 82.224 959.755 82.392 958.653 82.392ZM975.674 82.392C974.237 82.392 972.958 82.0373 971.838 81.328C970.737 80.6187 969.897 79.676 969.318 78.5C968.889 77.6413 968.609 76.7173 968.478 75.728C968.366 74.7387 968.31 73.7213 968.31 72.676C968.31 71.9667 968.338 71.2293 968.394 70.464C968.45 69.68 968.562 68.9147 968.73 68.168C968.898 67.4213 969.141 66.712 969.458 66.04C969.775 65.3493 970.195 64.7333 970.718 64.192C971.278 63.6133 971.959 63.1373 972.762 62.764C973.565 62.3907 974.582 62.204 975.814 62.204C976.71 62.204 977.55 62.3347 978.334 62.596C979.118 62.8387 979.799 63.1933 980.378 63.66C980.975 64.1267 981.442 64.6867 981.778 65.34C982.133 65.9933 982.31 66.712 982.31 67.496H978.614C978.409 65.9653 977.419 65.2 975.646 65.2C974.862 65.2 974.218 65.3867 973.714 65.76C973.229 66.1147 972.846 66.5813 972.566 67.16C972.286 67.7387 972.09 68.3827 971.978 69.092C971.885 69.8013 971.838 70.5013 971.838 71.192C972.062 70.8187 972.351 70.5013 972.706 70.24C973.061 69.96 973.434 69.736 973.826 69.568C974.237 69.3813 974.657 69.2507 975.086 69.176C975.515 69.0827 975.926 69.036 976.318 69.036C977.382 69.036 978.315 69.204 979.118 69.54C979.921 69.8573 980.593 70.3053 981.134 70.884C981.675 71.4627 982.077 72.1627 982.338 72.984C982.618 73.7867 982.758 74.6733 982.758 75.644C982.758 76.5773 982.599 77.4547 982.282 78.276C981.965 79.0973 981.507 79.816 980.91 80.432C980.313 81.0293 979.566 81.5053 978.67 81.86C977.793 82.2147 976.794 82.392 975.674 82.392ZM975.674 79.256C976.794 79.256 977.662 78.92 978.278 78.248C978.894 77.5573 979.202 76.6427 979.202 75.504C979.202 74.496 978.894 73.6467 978.278 72.956C977.681 72.2467 976.794 71.892 975.618 71.892C975.133 71.892 974.675 71.9853 974.246 72.172C973.835 72.3587 973.471 72.6107 973.154 72.928C972.855 73.2453 972.622 73.628 972.454 74.076C972.286 74.524 972.202 75 972.202 75.504C972.202 76.568 972.51 77.464 973.126 78.192C973.742 78.9013 974.591 79.256 975.674 79.256Z" fill="white"/>
<path d="M716 80L727.488 91.4885L738.977 80" stroke="url(#swap_preview_paint0_linear)" stroke-width="3.99765"/>
<path d="M639.424 92.848C639.424 93.6587 639.285 94.3627 639.008 94.96C638.752 95.5573 638.411 96.0693 637.984 96.496C637.301 97.1787 636.469 97.6693 635.488 97.968C634.507 98.2667 633.44 98.416 632.288 98.416C631.221 98.416 630.229 98.2667 629.312 97.968C628.395 97.648 627.595 97.1573 626.912 96.496C626.421 96.0267 626.005 95.4613 625.664 94.8C625.323 94.1387 625.152 93.4133 625.152 92.624H628.896C628.896 92.9867 628.981 93.3493 629.152 93.712C629.323 94.0747 629.536 94.3627 629.792 94.576C630.112 94.832 630.464 95.024 630.848 95.152C631.253 95.2587 631.744 95.312 632.32 95.312C632.661 95.312 633.024 95.2907 633.408 95.248C633.813 95.184 634.187 95.0773 634.528 94.928C634.869 94.7787 635.147 94.5653 635.36 94.288C635.595 94.0107 635.712 93.648 635.712 93.2C635.712 92.7093 635.563 92.3147 635.264 92.016C634.965 91.7173 634.56 91.5253 634.048 91.44C633.301 91.3333 632.533 91.248 631.744 91.184C630.955 91.0987 630.187 90.9707 629.44 90.8C628.864 90.672 628.341 90.4693 627.872 90.192C627.424 89.9147 627.029 89.584 626.688 89.2C626.347 88.7947 626.08 88.3573 625.888 87.888C625.717 87.3973 625.632 86.8853 625.632 86.352C625.632 85.4987 625.792 84.7733 626.112 84.176C626.432 83.5573 626.837 83.0347 627.328 82.608C627.947 82.0747 628.683 81.6693 629.536 81.392C630.389 81.0933 631.339 80.944 632.384 80.944C633.387 80.944 634.347 81.104 635.264 81.424C636.203 81.744 636.981 82.2347 637.6 82.896C638.048 83.3867 638.4 83.9307 638.656 84.528C638.933 85.104 639.072 85.7013 639.072 86.32H635.264C635.264 86 635.2 85.712 635.072 85.456C634.944 85.2 634.784 84.9653 634.592 84.752C634.357 84.5173 634.037 84.336 633.632 84.208C633.248 84.0587 632.843 83.984 632.416 83.984C632.117 83.984 631.829 83.9947 631.552 84.016C631.275 84.0373 630.987 84.112 630.688 84.24C630.325 84.3893 630.016 84.6133 629.76 84.912C629.525 85.2107 629.408 85.5733 629.408 86C629.408 86.5973 629.611 87.0133 630.016 87.248C630.443 87.4613 630.88 87.6 631.328 87.664C631.712 87.7067 632.032 87.7493 632.288 87.792C632.544 87.8133 632.8 87.8453 633.056 87.888C633.312 87.9093 633.579 87.9413 633.856 87.984C634.133 88.0267 634.475 88.08 634.88 88.144C636.203 88.3573 637.291 88.8693 638.144 89.68C638.997 90.4693 639.424 91.5253 639.424 92.848ZM643.344 98V75.312H659.503V79.056H647.472V84.336H658.064V88.048H647.472V94.256H659.503V98H643.344ZM671.821 79.152V98H667.693V79.152H660.973V75.312H678.541V79.152H671.821ZM694.815 98V88.112H685.503V98H681.375V75.312H685.503V84.176H694.815V75.312H698.943V98H694.815Z" fill="white"/>
<rect x="210" y="42" width="300" height="80" rx="5.39683" fill="black"/>
<path d="M234.092 103.27C234.083 102.486 233.835 101.851 233.35 101.366C232.865 100.881 232.202 100.577 231.362 100.456C231.185 100.428 231.012 100.4 230.844 100.372V97.068C231.115 97.1147 231.357 97.1893 231.572 97.292C231.787 97.404 231.969 97.5487 232.118 97.726C232.258 97.8847 232.37 98.0713 232.454 98.286C232.538 98.5007 232.589 98.7293 232.608 98.972H233.91C233.882 98.132 233.565 97.4227 232.958 96.844C232.678 96.5733 232.356 96.3633 231.992 96.214C231.628 96.0553 231.245 95.9573 230.844 95.92V94.814H230.06V95.906C229.183 95.9713 228.445 96.2933 227.848 96.872C227.577 97.124 227.372 97.4227 227.232 97.768C227.083 98.104 227.008 98.4587 227.008 98.832C227.027 99.616 227.279 100.223 227.764 100.652C228.249 101.081 228.87 101.352 229.626 101.464L230.06 101.534V105.02C229.78 104.983 229.514 104.917 229.262 104.824C229.01 104.731 228.791 104.595 228.604 104.418C228.399 104.222 228.231 103.984 228.1 103.704C227.969 103.433 227.904 103.149 227.904 102.85H226.602C226.611 103.326 226.709 103.765 226.896 104.166C227.092 104.577 227.349 104.931 227.666 105.23C228.254 105.781 229.052 106.093 230.06 106.168V107.218H230.844V106.168C231.311 106.131 231.754 106.033 232.174 105.874C232.585 105.706 232.944 105.477 233.252 105.188C233.504 104.955 233.705 104.679 233.854 104.362C234.013 104.045 234.092 103.681 234.092 103.27ZM230.06 100.246C229.957 100.227 229.855 100.213 229.752 100.204C229.369 100.157 229.033 100.022 228.744 99.798C228.464 99.5833 228.315 99.252 228.296 98.804C228.296 98.58 228.329 98.3793 228.394 98.202C228.459 98.034 228.553 97.8753 228.674 97.726C228.861 97.5207 229.066 97.3667 229.29 97.264C229.523 97.152 229.78 97.082 230.06 97.054V100.246ZM232.79 103.298C232.79 103.559 232.743 103.783 232.65 103.97C232.566 104.157 232.445 104.32 232.286 104.46C232.099 104.637 231.885 104.768 231.642 104.852C231.399 104.945 231.133 105.001 230.844 105.02V101.66L231.152 101.702C231.731 101.795 232.151 101.987 232.412 102.276C232.673 102.565 232.799 102.906 232.79 103.298ZM242.088 106V104.88H237.72L241.108 100.778C241.378 100.451 241.584 100.12 241.724 99.784C241.864 99.448 241.934 99.0887 241.934 98.706C241.934 98.398 241.896 98.1227 241.822 97.88C241.747 97.628 241.635 97.3993 241.486 97.194C241.234 96.8487 240.902 96.578 240.492 96.382C240.072 96.1767 239.596 96.074 239.064 96.074C238.186 96.0833 237.486 96.3447 236.964 96.858C236.432 97.3713 236.161 98.0573 236.152 98.916H237.384C237.402 98.2813 237.575 97.824 237.902 97.544C238.238 97.2733 238.63 97.1427 239.078 97.152C239.591 97.152 239.992 97.2873 240.282 97.558C240.571 97.8287 240.716 98.216 240.716 98.72C240.716 98.972 240.674 99.21 240.59 99.434C240.506 99.6673 240.37 99.896 240.184 100.12L236.166 104.978V106H242.088ZM250.727 103.34C250.727 102.817 250.587 102.337 250.307 101.898C250.027 101.459 249.626 101.147 249.103 100.96C249.514 100.783 249.85 100.489 250.111 100.078C250.382 99.6673 250.522 99.2287 250.531 98.762C250.531 98.342 250.461 97.9733 250.321 97.656C250.181 97.348 249.99 97.082 249.747 96.858C249.486 96.6153 249.169 96.424 248.795 96.284C248.431 96.144 248.044 96.074 247.633 96.074C247.213 96.074 246.821 96.1347 246.457 96.256C246.093 96.3773 245.776 96.55 245.505 96.774C245.216 97.0073 244.992 97.3013 244.833 97.656C244.665 98.0107 244.577 98.4307 244.567 98.916H245.785C245.795 98.6173 245.846 98.3513 245.939 98.118C246.042 97.894 246.187 97.7027 246.373 97.544C246.523 97.4227 246.7 97.3293 246.905 97.264C247.111 97.1893 247.344 97.152 247.605 97.152C247.876 97.152 248.114 97.1987 248.319 97.292C248.534 97.376 248.707 97.488 248.837 97.628C248.996 97.7773 249.113 97.9453 249.187 98.132C249.262 98.328 249.299 98.538 249.299 98.762C249.29 99.2753 249.127 99.6767 248.809 99.966C248.483 100.255 248.035 100.4 247.465 100.4H246.835V101.506H247.465C248.072 101.506 248.562 101.66 248.935 101.968C249.309 102.267 249.5 102.715 249.509 103.312C249.509 103.573 249.467 103.807 249.383 104.012C249.299 104.217 249.187 104.395 249.047 104.544C248.879 104.731 248.669 104.871 248.417 104.964C248.165 105.057 247.89 105.104 247.591 105.104C247.283 105.104 247.013 105.053 246.779 104.95C246.555 104.857 246.369 104.726 246.219 104.558C246.061 104.39 245.939 104.194 245.855 103.97C245.771 103.737 245.725 103.485 245.715 103.214H244.497C244.507 103.662 244.581 104.059 244.721 104.404C244.871 104.749 245.071 105.048 245.323 105.3C245.594 105.58 245.925 105.795 246.317 105.944C246.7 106.103 247.125 106.182 247.591 106.182C248.133 106.182 248.604 106.103 249.005 105.944C249.397 105.795 249.724 105.58 249.985 105.3C250.228 105.048 250.41 104.754 250.531 104.418C250.662 104.082 250.727 103.723 250.727 103.34ZM257.449 106V103.914H255.335V106H256.441C256.45 106.485 256.376 106.877 256.217 107.176C256.068 107.475 255.769 107.717 255.321 107.904L255.769 108.716C256.394 108.455 256.833 108.095 257.085 107.638C257.337 107.19 257.458 106.644 257.449 106ZM268.665 106V104.908H266.033V96.27H264.885L262.197 97.936V99.21L264.829 97.628V104.908H262.183V106H268.665ZM276.814 106V104.88H272.446L275.834 100.778C276.105 100.451 276.31 100.12 276.45 99.784C276.59 99.448 276.66 99.0887 276.66 98.706C276.66 98.398 276.623 98.1227 276.548 97.88C276.474 97.628 276.362 97.3993 276.212 97.194C275.96 96.8487 275.629 96.578 275.218 96.382C274.798 96.1767 274.322 96.074 273.79 96.074C272.913 96.0833 272.213 96.3447 271.69 96.858C271.158 97.3713 270.888 98.0573 270.878 98.916H272.11C272.129 98.2813 272.302 97.824 272.628 97.544C272.964 97.2733 273.356 97.1427 273.804 97.152C274.318 97.152 274.719 97.2873 275.008 97.558C275.298 97.8287 275.442 98.216 275.442 98.72C275.442 98.972 275.4 99.21 275.316 99.434C275.232 99.6673 275.097 99.896 274.91 100.12L270.892 104.978V106H276.814ZM285.986 103.928V102.85H284.67V99.952H283.466V102.85H280.036L283.984 96.27H282.696L278.86 102.64V103.928H283.466V106H284.67V103.928H285.986ZM292.147 106.014V103.9H290.075V106.014H292.147ZM303.223 102.864C303.223 102.351 303.134 101.879 302.957 101.45C302.789 101.021 302.546 100.652 302.229 100.344C301.996 100.12 301.702 99.938 301.347 99.798C300.992 99.658 300.591 99.588 300.143 99.588C299.667 99.5973 299.219 99.7 298.799 99.896C298.379 100.101 298.085 100.377 297.917 100.722C297.917 100.199 297.964 99.6673 298.057 99.126C298.16 98.594 298.36 98.146 298.659 97.782C298.808 97.6047 298.99 97.4553 299.205 97.334C299.429 97.222 299.695 97.1613 300.003 97.152C300.236 97.152 300.446 97.1847 300.633 97.25C300.829 97.306 300.997 97.3947 301.137 97.516C301.286 97.6467 301.412 97.8007 301.515 97.978C301.608 98.1647 301.664 98.3793 301.683 98.622H302.887C302.868 98.2673 302.789 97.936 302.649 97.628C302.509 97.3293 302.327 97.0727 302.103 96.858C301.851 96.6153 301.552 96.424 301.207 96.284C300.852 96.144 300.465 96.074 300.045 96.074C299.429 96.0833 298.911 96.2233 298.491 96.494C298.08 96.7647 297.758 97.0867 297.525 97.46C297.208 97.992 296.988 98.5847 296.867 99.238C296.755 99.8913 296.704 100.568 296.713 101.268C296.704 101.968 296.76 102.635 296.881 103.27C297.002 103.905 297.236 104.469 297.581 104.964C297.824 105.3 298.15 105.585 298.561 105.818C298.962 106.051 299.438 106.173 299.989 106.182C300.493 106.182 300.946 106.093 301.347 105.916C301.739 105.748 302.066 105.524 302.327 105.244C302.607 104.945 302.826 104.595 302.985 104.194C303.144 103.802 303.223 103.359 303.223 102.864ZM302.019 102.878C302.019 103.223 301.968 103.536 301.865 103.816C301.762 104.096 301.618 104.339 301.431 104.544C301.282 104.712 301.09 104.847 300.857 104.95C300.624 105.053 300.353 105.104 300.045 105.104C299.737 105.104 299.471 105.043 299.247 104.922C299.014 104.81 298.822 104.67 298.673 104.502C298.486 104.297 298.337 104.059 298.225 103.788C298.122 103.527 298.071 103.223 298.071 102.878C298.071 102.533 298.118 102.225 298.211 101.954C298.304 101.693 298.444 101.459 298.631 101.254C298.78 101.086 298.972 100.941 299.205 100.82C299.438 100.708 299.709 100.652 300.017 100.652C300.325 100.652 300.6 100.703 300.843 100.806C301.086 100.909 301.282 101.044 301.431 101.212C301.618 101.417 301.762 101.66 301.865 101.94C301.968 102.22 302.019 102.533 302.019 102.878ZM312.031 103.928V102.85H310.715V99.952H309.511V102.85H306.081L310.029 96.27H308.741L304.905 102.64V103.928H309.511V106H310.715V103.928H312.031Z" fill="#6F6E95"/>
<path d="M227.372 78.78L234.904 71.444C235.576 70.7907 236.033 70.1747 236.276 69.596C236.519 68.9987 236.64 68.4573 236.64 67.972C236.64 67.1133 236.388 66.46 235.884 66.012C235.38 65.5453 234.708 65.312 233.868 65.312C232.767 65.312 231.983 65.648 231.516 66.32C231.049 66.9733 230.816 67.7853 230.816 68.756H227.26C227.26 67.748 227.419 66.8427 227.736 66.04C228.053 65.2187 228.501 64.528 229.08 63.968C229.659 63.408 230.359 62.9787 231.18 62.68C232.001 62.3627 232.916 62.204 233.924 62.204C234.82 62.204 235.651 62.3347 236.416 62.596C237.181 62.8573 237.844 63.24 238.404 63.744C238.964 64.248 239.403 64.864 239.72 65.592C240.037 66.32 240.196 67.1413 240.196 68.056C240.196 69.064 239.953 70.016 239.468 70.912C238.983 71.7893 238.367 72.5827 237.62 73.292L231.824 78.836H240.532V82H227.372V78.78ZM248.458 77.772V82H244.23V77.772H248.458ZM249.56 69.792V66.18L254.88 62.596H257.848V82H254.348V66.544L249.56 69.792ZM261.552 78.78L269.084 71.444C269.756 70.7907 270.213 70.1747 270.456 69.596C270.698 68.9987 270.82 68.4573 270.82 67.972C270.82 67.1133 270.568 66.46 270.064 66.012C269.56 65.5453 268.888 65.312 268.048 65.312C266.946 65.312 266.162 65.648 265.696 66.32C265.229 66.9733 264.996 67.7853 264.996 68.756H261.44C261.44 67.748 261.598 66.8427 261.916 66.04C262.233 65.2187 262.681 64.528 263.26 63.968C263.838 63.408 264.538 62.9787 265.36 62.68C266.181 62.3627 267.096 62.204 268.104 62.204C269 62.204 269.83 62.3347 270.596 62.596C271.361 62.8573 272.024 63.24 272.584 63.744C273.144 64.248 273.582 64.864 273.9 65.592C274.217 66.32 274.376 67.1413 274.376 68.056C274.376 69.064 274.133 70.016 273.648 70.912C273.162 71.7893 272.546 72.5827 271.8 73.292L266.004 78.836H274.712V82H261.552V78.78ZM284.106 82.392C283.098 82.392 282.174 82.252 281.334 81.972C280.494 81.6733 279.766 81.2627 279.15 80.74C278.553 80.2173 278.077 79.5827 277.722 78.836C277.368 78.0893 277.172 77.2493 277.134 76.316H280.634C280.728 77.268 281.092 78.0053 281.726 78.528C282.361 79.032 283.164 79.284 284.134 79.284C284.713 79.284 285.217 79.1907 285.646 79.004C286.094 78.7987 286.458 78.528 286.738 78.192C287.037 77.856 287.261 77.464 287.41 77.016C287.56 76.5493 287.634 76.0547 287.634 75.532C287.634 75.028 287.56 74.5613 287.41 74.132C287.28 73.7027 287.065 73.3293 286.766 73.012C286.468 72.6947 286.094 72.4427 285.646 72.256C285.217 72.0693 284.713 71.976 284.134 71.976C283.537 71.976 282.958 72.116 282.398 72.396C281.838 72.676 281.4 73.0587 281.082 73.544H277.526L278.198 62.596H290.322V65.732H281.138L280.83 70.492C281.726 69.428 283.089 68.896 284.918 68.896C285.926 68.896 286.822 69.064 287.606 69.4C288.39 69.7173 289.044 70.1747 289.566 70.772C290.108 71.3507 290.518 72.0413 290.798 72.844C291.078 73.628 291.218 74.4773 291.218 75.392C291.218 76.4187 291.05 77.3613 290.714 78.22C290.397 79.0787 289.93 79.816 289.314 80.432C288.698 81.048 287.952 81.5333 287.074 81.888C286.197 82.224 285.208 82.392 284.106 82.392ZM293.091 69.792V66.18L298.411 62.596H301.379V82H297.879V66.544L293.091 69.792Z" fill="white"/>
<circle cx="568.31" cy="85.3096" r="25.3095" transform="rotate(-90 568.31 85.3096)" fill="#10101E" stroke="black" stroke-width="2"/>
<path d="M576.7 89.9779C576.801 89.9779 576.897 90.0177 576.967 90.0885C577.038 90.1594 577.078 90.2555 577.078 90.3557L577.078 93.0001C577.078 93.1003 577.038 93.1964 576.967 93.2672C576.897 93.3381 576.801 93.3779 576.7 93.3779L564.513 93.3779L567.101 96.1432C567.151 96.1968 567.185 96.264 567.198 96.3365C567.211 96.4089 567.202 96.4836 567.173 96.5512C567.144 96.6182 567.096 96.6752 567.035 96.7155C566.974 96.7557 566.902 96.7774 566.829 96.7778L563.082 96.7778C563.03 96.7777 562.979 96.7668 562.931 96.7461C562.884 96.7253 562.841 96.6949 562.806 96.6569L558.431 91.9348C558.366 91.8649 558.33 91.7731 558.33 91.6779C558.33 91.5826 558.366 91.4908 558.431 91.421L562.806 86.6988C562.841 86.6608 562.884 86.6305 562.931 86.6097C562.979 86.5889 563.03 86.5781 563.082 86.5779L566.829 86.5779C566.902 86.5784 566.974 86.6001 567.035 86.6403C567.096 86.6805 567.144 86.7376 567.173 86.8046C567.202 86.8722 567.211 86.9468 567.198 87.0193C567.185 87.0918 567.151 87.1589 567.101 87.2126L564.513 89.9779L576.7 89.9779Z" fill="white"/>
<path d="M558.186 80.8569L558.186 78.2124C558.186 78.1122 558.226 78.0162 558.296 77.9453C558.367 77.8745 558.463 77.8347 558.564 77.8347L570.751 77.8347L568.163 75.0694C568.112 75.0157 568.079 74.9485 568.066 74.8761C568.053 74.8036 568.062 74.729 568.091 74.6614C568.12 74.5944 568.168 74.5373 568.229 74.4971C568.29 74.4568 568.362 74.4352 568.435 74.4347L572.164 74.4347C572.215 74.4349 572.267 74.4457 572.314 74.4665C572.361 74.4873 572.404 74.5176 572.439 74.5556L576.833 79.2778C576.898 79.3476 576.934 79.4394 576.934 79.5347C576.934 79.6299 576.898 79.7217 576.833 79.7915L572.458 84.5137C572.421 84.5541 572.375 84.5859 572.324 84.6067C572.273 84.6276 572.218 84.6371 572.164 84.6346L568.416 84.6346C568.343 84.6341 568.272 84.6125 568.21 84.5722C568.149 84.532 568.101 84.4749 568.072 84.4079C568.043 84.3403 568.034 84.2657 568.047 84.1932C568.06 84.1208 568.094 84.0536 568.144 84L570.751 81.2346L558.564 81.2346C558.463 81.2346 558.367 81.1948 558.296 81.124C558.226 81.0531 558.186 80.9571 558.186 80.8569Z" fill="white"/>
<path d="M147 80L158.488 91.4885L169.977 80" stroke="url(#swap_preview_paint1_linear)" stroke-width="3.99765"/>
<path d="M70.424 92.848C70.424 93.6587 70.2853 94.3627 70.008 94.96C69.752 95.5573 69.4107 96.0693 68.984 96.496C68.3013 97.1787 67.4693 97.6693 66.488 97.968C65.5067 98.2667 64.44 98.416 63.288 98.416C62.2213 98.416 61.2293 98.2667 60.312 97.968C59.3947 97.648 58.5947 97.1573 57.912 96.496C57.4213 96.0267 57.0053 95.4613 56.664 94.8C56.3227 94.1387 56.152 93.4133 56.152 92.624H59.896C59.896 92.9867 59.9813 93.3493 60.152 93.712C60.3227 94.0747 60.536 94.3627 60.792 94.576C61.112 94.832 61.464 95.024 61.848 95.152C62.2533 95.2587 62.744 95.312 63.32 95.312C63.6613 95.312 64.024 95.2907 64.408 95.248C64.8133 95.184 65.1867 95.0773 65.528 94.928C65.8693 94.7787 66.1467 94.5653 66.36 94.288C66.5947 94.0107 66.712 93.648 66.712 93.2C66.712 92.7093 66.5627 92.3147 66.264 92.016C65.9653 91.7173 65.56 91.5253 65.048 91.44C64.3013 91.3333 63.5333 91.248 62.744 91.184C61.9547 91.0987 61.1867 90.9707 60.44 90.8C59.864 90.672 59.3413 90.4693 58.872 90.192C58.424 89.9147 58.0293 89.584 57.688 89.2C57.3467 88.7947 57.08 88.3573 56.888 87.888C56.7173 87.3973 56.632 86.8853 56.632 86.352C56.632 85.4987 56.792 84.7733 57.112 84.176C57.432 83.5573 57.8373 83.0347 58.328 82.608C58.9467 82.0747 59.6827 81.6693 60.536 81.392C61.3893 81.0933 62.3387 80.944 63.384 80.944C64.3867 80.944 65.3467 81.104 66.264 81.424C67.2027 81.744 67.9813 82.2347 68.6 82.896C69.048 83.3867 69.4 83.9307 69.656 84.528C69.9333 85.104 70.072 85.7013 70.072 86.32H66.264C66.264 86 66.2 85.712 66.072 85.456C65.944 85.2 65.784 84.9653 65.592 84.752C65.3573 84.5173 65.0373 84.336 64.632 84.208C64.248 84.0587 63.8427 83.984 63.416 83.984C63.1173 83.984 62.8293 83.9947 62.552 84.016C62.2747 84.0373 61.9867 84.112 61.688 84.24C61.3253 84.3893 61.016 84.6133 60.76 84.912C60.5253 85.2107 60.408 85.5733 60.408 86C60.408 86.5973 60.6107 87.0133 61.016 87.248C61.4427 87.4613 61.88 87.6 62.328 87.664C62.712 87.7067 63.032 87.7493 63.288 87.792C63.544 87.8133 63.8 87.8453 64.056 87.888C64.312 87.9093 64.5787 87.9413 64.856 87.984C65.1333 88.0267 65.4747 88.08 65.88 88.144C67.2027 88.3573 68.2907 88.8693 69.144 89.68C69.9973 90.4693 70.424 91.5253 70.424 92.848ZM91.7195 91.408C91.7195 92.432 91.5382 93.3813 91.1755 94.256C90.8128 95.1307 90.2262 95.8773 89.4155 96.496C88.5195 97.1787 87.5595 97.6053 86.5355 97.776C85.5115 97.9467 84.4555 98.032 83.3675 98.032H74.3435V75.312H83.3675C84.2848 75.312 85.1915 75.3973 86.0875 75.568C87.0048 75.7387 87.8475 76.0693 88.6155 76.56C89.4475 77.1147 90.0875 77.8293 90.5355 78.704C91.0048 79.5787 91.2395 80.5067 91.2395 81.488C91.2395 81.9573 91.1862 82.4267 91.0795 82.896C90.9728 83.3653 90.8022 83.824 90.5675 84.272C90.3328 84.6987 90.0342 85.0933 89.6715 85.456C89.3302 85.7973 88.9248 86.0747 88.4555 86.288C89.5435 86.7787 90.3542 87.4933 90.8875 88.432C91.4422 89.3493 91.7195 90.3413 91.7195 91.408ZM87.0475 81.744C87.0475 81.2107 86.9515 80.7627 86.7595 80.4C86.5675 80.016 86.3115 79.7173 85.9915 79.504C85.6715 79.2693 85.2982 79.1093 84.8715 79.024C84.4448 78.9173 83.9968 78.864 83.5275 78.864H78.4395V84.56H83.6235C84.0928 84.56 84.5302 84.5173 84.9355 84.432C85.3622 84.3253 85.7248 84.1653 86.0235 83.952C86.3435 83.7387 86.5888 83.4507 86.7595 83.088C86.9515 82.7253 87.0475 82.2773 87.0475 81.744ZM87.5275 91.312C87.5275 90.096 87.1542 89.2427 86.4075 88.752C85.6608 88.2613 84.7435 88.016 83.6555 88.016H78.4395V94.32H83.5275C83.9968 94.32 84.4662 94.2773 84.9355 94.192C85.4262 94.0853 85.8635 93.9147 86.2475 93.68C86.6315 93.4453 86.9408 93.136 87.1755 92.752C87.4102 92.368 87.5275 91.888 87.5275 91.312ZM103.978 79.152V98H99.8495V79.152H93.1295V75.312H110.698V79.152H103.978ZM130.075 90.768C129.968 91.664 129.744 92.5493 129.403 93.424C129.062 94.2773 128.56 95.0453 127.899 95.728C127.046 96.6027 126.054 97.2747 124.923 97.744C123.792 98.192 122.619 98.416 121.403 98.416C120.187 98.416 119.024 98.2133 117.915 97.808C116.827 97.4027 115.846 96.7627 114.971 95.888C114.352 95.2693 113.851 94.6187 113.467 93.936C113.104 93.2533 112.827 92.528 112.635 91.76C112.443 90.992 112.315 90.192 112.251 89.36C112.187 88.5067 112.155 87.6107 112.155 86.672C112.155 85.7547 112.187 84.8693 112.251 84.016C112.315 83.1627 112.443 82.352 112.635 81.584C112.827 80.816 113.104 80.0907 113.467 79.408C113.851 78.7253 114.352 78.0747 114.971 77.456C115.846 76.5813 116.827 75.9413 117.915 75.536C119.024 75.1093 120.187 74.896 121.403 74.896C122.619 74.896 123.792 75.12 124.923 75.568C126.054 75.9947 127.046 76.6453 127.899 77.52C128.56 78.2027 129.062 78.9707 129.403 79.824C129.744 80.6773 129.968 81.552 130.075 82.448H125.851C125.808 81.9573 125.702 81.5307 125.531 81.168C125.36 80.784 125.126 80.4107 124.827 80.048C124.464 79.5787 123.974 79.2267 123.355 78.992C122.758 78.7573 122.107 78.64 121.403 78.64C120.742 78.64 120.102 78.768 119.483 79.024C118.886 79.28 118.363 79.6533 117.915 80.144C117.531 80.5493 117.232 81.0187 117.019 81.552C116.806 82.0853 116.646 82.6507 116.539 83.248C116.454 83.824 116.4 84.4107 116.379 85.008C116.358 85.6053 116.347 86.16 116.347 86.672C116.347 87.184 116.358 87.7387 116.379 88.336C116.4 88.9333 116.454 89.5307 116.539 90.128C116.646 90.704 116.806 91.2587 117.019 91.792C117.232 92.3253 117.531 92.7947 117.915 93.2C118.363 93.6907 118.886 94.064 119.483 94.32C120.102 94.576 120.742 94.704 121.403 94.704C122.107 94.704 122.758 94.5867 123.355 94.352C123.974 94.096 124.464 93.7333 124.827 93.264C125.424 92.5387 125.766 91.7067 125.851 90.768H130.075Z" fill="white"/>
<defs>
<linearGradient id="swap_preview_paint0_linear" x1="721.744" y1="74.2558" x2="733.233" y2="85.7442" gradientUnits="userSpaceOnUse">
<stop stop-color="#BE9461"/>
<stop offset="1" stop-color="#9C6C3C"/>
</linearGradient>
<linearGradient id="swap_preview_paint1_linear" x1="152.744" y1="74.2558" x2="164.233" y2="85.7442" gradientUnits="userSpaceOnUse">
<stop stop-color="#BE9461"/>
<stop offset="1" stop-color="#9C6C3C"/>
</linearGradient>
</defs>
</svg>
