<svg width="1183" height="218" viewBox="0 0 1183 218" fill="none" xmlns="http://www.w3.org/2000/svg">
<g filter="url(#filter0_d-282501)">
<rect x="24.8309" y="20.6746" width="565.318" height="168.651" rx="4.72222" fill="#0D0D18" stroke="black" stroke-width="1.34921"/>
<path d="M77.3924 55.6852V59.7369H83.1805V61.2102H77.3924V66.6826H75.8314V54.247H83.8821V55.6852H77.3924ZM90.6199 59.2633C90.4913 59.2399 90.351 59.2224 90.199 59.2107C90.0586 59.199 89.9242 59.1932 89.7956 59.1932C89.4448 59.1932 89.1232 59.2633 88.8309 59.4036C88.5502 59.5323 88.3105 59.696 88.1117 59.8948C87.9363 60.0702 87.7902 60.2748 87.6733 60.5086C87.568 60.7308 87.4862 60.9705 87.4277 61.2278C87.3809 61.485 87.3458 61.7423 87.3225 61.9995C87.3108 62.2568 87.3049 62.5023 87.3049 62.7362V66.6826H85.8316V57.8075H87.1471L87.2698 59.3686C87.5037 58.819 87.8603 58.4156 88.3398 58.1583C88.8309 57.8894 89.3571 57.7549 89.9183 57.7549C90.1522 57.7549 90.3861 57.7725 90.6199 57.8075V59.2633ZM99.4636 62.2451C99.4636 62.9467 99.3759 63.6073 99.2005 64.2271C99.0251 64.8468 98.6919 65.3964 98.2008 65.8758C97.8734 66.1915 97.4816 66.4429 97.0256 66.63C96.5813 66.8171 96.0785 66.9106 95.5172 66.9106C94.9559 66.9106 94.4473 66.8171 93.9912 66.63C93.5469 66.4429 93.161 66.1915 92.8336 65.8758C92.3425 65.3964 92.0093 64.8468 91.8339 64.2271C91.6585 63.6073 91.5708 62.9467 91.5708 62.2451C91.5708 61.5435 91.6585 60.8828 91.8339 60.2631C92.0093 59.6434 92.3425 59.0938 92.8336 58.6144C93.161 58.2986 93.5469 58.0472 93.9912 57.8602C94.4473 57.6731 94.9559 57.5795 95.5172 57.5795C96.0785 57.5795 96.5813 57.6731 97.0256 57.8602C97.4816 58.0472 97.8734 58.2986 98.2008 58.6144C98.6919 59.0938 99.0251 59.6434 99.2005 60.2631C99.3759 60.8828 99.4636 61.5435 99.4636 62.2451ZM97.9377 62.2451C97.9377 61.7189 97.8792 61.2102 97.7623 60.7191C97.6453 60.228 97.429 59.8188 97.1133 59.4913C96.9262 59.3043 96.6982 59.1522 96.4293 59.0353C96.172 58.9184 95.868 58.8599 95.5172 58.8599C95.1664 58.8599 94.8565 58.9184 94.5876 59.0353C94.3303 59.1522 94.1082 59.3043 93.9211 59.4913C93.6054 59.8188 93.389 60.228 93.2721 60.7191C93.1552 61.2102 93.0967 61.7189 93.0967 62.2451C93.0967 62.7713 93.1552 63.2799 93.2721 63.771C93.389 64.2621 93.6054 64.6714 93.9211 64.9988C94.1082 65.1859 94.3303 65.3379 94.5876 65.4548C94.8565 65.5718 95.1664 65.6302 95.5172 65.6302C95.868 65.6302 96.172 65.5718 96.4293 65.4548C96.6982 65.3379 96.9262 65.1859 97.1133 64.9988C97.429 64.6714 97.6453 64.2621 97.7623 63.771C97.8792 63.2799 97.9377 62.7713 97.9377 62.2451ZM112.822 66.6826V61.0348C112.822 60.7191 112.793 60.4326 112.734 60.1754C112.676 59.9181 112.577 59.7018 112.436 59.5264C112.308 59.3393 112.126 59.1932 111.893 59.0879C111.659 58.9827 111.366 58.9301 111.016 58.9301C110.735 58.9301 110.484 58.9827 110.261 59.0879C110.039 59.1932 109.84 59.3393 109.665 59.5264C109.361 59.8304 109.156 60.1988 109.051 60.6314C108.958 61.0524 108.911 61.4967 108.911 61.9644V66.6826H107.42V61.0348C107.42 60.7191 107.391 60.4326 107.332 60.1754C107.285 59.9181 107.192 59.7018 107.052 59.5264C106.923 59.3393 106.742 59.1932 106.508 59.0879C106.274 58.9827 105.982 58.9301 105.631 58.9301C105.315 58.9301 105.029 59.0061 104.771 59.1581C104.526 59.2984 104.31 59.4855 104.122 59.7194C103.9 60 103.742 60.3508 103.649 60.7717C103.567 61.1927 103.526 61.5903 103.526 61.9644V66.6826H102.035V57.8075H103.333L103.473 59.0704C103.707 58.5676 104.052 58.1934 104.508 57.9479C104.976 57.7023 105.461 57.5795 105.964 57.5795C106.631 57.5795 107.186 57.7257 107.63 58.018C108.086 58.2986 108.414 58.7138 108.613 59.2633C108.73 58.9827 108.882 58.7371 109.069 58.5267C109.267 58.3162 109.49 58.1408 109.735 58.0005C109.981 57.8602 110.238 57.7549 110.507 57.6848C110.788 57.6146 111.068 57.5795 111.349 57.5795C112.354 57.5795 113.097 57.8777 113.576 58.474C114.067 59.0704 114.313 59.8597 114.313 60.8419V66.6826H112.822Z" fill="#8A939F"/>
<path d="M485.112 163.222V162.065H482.322V152.907H481.105L478.255 154.674V156.024L481.046 154.347V162.065H478.241V163.222H485.112ZM494.182 159.824C494.182 159.309 494.103 158.829 493.944 158.384C493.786 157.949 493.554 157.573 493.247 157.256C492.99 156.989 492.683 156.781 492.327 156.633C491.961 156.484 491.55 156.41 491.095 156.41C490.65 156.41 490.229 156.484 489.833 156.633C489.438 156.781 489.121 157.019 488.884 157.345L489.047 154.05H493.662V152.907H487.963L487.681 158.443H489.091C489.279 158.146 489.527 157.919 489.833 157.761C490.15 157.612 490.486 157.538 490.843 157.538C491.169 157.538 491.456 157.587 491.703 157.686C491.951 157.795 492.154 157.939 492.312 158.117C492.51 158.334 492.658 158.592 492.757 158.889C492.856 159.195 492.906 159.527 492.906 159.883C492.906 160.229 492.861 160.546 492.772 160.833C492.683 161.12 492.554 161.372 492.386 161.59C492.228 161.797 492.02 161.961 491.763 162.079C491.505 162.208 491.199 162.272 490.843 162.272C490.516 162.272 490.224 162.223 489.967 162.124C489.7 162.025 489.482 161.891 489.314 161.723C489.146 161.555 489.007 161.347 488.898 161.1C488.799 160.862 488.74 160.58 488.72 160.254H487.459C487.479 160.729 487.573 161.159 487.741 161.545C487.909 161.921 488.137 162.253 488.423 162.539C488.71 162.817 489.062 163.034 489.477 163.192C489.893 163.351 490.353 163.43 490.857 163.43C491.402 163.42 491.877 163.326 492.282 163.148C492.698 162.96 493.039 162.718 493.306 162.421C493.593 162.104 493.811 161.728 493.959 161.293C494.108 160.857 494.182 160.368 494.182 159.824ZM503.445 158.057C503.454 157.068 503.38 156.202 503.222 155.46C503.064 154.718 502.732 154.085 502.228 153.561C501.98 153.303 501.673 153.095 501.307 152.937C500.941 152.779 500.506 152.7 500.001 152.7C499.497 152.7 499.061 152.779 498.695 152.937C498.329 153.095 498.023 153.303 497.775 153.561C497.271 154.085 496.939 154.718 496.781 155.46C496.623 156.202 496.548 157.068 496.558 158.057C496.548 159.047 496.623 159.913 496.781 160.655C496.939 161.387 497.271 162.015 497.775 162.539C498.023 162.797 498.329 163.004 498.695 163.163C499.061 163.321 499.497 163.405 500.001 163.415C500.506 163.405 500.941 163.321 501.307 163.163C501.673 163.004 501.98 162.797 502.228 162.539C502.732 162.015 503.064 161.387 503.222 160.655C503.38 159.913 503.454 159.047 503.445 158.057ZM501.782 155.059L497.909 159.809C497.879 159.522 497.864 159.23 497.864 158.933C497.864 158.636 497.864 158.344 497.864 158.057C497.844 157.345 497.879 156.652 497.968 155.98C498.057 155.307 498.309 154.753 498.725 154.317C498.873 154.179 499.056 154.065 499.274 153.976C499.482 153.887 499.724 153.842 500.001 153.842C500.278 153.842 500.521 153.887 500.729 153.976C500.946 154.065 501.129 154.179 501.278 154.317C501.495 154.525 501.664 154.773 501.782 155.059ZM502.139 158.057C502.158 158.77 502.124 159.462 502.035 160.135C501.946 160.808 501.693 161.362 501.278 161.797C501.129 161.936 500.946 162.05 500.729 162.139C500.521 162.228 500.278 162.272 500.001 162.272C499.724 162.272 499.482 162.228 499.274 162.139C499.056 162.05 498.873 161.936 498.725 161.797C498.537 161.619 498.384 161.402 498.265 161.144L502.094 156.41C502.114 156.677 502.129 156.949 502.139 157.226C502.139 157.503 502.139 157.78 502.139 158.057ZM510.451 163.237V160.996H508.255V163.237H510.451ZM522.148 158.057C522.158 157.068 522.084 156.202 521.925 155.46C521.767 154.718 521.436 154.085 520.931 153.561C520.684 153.303 520.377 153.095 520.011 152.937C519.645 152.779 519.209 152.7 518.705 152.7C518.2 152.7 517.765 152.779 517.399 152.937C517.033 153.095 516.726 153.303 516.479 153.561C515.974 154.085 515.643 154.718 515.484 155.46C515.326 156.202 515.252 157.068 515.262 158.057C515.252 159.047 515.326 159.913 515.484 160.655C515.643 161.387 515.974 162.015 516.479 162.539C516.726 162.797 517.033 163.004 517.399 163.163C517.765 163.321 518.2 163.405 518.705 163.415C519.209 163.405 519.645 163.321 520.011 163.163C520.377 163.004 520.684 162.797 520.931 162.539C521.436 162.015 521.767 161.387 521.925 160.655C522.084 159.913 522.158 159.047 522.148 158.057ZM520.486 155.059L516.612 159.809C516.583 159.522 516.568 159.23 516.568 158.933C516.568 158.636 516.568 158.344 516.568 158.057C516.548 157.345 516.583 156.652 516.672 155.98C516.761 155.307 517.013 154.753 517.429 154.317C517.577 154.179 517.76 154.065 517.978 153.976C518.185 153.887 518.428 153.842 518.705 153.842C518.982 153.842 519.224 153.887 519.432 153.976C519.65 154.065 519.833 154.179 519.981 154.317C520.199 154.525 520.367 154.773 520.486 155.059ZM520.842 158.057C520.862 158.77 520.827 159.462 520.738 160.135C520.649 160.808 520.397 161.362 519.981 161.797C519.833 161.936 519.65 162.05 519.432 162.139C519.224 162.228 518.982 162.272 518.705 162.272C518.428 162.272 518.185 162.228 517.978 162.139C517.76 162.05 517.577 161.936 517.429 161.797C517.241 161.619 517.087 161.402 516.968 161.144L520.797 156.41C520.817 156.677 520.832 156.949 520.842 157.226C520.842 157.503 520.842 157.78 520.842 158.057ZM531.5 158.057C531.51 157.068 531.435 156.202 531.277 155.46C531.119 154.718 530.787 154.085 530.283 153.561C530.035 153.303 529.729 153.095 529.363 152.937C528.997 152.779 528.561 152.7 528.057 152.7C527.552 152.7 527.117 152.779 526.751 152.937C526.384 153.095 526.078 153.303 525.83 153.561C525.326 154.085 524.994 154.718 524.836 155.46C524.678 156.202 524.604 157.068 524.613 158.057C524.604 159.047 524.678 159.913 524.836 160.655C524.994 161.387 525.326 162.015 525.83 162.539C526.078 162.797 526.384 163.004 526.751 163.163C527.117 163.321 527.552 163.405 528.057 163.415C528.561 163.405 528.997 163.321 529.363 163.163C529.729 163.004 530.035 162.797 530.283 162.539C530.787 162.015 531.119 161.387 531.277 160.655C531.435 159.913 531.51 159.047 531.5 158.057ZM529.838 155.059L525.964 159.809C525.934 159.522 525.919 159.23 525.919 158.933C525.919 158.636 525.919 158.344 525.919 158.057C525.9 157.345 525.934 156.652 526.023 155.98C526.112 155.307 526.365 154.753 526.78 154.317C526.929 154.179 527.112 154.065 527.329 153.976C527.537 153.887 527.78 153.842 528.057 153.842C528.334 153.842 528.576 153.887 528.784 153.976C529.001 154.065 529.185 154.179 529.333 154.317C529.551 154.525 529.719 154.773 529.838 155.059ZM530.194 158.057C530.214 158.77 530.179 159.462 530.09 160.135C530.001 160.808 529.748 161.362 529.333 161.797C529.185 161.936 529.001 162.05 528.784 162.139C528.576 162.228 528.334 162.272 528.057 162.272C527.78 162.272 527.537 162.228 527.329 162.139C527.112 162.05 526.929 161.936 526.78 161.797C526.592 161.619 526.439 161.402 526.32 161.144L530.149 156.41C530.169 156.677 530.184 156.949 530.194 157.226C530.194 157.503 530.194 157.78 530.194 158.057Z" fill="#6F6E95"/>
<path d="M85.1542 167.222H83.7443L81.34 158.748L78.9061 167.222H77.511L75.4035 156.7H76.6354L78.3124 165.278L80.7464 156.848H81.9337L84.3677 165.263L86.0447 156.7H87.2469L85.1542 167.222ZM95.4027 167.148C95.2642 167.217 95.1306 167.262 95.002 167.282C94.8734 167.311 94.7299 167.326 94.5716 167.326C94.2352 167.326 93.9681 167.217 93.7702 167C93.5822 166.772 93.4882 166.5 93.4882 166.183H93.4585C93.2408 166.559 92.9143 166.861 92.479 167.089C92.0535 167.306 91.5737 167.415 91.0394 167.415C90.604 167.415 90.2231 167.351 89.8966 167.222C89.58 167.084 89.3129 166.906 89.0952 166.688C88.8874 166.47 88.7291 166.223 88.6203 165.946C88.5114 165.669 88.457 165.387 88.457 165.1C88.457 164.862 88.4966 164.61 88.5757 164.343C88.6648 164.076 88.8132 163.833 89.021 163.616C89.2288 163.388 89.5008 163.195 89.8372 163.037C90.1835 162.879 90.6139 162.785 91.1284 162.755L93.414 162.621V162.072C93.414 161.884 93.3893 161.686 93.3398 161.479C93.3002 161.271 93.1963 161.088 93.0281 160.929C92.8995 160.811 92.7362 160.717 92.5384 160.647C92.3504 160.578 92.103 160.544 91.7963 160.544C91.45 160.544 91.168 160.588 90.9503 160.677C90.7327 160.756 90.5595 160.86 90.4309 160.989C90.1835 161.236 90.0599 161.538 90.0599 161.894H88.828C88.8379 161.548 88.8973 161.251 89.0061 161.004C89.1249 160.746 89.2832 160.519 89.4811 160.321C89.7383 160.054 90.0698 159.856 90.4754 159.727C90.891 159.589 91.3313 159.52 91.7963 159.52C92.5285 159.52 93.1073 159.658 93.5327 159.935C93.9582 160.202 94.2599 160.544 94.438 160.959C94.5865 161.305 94.6607 161.691 94.6607 162.117V165.753C94.6607 165.951 94.6953 166.084 94.7645 166.154C94.8437 166.223 94.9476 166.257 95.0762 166.257C95.1059 166.257 95.1405 166.257 95.1801 166.257C95.2197 166.257 95.2543 166.253 95.284 166.243L95.4027 166.213V167.148ZM93.414 163.601L91.3956 163.72C91.2076 163.73 91.0147 163.764 90.8168 163.824C90.6189 163.873 90.4408 163.952 90.2825 164.061C90.1242 164.16 89.9956 164.293 89.8966 164.462C89.7977 164.63 89.7482 164.833 89.7482 165.07C89.7482 165.407 89.862 165.708 90.0895 165.976C90.3171 166.233 90.698 166.361 91.2323 166.361C91.5193 166.361 91.7963 166.312 92.0634 166.213C92.3405 166.114 92.5779 165.961 92.7758 165.753C93.0034 165.525 93.1666 165.263 93.2656 164.966C93.3645 164.669 93.414 164.363 93.414 164.046V163.601ZM99.9678 167.222C99.9084 167.242 99.8342 167.257 99.7452 167.267C99.5968 167.296 99.3742 167.311 99.0773 167.311C98.5233 167.311 98.1225 167.153 97.8752 166.836C97.6278 166.52 97.5042 166.065 97.5042 165.471V156.507H98.7657V165.397C98.7657 165.654 98.8151 165.847 98.9141 165.976C99.013 166.104 99.1911 166.168 99.4484 166.168H99.8639C99.9035 166.168 99.9381 166.163 99.9678 166.154V167.222ZM104.435 167.222C104.376 167.242 104.302 167.257 104.213 167.267C104.064 167.296 103.842 167.311 103.545 167.311C102.991 167.311 102.59 167.153 102.343 166.836C102.095 166.52 101.972 166.065 101.972 165.471V156.507H103.233V165.397C103.233 165.654 103.283 165.847 103.382 165.976C103.48 166.104 103.659 166.168 103.916 166.168H104.331C104.371 166.168 104.406 166.163 104.435 166.154V167.222ZM112.466 163.067C112.466 163.205 112.466 163.344 112.466 163.482C112.466 163.611 112.461 163.744 112.452 163.883H107.138C107.138 164.229 107.203 164.575 107.331 164.922C107.46 165.258 107.638 165.54 107.866 165.768C108.222 166.124 108.682 166.302 109.246 166.302C109.859 166.302 110.324 166.139 110.641 165.812C110.75 165.703 110.839 165.59 110.908 165.471C110.977 165.352 111.037 165.194 111.086 164.996H112.318C112.268 165.372 112.14 165.723 111.932 166.05C111.724 166.376 111.467 166.643 111.16 166.851C110.893 167.029 110.596 167.168 110.27 167.267C109.943 167.366 109.602 167.415 109.246 167.415C108.712 167.415 108.232 167.316 107.806 167.118C107.391 166.911 107.039 166.633 106.752 166.287C106.436 165.921 106.198 165.501 106.04 165.026C105.892 164.541 105.817 164.031 105.817 163.497C105.817 163.042 105.862 162.616 105.951 162.221C106.04 161.815 106.188 161.439 106.396 161.093C106.663 160.638 107.039 160.262 107.524 159.965C108.009 159.668 108.578 159.52 109.231 159.52C109.716 159.52 110.146 159.609 110.522 159.787C110.908 159.955 111.239 160.187 111.517 160.484C111.813 160.811 112.046 161.197 112.214 161.642C112.382 162.087 112.466 162.562 112.466 163.067ZM111.175 162.799C111.175 162.513 111.136 162.236 111.056 161.968C110.977 161.701 110.863 161.469 110.715 161.271C110.557 161.063 110.354 160.9 110.107 160.781C109.859 160.652 109.567 160.588 109.231 160.588C108.885 160.588 108.583 160.652 108.326 160.781C108.078 160.91 107.866 161.078 107.687 161.286C107.519 161.493 107.391 161.731 107.302 161.998C107.222 162.255 107.178 162.522 107.168 162.799H111.175ZM118.55 167.118C118.382 167.168 118.174 167.212 117.926 167.252C117.689 167.301 117.397 167.326 117.051 167.326C116.645 167.326 116.309 167.267 116.042 167.148C115.774 167.029 115.562 166.876 115.403 166.688C115.255 166.5 115.146 166.287 115.077 166.05C115.018 165.802 114.988 165.55 114.988 165.293V160.796H113.533V159.712H114.988V157.798L116.249 157.501V159.712H118.476V160.796H116.249V165.144C116.249 165.51 116.329 165.773 116.487 165.931C116.655 166.089 116.912 166.168 117.259 166.168C117.397 166.168 117.541 166.163 117.689 166.154C117.837 166.144 117.976 166.129 118.105 166.109C118.253 166.089 118.401 166.065 118.55 166.035V167.118ZM131.881 164.284C131.881 164.709 131.802 165.085 131.643 165.412C131.495 165.728 131.307 166.01 131.079 166.257C130.782 166.574 130.397 166.817 129.922 166.985C129.457 167.143 128.962 167.222 128.438 167.222H124.193V156.7H128.393C128.888 156.7 129.368 156.784 129.833 156.952C130.298 157.11 130.674 157.348 130.961 157.664C131.168 157.892 131.332 158.149 131.45 158.436C131.579 158.713 131.643 159.04 131.643 159.416C131.643 159.92 131.515 160.39 131.257 160.826C131 161.261 130.624 161.568 130.129 161.746C130.397 161.835 130.639 161.968 130.857 162.146C131.074 162.315 131.257 162.513 131.406 162.74C131.564 162.958 131.683 163.2 131.762 163.467C131.841 163.734 131.881 164.007 131.881 164.284ZM130.293 159.52C130.293 159.243 130.238 159.005 130.129 158.807C130.03 158.599 129.892 158.426 129.714 158.288C129.546 158.149 129.343 158.045 129.105 157.976C128.878 157.907 128.64 157.872 128.393 157.872H125.484V161.182H128.438C128.992 161.182 129.437 161.053 129.773 160.796C130.12 160.539 130.293 160.113 130.293 159.52ZM130.53 164.195C130.53 163.898 130.476 163.636 130.367 163.408C130.258 163.18 130.11 162.987 129.922 162.829C129.734 162.671 129.511 162.552 129.254 162.473C129.006 162.384 128.744 162.339 128.467 162.339H125.484V166.005H128.438C128.724 166.005 128.997 165.971 129.254 165.901C129.511 165.832 129.734 165.723 129.922 165.575C130.11 165.426 130.258 165.238 130.367 165.011C130.476 164.783 130.53 164.511 130.53 164.195ZM140.444 167.148C140.305 167.217 140.172 167.262 140.043 167.282C139.914 167.311 139.771 167.326 139.613 167.326C139.276 167.326 139.009 167.217 138.811 167C138.623 166.772 138.529 166.5 138.529 166.183H138.499C138.282 166.559 137.955 166.861 137.52 167.089C137.094 167.306 136.615 167.415 136.08 167.415C135.645 167.415 135.264 167.351 134.938 167.222C134.621 167.084 134.354 166.906 134.136 166.688C133.928 166.47 133.77 166.223 133.661 165.946C133.552 165.669 133.498 165.387 133.498 165.1C133.498 164.862 133.538 164.61 133.617 164.343C133.706 164.076 133.854 163.833 134.062 163.616C134.27 163.388 134.542 163.195 134.878 163.037C135.224 162.879 135.655 162.785 136.169 162.755L138.455 162.621V162.072C138.455 161.884 138.43 161.686 138.381 161.479C138.341 161.271 138.237 161.088 138.069 160.929C137.94 160.811 137.777 160.717 137.579 160.647C137.391 160.578 137.144 160.544 136.837 160.544C136.491 160.544 136.209 160.588 135.991 160.677C135.774 160.756 135.6 160.86 135.472 160.989C135.224 161.236 135.101 161.538 135.101 161.894H133.869C133.879 161.548 133.938 161.251 134.047 161.004C134.166 160.746 134.324 160.519 134.522 160.321C134.779 160.054 135.111 159.856 135.516 159.727C135.932 159.589 136.372 159.52 136.837 159.52C137.569 159.52 138.148 159.658 138.574 159.935C138.999 160.202 139.301 160.544 139.479 160.959C139.627 161.305 139.702 161.691 139.702 162.117V165.753C139.702 165.951 139.736 166.084 139.805 166.154C139.885 166.223 139.989 166.257 140.117 166.257C140.147 166.257 140.181 166.257 140.221 166.257C140.261 166.257 140.295 166.253 140.325 166.243L140.444 166.213V167.148ZM138.455 163.601L136.437 163.72C136.249 163.73 136.056 163.764 135.858 163.824C135.66 163.873 135.482 163.952 135.323 164.061C135.165 164.16 135.036 164.293 134.938 164.462C134.839 164.63 134.789 164.833 134.789 165.07C134.789 165.407 134.903 165.708 135.13 165.976C135.358 166.233 135.739 166.361 136.273 166.361C136.56 166.361 136.837 166.312 137.104 166.213C137.381 166.114 137.619 165.961 137.817 165.753C138.044 165.525 138.208 165.263 138.307 164.966C138.405 164.669 138.455 164.363 138.455 164.046V163.601ZM145.009 167.222C144.949 167.242 144.875 167.257 144.786 167.267C144.638 167.296 144.415 167.311 144.118 167.311C143.564 167.311 143.163 167.153 142.916 166.836C142.669 166.52 142.545 166.065 142.545 165.471V156.507H143.807V165.397C143.807 165.654 143.856 165.847 143.955 165.976C144.054 166.104 144.232 166.168 144.489 166.168H144.905C144.944 166.168 144.979 166.163 145.009 166.154V167.222ZM153.35 167.148C153.211 167.217 153.078 167.262 152.949 167.282C152.82 167.311 152.677 167.326 152.519 167.326C152.182 167.326 151.915 167.217 151.717 167C151.529 166.772 151.435 166.5 151.435 166.183H151.406C151.188 166.559 150.861 166.861 150.426 167.089C150.001 167.306 149.521 167.415 148.986 167.415C148.551 167.415 148.17 167.351 147.844 167.222C147.527 167.084 147.26 166.906 147.042 166.688C146.834 166.47 146.676 166.223 146.567 165.946C146.458 165.669 146.404 165.387 146.404 165.1C146.404 164.862 146.444 164.61 146.523 164.343C146.612 164.076 146.76 163.833 146.968 163.616C147.176 163.388 147.448 163.195 147.784 163.037C148.131 162.879 148.561 162.785 149.075 162.755L151.361 162.621V162.072C151.361 161.884 151.336 161.686 151.287 161.479C151.247 161.271 151.143 161.088 150.975 160.929C150.847 160.811 150.683 160.717 150.485 160.647C150.297 160.578 150.05 160.544 149.743 160.544C149.397 160.544 149.115 160.588 148.897 160.677C148.68 160.756 148.507 160.86 148.378 160.989C148.131 161.236 148.007 161.538 148.007 161.894H146.775C146.785 161.548 146.844 161.251 146.953 161.004C147.072 160.746 147.23 160.519 147.428 160.321C147.685 160.054 148.017 159.856 148.422 159.727C148.838 159.589 149.278 159.52 149.743 159.52C150.476 159.52 151.054 159.658 151.48 159.935C151.905 160.202 152.207 160.544 152.385 160.959C152.533 161.305 152.608 161.691 152.608 162.117V165.753C152.608 165.951 152.642 166.084 152.712 166.154C152.791 166.223 152.895 166.257 153.023 166.257C153.053 166.257 153.088 166.257 153.127 166.257C153.167 166.257 153.201 166.253 153.231 166.243L153.35 166.213V167.148ZM151.361 163.601L149.343 163.72C149.155 163.73 148.962 163.764 148.764 163.824C148.566 163.873 148.388 163.952 148.23 164.061C148.071 164.16 147.943 164.293 147.844 164.462C147.745 164.63 147.695 164.833 147.695 165.07C147.695 165.407 147.809 165.708 148.037 165.976C148.264 166.233 148.645 166.361 149.179 166.361C149.466 166.361 149.743 166.312 150.01 166.213C150.288 166.114 150.525 165.961 150.723 165.753C150.95 165.525 151.114 165.263 151.213 164.966C151.312 164.669 151.361 164.363 151.361 164.046V163.601ZM160.304 167.222V162.458C160.304 161.894 160.176 161.454 159.918 161.137C159.671 160.821 159.251 160.662 158.657 160.662C158.291 160.662 157.969 160.771 157.692 160.989C157.415 161.197 157.193 161.474 157.024 161.82C156.896 162.097 156.817 162.414 156.787 162.77C156.767 163.126 156.757 163.448 156.757 163.734V167.222H155.496V159.712H156.594L156.698 160.84C156.797 160.623 156.93 160.435 157.099 160.276C157.267 160.108 157.455 159.97 157.663 159.861C157.87 159.752 158.088 159.668 158.316 159.609C158.543 159.549 158.761 159.52 158.969 159.52C159.829 159.52 160.477 159.762 160.913 160.247C161.348 160.732 161.566 161.409 161.566 162.28V167.222H160.304ZM170.158 164.699C170.129 165.105 170.04 165.461 169.891 165.768C169.743 166.074 169.54 166.351 169.283 166.599C169.016 166.856 168.704 167.059 168.348 167.207C167.991 167.346 167.581 167.415 167.116 167.415C166.433 167.415 165.869 167.282 165.424 167.014C164.989 166.737 164.637 166.401 164.37 166.005C164.172 165.708 164.019 165.352 163.91 164.937C163.801 164.521 163.747 164.031 163.747 163.467C163.747 162.903 163.801 162.414 163.91 161.998C164.019 161.582 164.172 161.226 164.37 160.929C164.637 160.534 164.989 160.202 165.424 159.935C165.869 159.658 166.428 159.52 167.101 159.52C167.546 159.52 167.947 159.589 168.303 159.727C168.669 159.866 168.981 160.064 169.238 160.321C169.495 160.568 169.698 160.85 169.847 161.167C170.005 161.474 170.099 161.835 170.129 162.25H168.852C168.823 161.993 168.758 161.77 168.659 161.582C168.57 161.385 168.457 161.216 168.318 161.078C168.17 160.939 167.991 160.831 167.784 160.751C167.576 160.662 167.348 160.618 167.101 160.618C166.814 160.618 166.567 160.667 166.359 160.766C166.151 160.855 165.963 160.969 165.795 161.108C165.498 161.365 165.295 161.706 165.186 162.132C165.088 162.557 165.038 163.002 165.038 163.467C165.038 163.932 165.088 164.378 165.186 164.803C165.295 165.228 165.498 165.57 165.795 165.827C165.963 165.966 166.151 166.084 166.359 166.183C166.567 166.272 166.814 166.317 167.101 166.317C167.358 166.317 167.596 166.272 167.813 166.183C168.041 166.094 168.229 165.971 168.377 165.812C168.516 165.674 168.625 165.515 168.704 165.337C168.793 165.159 168.852 164.947 168.882 164.699H170.158ZM178.428 163.067C178.428 163.205 178.428 163.344 178.428 163.482C178.428 163.611 178.423 163.744 178.413 163.883H173.1C173.1 164.229 173.165 164.575 173.293 164.922C173.422 165.258 173.6 165.54 173.827 165.768C174.184 166.124 174.644 166.302 175.208 166.302C175.821 166.302 176.286 166.139 176.603 165.812C176.712 165.703 176.801 165.59 176.87 165.471C176.939 165.352 176.999 165.194 177.048 164.996H178.28C178.23 165.372 178.102 165.723 177.894 166.05C177.686 166.376 177.429 166.643 177.122 166.851C176.855 167.029 176.558 167.168 176.232 167.267C175.905 167.366 175.564 167.415 175.208 167.415C174.673 167.415 174.194 167.316 173.768 167.118C173.353 166.911 173.001 166.633 172.714 166.287C172.398 165.921 172.16 165.501 172.002 165.026C171.854 164.541 171.779 164.031 171.779 163.497C171.779 163.042 171.824 162.616 171.913 162.221C172.002 161.815 172.15 161.439 172.358 161.093C172.625 160.638 173.001 160.262 173.486 159.965C173.971 159.668 174.54 159.52 175.193 159.52C175.678 159.52 176.108 159.609 176.484 159.787C176.87 159.955 177.201 160.187 177.478 160.484C177.775 160.811 178.008 161.197 178.176 161.642C178.344 162.087 178.428 162.562 178.428 163.067ZM177.137 162.799C177.137 162.513 177.097 162.236 177.018 161.968C176.939 161.701 176.825 161.469 176.677 161.271C176.519 161.063 176.316 160.9 176.069 160.781C175.821 160.652 175.529 160.588 175.193 160.588C174.847 160.588 174.545 160.652 174.288 160.781C174.04 160.91 173.827 161.078 173.649 161.286C173.481 161.493 173.353 161.731 173.264 161.998C173.184 162.255 173.14 162.522 173.13 162.799H177.137Z" fill="#6F6E95"/>
<rect x="592.847" y="20.6746" width="565.318" height="168.651" rx="4.72222" fill="#0D0D18" stroke="black" stroke-width="1.34921"/>
<rect x="231.935" y="83.4126" width="299.524" height="58.0159" rx="5.39683" fill="black"/>
<rect x="805.344" y="83.4126" width="299.524" height="58.0159" rx="5.39683" fill="black"/>
<path d="M643.848 68.0317V55.5961H645.444V68.0317H643.848ZM654.512 68.0317V62.4015C654.512 61.735 654.36 61.2146 654.056 60.8405C653.764 60.4663 653.267 60.2792 652.565 60.2792C652.133 60.2792 651.753 60.4078 651.425 60.6651C651.098 60.9106 650.835 61.238 650.636 61.6473C650.484 61.9747 650.39 62.3489 650.355 62.7698C650.332 63.1908 650.32 63.5708 650.32 63.9099V68.0317H648.829V59.1567H650.127L650.25 60.4897C650.367 60.2324 650.525 60.0103 650.724 59.8232C650.922 59.6244 651.145 59.4607 651.39 59.3321C651.636 59.2034 651.893 59.104 652.162 59.0339C652.431 58.9637 652.688 58.9286 652.934 58.9286C653.951 58.9286 654.717 59.2151 655.231 59.7881C655.746 60.361 656.003 61.162 656.003 62.191V68.0317H654.512ZM663.685 67.909C663.486 67.9674 663.24 68.02 662.948 68.0668C662.667 68.1253 662.322 68.1545 661.913 68.1545C661.434 68.1545 661.036 68.0844 660.72 67.944C660.405 67.8037 660.153 67.6225 659.966 67.4003C659.791 67.1781 659.662 66.9267 659.58 66.6461C659.51 66.3538 659.475 66.0556 659.475 65.7516V60.4371H657.756V59.1567H659.475V56.894L660.966 56.5432V59.1567H663.597V60.4371H660.966V65.5762C660.966 66.0088 661.06 66.3187 661.247 66.5058C661.445 66.6929 661.749 66.7864 662.159 66.7864C662.322 66.7864 662.492 66.7806 662.667 66.7689C662.843 66.7572 663.006 66.7396 663.158 66.7163C663.334 66.6929 663.509 66.6636 663.685 66.6286V67.909ZM672.875 63.5942C672.875 64.2958 672.788 64.9564 672.612 65.5762C672.437 66.1959 672.104 66.7455 671.613 67.2249C671.285 67.5406 670.893 67.792 670.437 67.9791C669.993 68.1662 669.49 68.2598 668.929 68.2598C668.368 68.2598 667.859 68.1662 667.403 67.9791C666.959 67.792 666.573 67.5406 666.245 67.2249C665.754 66.7455 665.421 66.1959 665.246 65.5762C665.07 64.9564 664.983 64.2958 664.983 63.5942C664.983 62.8926 665.07 62.2319 665.246 61.6122C665.421 60.9925 665.754 60.4429 666.245 59.9635C666.573 59.6478 666.959 59.3964 667.403 59.2093C667.859 59.0222 668.368 58.9286 668.929 58.9286C669.49 58.9286 669.993 59.0222 670.437 59.2093C670.893 59.3964 671.285 59.6478 671.613 59.9635C672.104 60.4429 672.437 60.9925 672.612 61.6122C672.788 62.2319 672.875 62.8926 672.875 63.5942ZM671.35 63.5942C671.35 63.068 671.291 62.5594 671.174 62.0682C671.057 61.5771 670.841 61.1679 670.525 60.8405C670.338 60.6534 670.11 60.5014 669.841 60.3844C669.584 60.2675 669.28 60.209 668.929 60.209C668.578 60.209 668.268 60.2675 667.999 60.3844C667.742 60.5014 667.52 60.6534 667.333 60.8405C667.017 61.1679 666.801 61.5771 666.684 62.0682C666.567 62.5594 666.509 63.068 666.509 63.5942C666.509 64.1204 666.567 64.629 666.684 65.1202C666.801 65.6113 667.017 66.0205 667.333 66.3479C667.52 66.535 667.742 66.687 667.999 66.804C668.268 66.9209 668.578 66.9794 668.929 66.9794C669.28 66.9794 669.584 66.9209 669.841 66.804C670.11 66.687 670.338 66.535 670.525 66.3479C670.841 66.0205 671.057 65.6113 671.174 65.1202C671.291 64.629 671.35 64.1204 671.35 63.5942Z" fill="#8A939F"/>
<path d="M643.848 68.0317V55.5961H645.444V68.0317H643.848ZM654.512 68.0317V62.4015C654.512 61.735 654.36 61.2146 654.056 60.8405C653.764 60.4663 653.267 60.2792 652.565 60.2792C652.133 60.2792 651.753 60.4078 651.425 60.6651C651.098 60.9106 650.835 61.238 650.636 61.6473C650.484 61.9747 650.39 62.3489 650.355 62.7698C650.332 63.1908 650.32 63.5708 650.32 63.9099V68.0317H648.829V59.1567H650.127L650.25 60.4897C650.367 60.2324 650.525 60.0103 650.724 59.8232C650.922 59.6244 651.145 59.4607 651.39 59.3321C651.636 59.2034 651.893 59.104 652.162 59.0339C652.431 58.9637 652.688 58.9286 652.934 58.9286C653.951 58.9286 654.717 59.2151 655.231 59.7881C655.746 60.361 656.003 61.162 656.003 62.191V68.0317H654.512ZM663.685 67.909C663.486 67.9674 663.24 68.02 662.948 68.0668C662.667 68.1253 662.322 68.1545 661.913 68.1545C661.434 68.1545 661.036 68.0844 660.72 67.944C660.405 67.8037 660.153 67.6225 659.966 67.4003C659.791 67.1781 659.662 66.9267 659.58 66.6461C659.51 66.3538 659.475 66.0556 659.475 65.7516V60.4371H657.756V59.1567H659.475V56.894L660.966 56.5432V59.1567H663.597V60.4371H660.966V65.5762C660.966 66.0088 661.06 66.3187 661.247 66.5058C661.445 66.6929 661.749 66.7864 662.159 66.7864C662.322 66.7864 662.492 66.7806 662.667 66.7689C662.843 66.7572 663.006 66.7396 663.158 66.7163C663.334 66.6929 663.509 66.6636 663.685 66.6286V67.909ZM672.875 63.5942C672.875 64.2958 672.788 64.9564 672.612 65.5762C672.437 66.1959 672.104 66.7455 671.613 67.2249C671.285 67.5406 670.893 67.792 670.437 67.9791C669.993 68.1662 669.49 68.2598 668.929 68.2598C668.368 68.2598 667.859 68.1662 667.403 67.9791C666.959 67.792 666.573 67.5406 666.245 67.2249C665.754 66.7455 665.421 66.1959 665.246 65.5762C665.07 64.9564 664.983 64.2958 664.983 63.5942C664.983 62.8926 665.07 62.2319 665.246 61.6122C665.421 60.9925 665.754 60.4429 666.245 59.9635C666.573 59.6478 666.959 59.3964 667.403 59.2093C667.859 59.0222 668.368 58.9286 668.929 58.9286C669.49 58.9286 669.993 59.0222 670.437 59.2093C670.893 59.3964 671.285 59.6478 671.613 59.9635C672.104 60.4429 672.437 60.9925 672.612 61.6122C672.788 62.2319 672.875 62.8926 672.875 63.5942ZM671.35 63.5942C671.35 63.068 671.291 62.5594 671.174 62.0682C671.057 61.5771 670.841 61.1679 670.525 60.8405C670.338 60.6534 670.11 60.5014 669.841 60.3844C669.584 60.2675 669.28 60.209 668.929 60.209C668.578 60.209 668.268 60.2675 667.999 60.3844C667.742 60.5014 667.52 60.6534 667.333 60.8405C667.017 61.1679 666.801 61.5771 666.684 62.0682C666.567 62.5594 666.509 63.068 666.509 63.5942C666.509 64.1204 666.567 64.629 666.684 65.1202C666.801 65.6113 667.017 66.0205 667.333 66.3479C667.52 66.535 667.742 66.687 667.999 66.804C668.268 66.9209 668.578 66.9794 668.929 66.9794C669.28 66.9794 669.584 66.9209 669.841 66.804C670.11 66.687 670.338 66.535 670.525 66.3479C670.841 66.0205 671.057 65.6113 671.174 65.1202C671.291 64.629 671.35 64.1204 671.35 63.5942Z" fill="#8A939F"/>
<path d="M1064.8 68.0317V55.5961H1066.36V66.5759H1072.34V68.0317H1064.8ZM1074.03 57.1221V55.3681H1075.76V57.1221H1074.03ZM1074.13 68.0317V59.1567H1075.66V68.0317H1074.13ZM1089.72 68.0317V62.384C1089.72 62.0682 1089.69 61.7818 1089.63 61.5245C1089.57 61.2673 1089.47 61.0509 1089.33 60.8755C1089.2 60.6885 1089.02 60.5423 1088.79 60.4371C1088.55 60.3318 1088.26 60.2792 1087.91 60.2792C1087.63 60.2792 1087.38 60.3318 1087.16 60.4371C1086.93 60.5423 1086.73 60.6885 1086.56 60.8755C1086.25 61.1796 1086.05 61.5479 1085.94 61.9805C1085.85 62.4015 1085.8 62.8458 1085.8 63.3136V68.0317H1084.31V62.384C1084.31 62.0682 1084.28 61.7818 1084.23 61.5245C1084.18 61.2673 1084.09 61.0509 1083.95 60.8755C1083.82 60.6885 1083.64 60.5423 1083.4 60.4371C1083.17 60.3318 1082.88 60.2792 1082.52 60.2792C1082.21 60.2792 1081.92 60.3552 1081.67 60.5072C1081.42 60.6475 1081.2 60.8346 1081.02 61.0685C1080.79 61.3491 1080.64 61.6999 1080.54 62.1209C1080.46 62.5418 1080.42 62.9394 1080.42 63.3136V68.0317H1078.93V59.1567H1080.23L1080.37 60.4195C1080.6 59.9167 1080.95 59.5425 1081.4 59.297C1081.87 59.0514 1082.36 58.9286 1082.86 58.9286C1083.52 58.9286 1084.08 59.0748 1084.52 59.3671C1084.98 59.6478 1085.31 60.0629 1085.51 60.6125C1085.62 60.3318 1085.78 60.0863 1085.96 59.8758C1086.16 59.6653 1086.38 59.4899 1086.63 59.3496C1086.87 59.2093 1087.13 59.104 1087.4 59.0339C1087.68 58.9637 1087.96 58.9286 1088.24 58.9286C1089.25 58.9286 1089.99 59.2268 1090.47 59.8232C1090.96 60.4195 1091.21 61.2088 1091.21 62.191V68.0317H1089.72ZM1094.22 57.1221V55.3681H1095.96V57.1221H1094.22ZM1094.33 68.0317V59.1567H1095.85V68.0317H1094.33ZM1103.72 67.909C1103.52 67.9674 1103.27 68.02 1102.98 68.0668C1102.7 68.1253 1102.36 68.1545 1101.95 68.1545C1101.47 68.1545 1101.07 68.0844 1100.75 67.944C1100.44 67.8037 1100.19 67.6225 1100 67.4003C1099.83 67.1781 1099.7 66.9267 1099.61 66.6461C1099.54 66.3538 1099.51 66.0556 1099.51 65.7516V60.4371H1097.79V59.1567H1099.51V56.894L1101 56.5432V59.1567H1103.63V60.4371H1101V65.5762C1101 66.0088 1101.09 66.3187 1101.28 66.5058C1101.48 66.6929 1101.78 66.7864 1102.19 66.7864C1102.36 66.7864 1102.53 66.7806 1102.7 66.7689C1102.88 66.7572 1103.04 66.7396 1103.19 66.7163C1103.37 66.6929 1103.54 66.6636 1103.72 66.6286V67.909Z" fill="#8A939F"/>
<path d="M992.932 68.0317V57.543L989.074 67.8563H987.846L983.987 57.4553V68.0317H982.496V55.5961H984.741L988.495 65.7165L992.231 55.5961H994.423V68.0317H992.932ZM1005.24 67.944C1005.08 68.0259 1004.92 68.0785 1004.77 68.1019C1004.62 68.137 1004.45 68.1545 1004.26 68.1545C1003.86 68.1545 1003.55 68.0259 1003.31 67.7686C1003.09 67.4997 1002.98 67.1781 1002.98 66.804H1002.95C1002.69 67.2483 1002.3 67.6049 1001.79 67.8739C1001.28 68.1311 1000.72 68.2598 1000.09 68.2598C999.572 68.2598 999.122 68.1837 998.736 68.0317C998.362 67.868 998.046 67.6576 997.789 67.4003C997.543 67.1431 997.356 66.8507 997.227 66.5233C997.099 66.1959 997.034 65.8627 997.034 65.5236C997.034 65.2429 997.081 64.9448 997.175 64.629C997.28 64.3133 997.455 64.0268 997.701 63.7696C997.947 63.5007 998.268 63.2726 998.666 63.0855C999.075 62.8985 999.584 62.7874 1000.19 62.7523L1002.89 62.5944V61.9455C1002.89 61.7233 1002.86 61.4894 1002.81 61.2439C1002.76 60.9983 1002.64 60.782 1002.44 60.5949C1002.28 60.4546 1002.09 60.3435 1001.86 60.2617C1001.64 60.1798 1001.34 60.1389 1000.98 60.1389C1000.57 60.1389 1000.24 60.1915 999.981 60.2967C999.724 60.3903 999.519 60.5131 999.367 60.6651C999.075 60.9574 998.929 61.314 998.929 61.735H997.473C997.485 61.3257 997.555 60.9749 997.683 60.6826C997.824 60.3786 998.011 60.1096 998.245 59.8758C998.549 59.5601 998.94 59.3262 999.42 59.1742C999.911 59.0105 1000.43 58.9286 1000.98 58.9286C1001.85 58.9286 1002.53 59.0923 1003.03 59.4198C1003.54 59.7355 1003.89 60.1389 1004.1 60.63C1004.28 61.0393 1004.37 61.4953 1004.37 61.9981V66.2953C1004.37 66.5292 1004.41 66.687 1004.49 66.7689C1004.58 66.8507 1004.71 66.8917 1004.86 66.8917C1004.89 66.8917 1004.93 66.8917 1004.98 66.8917C1005.03 66.8917 1005.07 66.8858 1005.1 66.8741L1005.24 66.839V67.944ZM1002.89 63.7521L1000.51 63.8924C1000.29 63.9041 1000.06 63.945 999.823 64.0152C999.589 64.0736 999.379 64.1672 999.192 64.2958C999.005 64.4127 998.853 64.5706 998.736 64.7694C998.619 64.9681 998.56 65.2078 998.56 65.4885C998.56 65.8861 998.695 66.2427 998.964 66.5584C999.233 66.8624 999.683 67.0144 1000.31 67.0144C1000.65 67.0144 1000.98 66.956 1001.3 66.839C1001.62 66.7221 1001.9 66.5409 1002.14 66.2953C1002.41 66.0264 1002.6 65.7165 1002.72 65.3657C1002.83 65.0149 1002.89 64.6524 1002.89 64.2782V63.7521ZM1012.39 60.6125C1012.26 60.5891 1012.12 60.5715 1011.97 60.5598C1011.83 60.5481 1011.7 60.5423 1011.57 60.5423C1011.22 60.5423 1010.9 60.6125 1010.6 60.7528C1010.32 60.8814 1010.08 61.0451 1009.88 61.2439C1009.71 61.4193 1009.56 61.6239 1009.45 61.8578C1009.34 62.0799 1009.26 62.3196 1009.2 62.5769C1009.15 62.8341 1009.12 63.0914 1009.09 63.3486C1009.08 63.6059 1009.08 63.8514 1009.08 64.0853V68.0317H1007.6V59.1567H1008.92L1009.04 60.7177C1009.28 60.1681 1009.63 59.7647 1010.11 59.5075C1010.6 59.2385 1011.13 59.104 1011.69 59.104C1011.92 59.104 1012.16 59.1216 1012.39 59.1567V60.6125ZM1020.3 68.0317L1017.53 63.7521L1015.83 65.6463V68.0317H1014.34V55.3681H1015.83V63.6293L1019.84 59.1567H1021.65L1018.49 62.6646L1021.98 68.0317H1020.3ZM1030.88 63.1206C1030.88 63.2843 1030.88 63.448 1030.88 63.6117C1030.88 63.7637 1030.87 63.9216 1030.86 64.0853H1024.58C1024.58 64.4946 1024.66 64.9038 1024.81 65.3131C1024.96 65.7107 1025.17 66.0439 1025.44 66.3128C1025.86 66.7338 1026.41 66.9443 1027.07 66.9443C1027.8 66.9443 1028.35 66.7513 1028.72 66.3655C1028.85 66.2368 1028.95 66.1024 1029.04 65.9621C1029.12 65.8217 1029.19 65.6346 1029.25 65.4008H1030.7C1030.64 65.8451 1030.49 66.2602 1030.25 66.6461C1030 67.032 1029.7 67.3477 1029.33 67.5932C1029.02 67.8037 1028.67 67.9674 1028.28 68.0844C1027.9 68.2013 1027.49 68.2598 1027.07 68.2598C1026.44 68.2598 1025.87 68.1428 1025.37 67.909C1024.88 67.6634 1024.46 67.336 1024.13 66.9267C1023.75 66.4941 1023.47 65.9971 1023.28 65.4359C1023.11 64.8629 1023.02 64.2607 1023.02 63.6293C1023.02 63.0914 1023.07 62.5886 1023.18 62.1209C1023.28 61.6414 1023.46 61.1971 1023.7 60.7878C1024.02 60.25 1024.46 59.8056 1025.04 59.4548C1025.61 59.104 1026.28 58.9286 1027.05 58.9286C1027.63 58.9286 1028.14 59.0339 1028.58 59.2444C1029.04 59.4431 1029.43 59.7179 1029.76 60.0687C1030.11 60.4546 1030.38 60.9106 1030.58 61.4368C1030.78 61.963 1030.88 62.5243 1030.88 63.1206ZM1029.35 62.8049C1029.35 62.4658 1029.31 62.1384 1029.21 61.8227C1029.12 61.507 1028.98 61.2322 1028.81 60.9983C1028.62 60.7528 1028.38 60.5598 1028.09 60.4195C1027.8 60.2675 1027.45 60.1915 1027.05 60.1915C1026.65 60.1915 1026.29 60.2675 1025.98 60.4195C1025.69 60.5715 1025.44 60.7703 1025.23 61.0159C1025.03 61.2614 1024.88 61.5421 1024.77 61.8578C1024.68 62.1618 1024.63 62.4775 1024.62 62.8049H1029.35ZM1037.89 67.909C1037.69 67.9674 1037.45 68.02 1037.16 68.0668C1036.87 68.1253 1036.53 68.1545 1036.12 68.1545C1035.64 68.1545 1035.24 68.0844 1034.93 67.944C1034.61 67.8037 1034.36 67.6225 1034.17 67.4003C1034 67.1781 1033.87 66.9267 1033.79 66.6461C1033.72 66.3538 1033.68 66.0556 1033.68 65.7516V60.4371H1031.96V59.1567H1033.68V56.894L1035.17 56.5432V59.1567H1037.8V60.4371H1035.17V65.5762C1035.17 66.0088 1035.27 66.3187 1035.45 66.5058C1035.65 66.6929 1035.96 66.7864 1036.37 66.7864C1036.53 66.7864 1036.7 66.7806 1036.87 66.7689C1037.05 66.7572 1037.21 66.7396 1037.37 66.7163C1037.54 66.6929 1037.72 66.6636 1037.89 66.6286V67.909Z" fill="white"/>
<path opacity="0.5" d="M256.498 119.608C256.498 120.353 256.472 121.089 256.421 121.817C256.369 122.544 256.265 123.246 256.109 123.922C255.97 124.597 255.754 125.23 255.459 125.819C255.182 126.408 254.809 126.927 254.342 127.378C253.874 127.828 253.302 128.209 252.627 128.521C251.951 128.833 251.12 128.989 250.132 128.989C249.145 128.989 248.313 128.833 247.638 128.521C246.962 128.209 246.39 127.828 245.923 127.378C245.455 126.927 245.074 126.408 244.779 125.819C244.502 125.23 244.286 124.597 244.13 123.922C243.991 123.246 243.896 122.544 243.844 121.817C243.792 121.089 243.766 120.353 243.766 119.608C243.766 118.863 243.792 118.127 243.844 117.399C243.896 116.672 243.991 115.97 244.13 115.295C244.286 114.619 244.502 113.987 244.779 113.398C245.074 112.809 245.455 112.289 245.923 111.839C246.39 111.388 246.962 111.007 247.638 110.695C248.313 110.384 249.145 110.228 250.132 110.228C251.12 110.228 251.951 110.384 252.627 110.695C253.302 111.007 253.874 111.388 254.342 111.839C254.809 112.289 255.182 112.809 255.459 113.398C255.754 113.987 255.97 114.619 256.109 115.295C256.265 115.97 256.369 116.672 256.421 117.399C256.472 118.127 256.498 118.863 256.498 119.608ZM253.198 118.491C253.198 117.919 253.172 117.322 253.12 116.698C253.068 116.074 252.939 115.511 252.731 115.009C252.523 114.489 252.211 114.065 251.795 113.736C251.397 113.407 250.842 113.242 250.132 113.242C249.422 113.242 248.859 113.407 248.443 113.736C248.045 114.065 247.742 114.489 247.534 115.009C247.326 115.511 247.196 116.074 247.144 116.698C247.092 117.322 247.066 117.919 247.066 118.491V120.726C247.066 121.297 247.092 121.895 247.144 122.518C247.196 123.142 247.326 123.714 247.534 124.233C247.742 124.736 248.045 125.152 248.443 125.481C248.859 125.81 249.422 125.974 250.132 125.974C250.842 125.974 251.397 125.81 251.795 125.481C252.211 125.152 252.523 124.736 252.731 124.233C252.939 123.714 253.068 123.142 253.12 122.518C253.172 121.895 253.198 121.297 253.198 120.726V118.491Z" fill="white"/>
<path d="M1074.16 154.01C1074.17 153.02 1074.09 152.155 1073.93 151.413C1073.78 150.671 1073.44 150.037 1072.94 149.513C1072.69 149.256 1072.39 149.048 1072.02 148.89C1071.65 148.731 1071.22 148.652 1070.71 148.652C1070.21 148.652 1069.77 148.731 1069.41 148.89C1069.04 149.048 1068.73 149.256 1068.49 149.513C1067.98 150.037 1067.65 150.671 1067.49 151.413C1067.33 152.155 1067.26 153.02 1067.27 154.01C1067.26 154.999 1067.33 155.865 1067.49 156.607C1067.65 157.339 1067.98 157.967 1068.49 158.492C1068.73 158.749 1069.04 158.957 1069.41 159.115C1069.77 159.274 1070.21 159.358 1070.71 159.367C1071.22 159.358 1071.65 159.274 1072.02 159.115C1072.39 158.957 1072.69 158.749 1072.94 158.492C1073.44 157.967 1073.78 157.339 1073.93 156.607C1074.09 155.865 1074.17 154.999 1074.16 154.01ZM1072.49 151.012L1068.62 155.761C1068.59 155.474 1068.58 155.182 1068.58 154.885C1068.58 154.589 1068.58 154.297 1068.58 154.01C1068.56 153.297 1068.59 152.605 1068.68 151.932C1068.77 151.259 1069.02 150.705 1069.44 150.27C1069.59 150.131 1069.77 150.017 1069.99 149.928C1070.19 149.839 1070.44 149.795 1070.71 149.795C1070.99 149.795 1071.23 149.839 1071.44 149.928C1071.66 150.017 1071.84 150.131 1071.99 150.27C1072.21 150.478 1072.38 150.725 1072.49 151.012ZM1072.85 154.01C1072.87 154.722 1072.84 155.415 1072.75 156.088C1072.66 156.76 1072.41 157.314 1071.99 157.75C1071.84 157.888 1071.66 158.002 1071.44 158.091C1071.23 158.18 1070.99 158.225 1070.71 158.225C1070.44 158.225 1070.19 158.18 1069.99 158.091C1069.77 158.002 1069.59 157.888 1069.44 157.75C1069.25 157.572 1069.1 157.354 1068.98 157.097L1072.81 152.362C1072.83 152.63 1072.84 152.902 1072.85 153.179C1072.85 153.456 1072.85 153.733 1072.85 154.01ZM1081.16 159.189V156.948H1078.97V159.189H1081.16ZM1092.86 154.01C1092.87 153.02 1092.8 152.155 1092.64 151.413C1092.48 150.671 1092.15 150.037 1091.64 149.513C1091.4 149.256 1091.09 149.048 1090.72 148.89C1090.36 148.731 1089.92 148.652 1089.42 148.652C1088.91 148.652 1088.48 148.731 1088.11 148.89C1087.75 149.048 1087.44 149.256 1087.19 149.513C1086.69 150.037 1086.36 150.671 1086.2 151.413C1086.04 152.155 1085.96 153.02 1085.97 154.01C1085.96 154.999 1086.04 155.865 1086.2 156.607C1086.36 157.339 1086.69 157.967 1087.19 158.492C1087.44 158.749 1087.75 158.957 1088.11 159.115C1088.48 159.274 1088.91 159.358 1089.42 159.367C1089.92 159.358 1090.36 159.274 1090.72 159.115C1091.09 158.957 1091.4 158.749 1091.64 158.492C1092.15 157.967 1092.48 157.339 1092.64 156.607C1092.8 155.865 1092.87 154.999 1092.86 154.01ZM1091.2 151.012L1087.32 155.761C1087.29 155.474 1087.28 155.182 1087.28 154.885C1087.28 154.589 1087.28 154.297 1087.28 154.01C1087.26 153.297 1087.29 152.605 1087.38 151.932C1087.47 151.259 1087.73 150.705 1088.14 150.27C1088.29 150.131 1088.47 150.017 1088.69 149.928C1088.9 149.839 1089.14 149.795 1089.42 149.795C1089.69 149.795 1089.94 149.839 1090.14 149.928C1090.36 150.017 1090.55 150.131 1090.69 150.27C1090.91 150.478 1091.08 150.725 1091.2 151.012ZM1091.55 154.01C1091.57 154.722 1091.54 155.415 1091.45 156.088C1091.36 156.76 1091.11 157.314 1090.69 157.75C1090.55 157.888 1090.36 158.002 1090.14 158.091C1089.94 158.18 1089.69 158.225 1089.42 158.225C1089.14 158.225 1088.9 158.18 1088.69 158.091C1088.47 158.002 1088.29 157.888 1088.14 157.75C1087.95 157.572 1087.8 157.354 1087.68 157.097L1091.51 152.362C1091.53 152.63 1091.54 152.902 1091.55 153.179C1091.55 153.456 1091.55 153.733 1091.55 154.01ZM1102.21 154.01C1102.22 153.02 1102.15 152.155 1101.99 151.413C1101.83 150.671 1101.5 150.037 1101 149.513C1100.75 149.256 1100.44 149.048 1100.08 148.89C1099.71 148.731 1099.27 148.652 1098.77 148.652C1098.26 148.652 1097.83 148.731 1097.46 148.89C1097.1 149.048 1096.79 149.256 1096.54 149.513C1096.04 150.037 1095.71 150.671 1095.55 151.413C1095.39 152.155 1095.32 153.02 1095.33 154.01C1095.32 154.999 1095.39 155.865 1095.55 156.607C1095.71 157.339 1096.04 157.967 1096.54 158.492C1096.79 158.749 1097.1 158.957 1097.46 159.115C1097.83 159.274 1098.26 159.358 1098.77 159.367C1099.27 159.358 1099.71 159.274 1100.08 159.115C1100.44 158.957 1100.75 158.749 1101 158.492C1101.5 157.967 1101.83 157.339 1101.99 156.607C1102.15 155.865 1102.22 154.999 1102.21 154.01ZM1100.55 151.012L1096.68 155.761C1096.65 155.474 1096.63 155.182 1096.63 154.885C1096.63 154.589 1096.63 154.297 1096.63 154.01C1096.61 153.297 1096.65 152.605 1096.74 151.932C1096.82 151.259 1097.08 150.705 1097.49 150.27C1097.64 150.131 1097.82 150.017 1098.04 149.928C1098.25 149.839 1098.49 149.795 1098.77 149.795C1099.05 149.795 1099.29 149.839 1099.5 149.928C1099.71 150.017 1099.9 150.131 1100.05 150.27C1100.26 150.478 1100.43 150.725 1100.55 151.012ZM1100.91 154.01C1100.93 154.722 1100.89 155.415 1100.8 156.088C1100.71 156.76 1100.46 157.314 1100.05 157.75C1099.9 157.888 1099.71 158.002 1099.5 158.091C1099.29 158.18 1099.05 158.225 1098.77 158.225C1098.49 158.225 1098.25 158.18 1098.04 158.091C1097.82 158.002 1097.64 157.888 1097.49 157.75C1097.3 157.572 1097.15 157.354 1097.03 157.097L1100.86 152.362C1100.88 152.63 1100.9 152.902 1100.91 153.179C1100.91 153.456 1100.91 153.733 1100.91 154.01Z" fill="#6F6E95"/>
<path d="M653.171 164.524H651.761L649.356 156.05L646.922 164.524H645.527L643.42 154.001H644.652L646.329 162.58L648.763 154.15H649.95L652.384 162.565L654.061 154.001H655.263L653.171 164.524ZM663.419 164.45C663.281 164.519 663.147 164.564 663.018 164.583C662.89 164.613 662.746 164.628 662.588 164.628C662.252 164.628 661.984 164.519 661.787 164.301C661.599 164.074 661.505 163.802 661.505 163.485H661.475C661.257 163.861 660.931 164.163 660.495 164.39C660.07 164.608 659.59 164.717 659.056 164.717C658.62 164.717 658.239 164.653 657.913 164.524C657.596 164.385 657.329 164.207 657.112 163.99C656.904 163.772 656.745 163.525 656.637 163.248C656.528 162.971 656.473 162.689 656.473 162.402C656.473 162.164 656.513 161.912 656.592 161.645C656.681 161.378 656.83 161.135 657.037 160.917C657.245 160.69 657.517 160.497 657.854 160.339C658.2 160.18 658.63 160.086 659.145 160.057L661.43 159.923V159.374C661.43 159.186 661.406 158.988 661.356 158.78C661.317 158.573 661.213 158.39 661.044 158.231C660.916 158.112 660.753 158.019 660.555 157.949C660.367 157.88 660.119 157.845 659.813 157.845C659.466 157.845 659.184 157.89 658.967 157.979C658.749 158.058 658.576 158.162 658.447 158.291C658.2 158.538 658.076 158.84 658.076 159.196H656.844C656.854 158.85 656.914 158.553 657.022 158.305C657.141 158.048 657.3 157.821 657.497 157.623C657.755 157.356 658.086 157.158 658.492 157.029C658.907 156.891 659.348 156.821 659.813 156.821C660.545 156.821 661.124 156.96 661.549 157.237C661.975 157.504 662.276 157.845 662.454 158.261C662.603 158.607 662.677 158.993 662.677 159.419V163.055C662.677 163.253 662.712 163.386 662.781 163.455C662.86 163.525 662.964 163.559 663.093 163.559C663.122 163.559 663.157 163.559 663.196 163.559C663.236 163.559 663.271 163.554 663.3 163.544L663.419 163.515V164.45ZM661.43 160.903L659.412 161.021C659.224 161.031 659.031 161.066 658.833 161.125C658.635 161.175 658.457 161.254 658.299 161.363C658.141 161.462 658.012 161.595 657.913 161.763C657.814 161.932 657.765 162.134 657.765 162.372C657.765 162.708 657.878 163.01 658.106 163.277C658.333 163.535 658.714 163.663 659.249 163.663C659.536 163.663 659.813 163.614 660.08 163.515C660.357 163.416 660.594 163.262 660.792 163.055C661.02 162.827 661.183 162.565 661.282 162.268C661.381 161.971 661.43 161.665 661.43 161.348V160.903ZM667.984 164.524C667.925 164.544 667.851 164.559 667.762 164.568C667.613 164.598 667.391 164.613 667.094 164.613C666.54 164.613 666.139 164.455 665.892 164.138C665.644 163.821 665.521 163.366 665.521 162.773V153.809H666.782V162.698C666.782 162.956 666.831 163.149 666.93 163.277C667.029 163.406 667.207 163.47 667.465 163.47H667.88C667.92 163.47 667.954 163.465 667.984 163.455V164.524ZM672.452 164.524C672.392 164.544 672.318 164.559 672.229 164.568C672.081 164.598 671.858 164.613 671.561 164.613C671.007 164.613 670.606 164.455 670.359 164.138C670.112 163.821 669.988 163.366 669.988 162.773V153.809H671.249V162.698C671.249 162.956 671.299 163.149 671.398 163.277C671.497 163.406 671.675 163.47 671.932 163.47H672.348C672.387 163.47 672.422 163.465 672.452 163.455V164.524ZM680.483 160.368C680.483 160.507 680.483 160.645 680.483 160.784C680.483 160.913 680.478 161.046 680.468 161.185H675.155C675.155 161.531 675.219 161.877 675.348 162.224C675.476 162.56 675.654 162.842 675.882 163.069C676.238 163.426 676.698 163.604 677.262 163.604C677.876 163.604 678.341 163.441 678.657 163.114C678.766 163.005 678.855 162.891 678.924 162.773C678.994 162.654 679.053 162.496 679.102 162.298H680.334C680.285 162.674 680.156 163.025 679.948 163.351C679.741 163.678 679.483 163.945 679.177 164.153C678.91 164.331 678.613 164.47 678.286 164.568C677.96 164.667 677.618 164.717 677.262 164.717C676.728 164.717 676.248 164.618 675.823 164.42C675.407 164.212 675.056 163.935 674.769 163.589C674.452 163.223 674.215 162.802 674.056 162.327C673.908 161.843 673.834 161.333 673.834 160.799C673.834 160.344 673.878 159.918 673.967 159.522C674.056 159.117 674.205 158.741 674.413 158.394C674.68 157.939 675.056 157.563 675.541 157.267C676.025 156.97 676.594 156.821 677.247 156.821C677.732 156.821 678.163 156.91 678.539 157.088C678.924 157.257 679.256 157.489 679.533 157.786C679.83 158.112 680.062 158.498 680.23 158.944C680.399 159.389 680.483 159.864 680.483 160.368ZM679.192 160.101C679.192 159.814 679.152 159.537 679.073 159.27C678.994 159.003 678.88 158.77 678.731 158.573C678.573 158.365 678.37 158.202 678.123 158.083C677.876 157.954 677.584 157.89 677.247 157.89C676.901 157.89 676.599 157.954 676.342 158.083C676.095 158.211 675.882 158.38 675.704 158.587C675.536 158.795 675.407 159.033 675.318 159.3C675.239 159.557 675.194 159.824 675.184 160.101H679.192ZM686.566 164.42C686.398 164.47 686.19 164.514 685.943 164.554C685.705 164.603 685.413 164.628 685.067 164.628C684.661 164.628 684.325 164.568 684.058 164.45C683.791 164.331 683.578 164.178 683.42 163.99C683.271 163.802 683.163 163.589 683.093 163.351C683.034 163.104 683.004 162.852 683.004 162.595V158.098H681.55V157.014H683.004V155.1L684.266 154.803V157.014H686.492V158.098H684.266V162.446C684.266 162.812 684.345 163.074 684.503 163.233C684.671 163.391 684.929 163.47 685.275 163.47C685.413 163.47 685.557 163.465 685.705 163.455C685.854 163.445 685.992 163.431 686.121 163.411C686.269 163.391 686.418 163.366 686.566 163.337V164.42ZM699.897 161.585C699.897 162.011 699.818 162.387 699.66 162.713C699.511 163.03 699.323 163.312 699.096 163.559C698.799 163.876 698.413 164.118 697.938 164.286C697.473 164.445 696.978 164.524 696.454 164.524H692.209V154.001H696.409C696.904 154.001 697.384 154.086 697.849 154.254C698.314 154.412 698.69 154.65 698.977 154.966C699.185 155.194 699.348 155.451 699.467 155.738C699.595 156.015 699.66 156.341 699.66 156.717C699.66 157.222 699.531 157.692 699.274 158.127C699.016 158.563 698.641 158.869 698.146 159.047C698.413 159.137 698.655 159.27 698.873 159.448C699.091 159.616 699.274 159.814 699.422 160.042C699.58 160.26 699.699 160.502 699.778 160.769C699.857 161.036 699.897 161.308 699.897 161.585ZM698.309 156.821C698.309 156.544 698.255 156.307 698.146 156.109C698.047 155.901 697.908 155.728 697.73 155.589C697.562 155.451 697.359 155.347 697.122 155.278C696.894 155.209 696.657 155.174 696.409 155.174H693.5V158.484H696.454C697.008 158.484 697.453 158.355 697.79 158.098C698.136 157.84 698.309 157.415 698.309 156.821ZM698.547 161.496C698.547 161.199 698.492 160.937 698.383 160.71C698.274 160.482 698.126 160.289 697.938 160.131C697.75 159.973 697.527 159.854 697.27 159.775C697.023 159.686 696.761 159.641 696.484 159.641H693.5V163.307H696.454C696.741 163.307 697.013 163.272 697.27 163.203C697.527 163.134 697.75 163.025 697.938 162.877C698.126 162.728 698.274 162.54 698.383 162.313C698.492 162.085 698.547 161.813 698.547 161.496ZM708.46 164.45C708.321 164.519 708.188 164.564 708.059 164.583C707.931 164.613 707.787 164.628 707.629 164.628C707.293 164.628 707.025 164.519 706.827 164.301C706.639 164.074 706.545 163.802 706.545 163.485H706.516C706.298 163.861 705.972 164.163 705.536 164.39C705.111 164.608 704.631 164.717 704.097 164.717C703.661 164.717 703.28 164.653 702.954 164.524C702.637 164.385 702.37 164.207 702.152 163.99C701.945 163.772 701.786 163.525 701.678 163.248C701.569 162.971 701.514 162.689 701.514 162.402C701.514 162.164 701.554 161.912 701.633 161.645C701.722 161.378 701.87 161.135 702.078 160.917C702.286 160.69 702.558 160.497 702.895 160.339C703.241 160.18 703.671 160.086 704.186 160.057L706.471 159.923V159.374C706.471 159.186 706.447 158.988 706.397 158.78C706.358 158.573 706.254 158.39 706.085 158.231C705.957 158.112 705.794 158.019 705.596 157.949C705.408 157.88 705.16 157.845 704.854 157.845C704.507 157.845 704.225 157.89 704.008 157.979C703.79 158.058 703.617 158.162 703.488 158.291C703.241 158.538 703.117 158.84 703.117 159.196H701.885C701.895 158.85 701.955 158.553 702.063 158.305C702.182 158.048 702.34 157.821 702.538 157.623C702.796 157.356 703.127 157.158 703.533 157.029C703.948 156.891 704.389 156.821 704.854 156.821C705.586 156.821 706.165 156.96 706.59 157.237C707.015 157.504 707.317 157.845 707.495 158.261C707.644 158.607 707.718 158.993 707.718 159.419V163.055C707.718 163.253 707.753 163.386 707.822 163.455C707.901 163.525 708.005 163.559 708.134 163.559C708.163 163.559 708.198 163.559 708.237 163.559C708.277 163.559 708.312 163.554 708.341 163.544L708.46 163.515V164.45ZM706.471 160.903L704.453 161.021C704.265 161.031 704.072 161.066 703.874 161.125C703.676 161.175 703.498 161.254 703.34 161.363C703.181 161.462 703.053 161.595 702.954 161.763C702.855 161.932 702.805 162.134 702.805 162.372C702.805 162.708 702.919 163.01 703.147 163.277C703.374 163.535 703.755 163.663 704.29 163.663C704.577 163.663 704.854 163.614 705.121 163.515C705.398 163.416 705.635 163.262 705.833 163.055C706.061 162.827 706.224 162.565 706.323 162.268C706.422 161.971 706.471 161.665 706.471 161.348V160.903ZM713.025 164.524C712.966 164.544 712.892 164.559 712.802 164.568C712.654 164.598 712.431 164.613 712.135 164.613C711.581 164.613 711.18 164.455 710.932 164.138C710.685 163.821 710.561 163.366 710.561 162.773V153.809H711.823V162.698C711.823 162.956 711.872 163.149 711.971 163.277C712.07 163.406 712.248 163.47 712.506 163.47H712.921C712.961 163.47 712.995 163.465 713.025 163.455V164.524ZM721.366 164.45C721.228 164.519 721.094 164.564 720.965 164.583C720.837 164.613 720.693 164.628 720.535 164.628C720.199 164.628 719.931 164.519 719.734 164.301C719.546 164.074 719.452 163.802 719.452 163.485H719.422C719.204 163.861 718.878 164.163 718.442 164.39C718.017 164.608 717.537 164.717 717.003 164.717C716.567 164.717 716.187 164.653 715.86 164.524C715.543 164.385 715.276 164.207 715.059 163.99C714.851 163.772 714.692 163.525 714.584 163.248C714.475 162.971 714.42 162.689 714.42 162.402C714.42 162.164 714.46 161.912 714.539 161.645C714.628 161.378 714.777 161.135 714.984 160.917C715.192 160.69 715.464 160.497 715.801 160.339C716.147 160.18 716.577 160.086 717.092 160.057L719.377 159.923V159.374C719.377 159.186 719.353 158.988 719.303 158.78C719.264 158.573 719.16 158.39 718.992 158.231C718.863 158.112 718.7 158.019 718.502 157.949C718.314 157.88 718.066 157.845 717.76 157.845C717.413 157.845 717.131 157.89 716.914 157.979C716.696 158.058 716.523 158.162 716.394 158.291C716.147 158.538 716.023 158.84 716.023 159.196H714.791C714.801 158.85 714.861 158.553 714.97 158.305C715.088 158.048 715.247 157.821 715.444 157.623C715.702 157.356 716.033 157.158 716.439 157.029C716.854 156.891 717.295 156.821 717.76 156.821C718.492 156.821 719.071 156.96 719.496 157.237C719.922 157.504 720.223 157.845 720.401 158.261C720.55 158.607 720.624 158.993 720.624 159.419V163.055C720.624 163.253 720.659 163.386 720.728 163.455C720.807 163.525 720.911 163.559 721.04 163.559C721.069 163.559 721.104 163.559 721.144 163.559C721.183 163.559 721.218 163.554 721.247 163.544L721.366 163.515V164.45ZM719.377 160.903L717.359 161.021C717.171 161.031 716.978 161.066 716.78 161.125C716.582 161.175 716.404 161.254 716.246 161.363C716.088 161.462 715.959 161.595 715.86 161.763C715.761 161.932 715.712 162.134 715.712 162.372C715.712 162.708 715.825 163.01 716.053 163.277C716.281 163.535 716.661 163.663 717.196 163.663C717.483 163.663 717.76 163.614 718.027 163.515C718.304 163.416 718.541 163.262 718.739 163.055C718.967 162.827 719.13 162.565 719.229 162.268C719.328 161.971 719.377 161.665 719.377 161.348V160.903ZM728.321 164.524V159.76C728.321 159.196 728.192 158.756 727.935 158.439C727.687 158.122 727.267 157.964 726.673 157.964C726.307 157.964 725.986 158.073 725.709 158.291C725.432 158.498 725.209 158.775 725.041 159.122C724.912 159.399 724.833 159.715 724.803 160.072C724.783 160.428 724.774 160.749 724.774 161.036V164.524H723.512V157.014H724.61L724.714 158.142C724.813 157.925 724.947 157.737 725.115 157.578C725.283 157.41 725.471 157.271 725.679 157.163C725.887 157.054 726.104 156.97 726.332 156.91C726.559 156.851 726.777 156.821 726.985 156.821C727.846 156.821 728.494 157.064 728.929 157.549C729.364 158.033 729.582 158.711 729.582 159.582V164.524H728.321ZM738.175 162.001C738.145 162.407 738.056 162.763 737.908 163.069C737.759 163.376 737.556 163.653 737.299 163.901C737.032 164.158 736.72 164.361 736.364 164.509C736.008 164.648 735.597 164.717 735.132 164.717C734.45 164.717 733.886 164.583 733.44 164.316C733.005 164.039 732.654 163.703 732.387 163.307C732.189 163.01 732.035 162.654 731.926 162.238C731.818 161.823 731.763 161.333 731.763 160.769C731.763 160.205 731.818 159.715 731.926 159.3C732.035 158.884 732.189 158.528 732.387 158.231C732.654 157.835 733.005 157.504 733.44 157.237C733.886 156.96 734.445 156.821 735.117 156.821C735.563 156.821 735.963 156.891 736.32 157.029C736.686 157.168 736.997 157.365 737.255 157.623C737.512 157.87 737.715 158.152 737.863 158.469C738.021 158.775 738.115 159.137 738.145 159.552H736.869C736.839 159.295 736.775 159.072 736.676 158.884C736.587 158.686 736.473 158.518 736.334 158.38C736.186 158.241 736.008 158.132 735.8 158.053C735.592 157.964 735.365 157.92 735.117 157.92C734.83 157.92 734.583 157.969 734.375 158.068C734.168 158.157 733.98 158.271 733.811 158.409C733.515 158.667 733.312 159.008 733.203 159.433C733.104 159.859 733.054 160.304 733.054 160.769C733.054 161.234 733.104 161.679 733.203 162.105C733.312 162.53 733.515 162.872 733.811 163.129C733.98 163.267 734.168 163.386 734.375 163.485C734.583 163.574 734.83 163.619 735.117 163.619C735.375 163.619 735.612 163.574 735.83 163.485C736.057 163.396 736.245 163.272 736.394 163.114C736.532 162.975 736.641 162.817 736.72 162.639C736.809 162.461 736.869 162.248 736.898 162.001H738.175ZM746.445 160.368C746.445 160.507 746.445 160.645 746.445 160.784C746.445 160.913 746.44 161.046 746.43 161.185H741.117C741.117 161.531 741.181 161.877 741.31 162.224C741.438 162.56 741.616 162.842 741.844 163.069C742.2 163.426 742.66 163.604 743.224 163.604C743.838 163.604 744.303 163.441 744.619 163.114C744.728 163.005 744.817 162.891 744.886 162.773C744.956 162.654 745.015 162.496 745.064 162.298H746.296C746.247 162.674 746.118 163.025 745.91 163.351C745.703 163.678 745.445 163.945 745.139 164.153C744.871 164.331 744.575 164.47 744.248 164.568C743.922 164.667 743.58 164.717 743.224 164.717C742.69 164.717 742.21 164.618 741.784 164.42C741.369 164.212 741.018 163.935 740.731 163.589C740.414 163.223 740.177 162.802 740.018 162.327C739.87 161.843 739.796 161.333 739.796 160.799C739.796 160.344 739.84 159.918 739.929 159.522C740.018 159.117 740.167 158.741 740.375 158.394C740.642 157.939 741.018 157.563 741.502 157.267C741.987 156.97 742.556 156.821 743.209 156.821C743.694 156.821 744.124 156.91 744.5 157.088C744.886 157.257 745.218 157.489 745.495 157.786C745.792 158.112 746.024 158.498 746.192 158.944C746.361 159.389 746.445 159.864 746.445 160.368ZM745.153 160.101C745.153 159.814 745.114 159.537 745.035 159.27C744.956 159.003 744.842 158.77 744.693 158.573C744.535 158.365 744.332 158.202 744.085 158.083C743.838 157.954 743.546 157.89 743.209 157.89C742.863 157.89 742.561 157.954 742.304 158.083C742.057 158.211 741.844 158.38 741.666 158.587C741.498 158.795 741.369 159.033 741.28 159.3C741.201 159.557 741.156 159.824 741.146 160.101H745.153Z" fill="#6F6E95"/>
<circle cx="592.849" cy="101.627" r="24.9603" transform="rotate(-90 592.849 101.627)" fill="#0D0D18" stroke="black" stroke-width="2.69841"/>
<path d="M601.239 106.295C601.34 106.295 601.436 106.335 601.507 106.406C601.577 106.477 601.617 106.573 601.617 106.673L601.617 109.317C601.617 109.418 601.577 109.514 601.507 109.585C601.436 109.655 601.34 109.695 601.239 109.695L589.052 109.695L591.64 112.461C591.691 112.514 591.724 112.581 591.737 112.654C591.75 112.726 591.741 112.801 591.712 112.869C591.683 112.936 591.635 112.993 591.574 113.033C591.513 113.073 591.441 113.095 591.368 113.095L587.621 113.095C587.569 113.095 587.518 113.084 587.47 113.063C587.423 113.043 587.38 113.012 587.345 112.974L582.97 108.252C582.905 108.182 582.869 108.091 582.869 107.995C582.869 107.9 582.905 107.808 582.97 107.738L587.345 103.016C587.38 102.978 587.423 102.948 587.47 102.927C587.518 102.906 587.569 102.895 587.621 102.895L591.368 102.895C591.441 102.896 591.513 102.917 591.574 102.958C591.635 102.998 591.683 103.055 591.712 103.122C591.741 103.19 591.75 103.264 591.737 103.337C591.724 103.409 591.691 103.476 591.64 103.53L589.052 106.295L601.239 106.295Z" fill="white"/>
<path d="M582.725 97.1742L582.725 94.5298C582.725 94.4296 582.765 94.3335 582.836 94.2627C582.906 94.1918 583.002 94.152 583.103 94.152L595.29 94.152L592.702 91.3867C592.652 91.3331 592.618 91.2659 592.605 91.1934C592.592 91.121 592.601 91.0463 592.63 90.9787C592.659 90.9117 592.707 90.8547 592.768 90.8144C592.829 90.7742 592.901 90.7525 592.974 90.7521L596.703 90.7521C596.754 90.7522 596.806 90.7631 596.853 90.7839C596.9 90.8046 596.943 90.835 596.978 90.873L601.372 95.5951C601.437 95.665 601.473 95.7568 601.473 95.852C601.473 95.9473 601.437 96.0391 601.372 96.1089L596.997 100.831C596.96 100.871 596.914 100.903 596.863 100.924C596.812 100.945 596.758 100.955 596.703 100.952L592.955 100.952C592.882 100.952 592.811 100.93 592.75 100.89C592.689 100.849 592.641 100.792 592.611 100.725C592.582 100.658 592.573 100.583 592.586 100.511C592.599 100.438 592.633 100.371 592.683 100.317L595.29 97.552L583.103 97.552C583.002 97.552 582.906 97.5122 582.836 97.4414C582.765 97.3705 582.725 97.2744 582.725 97.1742Z" fill="white"/>
<path d="M981.422 70.5952H1040.79" stroke="#5D46CE" stroke-width="1.34921"/>
<path d="M654.618 124.467C654.618 125.126 654.506 125.697 654.281 126.182C654.073 126.667 653.796 127.083 653.449 127.43C652.895 127.984 652.219 128.382 651.422 128.625C650.625 128.867 649.759 128.989 648.824 128.989C647.958 128.989 647.152 128.867 646.407 128.625C645.662 128.365 645.013 127.967 644.458 127.43C644.06 127.048 643.722 126.589 643.445 126.052C643.168 125.515 643.029 124.926 643.029 124.285H646.069C646.069 124.58 646.139 124.874 646.277 125.169C646.416 125.463 646.589 125.697 646.797 125.871C647.057 126.078 647.343 126.234 647.654 126.338C647.984 126.425 648.382 126.468 648.85 126.468C649.127 126.468 649.421 126.451 649.733 126.416C650.062 126.364 650.366 126.278 650.643 126.156C650.92 126.035 651.145 125.862 651.318 125.637C651.509 125.411 651.604 125.117 651.604 124.753C651.604 124.355 651.483 124.034 651.24 123.792C650.998 123.549 650.669 123.393 650.253 123.324C649.647 123.237 649.023 123.168 648.382 123.116C647.741 123.047 647.117 122.943 646.511 122.804C646.043 122.7 645.619 122.536 645.238 122.311C644.874 122.085 644.554 121.817 644.276 121.505C643.999 121.176 643.783 120.821 643.627 120.44C643.488 120.041 643.419 119.626 643.419 119.192C643.419 118.5 643.549 117.911 643.809 117.425C644.069 116.923 644.398 116.499 644.796 116.152C645.299 115.719 645.896 115.39 646.589 115.165C647.282 114.922 648.053 114.801 648.902 114.801C649.716 114.801 650.495 114.931 651.24 115.191C652.003 115.451 652.635 115.849 653.137 116.386C653.501 116.785 653.787 117.226 653.995 117.711C654.22 118.179 654.333 118.664 654.333 119.166H651.24C651.24 118.907 651.188 118.673 651.084 118.465C650.981 118.257 650.851 118.066 650.695 117.893C650.504 117.703 650.244 117.555 649.915 117.451C649.603 117.33 649.274 117.27 648.928 117.27C648.685 117.27 648.451 117.278 648.226 117.296C648.001 117.313 647.767 117.374 647.525 117.477C647.23 117.599 646.979 117.781 646.771 118.023C646.58 118.266 646.485 118.56 646.485 118.907C646.485 119.392 646.65 119.729 646.979 119.92C647.325 120.093 647.68 120.206 648.044 120.258C648.356 120.292 648.616 120.327 648.824 120.362C649.032 120.379 649.24 120.405 649.447 120.44C649.655 120.457 649.872 120.483 650.097 120.518C650.322 120.552 650.599 120.596 650.929 120.648C652.003 120.821 652.886 121.237 653.579 121.895C654.272 122.536 654.618 123.393 654.618 124.467ZM671.911 123.298C671.911 124.13 671.764 124.9 671.469 125.611C671.175 126.321 670.698 126.927 670.04 127.43C669.312 127.984 668.533 128.33 667.701 128.469C666.87 128.608 666.012 128.677 665.129 128.677H657.801V110.228H665.129C665.874 110.228 666.61 110.297 667.337 110.436C668.082 110.574 668.767 110.843 669.39 111.241C670.066 111.692 670.586 112.272 670.949 112.982C671.33 113.692 671.521 114.446 671.521 115.243C671.521 115.624 671.478 116.005 671.391 116.386C671.304 116.767 671.166 117.14 670.975 117.503C670.785 117.85 670.542 118.17 670.248 118.465C669.971 118.742 669.641 118.967 669.26 119.14C670.144 119.539 670.802 120.119 671.235 120.881C671.686 121.626 671.911 122.432 671.911 123.298ZM668.117 115.451C668.117 115.018 668.039 114.654 667.883 114.359C667.727 114.047 667.519 113.805 667.26 113.632C667 113.441 666.697 113.311 666.35 113.242C666.004 113.155 665.64 113.112 665.259 113.112H661.127V117.737H665.337C665.718 117.737 666.073 117.703 666.402 117.633C666.749 117.547 667.043 117.417 667.286 117.244C667.545 117.07 667.745 116.836 667.883 116.542C668.039 116.248 668.117 115.884 668.117 115.451ZM668.507 123.22C668.507 122.233 668.204 121.54 667.597 121.141C666.991 120.743 666.246 120.544 665.363 120.544H661.127V125.663H665.259C665.64 125.663 666.021 125.628 666.402 125.559C666.8 125.472 667.156 125.333 667.467 125.143C667.779 124.952 668.03 124.701 668.221 124.389C668.412 124.078 668.507 123.688 668.507 123.22ZM681.738 113.346V128.651H678.386V113.346H672.929V110.228H687.194V113.346H681.738ZM702.422 122.778C702.335 123.506 702.153 124.225 701.876 124.935C701.599 125.628 701.192 126.252 700.655 126.806C699.962 127.516 699.157 128.062 698.238 128.443C697.32 128.807 696.367 128.989 695.38 128.989C694.393 128.989 693.449 128.824 692.548 128.495C691.664 128.166 690.867 127.646 690.157 126.936C689.655 126.434 689.248 125.905 688.936 125.351C688.641 124.796 688.416 124.207 688.26 123.584C688.104 122.96 688 122.311 687.948 121.635C687.896 120.942 687.87 120.215 687.87 119.452C687.87 118.707 687.896 117.988 687.948 117.296C688 116.603 688.104 115.944 688.26 115.321C688.416 114.697 688.641 114.108 688.936 113.554C689.248 112.999 689.655 112.471 690.157 111.969C690.867 111.258 691.664 110.739 692.548 110.41C693.449 110.063 694.393 109.89 695.38 109.89C696.367 109.89 697.32 110.072 698.238 110.436C699.157 110.782 699.962 111.31 700.655 112.021C701.192 112.575 701.599 113.199 701.876 113.892C702.153 114.584 702.335 115.295 702.422 116.022H698.992C698.957 115.624 698.871 115.277 698.732 114.983C698.594 114.671 698.403 114.368 698.16 114.073C697.866 113.692 697.468 113.407 696.965 113.216C696.48 113.025 695.952 112.93 695.38 112.93C694.843 112.93 694.323 113.034 693.821 113.242C693.336 113.45 692.912 113.753 692.548 114.151C692.236 114.481 691.993 114.862 691.82 115.295C691.647 115.728 691.517 116.187 691.43 116.672C691.361 117.14 691.318 117.616 691.3 118.101C691.283 118.586 691.274 119.037 691.274 119.452C691.274 119.868 691.283 120.318 691.3 120.803C691.318 121.289 691.361 121.774 691.43 122.259C691.517 122.726 691.647 123.177 691.82 123.61C691.993 124.043 692.236 124.424 692.548 124.753C692.912 125.152 693.336 125.455 693.821 125.663C694.323 125.871 694.843 125.974 695.38 125.974C695.952 125.974 696.48 125.879 696.965 125.689C697.468 125.481 697.866 125.186 698.16 124.805C698.645 124.216 698.923 123.541 698.992 122.778H702.422Z" fill="white"/>
<path d="M720.344 109.669L731.832 121.158L743.321 109.669" stroke="#5D46CE" stroke-width="3.99765"/>
<path d="M159.077 106.971L170.566 118.46L182.054 106.971" stroke="#5D46CE" stroke-width="3.99765"/>
<path d="M86.602 123.118C86.602 123.776 86.4894 124.348 86.2642 124.833C86.0563 125.318 85.7792 125.734 85.4327 126.08C84.8784 126.635 84.2028 127.033 83.4059 127.276C82.609 127.518 81.7429 127.639 80.8074 127.639C79.9413 127.639 79.1358 127.518 78.3909 127.276C77.646 127.016 76.9963 126.617 76.442 126.08C76.0436 125.699 75.7058 125.24 75.4286 124.703C75.1514 124.166 75.0128 123.577 75.0128 122.936H78.0531C78.0531 123.231 78.1223 123.525 78.2609 123.82C78.3995 124.114 78.5727 124.348 78.7806 124.521C79.0405 124.729 79.3263 124.885 79.6381 124.989C79.9673 125.075 80.3657 125.119 80.8334 125.119C81.1106 125.119 81.4051 125.101 81.7169 125.067C82.046 125.015 82.3492 124.928 82.6264 124.807C82.9035 124.686 83.1287 124.512 83.302 124.287C83.4925 124.062 83.5878 123.768 83.5878 123.404C83.5878 123.005 83.4665 122.685 83.224 122.442C82.9815 122.2 82.6523 122.044 82.2366 121.975C81.6303 121.888 81.0066 121.819 80.3657 121.767C79.7247 121.697 79.1011 121.594 78.4948 121.455C78.0271 121.351 77.6027 121.186 77.2215 120.961C76.8578 120.736 76.5373 120.468 76.2601 120.156C75.9829 119.827 75.7664 119.471 75.6105 119.09C75.4719 118.692 75.4026 118.276 75.4026 117.843C75.4026 117.15 75.5325 116.561 75.7924 116.076C76.0522 115.574 76.3814 115.149 76.7798 114.803C77.2822 114.37 77.8798 114.041 78.5727 113.815C79.2657 113.573 80.0366 113.452 80.8854 113.452C81.6996 113.452 82.4791 113.582 83.224 113.841C83.9862 114.101 84.6185 114.5 85.1209 115.037C85.4847 115.435 85.7705 115.877 85.9784 116.362C86.2036 116.83 86.3162 117.315 86.3162 117.817H83.224C83.224 117.557 83.172 117.323 83.0681 117.116C82.9642 116.908 82.8342 116.717 82.6783 116.544C82.4878 116.353 82.2279 116.206 81.8988 116.102C81.587 115.981 81.2578 115.92 80.9114 115.92C80.6688 115.92 80.435 115.929 80.2098 115.946C79.9846 115.964 79.7507 116.024 79.5082 116.128C79.2137 116.249 78.9625 116.431 78.7546 116.674C78.5641 116.916 78.4688 117.211 78.4688 117.557C78.4688 118.042 78.6334 118.38 78.9625 118.571C79.309 118.744 79.6641 118.856 80.0279 118.908C80.3397 118.943 80.5996 118.978 80.8074 119.012C81.0153 119.03 81.2232 119.056 81.4311 119.09C81.6389 119.108 81.8555 119.134 82.0807 119.168C82.3059 119.203 82.5831 119.246 82.9122 119.298C83.9862 119.471 84.8697 119.887 85.5626 120.545C86.2556 121.186 86.602 122.044 86.602 123.118ZM96.5927 111.997V127.302H93.2407V111.997H87.7839V108.878H102.05V111.997H96.5927ZM117.251 121.819C117.251 122.685 117.104 123.43 116.809 124.053C116.532 124.677 116.168 125.214 115.718 125.664C115.008 126.375 114.141 126.886 113.119 127.198C112.115 127.492 111.041 127.639 109.897 127.639C108.91 127.639 107.931 127.501 106.961 127.224C106.008 126.929 105.151 126.435 104.389 125.742C103.834 125.24 103.375 124.625 103.011 123.898C102.648 123.153 102.466 122.338 102.466 121.455H105.896C105.896 121.905 105.982 122.33 106.156 122.728C106.346 123.109 106.58 123.438 106.857 123.716C107.256 124.114 107.732 124.383 108.286 124.521C108.858 124.642 109.412 124.703 109.949 124.703C110.59 124.703 111.197 124.634 111.768 124.495C112.34 124.339 112.799 124.079 113.145 123.716C113.353 123.49 113.527 123.257 113.665 123.014C113.804 122.754 113.873 122.399 113.873 121.949C113.873 121.273 113.648 120.771 113.197 120.442C112.764 120.095 112.262 119.87 111.69 119.766C111.067 119.645 110.382 119.558 109.637 119.506C108.893 119.454 108.217 119.376 107.611 119.272C106.97 119.168 106.363 118.986 105.792 118.727C105.237 118.467 104.744 118.129 104.311 117.713C103.895 117.28 103.557 116.769 103.297 116.18C103.055 115.574 102.933 114.889 102.933 114.127C102.933 113.4 103.081 112.733 103.375 112.126C103.67 111.52 104.059 110.974 104.544 110.489C105.151 109.883 105.93 109.407 106.883 109.06C107.836 108.714 108.858 108.541 109.949 108.541C110.937 108.541 111.881 108.696 112.782 109.008C113.7 109.303 114.471 109.745 115.094 110.333C115.649 110.853 116.09 111.442 116.419 112.1C116.766 112.759 116.948 113.478 116.965 114.257H113.535C113.518 113.928 113.431 113.608 113.275 113.296C113.137 112.967 112.955 112.681 112.73 112.438C112.435 112.126 112.019 111.884 111.482 111.711C110.945 111.537 110.426 111.451 109.923 111.451C109.404 111.451 108.867 111.52 108.312 111.659C107.775 111.797 107.316 112.066 106.935 112.464C106.745 112.672 106.589 112.897 106.467 113.14C106.363 113.382 106.311 113.677 106.311 114.023C106.311 114.63 106.485 115.097 106.831 115.426C107.178 115.738 107.628 115.938 108.182 116.024C108.771 116.111 109.43 116.189 110.157 116.258C110.902 116.327 111.578 116.405 112.184 116.492C112.877 116.596 113.527 116.786 114.133 117.064C114.756 117.323 115.293 117.679 115.744 118.129C116.212 118.562 116.575 119.09 116.835 119.714C117.112 120.338 117.251 121.039 117.251 121.819ZM120.261 127.302V108.878H123.613V124.131H132.162V127.302H120.261ZM145.487 127.302L144.292 123.768H136.964L135.769 127.302H132.391L138.861 108.878H142.525L148.995 127.302H145.487ZM140.628 112.984L138.003 120.753H143.252L140.628 112.984Z" fill="white"/>
<path d="M241.379 94.8809V133.333" stroke="#5D46CE" stroke-width="1.34921"/>
<path opacity="0.5" d="M829.913 119.608C829.913 120.353 829.887 121.089 829.835 121.817C829.783 122.544 829.679 123.246 829.523 123.922C829.384 124.597 829.168 125.23 828.873 125.819C828.596 126.408 828.224 126.927 827.756 127.378C827.288 127.828 826.716 128.209 826.041 128.521C825.365 128.833 824.534 128.989 823.546 128.989C822.559 128.989 821.727 128.833 821.052 128.521C820.376 128.209 819.804 127.828 819.337 127.378C818.869 126.927 818.488 126.408 818.193 125.819C817.916 125.23 817.7 124.597 817.544 123.922C817.405 123.246 817.31 122.544 817.258 121.817C817.206 121.089 817.18 120.353 817.18 119.608C817.18 118.863 817.206 118.127 817.258 117.399C817.31 116.672 817.405 115.97 817.544 115.295C817.7 114.619 817.916 113.987 818.193 113.398C818.488 112.809 818.869 112.289 819.337 111.839C819.804 111.388 820.376 111.007 821.052 110.695C821.727 110.384 822.559 110.228 823.546 110.228C824.534 110.228 825.365 110.384 826.041 110.695C826.716 111.007 827.288 111.388 827.756 111.839C828.224 112.289 828.596 112.809 828.873 113.398C829.168 113.987 829.384 114.619 829.523 115.295C829.679 115.97 829.783 116.672 829.835 117.399C829.887 118.127 829.913 118.863 829.913 119.608ZM826.612 118.491C826.612 117.919 826.586 117.322 826.535 116.698C826.483 116.074 826.353 115.511 826.145 115.009C825.937 114.489 825.625 114.065 825.209 113.736C824.811 113.407 824.257 113.242 823.546 113.242C822.836 113.242 822.273 113.407 821.857 113.736C821.459 114.065 821.156 114.489 820.948 115.009C820.74 115.511 820.61 116.074 820.558 116.698C820.506 117.322 820.48 117.919 820.48 118.491V120.726C820.48 121.297 820.506 121.895 820.558 122.518C820.61 123.142 820.74 123.714 820.948 124.233C821.156 124.736 821.459 125.152 821.857 125.481C822.273 125.81 822.836 125.974 823.546 125.974C824.257 125.974 824.811 125.81 825.209 125.481C825.625 125.152 825.937 124.736 826.145 124.233C826.353 123.714 826.483 123.142 826.535 122.518C826.586 121.895 826.612 121.297 826.612 120.726V118.491Z" fill="white"/>
<path d="M503.619 126.935C503.619 127.588 503.53 128.167 503.352 128.671C503.174 129.176 502.917 129.601 502.58 129.948C502.244 130.284 501.838 130.541 501.363 130.719C500.898 130.898 500.369 130.987 499.775 130.987C499.182 130.987 498.647 130.898 498.172 130.719C497.707 130.541 497.307 130.284 496.97 129.948C496.634 129.601 496.377 129.176 496.199 128.671C496.02 128.167 495.931 127.588 495.931 126.935V120.271H497.252V126.965C497.252 127.38 497.297 127.761 497.386 128.107C497.485 128.454 497.633 128.751 497.831 128.998C498.029 129.235 498.286 129.423 498.603 129.562C498.929 129.691 499.32 129.755 499.775 129.755C500.23 129.755 500.616 129.691 500.933 129.562C501.259 129.423 501.522 129.235 501.719 128.998C501.917 128.751 502.061 128.454 502.15 128.107C502.249 127.761 502.298 127.38 502.298 126.965V120.271H503.619V126.935ZM513.633 127.9C513.633 128.345 513.549 128.731 513.381 129.057C513.213 129.384 513 129.676 512.743 129.933C512.376 130.289 511.926 130.556 511.392 130.734C510.868 130.903 510.323 130.987 509.759 130.987C508.483 130.987 507.479 130.65 506.747 129.977C506.41 129.661 506.138 129.29 505.93 128.864C505.723 128.429 505.619 127.959 505.619 127.454H506.999C506.999 127.771 507.068 128.078 507.207 128.375C507.345 128.662 507.523 128.909 507.741 129.117C507.979 129.344 508.28 129.512 508.646 129.621C509.012 129.72 509.384 129.77 509.759 129.77C510.165 129.77 510.531 129.725 510.858 129.636C511.194 129.547 511.481 129.389 511.719 129.161C511.887 129.013 512.015 128.845 512.104 128.657C512.203 128.459 512.253 128.216 512.253 127.929C512.253 127.514 512.114 127.153 511.837 126.846C511.56 126.539 511.11 126.336 510.487 126.237C510.2 126.188 509.923 126.148 509.656 126.119C509.388 126.079 509.111 126.035 508.824 125.985C508.429 125.926 508.058 125.827 507.711 125.688C507.375 125.55 507.078 125.367 506.821 125.139C506.574 124.902 506.376 124.625 506.227 124.308C506.089 123.982 506.019 123.611 506.019 123.195C506.019 122.799 506.099 122.423 506.257 122.067C506.425 121.701 506.653 121.384 506.94 121.117C507.682 120.425 508.602 120.078 509.7 120.078C510.215 120.078 510.709 120.162 511.184 120.331C511.669 120.499 512.085 120.751 512.431 121.088C513.074 121.701 513.41 122.453 513.44 123.343H512.06C512.04 123.086 511.986 122.844 511.897 122.616C511.808 122.389 511.689 122.191 511.54 122.023C511.343 121.795 511.085 121.617 510.769 121.488C510.462 121.36 510.101 121.295 509.685 121.295C509.309 121.295 508.958 121.355 508.632 121.473C508.315 121.582 508.043 121.765 507.815 122.023C507.677 122.181 507.568 122.354 507.489 122.542C507.42 122.72 507.385 122.928 507.385 123.165C507.385 123.403 507.429 123.611 507.518 123.789C507.607 123.957 507.726 124.1 507.875 124.219C508.023 124.338 508.191 124.432 508.379 124.501C508.567 124.57 508.76 124.62 508.958 124.649C509.255 124.689 509.547 124.734 509.834 124.783C510.131 124.823 510.422 124.867 510.709 124.917C511.59 125.045 512.297 125.367 512.832 125.881C513.366 126.386 513.633 127.059 513.633 127.9ZM523.781 125.525C523.781 125.901 523.761 126.282 523.722 126.668C523.692 127.054 523.628 127.43 523.529 127.796C523.44 128.152 523.306 128.498 523.128 128.835C522.95 129.161 522.717 129.463 522.43 129.74C522.054 130.096 521.629 130.363 521.154 130.541C520.679 130.71 520.184 130.794 519.67 130.794H516.004V120.271H519.67C520.184 120.271 520.679 120.36 521.154 120.538C521.629 120.716 522.054 120.984 522.43 121.34C522.717 121.617 522.95 121.919 523.128 122.245C523.306 122.572 523.44 122.918 523.529 123.284C523.628 123.64 523.692 124.011 523.722 124.397C523.761 124.773 523.781 125.149 523.781 125.525ZM522.445 125.525C522.445 125.248 522.435 124.961 522.416 124.664C522.406 124.358 522.366 124.061 522.297 123.774C522.238 123.487 522.148 123.21 522.03 122.943C521.911 122.676 521.748 122.433 521.54 122.215C521.293 121.968 521.006 121.785 520.679 121.666C520.353 121.548 520.016 121.488 519.67 121.488H517.325V129.577H519.67C520.016 129.577 520.353 129.517 520.679 129.399C521.006 129.28 521.293 129.097 521.54 128.849C521.748 128.642 521.911 128.404 522.03 128.137C522.148 127.87 522.238 127.593 522.297 127.306C522.366 127.009 522.406 126.712 522.416 126.416C522.435 126.109 522.445 125.812 522.445 125.525Z" fill="#6F6E95"/>
<path d="M511.936 99.7846C511.936 99.7365 511.955 99.6904 511.989 99.6564C512.023 99.6224 512.069 99.6033 512.117 99.6033L513.386 99.6033C513.434 99.6033 513.48 99.6224 513.514 99.6564C513.548 99.6904 513.567 99.7365 513.567 99.7846L513.567 105.634L514.895 104.392C514.921 104.368 514.953 104.352 514.988 104.346C515.022 104.34 515.058 104.344 515.091 104.358C515.123 104.372 515.15 104.395 515.17 104.424C515.189 104.453 515.199 104.488 515.199 104.523L515.199 106.322C515.199 106.346 515.194 106.371 515.184 106.394C515.174 106.417 515.16 106.437 515.141 106.454L512.875 108.554C512.841 108.585 512.797 108.602 512.751 108.602C512.706 108.602 512.662 108.585 512.628 108.554L510.362 106.454C510.343 106.437 510.329 106.417 510.319 106.394C510.309 106.371 510.304 106.346 510.304 106.322L510.304 104.523C510.304 104.488 510.314 104.453 510.333 104.424C510.353 104.395 510.38 104.372 510.412 104.358C510.445 104.344 510.481 104.34 510.515 104.346C510.55 104.352 510.582 104.368 510.608 104.392L511.936 105.634L511.936 99.7846Z" fill="white"/>
<path d="M506.206 108.671L504.937 108.671C504.889 108.671 504.842 108.651 504.808 108.617C504.774 108.583 504.755 108.537 504.755 108.489L504.755 102.639L503.428 103.882C503.402 103.906 503.37 103.922 503.335 103.928C503.3 103.934 503.265 103.93 503.232 103.916C503.2 103.902 503.173 103.879 503.153 103.85C503.134 103.82 503.124 103.786 503.123 103.751L503.123 101.961C503.123 101.936 503.129 101.912 503.139 101.889C503.149 101.866 503.163 101.846 503.181 101.829L505.448 99.72C505.482 99.6889 505.526 99.6716 505.571 99.6716C505.617 99.6716 505.661 99.6889 505.695 99.72L507.961 101.82C507.981 101.838 507.996 101.86 508.006 101.884C508.016 101.909 508.021 101.935 508.019 101.961L508.019 103.76C508.019 103.795 508.009 103.829 507.989 103.859C507.97 103.888 507.943 103.911 507.911 103.925C507.878 103.939 507.842 103.943 507.807 103.937C507.773 103.931 507.74 103.915 507.715 103.891L506.387 102.639L506.387 108.489C506.387 108.537 506.368 108.583 506.334 108.617C506.3 108.651 506.254 108.671 506.206 108.671Z" fill="white"/>
<path d="M1078.38 126.935C1078.38 127.588 1078.29 128.167 1078.11 128.671C1077.93 129.176 1077.68 129.601 1077.34 129.948C1077 130.284 1076.6 130.541 1076.12 130.719C1075.66 130.898 1075.13 130.987 1074.54 130.987C1073.94 130.987 1073.41 130.898 1072.93 130.719C1072.47 130.541 1072.07 130.284 1071.73 129.948C1071.39 129.601 1071.14 129.176 1070.96 128.671C1070.78 128.167 1070.69 127.588 1070.69 126.935V120.271H1072.01V126.965C1072.01 127.38 1072.06 127.761 1072.15 128.107C1072.25 128.454 1072.39 128.751 1072.59 128.998C1072.79 129.235 1073.05 129.423 1073.36 129.562C1073.69 129.691 1074.08 129.755 1074.54 129.755C1074.99 129.755 1075.38 129.691 1075.69 129.562C1076.02 129.423 1076.28 129.235 1076.48 128.998C1076.68 128.751 1076.82 128.454 1076.91 128.107C1077.01 127.761 1077.06 127.38 1077.06 126.965V120.271H1078.38V126.935ZM1088.39 127.9C1088.39 128.345 1088.31 128.731 1088.14 129.057C1087.97 129.384 1087.76 129.676 1087.5 129.933C1087.14 130.289 1086.69 130.556 1086.15 130.734C1085.63 130.903 1085.08 130.987 1084.52 130.987C1083.24 130.987 1082.24 130.65 1081.51 129.977C1081.17 129.661 1080.9 129.29 1080.69 128.864C1080.48 128.429 1080.38 127.959 1080.38 127.454H1081.76C1081.76 127.771 1081.83 128.078 1081.97 128.375C1082.11 128.662 1082.28 128.909 1082.5 129.117C1082.74 129.344 1083.04 129.512 1083.41 129.621C1083.77 129.72 1084.14 129.77 1084.52 129.77C1084.93 129.77 1085.29 129.725 1085.62 129.636C1085.95 129.547 1086.24 129.389 1086.48 129.161C1086.65 129.013 1086.78 128.845 1086.87 128.657C1086.96 128.459 1087.01 128.216 1087.01 127.929C1087.01 127.514 1086.88 127.153 1086.6 126.846C1086.32 126.539 1085.87 126.336 1085.25 126.237C1084.96 126.188 1084.68 126.148 1084.42 126.119C1084.15 126.079 1083.87 126.035 1083.59 125.985C1083.19 125.926 1082.82 125.827 1082.47 125.688C1082.14 125.55 1081.84 125.367 1081.58 125.139C1081.33 124.902 1081.14 124.625 1080.99 124.308C1080.85 123.982 1080.78 123.611 1080.78 123.195C1080.78 122.799 1080.86 122.423 1081.02 122.067C1081.19 121.701 1081.41 121.384 1081.7 121.117C1082.44 120.425 1083.36 120.078 1084.46 120.078C1084.98 120.078 1085.47 120.162 1085.94 120.331C1086.43 120.499 1086.85 120.751 1087.19 121.088C1087.83 121.701 1088.17 122.453 1088.2 123.343H1086.82C1086.8 123.086 1086.75 122.844 1086.66 122.616C1086.57 122.389 1086.45 122.191 1086.3 122.023C1086.1 121.795 1085.85 121.617 1085.53 121.488C1085.22 121.36 1084.86 121.295 1084.45 121.295C1084.07 121.295 1083.72 121.355 1083.39 121.473C1083.08 121.582 1082.8 121.765 1082.58 122.023C1082.44 122.181 1082.33 122.354 1082.25 122.542C1082.18 122.72 1082.15 122.928 1082.15 123.165C1082.15 123.403 1082.19 123.611 1082.28 123.789C1082.37 123.957 1082.49 124.1 1082.64 124.219C1082.78 124.338 1082.95 124.432 1083.14 124.501C1083.33 124.57 1083.52 124.62 1083.72 124.649C1084.02 124.689 1084.31 124.734 1084.59 124.783C1084.89 124.823 1085.18 124.867 1085.47 124.917C1086.35 125.045 1087.06 125.367 1087.59 125.881C1088.13 126.386 1088.39 127.059 1088.39 127.9ZM1098.54 125.525C1098.54 125.901 1098.52 126.282 1098.48 126.668C1098.45 127.054 1098.39 127.43 1098.29 127.796C1098.2 128.152 1098.07 128.498 1097.89 128.835C1097.71 129.161 1097.48 129.463 1097.19 129.74C1096.82 130.096 1096.39 130.363 1095.91 130.541C1095.44 130.71 1094.95 130.794 1094.43 130.794H1090.76V120.271H1094.43C1094.95 120.271 1095.44 120.36 1095.91 120.538C1096.39 120.716 1096.82 120.984 1097.19 121.34C1097.48 121.617 1097.71 121.919 1097.89 122.245C1098.07 122.572 1098.2 122.918 1098.29 123.284C1098.39 123.64 1098.45 124.011 1098.48 124.397C1098.52 124.773 1098.54 125.149 1098.54 125.525ZM1097.21 125.525C1097.21 125.248 1097.2 124.961 1097.18 124.664C1097.17 124.358 1097.13 124.061 1097.06 123.774C1097 123.487 1096.91 123.21 1096.79 122.943C1096.67 122.676 1096.51 122.433 1096.3 122.215C1096.05 121.968 1095.77 121.785 1095.44 121.666C1095.11 121.548 1094.78 121.488 1094.43 121.488H1092.09V129.577H1094.43C1094.78 129.577 1095.11 129.517 1095.44 129.399C1095.77 129.28 1096.05 129.097 1096.3 128.849C1096.51 128.642 1096.67 128.404 1096.79 128.137C1096.91 127.87 1097 127.593 1097.06 127.306C1097.13 127.009 1097.17 126.712 1097.18 126.416C1097.2 126.109 1097.21 125.812 1097.21 125.525Z" fill="#6F6E95"/>
<path d="M1086.7 99.7846C1086.7 99.7365 1086.72 99.6904 1086.75 99.6564C1086.78 99.6224 1086.83 99.6033 1086.88 99.6033L1088.15 99.6033C1088.2 99.6033 1088.24 99.6224 1088.28 99.6564C1088.31 99.6904 1088.33 99.7365 1088.33 99.7846L1088.33 105.634L1089.66 104.392C1089.68 104.368 1089.71 104.352 1089.75 104.346C1089.78 104.34 1089.82 104.344 1089.85 104.358C1089.88 104.372 1089.91 104.395 1089.93 104.424C1089.95 104.453 1089.96 104.488 1089.96 104.523L1089.96 106.322C1089.96 106.346 1089.96 106.371 1089.95 106.394C1089.94 106.417 1089.92 106.437 1089.9 106.454L1087.64 108.554C1087.6 108.585 1087.56 108.602 1087.51 108.602C1087.47 108.602 1087.42 108.585 1087.39 108.554L1085.12 106.454C1085.1 106.437 1085.09 106.417 1085.08 106.394C1085.07 106.371 1085.07 106.346 1085.06 106.322L1085.06 104.523C1085.07 104.488 1085.08 104.453 1085.09 104.424C1085.11 104.395 1085.14 104.372 1085.17 104.358C1085.21 104.344 1085.24 104.34 1085.28 104.346C1085.31 104.352 1085.34 104.368 1085.37 104.392L1086.7 105.634L1086.7 99.7846Z" fill="white"/>
<path d="M1080.97 108.671L1079.7 108.671C1079.65 108.671 1079.6 108.651 1079.57 108.617C1079.54 108.583 1079.52 108.537 1079.52 108.489L1079.52 102.639L1078.19 103.882C1078.16 103.906 1078.13 103.922 1078.1 103.928C1078.06 103.934 1078.03 103.93 1077.99 103.916C1077.96 103.902 1077.93 103.879 1077.92 103.85C1077.9 103.82 1077.89 103.786 1077.89 103.751L1077.89 101.961C1077.89 101.936 1077.89 101.912 1077.9 101.889C1077.91 101.866 1077.92 101.846 1077.94 101.829L1080.21 99.72C1080.24 99.6889 1080.29 99.6716 1080.33 99.6716C1080.38 99.6716 1080.42 99.6889 1080.46 99.72L1082.72 101.82C1082.74 101.838 1082.76 101.86 1082.77 101.884C1082.78 101.909 1082.78 101.935 1082.78 101.961L1082.78 103.76C1082.78 103.795 1082.77 103.829 1082.75 103.859C1082.73 103.888 1082.7 103.911 1082.67 103.925C1082.64 103.939 1082.6 103.943 1082.57 103.937C1082.53 103.931 1082.5 103.915 1082.48 103.891L1081.15 102.639L1081.15 108.489C1081.15 108.537 1081.13 108.583 1081.1 108.617C1081.06 108.651 1081.02 108.671 1080.97 108.671Z" fill="white"/>
</g>
<defs>
<filter id="filter0_d-282501" x="0.15625" y="0" width="1182.68" height="218" filterUnits="userSpaceOnUse" color-interpolation-filters="sRGB">
<feFlood flood-opacity="0" result="BackgroundImageFix"/>
<feColorMatrix in="SourceAlpha" type="matrix" values="0 0 0 0 0 0 0 0 0 0 0 0 0 0 0 0 0 0 127 0"/>
<feOffset dy="4"/>
<feGaussianBlur stdDeviation="12"/>
<feColorMatrix type="matrix" values="0 0 0 0 1 0 0 0 0 1 0 0 0 0 1 0 0 0 0.07 0"/>
<feBlend mode="normal" in2="BackgroundImageFix" result="effect1_dropShadow"/>
<feBlend mode="normal" in="SourceGraphic" in2="effect1_dropShadow" result="shape"/>
</filter>
</defs>
</svg>