<svg width="567" height="342" viewBox="0 0 567 342" fill="none" xmlns="http://www.w3.org/2000/svg">
<rect y="172" width="566.667" height="170" rx="5.39683" fill="#10101E"/>
<path d="M58.9914 201.656V213H57.5354V201.656H58.9914ZM61.9539 204.92H63.1379L63.2499 206.168C63.3566 205.933 63.5006 205.725 63.6819 205.544C63.8739 205.352 64.0819 205.197 64.3059 205.08C64.5406 204.952 64.7806 204.856 65.0259 204.792C65.2819 204.728 65.5219 204.696 65.7459 204.696C66.6739 204.696 67.3779 204.957 67.8579 205.48C68.3486 206.003 68.5939 206.733 68.5939 207.672V213H67.2339V207.864C67.2339 207.267 67.0952 206.797 66.8179 206.456C66.5406 206.104 66.0979 205.928 65.4899 205.928C65.1486 205.928 64.8446 205.997 64.5779 206.136C64.3112 206.275 64.0819 206.467 63.8899 206.712C63.7086 206.947 63.5646 207.229 63.4579 207.56C63.3619 207.891 63.3139 208.243 63.3139 208.616V213H61.9539V204.92ZM74.3708 213.096C73.9334 213.096 73.5654 213.027 73.2668 212.888C72.9788 212.749 72.7441 212.573 72.5628 212.36C72.3814 212.136 72.2481 211.891 72.1628 211.624C72.0881 211.347 72.0508 211.069 72.0508 210.792V206.088H70.2748V204.92H72.0508V202.776L73.4108 202.456V204.92H75.7148V206.088H73.4108V210.632C73.4108 211.048 73.5121 211.357 73.7148 211.56C73.9281 211.752 74.2214 211.848 74.5948 211.848C74.8294 211.848 75.0481 211.832 75.2508 211.8C75.4641 211.768 75.6454 211.731 75.7948 211.688V212.856C75.6454 212.909 75.4534 212.963 75.2188 213.016C74.9948 213.069 74.7121 213.096 74.3708 213.096ZM80.8883 213.224C80.3549 213.224 79.8803 213.139 79.4643 212.968C79.0483 212.797 78.6856 212.568 78.3763 212.28C77.9176 211.843 77.6029 211.341 77.4323 210.776C77.2723 210.2 77.1923 209.592 77.1923 208.952C77.1923 208.312 77.2723 207.709 77.4323 207.144C77.6029 206.579 77.9176 206.077 78.3763 205.64C78.6856 205.352 79.0483 205.123 79.4643 204.952C79.8803 204.781 80.3549 204.696 80.8883 204.696C81.4216 204.696 81.8963 204.781 82.3123 204.952C82.7283 205.123 83.0909 205.352 83.4003 205.64C83.8589 206.077 84.1683 206.579 84.3283 207.144C84.4989 207.709 84.5843 208.312 84.5843 208.952C84.5843 209.592 84.4989 210.2 84.3283 210.776C84.1683 211.341 83.8589 211.843 83.4003 212.28C83.0909 212.568 82.7283 212.797 82.3123 212.968C81.8963 213.139 81.4216 213.224 80.8883 213.224ZM80.8883 212.056C81.2189 212.056 81.5123 212.003 81.7683 211.896C82.0243 211.789 82.2376 211.651 82.4083 211.48C82.7069 211.181 82.9096 210.824 83.0163 210.408C83.1336 209.981 83.1923 209.496 83.1923 208.952C83.1923 208.408 83.1336 207.928 83.0163 207.512C82.9096 207.096 82.7069 206.739 82.4083 206.44C82.2376 206.269 82.0243 206.131 81.7683 206.024C81.5123 205.917 81.2189 205.864 80.8883 205.864C80.5576 205.864 80.2643 205.917 80.0083 206.024C79.7523 206.131 79.5389 206.269 79.3683 206.44C79.0696 206.739 78.8616 207.096 78.7443 207.512C78.6376 207.928 78.5843 208.408 78.5843 208.952C78.5843 209.496 78.6376 209.981 78.7443 210.408C78.8616 210.824 79.0696 211.181 79.3683 211.48C79.5389 211.651 79.7523 211.789 80.0083 211.896C80.2643 212.003 80.5576 212.056 80.8883 212.056Z" fill="#8A939F"/>
<path d="M458.164 314.432C458.175 313.365 458.095 312.432 457.924 311.632C457.753 310.832 457.396 310.149 456.852 309.584C456.585 309.307 456.255 309.083 455.86 308.912C455.465 308.741 454.996 308.656 454.452 308.656C453.908 308.656 453.439 308.741 453.044 308.912C452.649 309.083 452.319 309.307 452.052 309.584C451.508 310.149 451.151 310.832 450.98 311.632C450.809 312.432 450.729 313.365 450.74 314.432C450.729 315.499 450.809 316.432 450.98 317.232C451.151 318.021 451.508 318.699 452.052 319.264C452.319 319.541 452.649 319.765 453.044 319.936C453.439 320.107 453.908 320.197 454.452 320.208C454.996 320.197 455.465 320.107 455.86 319.936C456.255 319.765 456.585 319.541 456.852 319.264C457.396 318.699 457.753 318.021 457.924 317.232C458.095 316.432 458.175 315.499 458.164 314.432ZM456.372 311.2L452.196 316.32C452.164 316.011 452.148 315.696 452.148 315.376C452.148 315.056 452.148 314.741 452.148 314.432C452.127 313.664 452.164 312.917 452.26 312.192C452.356 311.467 452.628 310.869 453.076 310.4C453.236 310.251 453.433 310.128 453.668 310.032C453.892 309.936 454.153 309.888 454.452 309.888C454.751 309.888 455.012 309.936 455.236 310.032C455.471 310.128 455.668 310.251 455.828 310.4C456.063 310.624 456.244 310.891 456.372 311.2ZM456.756 314.432C456.777 315.2 456.74 315.947 456.644 316.672C456.548 317.397 456.276 317.995 455.828 318.464C455.668 318.613 455.471 318.736 455.236 318.832C455.012 318.928 454.751 318.976 454.452 318.976C454.153 318.976 453.892 318.928 453.668 318.832C453.433 318.736 453.236 318.613 453.076 318.464C452.873 318.272 452.708 318.037 452.58 317.76L456.708 312.656C456.729 312.944 456.745 313.237 456.756 313.536C456.756 313.835 456.756 314.133 456.756 314.432ZM465.718 320.016V317.6H463.35V320.016H465.718ZM478.328 314.432C478.339 313.365 478.259 312.432 478.088 311.632C477.917 310.832 477.56 310.149 477.016 309.584C476.749 309.307 476.419 309.083 476.024 308.912C475.629 308.741 475.16 308.656 474.616 308.656C474.072 308.656 473.603 308.741 473.208 308.912C472.813 309.083 472.483 309.307 472.216 309.584C471.672 310.149 471.315 310.832 471.144 311.632C470.973 312.432 470.893 313.365 470.904 314.432C470.893 315.499 470.973 316.432 471.144 317.232C471.315 318.021 471.672 318.699 472.216 319.264C472.483 319.541 472.813 319.765 473.208 319.936C473.603 320.107 474.072 320.197 474.616 320.208C475.16 320.197 475.629 320.107 476.024 319.936C476.419 319.765 476.749 319.541 477.016 319.264C477.56 318.699 477.917 318.021 478.088 317.232C478.259 316.432 478.339 315.499 478.328 314.432ZM476.536 311.2L472.36 316.32C472.328 316.011 472.312 315.696 472.312 315.376C472.312 315.056 472.312 314.741 472.312 314.432C472.291 313.664 472.328 312.917 472.424 312.192C472.52 311.467 472.792 310.869 473.24 310.4C473.4 310.251 473.597 310.128 473.832 310.032C474.056 309.936 474.317 309.888 474.616 309.888C474.915 309.888 475.176 309.936 475.4 310.032C475.635 310.128 475.832 310.251 475.992 310.4C476.227 310.624 476.408 310.891 476.536 311.2ZM476.92 314.432C476.941 315.2 476.904 315.947 476.808 316.672C476.712 317.397 476.44 317.995 475.992 318.464C475.832 318.613 475.635 318.736 475.4 318.832C475.176 318.928 474.915 318.976 474.616 318.976C474.317 318.976 474.056 318.928 473.832 318.832C473.597 318.736 473.4 318.613 473.24 318.464C473.037 318.272 472.872 318.037 472.744 317.76L476.872 312.656C476.893 312.944 476.909 313.237 476.92 313.536C476.92 313.835 476.92 314.133 476.92 314.432ZM488.41 314.432C488.42 313.365 488.34 312.432 488.17 311.632C487.999 310.832 487.642 310.149 487.098 309.584C486.831 309.307 486.5 309.083 486.106 308.912C485.711 308.741 485.242 308.656 484.698 308.656C484.154 308.656 483.684 308.741 483.29 308.912C482.895 309.083 482.564 309.307 482.298 309.584C481.754 310.149 481.396 310.832 481.226 311.632C481.055 312.432 480.975 313.365 480.986 314.432C480.975 315.499 481.055 316.432 481.226 317.232C481.396 318.021 481.754 318.699 482.298 319.264C482.564 319.541 482.895 319.765 483.29 319.936C483.684 320.107 484.154 320.197 484.698 320.208C485.242 320.197 485.711 320.107 486.106 319.936C486.5 319.765 486.831 319.541 487.098 319.264C487.642 318.699 487.999 318.021 488.17 317.232C488.34 316.432 488.42 315.499 488.41 314.432ZM486.618 311.2L482.442 316.32C482.41 316.011 482.394 315.696 482.394 315.376C482.394 315.056 482.394 314.741 482.394 314.432C482.372 313.664 482.41 312.917 482.506 312.192C482.602 311.467 482.874 310.869 483.322 310.4C483.482 310.251 483.679 310.128 483.914 310.032C484.138 309.936 484.399 309.888 484.698 309.888C484.996 309.888 485.258 309.936 485.482 310.032C485.716 310.128 485.914 310.251 486.074 310.4C486.308 310.624 486.49 310.891 486.618 311.2ZM487.002 314.432C487.023 315.2 486.986 315.947 486.89 316.672C486.794 317.397 486.522 317.995 486.074 318.464C485.914 318.613 485.716 318.736 485.482 318.832C485.258 318.928 484.996 318.976 484.698 318.976C484.399 318.976 484.138 318.928 483.914 318.832C483.679 318.736 483.482 318.613 483.322 318.464C483.119 318.272 482.954 318.037 482.826 317.76L486.954 312.656C486.975 312.944 486.991 313.237 487.002 313.536C487.002 313.835 487.002 314.133 487.002 314.432ZM498.492 314.432C498.502 313.365 498.422 312.432 498.252 311.632C498.081 310.832 497.724 310.149 497.18 309.584C496.913 309.307 496.582 309.083 496.188 308.912C495.793 308.741 495.324 308.656 494.78 308.656C494.236 308.656 493.766 308.741 493.372 308.912C492.977 309.083 492.646 309.307 492.38 309.584C491.836 310.149 491.478 310.832 491.308 311.632C491.137 312.432 491.057 313.365 491.068 314.432C491.057 315.499 491.137 316.432 491.308 317.232C491.478 318.021 491.836 318.699 492.38 319.264C492.646 319.541 492.977 319.765 493.372 319.936C493.766 320.107 494.236 320.197 494.78 320.208C495.324 320.197 495.793 320.107 496.188 319.936C496.582 319.765 496.913 319.541 497.18 319.264C497.724 318.699 498.081 318.021 498.252 317.232C498.422 316.432 498.502 315.499 498.492 314.432ZM496.7 311.2L492.524 316.32C492.492 316.011 492.476 315.696 492.476 315.376C492.476 315.056 492.476 314.741 492.476 314.432C492.454 313.664 492.492 312.917 492.588 312.192C492.684 311.467 492.956 310.869 493.404 310.4C493.564 310.251 493.761 310.128 493.996 310.032C494.22 309.936 494.481 309.888 494.78 309.888C495.078 309.888 495.34 309.936 495.564 310.032C495.798 310.128 495.996 310.251 496.156 310.4C496.39 310.624 496.572 310.891 496.7 311.2ZM497.084 314.432C497.105 315.2 497.068 315.947 496.972 316.672C496.876 317.397 496.604 317.995 496.156 318.464C495.996 318.613 495.798 318.736 495.564 318.832C495.34 318.928 495.078 318.976 494.78 318.976C494.481 318.976 494.22 318.928 493.996 318.832C493.761 318.736 493.564 318.613 493.404 318.464C493.201 318.272 493.036 318.037 492.908 317.76L497.036 312.656C497.057 312.944 497.073 313.237 497.084 313.536C497.084 313.835 497.084 314.133 497.084 314.432ZM508.574 314.432C508.584 313.365 508.504 312.432 508.334 311.632C508.163 310.832 507.806 310.149 507.262 309.584C506.995 309.307 506.664 309.083 506.27 308.912C505.875 308.741 505.406 308.656 504.862 308.656C504.318 308.656 503.848 308.741 503.454 308.912C503.059 309.083 502.728 309.307 502.462 309.584C501.918 310.149 501.56 310.832 501.39 311.632C501.219 312.432 501.139 313.365 501.15 314.432C501.139 315.499 501.219 316.432 501.39 317.232C501.56 318.021 501.918 318.699 502.462 319.264C502.728 319.541 503.059 319.765 503.454 319.936C503.848 320.107 504.318 320.197 504.862 320.208C505.406 320.197 505.875 320.107 506.27 319.936C506.664 319.765 506.995 319.541 507.262 319.264C507.806 318.699 508.163 318.021 508.334 317.232C508.504 316.432 508.584 315.499 508.574 314.432ZM506.782 311.2L502.606 316.32C502.574 316.011 502.558 315.696 502.558 315.376C502.558 315.056 502.558 314.741 502.558 314.432C502.536 313.664 502.574 312.917 502.67 312.192C502.766 311.467 503.038 310.869 503.486 310.4C503.646 310.251 503.843 310.128 504.078 310.032C504.302 309.936 504.563 309.888 504.862 309.888C505.16 309.888 505.422 309.936 505.646 310.032C505.88 310.128 506.078 310.251 506.238 310.4C506.472 310.624 506.654 310.891 506.782 311.2ZM507.166 314.432C507.187 315.2 507.15 315.947 507.054 316.672C506.958 317.397 506.686 317.995 506.238 318.464C506.078 318.613 505.88 318.736 505.646 318.832C505.422 318.928 505.16 318.976 504.862 318.976C504.563 318.976 504.302 318.928 504.078 318.832C503.843 318.736 503.646 318.613 503.486 318.464C503.283 318.272 503.118 318.037 502.99 317.76L507.118 312.656C507.139 312.944 507.155 313.237 507.166 313.536C507.166 313.835 507.166 314.133 507.166 314.432Z" fill="#6F6E95"/>
<path d="M68.1834 305.656L65.9274 317H64.4074L61.8154 307.864L59.1914 317H57.6874L55.4154 305.656H56.7754L58.5514 314.92L61.1754 305.816H62.4554L65.0794 314.904L66.8554 305.656H68.1834ZM71.9885 317.224C71.5192 317.224 71.1085 317.149 70.7565 317C70.4152 316.861 70.1272 316.675 69.8925 316.44C69.6685 316.205 69.4979 315.939 69.3805 315.64C69.2632 315.341 69.2045 315.037 69.2045 314.728C69.2045 314.472 69.2472 314.2 69.3325 313.912C69.4285 313.624 69.5885 313.357 69.8125 313.112C70.0365 312.867 70.3299 312.659 70.6925 312.488C71.0659 312.317 71.5299 312.216 72.0845 312.184L74.5485 312.04V311.48C74.5485 310.904 74.3992 310.483 74.1005 310.216C73.8125 309.939 73.3752 309.8 72.7885 309.8C72.2339 309.8 71.7859 309.933 71.4445 310.2C71.1032 310.456 70.9325 310.813 70.9325 311.272H69.6045C69.6152 310.856 69.7005 310.488 69.8605 310.168C70.0312 309.848 70.2605 309.581 70.5485 309.368C70.8365 309.144 71.1725 308.979 71.5565 308.872C71.9405 308.755 72.3512 308.696 72.7885 308.696C73.7379 308.696 74.4899 308.936 75.0445 309.416C75.6099 309.896 75.8925 310.589 75.8925 311.496V315.416C75.8925 315.629 75.9299 315.773 76.0045 315.848C76.0899 315.923 76.2019 315.96 76.3405 315.96C76.3725 315.96 76.4205 315.96 76.4845 315.96C76.5592 315.949 76.6285 315.933 76.6925 315.912V316.92C76.5432 316.995 76.3992 317.043 76.2605 317.064C76.1219 317.096 75.9672 317.112 75.7965 317.112C75.4339 317.112 75.1459 316.995 74.9325 316.76C74.7192 316.515 74.6125 316.221 74.6125 315.88C74.3672 316.275 74.0099 316.6 73.5405 316.856C73.0819 317.101 72.5645 317.224 71.9885 317.224ZM72.1965 316.088C72.5592 316.088 72.8845 316.024 73.1725 315.896C73.4712 315.768 73.7219 315.592 73.9245 315.368C74.1272 315.133 74.2819 314.867 74.3885 314.568C74.4952 314.259 74.5485 313.928 74.5485 313.576V313.096L72.2125 313.224C72.0099 313.235 71.8125 313.272 71.6205 313.336C71.4285 313.4 71.2525 313.491 71.0925 313.608C70.9432 313.725 70.8205 313.875 70.7245 314.056C70.6392 314.237 70.5965 314.451 70.5965 314.696C70.5965 314.867 70.6232 315.037 70.6765 315.208C70.7405 315.368 70.8365 315.517 70.9645 315.656C71.0925 315.784 71.2579 315.891 71.4605 315.976C71.6632 316.051 71.9085 316.088 72.1965 316.088ZM80.4163 317.112C79.8509 317.112 79.4136 316.957 79.1043 316.648C78.7949 316.328 78.6403 315.848 78.6403 315.208V305.416H80.0003V315.048C80.0003 315.325 80.0536 315.533 80.1603 315.672C80.2669 315.811 80.4589 315.88 80.7363 315.88C80.7896 315.88 80.8536 315.88 80.9283 315.88C81.0029 315.88 81.1256 315.869 81.2963 315.848V317C81.1469 317.043 81.0136 317.069 80.8963 317.08C80.7789 317.101 80.6189 317.112 80.4163 317.112ZM84.885 317.112C84.3197 317.112 83.8824 316.957 83.573 316.648C83.2637 316.328 83.109 315.848 83.109 315.208V305.416H84.469V315.048C84.469 315.325 84.5224 315.533 84.629 315.672C84.7357 315.811 84.9277 315.88 85.205 315.88C85.2584 315.88 85.3224 315.88 85.397 315.88C85.4717 315.88 85.5944 315.869 85.765 315.848V317C85.6157 317.043 85.4824 317.069 85.365 317.08C85.2477 317.101 85.0877 317.112 84.885 317.112ZM90.8916 317.224C90.305 317.224 89.7663 317.117 89.2756 316.904C88.7956 316.68 88.3903 316.381 88.0596 316.008C87.7183 315.613 87.4623 315.16 87.2916 314.648C87.121 314.125 87.0356 313.576 87.0356 313C87.0356 312.509 87.0836 312.051 87.1796 311.624C87.2756 311.187 87.441 310.781 87.6756 310.408C87.9743 309.917 88.385 309.512 88.9076 309.192C89.441 308.861 90.0703 308.696 90.7956 308.696C91.3503 308.696 91.8463 308.803 92.2836 309.016C92.721 309.219 93.089 309.496 93.3876 309.848C93.697 310.2 93.9316 310.616 94.0916 311.096C94.2623 311.565 94.3476 312.067 94.3476 312.6C94.3476 312.728 94.3476 312.867 94.3476 313.016C94.3476 313.165 94.337 313.299 94.3156 313.416H88.4596C88.4596 313.789 88.513 314.136 88.6196 314.456C88.737 314.776 88.897 315.053 89.0996 315.288C89.313 315.523 89.569 315.704 89.8676 315.832C90.177 315.96 90.5236 316.024 90.9076 316.024C91.377 316.024 91.7823 315.907 92.1236 315.672C92.4756 315.437 92.721 315.08 92.8596 314.6H94.2196C94.1663 314.984 94.0383 315.336 93.8356 315.656C93.633 315.976 93.3823 316.253 93.0836 316.488C92.785 316.723 92.449 316.904 92.0756 317.032C91.7023 317.16 91.3076 317.224 90.8916 317.224ZM92.9556 312.248C92.9556 311.544 92.769 310.968 92.3956 310.52C92.0223 310.072 91.4783 309.848 90.7636 309.848C90.3903 309.848 90.065 309.917 89.7876 310.056C89.5103 310.195 89.2756 310.376 89.0836 310.6C88.8916 310.824 88.7476 311.08 88.6516 311.368C88.5556 311.656 88.5023 311.949 88.4916 312.248H92.9556ZM99.6208 317.096C99.1834 317.096 98.8154 317.027 98.5168 316.888C98.2288 316.749 97.9941 316.573 97.8128 316.36C97.6314 316.136 97.4981 315.891 97.4128 315.624C97.3381 315.347 97.3008 315.069 97.3008 314.792V310.088H95.5248V308.92H97.3008V306.776L98.6608 306.456V308.92H100.965V310.088H98.6608V314.632C98.6608 315.048 98.7621 315.357 98.9648 315.56C99.1781 315.752 99.4714 315.848 99.8448 315.848C100.079 315.848 100.298 315.832 100.501 315.8C100.714 315.768 100.895 315.731 101.045 315.688V316.856C100.895 316.909 100.703 316.963 100.469 317.016C100.245 317.069 99.9621 317.096 99.6208 317.096ZM106.879 305.656H111.519C112.01 305.656 112.458 305.725 112.863 305.864C113.279 306.003 113.636 306.2 113.935 306.456C114.244 306.701 114.484 307.005 114.655 307.368C114.826 307.731 114.911 308.136 114.911 308.584C114.911 309.128 114.772 309.635 114.495 310.104C114.218 310.573 113.812 310.904 113.279 311.096C113.567 311.192 113.828 311.336 114.063 311.528C114.298 311.709 114.495 311.923 114.655 312.168C114.826 312.403 114.954 312.664 115.039 312.952C115.124 313.24 115.167 313.533 115.167 313.832C115.167 314.312 115.076 314.749 114.895 315.144C114.714 315.539 114.463 315.875 114.143 316.152C113.823 316.419 113.439 316.627 112.991 316.776C112.543 316.925 112.058 317 111.535 317H106.879V305.656ZM111.455 315.688C111.764 315.688 112.058 315.651 112.335 315.576C112.612 315.501 112.852 315.384 113.055 315.224C113.258 315.064 113.418 314.861 113.535 314.616C113.652 314.371 113.711 314.077 113.711 313.736C113.711 313.416 113.652 313.133 113.535 312.888C113.418 312.643 113.258 312.435 113.055 312.264C112.852 312.093 112.612 311.965 112.335 311.88C112.068 311.784 111.775 311.736 111.455 311.736H108.271V315.688H111.455ZM111.423 310.488C112.02 310.488 112.506 310.344 112.879 310.056C113.263 309.768 113.455 309.315 113.455 308.696C113.455 308.397 113.402 308.141 113.295 307.928C113.188 307.704 113.039 307.517 112.847 307.368C112.666 307.219 112.447 307.107 112.191 307.032C111.946 306.957 111.684 306.92 111.407 306.92H108.271V310.488H111.423ZM119.614 317.224C119.144 317.224 118.734 317.149 118.382 317C118.04 316.861 117.752 316.675 117.518 316.44C117.294 316.205 117.123 315.939 117.006 315.64C116.888 315.341 116.83 315.037 116.83 314.728C116.83 314.472 116.872 314.2 116.958 313.912C117.054 313.624 117.214 313.357 117.438 313.112C117.662 312.867 117.955 312.659 118.318 312.488C118.691 312.317 119.155 312.216 119.71 312.184L122.174 312.04V311.48C122.174 310.904 122.024 310.483 121.726 310.216C121.438 309.939 121 309.8 120.414 309.8C119.859 309.8 119.411 309.933 119.07 310.2C118.728 310.456 118.558 310.813 118.558 311.272H117.23C117.24 310.856 117.326 310.488 117.486 310.168C117.656 309.848 117.886 309.581 118.174 309.368C118.462 309.144 118.798 308.979 119.182 308.872C119.566 308.755 119.976 308.696 120.414 308.696C121.363 308.696 122.115 308.936 122.67 309.416C123.235 309.896 123.518 310.589 123.518 311.496V315.416C123.518 315.629 123.555 315.773 123.63 315.848C123.715 315.923 123.827 315.96 123.966 315.96C123.998 315.96 124.046 315.96 124.11 315.96C124.184 315.949 124.254 315.933 124.318 315.912V316.92C124.168 316.995 124.024 317.043 123.886 317.064C123.747 317.096 123.592 317.112 123.422 317.112C123.059 317.112 122.771 316.995 122.558 316.76C122.344 316.515 122.238 316.221 122.238 315.88C121.992 316.275 121.635 316.6 121.166 316.856C120.707 317.101 120.19 317.224 119.614 317.224ZM119.822 316.088C120.184 316.088 120.51 316.024 120.798 315.896C121.096 315.768 121.347 315.592 121.55 315.368C121.752 315.133 121.907 314.867 122.014 314.568C122.12 314.259 122.174 313.928 122.174 313.576V313.096L119.838 313.224C119.635 313.235 119.438 313.272 119.246 313.336C119.054 313.4 118.878 313.491 118.718 313.608C118.568 313.725 118.446 313.875 118.35 314.056C118.264 314.237 118.222 314.451 118.222 314.696C118.222 314.867 118.248 315.037 118.302 315.208C118.366 315.368 118.462 315.517 118.59 315.656C118.718 315.784 118.883 315.891 119.086 315.976C119.288 316.051 119.534 316.088 119.822 316.088ZM128.041 317.112C127.476 317.112 127.039 316.957 126.729 316.648C126.42 316.328 126.265 315.848 126.265 315.208V305.416H127.625V315.048C127.625 315.325 127.679 315.533 127.785 315.672C127.892 315.811 128.084 315.88 128.361 315.88C128.415 315.88 128.479 315.88 128.553 315.88C128.628 315.88 128.751 315.869 128.921 315.848V317C128.772 317.043 128.639 317.069 128.521 317.08C128.404 317.101 128.244 317.112 128.041 317.112ZM132.926 317.224C132.457 317.224 132.046 317.149 131.694 317C131.353 316.861 131.065 316.675 130.83 316.44C130.606 316.205 130.435 315.939 130.318 315.64C130.201 315.341 130.142 315.037 130.142 314.728C130.142 314.472 130.185 314.2 130.27 313.912C130.366 313.624 130.526 313.357 130.75 313.112C130.974 312.867 131.267 312.659 131.63 312.488C132.003 312.317 132.467 312.216 133.022 312.184L135.486 312.04V311.48C135.486 310.904 135.337 310.483 135.038 310.216C134.75 309.939 134.313 309.8 133.726 309.8C133.171 309.8 132.723 309.933 132.382 310.2C132.041 310.456 131.87 310.813 131.87 311.272H130.542C130.553 310.856 130.638 310.488 130.798 310.168C130.969 309.848 131.198 309.581 131.486 309.368C131.774 309.144 132.11 308.979 132.494 308.872C132.878 308.755 133.289 308.696 133.726 308.696C134.675 308.696 135.427 308.936 135.982 309.416C136.547 309.896 136.83 310.589 136.83 311.496V315.416C136.83 315.629 136.867 315.773 136.942 315.848C137.027 315.923 137.139 315.96 137.278 315.96C137.31 315.96 137.358 315.96 137.422 315.96C137.497 315.949 137.566 315.933 137.63 315.912V316.92C137.481 316.995 137.337 317.043 137.198 317.064C137.059 317.096 136.905 317.112 136.734 317.112C136.371 317.112 136.083 316.995 135.87 316.76C135.657 316.515 135.55 316.221 135.55 315.88C135.305 316.275 134.947 316.6 134.478 316.856C134.019 317.101 133.502 317.224 132.926 317.224ZM133.134 316.088C133.497 316.088 133.822 316.024 134.11 315.896C134.409 315.768 134.659 315.592 134.862 315.368C135.065 315.133 135.219 314.867 135.326 314.568C135.433 314.259 135.486 313.928 135.486 313.576V313.096L133.15 313.224C132.947 313.235 132.75 313.272 132.558 313.336C132.366 313.4 132.19 313.491 132.03 313.608C131.881 313.725 131.758 313.875 131.662 314.056C131.577 314.237 131.534 314.451 131.534 314.696C131.534 314.867 131.561 315.037 131.614 315.208C131.678 315.368 131.774 315.517 131.902 315.656C132.03 315.784 132.195 315.891 132.398 315.976C132.601 316.051 132.846 316.088 133.134 316.088ZM139.735 308.92H140.919L141.031 310.168C141.138 309.933 141.282 309.725 141.463 309.544C141.655 309.352 141.863 309.197 142.087 309.08C142.322 308.952 142.562 308.856 142.807 308.792C143.063 308.728 143.303 308.696 143.527 308.696C144.455 308.696 145.159 308.957 145.639 309.48C146.13 310.003 146.375 310.733 146.375 311.672V317H145.015V311.864C145.015 311.267 144.876 310.797 144.599 310.456C144.322 310.104 143.879 309.928 143.271 309.928C142.93 309.928 142.626 309.997 142.359 310.136C142.092 310.275 141.863 310.467 141.671 310.712C141.49 310.947 141.346 311.229 141.239 311.56C141.143 311.891 141.095 312.243 141.095 312.616V317H139.735V308.92ZM152.294 317.224C151.217 317.224 150.358 316.893 149.718 316.232C149.345 315.859 149.067 315.395 148.886 314.84C148.705 314.285 148.614 313.656 148.614 312.952C148.614 312.291 148.699 311.699 148.87 311.176C149.051 310.653 149.302 310.205 149.622 309.832C150.283 309.075 151.19 308.696 152.342 308.696C152.833 308.696 153.275 308.771 153.67 308.92C154.065 309.069 154.401 309.277 154.678 309.544C154.966 309.8 155.19 310.109 155.35 310.472C155.51 310.835 155.601 311.224 155.622 311.64H154.246C154.182 311.064 153.969 310.627 153.606 310.328C153.243 310.029 152.801 309.88 152.278 309.88C151.905 309.88 151.579 309.955 151.302 310.104C151.025 310.243 150.795 310.429 150.614 310.664C150.401 310.941 150.246 311.272 150.15 311.656C150.054 312.04 150.006 312.472 150.006 312.952C150.006 313.453 150.054 313.907 150.15 314.312C150.246 314.707 150.406 315.037 150.63 315.304C150.822 315.539 151.051 315.72 151.318 315.848C151.595 315.976 151.915 316.04 152.278 316.04C152.822 316.04 153.275 315.885 153.638 315.576C154.011 315.267 154.225 314.84 154.278 314.296H155.654C155.622 314.733 155.51 315.133 155.318 315.496C155.137 315.848 154.897 316.152 154.598 316.408C154.299 316.664 153.953 316.861 153.558 317C153.163 317.149 152.742 317.224 152.294 317.224ZM161.189 317.224C160.602 317.224 160.063 317.117 159.573 316.904C159.093 316.68 158.687 316.381 158.357 316.008C158.015 315.613 157.759 315.16 157.589 314.648C157.418 314.125 157.333 313.576 157.333 313C157.333 312.509 157.381 312.051 157.477 311.624C157.573 311.187 157.738 310.781 157.973 310.408C158.271 309.917 158.682 309.512 159.205 309.192C159.738 308.861 160.367 308.696 161.093 308.696C161.647 308.696 162.143 308.803 162.581 309.016C163.018 309.219 163.386 309.496 163.685 309.848C163.994 310.2 164.229 310.616 164.389 311.096C164.559 311.565 164.645 312.067 164.645 312.6C164.645 312.728 164.645 312.867 164.645 313.016C164.645 313.165 164.634 313.299 164.613 313.416H158.757C158.757 313.789 158.81 314.136 158.917 314.456C159.034 314.776 159.194 315.053 159.397 315.288C159.61 315.523 159.866 315.704 160.165 315.832C160.474 315.96 160.821 316.024 161.205 316.024C161.674 316.024 162.079 315.907 162.421 315.672C162.773 315.437 163.018 315.08 163.157 314.6H164.517C164.463 314.984 164.335 315.336 164.133 315.656C163.93 315.976 163.679 316.253 163.381 316.488C163.082 316.723 162.746 316.904 162.373 317.032C161.999 317.16 161.605 317.224 161.189 317.224ZM163.253 312.248C163.253 311.544 163.066 310.968 162.693 310.52C162.319 310.072 161.775 309.848 161.061 309.848C160.687 309.848 160.362 309.917 160.085 310.056C159.807 310.195 159.573 310.376 159.381 310.6C159.189 310.824 159.045 311.08 158.949 311.368C158.853 311.656 158.799 311.949 158.789 312.248H163.253Z" fill="#6F6E95"/>
<rect x="209.983" y="214" width="300" height="80" rx="5.39683" fill="black"/>
<path d="M234.075 275.27C234.066 274.486 233.819 273.851 233.333 273.366C232.848 272.881 232.185 272.577 231.345 272.456C231.168 272.428 230.995 272.4 230.827 272.372V269.068C231.098 269.115 231.341 269.189 231.555 269.292C231.77 269.404 231.952 269.549 232.101 269.726C232.241 269.885 232.353 270.071 232.437 270.286C232.521 270.501 232.573 270.729 232.591 270.972H233.893C233.865 270.132 233.548 269.423 232.941 268.844C232.661 268.573 232.339 268.363 231.975 268.214C231.611 268.055 231.229 267.957 230.827 267.92V266.814H230.043V267.906C229.166 267.971 228.429 268.293 227.831 268.872C227.561 269.124 227.355 269.423 227.215 269.768C227.066 270.104 226.991 270.459 226.991 270.832C227.01 271.616 227.262 272.223 227.747 272.652C228.233 273.081 228.853 273.352 229.609 273.464L230.043 273.534V277.02C229.763 276.983 229.497 276.917 229.245 276.824C228.993 276.731 228.774 276.595 228.587 276.418C228.382 276.222 228.214 275.984 228.083 275.704C227.953 275.433 227.887 275.149 227.887 274.85H226.585C226.595 275.326 226.693 275.765 226.879 276.166C227.075 276.577 227.332 276.931 227.649 277.23C228.237 277.781 229.035 278.093 230.043 278.168V279.218H230.827V278.168C231.294 278.131 231.737 278.033 232.157 277.874C232.568 277.706 232.927 277.477 233.235 277.188C233.487 276.955 233.688 276.679 233.837 276.362C233.996 276.045 234.075 275.681 234.075 275.27ZM230.043 272.246C229.941 272.227 229.838 272.213 229.735 272.204C229.353 272.157 229.017 272.022 228.727 271.798C228.447 271.583 228.298 271.252 228.279 270.804C228.279 270.58 228.312 270.379 228.377 270.202C228.443 270.034 228.536 269.875 228.657 269.726C228.844 269.521 229.049 269.367 229.273 269.264C229.507 269.152 229.763 269.082 230.043 269.054V272.246ZM232.773 275.298C232.773 275.559 232.727 275.783 232.633 275.97C232.549 276.157 232.428 276.32 232.269 276.46C232.083 276.637 231.868 276.768 231.625 276.852C231.383 276.945 231.117 277.001 230.827 277.02V273.66L231.135 273.702C231.714 273.795 232.134 273.987 232.395 274.276C232.657 274.565 232.783 274.906 232.773 275.298ZM242.071 278V276.88H237.703L241.091 272.778C241.362 272.451 241.567 272.12 241.707 271.784C241.847 271.448 241.917 271.089 241.917 270.706C241.917 270.398 241.88 270.123 241.805 269.88C241.73 269.628 241.618 269.399 241.469 269.194C241.217 268.849 240.886 268.578 240.475 268.382C240.055 268.177 239.579 268.074 239.047 268.074C238.17 268.083 237.47 268.345 236.947 268.858C236.415 269.371 236.144 270.057 236.135 270.916H237.367C237.386 270.281 237.558 269.824 237.885 269.544C238.221 269.273 238.613 269.143 239.061 269.152C239.574 269.152 239.976 269.287 240.265 269.558C240.554 269.829 240.699 270.216 240.699 270.72C240.699 270.972 240.657 271.21 240.573 271.434C240.489 271.667 240.354 271.896 240.167 272.12L236.149 276.978V278H242.071ZM250.711 275.34C250.711 274.817 250.571 274.337 250.291 273.898C250.011 273.459 249.609 273.147 249.087 272.96C249.497 272.783 249.833 272.489 250.095 272.078C250.365 271.667 250.505 271.229 250.515 270.762C250.515 270.342 250.445 269.973 250.305 269.656C250.165 269.348 249.973 269.082 249.731 268.858C249.469 268.615 249.152 268.424 248.779 268.284C248.415 268.144 248.027 268.074 247.617 268.074C247.197 268.074 246.805 268.135 246.441 268.256C246.077 268.377 245.759 268.55 245.489 268.774C245.199 269.007 244.975 269.301 244.817 269.656C244.649 270.011 244.56 270.431 244.551 270.916H245.769C245.778 270.617 245.829 270.351 245.923 270.118C246.025 269.894 246.17 269.703 246.357 269.544C246.506 269.423 246.683 269.329 246.889 269.264C247.094 269.189 247.327 269.152 247.589 269.152C247.859 269.152 248.097 269.199 248.303 269.292C248.517 269.376 248.69 269.488 248.821 269.628C248.979 269.777 249.096 269.945 249.171 270.132C249.245 270.328 249.283 270.538 249.283 270.762C249.273 271.275 249.11 271.677 248.793 271.966C248.466 272.255 248.018 272.4 247.449 272.4H246.819V273.506H247.449C248.055 273.506 248.545 273.66 248.919 273.968C249.292 274.267 249.483 274.715 249.493 275.312C249.493 275.573 249.451 275.807 249.367 276.012C249.283 276.217 249.171 276.395 249.031 276.544C248.863 276.731 248.653 276.871 248.401 276.964C248.149 277.057 247.873 277.104 247.575 277.104C247.267 277.104 246.996 277.053 246.763 276.95C246.539 276.857 246.352 276.726 246.203 276.558C246.044 276.39 245.923 276.194 245.839 275.97C245.755 275.737 245.708 275.485 245.699 275.214H244.481C244.49 275.662 244.565 276.059 244.705 276.404C244.854 276.749 245.055 277.048 245.307 277.3C245.577 277.58 245.909 277.795 246.301 277.944C246.683 278.103 247.108 278.182 247.575 278.182C248.116 278.182 248.587 278.103 248.989 277.944C249.381 277.795 249.707 277.58 249.969 277.3C250.211 277.048 250.393 276.754 250.515 276.418C250.645 276.082 250.711 275.723 250.711 275.34ZM257.432 278V275.914H255.318V278H256.424C256.434 278.485 256.359 278.877 256.2 279.176C256.051 279.475 255.752 279.717 255.304 279.904L255.752 280.716C256.378 280.455 256.816 280.095 257.068 279.638C257.32 279.19 257.442 278.644 257.432 278ZM268.648 278V276.908H266.016V268.27H264.868L262.18 269.936V271.21L264.812 269.628V276.908H262.166V278H268.648ZM276.798 278V276.88H272.43L275.818 272.778C276.088 272.451 276.294 272.12 276.434 271.784C276.574 271.448 276.644 271.089 276.644 270.706C276.644 270.398 276.606 270.123 276.532 269.88C276.457 269.628 276.345 269.399 276.196 269.194C275.944 268.849 275.612 268.578 275.202 268.382C274.782 268.177 274.306 268.074 273.774 268.074C272.896 268.083 272.196 268.345 271.674 268.858C271.142 269.371 270.871 270.057 270.862 270.916H272.094C272.112 270.281 272.285 269.824 272.612 269.544C272.948 269.273 273.34 269.143 273.788 269.152C274.301 269.152 274.702 269.287 274.992 269.558C275.281 269.829 275.426 270.216 275.426 270.72C275.426 270.972 275.384 271.21 275.3 271.434C275.216 271.667 275.08 271.896 274.894 272.12L270.876 276.978V278H276.798ZM285.969 275.928V274.85H284.653V271.952H283.449V274.85H280.019L283.967 268.27H282.679L278.843 274.64V275.928H283.449V278H284.653V275.928H285.969ZM292.131 278.014V275.9H290.059V278.014H292.131ZM303.207 274.864C303.207 274.351 303.118 273.879 302.941 273.45C302.773 273.021 302.53 272.652 302.213 272.344C301.979 272.12 301.685 271.938 301.331 271.798C300.976 271.658 300.575 271.588 300.127 271.588C299.651 271.597 299.203 271.7 298.783 271.896C298.363 272.101 298.069 272.377 297.901 272.722C297.901 272.199 297.947 271.667 298.041 271.126C298.143 270.594 298.344 270.146 298.643 269.782C298.792 269.605 298.974 269.455 299.189 269.334C299.413 269.222 299.679 269.161 299.987 269.152C300.22 269.152 300.43 269.185 300.617 269.25C300.813 269.306 300.981 269.395 301.121 269.516C301.27 269.647 301.396 269.801 301.499 269.978C301.592 270.165 301.648 270.379 301.667 270.622H302.871C302.852 270.267 302.773 269.936 302.633 269.628C302.493 269.329 302.311 269.073 302.087 268.858C301.835 268.615 301.536 268.424 301.191 268.284C300.836 268.144 300.449 268.074 300.029 268.074C299.413 268.083 298.895 268.223 298.475 268.494C298.064 268.765 297.742 269.087 297.509 269.46C297.191 269.992 296.972 270.585 296.851 271.238C296.739 271.891 296.687 272.568 296.697 273.268C296.687 273.968 296.743 274.635 296.865 275.27C296.986 275.905 297.219 276.469 297.565 276.964C297.807 277.3 298.134 277.585 298.545 277.818C298.946 278.051 299.422 278.173 299.973 278.182C300.477 278.182 300.929 278.093 301.331 277.916C301.723 277.748 302.049 277.524 302.311 277.244C302.591 276.945 302.81 276.595 302.969 276.194C303.127 275.802 303.207 275.359 303.207 274.864ZM302.003 274.878C302.003 275.223 301.951 275.536 301.849 275.816C301.746 276.096 301.601 276.339 301.415 276.544C301.265 276.712 301.074 276.847 300.841 276.95C300.607 277.053 300.337 277.104 300.029 277.104C299.721 277.104 299.455 277.043 299.231 276.922C298.997 276.81 298.806 276.67 298.657 276.502C298.47 276.297 298.321 276.059 298.209 275.788C298.106 275.527 298.055 275.223 298.055 274.878C298.055 274.533 298.101 274.225 298.195 273.954C298.288 273.693 298.428 273.459 298.615 273.254C298.764 273.086 298.955 272.941 299.189 272.82C299.422 272.708 299.693 272.652 300.001 272.652C300.309 272.652 300.584 272.703 300.827 272.806C301.069 272.909 301.265 273.044 301.415 273.212C301.601 273.417 301.746 273.66 301.849 273.94C301.951 274.22 302.003 274.533 302.003 274.878ZM312.014 275.928V274.85H310.698V271.952H309.494V274.85H306.064L310.012 268.27H308.724L304.888 274.64V275.928H309.494V278H310.698V275.928H312.014Z" fill="#6F6E95"/>
<path d="M234.747 254.392C233.31 254.392 232.031 254.037 230.911 253.328C229.81 252.619 228.97 251.676 228.391 250.5C227.962 249.641 227.682 248.717 227.551 247.728C227.439 246.739 227.383 245.721 227.383 244.676C227.383 243.967 227.411 243.229 227.467 242.464C227.523 241.68 227.635 240.915 227.803 240.168C227.971 239.421 228.214 238.712 228.531 238.04C228.849 237.349 229.269 236.733 229.791 236.192C230.351 235.613 231.033 235.137 231.835 234.764C232.638 234.391 233.655 234.204 234.887 234.204C235.783 234.204 236.623 234.335 237.407 234.596C238.191 234.839 238.873 235.193 239.451 235.66C240.049 236.127 240.515 236.687 240.851 237.34C241.206 237.993 241.383 238.712 241.383 239.496H237.687C237.482 237.965 236.493 237.2 234.719 237.2C233.935 237.2 233.291 237.387 232.787 237.76C232.302 238.115 231.919 238.581 231.639 239.16C231.359 239.739 231.163 240.383 231.051 241.092C230.958 241.801 230.911 242.501 230.911 243.192C231.135 242.819 231.425 242.501 231.779 242.24C232.134 241.96 232.507 241.736 232.899 241.568C233.31 241.381 233.73 241.251 234.159 241.176C234.589 241.083 234.999 241.036 235.391 241.036C236.455 241.036 237.389 241.204 238.191 241.54C238.994 241.857 239.666 242.305 240.207 242.884C240.749 243.463 241.15 244.163 241.411 244.984C241.691 245.787 241.831 246.673 241.831 247.644C241.831 248.577 241.673 249.455 241.355 250.276C241.038 251.097 240.581 251.816 239.983 252.432C239.386 253.029 238.639 253.505 237.743 253.86C236.866 254.215 235.867 254.392 234.747 254.392ZM234.747 251.256C235.867 251.256 236.735 250.92 237.351 250.248C237.967 249.557 238.275 248.643 238.275 247.504C238.275 246.496 237.967 245.647 237.351 244.956C236.754 244.247 235.867 243.892 234.691 243.892C234.206 243.892 233.749 243.985 233.319 244.172C232.909 244.359 232.545 244.611 232.227 244.928C231.929 245.245 231.695 245.628 231.527 246.076C231.359 246.524 231.275 247 231.275 247.504C231.275 248.568 231.583 249.464 232.199 250.192C232.815 250.901 233.665 251.256 234.747 251.256ZM253.069 250.108H243.801V246.384L251.305 234.596H255.309L247.357 246.944H253.069V241.708H256.569V246.944H259.201V250.108H256.569V254H253.069V250.108ZM266.078 249.772V254H261.85V249.772H266.078ZM277.345 237.732H267.041V234.596H281.125V237.396L272.949 254H269.113L277.345 237.732ZM289.691 254.392C288.702 254.392 287.797 254.243 286.975 253.944C286.154 253.627 285.435 253.197 284.819 252.656C284.203 252.096 283.718 251.443 283.363 250.696C283.009 249.931 282.822 249.091 282.803 248.176H286.331C286.406 249.128 286.742 249.893 287.339 250.472C287.937 251.032 288.73 251.312 289.719 251.312C290.746 251.312 291.558 251.041 292.155 250.5C292.753 249.959 293.051 249.24 293.051 248.344C293.051 247.336 292.697 246.608 291.987 246.16C291.297 245.693 290.438 245.46 289.411 245.46H287.843V242.408H289.355C289.766 242.408 290.167 242.371 290.559 242.296C290.951 242.203 291.297 242.053 291.595 241.848C291.913 241.643 292.165 241.381 292.351 241.064C292.538 240.728 292.631 240.308 292.631 239.804C292.631 239.057 292.361 238.451 291.819 237.984C291.297 237.517 290.597 237.284 289.719 237.284C288.711 237.284 287.918 237.564 287.339 238.124C286.761 238.665 286.471 239.337 286.471 240.14H282.915C282.934 239.263 283.121 238.46 283.475 237.732C283.83 237.004 284.315 236.379 284.931 235.856C285.547 235.333 286.266 234.932 287.087 234.652C287.909 234.353 288.786 234.204 289.719 234.204C290.634 234.204 291.483 234.335 292.267 234.596C293.07 234.857 293.761 235.231 294.339 235.716C294.918 236.183 295.366 236.761 295.683 237.452C296.019 238.124 296.187 238.88 296.187 239.72C296.187 240.616 295.926 241.456 295.403 242.24C294.881 243.024 294.143 243.575 293.191 243.892C293.733 244.041 294.218 244.265 294.647 244.564C295.077 244.863 295.431 245.217 295.711 245.628C296.01 246.039 296.234 246.487 296.383 246.972C296.533 247.457 296.607 247.952 296.607 248.456C296.607 249.389 296.421 250.229 296.047 250.976C295.693 251.704 295.198 252.32 294.563 252.824C293.947 253.328 293.219 253.72 292.379 254C291.539 254.261 290.643 254.392 289.691 254.392ZM306.716 254.392C305.279 254.392 304 254.037 302.88 253.328C301.779 252.619 300.939 251.676 300.36 250.5C299.931 249.641 299.651 248.717 299.52 247.728C299.408 246.739 299.352 245.721 299.352 244.676C299.352 243.967 299.38 243.229 299.436 242.464C299.492 241.68 299.604 240.915 299.772 240.168C299.94 239.421 300.183 238.712 300.5 238.04C300.817 237.349 301.237 236.733 301.76 236.192C302.32 235.613 303.001 235.137 303.804 234.764C304.607 234.391 305.624 234.204 306.856 234.204C307.752 234.204 308.592 234.335 309.376 234.596C310.16 234.839 310.841 235.193 311.42 235.66C312.017 236.127 312.484 236.687 312.82 237.34C313.175 237.993 313.352 238.712 313.352 239.496H309.656C309.451 237.965 308.461 237.2 306.688 237.2C305.904 237.2 305.26 237.387 304.756 237.76C304.271 238.115 303.888 238.581 303.608 239.16C303.328 239.739 303.132 240.383 303.02 241.092C302.927 241.801 302.88 242.501 302.88 243.192C303.104 242.819 303.393 242.501 303.748 242.24C304.103 241.96 304.476 241.736 304.868 241.568C305.279 241.381 305.699 241.251 306.128 241.176C306.557 241.083 306.968 241.036 307.36 241.036C308.424 241.036 309.357 241.204 310.16 241.54C310.963 241.857 311.635 242.305 312.176 242.884C312.717 243.463 313.119 244.163 313.38 244.984C313.66 245.787 313.8 246.673 313.8 247.644C313.8 248.577 313.641 249.455 313.324 250.276C313.007 251.097 312.549 251.816 311.952 252.432C311.355 253.029 310.608 253.505 309.712 253.86C308.835 254.215 307.836 254.392 306.716 254.392ZM306.716 251.256C307.836 251.256 308.704 250.92 309.32 250.248C309.936 249.557 310.244 248.643 310.244 247.504C310.244 246.496 309.936 245.647 309.32 244.956C308.723 244.247 307.836 243.892 306.66 243.892C306.175 243.892 305.717 243.985 305.288 244.172C304.877 244.359 304.513 244.611 304.196 244.928C303.897 245.245 303.664 245.628 303.496 246.076C303.328 246.524 303.244 247 303.244 247.504C303.244 248.568 303.552 249.464 304.168 250.192C304.784 250.901 305.633 251.256 306.716 251.256ZM325.037 250.108H315.769V246.384L323.273 234.596H327.277L319.325 246.944H325.037V241.708H328.537V246.944H331.169V250.108H328.537V254H325.037V250.108ZM339.926 254.392C339.048 254.392 338.227 254.261 337.462 254C336.696 253.739 336.024 253.375 335.446 252.908C334.886 252.423 334.428 251.853 334.074 251.2C333.738 250.547 333.551 249.828 333.514 249.044H337.014C337.107 249.828 337.434 250.416 337.994 250.808C338.554 251.2 339.254 251.396 340.094 251.396C340.784 251.396 341.354 251.247 341.802 250.948C342.268 250.649 342.642 250.229 342.922 249.688C343.202 249.128 343.398 248.475 343.51 247.728C343.622 246.963 343.678 246.123 343.678 245.208C343.528 245.6 343.304 245.945 343.006 246.244C342.726 246.524 342.399 246.757 342.026 246.944C341.652 247.112 341.251 247.243 340.822 247.336C340.411 247.429 340.019 247.476 339.646 247.476C338.582 247.476 337.63 247.327 336.79 247.028C335.968 246.711 335.268 246.263 334.69 245.684C334.111 245.105 333.672 244.415 333.374 243.612C333.075 242.809 332.926 241.913 332.926 240.924C332.926 239.972 333.084 239.085 333.402 238.264C333.738 237.443 334.204 236.733 334.802 236.136C335.399 235.539 336.127 235.072 336.986 234.736C337.863 234.381 338.852 234.204 339.954 234.204C340.962 234.204 341.848 234.363 342.614 234.68C343.398 234.997 344.06 235.417 344.602 235.94C345.498 236.78 346.151 237.835 346.562 239.104C346.972 240.355 347.178 241.969 347.178 243.948C347.178 244.657 347.159 245.404 347.122 246.188C347.084 246.953 346.982 247.709 346.814 248.456C346.664 249.203 346.44 249.921 346.142 250.612C345.843 251.284 345.432 251.881 344.91 252.404C344.35 252.964 343.678 253.44 342.894 253.832C342.128 254.205 341.139 254.392 339.926 254.392ZM340.01 244.62C340.476 244.62 340.915 244.536 341.326 244.368C341.736 244.181 342.082 243.929 342.362 243.612C342.66 243.295 342.894 242.921 343.062 242.492C343.23 242.044 343.314 241.568 343.314 241.064C343.314 240 343.024 239.113 342.446 238.404C341.867 237.695 341.036 237.34 339.954 237.34C338.871 237.34 338.022 237.676 337.406 238.348C336.808 239.02 336.51 239.925 336.51 241.064C336.51 242.072 336.808 242.921 337.406 243.612C338.022 244.284 338.89 244.62 340.01 244.62ZM357.357 254.392C355.919 254.392 354.641 254.037 353.521 253.328C352.419 252.619 351.579 251.676 351.001 250.5C350.571 249.641 350.291 248.717 350.161 247.728C350.049 246.739 349.993 245.721 349.993 244.676C349.993 243.967 350.021 243.229 350.077 242.464C350.133 241.68 350.245 240.915 350.413 240.168C350.581 239.421 350.823 238.712 351.141 238.04C351.458 237.349 351.878 236.733 352.401 236.192C352.961 235.613 353.642 235.137 354.445 234.764C355.247 234.391 356.265 234.204 357.497 234.204C358.393 234.204 359.233 234.335 360.017 234.596C360.801 234.839 361.482 235.193 362.061 235.66C362.658 236.127 363.125 236.687 363.461 237.34C363.815 237.993 363.993 238.712 363.993 239.496H360.297C360.091 237.965 359.102 237.2 357.329 237.2C356.545 237.2 355.901 237.387 355.397 237.76C354.911 238.115 354.529 238.581 354.249 239.16C353.969 239.739 353.773 240.383 353.661 241.092C353.567 241.801 353.521 242.501 353.521 243.192C353.745 242.819 354.034 242.501 354.389 242.24C354.743 241.96 355.117 241.736 355.509 241.568C355.919 241.381 356.339 241.251 356.769 241.176C357.198 241.083 357.609 241.036 358.001 241.036C359.065 241.036 359.998 241.204 360.801 241.54C361.603 241.857 362.275 242.305 362.817 242.884C363.358 243.463 363.759 244.163 364.021 244.984C364.301 245.787 364.441 246.673 364.441 247.644C364.441 248.577 364.282 249.455 363.965 250.276C363.647 251.097 363.19 251.816 362.593 252.432C361.995 253.029 361.249 253.505 360.353 253.86C359.475 254.215 358.477 254.392 357.357 254.392ZM357.357 251.256C358.477 251.256 359.345 250.92 359.961 250.248C360.577 249.557 360.885 248.643 360.885 247.504C360.885 246.496 360.577 245.647 359.961 244.956C359.363 244.247 358.477 243.892 357.301 243.892C356.815 243.892 356.358 243.985 355.929 244.172C355.518 244.359 355.154 244.611 354.837 244.928C354.538 245.245 354.305 245.628 354.137 246.076C353.969 246.524 353.885 247 353.885 247.504C353.885 248.568 354.193 249.464 354.809 250.192C355.425 250.901 356.274 251.256 357.357 251.256ZM367.082 250.78L374.614 243.444C375.286 242.791 375.743 242.175 375.986 241.596C376.229 240.999 376.35 240.457 376.35 239.972C376.35 239.113 376.098 238.46 375.594 238.012C375.09 237.545 374.418 237.312 373.578 237.312C372.477 237.312 371.693 237.648 371.226 238.32C370.759 238.973 370.526 239.785 370.526 240.756H366.97C366.97 239.748 367.129 238.843 367.446 238.04C367.763 237.219 368.211 236.528 368.79 235.968C369.369 235.408 370.069 234.979 370.89 234.68C371.711 234.363 372.626 234.204 373.634 234.204C374.53 234.204 375.361 234.335 376.126 234.596C376.891 234.857 377.554 235.24 378.114 235.744C378.674 236.248 379.113 236.864 379.43 237.592C379.747 238.32 379.906 239.141 379.906 240.056C379.906 241.064 379.663 242.016 379.178 242.912C378.693 243.789 378.077 244.583 377.33 245.292L371.534 250.836H380.242V254H367.082V250.78ZM389.637 254.392C388.629 254.392 387.705 254.252 386.865 253.972C386.025 253.673 385.297 253.263 384.681 252.74C384.083 252.217 383.607 251.583 383.253 250.836C382.898 250.089 382.702 249.249 382.665 248.316H386.165C386.258 249.268 386.622 250.005 387.257 250.528C387.891 251.032 388.694 251.284 389.665 251.284C390.243 251.284 390.747 251.191 391.177 251.004C391.625 250.799 391.989 250.528 392.269 250.192C392.567 249.856 392.791 249.464 392.941 249.016C393.09 248.549 393.165 248.055 393.165 247.532C393.165 247.028 393.09 246.561 392.941 246.132C392.81 245.703 392.595 245.329 392.297 245.012C391.998 244.695 391.625 244.443 391.177 244.256C390.747 244.069 390.243 243.976 389.665 243.976C389.067 243.976 388.489 244.116 387.929 244.396C387.369 244.676 386.93 245.059 386.613 245.544H383.057L383.729 234.596H395.853V237.732H386.669L386.361 242.492C387.257 241.428 388.619 240.896 390.449 240.896C391.457 240.896 392.353 241.064 393.137 241.4C393.921 241.717 394.574 242.175 395.097 242.772C395.638 243.351 396.049 244.041 396.329 244.844C396.609 245.628 396.749 246.477 396.749 247.392C396.749 248.419 396.581 249.361 396.245 250.22C395.927 251.079 395.461 251.816 394.845 252.432C394.229 253.048 393.482 253.533 392.605 253.888C391.727 254.224 390.738 254.392 389.637 254.392ZM406.658 254.392C405.22 254.392 403.942 254.037 402.822 253.328C401.72 252.619 400.88 251.676 400.302 250.5C399.872 249.641 399.592 248.717 399.462 247.728C399.35 246.739 399.294 245.721 399.294 244.676C399.294 243.967 399.322 243.229 399.378 242.464C399.434 241.68 399.546 240.915 399.714 240.168C399.882 239.421 400.124 238.712 400.442 238.04C400.759 237.349 401.179 236.733 401.702 236.192C402.262 235.613 402.943 235.137 403.746 234.764C404.548 234.391 405.566 234.204 406.798 234.204C407.694 234.204 408.534 234.335 409.318 234.596C410.102 234.839 410.783 235.193 411.362 235.66C411.959 236.127 412.426 236.687 412.762 237.34C413.116 237.993 413.294 238.712 413.294 239.496H409.598C409.392 237.965 408.403 237.2 406.63 237.2C405.846 237.2 405.202 237.387 404.698 237.76C404.212 238.115 403.83 238.581 403.55 239.16C403.27 239.739 403.074 240.383 402.962 241.092C402.868 241.801 402.822 242.501 402.822 243.192C403.046 242.819 403.335 242.501 403.69 242.24C404.044 241.96 404.418 241.736 404.81 241.568C405.22 241.381 405.64 241.251 406.07 241.176C406.499 241.083 406.91 241.036 407.302 241.036C408.366 241.036 409.299 241.204 410.102 241.54C410.904 241.857 411.576 242.305 412.118 242.884C412.659 243.463 413.06 244.163 413.322 244.984C413.602 245.787 413.742 246.673 413.742 247.644C413.742 248.577 413.583 249.455 413.266 250.276C412.948 251.097 412.491 251.816 411.894 252.432C411.296 253.029 410.55 253.505 409.654 253.86C408.776 254.215 407.778 254.392 406.658 254.392ZM406.658 251.256C407.778 251.256 408.646 250.92 409.262 250.248C409.878 249.557 410.186 248.643 410.186 247.504C410.186 246.496 409.878 245.647 409.262 244.956C408.664 244.247 407.778 243.892 406.602 243.892C406.116 243.892 405.659 243.985 405.23 244.172C404.819 244.359 404.455 244.611 404.138 244.928C403.839 245.245 403.606 245.628 403.438 246.076C403.27 246.524 403.186 247 403.186 247.504C403.186 248.568 403.494 249.464 404.11 250.192C404.726 250.901 405.575 251.256 406.658 251.256Z" fill="white"/>
<path d="M146.983 252L158.472 263.488L169.96 252" stroke="url(#swap_preview_md_paint0_linear)" stroke-width="3.99765"/>
<path d="M70.4074 264.848C70.4074 265.659 70.2687 266.363 69.9914 266.96C69.7354 267.557 69.3941 268.069 68.9674 268.496C68.2847 269.179 67.4527 269.669 66.4714 269.968C65.4901 270.267 64.4234 270.416 63.2714 270.416C62.2047 270.416 61.2127 270.267 60.2954 269.968C59.3781 269.648 58.5781 269.157 57.8954 268.496C57.4047 268.027 56.9887 267.461 56.6474 266.8C56.3061 266.139 56.1354 265.413 56.1354 264.624H59.8794C59.8794 264.987 59.9647 265.349 60.1354 265.712C60.3061 266.075 60.5194 266.363 60.7754 266.576C61.0954 266.832 61.4474 267.024 61.8314 267.152C62.2367 267.259 62.7274 267.312 63.3034 267.312C63.6447 267.312 64.0074 267.291 64.3914 267.248C64.7967 267.184 65.1701 267.077 65.5114 266.928C65.8527 266.779 66.1301 266.565 66.3434 266.288C66.5781 266.011 66.6954 265.648 66.6954 265.2C66.6954 264.709 66.5461 264.315 66.2474 264.016C65.9487 263.717 65.5434 263.525 65.0314 263.44C64.2847 263.333 63.5167 263.248 62.7274 263.184C61.9381 263.099 61.1701 262.971 60.4234 262.8C59.8474 262.672 59.3247 262.469 58.8554 262.192C58.4074 261.915 58.0127 261.584 57.6714 261.2C57.3301 260.795 57.0634 260.357 56.8714 259.888C56.7007 259.397 56.6154 258.885 56.6154 258.352C56.6154 257.499 56.7754 256.773 57.0954 256.176C57.4154 255.557 57.8207 255.035 58.3114 254.608C58.9301 254.075 59.6661 253.669 60.5194 253.392C61.3727 253.093 62.3221 252.944 63.3674 252.944C64.3701 252.944 65.3301 253.104 66.2474 253.424C67.1861 253.744 67.9647 254.235 68.5834 254.896C69.0314 255.387 69.3834 255.931 69.6394 256.528C69.9167 257.104 70.0554 257.701 70.0554 258.32H66.2474C66.2474 258 66.1834 257.712 66.0554 257.456C65.9274 257.2 65.7674 256.965 65.5754 256.752C65.3407 256.517 65.0207 256.336 64.6154 256.208C64.2314 256.059 63.8261 255.984 63.3994 255.984C63.1007 255.984 62.8127 255.995 62.5354 256.016C62.2581 256.037 61.9701 256.112 61.6714 256.24C61.3087 256.389 60.9994 256.613 60.7434 256.912C60.5087 257.211 60.3914 257.573 60.3914 258C60.3914 258.597 60.5941 259.013 60.9994 259.248C61.4261 259.461 61.8634 259.6 62.3114 259.664C62.6954 259.707 63.0154 259.749 63.2714 259.792C63.5274 259.813 63.7834 259.845 64.0394 259.888C64.2954 259.909 64.5621 259.941 64.8394 259.984C65.1167 260.027 65.4581 260.08 65.8634 260.144C67.1861 260.357 68.2741 260.869 69.1274 261.68C69.9807 262.469 70.4074 263.525 70.4074 264.848ZM74.3269 270V247.312H90.4869V251.056H78.4549V256.336H89.0469V260.048H78.4549V266.256H90.4869V270H74.3269ZM102.805 251.152V270H98.6766V251.152H91.9566V247.312H109.525V251.152H102.805ZM125.798 270V260.112H116.486V270H112.358V247.312H116.486V256.176H125.798V247.312H129.926V270H125.798Z" fill="white"/>
<rect width="566.667" height="170" rx="5.39683" fill="#10101E"/>
<path d="M64.736 29.656V30.968H58.976V34.664H64.096V36.008H58.976V41H57.552V29.656H64.736ZM66.408 32.92H67.624L67.736 34.328C67.9493 33.8053 68.2747 33.432 68.712 33.208C69.16 32.9733 69.64 32.856 70.152 32.856C70.3653 32.856 70.5787 32.872 70.792 32.904V34.264C70.6 34.2107 70.3867 34.184 70.152 34.184C69.704 34.184 69.3253 34.264 69.016 34.424C68.7173 34.5733 68.472 34.7813 68.28 35.048C68.0987 35.3147 67.9653 35.624 67.88 35.976C67.8053 36.3173 67.768 36.6853 67.768 37.08V41H66.408V32.92ZM75.6861 41.224C75.1528 41.224 74.6781 41.1387 74.2621 40.968C73.8461 40.7973 73.4835 40.568 73.1741 40.28C72.7155 39.8427 72.4008 39.3413 72.2301 38.776C72.0701 38.2 71.9901 37.592 71.9901 36.952C71.9901 36.312 72.0701 35.7093 72.2301 35.144C72.4008 34.5787 72.7155 34.0773 73.1741 33.64C73.4835 33.352 73.8461 33.1227 74.2621 32.952C74.6781 32.7813 75.1528 32.696 75.6861 32.696C76.2195 32.696 76.6941 32.7813 77.1101 32.952C77.5261 33.1227 77.8888 33.352 78.1981 33.64C78.6568 34.0773 78.9661 34.5787 79.1261 35.144C79.2968 35.7093 79.3821 36.312 79.3821 36.952C79.3821 37.592 79.2968 38.2 79.1261 38.776C78.9661 39.3413 78.6568 39.8427 78.1981 40.28C77.8888 40.568 77.5261 40.7973 77.1101 40.968C76.6941 41.1387 76.2195 41.224 75.6861 41.224ZM75.6861 40.056C76.0168 40.056 76.3101 40.0027 76.5661 39.896C76.8221 39.7893 77.0355 39.6507 77.2061 39.48C77.5048 39.1813 77.7075 38.824 77.8141 38.408C77.9315 37.9813 77.9901 37.496 77.9901 36.952C77.9901 36.408 77.9315 35.928 77.8141 35.512C77.7075 35.096 77.5048 34.7387 77.2061 34.44C77.0355 34.2693 76.8221 34.1307 76.5661 34.024C76.3101 33.9173 76.0168 33.864 75.6861 33.864C75.3555 33.864 75.0621 33.9173 74.8061 34.024C74.5501 34.1307 74.3368 34.2693 74.1661 34.44C73.8675 34.7387 73.6595 35.096 73.5421 35.512C73.4355 35.928 73.3821 36.408 73.3821 36.952C73.3821 37.496 73.4355 37.9813 73.5421 38.408C73.6595 38.824 73.8675 39.1813 74.1661 39.48C74.3368 39.6507 74.5501 39.7893 74.8061 39.896C75.0621 40.0027 75.3555 40.056 75.6861 40.056ZM81.7049 32.92H82.8889L83.0169 34.104C83.2302 33.6347 83.5502 33.2827 83.9769 33.048C84.4035 32.8133 84.8515 32.696 85.3209 32.696C85.9289 32.696 86.4355 32.8293 86.8409 33.096C87.2569 33.352 87.5555 33.7307 87.7369 34.232C87.9609 33.72 88.3075 33.336 88.7769 33.08C89.2569 32.824 89.7529 32.696 90.2649 32.696C91.1929 32.696 91.8809 32.968 92.3289 33.512C92.7769 34.056 93.0009 34.776 93.0009 35.672V41H91.6409V35.848C91.6409 35.5707 91.6089 35.3147 91.5449 35.08C91.4915 34.8453 91.3955 34.6427 91.2569 34.472C91.1289 34.3013 90.9582 34.168 90.7449 34.072C90.5422 33.976 90.2915 33.928 89.9929 33.928C89.6835 33.928 89.4062 33.992 89.1609 34.12C88.9155 34.248 88.7075 34.424 88.5369 34.648C88.3662 34.8613 88.2329 35.1173 88.1369 35.416C88.0515 35.7147 88.0089 36.0347 88.0089 36.376V41H86.6649V35.896C86.6649 35.6187 86.6382 35.3627 86.5849 35.128C86.5315 34.8827 86.4409 34.6747 86.3129 34.504C86.1849 34.3227 86.0142 34.184 85.8009 34.088C85.5982 33.9813 85.3475 33.928 85.0489 33.928C84.7502 33.928 84.4782 33.9973 84.2329 34.136C83.9875 34.264 83.7795 34.44 83.6089 34.664C83.4382 34.888 83.3049 35.1493 83.2089 35.448C83.1129 35.736 83.0649 36.0453 83.0649 36.376V41H81.7049V32.92Z" fill="#8A939F"/>
<path d="M454.973 148V146.72H449.981L453.853 142.032C454.162 141.659 454.397 141.28 454.557 140.896C454.717 140.512 454.797 140.101 454.797 139.664C454.797 139.312 454.754 138.997 454.669 138.72C454.583 138.432 454.455 138.171 454.285 137.936C453.997 137.541 453.618 137.232 453.149 137.008C452.669 136.773 452.125 136.656 451.517 136.656C450.514 136.667 449.714 136.965 449.117 137.552C448.509 138.139 448.199 138.923 448.189 139.904H449.597C449.618 139.179 449.815 138.656 450.189 138.336C450.573 138.027 451.021 137.877 451.533 137.888C452.119 137.888 452.578 138.043 452.909 138.352C453.239 138.661 453.405 139.104 453.405 139.68C453.405 139.968 453.357 140.24 453.261 140.496C453.165 140.763 453.01 141.024 452.797 141.28L448.205 146.832V148H454.973ZM462.735 148.016V145.6H460.367V148.016H462.735ZM475.745 148V146.752H472.737V136.88H471.425L468.353 138.784V140.24L471.361 138.432V146.752H468.337V148H475.745ZM485.218 148V146.72H480.226L484.098 142.032C484.408 141.659 484.642 141.28 484.802 140.896C484.962 140.512 485.042 140.101 485.042 139.664C485.042 139.312 485 138.997 484.914 138.72C484.829 138.432 484.701 138.171 484.53 137.936C484.242 137.541 483.864 137.232 483.394 137.008C482.914 136.773 482.37 136.656 481.762 136.656C480.76 136.667 479.96 136.965 479.362 137.552C478.754 138.139 478.445 138.923 478.434 139.904H479.842C479.864 139.179 480.061 138.656 480.434 138.336C480.818 138.027 481.266 137.877 481.778 137.888C482.365 137.888 482.824 138.043 483.154 138.352C483.485 138.661 483.65 139.104 483.65 139.68C483.65 139.968 483.602 140.24 483.506 140.496C483.41 140.763 483.256 141.024 483.042 141.28L478.45 146.832V148H485.218ZM495.604 144.336C495.604 143.781 495.519 143.264 495.348 142.784C495.178 142.315 494.927 141.909 494.596 141.568C494.319 141.28 493.988 141.056 493.604 140.896C493.21 140.736 492.767 140.656 492.276 140.656C491.796 140.656 491.343 140.736 490.916 140.896C490.49 141.056 490.148 141.312 489.892 141.664L490.068 138.112H495.044V136.88H488.9L488.596 142.848H490.116C490.319 142.528 490.586 142.283 490.916 142.112C491.258 141.952 491.62 141.872 492.004 141.872C492.356 141.872 492.666 141.925 492.932 142.032C493.199 142.149 493.418 142.304 493.588 142.496C493.802 142.731 493.962 143.008 494.068 143.328C494.175 143.659 494.228 144.016 494.228 144.4C494.228 144.773 494.18 145.115 494.084 145.424C493.988 145.733 493.85 146.005 493.668 146.24C493.498 146.464 493.274 146.64 492.996 146.768C492.719 146.907 492.388 146.976 492.004 146.976C491.652 146.976 491.338 146.923 491.06 146.816C490.772 146.709 490.538 146.565 490.356 146.384C490.175 146.203 490.026 145.979 489.908 145.712C489.802 145.456 489.738 145.152 489.716 144.8H488.356C488.378 145.312 488.479 145.776 488.66 146.192C488.842 146.597 489.087 146.955 489.396 147.264C489.706 147.563 490.084 147.797 490.532 147.968C490.98 148.139 491.476 148.224 492.02 148.224C492.607 148.213 493.119 148.112 493.556 147.92C494.004 147.717 494.372 147.456 494.66 147.136C494.97 146.795 495.204 146.389 495.364 145.92C495.524 145.451 495.604 144.923 495.604 144.336ZM505.99 148V146.752H502.982V136.88H501.67L498.598 138.784V140.24L501.606 138.432V146.752H498.582V148H505.99Z" fill="#6F6E95"/>
<path d="M68.2 133.656L65.944 145H64.424L61.832 135.864L59.208 145H57.704L55.432 133.656H56.792L58.568 142.92L61.192 133.816H62.472L65.096 142.904L66.872 133.656H68.2ZM72.0051 145.224C71.5358 145.224 71.1251 145.149 70.7731 145C70.4318 144.861 70.1438 144.675 69.9091 144.44C69.6851 144.205 69.5145 143.939 69.3971 143.64C69.2798 143.341 69.2211 143.037 69.2211 142.728C69.2211 142.472 69.2638 142.2 69.3491 141.912C69.4451 141.624 69.6051 141.357 69.8291 141.112C70.0531 140.867 70.3465 140.659 70.7091 140.488C71.0825 140.317 71.5465 140.216 72.1011 140.184L74.5651 140.04V139.48C74.5651 138.904 74.4158 138.483 74.1171 138.216C73.8291 137.939 73.3918 137.8 72.8051 137.8C72.2505 137.8 71.8025 137.933 71.4611 138.2C71.1198 138.456 70.9491 138.813 70.9491 139.272H69.6211C69.6318 138.856 69.7171 138.488 69.8771 138.168C70.0478 137.848 70.2771 137.581 70.5651 137.368C70.8531 137.144 71.1891 136.979 71.5731 136.872C71.9571 136.755 72.3678 136.696 72.8051 136.696C73.7545 136.696 74.5065 136.936 75.0611 137.416C75.6265 137.896 75.9091 138.589 75.9091 139.496V143.416C75.9091 143.629 75.9465 143.773 76.0211 143.848C76.1065 143.923 76.2185 143.96 76.3571 143.96C76.3891 143.96 76.4371 143.96 76.5011 143.96C76.5758 143.949 76.6451 143.933 76.7091 143.912V144.92C76.5598 144.995 76.4158 145.043 76.2771 145.064C76.1385 145.096 75.9838 145.112 75.8131 145.112C75.4505 145.112 75.1625 144.995 74.9491 144.76C74.7358 144.515 74.6291 144.221 74.6291 143.88C74.3838 144.275 74.0265 144.6 73.5571 144.856C73.0985 145.101 72.5811 145.224 72.0051 145.224ZM72.2131 144.088C72.5758 144.088 72.9011 144.024 73.1891 143.896C73.4878 143.768 73.7385 143.592 73.9411 143.368C74.1438 143.133 74.2985 142.867 74.4051 142.568C74.5118 142.259 74.5651 141.928 74.5651 141.576V141.096L72.2291 141.224C72.0265 141.235 71.8291 141.272 71.6371 141.336C71.4451 141.4 71.2691 141.491 71.1091 141.608C70.9598 141.725 70.8371 141.875 70.7411 142.056C70.6558 142.237 70.6131 142.451 70.6131 142.696C70.6131 142.867 70.6398 143.037 70.6931 143.208C70.7571 143.368 70.8531 143.517 70.9811 143.656C71.1091 143.784 71.2745 143.891 71.4771 143.976C71.6798 144.051 71.9251 144.088 72.2131 144.088ZM80.4329 145.112C79.8675 145.112 79.4302 144.957 79.1209 144.648C78.8115 144.328 78.6569 143.848 78.6569 143.208V133.416H80.0169V143.048C80.0169 143.325 80.0702 143.533 80.1769 143.672C80.2835 143.811 80.4755 143.88 80.7529 143.88C80.8062 143.88 80.8702 143.88 80.9449 143.88C81.0195 143.88 81.1422 143.869 81.3129 143.848V145C81.1635 145.043 81.0302 145.069 80.9129 145.08C80.7955 145.101 80.6355 145.112 80.4329 145.112ZM84.9016 145.112C84.3363 145.112 83.899 144.957 83.5896 144.648C83.2803 144.328 83.1256 143.848 83.1256 143.208V133.416H84.4856V143.048C84.4856 143.325 84.539 143.533 84.6456 143.672C84.7523 143.811 84.9443 143.88 85.2216 143.88C85.275 143.88 85.339 143.88 85.4136 143.88C85.4883 143.88 85.611 143.869 85.7816 143.848V145C85.6323 145.043 85.499 145.069 85.3816 145.08C85.2643 145.101 85.1043 145.112 84.9016 145.112ZM90.9083 145.224C90.3216 145.224 89.7829 145.117 89.2923 144.904C88.8123 144.68 88.4069 144.381 88.0763 144.008C87.7349 143.613 87.4789 143.16 87.3083 142.648C87.1376 142.125 87.0523 141.576 87.0523 141C87.0523 140.509 87.1003 140.051 87.1963 139.624C87.2923 139.187 87.4576 138.781 87.6923 138.408C87.9909 137.917 88.4016 137.512 88.9243 137.192C89.4576 136.861 90.0869 136.696 90.8123 136.696C91.3669 136.696 91.8629 136.803 92.3003 137.016C92.7376 137.219 93.1056 137.496 93.4043 137.848C93.7136 138.2 93.9483 138.616 94.1083 139.096C94.2789 139.565 94.3643 140.067 94.3643 140.6C94.3643 140.728 94.3643 140.867 94.3643 141.016C94.3643 141.165 94.3536 141.299 94.3323 141.416H88.4763C88.4763 141.789 88.5296 142.136 88.6363 142.456C88.7536 142.776 88.9136 143.053 89.1163 143.288C89.3296 143.523 89.5856 143.704 89.8843 143.832C90.1936 143.96 90.5403 144.024 90.9243 144.024C91.3936 144.024 91.7989 143.907 92.1403 143.672C92.4923 143.437 92.7376 143.08 92.8763 142.6H94.2362C94.1829 142.984 94.0549 143.336 93.8523 143.656C93.6496 143.976 93.3989 144.253 93.1003 144.488C92.8016 144.723 92.4656 144.904 92.0923 145.032C91.7189 145.16 91.3243 145.224 90.9083 145.224ZM92.9723 140.248C92.9723 139.544 92.7856 138.968 92.4123 138.52C92.0389 138.072 91.4949 137.848 90.7803 137.848C90.4069 137.848 90.0816 137.917 89.8043 138.056C89.5269 138.195 89.2923 138.376 89.1003 138.6C88.9083 138.824 88.7643 139.08 88.6683 139.368C88.5723 139.656 88.5189 139.949 88.5082 140.248H92.9723ZM99.6374 145.096C99.2 145.096 98.832 145.027 98.5334 144.888C98.2454 144.749 98.0107 144.573 97.8294 144.36C97.648 144.136 97.5147 143.891 97.4294 143.624C97.3547 143.347 97.3174 143.069 97.3174 142.792V138.088H95.5414V136.92H97.3174V134.776L98.6774 134.456V136.92H100.981V138.088H98.6774V142.632C98.6774 143.048 98.7787 143.357 98.9814 143.56C99.1947 143.752 99.488 143.848 99.8614 143.848C100.096 143.848 100.315 143.832 100.517 143.8C100.731 143.768 100.912 143.731 101.061 143.688V144.856C100.912 144.909 100.72 144.963 100.485 145.016C100.261 145.069 99.9787 145.096 99.6374 145.096ZM106.896 133.656H111.536C112.026 133.656 112.474 133.725 112.88 133.864C113.296 134.003 113.653 134.2 113.952 134.456C114.261 134.701 114.501 135.005 114.672 135.368C114.842 135.731 114.928 136.136 114.928 136.584C114.928 137.128 114.789 137.635 114.512 138.104C114.234 138.573 113.829 138.904 113.296 139.096C113.584 139.192 113.845 139.336 114.08 139.528C114.314 139.709 114.512 139.923 114.672 140.168C114.842 140.403 114.97 140.664 115.056 140.952C115.141 141.24 115.184 141.533 115.184 141.832C115.184 142.312 115.093 142.749 114.912 143.144C114.73 143.539 114.48 143.875 114.16 144.152C113.84 144.419 113.456 144.627 113.008 144.776C112.56 144.925 112.074 145 111.552 145H106.896V133.656ZM111.472 143.688C111.781 143.688 112.074 143.651 112.352 143.576C112.629 143.501 112.869 143.384 113.072 143.224C113.274 143.064 113.434 142.861 113.552 142.616C113.669 142.371 113.728 142.077 113.728 141.736C113.728 141.416 113.669 141.133 113.552 140.888C113.434 140.643 113.274 140.435 113.072 140.264C112.869 140.093 112.629 139.965 112.352 139.88C112.085 139.784 111.792 139.736 111.472 139.736H108.288V143.688H111.472ZM111.44 138.488C112.037 138.488 112.522 138.344 112.896 138.056C113.28 137.768 113.472 137.315 113.472 136.696C113.472 136.397 113.418 136.141 113.312 135.928C113.205 135.704 113.056 135.517 112.864 135.368C112.682 135.219 112.464 135.107 112.208 135.032C111.962 134.957 111.701 134.92 111.424 134.92H108.288V138.488H111.44ZM119.63 145.224C119.161 145.224 118.75 145.149 118.398 145C118.057 144.861 117.769 144.675 117.534 144.44C117.31 144.205 117.139 143.939 117.022 143.64C116.905 143.341 116.846 143.037 116.846 142.728C116.846 142.472 116.889 142.2 116.974 141.912C117.07 141.624 117.23 141.357 117.454 141.112C117.678 140.867 117.971 140.659 118.334 140.488C118.707 140.317 119.171 140.216 119.726 140.184L122.19 140.04V139.48C122.19 138.904 122.041 138.483 121.742 138.216C121.454 137.939 121.017 137.8 120.43 137.8C119.875 137.8 119.427 137.933 119.086 138.2C118.745 138.456 118.574 138.813 118.574 139.272H117.246C117.257 138.856 117.342 138.488 117.502 138.168C117.673 137.848 117.902 137.581 118.19 137.368C118.478 137.144 118.814 136.979 119.198 136.872C119.582 136.755 119.993 136.696 120.43 136.696C121.379 136.696 122.131 136.936 122.686 137.416C123.251 137.896 123.534 138.589 123.534 139.496V143.416C123.534 143.629 123.571 143.773 123.646 143.848C123.731 143.923 123.843 143.96 123.982 143.96C124.014 143.96 124.062 143.96 124.126 143.96C124.201 143.949 124.27 143.933 124.334 143.912V144.92C124.185 144.995 124.041 145.043 123.902 145.064C123.763 145.096 123.609 145.112 123.438 145.112C123.075 145.112 122.787 144.995 122.574 144.76C122.361 144.515 122.254 144.221 122.254 143.88C122.009 144.275 121.651 144.6 121.182 144.856C120.723 145.101 120.206 145.224 119.63 145.224ZM119.838 144.088C120.201 144.088 120.526 144.024 120.814 143.896C121.113 143.768 121.363 143.592 121.566 143.368C121.769 143.133 121.923 142.867 122.03 142.568C122.137 142.259 122.19 141.928 122.19 141.576V141.096L119.854 141.224C119.651 141.235 119.454 141.272 119.262 141.336C119.07 141.4 118.894 141.491 118.734 141.608C118.585 141.725 118.462 141.875 118.366 142.056C118.281 142.237 118.238 142.451 118.238 142.696C118.238 142.867 118.265 143.037 118.318 143.208C118.382 143.368 118.478 143.517 118.606 143.656C118.734 143.784 118.899 143.891 119.102 143.976C119.305 144.051 119.55 144.088 119.838 144.088ZM128.058 145.112C127.493 145.112 127.055 144.957 126.746 144.648C126.437 144.328 126.282 143.848 126.282 143.208V133.416H127.642V143.048C127.642 143.325 127.695 143.533 127.802 143.672C127.909 143.811 128.101 143.88 128.378 143.88C128.431 143.88 128.495 143.88 128.57 143.88C128.645 143.88 128.767 143.869 128.938 143.848V145C128.789 145.043 128.655 145.069 128.538 145.08C128.421 145.101 128.261 145.112 128.058 145.112ZM132.943 145.224C132.473 145.224 132.063 145.149 131.711 145C131.369 144.861 131.081 144.675 130.847 144.44C130.623 144.205 130.452 143.939 130.335 143.64C130.217 143.341 130.159 143.037 130.159 142.728C130.159 142.472 130.201 142.2 130.287 141.912C130.383 141.624 130.543 141.357 130.767 141.112C130.991 140.867 131.284 140.659 131.647 140.488C132.02 140.317 132.484 140.216 133.039 140.184L135.503 140.04V139.48C135.503 138.904 135.353 138.483 135.055 138.216C134.767 137.939 134.329 137.8 133.743 137.8C133.188 137.8 132.74 137.933 132.399 138.2C132.057 138.456 131.887 138.813 131.887 139.272H130.559C130.569 138.856 130.655 138.488 130.815 138.168C130.985 137.848 131.215 137.581 131.503 137.368C131.791 137.144 132.127 136.979 132.511 136.872C132.895 136.755 133.305 136.696 133.743 136.696C134.692 136.696 135.444 136.936 135.999 137.416C136.564 137.896 136.847 138.589 136.847 139.496V143.416C136.847 143.629 136.884 143.773 136.959 143.848C137.044 143.923 137.156 143.96 137.295 143.96C137.327 143.96 137.375 143.96 137.439 143.96C137.513 143.949 137.583 143.933 137.647 143.912V144.92C137.497 144.995 137.353 145.043 137.215 145.064C137.076 145.096 136.921 145.112 136.751 145.112C136.388 145.112 136.1 144.995 135.887 144.76C135.673 144.515 135.567 144.221 135.567 143.88C135.321 144.275 134.964 144.6 134.495 144.856C134.036 145.101 133.519 145.224 132.943 145.224ZM133.151 144.088C133.513 144.088 133.839 144.024 134.127 143.896C134.425 143.768 134.676 143.592 134.879 143.368C135.081 143.133 135.236 142.867 135.343 142.568C135.449 142.259 135.503 141.928 135.503 141.576V141.096L133.167 141.224C132.964 141.235 132.767 141.272 132.575 141.336C132.383 141.4 132.207 141.491 132.047 141.608C131.897 141.725 131.775 141.875 131.679 142.056C131.593 142.237 131.551 142.451 131.551 142.696C131.551 142.867 131.577 143.037 131.631 143.208C131.695 143.368 131.791 143.517 131.919 143.656C132.047 143.784 132.212 143.891 132.415 143.976C132.617 144.051 132.863 144.088 133.151 144.088ZM139.752 136.92H140.936L141.048 138.168C141.154 137.933 141.298 137.725 141.48 137.544C141.672 137.352 141.88 137.197 142.104 137.08C142.338 136.952 142.578 136.856 142.824 136.792C143.08 136.728 143.32 136.696 143.544 136.696C144.472 136.696 145.176 136.957 145.656 137.48C146.146 138.003 146.392 138.733 146.392 139.672V145H145.032V139.864C145.032 139.267 144.893 138.797 144.616 138.456C144.338 138.104 143.896 137.928 143.288 137.928C142.946 137.928 142.642 137.997 142.376 138.136C142.109 138.275 141.88 138.467 141.688 138.712C141.506 138.947 141.362 139.229 141.256 139.56C141.16 139.891 141.112 140.243 141.112 140.616V145H139.752V136.92ZM152.311 145.224C151.233 145.224 150.375 144.893 149.735 144.232C149.361 143.859 149.084 143.395 148.903 142.84C148.721 142.285 148.631 141.656 148.631 140.952C148.631 140.291 148.716 139.699 148.887 139.176C149.068 138.653 149.319 138.205 149.639 137.832C150.3 137.075 151.207 136.696 152.359 136.696C152.849 136.696 153.292 136.771 153.687 136.92C154.081 137.069 154.417 137.277 154.695 137.544C154.983 137.8 155.207 138.109 155.367 138.472C155.527 138.835 155.617 139.224 155.639 139.64H154.263C154.199 139.064 153.985 138.627 153.623 138.328C153.26 138.029 152.817 137.88 152.295 137.88C151.921 137.88 151.596 137.955 151.319 138.104C151.041 138.243 150.812 138.429 150.631 138.664C150.417 138.941 150.263 139.272 150.167 139.656C150.071 140.04 150.023 140.472 150.023 140.952C150.023 141.453 150.071 141.907 150.167 142.312C150.263 142.707 150.423 143.037 150.647 143.304C150.839 143.539 151.068 143.72 151.335 143.848C151.612 143.976 151.932 144.04 152.295 144.04C152.839 144.04 153.292 143.885 153.655 143.576C154.028 143.267 154.241 142.84 154.295 142.296H155.671C155.639 142.733 155.527 143.133 155.335 143.496C155.153 143.848 154.913 144.152 154.615 144.408C154.316 144.664 153.969 144.861 153.575 145C153.18 145.149 152.759 145.224 152.311 145.224ZM161.205 145.224C160.618 145.224 160.08 145.117 159.589 144.904C159.109 144.68 158.704 144.381 158.373 144.008C158.032 143.613 157.776 143.16 157.605 142.648C157.434 142.125 157.349 141.576 157.349 141C157.349 140.509 157.397 140.051 157.493 139.624C157.589 139.187 157.754 138.781 157.989 138.408C158.288 137.917 158.698 137.512 159.221 137.192C159.754 136.861 160.384 136.696 161.109 136.696C161.664 136.696 162.16 136.803 162.597 137.016C163.034 137.219 163.402 137.496 163.701 137.848C164.01 138.2 164.245 138.616 164.405 139.096C164.576 139.565 164.661 140.067 164.661 140.6C164.661 140.728 164.661 140.867 164.661 141.016C164.661 141.165 164.65 141.299 164.629 141.416H158.773C158.773 141.789 158.826 142.136 158.933 142.456C159.05 142.776 159.21 143.053 159.413 143.288C159.626 143.523 159.882 143.704 160.181 143.832C160.49 143.96 160.837 144.024 161.221 144.024C161.69 144.024 162.096 143.907 162.437 143.672C162.789 143.437 163.034 143.08 163.173 142.6H164.533C164.48 142.984 164.352 143.336 164.149 143.656C163.946 143.976 163.696 144.253 163.397 144.488C163.098 144.723 162.762 144.904 162.389 145.032C162.016 145.16 161.621 145.224 161.205 145.224ZM163.269 140.248C163.269 139.544 163.082 138.968 162.709 138.52C162.336 138.072 161.792 137.848 161.077 137.848C160.704 137.848 160.378 137.917 160.101 138.056C159.824 138.195 159.589 138.376 159.397 138.6C159.205 138.824 159.061 139.08 158.965 139.368C158.869 139.656 158.816 139.949 158.805 140.248H163.269Z" fill="#6F6E95"/>
<rect x="210" y="42" width="300" height="80" rx="5.39683" fill="black"/>
<path d="M234.092 103.27C234.083 102.486 233.835 101.851 233.35 101.366C232.865 100.881 232.202 100.577 231.362 100.456C231.185 100.428 231.012 100.4 230.844 100.372V97.068C231.115 97.1147 231.357 97.1893 231.572 97.292C231.787 97.404 231.969 97.5487 232.118 97.726C232.258 97.8847 232.37 98.0713 232.454 98.286C232.538 98.5007 232.589 98.7293 232.608 98.972H233.91C233.882 98.132 233.565 97.4227 232.958 96.844C232.678 96.5733 232.356 96.3633 231.992 96.214C231.628 96.0553 231.245 95.9573 230.844 95.92V94.814H230.06V95.906C229.183 95.9713 228.445 96.2933 227.848 96.872C227.577 97.124 227.372 97.4227 227.232 97.768C227.083 98.104 227.008 98.4587 227.008 98.832C227.027 99.616 227.279 100.223 227.764 100.652C228.249 101.081 228.87 101.352 229.626 101.464L230.06 101.534V105.02C229.78 104.983 229.514 104.917 229.262 104.824C229.01 104.731 228.791 104.595 228.604 104.418C228.399 104.222 228.231 103.984 228.1 103.704C227.969 103.433 227.904 103.149 227.904 102.85H226.602C226.611 103.326 226.709 103.765 226.896 104.166C227.092 104.577 227.349 104.931 227.666 105.23C228.254 105.781 229.052 106.093 230.06 106.168V107.218H230.844V106.168C231.311 106.131 231.754 106.033 232.174 105.874C232.585 105.706 232.944 105.477 233.252 105.188C233.504 104.955 233.705 104.679 233.854 104.362C234.013 104.045 234.092 103.681 234.092 103.27ZM230.06 100.246C229.957 100.227 229.855 100.213 229.752 100.204C229.369 100.157 229.033 100.022 228.744 99.798C228.464 99.5833 228.315 99.252 228.296 98.804C228.296 98.58 228.329 98.3793 228.394 98.202C228.459 98.034 228.553 97.8753 228.674 97.726C228.861 97.5207 229.066 97.3667 229.29 97.264C229.523 97.152 229.78 97.082 230.06 97.054V100.246ZM232.79 103.298C232.79 103.559 232.743 103.783 232.65 103.97C232.566 104.157 232.445 104.32 232.286 104.46C232.099 104.637 231.885 104.768 231.642 104.852C231.399 104.945 231.133 105.001 230.844 105.02V101.66L231.152 101.702C231.731 101.795 232.151 101.987 232.412 102.276C232.673 102.565 232.799 102.906 232.79 103.298ZM242.088 106V104.88H237.72L241.108 100.778C241.378 100.451 241.584 100.12 241.724 99.784C241.864 99.448 241.934 99.0887 241.934 98.706C241.934 98.398 241.896 98.1227 241.822 97.88C241.747 97.628 241.635 97.3993 241.486 97.194C241.234 96.8487 240.902 96.578 240.492 96.382C240.072 96.1767 239.596 96.074 239.064 96.074C238.186 96.0833 237.486 96.3447 236.964 96.858C236.432 97.3713 236.161 98.0573 236.152 98.916H237.384C237.402 98.2813 237.575 97.824 237.902 97.544C238.238 97.2733 238.63 97.1427 239.078 97.152C239.591 97.152 239.992 97.2873 240.282 97.558C240.571 97.8287 240.716 98.216 240.716 98.72C240.716 98.972 240.674 99.21 240.59 99.434C240.506 99.6673 240.37 99.896 240.184 100.12L236.166 104.978V106H242.088ZM250.727 103.34C250.727 102.817 250.587 102.337 250.307 101.898C250.027 101.459 249.626 101.147 249.103 100.96C249.514 100.783 249.85 100.489 250.111 100.078C250.382 99.6673 250.522 99.2287 250.531 98.762C250.531 98.342 250.461 97.9733 250.321 97.656C250.181 97.348 249.99 97.082 249.747 96.858C249.486 96.6153 249.169 96.424 248.795 96.284C248.431 96.144 248.044 96.074 247.633 96.074C247.213 96.074 246.821 96.1347 246.457 96.256C246.093 96.3773 245.776 96.55 245.505 96.774C245.216 97.0073 244.992 97.3013 244.833 97.656C244.665 98.0107 244.577 98.4307 244.567 98.916H245.785C245.795 98.6173 245.846 98.3513 245.939 98.118C246.042 97.894 246.187 97.7027 246.373 97.544C246.523 97.4227 246.7 97.3293 246.905 97.264C247.111 97.1893 247.344 97.152 247.605 97.152C247.876 97.152 248.114 97.1987 248.319 97.292C248.534 97.376 248.707 97.488 248.837 97.628C248.996 97.7773 249.113 97.9453 249.187 98.132C249.262 98.328 249.299 98.538 249.299 98.762C249.29 99.2753 249.127 99.6767 248.809 99.966C248.483 100.255 248.035 100.4 247.465 100.4H246.835V101.506H247.465C248.072 101.506 248.562 101.66 248.935 101.968C249.309 102.267 249.5 102.715 249.509 103.312C249.509 103.573 249.467 103.807 249.383 104.012C249.299 104.217 249.187 104.395 249.047 104.544C248.879 104.731 248.669 104.871 248.417 104.964C248.165 105.057 247.89 105.104 247.591 105.104C247.283 105.104 247.013 105.053 246.779 104.95C246.555 104.857 246.369 104.726 246.219 104.558C246.061 104.39 245.939 104.194 245.855 103.97C245.771 103.737 245.725 103.485 245.715 103.214H244.497C244.507 103.662 244.581 104.059 244.721 104.404C244.871 104.749 245.071 105.048 245.323 105.3C245.594 105.58 245.925 105.795 246.317 105.944C246.7 106.103 247.125 106.182 247.591 106.182C248.133 106.182 248.604 106.103 249.005 105.944C249.397 105.795 249.724 105.58 249.985 105.3C250.228 105.048 250.41 104.754 250.531 104.418C250.662 104.082 250.727 103.723 250.727 103.34ZM257.449 106V103.914H255.335V106H256.441C256.45 106.485 256.376 106.877 256.217 107.176C256.068 107.475 255.769 107.717 255.321 107.904L255.769 108.716C256.394 108.455 256.833 108.095 257.085 107.638C257.337 107.19 257.458 106.644 257.449 106ZM268.665 106V104.908H266.033V96.27H264.885L262.197 97.936V99.21L264.829 97.628V104.908H262.183V106H268.665ZM276.814 106V104.88H272.446L275.834 100.778C276.105 100.451 276.31 100.12 276.45 99.784C276.59 99.448 276.66 99.0887 276.66 98.706C276.66 98.398 276.623 98.1227 276.548 97.88C276.474 97.628 276.362 97.3993 276.212 97.194C275.96 96.8487 275.629 96.578 275.218 96.382C274.798 96.1767 274.322 96.074 273.79 96.074C272.913 96.0833 272.213 96.3447 271.69 96.858C271.158 97.3713 270.888 98.0573 270.878 98.916H272.11C272.129 98.2813 272.302 97.824 272.628 97.544C272.964 97.2733 273.356 97.1427 273.804 97.152C274.318 97.152 274.719 97.2873 275.008 97.558C275.298 97.8287 275.442 98.216 275.442 98.72C275.442 98.972 275.4 99.21 275.316 99.434C275.232 99.6673 275.097 99.896 274.91 100.12L270.892 104.978V106H276.814ZM285.986 103.928V102.85H284.67V99.952H283.466V102.85H280.036L283.984 96.27H282.696L278.86 102.64V103.928H283.466V106H284.67V103.928H285.986ZM292.147 106.014V103.9H290.075V106.014H292.147ZM303.223 102.864C303.223 102.351 303.134 101.879 302.957 101.45C302.789 101.021 302.546 100.652 302.229 100.344C301.996 100.12 301.702 99.938 301.347 99.798C300.992 99.658 300.591 99.588 300.143 99.588C299.667 99.5973 299.219 99.7 298.799 99.896C298.379 100.101 298.085 100.377 297.917 100.722C297.917 100.199 297.964 99.6673 298.057 99.126C298.16 98.594 298.36 98.146 298.659 97.782C298.808 97.6047 298.99 97.4553 299.205 97.334C299.429 97.222 299.695 97.1613 300.003 97.152C300.236 97.152 300.446 97.1847 300.633 97.25C300.829 97.306 300.997 97.3947 301.137 97.516C301.286 97.6467 301.412 97.8007 301.515 97.978C301.608 98.1647 301.664 98.3793 301.683 98.622H302.887C302.868 98.2673 302.789 97.936 302.649 97.628C302.509 97.3293 302.327 97.0727 302.103 96.858C301.851 96.6153 301.552 96.424 301.207 96.284C300.852 96.144 300.465 96.074 300.045 96.074C299.429 96.0833 298.911 96.2233 298.491 96.494C298.08 96.7647 297.758 97.0867 297.525 97.46C297.208 97.992 296.988 98.5847 296.867 99.238C296.755 99.8913 296.704 100.568 296.713 101.268C296.704 101.968 296.76 102.635 296.881 103.27C297.002 103.905 297.236 104.469 297.581 104.964C297.824 105.3 298.15 105.585 298.561 105.818C298.962 106.051 299.438 106.173 299.989 106.182C300.493 106.182 300.946 106.093 301.347 105.916C301.739 105.748 302.066 105.524 302.327 105.244C302.607 104.945 302.826 104.595 302.985 104.194C303.144 103.802 303.223 103.359 303.223 102.864ZM302.019 102.878C302.019 103.223 301.968 103.536 301.865 103.816C301.762 104.096 301.618 104.339 301.431 104.544C301.282 104.712 301.09 104.847 300.857 104.95C300.624 105.053 300.353 105.104 300.045 105.104C299.737 105.104 299.471 105.043 299.247 104.922C299.014 104.81 298.822 104.67 298.673 104.502C298.486 104.297 298.337 104.059 298.225 103.788C298.122 103.527 298.071 103.223 298.071 102.878C298.071 102.533 298.118 102.225 298.211 101.954C298.304 101.693 298.444 101.459 298.631 101.254C298.78 101.086 298.972 100.941 299.205 100.82C299.438 100.708 299.709 100.652 300.017 100.652C300.325 100.652 300.6 100.703 300.843 100.806C301.086 100.909 301.282 101.044 301.431 101.212C301.618 101.417 301.762 101.66 301.865 101.94C301.968 102.22 302.019 102.533 302.019 102.878ZM312.031 103.928V102.85H310.715V99.952H309.511V102.85H306.081L310.029 96.27H308.741L304.905 102.64V103.928H309.511V106H310.715V103.928H312.031Z" fill="#6F6E95"/>
<path d="M227.372 78.78L234.904 71.444C235.576 70.7907 236.033 70.1747 236.276 69.596C236.519 68.9987 236.64 68.4573 236.64 67.972C236.64 67.1133 236.388 66.46 235.884 66.012C235.38 65.5453 234.708 65.312 233.868 65.312C232.767 65.312 231.983 65.648 231.516 66.32C231.049 66.9733 230.816 67.7853 230.816 68.756H227.26C227.26 67.748 227.419 66.8427 227.736 66.04C228.053 65.2187 228.501 64.528 229.08 63.968C229.659 63.408 230.359 62.9787 231.18 62.68C232.001 62.3627 232.916 62.204 233.924 62.204C234.82 62.204 235.651 62.3347 236.416 62.596C237.181 62.8573 237.844 63.24 238.404 63.744C238.964 64.248 239.403 64.864 239.72 65.592C240.037 66.32 240.196 67.1413 240.196 68.056C240.196 69.064 239.953 70.016 239.468 70.912C238.983 71.7893 238.367 72.5827 237.62 73.292L231.824 78.836H240.532V82H227.372V78.78ZM248.458 77.772V82H244.23V77.772H248.458ZM249.56 69.792V66.18L254.88 62.596H257.848V82H254.348V66.544L249.56 69.792ZM261.552 78.78L269.084 71.444C269.756 70.7907 270.213 70.1747 270.456 69.596C270.698 68.9987 270.82 68.4573 270.82 67.972C270.82 67.1133 270.568 66.46 270.064 66.012C269.56 65.5453 268.888 65.312 268.048 65.312C266.946 65.312 266.162 65.648 265.696 66.32C265.229 66.9733 264.996 67.7853 264.996 68.756H261.44C261.44 67.748 261.598 66.8427 261.916 66.04C262.233 65.2187 262.681 64.528 263.26 63.968C263.838 63.408 264.538 62.9787 265.36 62.68C266.181 62.3627 267.096 62.204 268.104 62.204C269 62.204 269.83 62.3347 270.596 62.596C271.361 62.8573 272.024 63.24 272.584 63.744C273.144 64.248 273.582 64.864 273.9 65.592C274.217 66.32 274.376 67.1413 274.376 68.056C274.376 69.064 274.133 70.016 273.648 70.912C273.162 71.7893 272.546 72.5827 271.8 73.292L266.004 78.836H274.712V82H261.552V78.78ZM284.106 82.392C283.098 82.392 282.174 82.252 281.334 81.972C280.494 81.6733 279.766 81.2627 279.15 80.74C278.553 80.2173 278.077 79.5827 277.722 78.836C277.368 78.0893 277.172 77.2493 277.134 76.316H280.634C280.728 77.268 281.092 78.0053 281.726 78.528C282.361 79.032 283.164 79.284 284.134 79.284C284.713 79.284 285.217 79.1907 285.646 79.004C286.094 78.7987 286.458 78.528 286.738 78.192C287.037 77.856 287.261 77.464 287.41 77.016C287.56 76.5493 287.634 76.0547 287.634 75.532C287.634 75.028 287.56 74.5613 287.41 74.132C287.28 73.7027 287.065 73.3293 286.766 73.012C286.468 72.6947 286.094 72.4427 285.646 72.256C285.217 72.0693 284.713 71.976 284.134 71.976C283.537 71.976 282.958 72.116 282.398 72.396C281.838 72.676 281.4 73.0587 281.082 73.544H277.526L278.198 62.596H290.322V65.732H281.138L280.83 70.492C281.726 69.428 283.089 68.896 284.918 68.896C285.926 68.896 286.822 69.064 287.606 69.4C288.39 69.7173 289.044 70.1747 289.566 70.772C290.108 71.3507 290.518 72.0413 290.798 72.844C291.078 73.628 291.218 74.4773 291.218 75.392C291.218 76.4187 291.05 77.3613 290.714 78.22C290.397 79.0787 289.93 79.816 289.314 80.432C288.698 81.048 287.952 81.5333 287.074 81.888C286.197 82.224 285.208 82.392 284.106 82.392ZM293.091 69.792V66.18L298.411 62.596H301.379V82H297.879V66.544L293.091 69.792Z" fill="white"/>
<path d="M147 80L158.488 91.4885L169.977 80" stroke="url(#swap_preview_md_paint1_linear)" stroke-width="3.99765"/>
<path d="M70.424 92.848C70.424 93.6587 70.2853 94.3627 70.008 94.96C69.752 95.5573 69.4107 96.0693 68.984 96.496C68.3013 97.1787 67.4693 97.6693 66.488 97.968C65.5067 98.2667 64.44 98.416 63.288 98.416C62.2213 98.416 61.2293 98.2667 60.312 97.968C59.3947 97.648 58.5947 97.1573 57.912 96.496C57.4213 96.0267 57.0053 95.4613 56.664 94.8C56.3227 94.1387 56.152 93.4133 56.152 92.624H59.896C59.896 92.9867 59.9813 93.3493 60.152 93.712C60.3227 94.0747 60.536 94.3627 60.792 94.576C61.112 94.832 61.464 95.024 61.848 95.152C62.2533 95.2587 62.744 95.312 63.32 95.312C63.6613 95.312 64.024 95.2907 64.408 95.248C64.8133 95.184 65.1867 95.0773 65.528 94.928C65.8693 94.7787 66.1467 94.5653 66.36 94.288C66.5947 94.0107 66.712 93.648 66.712 93.2C66.712 92.7093 66.5627 92.3147 66.264 92.016C65.9653 91.7173 65.56 91.5253 65.048 91.44C64.3013 91.3333 63.5333 91.248 62.744 91.184C61.9547 91.0987 61.1867 90.9707 60.44 90.8C59.864 90.672 59.3413 90.4693 58.872 90.192C58.424 89.9147 58.0293 89.584 57.688 89.2C57.3467 88.7947 57.08 88.3573 56.888 87.888C56.7173 87.3973 56.632 86.8853 56.632 86.352C56.632 85.4987 56.792 84.7733 57.112 84.176C57.432 83.5573 57.8373 83.0347 58.328 82.608C58.9467 82.0747 59.6827 81.6693 60.536 81.392C61.3893 81.0933 62.3387 80.944 63.384 80.944C64.3867 80.944 65.3467 81.104 66.264 81.424C67.2027 81.744 67.9813 82.2347 68.6 82.896C69.048 83.3867 69.4 83.9307 69.656 84.528C69.9333 85.104 70.072 85.7013 70.072 86.32H66.264C66.264 86 66.2 85.712 66.072 85.456C65.944 85.2 65.784 84.9653 65.592 84.752C65.3573 84.5173 65.0373 84.336 64.632 84.208C64.248 84.0587 63.8427 83.984 63.416 83.984C63.1173 83.984 62.8293 83.9947 62.552 84.016C62.2747 84.0373 61.9867 84.112 61.688 84.24C61.3253 84.3893 61.016 84.6133 60.76 84.912C60.5253 85.2107 60.408 85.5733 60.408 86C60.408 86.5973 60.6107 87.0133 61.016 87.248C61.4427 87.4613 61.88 87.6 62.328 87.664C62.712 87.7067 63.032 87.7493 63.288 87.792C63.544 87.8133 63.8 87.8453 64.056 87.888C64.312 87.9093 64.5787 87.9413 64.856 87.984C65.1333 88.0267 65.4747 88.08 65.88 88.144C67.2027 88.3573 68.2907 88.8693 69.144 89.68C69.9973 90.4693 70.424 91.5253 70.424 92.848ZM91.7195 91.408C91.7195 92.432 91.5382 93.3813 91.1755 94.256C90.8128 95.1307 90.2262 95.8773 89.4155 96.496C88.5195 97.1787 87.5595 97.6053 86.5355 97.776C85.5115 97.9467 84.4555 98.032 83.3675 98.032H74.3435V75.312H83.3675C84.2848 75.312 85.1915 75.3973 86.0875 75.568C87.0048 75.7387 87.8475 76.0693 88.6155 76.56C89.4475 77.1147 90.0875 77.8293 90.5355 78.704C91.0048 79.5787 91.2395 80.5067 91.2395 81.488C91.2395 81.9573 91.1862 82.4267 91.0795 82.896C90.9728 83.3653 90.8022 83.824 90.5675 84.272C90.3328 84.6987 90.0342 85.0933 89.6715 85.456C89.3302 85.7973 88.9248 86.0747 88.4555 86.288C89.5435 86.7787 90.3542 87.4933 90.8875 88.432C91.4422 89.3493 91.7195 90.3413 91.7195 91.408ZM87.0475 81.744C87.0475 81.2107 86.9515 80.7627 86.7595 80.4C86.5675 80.016 86.3115 79.7173 85.9915 79.504C85.6715 79.2693 85.2982 79.1093 84.8715 79.024C84.4448 78.9173 83.9968 78.864 83.5275 78.864H78.4395V84.56H83.6235C84.0928 84.56 84.5302 84.5173 84.9355 84.432C85.3622 84.3253 85.7248 84.1653 86.0235 83.952C86.3435 83.7387 86.5888 83.4507 86.7595 83.088C86.9515 82.7253 87.0475 82.2773 87.0475 81.744ZM87.5275 91.312C87.5275 90.096 87.1542 89.2427 86.4075 88.752C85.6608 88.2613 84.7435 88.016 83.6555 88.016H78.4395V94.32H83.5275C83.9968 94.32 84.4662 94.2773 84.9355 94.192C85.4262 94.0853 85.8635 93.9147 86.2475 93.68C86.6315 93.4453 86.9408 93.136 87.1755 92.752C87.4102 92.368 87.5275 91.888 87.5275 91.312ZM103.978 79.152V98H99.8495V79.152H93.1295V75.312H110.698V79.152H103.978ZM130.075 90.768C129.968 91.664 129.744 92.5493 129.403 93.424C129.062 94.2773 128.56 95.0453 127.899 95.728C127.046 96.6027 126.054 97.2747 124.923 97.744C123.792 98.192 122.619 98.416 121.403 98.416C120.187 98.416 119.024 98.2133 117.915 97.808C116.827 97.4027 115.846 96.7627 114.971 95.888C114.352 95.2693 113.851 94.6187 113.467 93.936C113.104 93.2533 112.827 92.528 112.635 91.76C112.443 90.992 112.315 90.192 112.251 89.36C112.187 88.5067 112.155 87.6107 112.155 86.672C112.155 85.7547 112.187 84.8693 112.251 84.016C112.315 83.1627 112.443 82.352 112.635 81.584C112.827 80.816 113.104 80.0907 113.467 79.408C113.851 78.7253 114.352 78.0747 114.971 77.456C115.846 76.5813 116.827 75.9413 117.915 75.536C119.024 75.1093 120.187 74.896 121.403 74.896C122.619 74.896 123.792 75.12 124.923 75.568C126.054 75.9947 127.046 76.6453 127.899 77.52C128.56 78.2027 129.062 78.9707 129.403 79.824C129.744 80.6773 129.968 81.552 130.075 82.448H125.851C125.808 81.9573 125.702 81.5307 125.531 81.168C125.36 80.784 125.126 80.4107 124.827 80.048C124.464 79.5787 123.974 79.2267 123.355 78.992C122.758 78.7573 122.107 78.64 121.403 78.64C120.742 78.64 120.102 78.768 119.483 79.024C118.886 79.28 118.363 79.6533 117.915 80.144C117.531 80.5493 117.232 81.0187 117.019 81.552C116.806 82.0853 116.646 82.6507 116.539 83.248C116.454 83.824 116.4 84.4107 116.379 85.008C116.358 85.6053 116.347 86.16 116.347 86.672C116.347 87.184 116.358 87.7387 116.379 88.336C116.4 88.9333 116.454 89.5307 116.539 90.128C116.646 90.704 116.806 91.2587 117.019 91.792C117.232 92.3253 117.531 92.7947 117.915 93.2C118.363 93.6907 118.886 94.064 119.483 94.32C120.102 94.576 120.742 94.704 121.403 94.704C122.107 94.704 122.758 94.5867 123.355 94.352C123.974 94.096 124.464 93.7333 124.827 93.264C125.424 92.5387 125.766 91.7067 125.851 90.768H130.075Z" fill="white"/>
<circle cx="283.31" cy="170.31" r="25.3095" fill="#0D0D18" stroke="black" stroke-width="2"/>
<path d="M278.641 178.7C278.641 178.801 278.601 178.897 278.531 178.967C278.46 179.038 278.364 179.078 278.263 179.078L275.619 179.078C275.519 179.078 275.423 179.038 275.352 178.967C275.281 178.897 275.241 178.801 275.241 178.7L275.241 166.513L272.476 169.101C272.422 169.151 272.355 169.185 272.283 169.198C272.21 169.211 272.136 169.202 272.068 169.173C272.001 169.144 271.944 169.096 271.904 169.035C271.863 168.974 271.842 168.902 271.841 168.829L271.841 165.082C271.841 165.03 271.852 164.979 271.873 164.931C271.894 164.884 271.924 164.841 271.962 164.806L276.684 160.431C276.754 160.366 276.846 160.33 276.941 160.33C277.037 160.33 277.128 160.366 277.198 160.431L281.92 164.806C281.958 164.841 281.989 164.884 282.009 164.931C282.03 164.979 282.041 165.03 282.041 165.082L282.041 168.829C282.041 168.902 282.019 168.974 281.979 169.035C281.939 169.096 281.882 169.144 281.815 169.173C281.747 169.202 281.672 169.211 281.6 169.198C281.527 169.185 281.46 169.151 281.407 169.101L278.641 166.513L278.641 178.7Z" fill="white"/>
<path d="M287.763 160.186L290.407 160.186C290.507 160.186 290.603 160.226 290.674 160.296C290.745 160.367 290.785 160.463 290.785 160.564L290.785 172.751L293.55 170.163C293.604 170.112 293.671 170.079 293.743 170.066C293.816 170.053 293.89 170.062 293.958 170.091C294.025 170.12 294.082 170.168 294.122 170.229C294.163 170.29 294.184 170.362 294.185 170.435L294.185 174.164C294.185 174.215 294.174 174.267 294.153 174.314C294.132 174.361 294.102 174.404 294.064 174.439L289.342 178.833C289.272 178.898 289.18 178.934 289.085 178.934C288.989 178.934 288.898 178.898 288.828 178.833L284.106 174.458C284.065 174.421 284.034 174.375 284.013 174.324C283.992 174.273 283.982 174.218 283.985 174.164L283.985 170.416C283.985 170.343 284.007 170.272 284.047 170.21C284.087 170.149 284.144 170.101 284.211 170.072C284.279 170.043 284.354 170.034 284.426 170.047C284.499 170.06 284.566 170.094 284.619 170.144L287.385 172.751L287.385 160.564C287.385 160.463 287.425 160.367 287.495 160.296C287.566 160.226 287.662 160.186 287.763 160.186Z" fill="white"/>
<defs>
<linearGradient id="swap_preview_md_paint0_linear" x1="152.728" y1="246.256" x2="164.216" y2="257.744" gradientUnits="userSpaceOnUse">
<stop stop-color="#BE9461"/>
<stop offset="1" stop-color="#9C6C3C"/>
</linearGradient>
<linearGradient id="swap_preview_md_paint1_linear" x1="152.744" y1="74.2558" x2="164.233" y2="85.7442" gradientUnits="userSpaceOnUse">
<stop stop-color="#BE9461"/>
<stop offset="1" stop-color="#9C6C3C"/>
</linearGradient>
</defs>
</svg>
