<svg width="55" height="45" viewBox="0 0 55 45" fill="none" xmlns="http://www.w3.org/2000/svg">
<path d="M27.8396 32.9384L27.7762 32.9088L2.60625 21.1633C2.03827 20.8992 1.36251 21.1441 1.09673 21.7117C0.831489 22.2809 1.07694 22.9566 1.64581 23.2217L1.64587 23.2217L27.3598 35.2211C27.3598 35.2211 27.3598 35.2211 27.3598 35.2211C27.5122 35.2922 27.6763 35.3279 27.8403 35.3279C28.0042 35.3279 28.1677 35.2922 28.32 35.2211L28.3201 35.2211M27.8396 32.9384L28.3835 35.3571L28.3201 35.2211M27.8396 32.9384L27.9031 32.9088M27.8396 32.9384L27.9031 32.9088M28.3201 35.2211L54.034 23.2217L28.3201 35.2211ZM27.9031 32.9088L53.0738 21.1633C53.0738 21.1633 53.0738 21.1633 53.0738 21.1633C53.6452 20.8969 54.3178 21.1437 54.5831 21.7116M27.9031 32.9088L54.5831 21.7116M53.074 29.7349L53.0738 29.735L27.9031 41.4805L27.8396 41.5101L27.7762 41.4805L2.60625 29.7344C2.03817 29.4703 1.3625 29.7146 1.09676 30.2822C0.831542 30.8519 1.07677 31.5264 1.64587 31.7928L53.074 29.7349ZM53.074 29.7349C53.6452 29.4675 54.3177 29.7147 54.5831 30.2827M53.074 29.7349L54.5831 30.2827M27.3592 26.6494C27.5115 26.7204 27.6756 26.7562 27.8396 26.7562C28.004 26.7562 28.1681 26.7209 28.3201 26.65L54.0338 14.6494L27.3592 26.6494ZM27.3592 26.6494C27.3592 26.6494 27.3592 26.6494 27.3592 26.6494M27.3592 26.6494L27.3592 26.6494M27.3592 26.6494L1.6453 14.6494L27.3592 26.6494ZM0.989948 13.6204C0.989948 14.0615 1.2454 14.4624 1.64523 14.6493L0.989948 13.6204ZM0.989948 13.6204C0.989948 13.1794 1.24533 12.7784 1.64526 12.5908M0.989948 13.6204L1.64526 12.5908M1.64526 12.5908C1.64533 12.5908 1.6454 12.5908 1.64546 12.5907M1.64526 12.5908L1.64546 12.5907M1.64546 12.5907L27.3591 0.591481C27.6642 0.449454 28.0151 0.449454 28.3202 0.591481L54.0338 12.5907C54.4324 12.7776 54.688 13.1785 54.688 13.6204C54.688 14.0621 54.4326 14.4624 54.034 14.6493L1.64546 12.5907ZM54.5831 21.7116C54.8484 22.2813 54.6019 22.9565 54.034 23.2217L54.5831 21.7116ZM54.5831 30.2827C54.8483 30.8522 54.6021 31.5269 54.034 31.7935L54.5831 30.2827ZM5.10225 13.4845L4.81097 13.6204L5.10225 13.7563L27.7762 24.3376L27.8396 24.3672L27.9031 24.3376L50.577 13.7563L50.8683 13.6204L50.577 13.4845L27.9031 2.90382L27.8396 2.87422L27.7762 2.90382L5.10225 13.4845ZM27.3598 43.7923L1.64603 31.7929L54.0338 31.7936L28.3201 43.7929C28.3201 43.7929 28.3201 43.7929 28.32 43.7929C28.168 43.8638 28.004 43.899 27.8396 43.899C27.6753 43.899 27.5114 43.8638 27.3604 43.7925L27.3598 43.7923Z" fill="#5D46CE" stroke="#0D0D18" stroke-width="0.3"/>
</svg>
