<svg width="55" height="45" viewBox="0 0 55 45" fill="none" xmlns="http://www.w3.org/2000/svg">
<g id="Vector">
<mask id="path-1-inside-1" fill="white">
<path d="M27.8396 26.9062C27.6538 26.9062 27.4681 26.8657 27.2958 26.7853L1.5818 14.7853C1.12923 14.5738 0.839948 14.1199 0.839948 13.6204C0.839948 13.1209 1.12923 12.6671 1.5818 12.4549L27.2958 0.455495C27.641 0.294783 28.0383 0.294783 28.3835 0.455495L54.0975 12.4549C54.5487 12.6664 54.838 13.1203 54.838 13.6204C54.838 14.1205 54.5487 14.5738 54.0975 14.7853L28.3835 26.786C28.2112 26.8663 28.0254 26.9062 27.8396 26.9062ZM5.16568 13.6204L27.8396 24.2017L50.5136 13.6204L27.8396 3.03975L5.16568 13.6204ZM28.3835 35.3571L54.0975 23.3577C54.7403 23.0574 55.0193 22.2931 54.7191 21.6483C54.4189 21.0055 53.6571 20.7258 53.0104 21.0273L27.8396 32.7728L2.6695 21.0273C2.02665 20.7284 1.26166 21.0055 0.960804 21.6483C0.660593 22.2924 0.938304 23.0574 1.58244 23.3577L27.2964 35.3571C27.4687 35.4374 27.6545 35.4779 27.8403 35.4779C28.0261 35.4779 28.2112 35.4374 28.3835 35.3571ZM28.3835 43.9288L54.0975 31.9294C54.7403 31.6279 55.0193 30.8642 54.7191 30.2194C54.4189 29.5766 53.6571 29.2963 53.0104 29.5991L27.8396 41.3446L2.6695 29.5984C2.02665 29.2995 1.26166 29.5759 0.960804 30.2188C0.660593 30.8636 0.938304 31.6273 1.58244 31.9288L27.2964 43.9282C27.4681 44.0092 27.6538 44.049 27.8396 44.049C28.0254 44.049 28.2112 44.0092 28.3835 43.9288Z"/>
</mask>
<path d="M27.8396 26.9062C27.6538 26.9062 27.4681 26.8657 27.2958 26.7853L1.5818 14.7853C1.12923 14.5738 0.839948 14.1199 0.839948 13.6204C0.839948 13.1209 1.12923 12.6671 1.5818 12.4549L27.2958 0.455495C27.641 0.294783 28.0383 0.294783 28.3835 0.455495L54.0975 12.4549C54.5487 12.6664 54.838 13.1203 54.838 13.6204C54.838 14.1205 54.5487 14.5738 54.0975 14.7853L28.3835 26.786C28.2112 26.8663 28.0254 26.9062 27.8396 26.9062ZM5.16568 13.6204L27.8396 24.2017L50.5136 13.6204L27.8396 3.03975L5.16568 13.6204ZM28.3835 35.3571L54.0975 23.3577C54.7403 23.0574 55.0193 22.2931 54.7191 21.6483C54.4189 21.0055 53.6571 20.7258 53.0104 21.0273L27.8396 32.7728L2.6695 21.0273C2.02665 20.7284 1.26166 21.0055 0.960804 21.6483C0.660593 22.2924 0.938304 23.0574 1.58244 23.3577L27.2964 35.3571C27.4687 35.4374 27.6545 35.4779 27.8403 35.4779C28.0261 35.4779 28.2112 35.4374 28.3835 35.3571ZM28.3835 43.9288L54.0975 31.9294C54.7403 31.6279 55.0193 30.8642 54.7191 30.2194C54.4189 29.5766 53.6571 29.2963 53.0104 29.5991L27.8396 41.3446L2.6695 29.5984C2.02665 29.2995 1.26166 29.5759 0.960804 30.2188C0.660593 30.8636 0.938304 31.6273 1.58244 31.9288L27.2964 43.9282C27.4681 44.0092 27.6538 44.049 27.8396 44.049C28.0254 44.049 28.2112 44.0092 28.3835 43.9288Z" fill="url(#trading_pairs_1)" stroke="#0D0D18" stroke-width="0.6" mask="url(#path-1-inside-1)"/>
</g>
<defs>
<linearGradient id="trading_pairs_1" x1="27.8398" y1="0.334961" x2="27.8398" y2="44.049" gradientUnits="userSpaceOnUse">
<stop stop-color="#F2DE82"/>
<stop offset="1" stop-color="#D1A866"/>
</linearGradient>
</defs>
</svg>
