<svg width="25.5" height="21" viewBox="0 0 17 14" fill="none" xmlns="http://www.w3.org/2000/svg">
<path d="M5.44007 13.4283C11.4777 13.4283 14.7814 8.26058 14.7814 3.78665C14.7814 3.64127 14.7814 3.49588 14.775 3.35049C15.4153 2.87468 15.9723 2.27331 16.4141 1.59264C15.8251 1.86359 15.1912 2.04202 14.5253 2.12793C15.204 1.7116 15.7226 1.04414 15.9723 0.251126C15.3385 0.641016 14.6342 0.918576 13.8851 1.07057C13.2832 0.409726 12.4317 0 11.4905 0C9.67857 0 8.20598 1.51995 8.20598 3.39014C8.20598 3.65448 8.23799 3.91221 8.28921 4.16333C5.56172 4.02456 3.14155 2.66982 1.5217 0.621196C1.23999 1.12344 1.07993 1.70499 1.07993 2.32618C1.07993 3.50249 1.66256 4.54002 2.53971 5.148C2.0019 5.12817 1.49609 4.97617 1.05432 4.72505C1.05432 4.73827 1.05432 4.75149 1.05432 4.77131C1.05432 6.41021 2.18757 7.78477 3.68577 8.09537C3.41046 8.17467 3.12234 8.21432 2.82142 8.21432C2.61014 8.21432 2.40526 8.1945 2.20678 8.15484C2.62294 9.50295 3.83943 10.481 5.2736 10.5074C4.14675 11.4194 2.73179 11.9613 1.19518 11.9613C0.932671 11.9613 0.670164 11.9481 0.414062 11.915C1.86104 12.8666 3.58973 13.4283 5.44007 13.4283Z" fill="currentColor"/>
</svg>
