<svg width="44" height="44" viewBox="0 0 44 44" fill="none" xmlns="http://www.w3.org/2000/svg">
<mask id="path-1-outside-1-983927" maskUnits="userSpaceOnUse" x="-0.40625" y="-0.416016" width="45" height="45" fill="black">
<rect fill="white" x="-0.40625" y="-0.416016" width="45" height="45"/>
<path d="M19.5409 0.584063C19.3503 0.604798 19.178 0.745201 19.1192 0.927705L17.1979 6.70713C16.2513 7.03825 15.3644 7.58454 14.5893 8.01922L9.32537 5.14512C9.13876 5.04045 8.88498 5.07384 8.73181 5.22322L5.23291 8.72212C5.08353 8.8753 5.05014 9.12907 5.15481 9.31568L8.0289 14.5796C7.59423 15.3547 7.04794 16.2416 6.71682 17.1882L0.937391 19.1095C0.741043 19.1741 0.596337 19.3714 0.59375 19.5781V24.5765C0.596339 24.7832 0.741043 24.9805 0.937391 25.0451L6.71682 26.9664C7.04794 27.913 7.59422 28.7999 8.0289 29.5749L5.15481 34.8389C5.05014 35.0255 5.08353 35.2793 5.23291 35.4324L8.73181 38.9313C8.88498 39.0807 9.13876 39.1141 9.32537 39.0094L14.5893 36.1353C15.3644 36.57 16.2513 37.1163 17.1979 37.4474L19.1192 43.2268C19.1837 43.4232 19.3811 43.5679 19.5878 43.5705H24.5862C24.7929 43.5679 24.9902 43.4232 25.0548 43.2268L26.976 37.4474C27.9226 37.1163 28.8095 36.57 29.5846 36.1353L34.8486 39.0094C35.0352 39.1141 35.2889 39.0807 35.4421 38.9313L38.941 35.4324C39.0904 35.2793 39.1238 35.0255 39.0191 34.8389L36.145 29.5749C36.5797 28.7999 37.126 27.913 37.4571 26.9664L43.2365 25.0451C43.4329 24.9805 43.5776 24.7832 43.5802 24.5765V19.5781C43.5776 19.3714 43.4329 19.1741 43.2365 19.1095L37.4571 17.1882C37.126 16.2416 36.5797 15.3547 36.145 14.5796L39.0191 9.31568C39.1238 9.12907 39.0904 8.8753 38.941 8.72212L35.4421 5.22322C35.2889 5.07384 35.0352 5.04045 34.8486 5.14512L29.5534 8.03484C28.7521 7.61118 27.8456 7.17809 26.9448 6.87895L25.0704 0.927705C25.0042 0.726392 24.7981 0.5801 24.5862 0.584063C22.9058 0.584063 21.2178 0.584063 19.5409 0.584063ZM19.947 1.58375H24.2113L26.0388 7.39441C26.0897 7.55139 26.2233 7.6789 26.3825 7.72243C27.3435 8.00922 28.4458 8.53015 29.3503 9.0189C29.4939 9.0951 29.6753 9.0951 29.8189 9.0189L34.9891 6.20729L37.957 9.1751L35.1453 14.3453C35.0691 14.489 35.0691 14.6703 35.1453 14.8139C35.6594 15.7653 36.3262 16.8085 36.598 17.7193C36.646 17.8728 36.7726 17.9993 36.926 18.0473L42.5805 19.9373V24.2172L36.926 26.1073C36.7726 26.1552 36.646 26.2818 36.598 26.4353C36.3262 27.346 35.6594 28.3893 35.1453 29.3406C35.0691 29.4842 35.0691 29.6656 35.1453 29.8092L37.957 34.9795L34.9891 37.9473L29.8189 35.1357C29.6753 35.0595 29.4939 35.0595 29.3503 35.1357C28.3989 35.6497 27.3557 36.3166 26.445 36.5883C26.2915 36.6363 26.1649 36.7629 26.1169 36.9163L24.2269 42.5708H19.947L18.057 36.9163C18.009 36.7629 17.8824 36.6363 17.729 36.5883C16.8182 36.3166 15.775 35.6497 14.8236 35.1357C14.68 35.0595 14.4986 35.0595 14.355 35.1357L9.18479 37.9473L6.21697 34.9795L9.02859 29.8092C9.10478 29.6656 9.10478 29.4842 9.02859 29.3406C8.51453 28.3893 7.84772 27.346 7.57592 26.4353C7.52796 26.2818 7.40138 26.1552 7.2479 26.1073L1.59343 24.2172V19.9373L7.2479 18.0473C7.40138 17.9993 7.52796 17.8728 7.57592 17.7193C7.84772 16.8085 8.51453 15.7653 9.02859 14.8139C9.10478 14.6703 9.10478 14.489 9.02859 14.3453L6.21697 9.1751L9.18479 6.20729L14.355 9.0189C14.4986 9.0951 14.68 9.0951 14.8236 9.0189C15.775 8.50484 16.8182 7.83803 17.729 7.56623C17.8824 7.51827 18.009 7.39169 18.057 7.23821L19.947 1.58375ZM22.087 11.0807C16.0197 11.0807 11.0904 16.01 11.0904 22.0773C11.0904 28.1445 16.0197 33.0738 22.087 33.0738C28.1543 33.0738 33.0835 28.1445 33.0835 22.0773C33.0835 16.01 28.1543 11.0807 22.087 11.0807ZM22.087 12.0804C27.614 12.0804 32.0838 16.5502 32.0838 22.0773C32.0838 27.6043 27.614 32.0741 22.087 32.0741C16.5599 32.0741 12.0901 27.6043 12.0901 22.0773C12.0901 16.5502 16.5599 12.0804 22.087 12.0804Z"/>
</mask>
<path d="M19.5409 0.584063C19.3503 0.604798 19.178 0.745201 19.1192 0.927705L17.1979 6.70713C16.2513 7.03825 15.3644 7.58454 14.5893 8.01922L9.32537 5.14512C9.13876 5.04045 8.88498 5.07384 8.73181 5.22322L5.23291 8.72212C5.08353 8.8753 5.05014 9.12907 5.15481 9.31568L8.0289 14.5796C7.59423 15.3547 7.04794 16.2416 6.71682 17.1882L0.937391 19.1095C0.741043 19.1741 0.596337 19.3714 0.59375 19.5781V24.5765C0.596339 24.7832 0.741043 24.9805 0.937391 25.0451L6.71682 26.9664C7.04794 27.913 7.59422 28.7999 8.0289 29.5749L5.15481 34.8389C5.05014 35.0255 5.08353 35.2793 5.23291 35.4324L8.73181 38.9313C8.88498 39.0807 9.13876 39.1141 9.32537 39.0094L14.5893 36.1353C15.3644 36.57 16.2513 37.1163 17.1979 37.4474L19.1192 43.2268C19.1837 43.4232 19.3811 43.5679 19.5878 43.5705H24.5862C24.7929 43.5679 24.9902 43.4232 25.0548 43.2268L26.976 37.4474C27.9226 37.1163 28.8095 36.57 29.5846 36.1353L34.8486 39.0094C35.0352 39.1141 35.2889 39.0807 35.4421 38.9313L38.941 35.4324C39.0904 35.2793 39.1238 35.0255 39.0191 34.8389L36.145 29.5749C36.5797 28.7999 37.126 27.913 37.4571 26.9664L43.2365 25.0451C43.4329 24.9805 43.5776 24.7832 43.5802 24.5765V19.5781C43.5776 19.3714 43.4329 19.1741 43.2365 19.1095L37.4571 17.1882C37.126 16.2416 36.5797 15.3547 36.145 14.5796L39.0191 9.31568C39.1238 9.12907 39.0904 8.8753 38.941 8.72212L35.4421 5.22322C35.2889 5.07384 35.0352 5.04045 34.8486 5.14512L29.5534 8.03484C28.7521 7.61118 27.8456 7.17809 26.9448 6.87895L25.0704 0.927705C25.0042 0.726392 24.7981 0.5801 24.5862 0.584063C22.9058 0.584063 21.2178 0.584063 19.5409 0.584063ZM19.947 1.58375H24.2113L26.0388 7.39441C26.0897 7.55139 26.2233 7.6789 26.3825 7.72243C27.3435 8.00922 28.4458 8.53015 29.3503 9.0189C29.4939 9.0951 29.6753 9.0951 29.8189 9.0189L34.9891 6.20729L37.957 9.1751L35.1453 14.3453C35.0691 14.489 35.0691 14.6703 35.1453 14.8139C35.6594 15.7653 36.3262 16.8085 36.598 17.7193C36.646 17.8728 36.7726 17.9993 36.926 18.0473L42.5805 19.9373V24.2172L36.926 26.1073C36.7726 26.1552 36.646 26.2818 36.598 26.4353C36.3262 27.346 35.6594 28.3893 35.1453 29.3406C35.0691 29.4842 35.0691 29.6656 35.1453 29.8092L37.957 34.9795L34.9891 37.9473L29.8189 35.1357C29.6753 35.0595 29.4939 35.0595 29.3503 35.1357C28.3989 35.6497 27.3557 36.3166 26.445 36.5883C26.2915 36.6363 26.1649 36.7629 26.1169 36.9163L24.2269 42.5708H19.947L18.057 36.9163C18.009 36.7629 17.8824 36.6363 17.729 36.5883C16.8182 36.3166 15.775 35.6497 14.8236 35.1357C14.68 35.0595 14.4986 35.0595 14.355 35.1357L9.18479 37.9473L6.21697 34.9795L9.02859 29.8092C9.10478 29.6656 9.10478 29.4842 9.02859 29.3406C8.51453 28.3893 7.84772 27.346 7.57592 26.4353C7.52796 26.2818 7.40138 26.1552 7.2479 26.1073L1.59343 24.2172V19.9373L7.2479 18.0473C7.40138 17.9993 7.52796 17.8728 7.57592 17.7193C7.84772 16.8085 8.51453 15.7653 9.02859 14.8139C9.10478 14.6703 9.10478 14.489 9.02859 14.3453L6.21697 9.1751L9.18479 6.20729L14.355 9.0189C14.4986 9.0951 14.68 9.0951 14.8236 9.0189C15.775 8.50484 16.8182 7.83803 17.729 7.56623C17.8824 7.51827 18.009 7.39169 18.057 7.23821L19.947 1.58375ZM22.087 11.0807C16.0197 11.0807 11.0904 16.01 11.0904 22.0773C11.0904 28.1445 16.0197 33.0738 22.087 33.0738C28.1543 33.0738 33.0835 28.1445 33.0835 22.0773C33.0835 16.01 28.1543 11.0807 22.087 11.0807ZM22.087 12.0804C27.614 12.0804 32.0838 16.5502 32.0838 22.0773C32.0838 27.6043 27.614 32.0741 22.087 32.0741C16.5599 32.0741 12.0901 27.6043 12.0901 22.0773C12.0901 16.5502 16.5599 12.0804 22.087 12.0804Z" fill="#5D46CE"/>
<path d="M19.5409 0.584063C19.3503 0.604798 19.178 0.745201 19.1192 0.927705L17.1979 6.70713C16.2513 7.03825 15.3644 7.58454 14.5893 8.01922L9.32537 5.14512C9.13876 5.04045 8.88498 5.07384 8.73181 5.22322L5.23291 8.72212C5.08353 8.8753 5.05014 9.12907 5.15481 9.31568L8.0289 14.5796C7.59423 15.3547 7.04794 16.2416 6.71682 17.1882L0.937391 19.1095C0.741043 19.1741 0.596337 19.3714 0.59375 19.5781V24.5765C0.596339 24.7832 0.741043 24.9805 0.937391 25.0451L6.71682 26.9664C7.04794 27.913 7.59422 28.7999 8.0289 29.5749L5.15481 34.8389C5.05014 35.0255 5.08353 35.2793 5.23291 35.4324L8.73181 38.9313C8.88498 39.0807 9.13876 39.1141 9.32537 39.0094L14.5893 36.1353C15.3644 36.57 16.2513 37.1163 17.1979 37.4474L19.1192 43.2268C19.1837 43.4232 19.3811 43.5679 19.5878 43.5705H24.5862C24.7929 43.5679 24.9902 43.4232 25.0548 43.2268L26.976 37.4474C27.9226 37.1163 28.8095 36.57 29.5846 36.1353L34.8486 39.0094C35.0352 39.1141 35.2889 39.0807 35.4421 38.9313L38.941 35.4324C39.0904 35.2793 39.1238 35.0255 39.0191 34.8389L36.145 29.5749C36.5797 28.7999 37.126 27.913 37.4571 26.9664L43.2365 25.0451C43.4329 24.9805 43.5776 24.7832 43.5802 24.5765V19.5781C43.5776 19.3714 43.4329 19.1741 43.2365 19.1095L37.4571 17.1882C37.126 16.2416 36.5797 15.3547 36.145 14.5796L39.0191 9.31568C39.1238 9.12907 39.0904 8.8753 38.941 8.72212L35.4421 5.22322C35.2889 5.07384 35.0352 5.04045 34.8486 5.14512L29.5534 8.03484C28.7521 7.61118 27.8456 7.17809 26.9448 6.87895L25.0704 0.927705C25.0042 0.726392 24.7981 0.5801 24.5862 0.584063C22.9058 0.584063 21.2178 0.584063 19.5409 0.584063ZM19.947 1.58375H24.2113L26.0388 7.39441C26.0897 7.55139 26.2233 7.6789 26.3825 7.72243C27.3435 8.00922 28.4458 8.53015 29.3503 9.0189C29.4939 9.0951 29.6753 9.0951 29.8189 9.0189L34.9891 6.20729L37.957 9.1751L35.1453 14.3453C35.0691 14.489 35.0691 14.6703 35.1453 14.8139C35.6594 15.7653 36.3262 16.8085 36.598 17.7193C36.646 17.8728 36.7726 17.9993 36.926 18.0473L42.5805 19.9373V24.2172L36.926 26.1073C36.7726 26.1552 36.646 26.2818 36.598 26.4353C36.3262 27.346 35.6594 28.3893 35.1453 29.3406C35.0691 29.4842 35.0691 29.6656 35.1453 29.8092L37.957 34.9795L34.9891 37.9473L29.8189 35.1357C29.6753 35.0595 29.4939 35.0595 29.3503 35.1357C28.3989 35.6497 27.3557 36.3166 26.445 36.5883C26.2915 36.6363 26.1649 36.7629 26.1169 36.9163L24.2269 42.5708H19.947L18.057 36.9163C18.009 36.7629 17.8824 36.6363 17.729 36.5883C16.8182 36.3166 15.775 35.6497 14.8236 35.1357C14.68 35.0595 14.4986 35.0595 14.355 35.1357L9.18479 37.9473L6.21697 34.9795L9.02859 29.8092C9.10478 29.6656 9.10478 29.4842 9.02859 29.3406C8.51453 28.3893 7.84772 27.346 7.57592 26.4353C7.52796 26.2818 7.40138 26.1552 7.2479 26.1073L1.59343 24.2172V19.9373L7.2479 18.0473C7.40138 17.9993 7.52796 17.8728 7.57592 17.7193C7.84772 16.8085 8.51453 15.7653 9.02859 14.8139C9.10478 14.6703 9.10478 14.489 9.02859 14.3453L6.21697 9.1751L9.18479 6.20729L14.355 9.0189C14.4986 9.0951 14.68 9.0951 14.8236 9.0189C15.775 8.50484 16.8182 7.83803 17.729 7.56623C17.8824 7.51827 18.009 7.39169 18.057 7.23821L19.947 1.58375ZM22.087 11.0807C16.0197 11.0807 11.0904 16.01 11.0904 22.0773C11.0904 28.1445 16.0197 33.0738 22.087 33.0738C28.1543 33.0738 33.0835 28.1445 33.0835 22.0773C33.0835 16.01 28.1543 11.0807 22.087 11.0807ZM22.087 12.0804C27.614 12.0804 32.0838 16.5502 32.0838 22.0773C32.0838 27.6043 27.614 32.0741 22.087 32.0741C16.5599 32.0741 12.0901 27.6043 12.0901 22.0773C12.0901 16.5502 16.5599 12.0804 22.087 12.0804Z" stroke="#5D46CE" stroke-width="0.7" mask="url(#path-1-outside-1-983927)"/>
<path d="M11.3398 22.0771C11.3398 16.1478 16.1571 11.3305 22.0864 11.3305C28.0156 11.3305 32.833 16.1478 32.833 22.0771C32.833 28.0063 28.0156 32.8237 22.0864 32.8237C16.1571 32.8237 11.3398 28.0063 11.3398 22.0771Z" stroke="#340564" stroke-width="0.499842"/>
</svg>