<svg width="60" height="60" viewBox="0 0 60 60" fill="none" xmlns="http://www.w3.org/2000/svg">
<g clip-path="url(#clip0_264_12682)">
<mask id="mask0_264_12682" style="mask-type:alpha" maskUnits="userSpaceOnUse" x="2" y="2" width="48" height="48">
<path d="M40 2H12C6.47715 2 2 6.47715 2 12V40C2 45.5228 6.47715 50 12 50H40C45.5228 50 50 45.5228 50 40V12C50 6.47715 45.5228 2 40 2Z" fill="url(#paint0_linear_264_12682)"/>
</mask>
<g mask="url(#mask0_264_12682)">
<g filter="url(#filter0_b_264_12682)">
<path d="M40 2H12C6.47715 2 2 6.47715 2 12V40C2 45.5228 6.47715 50 12 50H40C45.5228 50 50 45.5228 50 40V12C50 6.47715 45.5228 2 40 2Z" fill="url(#paint1_linear_264_12682)"/>
</g>
<path d="M12 2.25H40C45.3848 2.25 49.75 6.61522 49.75 12V40C49.75 45.3848 45.3848 49.75 40 49.75H12C6.61522 49.75 2.25 45.3848 2.25 40V12C2.25 6.61522 6.61522 2.25 12 2.25Z" stroke="url(#paint2_linear_264_12682)" stroke-width="0.5"/>
<g filter="url(#filter1_f_264_12682)">
<ellipse cx="26.4378" cy="48.3695" rx="9.62918" ry="8.96864" fill="#EDA54D"/>
</g>
<g filter="url(#filter2_f_264_12682)">
<ellipse cx="37.6292" cy="1.96864" rx="9.62918" ry="8.96864" fill="#95F0FB"/>
</g>
</g>
<circle cx="19" cy="19" r="4" stroke="#C9975A" stroke-width="2"/>
<circle cx="33" cy="33" r="4" stroke="#C9975A" stroke-width="2"/>
<g filter="url(#filter3_d_264_12682)">
<path d="M18 34L34 18" stroke="#191818" stroke-width="2" stroke-linecap="round" stroke-linejoin="round"/>
</g>
<g filter="url(#filter4_d_264_12682)">
<path d="M52.4789 48.025V38H43.5211V48.025H38L48 58L58 48.025H52.4789Z" fill="url(#paint3_linear_264_12682)"/>
</g>
</g>
<defs>
<filter id="filter0_b_264_12682" x="-4" y="-4" width="60" height="60" filterUnits="userSpaceOnUse" color-interpolation-filters="sRGB">
<feFlood flood-opacity="0" result="BackgroundImageFix"/>
<feGaussianBlur in="BackgroundImage" stdDeviation="3"/>
<feComposite in2="SourceAlpha" operator="in" result="effect1_backgroundBlur_264_12682"/>
<feBlend mode="normal" in="SourceGraphic" in2="effect1_backgroundBlur_264_12682" result="shape"/>
</filter>
<filter id="filter1_f_264_12682" x="-9.19141" y="13.4009" width="71.2583" height="69.9375" filterUnits="userSpaceOnUse" color-interpolation-filters="sRGB">
<feFlood flood-opacity="0" result="BackgroundImageFix"/>
<feBlend mode="normal" in="SourceGraphic" in2="BackgroundImageFix" result="shape"/>
<feGaussianBlur stdDeviation="13" result="effect1_foregroundBlur_264_12682"/>
</filter>
<filter id="filter2_f_264_12682" x="2" y="-33" width="71.2583" height="69.9375" filterUnits="userSpaceOnUse" color-interpolation-filters="sRGB">
<feFlood flood-opacity="0" result="BackgroundImageFix"/>
<feBlend mode="normal" in="SourceGraphic" in2="BackgroundImageFix" result="shape"/>
<feGaussianBlur stdDeviation="13" result="effect1_foregroundBlur_264_12682"/>
</filter>
<filter id="filter3_d_264_12682" x="16" y="16.5" width="20" height="20" filterUnits="userSpaceOnUse" color-interpolation-filters="sRGB">
<feFlood flood-opacity="0" result="BackgroundImageFix"/>
<feColorMatrix in="SourceAlpha" type="matrix" values="0 0 0 0 0 0 0 0 0 0 0 0 0 0 0 0 0 0 127 0" result="hardAlpha"/>
<feOffset dy="0.5"/>
<feGaussianBlur stdDeviation="0.5"/>
<feComposite in2="hardAlpha" operator="out"/>
<feColorMatrix type="matrix" values="0 0 0 0 1 0 0 0 0 1 0 0 0 0 1 0 0 0 0.25 0"/>
<feBlend mode="normal" in2="BackgroundImageFix" result="effect1_dropShadow_264_12682"/>
<feBlend mode="normal" in="SourceGraphic" in2="effect1_dropShadow_264_12682" result="shape"/>
</filter>
<filter id="filter4_d_264_12682" x="28" y="30" width="44" height="44" filterUnits="userSpaceOnUse" color-interpolation-filters="sRGB">
<feFlood flood-opacity="0" result="BackgroundImageFix"/>
<feColorMatrix in="SourceAlpha" type="matrix" values="0 0 0 0 0 0 0 0 0 0 0 0 0 0 0 0 0 0 127 0" result="hardAlpha"/>
<feOffset dx="2" dy="4"/>
<feGaussianBlur stdDeviation="6"/>
<feComposite in2="hardAlpha" operator="out"/>
<feColorMatrix type="matrix" values="0 0 0 0 0.0901961 0 0 0 0 0.0862745 0 0 0 0 0.0862745 0 0 0 1 0"/>
<feBlend mode="normal" in2="BackgroundImageFix" result="effect1_dropShadow_264_12682"/>
<feBlend mode="normal" in="SourceGraphic" in2="effect1_dropShadow_264_12682" result="shape"/>
</filter>
<linearGradient id="paint0_linear_264_12682" x1="26" y1="2" x2="26" y2="50" gradientUnits="userSpaceOnUse">
<stop stop-color="#272625" stop-opacity="0.79"/>
<stop offset="1" stop-color="#272625"/>
</linearGradient>
<linearGradient id="paint1_linear_264_12682" x1="26" y1="2" x2="26" y2="50" gradientUnits="userSpaceOnUse">
<stop stop-color="#1C1B1A" stop-opacity="0.79"/>
<stop offset="1" stop-color="#1C1B1A"/>
</linearGradient>
<linearGradient id="paint2_linear_264_12682" x1="26" y1="2" x2="26" y2="24.1053" gradientUnits="userSpaceOnUse">
<stop stop-color="#606060"/>
<stop offset="1" stop-color="#292725" stop-opacity="0"/>
</linearGradient>
<linearGradient id="paint3_linear_264_12682" x1="48" y1="38" x2="48" y2="59.1765" gradientUnits="userSpaceOnUse">
<stop stop-color="#BE9361"/>
<stop offset="1" stop-color="#A07041"/>
</linearGradient>
<clipPath id="clip0_264_12682">
<rect width="60" height="60" fill="white"/>
</clipPath>
</defs>
</svg>
