<svg width="49" height="57" viewBox="0 0 49 57" fill="none" xmlns="http://www.w3.org/2000/svg">
<path d="M5.5 17.584C5.5 17.4036 5.5972 17.2372 5.75434 17.1485L24.2543 6.71264C24.4068 6.62663 24.5932 6.62663 24.7457 6.71264L43.2457 17.1485C43.4028 17.2372 43.5 17.4036 43.5 17.584V39.416C43.5 39.5964 43.4028 39.7628 43.2457 39.8515L24.7457 50.2874C24.5932 50.3734 24.4068 50.3734 24.2543 50.2874L5.75434 39.8515C5.5972 39.7628 5.5 39.5964 5.5 39.416V17.584Z" fill="#6B2D0A" stroke="#FF6B18"/>
<path d="M21.664 32.752H24.688V24.464L21.68 26.512V25.056L24.752 22.912H26.08V32.752H29.072V34H21.664V32.752Z" fill="white"/>
<path d="M0.5 15.0967C0.5 14.5573 0.7896 14.0595 1.25847 13.7928L23.7585 0.996917C24.2182 0.735437 24.7818 0.735437 25.2415 0.996917L47.7415 13.7928C48.2104 14.0595 48.5 14.5573 48.5 15.0967V41.9033C48.5 42.4427 48.2104 42.9405 47.7415 43.2072L25.2415 56.0031C24.7818 56.2646 24.2182 56.2646 23.7585 56.0031L1.25847 43.2072C0.7896 42.9405 0.5 42.4427 0.5 41.9033V15.0967Z" stroke="#6B2D0A"/>
</svg>
