<svg width="49" height="57" viewBox="0 0 49 57" fill="none" xmlns="http://www.w3.org/2000/svg">
<path d="M5.5 17.584C5.5 17.4036 5.5972 17.2372 5.75434 17.1485L24.2543 6.71264C24.4068 6.62663 24.5932 6.62663 24.7457 6.71264L43.2457 17.1485C43.4028 17.2372 43.5 17.4036 43.5 17.584V39.416C43.5 39.5964 43.4028 39.7628 43.2457 39.8515L24.7457 50.2874C24.5932 50.3734 24.4068 50.3734 24.2543 50.2874L5.75434 39.8515C5.5972 39.7628 5.5 39.5964 5.5 39.416V17.584Z" fill="#6B4D00" stroke="#FFB800"/>
<path d="M28.64 30.976C28.64 31.472 28.544 31.92 28.368 32.32C28.176 32.72 27.92 33.072 27.584 33.344C27.248 33.632 26.864 33.856 26.416 34C25.968 34.144 25.488 34.224 24.96 34.224C24.448 34.224 23.968 34.144 23.536 33.984C23.088 33.824 22.704 33.6 22.368 33.296C22.032 33.008 21.76 32.656 21.568 32.224C21.36 31.808 21.248 31.344 21.232 30.816H22.624C22.672 31.44 22.896 31.968 23.296 32.368C23.696 32.784 24.256 32.992 24.96 32.992C25.296 32.992 25.6 32.944 25.888 32.848C26.16 32.768 26.4 32.624 26.608 32.448C26.816 32.272 26.976 32.064 27.088 31.808C27.2 31.552 27.264 31.264 27.264 30.944C27.264 30.608 27.2 30.304 27.072 30.048C26.944 29.792 26.768 29.568 26.544 29.392C26.32 29.216 26.064 29.088 25.76 29.008C25.456 28.928 25.12 28.88 24.768 28.88H23.904V27.616H24.768C25.44 27.616 25.984 27.456 26.4 27.12C26.8 26.8 27.008 26.352 27.008 25.76C27.008 25.232 26.832 24.8 26.464 24.448C26.096 24.096 25.6 23.92 24.976 23.92C24.288 23.92 23.76 24.112 23.36 24.48C22.96 24.848 22.736 25.344 22.704 25.936H21.312C21.328 25.44 21.44 24.992 21.632 24.592C21.808 24.192 22.064 23.856 22.384 23.568C22.704 23.296 23.088 23.072 23.536 22.912C23.984 22.768 24.48 22.688 25.008 22.688C25.472 22.688 25.904 22.752 26.32 22.88C26.72 23.024 27.088 23.216 27.392 23.472C27.696 23.728 27.952 24.048 28.128 24.432C28.304 24.816 28.4 25.264 28.4 25.76C28.4 26.016 28.368 26.272 28.288 26.528C28.208 26.8 28.08 27.04 27.936 27.264C27.776 27.488 27.584 27.68 27.376 27.856C27.152 28.032 26.896 28.16 26.624 28.256C26.96 28.352 27.248 28.496 27.504 28.672C27.76 28.864 27.968 29.088 28.144 29.328C28.304 29.568 28.432 29.84 28.512 30.112C28.592 30.4 28.64 30.688 28.64 30.976Z" fill="white"/>
<path d="M0.5 15.0967C0.5 14.5573 0.7896 14.0595 1.25847 13.7928L23.7585 0.996917C24.2182 0.735437 24.7818 0.735437 25.2415 0.996917L47.7415 13.7928C48.2104 14.0595 48.5 14.5573 48.5 15.0967V41.9033C48.5 42.4427 48.2104 42.9405 47.7415 43.2072L25.2415 56.0031C24.7818 56.2646 24.2182 56.2646 23.7585 56.0031L1.25847 43.2072C0.7896 42.9405 0.5 42.4427 0.5 41.9033V15.0967Z" stroke="#6B4D00"/>
</svg>
