<svg xmlns="http://www.w3.org/2000/svg" width="60" height="60" viewBox="0 0 60 60" fill="none">
  <g clip-path="url(#clip0_3715_8478)">
    <g filter="url(#filter0_b_3715_8478)">
      <rect x="0.133301" y="0.133331" width="59.7333" height="59.7333" rx="29.8667" fill="url(#paint0_linear_3715_8478)"/>
    </g>
    <mask id="mask0_3715_8478" style="mask-type:alpha" maskUnits="userSpaceOnUse" x="0" y="0" width="60" height="60">
      <rect x="0.133301" y="0.133331" width="59.7333" height="59.7333" rx="29.8667" fill="url(#paint1_linear_3715_8478)"/>
    </mask>
    <g mask="url(#mask0_3715_8478)">
      <g filter="url(#filter1_di_3715_8478)">
        <path d="M20.1005 15.9995C21.6755 15.9995 23.138 16.8745 23.9817 18.187C24.7692 19.5542 24.7692 21.2495 23.9817 22.562C23.138 23.9292 21.6755 24.7495 20.1005 24.7495C18.4692 24.7495 17.0067 23.9292 16.163 22.562C15.3755 21.2495 15.3755 19.5542 16.163 18.187C17.0067 16.8745 18.4692 15.9995 20.1005 15.9995ZM40.8005 15.9995C42.3755 15.9995 43.838 16.8745 44.6817 18.187C45.4692 19.5542 45.4692 21.2495 44.6817 22.562C43.838 23.9292 42.3755 24.7495 40.8005 24.7495C39.1692 24.7495 37.7067 23.9292 36.863 22.562C36.0755 21.2495 36.0755 19.5542 36.863 18.187C37.7067 16.8745 39.1692 15.9995 40.8005 15.9995ZM12.0005 32.3511C12.0005 29.1245 14.6442 26.4995 17.963 26.4995H20.3817C21.2817 26.4995 22.1255 26.7183 22.913 27.0464C22.8005 27.4292 22.8005 27.8667 22.8005 28.2495C22.8005 30.3824 23.7005 32.2417 25.2192 33.4995C25.2192 33.4995 25.2192 33.4995 25.163 33.4995H13.1817C12.5067 33.4995 12.0005 33.0074 12.0005 32.3511ZM34.7817 33.4995H34.7255C36.2442 32.2417 37.1442 30.3824 37.1442 28.2495C37.1442 27.8667 37.1442 27.4292 37.088 27.0464C37.8192 26.7183 38.663 26.4995 39.563 26.4995H41.9817C45.3005 26.4995 48.0005 29.1245 48.0005 32.3511C48.0005 33.0074 47.438 33.4995 46.763 33.4995H34.7817ZM24.6005 28.2495C24.6005 26.3902 25.613 24.6949 27.3005 23.7105C28.9317 22.7808 31.013 22.7808 32.7005 23.7105C34.3317 24.6949 35.4005 26.3902 35.4005 28.2495C35.4005 30.1636 34.3317 31.8589 32.7005 32.8433C31.013 33.773 28.9317 33.773 27.3005 32.8433C25.613 31.8589 24.6005 30.1636 24.6005 28.2495ZM19.2005 42.5777C19.2005 38.5308 22.5192 35.2495 26.6817 35.2495H33.263C37.4255 35.2495 40.8005 38.5308 40.8005 42.5777C40.8005 43.3433 40.1255 43.9995 39.2817 43.9995H20.663C19.8755 43.9995 19.2005 43.398 19.2005 42.5777Z" fill="url(#paint2_linear_3715_8478)"/>
        <path d="M20.1005 15.9995C21.6755 15.9995 23.138 16.8745 23.9817 18.187C24.7692 19.5542 24.7692 21.2495 23.9817 22.562C23.138 23.9292 21.6755 24.7495 20.1005 24.7495C18.4692 24.7495 17.0067 23.9292 16.163 22.562C15.3755 21.2495 15.3755 19.5542 16.163 18.187C17.0067 16.8745 18.4692 15.9995 20.1005 15.9995ZM40.8005 15.9995C42.3755 15.9995 43.838 16.8745 44.6817 18.187C45.4692 19.5542 45.4692 21.2495 44.6817 22.562C43.838 23.9292 42.3755 24.7495 40.8005 24.7495C39.1692 24.7495 37.7067 23.9292 36.863 22.562C36.0755 21.2495 36.0755 19.5542 36.863 18.187C37.7067 16.8745 39.1692 15.9995 40.8005 15.9995ZM12.0005 32.3511C12.0005 29.1245 14.6442 26.4995 17.963 26.4995H20.3817C21.2817 26.4995 22.1255 26.7183 22.913 27.0464C22.8005 27.4292 22.8005 27.8667 22.8005 28.2495C22.8005 30.3824 23.7005 32.2417 25.2192 33.4995C25.2192 33.4995 25.2192 33.4995 25.163 33.4995H13.1817C12.5067 33.4995 12.0005 33.0074 12.0005 32.3511ZM34.7817 33.4995H34.7255C36.2442 32.2417 37.1442 30.3824 37.1442 28.2495C37.1442 27.8667 37.1442 27.4292 37.088 27.0464C37.8192 26.7183 38.663 26.4995 39.563 26.4995H41.9817C45.3005 26.4995 48.0005 29.1245 48.0005 32.3511C48.0005 33.0074 47.438 33.4995 46.763 33.4995H34.7817ZM24.6005 28.2495C24.6005 26.3902 25.613 24.6949 27.3005 23.7105C28.9317 22.7808 31.013 22.7808 32.7005 23.7105C34.3317 24.6949 35.4005 26.3902 35.4005 28.2495C35.4005 30.1636 34.3317 31.8589 32.7005 32.8433C31.013 33.773 28.9317 33.773 27.3005 32.8433C25.613 31.8589 24.6005 30.1636 24.6005 28.2495ZM19.2005 42.5777C19.2005 38.5308 22.5192 35.2495 26.6817 35.2495H33.263C37.4255 35.2495 40.8005 38.5308 40.8005 42.5777C40.8005 43.3433 40.1255 43.9995 39.2817 43.9995H20.663C19.8755 43.9995 19.2005 43.398 19.2005 42.5777Z" stroke="black" stroke-width="1.4"/>
      </g>
      <g filter="url(#filter2_f_3715_8478)">
        <ellipse cx="42.2777" cy="39.7037" rx="11.983" ry="11.161" fill="#EDA54D"/>
      </g>
      <g filter="url(#filter3_f_3715_8478)">
        <ellipse cx="11.7138" cy="9.24921" rx="14.9992" ry="6.67838" fill="url(#paint3_linear_3715_8478)"/>
      </g>
    </g>
    <rect x="0.633301" y="0.633331" width="58.7333" height="58.7333" rx="29.3667" stroke="url(#paint4_linear_3715_8478)"/>
  </g>
  <defs>
    <filter id="filter0_b_3715_8478" x="-5.8667" y="-5.86667" width="71.7334" height="71.7333" filterUnits="userSpaceOnUse" color-interpolation-filters="sRGB">
      <feFlood flood-opacity="0" result="BackgroundImageFix"/>
      <feGaussianBlur in="BackgroundImageFix" stdDeviation="3"/>
      <feComposite in2="SourceAlpha" operator="in" result="effect1_backgroundBlur_3715_8478"/>
      <feBlend mode="normal" in="SourceGraphic" in2="effect1_backgroundBlur_3715_8478" result="shape"/>
    </filter>
    <filter id="filter1_di_3715_8478" x="10.3005" y="14.7995" width="39.3999" height="31.4" filterUnits="userSpaceOnUse" color-interpolation-filters="sRGB">
      <feFlood flood-opacity="0" result="BackgroundImageFix"/>
      <feColorMatrix in="SourceAlpha" type="matrix" values="0 0 0 0 0 0 0 0 0 0 0 0 0 0 0 0 0 0 127 0" result="hardAlpha"/>
      <feOffset dy="0.5"/>
      <feGaussianBlur stdDeviation="0.5"/>
      <feComposite in2="hardAlpha" operator="out"/>
      <feColorMatrix type="matrix" values="0 0 0 0 1 0 0 0 0 1 0 0 0 0 1 0 0 0 0.25 0"/>
      <feBlend mode="normal" in2="BackgroundImageFix" result="effect1_dropShadow_3715_8478"/>
      <feBlend mode="normal" in="SourceGraphic" in2="effect1_dropShadow_3715_8478" result="shape"/>
      <feColorMatrix in="SourceAlpha" type="matrix" values="0 0 0 0 0 0 0 0 0 0 0 0 0 0 0 0 0 0 127 0" result="hardAlpha"/>
      <feOffset dy="0.2"/>
      <feGaussianBlur stdDeviation="0.25"/>
      <feComposite in2="hardAlpha" operator="arithmetic" k2="-1" k3="1"/>
      <feColorMatrix type="matrix" values="0 0 0 0 1 0 0 0 0 1 0 0 0 0 1 0 0 0 0.78 0"/>
      <feBlend mode="normal" in2="shape" result="effect2_innerShadow_3715_8478"/>
    </filter>
    <filter id="filter2_f_3715_8478" x="4.29468" y="2.54269" width="75.9661" height="74.322" filterUnits="userSpaceOnUse" color-interpolation-filters="sRGB">
      <feFlood flood-opacity="0" result="BackgroundImageFix"/>
      <feBlend mode="normal" in="SourceGraphic" in2="BackgroundImageFix" result="shape"/>
      <feGaussianBlur stdDeviation="13" result="effect1_foregroundBlur_3715_8478"/>
    </filter>
    <filter id="filter3_f_3715_8478" x="-19.4411" y="-13.5849" width="62.3097" height="45.6682" filterUnits="userSpaceOnUse" color-interpolation-filters="sRGB">
      <feFlood flood-opacity="0" result="BackgroundImageFix"/>
      <feBlend mode="normal" in="SourceGraphic" in2="BackgroundImageFix" result="shape"/>
      <feGaussianBlur stdDeviation="8.07786" result="effect1_foregroundBlur_3715_8478"/>
    </filter>
    <linearGradient id="paint0_linear_3715_8478" x1="30" y1="0.133331" x2="30" y2="59.8667" gradientUnits="userSpaceOnUse">
      <stop stop-color="#1C1B1A" stop-opacity="0.79"/>
      <stop offset="1" stop-color="#1C1B1A"/>
    </linearGradient>
    <linearGradient id="paint1_linear_3715_8478" x1="30" y1="0.133331" x2="30" y2="59.8667" gradientUnits="userSpaceOnUse">
      <stop stop-color="#1C1B1A" stop-opacity="0.79"/>
      <stop offset="1" stop-color="#1C1B1A"/>
    </linearGradient>
    <linearGradient id="paint2_linear_3715_8478" x1="30.0005" y1="15.9995" x2="30.0005" y2="43.9995" gradientUnits="userSpaceOnUse">
      <stop stop-color="#FFB800"/>
      <stop offset="1" stop-color="#996939"/>
    </linearGradient>
    <linearGradient id="paint3_linear_3715_8478" x1="22.6607" y1="0.37826" x2="5.34247" y2="2.57083" gradientUnits="userSpaceOnUse">
      <stop stop-color="#EDA54D"/>
      <stop offset="1" stop-color="#96EFF9"/>
    </linearGradient>
    <linearGradient id="paint4_linear_3715_8478" x1="30" y1="0.133331" x2="30.0005" y2="59.9995" gradientUnits="userSpaceOnUse">
      <stop stop-color="#969292" stop-opacity="0.71"/>
      <stop offset="1" stop-color="#292725" stop-opacity="0.79"/>
    </linearGradient>
    <clipPath id="clip0_3715_8478">
      <rect width="60" height="60" fill="white"/>
    </clipPath>
  </defs>
</svg>