<svg width="49" height="57" viewBox="0 0 49 57" fill="none" xmlns="http://www.w3.org/2000/svg">
<path d="M5.5 17.584C5.5 17.4036 5.5972 17.2372 5.75434 17.1485L24.2543 6.71264C24.4068 6.62663 24.5932 6.62663 24.7457 6.71264L43.2457 17.1485C43.4028 17.2372 43.5 17.4036 43.5 17.584V39.416C43.5 39.5964 43.4028 39.7628 43.2457 39.8515L24.7457 50.2874C24.5932 50.3734 24.4068 50.3734 24.2543 50.2874L5.75434 39.8515C5.5972 39.7628 5.5 39.5964 5.5 39.416V17.584Z" fill="#484542" stroke="#A9A8A6"/>
<path d="M21.536 32.832L25.952 27.968C26.64 27.2 26.992 26.48 26.992 25.824C26.992 25.248 26.816 24.784 26.464 24.432C26.096 24.096 25.616 23.92 24.992 23.92C24.704 23.92 24.432 23.968 24.192 24.048C23.936 24.128 23.712 24.272 23.536 24.448C23.344 24.64 23.2 24.88 23.088 25.152C22.976 25.44 22.928 25.776 22.928 26.16V26.24H21.52V26.16C21.52 25.664 21.6 25.216 21.76 24.784C21.904 24.352 22.128 23.984 22.432 23.68C22.72 23.376 23.088 23.12 23.52 22.944C23.952 22.768 24.432 22.688 24.992 22.688C25.488 22.688 25.952 22.768 26.368 22.912C26.784 23.056 27.136 23.28 27.44 23.552C27.744 23.824 27.968 24.16 28.144 24.544C28.304 24.928 28.384 25.36 28.384 25.84C28.384 26.4 28.256 26.912 28 27.376C27.744 27.84 27.424 28.288 27.024 28.72L23.392 32.72H28.608V34H21.536V32.832Z" fill="white"/>
<path d="M0.5 15.0967C0.5 14.5573 0.7896 14.0595 1.25847 13.7928L23.7585 0.996917C24.2182 0.735437 24.7818 0.735437 25.2415 0.996917L47.7415 13.7928C48.2104 14.0595 48.5 14.5573 48.5 15.0967V41.9033C48.5 42.4427 48.2104 42.9405 47.7415 43.2072L25.2415 56.0031C24.7818 56.2646 24.2182 56.2646 23.7585 56.0031L1.25847 43.2072C0.7896 42.9405 0.5 42.4427 0.5 41.9033V15.0967Z" stroke="#484542"/>
</svg>
