<svg xmlns="http://www.w3.org/2000/svg" width="64" height="64" viewBox="0 0 64 64" fill="none">
  <g filter="url(#filter0_b_3715_10140)">
    <rect x="2.1333" y="2.13333" width="59.7333" height="59.7333" rx="29.8667" fill="url(#paint0_linear_3715_10140)"/>
  </g>
  <mask id="mask0_3715_10140" style="mask-type:alpha" maskUnits="userSpaceOnUse" x="2" y="2" width="60" height="60">
    <rect x="2" y="2.00003" width="59.7333" height="59.7333" rx="29.8667" fill="url(#paint1_linear_3715_10140)"/>
  </mask>
  <g mask="url(#mask0_3715_10140)">
    <g filter="url(#filter1_di_3715_10140)">
      <path d="M43.4783 23.5172C44.1739 24.1537 44.1739 25.2676 43.4783 25.9041L29.7793 39.4829C29.1371 40.1724 28.0134 40.1724 27.3712 39.4829L20.5217 32.6935C19.8261 32.057 19.8261 30.9431 20.5217 30.3066C21.1639 29.617 22.2876 29.617 22.9298 30.3066L28.602 35.876L41.0702 23.5172C41.7124 22.8276 42.8361 22.8276 43.4783 23.5172Z" fill="#7FD482"/>
      <path d="M30.2811 39.971L43.962 26.4102C44.9429 25.5009 44.946 23.9332 43.9713 23.0198C43.053 22.057 41.4825 22.0601 40.5684 23.029L28.5997 34.8927L23.4304 29.8171C22.516 28.8495 20.9466 28.8469 20.0287 29.8092C19.054 30.7226 19.0571 32.2903 20.038 33.1996L26.8694 39.971C27.7865 40.943 29.3641 40.943 30.2811 39.971Z" stroke="black" stroke-width="1.4"/>
    </g>
    <g filter="url(#filter2_f_3715_10140)">
      <ellipse cx="44.2779" cy="41.7037" rx="11.983" ry="11.161" fill="#EDA54D"/>
    </g>
    <g filter="url(#filter3_f_3715_10140)">
      <ellipse cx="13.7135" cy="11.2492" rx="14.9992" ry="6.67838" fill="url(#paint2_linear_3715_10140)"/>
    </g>
  </g>
  <rect x="2.6333" y="2.63333" width="58.7333" height="58.7333" rx="29.3667" stroke="url(#paint3_linear_3715_10140)"/>
  <defs>
    <filter id="filter0_b_3715_10140" x="-3.8667" y="-3.86667" width="71.7334" height="71.7333" filterUnits="userSpaceOnUse" color-interpolation-filters="sRGB">
      <feFlood flood-opacity="0" result="BackgroundImageFix"/>
      <feGaussianBlur in="BackgroundImageFix" stdDeviation="3"/>
      <feComposite in2="SourceAlpha" operator="in" result="effect1_backgroundBlur_3715_10140"/>
      <feBlend mode="normal" in="SourceGraphic" in2="effect1_backgroundBlur_3715_10140" result="shape"/>
    </filter>
    <filter id="filter1_di_3715_10140" x="17.6001" y="21.1" width="28.7998" height="21.8" filterUnits="userSpaceOnUse" color-interpolation-filters="sRGB">
      <feFlood flood-opacity="0" result="BackgroundImageFix"/>
      <feColorMatrix in="SourceAlpha" type="matrix" values="0 0 0 0 0 0 0 0 0 0 0 0 0 0 0 0 0 0 127 0" result="hardAlpha"/>
      <feOffset dy="0.5"/>
      <feGaussianBlur stdDeviation="0.5"/>
      <feComposite in2="hardAlpha" operator="out"/>
      <feColorMatrix type="matrix" values="0 0 0 0 1 0 0 0 0 1 0 0 0 0 1 0 0 0 0.25 0"/>
      <feBlend mode="normal" in2="BackgroundImageFix" result="effect1_dropShadow_3715_10140"/>
      <feBlend mode="normal" in="SourceGraphic" in2="effect1_dropShadow_3715_10140" result="shape"/>
      <feColorMatrix in="SourceAlpha" type="matrix" values="0 0 0 0 0 0 0 0 0 0 0 0 0 0 0 0 0 0 127 0" result="hardAlpha"/>
      <feOffset dy="0.2"/>
      <feGaussianBlur stdDeviation="0.25"/>
      <feComposite in2="hardAlpha" operator="arithmetic" k2="-1" k3="1"/>
      <feColorMatrix type="matrix" values="0 0 0 0 1 0 0 0 0 1 0 0 0 0 1 0 0 0 0.78 0"/>
      <feBlend mode="normal" in2="shape" result="effect2_innerShadow_3715_10140"/>
    </filter>
    <filter id="filter2_f_3715_10140" x="6.29492" y="4.54269" width="75.9658" height="74.322" filterUnits="userSpaceOnUse" color-interpolation-filters="sRGB">
      <feFlood flood-opacity="0" result="BackgroundImageFix"/>
      <feBlend mode="normal" in="SourceGraphic" in2="BackgroundImageFix" result="shape"/>
      <feGaussianBlur stdDeviation="13" result="effect1_foregroundBlur_3715_10140"/>
    </filter>
    <filter id="filter3_f_3715_10140" x="-17.4414" y="-11.5849" width="62.31" height="45.6682" filterUnits="userSpaceOnUse" color-interpolation-filters="sRGB">
      <feFlood flood-opacity="0" result="BackgroundImageFix"/>
      <feBlend mode="normal" in="SourceGraphic" in2="BackgroundImageFix" result="shape"/>
      <feGaussianBlur stdDeviation="8.07786" result="effect1_foregroundBlur_3715_10140"/>
    </filter>
    <linearGradient id="paint0_linear_3715_10140" x1="32" y1="2.13333" x2="32" y2="61.8667" gradientUnits="userSpaceOnUse">
      <stop stop-color="#1C1B1A" stop-opacity="0.79"/>
      <stop offset="1" stop-color="#1C1B1A"/>
    </linearGradient>
    <linearGradient id="paint1_linear_3715_10140" x1="31.8667" y1="2.00003" x2="31.8667" y2="61.7334" gradientUnits="userSpaceOnUse">
      <stop stop-color="#1C1B1A" stop-opacity="0.79"/>
      <stop offset="1" stop-color="#1C1B1A"/>
    </linearGradient>
    <linearGradient id="paint2_linear_3715_10140" x1="24.6605" y1="2.37826" x2="7.34223" y2="4.57083" gradientUnits="userSpaceOnUse">
      <stop stop-color="#EDA54D"/>
      <stop offset="1" stop-color="#96EFF9"/>
    </linearGradient>
    <linearGradient id="paint3_linear_3715_10140" x1="32" y1="2.13333" x2="32.0005" y2="61.9995" gradientUnits="userSpaceOnUse">
      <stop stop-color="#969292" stop-opacity="0.71"/>
      <stop offset="1" stop-color="#292725" stop-opacity="0.79"/>
    </linearGradient>
  </defs>
</svg>