<svg width="61" height="60" viewBox="0 0 61 60" fill="none" xmlns="http://www.w3.org/2000/svg">
<g filter="url(#filter0_b_264_13469)">
<rect x="2.5" y="2" width="56" height="56" rx="10" fill="url(#paint0_linear_264_13469)"/>
</g>
<mask id="mask0_264_13469" style="mask-type:alpha" maskUnits="userSpaceOnUse" x="2" y="2" width="57" height="56">
<rect x="2.5" y="2" width="56" height="56" rx="10" fill="url(#paint1_linear_264_13469)"/>
</mask>
<g mask="url(#mask0_264_13469)">
<g filter="url(#filter1_f_264_13469)">
<ellipse cx="42.0104" cy="39.0974" rx="11.234" ry="10.4634" fill="#EDA54D"/>
</g>
<g filter="url(#filter2_f_264_13469)">
<ellipse cx="8.35664" cy="24.5464" rx="14.0617" ry="6.26098" fill="url(#paint2_linear_264_13469)"/>
</g>
<path d="M21.5 39L39.5 21" stroke="#1C1D1D"/>
</g>
<rect x="2.75" y="2.25" width="55.5" height="55.5" rx="9.75" stroke="url(#paint3_linear_264_13469)" stroke-width="0.5"/>
<path d="M43.4999 52C49.0227 52 53.4999 47.5228 53.4999 42C53.4999 36.4772 49.0227 32 43.4999 32C37.977 32 33.4999 36.4772 33.4999 42C33.4999 47.5228 37.977 52 43.4999 52Z" fill="#1C1D1D"/>
<path d="M47.4999 38.8889L46.611 38L43.4657 41.0769L40.3888 38L39.4999 38.8889L42.5768 41.9658L39.4999 45.1111L40.3888 46L43.4657 42.9231L46.611 46L47.4999 45.1111L44.423 41.9658L47.4999 38.8889Z" fill="#B88C5A"/>
<path d="M17.4999 28C23.0227 28 27.4999 23.5229 27.4999 18C27.4999 12.4772 23.0227 8 17.4999 8C11.977 8 7.49988 12.4772 7.49988 18C7.49988 23.5229 11.977 28 17.4999 28Z" fill="#1C1D1D"/>
<path d="M16.8754 22.5186L12.6849 18.4056L13.6938 17.2983L16.7978 20.383L23.0059 13.1853L24.0923 14.1345L16.8754 22.5186Z" fill="#AD8150"/>
<defs>
<filter id="filter0_b_264_13469" x="-3.5" y="-4" width="68" height="68" filterUnits="userSpaceOnUse" color-interpolation-filters="sRGB">
<feFlood flood-opacity="0" result="BackgroundImageFix"/>
<feGaussianBlur in="BackgroundImage" stdDeviation="3"/>
<feComposite in2="SourceAlpha" operator="in" result="effect1_backgroundBlur_264_13469"/>
<feBlend mode="normal" in="SourceGraphic" in2="effect1_backgroundBlur_264_13469" result="shape"/>
</filter>
<filter id="filter1_f_264_13469" x="4.77637" y="2.63403" width="74.4681" height="72.9268" filterUnits="userSpaceOnUse" color-interpolation-filters="sRGB">
<feFlood flood-opacity="0" result="BackgroundImageFix"/>
<feBlend mode="normal" in="SourceGraphic" in2="BackgroundImageFix" result="shape"/>
<feGaussianBlur stdDeviation="13" result="effect1_foregroundBlur_264_13469"/>
</filter>
<filter id="filter2_f_264_13469" x="-21.8608" y="2.12968" width="60.4349" height="44.8334" filterUnits="userSpaceOnUse" color-interpolation-filters="sRGB">
<feFlood flood-opacity="0" result="BackgroundImageFix"/>
<feBlend mode="normal" in="SourceGraphic" in2="BackgroundImageFix" result="shape"/>
<feGaussianBlur stdDeviation="8.07786" result="effect1_foregroundBlur_264_13469"/>
</filter>
<linearGradient id="paint0_linear_264_13469" x1="30.5" y1="2" x2="30.5" y2="58" gradientUnits="userSpaceOnUse">
<stop stop-color="#1C1B1A" stop-opacity="0.79"/>
<stop offset="1" stop-color="#1C1B1A"/>
</linearGradient>
<linearGradient id="paint1_linear_264_13469" x1="30.5" y1="2" x2="30.5" y2="58" gradientUnits="userSpaceOnUse">
<stop stop-color="#1C1B1A" stop-opacity="0.79"/>
<stop offset="1" stop-color="#1C1B1A"/>
</linearGradient>
<linearGradient id="paint2_linear_264_13469" x1="18.6194" y1="16.2299" x2="2.38355" y2="18.2854" gradientUnits="userSpaceOnUse">
<stop stop-color="#EDA54D"/>
<stop offset="1" stop-color="#96EFF9"/>
</linearGradient>
<linearGradient id="paint3_linear_264_13469" x1="30.5" y1="2" x2="30.5" y2="27.7895" gradientUnits="userSpaceOnUse">
<stop stop-color="#606060"/>
<stop offset="1" stop-color="#292725" stop-opacity="0"/>
</linearGradient>
</defs>
</svg>
