<svg width="16" height="19" viewBox="0 0 22 19" fill="none" xmlns="http://www.w3.org/2000/svg">
<path d="M21.3624 3.00161C20.5769 3.34972 19.7329 3.58493 18.8457 3.69124C19.7612 3.14348 20.446 2.28138 20.7726 1.26578C19.9125 1.77664 18.9712 2.13623 17.9896 2.32892C17.3295 1.62411 16.4551 1.15695 15.5023 0.999975C14.5495 0.842995 13.5715 1.00498 12.7202 1.46077C11.8689 1.91657 11.1919 2.64067 10.7943 3.52067C10.3967 4.40067 10.3007 5.38732 10.5213 6.32744C8.77857 6.23994 7.07374 5.78698 5.51742 4.99796C3.9611 4.20894 2.58807 3.10149 1.48745 1.74749C1.11112 2.39666 0.894728 3.14932 0.894728 3.95091C0.894308 4.67252 1.07201 5.38308 1.41207 6.01954C1.75213 6.656 2.24403 7.19868 2.84412 7.59944C2.14817 7.5773 1.46757 7.38924 0.858976 7.05094V7.10739C0.858906 8.11947 1.209 9.10042 1.84984 9.88377C2.49069 10.6671 3.38282 11.2046 4.37485 11.4051C3.72924 11.5798 3.05237 11.6056 2.39535 11.4804C2.67524 12.3512 3.22045 13.1127 3.95465 13.6583C4.68884 14.2039 5.57527 14.5062 6.48983 14.523C4.93731 15.7418 3.01995 16.4029 1.0462 16.3999C0.696572 16.4 0.347237 16.3796 0 16.3388C2.00347 17.627 4.33566 18.3106 6.71751 18.3079C14.7804 18.3079 19.1882 11.6299 19.1882 5.83821C19.1882 5.65004 19.1835 5.46 19.175 5.27183C20.0324 4.6518 20.7725 3.88401 21.3606 3.00443L21.3624 3.00161Z" fill="#787878"/>
</svg>
