<svg width="23" height="23" viewBox="0 0 23 23" fill="none" xmlns="http://www.w3.org/2000/svg">
<circle cx="11.1666" cy="11.5" r="11.1666" fill="url(#paint0_linear_737_4399)"/>
<mask id="mask0_737_4399" style="mask-type:alpha" maskUnits="userSpaceOnUse" x="0" y="0" width="23" height="23">
<circle cx="11.1666" cy="11.5" r="11.1666" fill="url(#paint1_linear_737_4399)"/>
</mask>
<g mask="url(#mask0_737_4399)">
<path d="M7.4878 8.72363C7.38825 8.60975 7.26569 8.55268 7.11985 8.55268H4.13723C4.11074 8.55268 4.08906 8.54429 4.07274 8.52752C4.05615 8.51102 4.04785 8.49236 4.04785 8.47234V6.46229C4.04785 6.44228 4.05615 6.42388 4.07274 6.40711C4.08906 6.39034 4.11074 6.38196 4.13723 6.38196H7.28898C8.08427 6.38196 8.77039 6.70709 9.34706 7.35682L10.1126 8.29138L8.62134 10.1105L7.4878 8.72363ZM12.996 7.34681C13.5727 6.70358 14.262 6.38196 15.064 6.38196H18.2058C18.2323 6.38196 18.2521 6.38872 18.2655 6.40197C18.2786 6.4155 18.2853 6.43552 18.2853 6.46229V8.47234C18.2853 8.49236 18.2786 8.51102 18.2655 8.52752C18.2521 8.54429 18.2323 8.55268 18.2058 8.55268H15.2232C15.0774 8.55268 14.9548 8.60975 14.8553 8.72363L12.658 11.3969L14.8652 14.0902C14.9647 14.1976 15.0838 14.2512 15.2232 14.2512H18.2058C18.2323 14.2512 18.2521 14.2596 18.2655 14.2763C18.2786 14.2931 18.2853 14.315 18.2853 14.3415V16.3516C18.2853 16.3716 18.2786 16.3903 18.2655 16.4068C18.2521 16.4235 18.2323 16.4319 18.2058 16.4319H15.064C14.262 16.4319 13.5759 16.1071 13.0059 15.4571L11.1766 13.226L9.34706 15.4571C8.77039 16.1071 8.08106 16.4319 7.27907 16.4319H4.13723C4.11074 16.4319 4.09067 16.4235 4.07755 16.4068C4.06417 16.39 4.05775 16.3684 4.05775 16.3413V14.3313C4.05775 14.3112 4.06417 14.2928 4.07755 14.2761C4.09067 14.2593 4.11074 14.2509 4.13723 14.2509H7.11985C7.259 14.2509 7.38156 14.1941 7.4878 14.08L9.64516 11.447L12.996 7.34681Z" fill="#00D1FF"/>
</g>
<defs>
<linearGradient id="paint0_linear_737_4399" x1="11.1666" y1="0.333374" x2="11.1666" y2="32.9873" gradientUnits="userSpaceOnUse">
<stop stop-color="#08021E"/>
<stop offset="1" stop-color="#1F0777"/>
</linearGradient>
<linearGradient id="paint1_linear_737_4399" x1="11.1666" y1="0.333374" x2="11.1666" y2="32.9873" gradientUnits="userSpaceOnUse">
<stop stop-color="#08021E"/>
<stop offset="1" stop-color="#1F0777"/>
</linearGradient>
</defs>
</svg>
