<svg width="61" height="60" viewBox="0 0 61 60" fill="none" xmlns="http://www.w3.org/2000/svg">
<path d="M57.3532 33.1979C57.3532 33.3452 57.3532 33.4924 57.3043 33.5906C57.3043 33.6888 57.2554 33.836 57.2554 33.9342C57.2554 34.0814 57.2065 34.1796 57.2065 34.3269C57.2065 34.425 57.1576 34.5723 57.1086 34.6705C57.0597 34.8177 57.0597 34.9159 57.0108 35.0631C56.9619 35.1613 56.9619 35.3086 56.913 35.4067C56.8641 35.554 56.8152 35.6522 56.7663 35.7994C56.7173 35.8976 56.6684 36.0448 56.6195 36.143C56.5706 36.2903 56.5217 36.4375 56.4239 36.5357C56.3749 36.6339 56.326 36.7811 56.2771 36.8793C56.2282 37.0265 56.1304 37.1738 56.0815 37.272C56.0326 37.3701 55.9836 37.4683 55.8858 37.6156C55.788 37.7628 55.6902 37.9592 55.5923 38.1064C55.5434 38.2046 55.4456 38.3028 55.3967 38.4009C55.2989 38.5973 55.1521 38.7445 55.0054 38.9409C54.9565 39.039 54.9076 39.0881 54.8586 39.1863C54.663 39.4808 54.4184 39.7262 54.1739 40.0207C54.125 40.0698 54.0271 40.168 53.9782 40.2171C53.7826 40.4134 53.5869 40.6097 53.3913 40.8061C53.2934 40.9043 53.1956 41.0024 53.0978 41.1006C52.951 41.1988 52.8532 41.346 52.7065 41.4442C52.6086 41.5424 52.4619 41.6405 52.3152 41.7387C52.1684 41.8369 52.0217 41.9841 51.875 42.0823C51.7282 42.1805 51.6304 42.2786 51.4837 42.3768C51.3369 42.475 51.1902 42.5731 51.0434 42.7204C50.8967 42.8186 50.75 42.9167 50.6032 43.0149C50.4565 43.1131 50.2608 43.2113 50.1141 43.3094C49.9184 43.4567 49.7228 43.5548 49.4782 43.7021C49.0869 43.9475 48.6467 44.1439 48.2554 44.3893C48.1576 44.4384 48.0108 44.5365 47.8641 44.5856C47.5217 44.7329 47.2282 44.9292 46.8858 45.0765C46.788 45.1256 46.6413 45.1746 46.5434 45.2237C46.1032 45.4201 45.663 45.6164 45.2228 45.7637C45.125 45.8128 45.076 45.8128 44.9782 45.8618C44.5869 46.0091 44.1956 46.1563 43.8043 46.2545C43.6576 46.3036 43.4619 46.3527 43.3152 46.4018C43.1195 46.4509 42.875 46.549 42.6793 46.5981C42.4837 46.6472 42.288 46.6963 42.1413 46.7454C41.8967 46.7945 41.701 46.8435 41.4565 46.9417C41.2608 46.9908 41.0652 47.0399 40.8695 47.089C40.625 47.138 40.4293 47.1871 40.1847 47.2362C39.9891 47.2853 39.7934 47.3344 39.5978 47.3835C39.3532 47.4326 39.1087 47.4816 38.913 47.5307C38.7174 47.5798 38.5706 47.5798 38.375 47.6289C37.8858 47.7271 37.3478 47.8252 36.8587 47.8743C36.7608 47.8743 36.7119 47.8743 36.6141 47.9234C36.1739 47.9725 35.7337 48.0216 35.2934 48.0707C35.1467 48.0707 34.9511 48.1197 34.7554 48.1197C34.4619 48.1688 34.1684 48.1688 33.875 48.1688C33.6793 48.1688 33.5326 48.2179 33.3369 48.2179C33.0434 48.2179 32.75 48.267 32.4076 48.267C32.2608 48.267 32.0652 48.267 31.9184 48.267C31.6739 48.267 31.3804 48.267 31.1358 48.267C30.9402 48.267 30.7935 48.267 30.5978 48.267C30.3043 48.267 30.0108 48.267 29.7663 48.267C29.6195 48.267 29.4239 48.267 29.2771 48.267C29.0326 48.267 28.7391 48.267 28.4945 48.2179C28.2989 48.2179 28.1521 48.2179 27.9565 48.2179C27.663 48.2179 27.4185 48.1688 27.125 48.1688C26.9782 48.1688 26.7826 48.1688 26.6358 48.1197C26.2935 48.0707 25.9511 48.0707 25.6087 48.0216C25.5108 48.0216 25.4619 48.0216 25.3641 47.9725C24.9239 47.9234 24.4837 47.8743 24.0924 47.8252C24.0435 47.8252 23.9456 47.8252 23.8967 47.7762C23.5543 47.7271 23.163 47.678 22.8206 47.5798C22.6739 47.5307 22.5272 47.5307 22.3804 47.4816C22.0869 47.4326 21.8424 47.3835 21.5489 47.3344C21.4022 47.2853 21.2554 47.2853 21.1087 47.2362C20.8152 47.1871 20.5217 47.089 20.2282 47.0399C20.0815 46.9908 19.8859 46.9417 19.7391 46.8926C19.4456 46.8435 19.2011 46.7454 18.9076 46.6963C18.7609 46.6472 18.6141 46.5981 18.4674 46.549C18.0272 46.4018 17.6359 46.3036 17.1956 46.1563C17.0978 46.1073 17.0489 46.1073 16.9511 46.1073C16.4619 45.96 15.9728 45.7637 15.5326 45.5673C15.3369 45.4692 15.1413 45.4201 14.9456 45.3219C14.7989 45.2728 14.6522 45.2237 14.5054 45.1256C14.3098 45.0274 14.0652 44.9292 13.8696 44.8311C13.7228 44.782 13.5761 44.7329 13.4783 44.6347C13.2337 44.5365 13.038 44.3893 12.7935 44.2911C12.6956 44.242 12.5489 44.1929 12.4511 44.1439C12.1087 43.9475 11.8152 43.8003 11.4728 43.6039C6.1413 40.6588 3.5 36.5848 3.5 32.5598V38.9409C3.5 43.0149 6.1413 47.0399 11.4239 50.1322C11.7174 50.3286 12.0598 50.4758 12.4022 50.6722C12.5 50.7212 12.6467 50.7703 12.7446 50.8194C12.9891 50.9176 13.1848 51.0648 13.4293 51.163C13.5761 51.2121 13.7228 51.3103 13.8206 51.3594C14.0163 51.4575 14.2119 51.5557 14.4565 51.6539C14.6032 51.7029 14.75 51.8011 14.8967 51.8502C15.0435 51.8993 15.1902 51.9484 15.3369 52.0465C15.3859 52.0465 15.4348 52.0956 15.4837 52.0956C15.9728 52.292 16.413 52.4392 16.9022 52.6356C17 52.6846 17.0489 52.6846 17.1467 52.6846C17.5869 52.8319 17.9782 52.9792 18.4185 53.0773C18.4674 53.0773 18.5652 53.1264 18.6141 53.1264C18.7119 53.1264 18.7609 53.1755 18.8587 53.1755C19.1522 53.2737 19.3967 53.3228 19.6902 53.3718C19.8369 53.4209 20.0326 53.47 20.1793 53.5191C20.4728 53.5682 20.7663 53.6663 21.0598 53.7154C21.1576 53.7645 21.3043 53.7645 21.4022 53.8136C21.4511 53.8136 21.4511 53.8136 21.5 53.8136C21.7935 53.8627 22.038 53.9118 22.3315 53.9609C22.4782 54.0099 22.625 54.0099 22.7717 54.059C23.1141 54.1081 23.5054 54.1572 23.8478 54.2554C23.8967 54.2554 23.9945 54.2554 24.0435 54.3045C24.4837 54.3535 24.9239 54.4026 25.3152 54.4517C25.413 54.4517 25.5108 54.4517 25.5598 54.5008C25.9022 54.5499 26.2445 54.5499 26.5869 54.599C26.7337 54.599 26.8804 54.599 27.0272 54.648C27.3206 54.648 27.5652 54.6971 27.8587 54.6971C28.0543 54.6971 28.2011 54.6971 28.3967 54.6971C28.6413 54.6971 28.9348 54.6971 29.1793 54.7462H29.2282C29.375 54.7462 29.5217 54.7462 29.6685 54.7462C29.9619 54.7462 30.2554 54.7462 30.5 54.7462C30.6956 54.7462 30.8424 54.7462 31.038 54.7462C31.2826 54.7462 31.5761 54.7462 31.8206 54.7462C31.8695 54.7462 31.9185 54.7462 31.9674 54.7462C32.0652 54.7462 32.2119 54.7462 32.3098 54.7462C32.6032 54.7462 32.8967 54.6971 33.2391 54.6971C33.4348 54.6971 33.5815 54.648 33.7771 54.648C34.0706 54.648 34.3641 54.599 34.6576 54.599C34.7554 54.599 34.8532 54.599 34.9511 54.5499C35 54.5499 35.0978 54.5499 35.1467 54.5008C35.5869 54.4517 36.0271 54.4026 36.4674 54.3535C36.5652 54.3535 36.6141 54.3535 36.7119 54.3045C37.2011 54.2554 37.7391 54.1572 38.2282 54.059C38.2771 54.059 38.3261 54.059 38.375 54.059C38.5217 54.059 38.6195 54.0099 38.7663 53.9609C39.0108 53.9118 39.2554 53.8627 39.4511 53.8136C39.6467 53.7645 39.8424 53.7154 40.038 53.6663C40.2826 53.6173 40.4782 53.5682 40.7228 53.5191C40.9184 53.47 41.1141 53.4209 41.3097 53.3718C41.5543 53.3228 41.75 53.2737 41.9945 53.1755C42.1902 53.1264 42.3858 53.0773 42.5326 53.0282C42.7282 52.9792 42.9728 52.881 43.1684 52.8319C43.2663 52.7828 43.3641 52.7828 43.4619 52.7337C43.5108 52.7337 43.6087 52.6846 43.6576 52.6846C44.0489 52.5374 44.4402 52.4392 44.8315 52.292C44.9293 52.2429 44.9782 52.2429 45.076 52.1938C45.5163 51.9975 45.9565 51.8502 46.3967 51.6539C46.4945 51.6048 46.6413 51.5557 46.7391 51.5066C47.0815 51.3594 47.4239 51.2121 47.7174 51.0158C47.8641 50.9667 47.9619 50.9176 48.1087 50.8194C48.5489 50.6231 48.9402 50.3777 49.3315 50.1322C49.4293 50.0831 49.576 49.985 49.6739 49.9359C49.7717 49.8868 49.8695 49.7886 49.9673 49.7395C50.1141 49.6414 50.3097 49.5432 50.4565 49.445C50.6032 49.3469 50.75 49.2487 50.8967 49.1505C51.0434 49.0524 51.1902 48.9542 51.3369 48.8069C51.4837 48.7088 51.6304 48.6106 51.7282 48.5124C51.875 48.4143 52.0217 48.3161 52.1684 48.1688C52.3152 48.0707 52.413 47.9725 52.5597 47.8743C52.7065 47.7762 52.8043 47.6289 52.951 47.5307C53 47.4816 53.0489 47.4326 53.0978 47.3835C53.1467 47.3344 53.1956 47.2853 53.2445 47.2362C53.4402 47.0399 53.6358 46.8435 53.8315 46.6472C53.8804 46.5981 53.9782 46.4999 54.0271 46.4509C54.2717 46.2054 54.5163 45.9109 54.7119 45.6164C54.7119 45.6164 54.7119 45.6164 54.7608 45.5673C54.8097 45.5182 54.8586 45.4201 54.9076 45.371C55.0543 45.1746 55.1521 45.0274 55.2989 44.8311C55.3478 44.7329 55.4456 44.6347 55.4945 44.5365C55.5923 44.3893 55.6902 44.242 55.788 44.0457C55.8369 43.9966 55.8369 43.9475 55.8858 43.8984C55.9347 43.8494 55.9347 43.7512 55.9836 43.7021C56.0326 43.5548 56.1304 43.4567 56.1793 43.3094C56.2282 43.2113 56.2771 43.064 56.326 42.9658C56.375 42.8186 56.4239 42.6713 56.5217 42.5731C56.5217 42.5241 56.5706 42.475 56.6195 42.3768C56.6195 42.3277 56.6684 42.2786 56.6684 42.2296C56.7173 42.0823 56.7663 41.9841 56.8152 41.8369C56.8641 41.7387 56.8641 41.5914 56.913 41.4933C56.9619 41.346 56.9619 41.2479 57.0108 41.1006C57.0108 41.0515 57.0597 40.9533 57.0597 40.9043C57.0597 40.8552 57.0597 40.8061 57.0597 40.757C57.1086 40.6097 57.1086 40.5116 57.1086 40.3643C57.1086 40.2662 57.1576 40.1189 57.1576 40.0207C57.1576 39.8735 57.1576 39.7262 57.2065 39.628C57.2065 39.5299 57.2065 39.4808 57.2065 39.3826C57.2065 39.2845 57.2065 39.2354 57.2065 39.1372V32.7562C57.3532 32.9034 57.3532 33.0507 57.3532 33.1979Z" fill="url(#paint0_linear_264_13411)"/>
<mask id="mask0_264_13411" style="mask-type:alpha" maskUnits="userSpaceOnUse" x="3" y="17" width="55" height="32">
<path d="M49.4293 21.5649C59.9945 27.6514 60.0434 37.5666 49.5271 43.7022C39.0597 49.7887 21.9891 49.8378 11.4728 43.7022C0.956495 37.5666 0.858669 27.7005 11.326 21.5649C21.7934 15.4784 38.8641 15.4784 49.4293 21.5649Z" fill="url(#paint1_linear_264_13411)"/>
</mask>
<g mask="url(#mask0_264_13411)">
<g filter="url(#filter0_b_264_13411)">
<path d="M49.4293 21.5649C59.9945 27.6514 60.0434 37.5666 49.5271 43.7022C39.0597 49.7887 21.9891 49.8378 11.4728 43.7022C0.956495 37.5666 0.858669 27.7005 11.326 21.5649C21.7934 15.4784 38.8641 15.4784 49.4293 21.5649Z" fill="url(#paint2_linear_264_13411)"/>
</g>
<g filter="url(#filter1_f_264_13411)">
<ellipse cx="19.3566" cy="54.5464" rx="14.0617" ry="6.26098" fill="url(#paint3_linear_264_13411)"/>
</g>
</g>
<path d="M57.3532 25.1979C57.3532 25.3452 57.3532 25.4924 57.3043 25.5906C57.3043 25.6888 57.2554 25.836 57.2554 25.9342C57.2554 26.0814 57.2065 26.1796 57.2065 26.3269C57.2065 26.425 57.1576 26.5723 57.1086 26.6705C57.0597 26.8177 57.0597 26.9159 57.0108 27.0631C56.9619 27.1613 56.9619 27.3086 56.913 27.4067C56.8641 27.554 56.8152 27.6522 56.7663 27.7994C56.7173 27.8976 56.6684 28.0448 56.6195 28.143C56.5706 28.2903 56.5217 28.4375 56.4239 28.5357C56.3749 28.6339 56.326 28.7811 56.2771 28.8793C56.2282 29.0265 56.1304 29.1738 56.0815 29.272C56.0326 29.3701 55.9836 29.4683 55.8858 29.6156C55.788 29.7628 55.6902 29.9592 55.5923 30.1064C55.5434 30.2046 55.4456 30.3028 55.3967 30.4009C55.2989 30.5973 55.1521 30.7445 55.0054 30.9409C54.9565 31.039 54.9076 31.0881 54.8586 31.1863C54.663 31.4808 54.4184 31.7262 54.1739 32.0207C54.125 32.0698 54.0271 32.168 53.9782 32.2171C53.7826 32.4134 53.5869 32.6097 53.3913 32.8061C53.2934 32.9043 53.1956 33.0024 53.0978 33.1006C52.951 33.1988 52.8532 33.346 52.7065 33.4442C52.6086 33.5424 52.4619 33.6405 52.3152 33.7387C52.1684 33.8369 52.0217 33.9841 51.875 34.0823C51.7282 34.1805 51.6304 34.2786 51.4837 34.3768C51.3369 34.475 51.1902 34.5731 51.0434 34.7204C50.8967 34.8186 50.75 34.9167 50.6032 35.0149C50.4565 35.1131 50.2608 35.2113 50.1141 35.3094C49.9184 35.4567 49.7228 35.5548 49.4782 35.7021C49.0869 35.9475 48.6467 36.1439 48.2554 36.3893C48.1576 36.4384 48.0108 36.5365 47.8641 36.5856C47.5217 36.7329 47.2282 36.9292 46.8858 37.0765C46.788 37.1256 46.6413 37.1746 46.5434 37.2237C46.1032 37.4201 45.663 37.6164 45.2228 37.7637C45.125 37.8128 45.076 37.8128 44.9782 37.8618C44.5869 38.0091 44.1956 38.1563 43.8043 38.2545C43.6576 38.3036 43.4619 38.3527 43.3152 38.4018C43.1195 38.4509 42.875 38.549 42.6793 38.5981C42.4837 38.6472 42.288 38.6963 42.1413 38.7454C41.8967 38.7945 41.701 38.8435 41.4565 38.9417C41.2608 38.9908 41.0652 39.0399 40.8695 39.089C40.625 39.138 40.4293 39.1871 40.1847 39.2362C39.9891 39.2853 39.7934 39.3344 39.5978 39.3835C39.3532 39.4326 39.1087 39.4816 38.913 39.5307C38.7174 39.5798 38.5706 39.5798 38.375 39.6289C37.8858 39.7271 37.3478 39.8252 36.8587 39.8743C36.7608 39.8743 36.7119 39.8743 36.6141 39.9234C36.1739 39.9725 35.7337 40.0216 35.2934 40.0707C35.1467 40.0707 34.9511 40.1197 34.7554 40.1197C34.4619 40.1688 34.1684 40.1688 33.875 40.1688C33.6793 40.1688 33.5326 40.2179 33.3369 40.2179C33.0434 40.2179 32.75 40.267 32.4076 40.267C32.2608 40.267 32.0652 40.267 31.9184 40.267C31.6739 40.267 31.3804 40.267 31.1358 40.267C30.9402 40.267 30.7935 40.267 30.5978 40.267C30.3043 40.267 30.0108 40.267 29.7663 40.267C29.6195 40.267 29.4239 40.267 29.2771 40.267C29.0326 40.267 28.7391 40.267 28.4945 40.2179C28.2989 40.2179 28.1521 40.2179 27.9565 40.2179C27.663 40.2179 27.4185 40.1688 27.125 40.1688C26.9782 40.1688 26.7826 40.1688 26.6358 40.1197C26.2935 40.0707 25.9511 40.0707 25.6087 40.0216C25.5108 40.0216 25.4619 40.0216 25.3641 39.9725C24.9239 39.9234 24.4837 39.8743 24.0924 39.8252C24.0435 39.8252 23.9456 39.8252 23.8967 39.7762C23.5543 39.7271 23.163 39.678 22.8206 39.5798C22.6739 39.5307 22.5272 39.5307 22.3804 39.4816C22.0869 39.4326 21.8424 39.3835 21.5489 39.3344C21.4022 39.2853 21.2554 39.2853 21.1087 39.2362C20.8152 39.1871 20.5217 39.089 20.2282 39.0399C20.0815 38.9908 19.8859 38.9417 19.7391 38.8926C19.4456 38.8435 19.2011 38.7454 18.9076 38.6963C18.7609 38.6472 18.6141 38.5981 18.4674 38.549C18.0272 38.4018 17.6359 38.3036 17.1956 38.1563C17.0978 38.1073 17.0489 38.1073 16.9511 38.1073C16.4619 37.96 15.9728 37.7637 15.5326 37.5673C15.3369 37.4692 15.1413 37.4201 14.9456 37.3219C14.7989 37.2728 14.6522 37.2237 14.5054 37.1256C14.3098 37.0274 14.0652 36.9292 13.8696 36.8311C13.7228 36.782 13.5761 36.7329 13.4783 36.6347C13.2337 36.5365 13.038 36.3893 12.7935 36.2911C12.6956 36.242 12.5489 36.1929 12.4511 36.1439C12.1087 35.9475 11.8152 35.8003 11.4728 35.6039C6.1413 32.6588 3.5 28.5848 3.5 24.5598V30.9409C3.5 35.0149 6.1413 39.0399 11.4239 42.1322C11.7174 42.3286 12.0598 42.4758 12.4022 42.6722C12.5 42.7212 12.6467 42.7703 12.7446 42.8194C12.9891 42.9176 13.1848 43.0648 13.4293 43.163C13.5761 43.2121 13.7228 43.3103 13.8206 43.3594C14.0163 43.4575 14.2119 43.5557 14.4565 43.6539C14.6032 43.7029 14.75 43.8011 14.8967 43.8502C15.0435 43.8993 15.1902 43.9484 15.3369 44.0465C15.3859 44.0465 15.4348 44.0956 15.4837 44.0956C15.9728 44.292 16.413 44.4392 16.9022 44.6356C17 44.6846 17.0489 44.6846 17.1467 44.6846C17.5869 44.8319 17.9782 44.9792 18.4185 45.0773C18.4674 45.0773 18.5652 45.1264 18.6141 45.1264C18.7119 45.1264 18.7609 45.1755 18.8587 45.1755C19.1522 45.2737 19.3967 45.3228 19.6902 45.3718C19.8369 45.4209 20.0326 45.47 20.1793 45.5191C20.4728 45.5682 20.7663 45.6663 21.0598 45.7154C21.1576 45.7645 21.3043 45.7645 21.4022 45.8136C21.4511 45.8136 21.4511 45.8136 21.5 45.8136C21.7935 45.8627 22.038 45.9118 22.3315 45.9609C22.4782 46.0099 22.625 46.0099 22.7717 46.059C23.1141 46.1081 23.5054 46.1572 23.8478 46.2554C23.8967 46.2554 23.9945 46.2554 24.0435 46.3045C24.4837 46.3535 24.9239 46.4026 25.3152 46.4517C25.413 46.4517 25.5108 46.4517 25.5598 46.5008C25.9022 46.5499 26.2445 46.5499 26.5869 46.599C26.7337 46.599 26.8804 46.599 27.0272 46.648C27.3206 46.648 27.5652 46.6971 27.8587 46.6971C28.0543 46.6971 28.2011 46.6971 28.3967 46.6971C28.6413 46.6971 28.9348 46.6971 29.1793 46.7462H29.2282C29.375 46.7462 29.5217 46.7462 29.6685 46.7462C29.9619 46.7462 30.2554 46.7462 30.5 46.7462C30.6956 46.7462 30.8424 46.7462 31.038 46.7462C31.2826 46.7462 31.5761 46.7462 31.8206 46.7462C31.8695 46.7462 31.9185 46.7462 31.9674 46.7462C32.0652 46.7462 32.2119 46.7462 32.3098 46.7462C32.6032 46.7462 32.8967 46.6971 33.2391 46.6971C33.4348 46.6971 33.5815 46.648 33.7771 46.648C34.0706 46.648 34.3641 46.599 34.6576 46.599C34.7554 46.599 34.8532 46.599 34.9511 46.5499C35 46.5499 35.0978 46.5499 35.1467 46.5008C35.5869 46.4517 36.0271 46.4026 36.4674 46.3535C36.5652 46.3535 36.6141 46.3535 36.7119 46.3045C37.2011 46.2554 37.7391 46.1572 38.2282 46.059C38.2771 46.059 38.3261 46.059 38.375 46.059C38.5217 46.059 38.6195 46.0099 38.7663 45.9609C39.0108 45.9118 39.2554 45.8627 39.4511 45.8136C39.6467 45.7645 39.8424 45.7154 40.038 45.6663C40.2826 45.6173 40.4782 45.5682 40.7228 45.5191C40.9184 45.47 41.1141 45.4209 41.3097 45.3718C41.5543 45.3228 41.75 45.2737 41.9945 45.1755C42.1902 45.1264 42.3858 45.0773 42.5326 45.0282C42.7282 44.9792 42.9728 44.881 43.1684 44.8319C43.2663 44.7828 43.3641 44.7828 43.4619 44.7337C43.5108 44.7337 43.6087 44.6846 43.6576 44.6846C44.0489 44.5374 44.4402 44.4392 44.8315 44.292C44.9293 44.2429 44.9782 44.2429 45.076 44.1938C45.5163 43.9975 45.9565 43.8502 46.3967 43.6539C46.4945 43.6048 46.6413 43.5557 46.7391 43.5066C47.0815 43.3594 47.4239 43.2121 47.7174 43.0158C47.8641 42.9667 47.9619 42.9176 48.1087 42.8194C48.5489 42.6231 48.9402 42.3777 49.3315 42.1322C49.4293 42.0831 49.576 41.985 49.6739 41.9359C49.7717 41.8868 49.8695 41.7886 49.9673 41.7395C50.1141 41.6414 50.3097 41.5432 50.4565 41.445C50.6032 41.3469 50.75 41.2487 50.8967 41.1505C51.0434 41.0524 51.1902 40.9542 51.3369 40.8069C51.4837 40.7088 51.6304 40.6106 51.7282 40.5124C51.875 40.4143 52.0217 40.3161 52.1684 40.1688C52.3152 40.0707 52.413 39.9725 52.5597 39.8743C52.7065 39.7762 52.8043 39.6289 52.951 39.5307C53 39.4816 53.0489 39.4326 53.0978 39.3835C53.1467 39.3344 53.1956 39.2853 53.2445 39.2362C53.4402 39.0399 53.6358 38.8435 53.8315 38.6472C53.8804 38.5981 53.9782 38.4999 54.0271 38.4509C54.2717 38.2054 54.5163 37.9109 54.7119 37.6164C54.7119 37.6164 54.7119 37.6164 54.7608 37.5673C54.8097 37.5182 54.8586 37.4201 54.9076 37.371C55.0543 37.1746 55.1521 37.0274 55.2989 36.8311C55.3478 36.7329 55.4456 36.6347 55.4945 36.5365C55.5923 36.3893 55.6902 36.242 55.788 36.0457C55.8369 35.9966 55.8369 35.9475 55.8858 35.8984C55.9347 35.8494 55.9347 35.7512 55.9836 35.7021C56.0326 35.5548 56.1304 35.4567 56.1793 35.3094C56.2282 35.2113 56.2771 35.064 56.326 34.9658C56.375 34.8186 56.4239 34.6713 56.5217 34.5731C56.5217 34.5241 56.5706 34.475 56.6195 34.3768C56.6195 34.3277 56.6684 34.2786 56.6684 34.2296C56.7173 34.0823 56.7663 33.9841 56.8152 33.8369C56.8641 33.7387 56.8641 33.5914 56.913 33.4933C56.9619 33.346 56.9619 33.2479 57.0108 33.1006C57.0108 33.0515 57.0597 32.9533 57.0597 32.9043C57.0597 32.8552 57.0597 32.8061 57.0597 32.757C57.1086 32.6097 57.1086 32.5116 57.1086 32.3643C57.1086 32.2662 57.1576 32.1189 57.1576 32.0207C57.1576 31.8735 57.1576 31.7262 57.2065 31.628C57.2065 31.5299 57.2065 31.4808 57.2065 31.3826C57.2065 31.2845 57.2065 31.2354 57.2065 31.1372V24.7562C57.3532 24.9034 57.3532 25.0507 57.3532 25.1979Z" fill="url(#paint4_linear_264_13411)"/>
<mask id="mask1_264_13411" style="mask-type:alpha" maskUnits="userSpaceOnUse" x="3" y="9" width="55" height="32">
<path d="M49.4293 13.5649C59.9945 19.6514 60.0434 29.5666 49.5271 35.7022C39.0597 41.7887 21.9891 41.8378 11.4728 35.7022C0.956495 29.5666 0.858669 19.7005 11.326 13.5649C21.7934 7.47837 38.8641 7.47837 49.4293 13.5649Z" fill="url(#paint5_linear_264_13411)"/>
</mask>
<g mask="url(#mask1_264_13411)">
<g filter="url(#filter2_b_264_13411)">
<path d="M49.4293 13.5649C59.9945 19.6514 60.0434 29.5666 49.5271 35.7022C39.0597 41.7887 21.9891 41.8378 11.4728 35.7022C0.956495 29.5666 0.858669 19.7005 11.326 13.5649C21.7934 7.47837 38.8641 7.47837 49.4293 13.5649Z" fill="url(#paint6_linear_264_13411)"/>
</g>
<g filter="url(#filter3_f_264_13411)">
<ellipse cx="19.3566" cy="46.5464" rx="14.0617" ry="6.26098" fill="url(#paint7_linear_264_13411)"/>
</g>
</g>
<path d="M57.3532 17.1979C57.3532 17.3452 57.3532 17.4924 57.3043 17.5906C57.3043 17.6888 57.2554 17.836 57.2554 17.9342C57.2554 18.0814 57.2065 18.1796 57.2065 18.3269C57.2065 18.425 57.1576 18.5723 57.1086 18.6705C57.0597 18.8177 57.0597 18.9159 57.0108 19.0631C56.9619 19.1613 56.9619 19.3086 56.913 19.4067C56.8641 19.554 56.8152 19.6522 56.7663 19.7994C56.7173 19.8976 56.6684 20.0448 56.6195 20.143C56.5706 20.2903 56.5217 20.4375 56.4239 20.5357C56.3749 20.6339 56.326 20.7811 56.2771 20.8793C56.2282 21.0265 56.1304 21.1738 56.0815 21.272C56.0326 21.3701 55.9836 21.4683 55.8858 21.6156C55.788 21.7628 55.6902 21.9592 55.5923 22.1064C55.5434 22.2046 55.4456 22.3028 55.3967 22.4009C55.2989 22.5973 55.1521 22.7445 55.0054 22.9409C54.9565 23.039 54.9076 23.0881 54.8586 23.1863C54.663 23.4808 54.4184 23.7262 54.1739 24.0207C54.125 24.0698 54.0271 24.168 53.9782 24.2171C53.7826 24.4134 53.5869 24.6097 53.3913 24.8061C53.2934 24.9043 53.1956 25.0024 53.0978 25.1006C52.951 25.1988 52.8532 25.346 52.7065 25.4442C52.6086 25.5424 52.4619 25.6405 52.3152 25.7387C52.1684 25.8369 52.0217 25.9841 51.875 26.0823C51.7282 26.1805 51.6304 26.2786 51.4837 26.3768C51.3369 26.475 51.1902 26.5731 51.0434 26.7204C50.8967 26.8186 50.75 26.9167 50.6032 27.0149C50.4565 27.1131 50.2608 27.2113 50.1141 27.3094C49.9184 27.4567 49.7228 27.5548 49.4782 27.7021C49.0869 27.9475 48.6467 28.1439 48.2554 28.3893C48.1576 28.4384 48.0108 28.5365 47.8641 28.5856C47.5217 28.7329 47.2282 28.9292 46.8858 29.0765C46.788 29.1256 46.6413 29.1746 46.5434 29.2237C46.1032 29.4201 45.663 29.6164 45.2228 29.7637C45.125 29.8128 45.076 29.8128 44.9782 29.8618C44.5869 30.0091 44.1956 30.1563 43.8043 30.2545C43.6576 30.3036 43.4619 30.3527 43.3152 30.4018C43.1195 30.4509 42.875 30.549 42.6793 30.5981C42.4837 30.6472 42.288 30.6963 42.1413 30.7454C41.8967 30.7945 41.701 30.8435 41.4565 30.9417C41.2608 30.9908 41.0652 31.0399 40.8695 31.089C40.625 31.138 40.4293 31.1871 40.1847 31.2362C39.9891 31.2853 39.7934 31.3344 39.5978 31.3835C39.3532 31.4326 39.1087 31.4816 38.913 31.5307C38.7174 31.5798 38.5706 31.5798 38.375 31.6289C37.8858 31.7271 37.3478 31.8252 36.8587 31.8743C36.7608 31.8743 36.7119 31.8743 36.6141 31.9234C36.1739 31.9725 35.7337 32.0216 35.2934 32.0707C35.1467 32.0707 34.9511 32.1197 34.7554 32.1197C34.4619 32.1688 34.1684 32.1688 33.875 32.1688C33.6793 32.1688 33.5326 32.2179 33.3369 32.2179C33.0434 32.2179 32.75 32.267 32.4076 32.267C32.2608 32.267 32.0652 32.267 31.9184 32.267C31.6739 32.267 31.3804 32.267 31.1358 32.267C30.9402 32.267 30.7935 32.267 30.5978 32.267C30.3043 32.267 30.0108 32.267 29.7663 32.267C29.6195 32.267 29.4239 32.267 29.2771 32.267C29.0326 32.267 28.7391 32.267 28.4945 32.2179C28.2989 32.2179 28.1521 32.2179 27.9565 32.2179C27.663 32.2179 27.4185 32.1688 27.125 32.1688C26.9782 32.1688 26.7826 32.1688 26.6358 32.1197C26.2935 32.0707 25.9511 32.0707 25.6087 32.0216C25.5108 32.0216 25.4619 32.0216 25.3641 31.9725C24.9239 31.9234 24.4837 31.8743 24.0924 31.8252C24.0435 31.8252 23.9456 31.8252 23.8967 31.7762C23.5543 31.7271 23.163 31.678 22.8206 31.5798C22.6739 31.5307 22.5272 31.5307 22.3804 31.4816C22.0869 31.4326 21.8424 31.3835 21.5489 31.3344C21.4022 31.2853 21.2554 31.2853 21.1087 31.2362C20.8152 31.1871 20.5217 31.089 20.2282 31.0399C20.0815 30.9908 19.8859 30.9417 19.7391 30.8926C19.4456 30.8435 19.2011 30.7454 18.9076 30.6963C18.7609 30.6472 18.6141 30.5981 18.4674 30.549C18.0272 30.4018 17.6359 30.3036 17.1956 30.1563C17.0978 30.1073 17.0489 30.1073 16.9511 30.1073C16.4619 29.96 15.9728 29.7637 15.5326 29.5673C15.3369 29.4692 15.1413 29.4201 14.9456 29.3219C14.7989 29.2728 14.6522 29.2237 14.5054 29.1256C14.3098 29.0274 14.0652 28.9292 13.8696 28.8311C13.7228 28.782 13.5761 28.7329 13.4783 28.6347C13.2337 28.5365 13.038 28.3893 12.7935 28.2911C12.6956 28.242 12.5489 28.1929 12.4511 28.1439C12.1087 27.9475 11.8152 27.8003 11.4728 27.6039C6.1413 24.6588 3.5 20.5848 3.5 16.5598V22.9409C3.5 27.0149 6.1413 31.0399 11.4239 34.1322C11.7174 34.3286 12.0598 34.4758 12.4022 34.6722C12.5 34.7212 12.6467 34.7703 12.7446 34.8194C12.9891 34.9176 13.1848 35.0648 13.4293 35.163C13.5761 35.2121 13.7228 35.3103 13.8206 35.3594C14.0163 35.4575 14.2119 35.5557 14.4565 35.6539C14.6032 35.7029 14.75 35.8011 14.8967 35.8502C15.0435 35.8993 15.1902 35.9484 15.3369 36.0465C15.3859 36.0465 15.4348 36.0956 15.4837 36.0956C15.9728 36.292 16.413 36.4392 16.9022 36.6356C17 36.6846 17.0489 36.6846 17.1467 36.6846C17.5869 36.8319 17.9782 36.9792 18.4185 37.0773C18.4674 37.0773 18.5652 37.1264 18.6141 37.1264C18.7119 37.1264 18.7609 37.1755 18.8587 37.1755C19.1522 37.2737 19.3967 37.3228 19.6902 37.3718C19.8369 37.4209 20.0326 37.47 20.1793 37.5191C20.4728 37.5682 20.7663 37.6663 21.0598 37.7154C21.1576 37.7645 21.3043 37.7645 21.4022 37.8136C21.4511 37.8136 21.4511 37.8136 21.5 37.8136C21.7935 37.8627 22.038 37.9118 22.3315 37.9609C22.4782 38.0099 22.625 38.0099 22.7717 38.059C23.1141 38.1081 23.5054 38.1572 23.8478 38.2554C23.8967 38.2554 23.9945 38.2554 24.0435 38.3045C24.4837 38.3535 24.9239 38.4026 25.3152 38.4517C25.413 38.4517 25.5108 38.4517 25.5598 38.5008C25.9022 38.5499 26.2445 38.5499 26.5869 38.599C26.7337 38.599 26.8804 38.599 27.0272 38.648C27.3206 38.648 27.5652 38.6971 27.8587 38.6971C28.0543 38.6971 28.2011 38.6971 28.3967 38.6971C28.6413 38.6971 28.9348 38.6971 29.1793 38.7462H29.2282C29.375 38.7462 29.5217 38.7462 29.6685 38.7462C29.9619 38.7462 30.2554 38.7462 30.5 38.7462C30.6956 38.7462 30.8424 38.7462 31.038 38.7462C31.2826 38.7462 31.5761 38.7462 31.8206 38.7462C31.8695 38.7462 31.9185 38.7462 31.9674 38.7462C32.0652 38.7462 32.2119 38.7462 32.3098 38.7462C32.6032 38.7462 32.8967 38.6971 33.2391 38.6971C33.4348 38.6971 33.5815 38.648 33.7771 38.648C34.0706 38.648 34.3641 38.599 34.6576 38.599C34.7554 38.599 34.8532 38.599 34.9511 38.5499C35 38.5499 35.0978 38.5499 35.1467 38.5008C35.5869 38.4517 36.0271 38.4026 36.4674 38.3535C36.5652 38.3535 36.6141 38.3535 36.7119 38.3045C37.2011 38.2554 37.7391 38.1572 38.2282 38.059C38.2771 38.059 38.3261 38.059 38.375 38.059C38.5217 38.059 38.6195 38.0099 38.7663 37.9609C39.0108 37.9118 39.2554 37.8627 39.4511 37.8136C39.6467 37.7645 39.8424 37.7154 40.038 37.6663C40.2826 37.6173 40.4782 37.5682 40.7228 37.5191C40.9184 37.47 41.1141 37.4209 41.3097 37.3718C41.5543 37.3228 41.75 37.2737 41.9945 37.1755C42.1902 37.1264 42.3858 37.0773 42.5326 37.0282C42.7282 36.9792 42.9728 36.881 43.1684 36.8319C43.2663 36.7828 43.3641 36.7828 43.4619 36.7337C43.5108 36.7337 43.6087 36.6846 43.6576 36.6846C44.0489 36.5374 44.4402 36.4392 44.8315 36.292C44.9293 36.2429 44.9782 36.2429 45.076 36.1938C45.5163 35.9975 45.9565 35.8502 46.3967 35.6539C46.4945 35.6048 46.6413 35.5557 46.7391 35.5066C47.0815 35.3594 47.4239 35.2121 47.7174 35.0158C47.8641 34.9667 47.9619 34.9176 48.1087 34.8194C48.5489 34.6231 48.9402 34.3777 49.3315 34.1322C49.4293 34.0831 49.576 33.985 49.6739 33.9359C49.7717 33.8868 49.8695 33.7886 49.9673 33.7395C50.1141 33.6414 50.3097 33.5432 50.4565 33.445C50.6032 33.3469 50.75 33.2487 50.8967 33.1505C51.0434 33.0524 51.1902 32.9542 51.3369 32.8069C51.4837 32.7088 51.6304 32.6106 51.7282 32.5124C51.875 32.4143 52.0217 32.3161 52.1684 32.1688C52.3152 32.0707 52.413 31.9725 52.5597 31.8743C52.7065 31.7762 52.8043 31.6289 52.951 31.5307C53 31.4816 53.0489 31.4326 53.0978 31.3835C53.1467 31.3344 53.1956 31.2853 53.2445 31.2362C53.4402 31.0399 53.6358 30.8435 53.8315 30.6472C53.8804 30.5981 53.9782 30.4999 54.0271 30.4509C54.2717 30.2054 54.5163 29.9109 54.7119 29.6164C54.7119 29.6164 54.7119 29.6164 54.7608 29.5673C54.8097 29.5182 54.8586 29.4201 54.9076 29.371C55.0543 29.1746 55.1521 29.0274 55.2989 28.8311C55.3478 28.7329 55.4456 28.6347 55.4945 28.5365C55.5923 28.3893 55.6902 28.242 55.788 28.0457C55.8369 27.9966 55.8369 27.9475 55.8858 27.8984C55.9347 27.8494 55.9347 27.7512 55.9836 27.7021C56.0326 27.5548 56.1304 27.4567 56.1793 27.3094C56.2282 27.2113 56.2771 27.064 56.326 26.9658C56.375 26.8186 56.4239 26.6713 56.5217 26.5731C56.5217 26.5241 56.5706 26.475 56.6195 26.3768C56.6195 26.3277 56.6684 26.2786 56.6684 26.2296C56.7173 26.0823 56.7663 25.9841 56.8152 25.8369C56.8641 25.7387 56.8641 25.5914 56.913 25.4933C56.9619 25.346 56.9619 25.2479 57.0108 25.1006C57.0108 25.0515 57.0597 24.9533 57.0597 24.9043C57.0597 24.8552 57.0597 24.8061 57.0597 24.757C57.1086 24.6097 57.1086 24.5116 57.1086 24.3643C57.1086 24.2662 57.1576 24.1189 57.1576 24.0207C57.1576 23.8735 57.1576 23.7262 57.2065 23.628C57.2065 23.5299 57.2065 23.4808 57.2065 23.3826C57.2065 23.2845 57.2065 23.2354 57.2065 23.1372V16.7562C57.3532 16.9034 57.3532 17.0507 57.3532 17.1979Z" fill="url(#paint8_linear_264_13411)"/>
<mask id="mask2_264_13411" style="mask-type:alpha" maskUnits="userSpaceOnUse" x="3" y="1" width="55" height="32">
<path d="M49.4293 5.5649C59.9945 11.6514 60.0434 21.5666 49.5271 27.7022C39.0597 33.7887 21.9891 33.8378 11.4728 27.7022C0.956495 21.5666 0.858669 11.7005 11.326 5.5649C21.7934 -0.521634 38.8641 -0.521634 49.4293 5.5649Z" fill="url(#paint9_linear_264_13411)"/>
</mask>
<g mask="url(#mask2_264_13411)">
<g filter="url(#filter4_b_264_13411)">
<path d="M49.4293 5.5649C59.9945 11.6514 60.0434 21.5666 49.5271 27.7022C39.0597 33.7887 21.9891 33.8378 11.4728 27.7022C0.956495 21.5666 0.858669 11.7005 11.326 5.5649C21.7934 -0.521634 38.8641 -0.521634 49.4293 5.5649Z" fill="url(#paint10_linear_264_13411)"/>
</g>
<g filter="url(#filter5_f_264_13411)">
<ellipse cx="41.0104" cy="39.0974" rx="11.234" ry="10.4634" fill="#EDA54D"/>
</g>
<path d="M49.3045 5.78152C54.5413 8.79844 57.116 12.7298 57.1338 16.6163C57.1515 20.5024 54.6134 24.4451 49.4014 27.4861C44.2148 30.502 37.3762 32.0294 30.5181 32.0355C23.6599 32.0416 16.8095 30.5264 11.5988 27.4863C6.38558 24.4447 3.81019 20.5128 3.78053 16.6316C3.75088 12.7517 6.26473 8.82158 11.4521 5.78081C16.6384 2.76518 23.4766 1.25 30.341 1.25C37.2054 1.25 44.0687 2.76521 49.3045 5.78152Z" stroke="url(#paint11_linear_264_13411)" stroke-width="0.5"/>
<g filter="url(#filter6_f_264_13411)">
<ellipse cx="19.3566" cy="38.5464" rx="14.0617" ry="6.26098" fill="url(#paint12_linear_264_13411)"/>
</g>
</g>
<circle cx="47.5" cy="47" r="12" fill="url(#paint13_linear_264_13411)"/>
<path d="M49.2105 42.4667C49.64 42.3156 50.124 42.1849 50.533 42.0885C50.942 41.9922 53.92 41.6729 53.92 41.6729L53.2805 41.0585C53.2805 41.0585 50.7951 40.064 50.1682 40.0787C49.1734 40.0802 48.2425 40.6104 47.1174 41.125C46.0468 41.6601 45.1027 41.9877 44.4474 42.7409C44.0242 43.2065 43.1345 45.745 43.1345 45.745L43.1945 46.5791L45.7872 44.3047C46.1488 44.0033 46.5444 43.777 46.9399 43.5507L51.2516 53.0969L53.5767 52.0333L49.2105 42.4667Z" fill="#171717"/>
<path fill-rule="evenodd" clip-rule="evenodd" d="M39.5004 50.9999C42.44 50.3846 42.9496 49.8845 43.5768 47C44.204 49.8845 44.7528 50.3846 47.6533 50.9999H47.6537C47.6536 50.9999 47.6536 51 47.6535 51C47.6536 51 47.6537 51 47.6538 51.0001H47.6532C44.7135 51.6154 44.2039 52.1155 43.5767 55C42.9495 52.1155 42.4007 51.6154 39.5003 51.0001H39.4999C39.4999 51 39.5 51 39.5001 51C39.5 51 39.4999 51 39.4998 50.9999H39.5004Z" fill="#171717"/>
<defs>
<filter id="filter0_b_264_13411" x="-0.19797" y="13.2718" width="61.31" height="38.7421" filterUnits="userSpaceOnUse" color-interpolation-filters="sRGB">
<feFlood flood-opacity="0" result="BackgroundImageFix"/>
<feGaussianBlur in="BackgroundImage" stdDeviation="1.86412"/>
<feComposite in2="SourceAlpha" operator="in" result="effect1_backgroundBlur_264_13411"/>
<feBlend mode="normal" in="SourceGraphic" in2="effect1_backgroundBlur_264_13411" result="shape"/>
</filter>
<filter id="filter1_f_264_13411" x="-10.8608" y="32.1297" width="60.435" height="44.8334" filterUnits="userSpaceOnUse" color-interpolation-filters="sRGB">
<feFlood flood-opacity="0" result="BackgroundImageFix"/>
<feBlend mode="normal" in="SourceGraphic" in2="BackgroundImageFix" result="shape"/>
<feGaussianBlur stdDeviation="8.07786" result="effect1_foregroundBlur_264_13411"/>
</filter>
<filter id="filter2_b_264_13411" x="-0.19797" y="5.27176" width="61.31" height="38.7421" filterUnits="userSpaceOnUse" color-interpolation-filters="sRGB">
<feFlood flood-opacity="0" result="BackgroundImageFix"/>
<feGaussianBlur in="BackgroundImage" stdDeviation="1.86412"/>
<feComposite in2="SourceAlpha" operator="in" result="effect1_backgroundBlur_264_13411"/>
<feBlend mode="normal" in="SourceGraphic" in2="effect1_backgroundBlur_264_13411" result="shape"/>
</filter>
<filter id="filter3_f_264_13411" x="-10.8608" y="24.1297" width="60.435" height="44.8334" filterUnits="userSpaceOnUse" color-interpolation-filters="sRGB">
<feFlood flood-opacity="0" result="BackgroundImageFix"/>
<feBlend mode="normal" in="SourceGraphic" in2="BackgroundImageFix" result="shape"/>
<feGaussianBlur stdDeviation="8.07786" result="effect1_foregroundBlur_264_13411"/>
</filter>
<filter id="filter4_b_264_13411" x="-0.19797" y="-2.72824" width="61.31" height="38.7421" filterUnits="userSpaceOnUse" color-interpolation-filters="sRGB">
<feFlood flood-opacity="0" result="BackgroundImageFix"/>
<feGaussianBlur in="BackgroundImage" stdDeviation="1.86412"/>
<feComposite in2="SourceAlpha" operator="in" result="effect1_backgroundBlur_264_13411"/>
<feBlend mode="normal" in="SourceGraphic" in2="effect1_backgroundBlur_264_13411" result="shape"/>
</filter>
<filter id="filter5_f_264_13411" x="3.77637" y="2.63403" width="74.468" height="72.9268" filterUnits="userSpaceOnUse" color-interpolation-filters="sRGB">
<feFlood flood-opacity="0" result="BackgroundImageFix"/>
<feBlend mode="normal" in="SourceGraphic" in2="BackgroundImageFix" result="shape"/>
<feGaussianBlur stdDeviation="13" result="effect1_foregroundBlur_264_13411"/>
</filter>
<filter id="filter6_f_264_13411" x="-10.8608" y="16.1297" width="60.435" height="44.8334" filterUnits="userSpaceOnUse" color-interpolation-filters="sRGB">
<feFlood flood-opacity="0" result="BackgroundImageFix"/>
<feBlend mode="normal" in="SourceGraphic" in2="BackgroundImageFix" result="shape"/>
<feGaussianBlur stdDeviation="8.07786" result="effect1_foregroundBlur_264_13411"/>
</filter>
<linearGradient id="paint0_linear_264_13411" x1="54.9366" y1="36.7423" x2="5.59429" y2="43.653" gradientUnits="userSpaceOnUse">
<stop stop-color="#121212"/>
<stop offset="1" stop-color="#222323"/>
</linearGradient>
<linearGradient id="paint1_linear_264_13411" x1="30.4571" y1="17" x2="30.4571" y2="48.2855" gradientUnits="userSpaceOnUse">
<stop stop-color="#1C1B1A" stop-opacity="0.79"/>
<stop offset="1" stop-color="#1C1B1A"/>
</linearGradient>
<linearGradient id="paint2_linear_264_13411" x1="30.4571" y1="17" x2="30.4571" y2="48.2855" gradientUnits="userSpaceOnUse">
<stop stop-color="#1C1B1A" stop-opacity="0.79"/>
<stop offset="1" stop-color="#1C1B1A"/>
</linearGradient>
<linearGradient id="paint3_linear_264_13411" x1="29.6194" y1="46.2299" x2="13.3836" y2="48.2854" gradientUnits="userSpaceOnUse">
<stop stop-color="#EDA54D"/>
<stop offset="1" stop-color="#96EFF9"/>
</linearGradient>
<linearGradient id="paint4_linear_264_13411" x1="54.9366" y1="28.7423" x2="5.59429" y2="35.653" gradientUnits="userSpaceOnUse">
<stop stop-color="#121212"/>
<stop offset="1" stop-color="#222323"/>
</linearGradient>
<linearGradient id="paint5_linear_264_13411" x1="30.4571" y1="9" x2="30.4571" y2="40.2855" gradientUnits="userSpaceOnUse">
<stop stop-color="#1C1B1A" stop-opacity="0.79"/>
<stop offset="1" stop-color="#1C1B1A"/>
</linearGradient>
<linearGradient id="paint6_linear_264_13411" x1="30.4571" y1="9" x2="30.4571" y2="40.2855" gradientUnits="userSpaceOnUse">
<stop stop-color="#1C1B1A" stop-opacity="0.79"/>
<stop offset="1" stop-color="#1C1B1A"/>
</linearGradient>
<linearGradient id="paint7_linear_264_13411" x1="29.6194" y1="38.2299" x2="13.3836" y2="40.2854" gradientUnits="userSpaceOnUse">
<stop stop-color="#EDA54D"/>
<stop offset="1" stop-color="#96EFF9"/>
</linearGradient>
<linearGradient id="paint8_linear_264_13411" x1="54.9366" y1="20.7423" x2="5.59429" y2="27.653" gradientUnits="userSpaceOnUse">
<stop stop-color="#121212"/>
<stop offset="1" stop-color="#222323"/>
</linearGradient>
<linearGradient id="paint9_linear_264_13411" x1="30.4571" y1="1" x2="30.4571" y2="32.2855" gradientUnits="userSpaceOnUse">
<stop stop-color="#1C1B1A" stop-opacity="0.79"/>
<stop offset="1" stop-color="#1C1B1A"/>
</linearGradient>
<linearGradient id="paint10_linear_264_13411" x1="30.4571" y1="1" x2="30.4571" y2="32.2855" gradientUnits="userSpaceOnUse">
<stop stop-color="#1C1B1A" stop-opacity="0.79"/>
<stop offset="1" stop-color="#1C1B1A"/>
</linearGradient>
<linearGradient id="paint11_linear_264_13411" x1="30.4571" y1="1" x2="30.4571" y2="15.4078" gradientUnits="userSpaceOnUse">
<stop stop-color="#606060"/>
<stop offset="1" stop-color="#292725" stop-opacity="0"/>
</linearGradient>
<linearGradient id="paint12_linear_264_13411" x1="29.6194" y1="30.2299" x2="13.3836" y2="32.2854" gradientUnits="userSpaceOnUse">
<stop stop-color="#EDA54D"/>
<stop offset="1" stop-color="#96EFF9"/>
</linearGradient>
<linearGradient id="paint13_linear_264_13411" x1="47.5" y1="35" x2="47.5" y2="59" gradientUnits="userSpaceOnUse">
<stop stop-color="#BE9361"/>
<stop offset="1" stop-color="#A07041"/>
</linearGradient>
</defs>
</svg>
